<?xml version="1.0" encoding="UTF-8"?>
<svg width="192px" height="56px" viewBox="0 0 192 56" version="1.1" xmlns="http://www.w3.org/2000/svg" xmlns:xlink="http://www.w3.org/1999/xlink">
    <title>Logos/Vendors/AbleTo</title>
    <defs>
        <rect id="path-1" x="0" y="0" width="193" height="39"></rect>
    </defs>
    <g id="Logos/Vendors/AbleTo" stroke="none" stroke-width="1" fill="none" fill-rule="evenodd">
        <g id="AbleTo_FullColor_Logo" transform="translate(0, 9)">
            <mask id="mask-2" fill="white">
                <use xlink:href="#path-1"></use>
            </mask>
            <g id="Rectangle"></g>
            <g id="Group" mask="url(#mask-2)" fill-rule="nonzero">
                <path d="M54.3120262,30.0340625 L51.3372462,38.4515625 L43.5517524,38.4515625 L57.2503307,0 L64.2657861,0 L77.9643645,38.4434375 L70.170765,38.4434375 L67.195985,30.0259375 L54.3079734,30.0259375 L54.3120262,30.0340625 Z M60.756032,10.0953125 L56.1317486,23.9565625 L65.3722097,23.9565625 L60.756032,10.0953125 L60.756032,10.0953125 Z M86.9697612,38.4434375 L79.9664644,38.4434375 L79.9664644,0 L87.2007728,0 L87.2007728,14.7184375 C88.0559207,11.724375 90.8929044,9.4534375 94.2972848,9.4534375 C99.8415615,9.4534375 105.175091,13.2925 105.175091,21.636875 L105.175091,26.690625 C105.175091,35.0390625 99.5781273,38.9959375 94.2972848,38.9959375 C90.5767834,38.9959375 88.1856114,36.5096875 86.9697612,34.515 L86.9697612,38.4475 L86.9697612,38.4434375 Z M97.9407824,21.913125 C97.9407824,18.1228125 95.3064404,16.4246875 92.5707776,16.4246875 C89.8351148,16.4246875 87.2007728,18.126875 87.2007728,21.913125 L87.2007728,26.4184375 C87.2007728,30.20875 89.8351148,31.906875 92.5707776,31.906875 C95.3064404,31.906875 97.9407824,30.2046875 97.9407824,26.4184375 L97.9407824,21.913125 Z M127.125239,25.585625 L127.125239,26.9140625 C127.125239,30.2615625 128.98549,32.4634375 132.495244,32.4634375 C135.068793,32.4634375 136.770983,31.2528125 137.484282,29.3353125 L144.828017,29.3353125 C143.681065,35.2665625 139.514752,39 132.499297,39 C124.389576,39 119.894983,33.840625 119.894983,25.98375 L119.894983,22.36 C119.894983,14.5071875 124.389576,9.34375 132.499297,9.34375 C140.609017,9.34375 145.10361,14.51125 145.10361,22.36 L145.10361,25.5896875 L127.121186,25.5896875 L127.125239,25.585625 Z M127.125239,21.653125 L137.808509,21.653125 L137.808509,21.0640625 C137.808509,20.8284375 137.804456,20.5846875 137.772033,20.3490625 C137.443754,17.5459375 135.644296,15.8721875 132.491191,15.8721875 C129.617732,15.8721875 127.866907,17.3428125 127.295458,19.6625 C127.165767,20.1865625 127.117133,20.7309375 127.117133,21.2671875 L127.117133,21.6490625 L127.121186,21.6490625 L127.125239,21.653125 Z M118.338695,33.0728125 L118.338695,38.4434375 L115.659772,38.4434375 C110.618047,38.4434375 108.425464,35.8028125 108.425464,31.191875 L108.425464,0 L115.659772,0 L115.659772,30.444375 C115.659772,32.004375 116.802671,33.0728125 118.209004,33.0728125 L118.338695,33.0728125 Z" id="Shape" fill="#85356F"></path>
                <polygon id="Path" fill="#C177B6" points="161.890447 7.304375 161.890447 38.4475 154.32786 38.4475 154.32786 7.304375 143.64459 7.304375 143.64459 0 172.573717 0 172.573717 7.304375 161.890447 7.304375"></polygon>
                <path d="M180.395687,9.3396875 C172.285966,9.3396875 167.791374,14.5071875 167.791374,22.3559375 L167.791374,25.975625 C167.791374,33.8284375 172.285966,38.991875 180.395687,38.991875 C188.505407,38.991875 193,33.8325 193,25.975625 L193,22.351875 C193,14.4990625 188.505407,9.3396875 180.395687,9.3396875 L180.395687,9.3396875 Z M185.765692,26.9140625 C185.765692,30.2615625 183.905441,32.4634375 180.395687,32.4634375 C176.885933,32.4634375 175.025682,30.265625 175.025682,26.9140625 L175.025682,21.4215625 C175.025682,18.0740625 176.885933,15.8721875 180.395687,15.8721875 C183.905441,15.8721875 185.765692,18.07 185.765692,21.4215625 L185.765692,26.9140625 Z" id="Shape" fill="#C177B6"></path>
                <path d="M36.8159425,35.286875 L29.4073623,35.286875 L29.4073623,7.42625 C29.4073623,3.323125 32.7225804,0 36.8159425,0 L36.8159425,35.286875 Z" id="Path" fill="#C177B6"></path>
                <path d="M31.5756284,37.31 L17.6784612,13.186875 C15.6358329,9.628125 16.8476302,5.0903125 20.389807,3.0346875 L36.8159425,31.57375 L31.5756284,37.31 Z" id="Path" fill="#A94E99"></path>
                <path d="M32.9333277,38.6709375 L8.85949476,24.740625 C5.31731799,22.693125 4.10552067,18.1471875 6.14814893,14.5965625 L36.6376179,32.24 L32.9333277,38.6709375 Z" id="Path" fill="#85356F"></path>
                <path d="M36.8159425,39 L7.40858025,39 C3.31521808,39 0,35.676875 0,31.57375 L36.8159425,31.57375 L36.8159425,39 Z" id="Path" fill="#662955"></path>
            </g>
        </g>
    </g>
</svg>