<?xml version="1.0" encoding="UTF-8"?>
<svg width="24px" height="24px" viewBox="0 0 24 24" version="1.1" xmlns="http://www.w3.org/2000/svg" xmlns:xlink="http://www.w3.org/1999/xlink">
    <title>Icon-App/Status/Success-Filled</title>
    <defs>
        <path d="M12.7046,6.3945 L8.9206,11.3635 L7.2876,9.2775 C6.9476,8.8415 6.3176,8.7655 5.8836,9.1065 C5.4486,9.4465 5.3716,10.0755 5.7126,10.5095 L8.1436,13.6165 C8.3336,13.8585 8.6236,13.9995 8.9316,13.9995 L8.9386,13.9995 C9.2476,13.9985 9.5396,13.8525 9.7266,13.6055 L14.2956,7.6055 C14.6306,7.1655 14.5456,6.5395 14.1056,6.2045 C13.6646,5.8695 13.0386,5.9555 12.7046,6.3945 M10,0 C4.477,0 0,4.478 0,10 C0,15.522 4.477,20 10,20 C15.523,20 20,15.522 20,10 C20,4.478 15.523,0 10,0" id="path-1"></path>
    </defs>
    <g id="Icon-App/Status/Success-Filled" stroke="none" stroke-width="1" fill="none" fill-rule="evenodd">
        <g id="24x24-Spacers">
            <rect id="Rectangle" x="0" y="0" width="24" height="24"></rect>
        </g>
        <g id="App/✱-Foundation/Icons/Status/Paid-Filled" transform="translate(2, 2)">
            <mask id="mask-2" fill="white">
                <use xlink:href="#path-1"></use>
            </mask>
            <use id="🎨-Icon-Сolor" fill="#508316" xlink:href="#path-1"></use>
        </g>
    </g>
</svg>