<?xml version="1.0" encoding="UTF-8"?>
<svg width="192px" height="56px" viewBox="0 0 192 56" version="1.1" xmlns="http://www.w3.org/2000/svg" xmlns:xlink="http://www.w3.org/1999/xlink">
    <title>Logos/Vendors/Alight</title>
    <g id="Logos/Vendors/Alight" stroke="none" stroke-width="1" fill="none" fill-rule="evenodd">
        <g id="Alight_Logo" transform="translate(25, 2)" fill="#000000" fill-rule="nonzero">
            <path d="M14.1186441,31.6965465 C9.84745763,31.6965465 6.88135593,28.5450928 6.88135593,23.9391221 C6.78384264,21.9159556 7.50307101,19.9405121 8.87103828,18.4742305 C10.2390055,17.0079488 12.1359048,16.1792464 14.1186441,16.1816922 C18.2711864,16.1816922 21.2372881,19.4543611 21.2372881,23.9391221 C21.2372881,28.4238831 18.2711864,31.6965465 14.1186441,31.6965465 Z M14,10 C5.93220339,10 0,15.8180683 0,23.9391221 C0,32.0601758 5.45762712,37.9997308 12.9322034,37.9997308 C15.9432227,38.019094 18.8715004,36.9934019 21.2372881,35.0904197 L21.2372881,37.5146149 L28,37.5146149 L28,23.9391221 C28,15.8180683 22.1864407,10 14,10 L14,10 Z" id="Shape"></path>
            <path d="M38.5783756,29.433615 C37.9513531,28.7261037 37.6545798,27.7785684 37.7638659,26.8330547 L37.7638659,0 L31.0150708,0 L31.0150708,26.951262 C30.8560967,29.8754543 31.9609227,32.7245727 34.0403927,34.7529431 C35.7602592,36.2360006 37.9517496,37.0341117 40.2073951,36.9988816 L43,36.9988816 L43,30.1428588 L41.487339,30.1428588 C40.4481189,30.2687876 39.402122,29.9712551 38.5783756,29.3154078" id="Path"></path>
            <g id="Group" transform="translate(47, 0)">
                <path d="M4.06153824,0 C1.81841261,0 0,1.75211641 0,3.91346154 C0.341874062,5.78420564 2.0286012,7.14826225 4,7.14826225 C5.97139836,7.14826225 7.6581255,5.78420564 8,3.91346154 C8.00100802,1.79759416 6.25645712,0.0641169769 4.06153824,0" id="Path"></path>
                <polyline id="Path" points="0.492307665 37 7.5076919 37 7.5076919 10.5544872 0.492307665 10.5544872"></polyline>
            </g>
            <g id="Group" transform="translate(58, 10)">
                <path d="M14,0 C6.16949153,0 0.355932203,5.60339943 0,13.2776204 L7,13.2776204 C7.12896251,9.35608281 10.2975352,6.26553834 14.1186441,6.33427762 C17.9152554,6.3294022 21.0474604,9.38447462 21.2372881,13.2776204 L28,13.2776204 C27.6440678,5.60339943 21.8305085,0 14,0" id="Path"></path>
                <path d="M20.8813559,16.8101983 L20.5254237,17.7847025 L20.4067797,17.7847025 C19.0144894,20.3475594 16.2835064,21.8290548 13.4368176,21.5657464 C10.5901289,21.302438 8.16101815,19.3436526 7.23728814,16.5665722 L0.118644068,16.5665722 C0.957893811,23.1594637 6.45644499,28.073067 12.9322034,28.0169972 C15.9401758,28.0177712 18.8625731,26.9890441 21.2372881,25.0934844 L21.2372881,28.1388102 C21.2425521,29.1186015 21.1631448,30.0969406 21,31.0623229 C20.2345788,34.3818304 17.3343883,36.7162413 14.0119908,36.6870863 C10.6895932,36.6579312 7.82868995,34.272965 7.11864407,30.9405099 L0.118644068,30.9405099 C1.06779661,38.0056657 6.52542373,43 14,43 C21.4745763,43 26.8135593,38.2492918 27.7627119,31.305949 L27.8813559,31.305949 L27.8813559,31.0623229 L27.8813559,31.0623229 C27.8813559,30.5750708 28,29.3569405 28,27.1643059 L28,16.8101983 L20.8813559,16.8101983" id="Path"></path>
            </g>
            <path d="M103.636364,9.15960912 C101.270206,9.15937607 98.9656083,9.91930764 97.0574163,11.3289902 L97.0574163,0 L90,0 L90,37 L97.0574163,37 L97.0574163,20.970684 C96.9529838,19.4918072 97.4822012,18.0386814 98.5112093,16.9788575 C99.5402173,15.9190337 100.970466,15.3540127 102.440191,15.4267101 C103.899517,15.4267101 105.299072,16.0108057 106.33097,17.0505025 C107.362869,18.0901993 107.942584,19.5003307 107.942584,20.970684 L107.942584,37 L115,37 L115,20.6091205 C115,20.1270358 114.880383,19.6449511 114.880383,19.2833876 C114.164544,13.5547233 109.366462,9.23467383 103.636364,9.15960912" id="Path"></path>
            <path d="M130.575584,30.4037691 C129.152398,30.600887 127.703719,30.2548806 126.56132,29.4449921 C125.674049,28.4364893 125.254956,27.1435666 125.395889,25.8495783 L125.395889,14.3442541 L130.316599,14.3442541 L130.316599,8.11220347 L125.395889,8.11220347 L125.395889,2 L118.014824,2 L118.014824,25.8495783 C117.843761,29.1074886 119.159395,32.2820457 121.64061,34.5984185 C123.694699,36.2168481 126.325296,37.0711135 129.021675,36.9953611 L132,36.9953611 L132,30.2839219 L130.575584,30.2839219" id="Path"></path>
            <path d="M137.329602,31.1769763 C138.163393,30.5944095 139.876256,30.5944095 140.671072,31.1769763 C141.465888,31.7595432 141.946317,32.6234376 141.946317,33.8589491 C141.946317,34.7200978 141.681804,35.515187 141.132566,36.1098357 C140.583328,36.7044843 139.829711,37.0238446 139.053569,36.9908526 C138.25941,37.0579362 137.47672,36.7537114 136.903312,36.1550666 C136.329904,35.5564218 136.020646,34.7206385 136.053696,33.8589491 C136.053696,32.8272787 136.495812,31.7595432 137.329602,31.1769763 Z M141.410612,33.8589491 C141.473894,33.153059 141.249891,32.4523592 140.797106,31.9398564 C140.344322,31.4273536 139.707721,31.1539423 139.053569,31.1910312 C138.391047,31.1576133 137.746178,31.4279494 137.277196,31.9357068 C136.808214,32.4434641 136.558522,33.1416497 136.589388,33.8589491 C136.555131,34.5671858 136.807663,35.2564204 137.281029,35.7466405 C137.754394,36.2368606 138.401585,36.4793845 139.053569,36.4108705 C139.687689,36.4444216 140.305387,36.1863505 140.754312,35.7003081 C141.203238,35.2142657 141.441601,34.5454974 141.410612,33.8589491 L141.410612,33.8589491 Z M137.767909,32.0030062 L139.160707,32.0030062 C139.462912,31.9701181 139.763809,32.077649 139.98855,32.2988506 C140.21329,32.5200522 140.340752,32.8341348 140.339229,33.1629705 C140.407624,33.6388367 140.128422,34.0922671 139.696399,34.2069384 L140.446367,35.5988955 L139.696399,35.5988955 L138.946431,34.3229348 L138.517878,34.3229348 L138.517878,35.5988955 L137.767909,35.5988955 L137.767909,32.0030062 Z M139.160707,33.7429526 C139.456562,33.7429526 139.696399,33.4832858 139.696399,33.1629705 C139.696399,32.8426552 139.456562,32.5829884 139.160707,32.5829884 L138.517878,32.5829884 L138.517878,33.7429526 L139.160707,33.7429526 Z" id="Shape"></path>
        </g>
    </g>
</svg>