<?xml version="1.0" encoding="UTF-8"?>
<svg width="50px" height="50px" viewBox="0 0 50 50" version="1.1" xmlns="http://www.w3.org/2000/svg" xmlns:xlink="http://www.w3.org/1999/xlink">
    <title>Icon-Enterprise/Primary/Fitness-2</title>
    <g id="Icon-Enterprise/Primary/Fitness-2" stroke="none" stroke-width="1" fill="none" fill-rule="evenodd">
        <g id="Icon-Fitness-Shoe" fill-rule="nonzero">
            <g id="Group" transform="translate(0.8, 0)">
                <path d="M36.4997291,40.7788354 C32.1797294,38.8988356 30.0497296,35.2655024 30.1097298,29.8788358 L30.1097298,29.8788358 C29.1681442,30.1165925 28.2008667,30.2375032 27.2297287,30.2388383 C20.602314,30.2388383 15.2297287,24.866253 15.2297306,18.2388364 C15.231636,17.4603845 15.3052807,16.6837674 15.4497299,15.9188358 C12.1697286,15.7655034 9.35306134,16.9821702 6.99972819,19.5688363 L0.999728187,25.7088357 C0.672090872,26.0495111 0.672090515,26.5881597 0.99972771,26.928835 L20.3497295,46.2288362 C22.8444824,48.7526094 26.3076877,50.0759164 29.8497333,49.8588334 L44.8497276,49.8588372 C45.3081245,49.8588411 45.6797294,49.4872323 45.6797294,49.0288354 L45.6797294,47.338833 C45.6797294,44.4788324 42.9897308,43.6088334 36.5197296,40.7788316" id="Path-525" fill="#5DC1FD"></path>
                <g id="Group-348" transform="translate(1.591, 0)">
                    <g id="Group-346" transform="translate(13.669, 0)">
                        <path d="M0.53,15.6590001 L15.6699994,0.749 L28.2300008,13.1690003 L13.4399998,27.8889996" id="Path-526" fill="#FFFFFF"></path>
                        <path d="M13.9699993,28.4193407 L12.9200001,27.3593413 L27.1600018,13.1693407 L15.6700001,1.80934049 L1.05999947,16.1893412 L0,15.1193415 L15.1399994,0.219340438 C15.4328175,-0.0731131341 15.9071846,-0.073113611 16.2000027,0.219339797 L28.7500019,12.6393401 C28.8972988,12.7761504 28.9806881,12.968311 28.9800094,13.1693398 C28.9800094,13.3681876 28.9006939,13.5588242 28.7600002,13.6993405 L13.9699993,28.4193407 Z" id="Path-527" fill="#161616"></path>
                    </g>
                    <g id="Group-347" transform="translate(0, 10.122)">
                        <path d="M10.4690022,3.74733634 C11.5490021,2.69733615 14.9390024,0.327336265 18.249,0.747336342 C17.749,0.677336647 17.6490015,1.83733649 17.6490015,2.33733649 C17.6490015,9.15733714 22.5390009,14.5473365 29.2990011,14.5473365 C30.1995138,14.4974441 31.0933966,14.3635292 31.9689993,14.1473369 C31.9689993,14.7073364 32.1989989,21.7773361 37.8490004,24.567337 C38.4090018,24.8473358 39.3190016,25.2073364 39.8490004,25.4273376 C45.038999,27.6673393 46.8490004,28.6973381 46.8490004,30.7073364 L46.7790007,37.0573349 L28.8390002,37.0573349 C25.8044447,37.0495834 22.8961672,35.8416976 20.749,33.6973381 L0.749,13.6973342 L10.4690022,3.74733634 Z" id="Path-528" fill="#FFFFFF"></path>
                        <path d="M46.7793407,37.8676259 L46.7793407,37.8676259 L28.8393401,37.8676259 C25.6050586,37.8637737 22.5045432,36.5760845 20.2193393,34.2873233 L0.219339281,14.2873233 C-0.0731132925,13.9945053 -0.073113054,13.520142 0.219339758,13.2273239 L9.94933882,3.22732388 L9.94933882,3.22732388 C11.039339,2.17732369 14.6693381,-0.452676423 18.3593387,0.0673240344 L18.3593387,0.0673240344 C18.7023162,0.11386048 18.9689044,0.389057509 19.0045203,0.733340613 C19.0401362,1.07762276 18.8355273,1.40156399 18.5093402,1.5173248 C18.4399127,1.80542409 18.4063243,2.10099351 18.4093379,2.39732491 C18.4093379,8.93732487 23.0893382,13.857323 29.3093375,13.857323 C30.1525249,13.8072113 30.9893474,13.680014 31.8093394,13.4773258 C32.0205134,13.431063 32.2414187,13.4745201 32.4193324,13.5973228 C32.5912799,13.7267307 32.7003001,13.9229683 32.7193355,14.1373256 L32.7193355,14.2973255 C32.8993358,16.987326 33.8493365,21.8173259 38.1693362,23.9573253 C38.7593364,24.2473262 39.7993373,24.6573261 40.1693362,24.7973255 C45.4693355,27.0773243 47.619337,28.2473262 47.619337,30.7973255 L47.5493373,37.1573261 C47.5277919,37.5636943 47.1861209,37.8787426 46.7793445,37.8676259 L46.7793407,37.8676259 Z M1.78934184,13.7173256 L21.2793426,33.1573261 C23.2822646,35.1665653 26.0023135,36.2963184 28.839342,36.2973255 L46.0393428,36.2973255 L46.0993442,30.6873249 C46.0993442,29.2473262 44.8793429,28.3873256 39.5793437,26.107323 C38.9793452,25.8773235 38.0993442,25.5173229 37.5193423,25.227322 C34.0393428,23.5673259 31.7993411,19.8673252 31.2893418,15.0973247 C30.6307925,15.2345222 29.9616603,15.3148178 29.2893418,15.3373226 C22.2193431,15.3373245 16.8893432,9.7673248 16.8893432,2.33732449 C16.8858203,2.04247319 16.9092521,1.74791466 16.9593429,1.45732629 C14.7215518,1.74667393 12.6268777,2.7172054 10.9593448,4.23732411 L1.78934184,13.7173256 Z" id="Path-529" fill="#161616"></path>
                    </g>
                    <path d="M31.1589997,44.1489992 C27.6545957,44.1391916 24.2952302,42.7487382 21.8089994,40.2790002 L3.129,21.5789995 L4.19900017,20.519 L22.8690007,39.2090005 C25.0694993,41.4056253 28.0497735,42.642312 31.1589997,42.649003 L31.1589997,42.6489992 L46.1589997,42.5789995 L46.1589997,44.0789995 L31.1589997,44.1489992 Z" id="Path-530" fill="#161616"></path>
                    <path d="M17.8690007,35.6690011 L16.8090012,34.5990014 C20.1033509,31.296803 20.1033509,25.951201 16.8090012,22.6490007 L9.589,15.4290004 L10.6489995,14.369 L17.8889992,21.5890012 C21.7474702,25.492518 21.7385438,31.7764631 17.8690026,35.6690011 L17.8690007,35.6690011 Z" id="Path-531" fill="#161616"></path>
                    <path d="M12.7290004,29.5890005 L11.669,28.5190008 C12.4787324,27.7105272 12.9337419,26.6132448 12.9337419,25.4689996 C12.9337419,24.3247545 12.4787324,23.227474 11.669,22.4190004 L6.919,17.6289995 L7.97899947,16.569 L12.7489999,21.3690011 C15.0147127,23.640619 15.0147127,27.3173807 12.748998,29.5890005 L12.7290004,29.5890005 Z" id="Path-532" fill="#161616"></path>
                    <path d="M28.899238,29.5290648 C28.5294393,29.5508715 28.1991132,29.2994219 28.1216673,28.9371668 C28.0442194,28.5749117 28.2428526,28.2103754 28.5892404,28.0790659 C29.8346723,27.6051337 31.15669,27.3644568 32.48924,27.3690649 C32.9027265,27.4010149 33.2166265,27.7547099 33.1992353,28.1690642 C33.1890882,28.369145 33.0982526,28.5565611 32.9474806,28.6884848 C32.7967123,28.8204085 32.5988973,28.8855654 32.3992399,28.8690649 C31.2854704,28.8728796 30.1813825,29.0760847 29.1392416,29.4690634 C29.0637392,29.5040156 28.9823068,29.5243727 28.8992399,29.5290667 L28.899238,29.5290648 Z" id="Path-533" fill="#161616"></path>
                    <path d="M30.6691541,33.4285504 C30.3134984,33.4266926 30.0080518,33.1752926 29.9378347,32.8266331 C29.8676175,32.4779698 30.0519399,32.1279332 30.3791532,31.9885518 C31.6505956,31.4793278 33.0095968,31.2245137 34.3791532,31.2385499 C34.5773649,31.2488038 34.7631482,31.3382508 34.8947744,31.4868008 C35.0264005,31.6353509 35.0928373,31.8305489 35.0791578,32.0285527 C35.0716543,32.22776 34.9830083,32.4152333 34.8338003,32.5474392 C34.684596,32.6796452 34.4878187,32.7450825 34.289153,32.7285534 C33.1580839,32.7359273 32.0385389,32.9564435 30.9891538,33.3785512 C30.8862829,33.4140126 30.7779378,33.4309384 30.6691541,33.4285504 Z" id="Path-534" fill="#161616"></path>
                </g>
                <line x1="0" y1="47.2189995" x2="16.8600006" y2="47.2189995" id="Line-15" stroke="#161616" stroke-width="1.5" stroke-linecap="round"></line>
            </g>
            <g id="50x50-Spacers">
                <rect id="Rectangle-205" x="0" y="0" width="50" height="50"></rect>
            </g>
        </g>
    </g>
</svg>