<?xml version="1.0" encoding="UTF-8"?>
<svg width="66px" height="66px" viewBox="0 0 66 66" version="1.1" xmlns="http://www.w3.org/2000/svg" xmlns:xlink="http://www.w3.org/1999/xlink">
    <title>A7F3433E-27DD-4C18-8C43-86746579A6F4</title>
    <defs>
        <polygon id="path-1" points="0 0 25.0967842 0 25.0967842 25.1326274 0 25.1326274"></polygon>
        <polygon id="path-3" points="0 0 20.1504086 0 20.1504086 25.2460296 0 25.2460296"></polygon>
    </defs>
    <g id="Dashboard" stroke="none" stroke-width="1" fill="none" fill-rule="evenodd">
        <g id="Dashboard_V10" transform="translate(-895, -3041)">
            <g id="Bottom" transform="translate(0, 3010)">
                <g id="Top" transform="translate(208, 0)">
                    <g id="BCBSTN" transform="translate(688, 32)">
                        <path d="M18.1866667,0 L45.8136889,0 C52.1372444,0 54.4305778,0.658488889 56.7424,1.89475556 C59.0542222,3.13137778 60.8686222,4.94577778 62.1052444,7.2576 C63.3418667,9.56942222 64,11.8627556 64,18.1863111 L64,45.8136889 C64,52.1372444 63.3418667,54.4305778 62.1052444,56.7424 C60.8686222,59.0542222 59.0542222,60.8686222 56.7424,62.1048889 C54.4305778,63.3415111 52.1372444,64 45.8136889,64 L18.1866667,64 C11.8627556,64 9.56942222,63.3415111 7.2576,62.1048889 C4.94577778,60.8686222 3.13137778,59.0542222 1.89511111,56.7424 C0.658488889,54.4305778 0,52.1372444 0,45.8136889 L0,18.1863111 C0,11.8627556 0.658488889,9.56942222 1.89511111,7.2576 C3.13137778,4.94577778 4.94577778,3.13137778 7.2576,1.89475556 C9.56942222,0.658488889 11.8627556,0 18.1866667,0" id="Fill-1" fill="#FFFFFF"></path>
                        <g id="Border" stroke="#E5E5E5" stroke-width="0.355555556">
                            <path d="M18.1866667,0 L45.8136889,0 C52.1372444,0 54.4305778,0.658488889 56.7424,1.89475556 C59.0542222,3.13137778 60.8686222,4.94577778 62.1052444,7.2576 C63.3418667,9.56942222 64,11.8627556 64,18.1863111 L64,45.8136889 C64,52.1372444 63.3418667,54.4305778 62.1052444,56.7424 C60.8686222,59.0542222 59.0542222,60.8686222 56.7424,62.1048889 C54.4305778,63.3415111 52.1372444,64 45.8136889,64 L18.1866667,64 C11.8627556,64 9.56942222,63.3415111 7.2576,62.1048889 C4.94577778,60.8686222 3.13137778,59.0542222 1.89511111,56.7424 C0.658488889,54.4305778 0,52.1372444 0,45.8136889 L0,18.1863111 C0,11.8627556 0.658488889,9.56942222 1.89511111,7.2576 C3.13137778,4.94577778 4.94577778,3.13137778 7.2576,1.89475556 C9.56942222,0.658488889 11.8627556,0 18.1866667,0 Z"></path>
                        </g>
                        <g id="BCBSTN-" transform="translate(7.5, 10.6875)">
                            <g id="TN" transform="translate(29.3694, 31.9602)" fill="#005DB9">
                                <polygon id="Fill-15" points="8.64459918 0 8.64459918 1.76999847 5.47295743 1.76999847 5.47295743 10.6647829 3.17164176 10.6647829 3.17164176 1.76999847 0 1.76999847 0 0"></polygon>
                                <polygon id="Fill-17" points="13.5709008 0 17.5687835 8.39318416 17.5687835 0 19.6930476 0 19.6930476 10.6647829 16.5509144 10.6647829 12.4204207 1.81443507 12.4204207 10.6647829 10.2662926 10.6647829 10.2662926 0"></polygon>
                            </g>
                            <g id="Cross-Shield">
                                <g id="Cross" transform="translate(0, 0.0006)">
                                    <g id="Registered-mark" transform="translate(21.7169, 22.5986)" fill="#005DB9">
                                        <path d="M1.25216033,2.29790523 C0.641012228,2.29790523 0.199094203,1.86064913 0.199094203,1.24706862 C0.199094203,0.639531482 0.641012228,0.198720455 1.25216033,0.198720455 C1.85975317,0.198720455 2.29882699,0.639531482 2.29882699,1.24706862 C2.29882699,1.86064913 1.85975317,2.29790523 1.25216033,2.29790523 M1.25216033,0 C0.561730072,0 0,0.56203406 0,1.24706862 C0,1.93743556 0.561730072,2.49698117 1.25216033,2.49698117 C1.93974638,2.49698117 2.4979212,1.93743556 2.4979212,1.24706862 C2.4979212,0.56203406 1.93974638,0 1.25216033,0" id="Fill-1"></path>
                                        <path d="M1.21877649,1.15158326 L0.964931386,1.15158326 L0.964931386,0.691575623 L1.35956454,0.691575623 C1.53057224,0.691575623 1.69802468,0.717171102 1.69802468,0.917669021 C1.69802468,1.18535507 1.4178707,1.15158326 1.21877649,1.15158326 M1.89711889,0.921223949 C1.89711889,0.665624651 1.77055186,0.524138531 1.39902785,0.524138531 L0.784324502,0.524138531 L0.784324502,1.95357494 L0.964931386,1.95357494 L0.964931386,1.31902035 L1.27103872,1.31902035 L1.67384896,1.95357494 L1.88005367,1.95357494 L1.45555639,1.31902035 C1.70335756,1.29840177 1.89711889,1.1938869 1.89711889,0.921223949" id="Fill-3"></path>
                                    </g>
                                    <g>
                                        <mask id="mask-2" fill="white">
                                            <use xlink:href="#path-1"></use>
                                        </mask>
                                        <g id="Clip-6"></g>
                                        <polygon id="Fill-5" fill="#005DB9" mask="url(#mask-2)" points="18.1131995 6.98365535 18.1131995 0 6.98312251 0 6.98312251 6.98365535 -0.000106657609 6.98365535 -0.000106657609 18.1496831 6.98312251 18.1496831 6.98312251 25.1326274 18.1131995 25.1326274 18.1131995 18.1496831 25.0967842 18.1496831 25.0967842 6.98365535"></polygon>
                                    </g>
                                </g>
                                <g id="Shield" transform="translate(28.9121, 0)">
                                    <g id="Registered-mark" transform="translate(16.7624, 22.6544)" fill="#005DB9">
                                        <path d="M1.22727355,2.25169117 C0.628924366,2.25169117 0.194116848,1.82296689 0.194116848,1.21934018 C0.194116848,0.62246783 0.628924366,0.192677078 1.22727355,0.192677078 C1.82420063,0.192677078 2.25331975,0.62246783 2.25331975,1.21934018 C2.25331975,1.82296689 1.82420063,2.25169117 1.22727355,2.25169117 M1.22727355,0 C0.550353261,0 0,0.546747871 0,1.21934018 C0,1.89833136 0.550353261,2.44756768 1.22727355,2.44756768 C1.90206069,2.44756768 2.4502808,1.89833136 2.4502808,1.21934018 C2.4502808,0.546747871 1.90206069,0 1.22727355,0" id="Fill-8"></path>
                                        <path d="M1.19477853,1.12598778 L0.94662183,1.12598778 L0.94662183,0.676644927 L1.33130027,0.676644927 C1.50159692,0.676644927 1.66478306,0.701884913 1.66478306,0.898472412 C1.66478306,1.15975959 1.39209511,1.12598778 1.19477853,1.12598778 M1.85961096,0.899183397 C1.85961096,0.648916491 1.73659918,0.513473748 1.37147464,0.513473748 L0.767437047,0.513473748 L0.767437047,1.91304876 L0.94662183,1.91304876 L0.94662183,1.29271389 L1.24775181,1.29271389 L1.64131839,1.91304876 L1.84361232,1.91304876 L1.42587002,1.29271389 C1.67118252,1.27067334 1.85961096,1.16829142 1.85961096,0.899183397" id="Fill-10"></path>
                                    </g>
                                    <g>
                                        <mask id="mask-4" fill="white">
                                            <use xlink:href="#path-3"></use>
                                        </mask>
                                        <g id="Clip-13"></g>
                                        <path d="M10.0754243,2.11838138 C6.9162259,2.12620222 4.22169918,1.36153729 1.52041748,0 C-0.256853811,3.49129444 -0.534519119,9.16638092 0.998150718,13.9068769 C2.47713623,18.472826 5.3448038,22.6317358 10.0754243,25.2460296 C14.8071113,22.6317358 17.6740678,18.472826 19.1523423,13.9068769 C20.6864342,9.16638092 20.4052137,3.5076471 18.6307866,0.013508725 C15.9287938,1.37646798 13.2349782,2.1077166 10.0754243,2.11838138 Z" id="Fill-12" fill="#005DB9" mask="url(#mask-4)"></path>
                                    </g>
                                </g>
                            </g>
                        </g>
                    </g>
                </g>
            </g>
        </g>
    </g>
</svg>