<?xml version="1.0" encoding="utf-8"?>
<!-- Generator: Adobe Illustrator 24.0.2, SVG Export Plug-In . SVG Version: 6.00 Build 0)  -->
<svg version="1.1" id="Layer_1" xmlns="http://www.w3.org/2000/svg" xmlns:xlink="http://www.w3.org/1999/xlink" x="0px" y="0px"
	 viewBox="0 0 602.1 120.7" style="enable-background:new 0 0 602.1 120.7;" xml:space="preserve">
<style type="text/css">
	.st0{fill-rule:evenodd;clip-rule:evenodd;fill:#222222;}
	.st1{fill-rule:evenodd;clip-rule:evenodd;fill:#FFFFFF;}
	.st2{fill-rule:evenodd;clip-rule:evenodd;fill:#3C6BC8;}
	.st3{fill-rule:evenodd;clip-rule:evenodd;fill:#005EB9;}
</style>
<title>Elements/Logo/BCBST/Blue</title>
<desc>Created with Sketch.</desc>
<g id="Elements_x2F_Logo_x2F_BCBST_x2F_Blue">
	<path id="Fill-1" class="st0" d="M274.6,105.1c0,9.8-7.4,15.5-15.4,15.5c-8.7,0-15-6.6-15-15.8c0-9.7,6.7-15.5,14.8-15.6
		C268.7,89,274.6,96.1,274.6,105.1 M253.3,103.6c0,9.7,0.6,15.3,6.2,15.3c5.7,0,6.1-5.6,6.1-13.8c0-7.5-0.4-14.4-6.2-14.3
		C254,90.8,253.3,96.7,253.3,103.6"/>
	<path id="Fill-3" class="st0" d="M295,80.5c0-1.7-0.6-3.2-2.6-3.2c-2.7,0-2.7,2.8-2.7,5.4V90h4.8v1.6h-4.8v21l0.1,5.8h4.7v1.6
		h-17.5v-1.6h4.3l0.1-5.8v-21h-4.4V90h4.4v-2.8c0.1-3.5,0.1-7.9,4.4-10.2c2.1-1.1,4.5-1.4,6.8-1.4c8.1,0,9.7,4.3,9.7,6.9
		c0,1-0.2,3.9-3.8,3.9c-3.6,0-3.6-2.9-3.6-3.5L295,80.5z"/>
	<path id="Fill-5" class="st0" d="M317.1,76.2h40.7v14.8h-1.7c-0.2-2.1-0.4-4.3-2.8-8c-3.1-4.6-5.7-4.8-8.5-4.9h-2.7l-0.1,5.4v28.9
		l0.1,5.8h5.7v1.6H327v-1.6h5.7l0.1-5.8V83.6l-0.1-5.4h-2.8c-1.2,0-3.2,0.3-5.1,1.5c-2.4,1.5-3.8,3.6-4.6,5.1
		c-1.3,2.6-1.3,4.3-1.4,6.2h-1.7V76.2z"/>
	<path id="Fill-7" class="st0" d="M382.8,111.3c-1.5,3-4.7,9.3-13.6,9.3c-9.1,0-14.7-7.4-14.7-16c0-8.2,5.3-15.5,14.8-15.5
		c5.9,0,9.1,2.7,10.5,4.2c3.2,3.5,3.4,7.2,3.4,9.9h-19.7c0.1,5.3,0.2,10,2.7,12.7c1.4,1.5,3.3,2.1,5.2,2.1c6.4,0,8.8-5.6,9.6-7.6
		L382.8,111.3z M374.2,101.4c0.1-4.8,0.1-10.5-5.2-10.5c-5,0-5.2,5.3-5.4,10.5H374.2z"/>
	<path id="Fill-9" class="st0" d="M416.3,118.3h4.1v1.6h-16.9v-1.6h4.2l0.1-4.8V97.6c-0.1-1.9-0.1-5.5-4-5.5c-1.5,0-3.1,0.6-4.4,1.9
		c-2.5,2.5-2.5,6.6-2.6,10.5v9l0.1,4.8h4.1v1.6h-17v-1.6h4.3l0.1-4.8V96.1l-0.1-4.5h-4.3V90h6.1c3.2-0.1,4-0.1,6.8-0.3l-0.1,5.4
		c0.8-1.6,1.4-2.8,3.1-4.1c1.7-1.2,4.1-2,7.2-2c2.1,0,3.5,0.4,4.3,0.7c4.5,1.8,4.7,5.8,4.8,8.4v15.2L416.3,118.3z"/>
	<path id="Fill-11" class="st0" d="M454.4,118.3h4.1v1.6h-16.9v-1.6h4.2l0.1-4.8V97.6c-0.1-1.9-0.1-5.5-4-5.5
		c-1.5,0-3.1,0.6-4.4,1.9c-2.5,2.5-2.5,6.6-2.7,10.5v9l0.1,4.8h4.1v1.6h-17v-1.6h4.3l0.1-4.8V96.1l-0.1-4.5H422V90h6.1
		c3.2-0.1,4-0.1,6.8-0.3l-0.1,5.4c0.8-1.6,1.4-2.8,3.1-4.1c1.7-1.2,4.1-2,7.2-2c2.1,0,3.5,0.4,4.3,0.7c4.5,1.8,4.7,5.8,4.8,8.4v15.2
		L454.4,118.3z"/>
	<path id="Fill-13" class="st0" d="M488.6,111.3c-1.5,3-4.7,9.3-13.6,9.3c-9.1,0-14.7-7.4-14.7-16c0-8.2,5.3-15.5,14.8-15.5
		c5.9,0,9.1,2.7,10.5,4.2c3.2,3.5,3.4,7.2,3.4,9.9h-19.7c0.1,5.3,0.2,10,2.7,12.7c1.4,1.5,3.3,2.1,5.2,2.1c6.4,0,8.8-5.6,9.6-7.6
		L488.6,111.3z M480,101.4c0.1-4.8,0.1-10.5-5.2-10.5c-5,0-5.2,5.3-5.4,10.5H480z"/>
	<path id="Fill-15" class="st0" d="M494.2,108.5c0.2,1.8,0.4,3.3,1.4,5.1c0.9,2,3.4,5.1,7.5,5.1c3.5,0,5.8-2,5.8-4.5
		c0-2.8-2.6-3.9-6.4-5.3c-5.2-2-9.7-3.7-9.7-10.3c0-7.8,6.5-9.6,10.5-9.6c3.2,0,5.9,1,8.7,2l0.1,8h-1.8c-0.2-1.2-0.5-2.4-0.9-3.3
		c-0.8-1.7-3-4.6-6.8-4.6c-3.2,0-4.6,2.2-4.6,3.8c0,1.9,1.5,2.7,2.2,3c0.9,0.4,5.6,2.2,6.7,2.7c3.6,1.5,7.3,3.6,7.3,9.3
		c0,6.5-4.8,10.8-11.9,10.8c-3.9,0-6.8-1.1-9.9-2.3l-0.1-9.8H494.2z"/>
	<path id="Fill-18" class="st0" d="M519.6,108.5c0.2,1.8,0.4,3.3,1.4,5.1c0.9,2,3.4,5.1,7.5,5.1c3.5,0,5.8-2,5.8-4.5
		c0-2.8-2.6-3.9-6.4-5.3c-5.2-2-9.7-3.7-9.7-10.3c0-7.8,6.5-9.6,10.5-9.6c3.2,0,5.9,1,8.7,2l0.1,8h-1.8c-0.2-1.2-0.5-2.4-0.9-3.3
		c-0.8-1.7-3-4.6-6.8-4.6c-3.2,0-4.6,2.2-4.6,3.8c0,1.9,1.5,2.7,2.2,3c0.9,0.4,5.6,2.2,6.7,2.7c3.6,1.5,7.3,3.6,7.3,9.3
		c0,6.5-4.8,10.8-11.9,10.8c-3.9,0-6.8-1.1-9.9-2.3l-0.1-9.8H519.6z"/>
	<path id="Fill-21" class="st0" d="M571,111.3c-1.5,3-4.7,9.3-13.6,9.3c-9.1,0-14.7-7.4-14.7-16c0-8.2,5.3-15.5,14.8-15.5
		c5.9,0,9.1,2.7,10.5,4.2c3.2,3.5,3.4,7.2,3.4,9.9h-19.7c0.1,5.3,0.2,10,2.7,12.7c1.4,1.5,3.3,2.1,5.2,2.1c6.4,0,8.8-5.6,9.6-7.6
		L571,111.3z M562.4,101.4c0.1-4.8,0.1-10.5-5.2-10.5c-5,0-5.2,5.3-5.4,10.5H562.4z"/>
	<path id="Fill-23" class="st0" d="M601.6,111.3c-1.5,3-4.7,9.3-13.6,9.3c-9.1,0-14.7-7.4-14.7-16c0-8.2,5.3-15.5,14.8-15.5
		c5.9,0,9.1,2.7,10.5,4.2c3.2,3.5,3.4,7.2,3.4,9.9h-19.7c0.1,5.3,0.2,10,2.7,12.7c1.4,1.5,3.3,2.1,5.2,2.1c6.4,0,8.8-5.6,9.6-7.6
		L601.6,111.3z M593,101.4c0.1-4.8,0.1-10.5-5.2-10.5c-5,0-5.2,5.3-5.4,10.5H593z"/>
	<g id="Group-27" transform="translate(36.000000, -0.836500)">
		<path id="Fill-25" class="st1" d="M191.1,0.9c-12.9,6.5-25.8,10-40.9,10.1c-15.1,0-28-3.6-40.9-10.1c-8.5,16.7-9.8,43.8-2.5,66.4
			c7.1,21.8,20.8,41.7,43.4,54.2c22.6-12.5,36.3-32.4,43.4-54.2C200.9,44.6,199.5,17.6,191.1,0.9"/>
	</g>
	<path id="Fill-28" class="st1" d="M59.7,93.6c18.4,0,33.3-14.9,33.3-33.3C92.9,41.9,78,27,59.7,27S26.4,41.9,26.4,60.3
		C26.4,78.7,41.3,93.6,59.7,93.6"/>
	<path id="Fill-30" class="st2" d="M109.4,118.9c-2.9,0-5-2.1-5-5c0-2.9,2.1-5,5-5c2.9,0,5,2.1,5,5
		C114.4,116.8,112.3,118.9,109.4,118.9 M109.4,107.9c-3.3,0-6,2.7-6,6c0,3.3,2.7,6,6,6c3.3,0,5.9-2.7,5.9-6
		C115.4,110.6,112.7,107.9,109.4,107.9"/>
	<path id="Fill-32" class="st2" d="M109.2,113.4H108v-2.2h1.9c0.8,0,1.6,0.1,1.6,1.1C111.5,113.6,110.2,113.4,109.2,113.4
		 M112.5,112.3c0-1.2-0.6-1.9-2.4-1.9h-2.9v6.8h0.9v-3h1.5l1.9,3h1l-2-3C111.6,114.1,112.5,113.6,112.5,112.3"/>
	<path id="Fill-34" class="st3" d="M59.6,69.1L48.5,86c3.5,1.6,7.4,2.4,11.5,2.4c4.1,0,8-0.9,11.5-2.4l-11.1-17
		c-0.1-0.2-0.3-0.3-0.5-0.3C59.9,68.8,59.7,68.9,59.6,69.1z"/>
	<path id="Fill-36" class="st3" d="M32.5,53.4c-0.5,2.2-0.8,4.4-0.8,6.7c0,7.1,2.6,13.5,6.8,18.5l11.7-22.4c0.3-0.7,0.2-1.2-1-1.3
		L32.5,53.4z"/>
	<path id="Fill-38" class="st3" d="M38.5,41.7h14.8c0.3-0.1,0.4-0.4,0.1-0.7c-1.6-1.7-2.9-5.4-1.3-8.1C46.7,34.4,42,37.5,38.5,41.7z
		"/>
	<path id="Fill-40" class="st3" d="M81.6,41.7c-3.6-4.1-8.3-7.3-13.7-8.8c1.7,2.8,0.3,6.4-1.3,8.1c-0.3,0.3-0.1,0.6,0.1,0.7H81.6z"
		/>
	<path id="Fill-42" class="st3" d="M70.8,54.9c-1.2,0.1-1.3,0.6-1,1.3l11.7,22.4c4.3-5,6.8-11.4,6.8-18.5c0-2.3-0.3-4.6-0.8-6.7
		L70.8,54.9z"/>
	<path id="Fill-44" class="st3" d="M80.4,86L80.4,86L65.2,57.7c-1.1-2.4-0.6-6.4,3.5-7l22.1-2.1h0h0C92.2,52.1,93,56,93,60.1
		C93,70.6,88,80,80.4,86L80.4,86z M78.2,87.7L78.2,87.7c-5.2,3.4-11.4,5.4-18.1,5.4c-6.7,0-12.9-2-18.1-5.4l0,0v0l0,0l16-24
		c1.2-1.7,3-1.5,4.1,0L78.2,87.7C78.1,87.7,78.1,87.6,78.2,87.7L78.2,87.7z M27.1,60.1c0-4.1,0.7-8,2.1-11.6h0h0l22.1,2.1
		c4.2,0.6,4.6,4.6,3.5,7L39.7,86.1l0,0C32,80,27.1,70.6,27.1,60.1L27.1,60.1z M60,27.2c13.2,0,24.6,7.8,29.9,19H66.4
		c-3.3-0.1-4.8-2-4.9-3.6c-0.1-1.9,0.2-2.5,1.8-4.5c1.7-2.3,0.5-6.6-3.3-6.7c-3.8,0.1-5,4.4-3.3,6.7c1.5,2,1.9,2.6,1.8,4.5
		c-0.1,1.6-1.5,3.5-4.9,3.6H30.2C35.4,34.9,46.8,27.2,60,27.2L60,27.2z M86.5,33.4V0H33.4v33.4H0v53.3h33.4V120h53.2V86.7h33.4V33.4
		H86.5z"/>
	<path id="Fill-47" class="st2" d="M223.7,119c-2.9,0-4.9-2-4.9-4.9c0-2.9,2.1-4.9,4.9-4.9c2.9,0,4.9,2.1,4.9,4.9
		C228.6,116.9,226.6,119,223.7,119 M223.7,108.2c-3.2,0-5.9,2.6-5.9,5.8c0,3.2,2.6,5.9,5.9,5.9c3.2,0,5.8-2.6,5.8-5.9
		C229.6,110.8,226.9,108.2,223.7,108.2"/>
	<path id="Fill-49" class="st2" d="M223.6,113.6h-1.2v-2.1h1.8c0.8,0,1.6,0.1,1.6,1.1C225.8,113.8,224.5,113.6,223.6,113.6
		 M226.7,112.5c0-1.2-0.6-1.8-2.3-1.8h-2.9v6.7h0.9v-3h1.4l1.9,3h1l-2-3C225.8,114.3,226.7,113.8,226.7,112.5"/>
	<path id="Fill-51" class="st3" d="M221,63.8c-6.3,18.6-16.2,35.1-34.8,46.6c0,0,0,0,0,0h0c0,0,0,0,0,0
		c-18.6-11.5-28.5-28-34.8-46.6c-5.6-16.6-7-35.9-0.8-51c9.3,3.2,14.7,4.2,19.8,5c4.7,0.7,8.9,1.2,15.8,1.3h0
		c6.9-0.1,11.1-0.5,15.8-1.3c5.1-0.8,10.5-1.8,19.8-5C228,27.9,226.7,47.3,221,63.8 M227.1,0.1c-12.9,6.5-25.8,10-40.9,10.1
		c-15.1,0-28-3.6-40.9-10.1c-8.5,16.7-9.8,43.8-2.5,66.4c7.1,21.8,20.8,41.7,43.3,54.2c22.6-12.5,36.3-32.4,43.4-54.2
		C236.9,43.8,235.5,16.8,227.1,0.1"/>
	<path id="Fill-53" class="st2" d="M180,32.6c0.6,0.5,0.5,1.2,1.4,1.1c0.5-0.1,0.7-0.4,1.2-0.7c0.1,0,0.5,0,0.7,0.1
		c-1-1-3-1-4.3-1.1C179.3,32.7,179.6,32.4,180,32.6"/>
	<polygon id="Fill-55" class="st2" points="186.2,105.9 186.2,105.9 186.2,105.9 	"/>
	<path id="Fill-57" class="st3" d="M199.5,34.7c-0.3,0.9-0.5,0.9-1.1,1.5c-1.3,1.1-2.9,2.3-4.6,3.9c-1.1,1-2.1,1.6-2.8,2.8
		c-0.2,0.3-0.6,1-0.6,1c-2.8-0.6-5.6-0.6-7.8-1.1l-0.1-2.4c0,0,2.8,0,3.1-1.7c0-0.1,0-0.6-0.4-0.8c-0.4-0.3-1.2-0.6-1.4-0.7
		c2.1,0.3,4,1.1,6.2,2.1c0.1-0.2-0.2-1-0.4-1.2c-0.3-0.3-0.6-0.6-1.4-0.8c-1.3-0.3-4.5-0.7-4.5-0.7s1.1,0,2.7-0.1
		c0.7-0.1,1.4-0.4,1.5-0.6c0.2-0.3-0.1-0.9-0.5-1.4c-0.3-0.3-0.6-0.6-0.9-1c-0.3-0.5-0.7-1.3-1.3-1.8c-0.7-0.8-2.8-1.7-2.8-1.7
		s-0.2-1.4,0.2-2.1c0.3-0.5,1.4-0.6,1.8-0.4c1.6,0.9,3.4,1.9,5.5,2.3c0.4,0.3,0.5,0.4,0.6,1.1c0.3,1.4-0.3,3.5,0,4.5
		c0.1,0.3,0.5,0.3,0.7,0.2c2-1.1,3.3-2.9,5.3-3.8C197.5,31.4,200.1,32.7,199.5,34.7L199.5,34.7z M190.7,62c0,0,0.2-4.2,0.3-6.3
		c1.1-0.4,1.4-1.5,0.9-2.4c-0.2-0.5-1.1-0.9-1.6-1c-2.3-0.6-4.4-0.7-6.8-1c-2.1-0.2-3.8-0.5-5.7-1c-3.9-1-7.3-2.8-9-6.4
		c-2.2-4.4-0.2-10,4-12.2c3.2-1.7,6.9-1.4,10.1-0.1c1.1,0.4,1.7,1.4,2.4,2.4c0.3,0.4,0.8,0.6,1.1,1.1c0.2,0.3-0.2,0.4-0.4,0.4
		c-0.7,0.2-3.1,0.2-3.9,0.1c-1-0.1-2.6-0.1-3.6,0.1c1,0.6,2.1,1.3,3.1,1.7c0.6,0.2,1.1,0.2,1.7,0.5c0.2,0.1,0.9,0.3,0.9,0.6
		c-0.1,0.3-0.6,0.4-1,0.6c-0.9,0.3-2.2,0.3-3.4,0c-1.9-0.4-2.7-1.5-3.9-0.8c-0.8,0.5-0.8,1.5-0.5,2.6c0.4,1.6,2.1,2.3,3.6,2.8
		c5.1,1.6,10.5,0.7,15.4,3.2c1.9,1,4.1,3,4.5,5.1C200.7,61,190.7,62,190.7,62L190.7,62z M182.7,53.2c0,0,1,0.1,3.4,0.3
		c1.9,0.1,3.1,0.7,3.1,0.7L189,63c-2-0.4-3.3-0.6-5.1-0.8c-0.6-3.2-1.4-4.3-2.7-6.7c-0.3-0.5,0-0.7,0-0.9c0.2-0.3,1.5-0.6,1.5-0.6
		L182.7,53.2z M196.3,72.6c-0.3,1.4-1.3,2.6-2.8,3.5c-1.6,0.9-3.2,1-3.2,1l0.1-4.9c0,0,0.4-0.1,0.6-0.4c0.3-0.3,0.3-0.5,0.3-0.9
		c0-0.3-0.3-0.6-0.7-0.8c-0.5-0.2-1.2-0.3-1.5-0.3c-2.4-0.3-4.6-0.6-7-0.9c-4.3-0.7-7.3-3.1-7-7.2c0.2-2.7,3-3.6,5.1-4.4
		c0.7,1.2,1.3,2.4,1.5,3.1c0.4,1.1,0.6,1.8,0.6,1.8s-0.9,0.2-0.8,0.9c0.1,0.7,0.8,0.9,1.3,1c3,0.4,6.9,0.9,9,1.6
		c1.4,0.5,2.8,1.3,3.6,2.4C196.4,69.6,196.6,70.9,196.3,72.6L196.3,72.6z M184.5,70.8c1.9,0.2,2.7,0.3,4.3,0.5l-0.2,8.1l-1.9-1
		l-1.9-0.9L184.5,70.8z M192,90c-1.1,0.9-2.3,1.2-2.3,1.2l0.1-3.5c0,0,0.4-0.3,0.3-0.8c-0.2-0.7-2.6-2.3-4-2.8
		c-1.3-0.5-3.1-1-4.4-1.6c-3-1.3-4-3.9-2.8-6.7c0.4-1,1.6-1.8,2.3-2.1c0.7-0.4,1.7-0.7,1.7-0.7l0.3,4c0,0-0.4,0.1-0.5,0.5
		c-0.2,0.7,0.4,1.1,0.6,1.2c1.9,0.9,4.8,2,6.8,3.2c2.7,1.6,3.5,2.7,3.6,4.6C193.7,88.1,193,89.1,192,90L192,90z M188.2,98.7
		c0,0.6-0.3,1.1-1.5,1.2c-1,0-1.4-0.3-1.5-1.4c-0.2-4.6-0.4-13.3-0.4-13.3s1.3,0.4,1.9,0.8c0.2,0.1,0.9,0.5,1.5,1.2
		c0.1,0.2,0.2,0.2,0.2,0.5C188.4,91,188.2,97.2,188.2,98.7L188.2,98.7z M183.1,94.9c-0.2,1.2,0.3,1.7,0.2,2.3
		c-0.2,0.9-0.8,0.7-1.1,0c-0.5-0.9-0.8-1.4-1-2.8c-0.2-2.3,0.9-3.3,1.4-3.9c0.6-0.6,1.1-0.8,1.1-0.8l0.2,3.8
		C183.9,93.4,183.2,93.7,183.1,94.9L183.1,94.9z M202.3,22.1c-5.4,0.7-10.8,1.3-16.1,1.3h0c-5.3,0-10.7-0.6-16.1-1.3
		c-5.4-0.7-10.7-2-16.3-3.5c-3.9,11.2-3.1,25.3-0.1,37.8c5.7,23.6,19.9,41.6,32.5,49.5C198.8,98,213,80,218.7,56.4
		c3-12.5,3.9-26.6-0.1-37.8C213,20.1,207.8,21.4,202.3,22.1L202.3,22.1z"/>
</g>
</svg>
