<?xml version="1.0" encoding="UTF-8"?>
<svg width="50px" height="50px" viewBox="0 0 50 50" version="1.1" xmlns="http://www.w3.org/2000/svg" xmlns:xlink="http://www.w3.org/1999/xlink">
    <title>Icon-Enterprise/Primary/Coverage</title>
    <defs>
        <polygon id="path-1" points="0 0 15.9999002 0 15.9999002 16 0 16"></polygon>
    </defs>
    <g id="Icon-Enterprise/Primary/Coverage" stroke="none" stroke-width="1" fill="none" fill-rule="evenodd">
        <g id="Icon-Coverage-Confirmed">
            <g fill-rule="nonzero">
                <g id="Group-235" transform="translate(0.02, 11)">
                    <rect id="Rectangle-140" fill="#5DC1FD" x="0" y="4.35999966" width="42.25" height="29.2099991" rx="1.63999999"></rect>
                    <g id="Group-234" transform="translate(2.71, 0)">
                        <g id="Group-230">
                            <rect id="Rectangle-141" fill="#FFFFFF" x="0.750000019" y="0.729999542" width="42.25" height="29.2099991" rx="0.910000026"></rect>
                            <path d="M42.0902719,30.6900024 L1.65027232,30.6900024 C1.20650191,30.6874008 0.782249159,30.5072212 0.472230858,30.1896858 C0.162212795,29.8721542 -0.00775580996,29.4437065 0,29 L0,1.63000011 C0.0112242163,0.726551056 0.746756262,0 1.65027232,0 L42.0902719,0 C43.001542,0 43.7405455,0.738730431 43.7405455,1.64999962 L43.7405455,29 C43.7483034,29.4437065 43.5783357,29.8721542 43.2683153,30.1896896 C42.9582986,30.5072212 42.5340433,30.6874008 42.0902719,30.6900024 L42.0902719,30.6900024 Z M1.65027232,1.47999954 C1.56742997,1.47999954 1.50027191,1.54715633 1.50027191,1.62999916 L1.50027191,29 C1.50027191,29.0846024 1.56583399,29.1547127 1.65027184,29.1599998 L42.0902719,29.1599998 C42.1360483,29.1657677 42.1820878,29.1514931 42.2165727,29.120842 C42.2510614,29.0901871 42.2702771,29.0461388 42.2702771,29 L42.2702771,1.63000011 C42.2702771,1.54715347 42.2031145,1.47999954 42.1202707,1.47999954 L1.65027232,1.47999954 Z" id="Path-344" fill="#161616"></path>
                        </g>
                        <g id="Group-233" transform="translate(6.13, 5.83)">
                            <g id="Group-231" transform="translate(0.17, 11.19)" fill="#161616">
                                <path d="M13.6199999,1.5 L0.75,1.5 C0.335786819,1.5 0,1.16421318 0,0.75 C0,0.335786819 0.335786819,0 0.75,0 L13.6199999,0 C14.034215,0 14.3700018,0.335786819 14.3700018,0.75 C14.3700018,1.16421318 14.034215,1.5 13.6200018,1.5 L13.6199999,1.5 Z" id="Path-345"></path>
                                <path d="M30.3799989,1.5 L17.51,1.5 C17.0957868,1.5 16.76,1.16421318 16.76,0.75 C16.76,0.335786819 17.0957868,0 17.51,0 L30.3799989,0 C30.7942178,0 31.1300027,0.335786819 31.1300027,0.75 C31.1300027,1.16421318 30.7942178,1.5 30.3800027,1.5 L30.3799989,1.5 Z" id="Path-346"></path>
                                <path d="M13.6199999,6.5 L0.75,6.5 C0.335786819,6.5 0,6.16421509 0,5.75 C0,5.33578491 0.335786819,5 0.75,5 L13.6199999,5 C14.034215,5 14.3700018,5.33578491 14.3700018,5.75 C14.3700018,6.16421509 14.034215,6.5 13.6200018,6.5 L13.6199999,6.5 Z" id="Path-347"></path>
                                <path d="M30.3799989,6.5 L17.51,6.5 C17.0957868,6.5 16.76,6.16421509 16.76,5.75 C16.76,5.33578491 17.0957868,5 17.51,5 L30.3799989,5 C30.7942178,5 31.1300027,5.33578491 31.1300027,5.75 C31.1300027,6.16421509 30.7942178,6.5 30.3800027,6.5 L30.3799989,6.5 Z" id="Path-348"></path>
                            </g>
                            <g id="Group-232" fill="#5DC1FD">
                                <path d="M5.07999992,1.96000099 L5.07999992,0 L1.96000004,0 L1.96000004,1.96000099 L0,1.96000099 L0,5.09000015 L1.96000004,5.09000015 L1.96000004,7.04999924 L5.07999992,7.04999924 L5.07999992,5.09000015 L7.03999996,5.09000015 L7.03999996,1.96000099 L5.07999992,1.96000099 Z" id="Path-349"></path>
                                <path d="M13.3396659,0.03 C11.8326888,0.81610611 10.0366435,0.81610611 8.52966643,0.03 C8.01241446,1.27018669 7.96267081,2.65591934 8.38966513,3.93000153 C8.78062201,5.30325821 9.69674063,6.4672673 10.9396625,7.16999939 C12.1696181,6.47574738 13.0833697,5.3326619 13.4896617,3.97999695 C13.9143958,2.70484093 13.8610854,1.31876305 13.3396621,0.0799992371" id="Path-350"></path>
                            </g>
                        </g>
                    </g>
                </g>
                <g id="50x50-Spacers">
                    <rect id="Rectangle-142" x="0" y="0" width="50" height="50"></rect>
                </g>
            </g>
            <g id="Group-6" transform="translate(34.0001, 4.63)">
                <g id="Group-3">
                    <mask id="mask-2" fill="white">
                        <use xlink:href="#path-1"></use>
                    </mask>
                    <g id="Clip-2"></g>
                    <path d="M7.99800021,15.9999998 C12.4160002,16.001 15.9990002,12.42 16,8.002 C16.0010002,3.583 12.4200002,0.001 8.00100021,-2.09387736e-07 C3.58300021,-0.001 0.00100020939,3.58 0,7.998 C-0.000999790612,12.417 3.58000021,15.999 7.99800021,15.9999998" id="Fill-1" fill="#5DC1FD" mask="url(#mask-2)"></path>
                </g>
                <path d="M6.97790021,10.8218 L4.40690021,8.7508 C4.07590021,8.4838 4.02290021,7.9998 4.28990021,7.6688 C4.55690021,7.3368 5.04290021,7.2848 5.37190021,7.5518 L7.34990021,9.1438 L10.5149002,5.2898 C10.7849002,4.9608 11.2699002,4.9128 11.5989002,5.1828 C11.9269002,5.4528 11.9749002,5.9378 11.7059002,6.2668 L8.05590021,10.7108 C7.90290021,10.8958 7.68290021,10.9918 7.45990021,10.9918 C7.29090021,10.9918 7.11990021,10.9358 6.97790021,10.8218 Z" id="Fill-4" fill="#FFFFFF"></path>
            </g>
        </g>
    </g>
</svg>