<?xml version="1.0" encoding="UTF-8"?>
<svg width="50px" height="50px" viewBox="0 0 50 50" version="1.1" xmlns="http://www.w3.org/2000/svg" xmlns:xlink="http://www.w3.org/1999/xlink">
    <title>Icon-Enterprise/Primary/Medical-Confirmed</title>
    <defs>
        <polygon id="path-1" points="0 0 19.9998753 0 19.9998753 20 0 20"></polygon>
    </defs>
    <g id="Icon-Enterprise/Primary/Medical-Confirmed" stroke="none" stroke-width="1" fill="none" fill-rule="evenodd">
        <g id="Icon-Medical">
            <g fill-rule="nonzero">
                <g id="Group-434" transform="translate(0.07, 3.678)">
                    <path d="M34.0900002,5.032 C29.852356,5.02885833 25.886055,7.11677947 23.4900017,10.6120025 C20.2923355,5.96584239 14.4437046,3.94062629 9.05760193,5.61446872 C3.67150021,7.28831115 0.000967025757,12.2718002 0,17.9119998 C0,27.518669 7.82999992,36.2320034 23.4899998,44.0520031 C39.1166668,36.2320034 46.9300003,27.5186702 46.9300003,17.9120037 C46.9300003,10.8141052 41.1877365,5.05401149 34.0899353,5.032 L34.0900002,5.032 Z" id="Path-711" fill="#5DC1FD"></path>
                    <path d="M36.2400011,0.742 C32.0009569,0.744231598 28.0339865,2.83053722 25.6300005,6.32200088 C22.429355,1.68509521 16.5863508,-0.333306892 11.2061094,1.33942355 C5.82586994,3.01215495 2.15730991,7.98772849 2.15,13.6219963 C2.15,23.2286654 9.9766662,31.938667 25.6299986,39.7520012 C41.2833355,31.938667 49.110004,23.2286667 49.110004,13.6220001 C49.1155275,6.51019134 43.3518137,0.742 36.2400011,0.742 L36.2400011,0.742 Z" id="Path-712" fill="#FFFFFF"></path>
                    <path d="M25.6300107,40.5923919 L25.3000108,40.432392 C21.1040021,38.2264289 17.126257,35.6281699 13.4200154,32.6723975 C5.42001064,26.2423896 1.42,19.8323897 1.42,13.6723899 C1.41282566,7.89927283 5.04349621,2.74782744 10.4828778,0.81337634 C15.9222556,-1.12107667 21.9903413,0.581118497 25.6300107,5.06238929 C29.2599736,0.571730527 35.3257085,-1.14428624 40.7702428,0.779165182 C46.2147733,2.70261565 49.856474,7.84808913 49.860014,13.6223926 C49.860014,19.8323897 45.8600102,26.2423896 37.8600102,32.6723899 C34.1391278,35.6324882 30.1443654,38.2309264 25.9300137,40.4323882 L25.6300107,40.5923919 Z M15.0300103,1.4923915 C8.34480007,1.51441947 2.93548115,6.93714896 2.93001087,13.6223926 C2.93001087,26.4823913 22.7900105,37.4123916 25.6300107,38.9123916 C28.4800111,37.4123916 48.360023,26.4823913 48.360023,13.6223907 C48.3676816,8.30941001 44.9141637,3.61081878 39.8411084,2.03223029 C34.7680569,0.453641805 29.2582951,2.36311522 26.2500115,6.74238959 L25.6300088,7.63239089 L25.0100079,6.74239055 C22.7507916,3.45579139 19.0182153,1.49226275 15.0300084,1.49239245 L15.0300103,1.4923915 Z" id="Path-713" fill="#161616"></path>
                </g>
                <g id="50x50-Spacers">
                    <rect id="Rectangle-252" x="0" y="0" width="50" height="50"></rect>
                </g>
            </g>
            <g id="Group-6" transform="translate(16.0001, 14)">
                <g id="Group-3">
                    <mask id="mask-2" fill="white">
                        <use xlink:href="#path-1"></use>
                    </mask>
                    <g id="Clip-2"></g>
                    <path d="M9.99750026,19.9999997 C15.5200003,20.00125 19.9987503,15.525 20,10.0025 C20.0012503,4.47875 15.5250003,0.00125 10.0012503,-2.61734669e-07 C4.47875026,-0.00125 0.00125026173,4.475 0,9.9975 C-0.00124973827,15.52125 4.47500026,19.99875 9.99750026,19.9999997" id="Fill-1" fill="#5DC1FD" mask="url(#mask-2)"></path>
                </g>
                <path d="M8.72237526,13.52725 L5.50862526,10.9385 C5.09487526,10.60475 5.02862526,9.99975 5.36237526,9.586 C5.69612526,9.171 6.30362526,9.106 6.71487526,9.43975 L9.18737526,11.42975 L13.1436253,6.61225 C13.4811253,6.201 14.0873753,6.141 14.4986253,6.4785 C14.9086253,6.816 14.9686253,7.42225 14.6323753,7.8335 L10.0698753,13.3885 C9.87862526,13.61975 9.60362526,13.73975 9.32487526,13.73975 C9.11362526,13.73975 8.89987526,13.66975 8.72237526,13.52725 Z" id="Fill-4" fill="#FFFFFF"></path>
            </g>
        </g>
    </g>
</svg>