<?xml version="1.0" encoding="UTF-8"?>
<svg width="86px" height="44px" viewBox="0 0 86 44" version="1.1" xmlns="http://www.w3.org/2000/svg" xmlns:xlink="http://www.w3.org/1999/xlink">
    <title>Logos/BlueCross/Symbols/BlueCross-Silhouette</title>
    <g id="Logos/BlueCross/Symbols/BlueCross-Silhouette" stroke="none" stroke-width="1" fill="none" fill-rule="evenodd">
        <g id="BCBST-Logo" transform="translate(0.2494, 0)">
            <polygon id="Fill-27" fill="#FFFFFF" points="69.1756991 30.0190362 69.194576 26.6704114 67.4444189 26.5672627 67.5206006 29.4035149"></polygon>
            <path d="M82.8528798,0.0235961082 C78.1437708,2.39938711 73.4494936,3.67357696 67.9435103,3.69177967 C62.4382012,3.70593733 57.7425757,2.37309431 53.034815,0 C49.9376572,6.08509921 49.4535999,15.9759136 52.1246794,24.2372481 C54.7020486,32.1952042 59.6990301,39.4432544 67.9435103,44 C76.1893388,39.4432544 81.1856462,32.1952042 83.761667,24.2372481 C86.4354432,15.9759136 85.9453183,6.11341454 82.8528798,0.0235961082" id="Fill-29" fill="#FFFFFF"></path>
            <path d="M21.7703087,34.1536137 C28.477671,34.1536137 33.9162369,28.7170704 33.9162369,22.0090339 C33.9162369,15.3003233 28.477671,9.86175745 21.7703087,9.86175745 C15.0622723,9.86175745 9.6243806,15.3003233 9.6243806,22.0090339 C9.6243806,28.7170704 15.0622723,34.1536137 21.7703087,34.1536137" id="Fill-31" fill="#FFFFFF"></path>
            <path d="M41.0437447,43.3920294 C39.978549,43.3920294 39.2086417,42.629538 39.2086417,41.5609714 C39.2086417,40.5018433 39.978549,39.7332843 41.0437447,39.7332843 C42.1028729,39.7332843 42.8673868,40.5018433 42.8673868,41.5609714 C42.8673868,42.629538 42.1028729,43.3920294 41.0437447,43.3920294 M41.0437447,39.3874328 C39.8403432,39.3874328 38.8614418,40.3663342 38.8614418,41.5609714 C38.8614418,42.7636988 39.8403432,43.7392293 41.0437447,43.7392293 C42.2417529,43.7392293 43.2145867,42.7636988 43.2145867,41.5609714 C43.2145867,40.3663342 42.2417529,39.3874328 41.0437447,39.3874328" id="Fill-33" fill="#005DB9"></path>
            <path d="M40.9855635,41.3941132 L40.543305,41.3941132 L40.543305,40.5925197 L41.2302888,40.5925197 C41.5289481,40.5925197 41.8201915,40.6370152 41.8201915,40.9862376 C41.8201915,41.4534406 41.3327633,41.3941132 40.9855635,41.3941132 M42.1680656,40.9929794 C42.1680656,40.5466759 41.9476105,40.3006022 41.2997288,40.3006022 L40.2284655,40.3006022 L40.2284655,42.791677 L40.543305,42.791677 L40.543305,41.6860308 L41.076577,41.6860308 L41.7783927,42.791677 L42.1384019,42.791677 L41.3981583,41.6860308 C41.8303041,41.6502995 42.1680656,41.4682724 42.1680656,40.9929794" id="Fill-35" fill="#005DB9"></path>
            <polygon id="Fill-47" fill="#005DB9" points="31.5661993 12.1726929 31.5661993 0.00114609668 12.1695242 0.00114609668 12.1695242 12.1726929 0 12.1726929 0 31.6334145 12.1695242 31.6334145 12.1695242 43.803613 31.5661993 43.803613 31.5661993 31.6334145 43.7363978 31.6334145 43.7363978 12.1726929"></polygon>
            <path d="M82.751012,43.4076703 C81.708064,43.4076703 80.9502919,42.6600107 80.9502919,41.6082985 C80.9502919,40.5680472 81.708064,39.8190393 82.751012,39.8190393 C83.7912633,39.8190393 84.5389229,40.5680472 84.5389229,41.6082985 C84.5389229,42.6600107 83.7912633,43.4076703 82.751012,43.4076703 M82.751012,39.4833004 C81.5712066,39.4833004 80.6118563,40.435909 80.6118563,41.6082985 C80.6118563,42.7921489 81.5712066,43.7488026 82.751012,43.7488026 C83.9267724,43.7488026 84.8827519,42.7921489 84.8827519,41.6082985 C84.8827519,40.435909 83.9267724,39.4833004 82.751012,39.4833004" id="Fill-49" fill="#005DB9"></path>
            <path d="M82.6943814,41.445755 L82.2622355,41.445755 L82.2622355,40.6623642 L82.932365,40.6623642 C83.2290018,40.6623642 83.5135034,40.7068597 83.5135034,41.0493404 C83.5135034,41.5050824 83.0382104,41.445755 82.6943814,41.445755 M83.8532874,41.0506887 C83.8532874,40.6144978 83.6388999,40.3778626 83.0024791,40.3778626 L81.9494185,40.3778626 L81.9494185,42.8177001 L82.2622355,42.8177001 L82.2622355,41.7363242 L82.7867433,41.7363242 L83.4723788,42.8177001 L83.824972,42.8177001 L83.0968636,41.7363242 C83.5242902,41.6978963 83.8532874,41.5199142 83.8532874,41.0506887" id="Fill-51" fill="#005DB9"></path>
            <path d="M82.8528124,0.0231916035 C78.1437034,2.39830843 73.4494262,3.67317245 67.9427687,3.69272351 C62.4381338,3.70485865 57.7411599,2.37403815 53.0347476,0.000943844327 C49.9375898,6.08536888 49.4535325,15.9755091 52.124612,24.2368436 C54.7019812,32.1947997 59.6996369,39.4428499 67.9427687,43.9995955 C76.1899456,39.4428499 81.1855788,32.1947997 83.7615996,24.2368436 C86.4353758,15.9755091 85.9439026,6.11233586 82.8528124,0.0231916035" id="Fill-53" fill="#005DB9"></path>
        </g>
    </g>
</svg>