<?xml version="1.0" encoding="UTF-8"?>
<svg width="129px" height="72px" viewBox="0 0 129 72" version="1.1" xmlns="http://www.w3.org/2000/svg" xmlns:xlink="http://www.w3.org/1999/xlink">
    <title>Logos/BlueCross/Stacked/BlueCross</title>
    <defs>
        <polygon id="path-1" points="0 7.10542736e-15 10.8651326 7.10542736e-15 10.8651326 11.2532102 0 11.2532102"></polygon>
        <polygon id="path-3" points="0 -7.10542736e-15 7.84719924 -7.10542736e-15 7.84719924 11.3184317 0 11.3184317"></polygon>
        <polygon id="path-5" points="0 -7.10542736e-15 7.84719924 -7.10542736e-15 7.84719924 11.3184317 0 11.3184317"></polygon>
        <polygon id="path-7" points="0 -7.10542736e-15 10.2946814 -7.10542736e-15 10.2946814 11.2739005 0 11.2739005"></polygon>
    </defs>
    <g id="Logos/BlueCross/Stacked/BlueCross" stroke="none" stroke-width="1" fill="none" fill-rule="evenodd">
        <g id="BCBST-Logo" transform="translate(0.4427, 0)">
            <g id="Group-3" transform="translate(0, 60.7246)">
                <mask id="mask-2" fill="white">
                    <use xlink:href="#path-1"></use>
                </mask>
                <g id="Clip-2"></g>
                <path d="M10.8651326,5.69380664 C10.8651326,9.19372806 8.2072425,11.2532102 5.3589801,11.2532102 C2.25777548,11.2532102 -6.65637394e-05,8.90484143 -6.65637394e-05,5.60527687 C-6.65637394e-05,2.12732148 2.40488134,0.0458733521 5.3163793,0.00127564672 C8.73442732,-0.0652880927 10.8651326,2.48144058 10.8651326,5.69380664 M3.20764004,5.16196236 C3.20764004,8.63925211 3.41798145,10.6335017 5.44351604,10.6335017 C7.48968539,10.6335017 7.63679126,8.61728608 7.63679126,5.69380664 C7.63679126,3.01328485 7.51165143,0.555085959 5.42155001,0.576386355 C3.45991661,0.576386355 3.20764004,2.6811318 3.20764004,5.16196236" id="Fill-1" fill="#231F20" mask="url(#mask-2)"></path>
            </g>
            <path d="M18.1639798,57.625028 C18.1639798,57.0266199 17.9316723,56.4734753 17.2360812,56.4734753 C16.2655819,56.4734753 16.2655819,57.4919005 16.2655819,58.3998299 L16.2655819,61.0137879 L17.9949079,61.0137879 L17.9949079,61.5902299 L16.2655819,61.5902299 L16.2655819,69.0979541 L16.3075171,71.1587675 L17.9949079,71.1587675 L17.9949079,71.7338782 L11.7292631,71.7338782 L11.7292631,71.1587675 L13.269548,71.1587675 L13.3114832,69.0979541 L13.3114832,61.5902299 L11.7292631,61.5902299 L11.7292631,61.0137879 L13.3114832,61.0137879 L13.3114832,60.0166631 C13.3334492,58.7765807 13.3334492,57.1823791 14.8937033,56.3623138 C15.6538612,55.9642627 16.4972237,55.8531012 17.341252,55.8531012 C20.2321152,55.8531012 20.8012351,57.4040364 20.8012351,58.3113001 C20.8012351,58.6654192 20.7379996,59.7071417 19.4293565,59.7071417 C18.143345,59.7071417 18.143345,58.6654192 18.143345,58.4444276 L18.1639798,57.625028 Z" id="Fill-4" fill="#231F20"></path>
            <path d="M26.0532473,56.0967911 L40.6313719,56.0967911 L40.6313719,61.4119057 L40.0196511,61.4119057 C39.9557499,60.6590698 39.8718796,59.8629674 39.0271857,58.55499 C37.930881,56.8942247 37.0029824,56.849627 35.9898823,56.8050293 L35.019383,56.8050293 L34.9774478,58.7327152 L34.9774478,69.075389 L35.019383,71.1581684 L37.0655523,71.1581684 L37.0655523,71.7346104 L29.5977664,71.7346104 L29.5977664,71.1581684 L31.6226354,71.1581684 L31.6645705,69.075389 L31.6645705,58.7327152 L31.6226354,56.8050293 L30.6095353,56.8050293 C30.167552,56.8050293 29.4493293,56.9161907 28.7956734,57.3368735 C27.9303447,57.8687178 27.4457607,58.6215537 27.1508834,59.175364 C26.6862685,60.1059251 26.6862685,60.7036675 26.6649681,61.4119057 L26.0532473,61.4119057 L26.0532473,56.0967911 Z" id="Fill-6" fill="#231F20"></path>
            <path d="M49.5967088,68.6334058 C49.0482236,69.7183947 47.909318,71.977568 44.7235774,71.977568 C41.4533009,71.977568 39.4497324,69.3416439 39.4497324,66.263071 C39.4497324,63.3169599 41.3481302,60.7036675 44.7442122,60.7036675 C46.8542827,60.7036675 48.0144887,61.6561946 48.5210388,62.2100049 C49.6812447,63.472719 49.7238455,64.8013313 49.7438147,65.7531927 L42.6980428,65.7531927 C42.7186776,67.6362809 42.7612784,69.3416439 43.6465761,70.3168027 C44.1324914,70.848647 44.8287481,71.0696386 45.5250049,71.0696386 C47.8034817,71.0696386 48.6688103,69.0540886 48.9636876,68.3458504 L49.5967088,68.6334058 Z M46.5161389,65.0895523 C46.538105,63.3615576 46.5580741,61.3240415 44.6596762,61.3240415 C42.8671147,61.3240415 42.7825788,63.2071297 42.7186776,65.0895523 L46.5161389,65.0895523 Z" id="Fill-8" fill="#231F20"></path>
            <path d="M61.5790472,71.1583681 L63.0341306,71.1583681 L63.0341306,71.7334788 L56.9801585,71.7334788 L56.9801585,71.1583681 L58.4778426,71.1583681 L58.5204434,69.431039 L58.5204434,63.7378424 C58.4998086,63.0509046 58.4778426,61.7662244 57.0853292,61.7662244 C56.55881,61.7662244 55.967724,61.989213 55.5237438,62.4311962 C54.6384461,63.3397912 54.6178113,64.7795649 54.5752106,66.1973726 L54.5752106,69.431039 L54.6178113,71.1583681 L56.0941951,71.1583681 L56.0941951,71.7334788 L49.9969566,71.7334788 L49.9969566,71.1583681 L51.5372415,71.1583681 L51.5791766,69.431039 L51.5791766,63.2073294 L51.5372415,61.6117966 L49.9969566,61.6117966 L49.9969566,61.0366859 L52.1702626,61.0366859 C53.3085026,61.0133886 53.6047112,61.0133886 54.6178113,60.9468248 L54.5752106,62.8964767 C54.8494532,62.321366 55.0597946,61.8773859 55.6715153,61.4340714 C56.2845674,61.0133886 57.1485647,60.7038672 58.2675012,60.7038672 C59.0263278,60.7038672 59.5109118,60.8589607 59.8071205,60.9701221 C61.4312757,61.6117966 61.4945113,63.0509046 61.5364464,63.9821313 L61.5364464,69.431039 L61.5790472,71.1583681 Z" id="Fill-10" fill="#231F20"></path>
            <path d="M75.2281417,71.1583681 L76.683225,71.1583681 L76.683225,71.7334788 L70.6292529,71.7334788 L70.6292529,71.1583681 L72.1269371,71.1583681 L72.1695378,69.431039 L72.1695378,63.7378424 C72.1475718,63.0509046 72.1269371,61.7662244 70.7344236,61.7662244 C70.2065732,61.7662244 69.6168184,61.989213 69.1728383,62.4311962 C68.2875406,63.3397912 68.2669058,64.7795649 68.224305,66.1973726 L68.224305,69.431039 L68.2669058,71.1583681 L69.7426239,71.1583681 L69.7426239,71.7334788 L63.646051,71.7334788 L63.646051,71.1583681 L65.1863359,71.1583681 L65.2282711,69.431039 L65.2282711,63.2073294 L65.1863359,61.6117966 L63.646051,61.6117966 L63.646051,61.0366859 L65.8193571,61.0366859 C66.957597,61.0133886 67.2538057,61.0133886 68.2669058,60.9468248 L68.224305,62.8964767 C68.4985476,62.321366 68.708889,61.8773859 69.3206098,61.4340714 C69.9323306,61.0133886 70.7976592,60.7038672 71.9152644,60.7038672 C72.6754223,60.7038672 73.1600063,60.8589607 73.4562149,60.9701221 C75.0803702,61.6117966 75.1436057,63.0509046 75.1855409,63.9821313 L75.1855409,69.431039 L75.2281417,71.1583681 Z" id="Fill-12" fill="#231F20"></path>
            <path d="M87.4885834,68.6334058 C86.9400982,69.7183947 85.8011926,71.977568 82.615452,71.977568 C79.3451755,71.977568 77.341607,69.3416439 77.341607,66.263071 C77.341607,63.3169599 79.2400048,60.7036675 82.6360868,60.7036675 C84.7461573,60.7036675 85.9063633,61.6561946 86.4129134,62.2100049 C87.5731193,63.472719 87.6157201,64.8013313 87.6363549,65.7531927 L80.5899174,65.7531927 C80.6105522,67.6362809 80.653153,69.3416439 81.539782,70.3168027 C82.024366,70.848647 82.7206227,71.0696386 83.4168795,71.0696386 C85.6953563,71.0696386 86.5606849,69.0540886 86.8555622,68.3458504 L87.4885834,68.6334058 Z M84.4093448,65.0895523 C84.4299796,63.3615576 84.4499487,61.3240415 82.5528821,61.3240415 C80.7589893,61.3240415 80.6744534,63.2071297 80.6105522,65.0895523 L84.4093448,65.0895523 Z" id="Fill-14" fill="#231F20"></path>
            <g id="Group-18" transform="translate(88.8344, 60.6816)">
                <mask id="mask-4" fill="white">
                    <use xlink:href="#path-3"></use>
                </mask>
                <g id="Clip-17"></g>
                <path d="M0.653655921,6.97721116 C0.73819187,7.61888561 0.800761785,8.15072989 1.13823994,8.81570165 C1.47638374,9.52460547 2.34104671,10.6322261 3.83939649,10.6322261 C5.08413842,10.6322261 5.90753187,9.9006906 5.90753187,9.01472723 C5.90753187,8.01760241 4.97763643,7.61888561 3.6277238,7.11033864 C1.75129198,6.37880315 0.169071898,5.78039513 0.169071898,3.43335768 C0.169071898,0.641674448 2.48948385,-7.10542736e-15 3.9445672,-7.10542736e-15 C5.10477317,-7.10542736e-15 6.05463774,0.354119094 7.04577182,0.708238187 L7.08837261,3.58845119 L6.45468581,3.58845119 C6.37148114,3.14513669 6.28694519,2.74575425 6.13850805,2.39163516 C5.86493108,1.79455841 5.06283802,0.731535496 3.71225975,0.731535496 C2.57268853,0.731535496 2.06746975,1.52896909 2.06746975,2.08277941 C2.06746975,2.76905156 2.61528932,3.05660691 2.84693113,3.16776836 C3.18574057,3.32219623 4.8524966,3.96520196 5.23190992,4.12029547 C6.518587,4.67344014 7.84719924,5.42694167 7.84719924,7.46445774 C7.84719924,9.78952915 6.11787329,11.3184982 3.58578864,11.3184982 C2.19327521,11.3184982 1.13823994,10.9197814 0.0419351558,10.4990986 L0,6.97721116 L0.653655921,6.97721116 Z" id="Fill-16" fill="#231F20" mask="url(#mask-4)"></path>
            </g>
            <g id="Group-21" transform="translate(97.9268, 60.6816)">
                <mask id="mask-6" fill="white">
                    <use xlink:href="#path-5"></use>
                </mask>
                <g id="Clip-20"></g>
                <path d="M0.653655921,6.97721116 C0.73819187,7.61888561 0.800761785,8.15072989 1.13823994,8.81570165 C1.47638374,9.52460547 2.34104671,10.6322261 3.83939649,10.6322261 C5.08413842,10.6322261 5.90753187,9.9006906 5.90753187,9.01472723 C5.90753187,8.01760241 4.97763643,7.61888561 3.6277238,7.11033864 C1.75129198,6.37880315 0.169071898,5.78039513 0.169071898,3.43335768 C0.169071898,0.641674448 2.48948385,-7.10542736e-15 3.9445672,-7.10542736e-15 C5.10477317,-7.10542736e-15 6.05463774,0.354119094 7.04577182,0.708238187 L7.08837261,3.58845119 L6.45468581,3.58845119 C6.37148114,3.14513669 6.28694519,2.74575425 6.13850805,2.39163516 C5.86493108,1.79455841 5.06283802,0.731535496 3.71225975,0.731535496 C2.5740198,0.731535496 2.06613847,1.52896909 2.06613847,2.08277941 C2.06613847,2.76905156 2.61528932,3.05660691 2.84693113,3.16776836 C3.18574057,3.32219623 4.8524966,3.96520196 5.23190992,4.12029547 C6.518587,4.67344014 7.84719924,5.42694167 7.84719924,7.46445774 C7.84719924,9.78952915 6.11787329,11.3184982 3.58578864,11.3184982 C2.19327521,11.3184982 1.13823994,10.9197814 0.0419351558,10.4990986 L0,6.97721116 L0.653655921,6.97721116 Z" id="Fill-19" fill="#231F20" mask="url(#mask-6)"></path>
            </g>
            <path d="M116.997088,68.6334058 C116.448603,69.7183947 115.309697,71.977568 112.123956,71.977568 C108.85368,71.977568 106.850111,69.3416439 106.850111,66.263071 C106.850111,63.3169599 108.748509,60.7036675 112.144591,60.7036675 C114.254662,60.7036675 115.414868,61.6561946 115.921418,62.2100049 C117.081624,63.472719 117.124225,64.8013313 117.144194,65.7531927 L110.098422,65.7531927 C110.119057,67.6362809 110.161657,69.3416439 111.048286,70.3168027 C111.53287,70.848647 112.229127,71.0696386 112.925384,71.0696386 C115.203861,71.0696386 116.069189,69.0540886 116.364067,68.3458504 L116.997088,68.6334058 Z M113.917849,65.0895523 C113.938484,63.3615576 113.958453,61.3240415 112.060055,61.3240415 C110.267494,61.3240415 110.182958,63.2071297 110.119057,65.0895523 L113.917849,65.0895523 Z" id="Fill-22" fill="#231F20"></path>
            <g id="Group-26" transform="translate(117.8199, 60.7037)">
                <mask id="mask-8" fill="white">
                    <use xlink:href="#path-7"></use>
                </mask>
                <g id="Clip-25"></g>
                <path d="M10.1469764,7.92973828 C9.59849122,9.01472723 8.45958564,11.2739005 5.27384507,11.2739005 C2.00356856,11.2739005 0,8.63797646 0,5.55940351 C0,2.61329241 1.89839785,-7.10542736e-15 5.29447983,-7.10542736e-15 C7.40455037,-7.10542736e-15 8.56475635,0.952527111 9.07130641,1.50633742 C10.2315124,2.76905156 10.2741132,4.0976638 10.2947479,5.04952527 L3.24831048,5.04952527 C3.26894524,6.93261346 3.31154604,8.63797646 4.19817504,9.61313524 C4.68275907,10.1449795 5.37901578,10.3659711 6.0752725,10.3659711 C8.3537493,10.3659711 9.21907791,8.35042111 9.51395527,7.64218292 L10.1469764,7.92973828 Z M7.06773785,4.38588479 C7.08837261,2.65789011 7.10834173,0.620374051 5.20994388,0.620374051 C3.41738238,0.620374051 3.33284643,2.50346224 3.26894524,4.38588479 L7.06773785,4.38588479 Z" id="Fill-24" fill="#231F20" mask="url(#mask-8)"></path>
            </g>
            <polygon id="Fill-27" fill="#FFFFFF" points="90.050888 29.6389028 90.0695258 26.3326819 88.3415312 26.2308394 88.4167482 29.0311759"></polygon>
            <path d="M103.554873,0.0232973088 C98.9053963,2.36900349 94.2705631,3.62705816 88.8343025,3.64503037 C83.3987076,3.65900875 78.7625431,2.34304363 74.1143972,0 C71.056459,6.00804312 70.5785313,15.7736093 73.2157867,23.93033 C75.7605185,31.7875138 80.6942228,38.9437814 88.8343025,43.4428245 C96.9757135,38.9437814 101.908752,31.7875138 104.452153,23.93033 C107.092071,15.7736093 106.608152,6.03599989 103.554873,0.0232973088" id="Fill-29" fill="#FFFFFF"></path>
            <path d="M43.2457959,33.7211238 C49.8682223,33.7211238 55.2379191,28.3534239 55.2379191,21.7303318 C55.2379191,15.1065741 49.8682223,9.73687724 43.2457959,9.73687724 C36.6227038,9.73687724 31.2536726,15.1065741 31.2536726,21.7303318 C31.2536726,28.3534239 36.6227038,33.7211238 43.2457959,33.7211238" id="Fill-31" fill="#FFFFFF"></path>
            <path d="M62.2751708,42.8425527 C61.2234637,42.8425527 60.4633058,42.0897168 60.4633058,41.0346816 C60.4633058,39.9889652 61.2234637,39.2301386 62.2751708,39.2301386 C63.3208871,39.2301386 64.07572,39.9889652 64.07572,41.0346816 C64.07572,42.0897168 63.3208871,42.8425527 62.2751708,42.8425527 M62.2751708,38.8886666 C61.0870081,38.8886666 60.1205026,39.8551721 60.1205026,41.0346816 C60.1205026,42.2221787 61.0870081,43.185356 62.2751708,43.185356 C63.4580084,43.185356 64.4185232,42.2221787 64.4185232,41.0346816 C64.4185232,39.8551721 63.4580084,38.8886666 62.2751708,38.8886666" id="Fill-33" fill="#005DB9"></path>
            <path d="M62.2177263,40.8699363 L61.7810682,40.8699363 L61.7810682,40.0784934 L62.4593527,40.0784934 C62.75423,40.0784934 63.0417854,40.1224255 63.0417854,40.4672257 C63.0417854,40.9285124 62.5605296,40.8699363 62.2177263,40.8699363 M63.3852543,40.4738821 C63.3852543,40.0332301 63.1675909,39.7902724 62.5279133,39.7902724 L61.4702155,39.7902724 L61.4702155,42.2498026 L61.7810682,42.2498026 L61.7810682,41.1581573 L62.3075873,41.1581573 L63.0005159,42.2498026 L63.3559662,42.2498026 L62.6250964,41.1581573 C63.0517699,41.1228785 63.3852543,40.9431564 63.3852543,40.4738821" id="Fill-35" fill="#005DB9"></path>
            <path d="M43.3777252,24.7955254 C43.3144896,24.7955254 43.2552479,24.8248135 43.2086533,24.888049 L39.2181571,30.9986003 C40.4888589,31.5677203 41.8953507,31.8812355 43.3777252,31.8812355 C44.8587684,31.8812355 46.2639289,31.5677203 47.5372933,30.9986003 L43.5441345,24.888049 C43.4968743,24.8248135 43.4363013,24.7955254 43.3777252,24.7955254" id="Fill-37" fill="#005DB9"></path>
            <path d="M39.4771566,19.7832759 L33.4438193,19.2287999 C33.2554439,20.00693 33.1555983,20.8249984 33.1555983,21.6557138 C33.1555983,24.2044394 34.0834968,26.5261827 35.6191223,28.3187442 L39.8445885,20.2512189 C39.946431,20.0036018 39.9111522,19.8158921 39.4771566,19.7832759" id="Fill-39" fill="#005DB9"></path>
            <path d="M40.5374504,11.8378951 C38.5931236,12.3956992 36.8877606,13.5192952 35.6097368,15.0136511 L40.94948,15.0136511 C41.0446661,14.9896882 41.0979171,14.8738673 40.9887526,14.7706935 C40.4216295,14.1503194 39.9357142,12.8370168 40.5374504,11.8378951" id="Fill-41" fill="#005DB9"></path>
            <path d="M51.1459133,15.0139839 C49.8665582,13.519628 48.1611952,12.3960321 46.2181996,11.8382279 C46.8199358,12.8373497 46.3300267,14.149321 45.7609067,14.769695 C45.6577329,14.8742001 45.7083214,14.9893553 45.8048388,15.0139839 L51.1459133,15.0139839 Z" id="Fill-43" fill="#005DB9"></path>
            <path d="M47.2752984,19.7832759 C46.8413028,19.8158921 46.8073553,20.0036018 46.9058696,20.2512189 L51.1320014,28.3187442 C52.6702895,26.5261827 53.5988536,24.2044394 53.5988536,21.6557138 C53.5988536,20.8249984 53.5003393,20.00693 53.3073044,19.2287999 L47.2752984,19.7832759 Z" id="Fill-45" fill="#005DB9"></path>
            <path d="M50.6997365,30.9991994 L50.7057273,31.0151747 L45.2501632,20.7723465 C44.8527776,19.9010271 45.0291716,18.4526001 46.5235275,18.2449213 L54.4885446,17.4741132 L54.4898758,17.4741132 L54.4885446,17.4741132 C54.979785,18.7747686 55.2447086,20.1892481 55.2447086,21.6629693 C55.2447086,25.4497804 53.4694537,28.8278902 50.6997365,30.9991994 L50.6997365,30.9991994 Z M49.9056311,31.5862916 L49.8996404,31.5789696 C48.0298649,32.81173 45.7866669,33.5279558 43.3777252,33.5279558 C40.964124,33.5279558 38.7262511,32.81173 36.8538131,31.5789696 L36.848488,31.5862916 L36.848488,31.5769726 L36.8538131,31.5789696 L42.6362051,22.935668 C43.06421,22.3326005 43.7098782,22.3798608 44.1185796,22.935668 L49.8996404,31.5789696 C49.9023029,31.5789696 49.9023029,31.5769726 49.9056311,31.5769726 L49.9056311,31.5862916 Z M31.5087448,21.6629693 C31.5087448,20.1892481 31.7749998,18.7747686 32.2662402,17.4741132 L32.2649089,17.4741132 L32.2662402,17.4741132 L40.2272634,18.2449213 C41.7242819,18.4526001 41.8960163,19.9010271 41.501959,20.7723465 L36.0450637,31.0151747 L36.0537169,30.9991994 C33.285331,28.8278902 31.5087448,25.4497804 31.5087448,21.6629693 L31.5087448,21.6629693 Z M43.3777252,9.78866383 C48.1370326,9.78866383 52.2440153,12.589666 54.1357567,16.6400695 L45.6868213,16.6400695 C44.4820176,16.6107815 43.9495077,15.9058715 43.9248791,15.3314264 C43.8955911,14.6531419 44.0027587,14.4334816 44.5672192,13.7099337 C45.1762774,12.8965248 44.7555946,11.3289488 43.3777252,11.3049858 C41.9978589,11.3289488 41.5745135,12.8965248 42.1888968,13.7099337 C42.7480322,14.4334816 42.8565311,14.6531419 42.8285743,15.3314264 C42.805277,15.9058715 42.2740984,16.6107815 41.0666322,16.6400695 L32.619028,16.6400695 C34.5094382,12.589666 38.6150896,9.78866383 43.3777252,9.78866383 L43.3777252,9.78866383 Z M52.9176403,12.0185491 L52.9176403,0.00113158357 L33.7665869,0.00113158357 L33.7665869,12.0185491 L21.7511663,12.0185491 L21.7511663,31.2328381 L33.7665869,31.2328381 L33.7665869,43.2489243 L52.9176403,43.2489243 L52.9176403,31.2328381 L64.9337266,31.2328381 L64.9337266,12.0185491 L52.9176403,12.0185491 Z" id="Fill-47" fill="#005DB9"></path>
            <path d="M103.454296,42.8579955 C102.424555,42.8579955 101.676378,42.1198036 101.676378,41.0814093 C101.676378,40.0543308 102.424555,39.3148077 103.454296,39.3148077 C104.481374,39.3148077 105.219566,40.0543308 105.219566,41.0814093 C105.219566,42.1198036 104.481374,42.8579955 103.454296,42.8579955 M103.454296,38.9833202 C102.28943,38.9833202 101.342228,39.9238659 101.342228,41.0814093 C101.342228,42.2502686 102.28943,43.194808 103.454296,43.194808 C104.615167,43.194808 105.559041,42.2502686 105.559041,41.0814093 C105.559041,39.9238659 104.615167,38.9833202 103.454296,38.9833202" id="Fill-49" fill="#005DB9"></path>
            <path d="M103.398382,40.9209241 L102.971709,40.9209241 L102.971709,40.1474535 L103.633352,40.1474535 C103.926233,40.1474535 104.207132,40.1913855 104.207132,40.5295293 C104.207132,40.9795002 103.737857,40.9209241 103.398382,40.9209241 M104.542613,40.5308606 C104.542613,40.1001932 104.33094,39.8665545 103.702578,39.8665545 L102.662853,39.8665545 L102.662853,42.2754962 L102.971709,42.2754962 L102.971709,41.2078138 L103.489574,41.2078138 L104.166528,42.2754962 L104.514656,42.2754962 L103.795768,41.2078138 C104.217782,41.1698725 104.542613,40.9941442 104.542613,40.5308606" id="Fill-51" fill="#005DB9"></path>
            <path d="M101.383498,23.0000351 C99.0976989,29.7030037 95.5292169,35.6484769 88.8335703,39.7980604 C88.8368985,39.7980604 88.839561,39.7980604 88.8428892,39.8033855 L88.8295765,39.8033855 C88.8295765,39.8033855 88.8309078,39.7980604 88.8335703,39.7980604 C82.1399207,35.6484769 78.5741012,29.7030037 76.2883023,23.0000351 C74.2581083,17.0365897 73.7615428,10.0587129 75.9927593,4.61779286 C79.3402498,5.766683 81.3025488,6.12146773 83.125064,6.40369799 C84.8251019,6.66995294 86.3387614,6.8330341 88.8295765,6.86431906 L88.8428892,6.86431906 C91.3283793,6.8330341 92.8447012,6.66995294 94.5454048,6.40369799 C96.3659231,6.12146773 98.3295534,5.766683 101.676378,4.61779286 C103.906263,10.0587129 103.413026,17.0365897 101.383498,23.0000351 M103.554807,0.0228979264 C98.9053297,2.36793847 94.2704965,3.62665878 88.8335703,3.64596226 C83.398641,3.65794374 78.7611453,2.34397552 74.1143306,0.000931892352 C71.0563924,6.00830937 70.5784648,15.7732099 73.2157201,23.9299306 C75.7604519,31.7871144 80.6948219,38.943382 88.8335703,43.4424251 C96.9763126,38.943382 101.908686,31.7871144 104.452086,23.9299306 C107.092004,15.7732099 106.606754,6.03493487 103.554807,0.0228979264" id="Fill-53" fill="#005DB9"></path>
            <path d="M86.6016216,11.7543576 C86.8279383,11.9187701 86.7826749,12.2003347 87.1088373,12.1457524 C87.2752466,12.1191269 87.3770891,12.0132906 87.5255263,11.9074542 C87.546161,11.8928102 87.7192268,11.9187701 87.7651557,11.935411 C87.4050459,11.5686448 86.6841606,11.5686448 86.2075642,11.5526695 C86.3293759,11.7856426 86.4605064,11.6598371 86.6016216,11.7543576" id="Fill-55" fill="#005DB9"></path>
            <polygon id="Fill-57" fill="#005DB9" points="88.8293768 38.1542023 88.8353675 38.1542023 88.8393614 38.1542023"></polygon>
            <path d="M93.6384738,12.5017353 C93.537297,12.8358853 93.4560892,12.8312258 93.239757,13.0369077 C92.7837954,13.4489373 92.1793967,13.8769421 91.5896419,14.440737 C91.2115599,14.8008468 90.8481219,15.0138508 90.5805357,15.4505089 C90.5159688,15.5483576 90.3801788,15.8186064 90.3801788,15.8186064 C89.3717381,15.6169183 88.3479878,15.5962835 87.5625357,15.4391931 L87.5265913,14.5798552 C87.5265913,14.5798552 88.533035,14.5665425 88.6328806,13.9608124 C88.6342119,13.9301931 88.6142428,13.7491398 88.5004188,13.6619413 C88.3626319,13.5594331 88.0624294,13.4489373 87.9885436,13.4236431 C88.7520297,13.5434578 89.4229922,13.8243568 90.2064474,14.1638319 C90.255039,14.084621 90.1272366,13.7904093 90.0659979,13.728505 C89.959496,13.6046964 89.8350218,13.5135041 89.5641074,13.4489373 C89.087511,13.3237975 87.9412834,13.1840136 87.9412834,13.1840136 C87.9412834,13.1840136 88.3546442,13.1680383 88.9097858,13.1487348 C89.1520778,13.106134 89.4036887,13.008951 89.4556085,12.9310714 C89.5128533,12.8065972 89.4376362,12.6175562 89.2672331,12.4358372 C89.155406,12.3160224 89.0402507,12.2015328 88.9463959,12.076393 C88.8299093,11.9146431 88.6788096,11.6077843 88.4737933,11.4220714 C88.2181885,11.121869 87.4487117,10.8276572 87.4487117,10.8276572 C87.4487117,10.8276572 87.3868074,10.3171134 87.5119473,10.0641711 C87.6051365,9.87912395 88.0178317,9.85848919 88.147631,9.92039347 C88.7214104,10.2412307 89.3717381,10.5940185 90.1418806,10.7324711 C90.3022992,10.8496233 90.3069587,10.884902 90.3568815,11.121869 C90.4653804,11.6350754 90.2643579,12.3925707 90.3701942,12.750018 C90.420117,12.8651733 90.5359379,12.8618451 90.6231364,12.810591 C91.3393623,12.4265183 91.8232807,11.7615465 92.5488254,11.4526907 C92.8869692,11.3075818 93.8574685,11.7968253 93.6384738,12.5017353 L93.6384738,12.5017353 Z M90.4567271,22.3438498 C90.4567271,22.3438498 90.5465881,20.8241996 90.5565727,20.0913328 C90.959949,19.9309142 91.0484787,19.5355256 90.8980447,19.2106946 C90.8128431,19.0283099 90.5066499,18.9031701 90.330256,18.8579068 C89.4935498,18.6475653 88.7274011,18.6042989 87.8634038,18.5117753 C87.1079054,18.4312332 86.5088317,18.3327189 85.8119094,18.1503342 C84.3907735,17.79089 83.1859698,17.1305777 82.5562769,15.8379099 C81.7754842,14.2417114 82.4717409,12.2527869 84.0067007,11.4560189 C85.1675724,10.8496233 86.4755498,10.9634473 87.6444091,11.4114212 C88.0517792,11.5705086 88.2694426,11.9219651 88.5197223,12.2660996 C88.6342119,12.4205275 88.8052807,12.4824318 88.9037951,12.652835 C88.9610399,12.750018 88.8299093,12.795947 88.775327,12.810591 C88.518391,12.8811486 87.6603844,12.8917988 87.3768229,12.8578513 C87.0293602,12.8165818 86.4416023,12.8312258 86.0928083,12.9051115 C86.4602402,13.1121248 86.8562944,13.3683952 87.2210637,13.5135041 C87.4460492,13.5947119 87.6211118,13.5947119 87.8254625,13.699217 C87.9093328,13.7458116 88.1536217,13.8137066 88.1536217,13.9255337 C88.1269962,14.0373607 87.9253081,14.084621 87.7768709,14.1285531 C87.4447179,14.2230736 86.9887563,14.2390489 86.5680734,14.1392033 C85.9011048,13.9874379 85.5882552,13.5920493 85.1722318,13.8343413 C84.8953267,14.0034132 84.8913328,14.3755045 84.9818595,14.7569148 C85.1289654,15.3466695 85.7500051,15.5962835 86.275193,15.7713462 C88.1023676,16.3584383 90.0506883,16.0242884 91.8325996,16.9422023 C92.5235312,17.2969871 93.3029926,18.0158755 93.4487672,18.7826897 C94.0558285,21.9657677 90.4567271,22.3438498 90.4567271,22.3438498 L90.4567271,22.3438498 Z M87.5771797,19.1587749 C87.5771797,19.1587749 87.9372896,19.1973818 88.813934,19.2572892 C89.4875591,19.3018869 89.9408581,19.4929248 89.9408581,19.4929248 L89.8549909,22.6953063 C89.1374338,22.5615132 88.6701563,22.4816367 88.0051846,22.3964351 C87.7855242,21.2348979 87.5046253,20.8361811 87.0386791,19.982834 C86.9328427,19.7904647 87.0240351,19.7152477 87.0533231,19.6679875 C87.1178899,19.5475071 87.585833,19.4343487 87.585833,19.4343487 L87.5771797,19.1587749 Z M92.4529736,26.1499644 C92.3324933,26.6711585 91.9956808,27.083188 91.4511894,27.4153411 C90.8787412,27.7561474 90.2816645,27.7827729 90.2816645,27.7827729 L90.3315873,26.0234933 C90.3315873,26.0234933 90.4640491,25.992874 90.5565727,25.8797156 C90.6464338,25.7678885 90.6703967,25.6913402 90.6464338,25.5382436 C90.6304585,25.438398 90.5492507,25.3059362 90.3921603,25.2353786 C90.2197602,25.1614929 89.9495114,25.1335361 89.8403469,25.1262141 C88.9710244,25.0190465 88.1722596,24.9238603 87.3242375,24.7840765 C85.7879464,24.5351281 84.6996293,23.6498304 84.7928185,22.1820999 C84.8573853,21.2002847 85.8884577,20.8920946 86.6193275,20.5845702 C86.858957,21.0112437 87.0739579,21.4625459 87.161822,21.6921908 C87.2989433,22.0902419 87.3741603,22.3438498 87.3741603,22.3438498 C87.3741603,22.3438498 87.0440042,22.4010946 87.0706297,22.6713434 C87.0985864,22.9109728 87.3635101,23.0114841 87.5265913,23.0381096 C88.60093,23.1852155 90.0307192,23.3642719 90.7875489,23.6205423 C91.2907708,23.7942737 91.7853393,24.0791665 92.0689009,24.46923 C92.4955744,25.0589847 92.5927575,25.5382436 92.4529736,26.1499644 L92.4529736,26.1499644 Z M88.2148604,25.5149463 C88.9137796,25.5974854 89.1713813,25.6181201 89.7644642,25.6913402 L89.7052225,28.5961818 L89.0315974,28.2314125 L88.3606349,27.911241 L88.2148604,25.5149463 Z M90.9186794,32.4116154 C90.5379349,32.7284588 90.0819732,32.8342951 90.0819732,32.8342951 L90.1305648,31.5915501 C90.1305648,31.5915501 90.2670204,31.4657446 90.2304104,31.3146449 C90.1658436,31.063034 89.2818771,30.471948 88.806612,30.2882321 C88.3226936,30.1038505 87.6810192,29.9154751 87.2210637,29.7171152 C86.1527157,29.251169 85.7673117,28.3139516 86.2013072,27.2928638 C86.357732,26.9154474 86.7870681,26.6578457 87.0220381,26.5180619 C87.2796398,26.3736186 87.6503998,26.2558008 87.6503998,26.2558008 L87.7608957,27.7108841 C87.7608957,27.7108841 87.6211118,27.7594756 87.5798423,27.8906062 C87.4993002,28.1448797 87.7316076,28.2919855 87.7948432,28.3139516 C88.4944281,28.6254699 89.5121876,29.0361681 90.255039,29.471495 C91.2155537,30.0306304 91.5304002,30.44266 91.5350648,31.1189476 C91.536391,31.729337 91.2761267,32.1174036 90.9186794,32.4116154 L90.9186794,32.4116154 Z M89.5554541,35.5627428 C89.5534572,35.7917221 89.4629305,35.9687816 89.0315974,35.9774349 C88.6694907,35.9847569 88.5137315,35.8582858 88.4977562,35.4788725 C88.4391802,33.8121164 88.3666257,30.6716392 88.3666257,30.6716392 C88.3666257,30.6716392 88.8359,30.8174138 89.0595542,30.9485444 C89.1274492,30.9884826 89.375732,31.1429105 89.5887359,31.3645678 C89.6333336,31.433794 89.6672811,31.4484381 89.663953,31.5482837 C89.6373275,32.7664001 89.5614448,35.0229109 89.5554541,35.5627428 L89.5554541,35.5627428 Z M87.7029852,34.1788827 C87.6397496,34.6195346 87.820803,34.8065787 87.7768709,35.0135919 C87.7029852,35.3504045 87.48865,35.2505589 87.3635101,34.9996136 C87.1871162,34.6621354 87.0706297,34.4963917 87.0220381,33.9798571 C86.9428273,33.1624544 87.3515287,32.7750534 87.5372415,32.5853467 C87.7389296,32.3836586 87.9266394,32.283813 87.9266394,32.283813 L87.9885436,33.6563573 C87.9885436,33.6563573 87.7648895,33.7402276 87.7029852,34.1788827 L87.7029852,34.1788827 Z M94.6462489,7.96674771 C92.6912718,8.22767757 90.7509388,8.42270933 88.8432221,8.43801899 L88.8299093,8.43801899 C86.9175331,8.42270933 84.9818595,8.22767757 83.02422,7.96674771 C81.0665804,7.69783021 79.1708451,7.25385007 77.1426479,6.7133525 C75.7228434,10.7377962 76.0243771,15.8099531 77.118685,20.3282998 C79.1695138,28.8358113 84.3042407,35.3011473 88.8359,38.1500753 C93.3635656,35.3011473 98.5016206,28.8358113 100.551784,20.3282998 C101.643429,15.8099531 101.944963,10.7377962 100.525158,6.7133525 C98.4956299,7.25385007 96.6025572,7.69783021 94.6462489,7.96674771 L94.6462489,7.96674771 Z" id="Fill-59" fill="#005DB9"></path>
        </g>
    </g>
</svg>