<?xml version="1.0" encoding="UTF-8"?>
<svg width="192px" height="56px" viewBox="0 0 192 56" version="1.1" xmlns="http://www.w3.org/2000/svg" xmlns:xlink="http://www.w3.org/1999/xlink">
    <title>Logos/Vendors/Sanitas-BoT</title>
    <defs>
        <polygon id="path-1" points="0 0 23 0 23 25 0 25"></polygon>
        <polygon id="path-3" points="0 0 23 0 23 25 0 25"></polygon>
        <polygon id="path-5" points="0.25 0.25 0.75 0.25 0.75 0.75 0.25 0.75"></polygon>
    </defs>
    <g id="Logos/Vendors/Sanitas-BoT" stroke="none" stroke-width="1" fill="none" fill-rule="evenodd">
        <g id="Blue-of-Tennessee_Stacked" transform="translate(18, 0)">
            <path d="M101.075581,28.3043478 C101.011628,28.5652174 101.011628,28.826087 101.011628,29.0217391 C101.011628,30.5869565 102.098837,31.3043478 103.569767,31.4347826 L100.436047,36 C97.8139535,35.8695652 95,33.9130435 95,30 C95,29.4782609 95.0639535,28.9565217 95.127907,28.4347826 L100.052326,0 L106,0 L101.075581,28.3043478 Z" id="Fill-1" fill="#003764"></path>
            <path d="M128.930233,35.4114441 L123.116279,35.4114441 L123.956072,30.7683924 L123.826873,30.7029973 C121.953488,34.1035422 118.788114,36 114.912145,36 C110.906977,36 108,33.5803815 108,29.3950954 C108,28.8065395 108.064599,28.2833787 108.129199,27.760218 L110.842377,12 L116.979328,12 L114.26615,27.5640327 C114.20155,27.8256131 114.20155,28.0217984 114.20155,28.2833787 C114.20155,29.9836512 115.299742,30.8991826 116.914729,30.8991826 C122.276486,30.8991826 124.795866,23.9673025 125.571059,19.520436 L126.927649,12 L133,12 L128.930233,35.4114441 Z" id="Fill-3" fill="#003764"></path>
            <g id="Group-7" transform="translate(134, 11)">
                <mask id="mask-2" fill="white">
                    <use xlink:href="#path-1"></use>
                </mask>
                <g id="Clip-6"></g>
                <path d="M8.15250281,11.8315508 L6.62805106,11.8315508 C7.62225872,8.42245989 10.6711622,5.14705882 14.3165903,5.14705882 C15.7747615,5.14705882 17.0340912,5.94919786 17.0340912,7.55347594 C17.0340912,11.2967914 10.8700037,11.8315508 8.15250281,11.8315508 M15.1119564,0 C7.15829515,0 0,6.88502674 0,14.973262 C0,21.4572193 4.77219677,25 10.8700037,25 C13.2561021,25 15.708481,24.5320856 17.8294574,23.4625668 L18.823665,17.7807487 C16.7026887,19.0508021 14.2503098,19.9197861 11.7316504,19.9197861 C9.27927149,19.9197861 7.02573413,18.9839572 6.36292902,16.3770053 C12.593297,16.7112299 21.2097634,15.5080214 22.8667762,8.15508021 C22.9993372,7.68716578 22.9993372,7.15240642 22.9993372,6.61764706 C23.0656177,2.13903743 19.0887871,0 15.1119564,0" id="Fill-5" fill="#003764" mask="url(#mask-2)"></path>
            </g>
            <path d="M78.7453083,30.1916168 L74.691689,30.1916168 L76.4932976,19.9161677 L80.9329759,19.9161677 C83.4423592,19.9161677 85.69437,21.0359281 85.69437,23.9341317 C85.6300268,27.754491 82.2841823,30.1916168 78.7453083,30.1916168 L78.7453083,30.1916168 Z M78.616622,7.07185629 L81.769437,7.07185629 C83.6353887,7.07185629 85.308311,7.86227545 85.308311,10.0359281 C85.308311,13.1317365 82.8632708,14.9101796 80.0321716,14.9101796 L77.2654155,14.9101796 L78.616622,7.07185629 Z M87.4316354,16.6886228 C89.9410188,15.502994 91.4209115,12.0778443 91.4209115,9.37724551 C91.4209115,4.76646707 87.6246649,2 83.3780161,2 L73.5978552,2 L68,35 C69.9302949,34.3413174 74.3699732,33.2215569 77.6514745,33.0898204 L77.7158177,33.0898204 L78.6809651,33.0898204 C82.3485255,33.0898204 83.8284182,33.6167665 84.4718499,34.1437126 C88.2037534,32.6946108 91.0348525,29.5988024 91.8713137,25.1856287 C92,24.6586826 92,24.1317365 92,23.6047904 C91.9356568,20.7065868 90.3270777,17.6107784 87.4316354,16.6886228 L87.4316354,16.6886228 Z" id="Fill-8" fill="#003764"></path>
            <path d="M101.075581,28.3043478 C101.011628,28.5652174 101.011628,28.826087 101.011628,29.0217391 C101.011628,30.5869565 102.098837,31.3043478 103.569767,31.4347826 L100.436047,36 C97.8139535,35.8695652 95,33.9130435 95,30 C95,29.4782609 95.0639535,28.9565217 95.127907,28.4347826 L100.052326,0 L106,0 L101.075581,28.3043478 Z" id="Fill-10" fill="#003764"></path>
            <path d="M128.930233,35.4114441 L123.116279,35.4114441 L123.956072,30.7683924 L123.826873,30.7029973 C121.953488,34.1035422 118.788114,36 114.912145,36 C110.906977,36 108,33.5803815 108,29.3950954 C108,28.8065395 108.064599,28.2833787 108.129199,27.760218 L110.842377,12 L116.979328,12 L114.26615,27.5640327 C114.20155,27.8256131 114.20155,28.0217984 114.20155,28.2833787 C114.20155,29.9836512 115.299742,30.8991826 116.914729,30.8991826 C122.276486,30.8991826 124.795866,23.9673025 125.571059,19.520436 L126.927649,12 L133,12 L128.930233,35.4114441 Z" id="Fill-12" fill="#003764"></path>
            <g id="Group-16" transform="translate(134, 11)">
                <mask id="mask-4" fill="white">
                    <use xlink:href="#path-3"></use>
                </mask>
                <g id="Clip-15"></g>
                <path d="M8.15250281,11.8315508 L6.62805106,11.8315508 C7.62225872,8.42245989 10.6711622,5.14705882 14.3165903,5.14705882 C15.7747615,5.14705882 17.0340912,5.94919786 17.0340912,7.55347594 C17.0340912,11.2967914 10.8700037,11.8315508 8.15250281,11.8315508 M15.1119564,0 C7.15829515,0 0,6.88502674 0,14.973262 C0,21.4572193 4.77219677,25 10.8700037,25 C13.2561021,25 15.708481,24.5320856 17.8294574,23.4625668 L18.823665,17.7807487 C16.7026887,19.0508021 14.2503098,19.9197861 11.7316504,19.9197861 C9.27927149,19.9197861 7.02573413,18.9839572 6.36292902,16.3770053 C12.593297,16.7112299 21.2097634,15.5080214 22.8667762,8.15508021 C22.9993372,7.68716578 22.9993372,7.15240642 22.9993372,6.61764706 C23.0656177,2.13903743 19.0887871,0 15.1119564,0" id="Fill-14" fill="#003764" mask="url(#mask-4)"></path>
            </g>
            <path d="M78.7453083,30.1916168 L74.691689,30.1916168 L76.4932976,19.9161677 L80.9329759,19.9161677 C83.4423592,19.9161677 85.69437,21.0359281 85.69437,23.9341317 C85.6300268,27.754491 82.2841823,30.1916168 78.7453083,30.1916168 L78.7453083,30.1916168 Z M78.616622,7.07185629 L81.769437,7.07185629 C83.6353887,7.07185629 85.308311,7.86227545 85.308311,10.0359281 C85.308311,13.1317365 82.8632708,14.9101796 80.0321716,14.9101796 L77.2654155,14.9101796 L78.616622,7.07185629 Z M87.4316354,16.6886228 C89.9410188,15.502994 91.4209115,12.0778443 91.4209115,9.37724551 C91.4209115,4.76646707 87.6246649,2 83.3780161,2 L73.5978552,2 L68,35 C69.9302949,34.3413174 74.3699732,33.2215569 77.6514745,33.0898204 L77.7158177,33.0898204 L78.6809651,33.0898204 C82.3485255,33.0898204 83.8284182,33.6167665 84.4718499,34.1437126 C88.2037534,32.6946108 91.0348525,29.5988024 91.8713137,25.1856287 C92,24.6586826 92,24.1317365 92,23.6047904 C91.9356568,20.7065868 90.3270777,17.6107784 87.4316354,16.6886228 L87.4316354,16.6886228 Z" id="Fill-17" fill="#003764"></path>
            <path d="M62.9602856,2.06692913 C59.362289,3.87401575 55.6976628,4.87795276 51.5,4.87795276 C47.2357077,4.87795276 43.637711,3.87401575 40.0397144,2 C37.6410499,6.68503937 37.3079021,14.3149606 39.3067891,20.7401575 C41.3056761,26.8976378 45.1035615,32.519685 51.5,36 C57.8298089,32.4527559 61.6943239,26.8976378 63.6932109,20.7401575 C65.6920979,14.3818898 65.3589501,6.7519685 62.9602856,2.06692913" id="Fill-19" fill="#FFFFFF"></path>
            <path d="M17,28 C21.95,28 26,23.95 26,19 C26,14.05 21.95,10 17,10 C12.05,10 8,14.05 8,19 C8,23.95 12.05,28 17,28" id="Fill-21" fill="#FFFFFF"></path>
            <path d="M31.5,34.76 C30.78,34.76 30.24,34.22 30.24,33.5 C30.24,32.78 30.78,32.24 31.5,32.24 C32.22,32.24 32.76,32.78 32.76,33.5 C32.76,34.22 32.22,34.76 31.5,34.76 M31.5,32 C30.66,32 30,32.66 30,33.5 C30,34.34 30.66,35 31.5,35 C32.34,35 33,34.34 33,33.5 C33,32.66 32.34,32 31.5,32" id="Fill-23" fill="#005EB9"></path>
            <path d="M31.3636364,33.8965517 L31.1363636,33.8965517 L31.1363636,33.2758621 L31.5,33.2758621 C31.6363636,33.2758621 31.8181818,33.3448276 31.8181818,33.6206897 C31.8181818,33.8965517 31.5454545,33.8965517 31.3636364,33.8965517 M32,33.5517241 C32,33.2068966 31.8636364,33 31.5454545,33 L31,33 L31,35 L31.1818182,35 L31.1818182,34.1034483 L31.4545455,34.1034483 L31.8181818,35 L31.9545455,35 L31.5454545,34.1034483 C31.8181818,34.1034483 32,33.9655172 32,33.5517241" id="Fill-25" fill="#005EB9"></path>
            <path d="M17,21 C16.9387755,21 16.9387755,21 16.877551,21.0609756 L14,25.3902439 C14.9183673,25.8170732 15.8979592,26 17,26 C18.0408163,26 19.0816327,25.7560976 20,25.3902439 L17.122449,21.0609756 C17.0612245,21 17.0612245,21 17,21" id="Fill-27" fill="#005EB9"></path>
            <path d="M13.685576,17.3962264 L9.18995578,17 C9.06331859,17.5943396 9,18.254717 9,18.8490566 C9,20.8301887 9.69650454,22.6132075 10.8362392,24 L13.9388504,17.7924528 C14.0654875,17.5943396 14.002169,17.3962264 13.685576,17.3962264" id="Fill-29" fill="#005EB9"></path>
            <path d="M14.6735191,11 C13.2167788,11.3783784 11.950048,12.0810811 11,13 L14.9268653,13 C14.9902018,13 15.0535383,12.8918919 14.9268653,12.8378378 C14.546846,12.4594595 14.2301634,11.6486486 14.6735191,11" id="Fill-31" fill="#005EB9"></path>
            <path d="M23,13 C22.0574464,12.0810811 20.8007082,11.3243243 19.3554592,11 C19.7953176,11.6486486 19.4182961,12.4594595 19.0412747,12.8378378 C18.9784378,12.8918919 18.9784378,13 19.1041116,13 L23,13 Z" id="Fill-33" fill="#005EB9"></path>
            <path d="M20.2879773,17.4622642 C19.9695974,17.4622642 19.9695974,17.6603774 20.0332734,17.7924528 L23.1533965,24 C24.2995642,22.6132075 25,20.8301887 25,18.8490566 C25,18.1886792 24.936324,17.5943396 24.8089721,17 L20.2879773,17.4622642 Z" id="Fill-35" fill="#005EB9"></path>
            <path d="M22.1086957,25.5621302 L22.1086957,25.5621302 L17.9347826,17.7514793 C17.6086957,17.1005917 17.7391304,15.9940828 18.9130435,15.7988166 L24.9782609,15.2130178 C25.3695652,16.1893491 25.5652174,17.295858 25.5652174,18.4023669 C25.5652174,21.3313609 24.1956522,23.9349112 22.1086957,25.5621302 L22.1086957,25.5621302 Z M21.4565217,26.0177515 L21.4565217,26.0177515 C20.0217391,26.9289941 18.326087,27.5147929 16.5,27.5147929 C14.673913,27.5147929 12.9782609,26.9940828 11.5434783,26.0177515 L15.9782609,19.443787 C16.3043478,18.9881657 16.826087,19.0532544 17.0869565,19.443787 L21.4565217,26.0177515 Z M7.43478261,18.4674556 C7.43478261,17.3609467 7.63043478,16.2544379 8.02173913,15.2781065 L14.0869565,15.8639053 C15.2608696,15.9940828 15.3913043,17.1005917 15.0652174,17.816568 L10.8913043,25.6272189 C8.80434783,23.9349112 7.43478261,21.3313609 7.43478261,18.4674556 L7.43478261,18.4674556 Z M16.5,9.42011834 C20.1521739,9.42011834 23.2826087,11.5680473 24.7173913,14.6272189 L18.2608696,14.6272189 C17.3478261,14.6272189 16.9565217,14.0414201 16.8913043,13.6508876 C16.8913043,13.1301775 16.9565217,12.9349112 17.4130435,12.4142012 C17.8695652,11.7633136 17.5434783,10.591716 16.5,10.591716 C15.4565217,10.591716 15.1304348,11.8284024 15.5869565,12.4142012 C16.0434783,12.9349112 16.1086957,13.1301775 16.0434783,13.6508876 C16.0434783,14.1065089 15.6521739,14.6272189 14.673913,14.6272189 L8.2173913,14.6272189 C9.7173913,11.5680473 12.8478261,9.42011834 16.5,9.42011834 L16.5,9.42011834 Z M23.8043478,11.112426 L23.8043478,2 L9.19565217,2 L9.19565217,11.1775148 L0,11.1775148 L0,25.8224852 L9.19565217,25.8224852 L9.19565217,35 L23.8043478,35 L23.8043478,25.7573964 L33,25.7573964 L33,11.112426 L23.8043478,11.112426 Z" id="Fill-37" fill="#005EB9"></path>
            <path d="M63.5,34.7 C62.78,34.7 62.24,34.16 62.24,33.44 C62.24,32.72 62.78,32.18 63.5,32.18 C64.22,32.18 64.76,32.72 64.76,33.44 C64.76,34.16 64.22,34.7 63.5,34.7 M63.5,32 C62.66,32 62,32.66 62,33.5 C62,34.34 62.66,35 63.5,35 C64.34,35 65,34.34 65,33.5 C65,32.66 64.34,32 63.5,32" id="Fill-39" fill="#005EB9"></path>
            <path d="M63.4090909,33.8571429 L63.1818182,33.8571429 L63.1818182,33.2142857 L63.5454545,33.2142857 C63.6818182,33.2142857 63.8636364,33.2857143 63.8636364,33.5 C63.8181818,33.9285714 63.5909091,33.8571429 63.4090909,33.8571429 M64,33.5714286 C64,33.2142857 63.9090909,33 63.5454545,33 L63,33 L63,35 L63.1818182,35 L63.1818182,34.1428571 L63.4545455,34.1428571 L63.8181818,35 L64,35 L63.6363636,34.1428571 C63.8181818,34.0714286 64,33.9285714 64,33.5714286" id="Fill-41" fill="#005EB9"></path>
            <path d="M61.2279169,20.0708661 C59.4289186,25.2913386 56.6971063,29.976378 51.4333704,33.1889764 C46.2362641,29.9094488 43.4378223,25.2913386 41.638824,20.0708661 C40.0397144,15.3858268 39.6399369,9.96456693 41.4389353,5.68110236 C44.0374884,6.5511811 45.5699685,6.88582677 46.9691894,7.08661417 C48.3017807,7.28740157 49.501113,7.42125984 51.4333704,7.42125984 C53.3656279,7.42125984 54.5649601,7.28740157 55.8975515,7.08661417 C57.2967724,6.88582677 58.8292524,6.61811024 61.4278056,5.68110236 C63.2268039,9.8976378 62.8270265,15.3858268 61.2279169,20.0708661 M62.9602856,2.06692913 C59.362289,3.87401575 55.6976628,4.87795276 51.5,4.87795276 C47.2357077,4.87795276 43.637711,3.87401575 40.0397144,2 C37.6410499,6.68503937 37.3079021,14.3149606 39.3067891,20.7401575 C41.3056761,26.8976378 45.1035615,32.519685 51.5,36 C57.8298089,32.4527559 61.6943239,26.8976378 63.6932109,20.7401575 C65.6920979,14.3818898 65.3589501,6.7519685 62.9602856,2.06692913" id="Fill-43" fill="#005EB9"></path>
            <path d="M50.2222222,11.35 C50.3888889,11.55 50.3333333,11.85 50.5555556,11.85 C50.6666667,11.85 50.7222222,11.65 50.8333333,11.55 L51,11.55 C50.7777778,11.15 50.2777778,11.15 50,11.15 C50,11.45 50.1111111,11.25 50.2222222,11.35" id="Fill-45" fill="#005EB9"></path>
            <g id="Group-49" transform="translate(0, 55)">
                <mask id="mask-6" fill="white">
                    <use xlink:href="#path-5"></use>
                </mask>
                <g id="Clip-48"></g>
                <path d="" id="Fill-47" fill="#005EB9" mask="url(#mask-6)"></path>
            </g>
            <path d="M55.1048136,11.4468665 C55.0406685,11.7084469 54.9765234,11.7084469 54.7840881,11.8392371 C54.4633627,12.1662125 54.0143471,12.493188 53.5653315,12.8855586 C53.3087511,13.147139 52.9880257,13.3433243 52.7955904,13.6702997 C52.7314453,13.7356948 52.6673002,13.9318801 52.6673002,13.9318801 C51.8975592,13.8010899 51.1278181,13.8010899 50.5505123,13.6702997 L50.5505123,13.0163488 C50.5505123,13.0163488 51.3202534,13.0163488 51.3843985,12.5585831 C51.3843985,12.5585831 51.3843985,12.4277929 51.2561083,12.3623978 C51.1278181,12.2970027 50.9353828,12.2316076 50.8712378,12.1662125 C51.4485436,12.2316076 51.9617043,12.493188 52.5390101,12.7547684 C52.6031551,12.6893733 52.474865,12.493188 52.4107199,12.4277929 C52.3465748,12.3623978 52.2182846,12.2316076 52.0258493,12.2316076 C51.6409788,12.1662125 50.8070927,12.0354223 50.8070927,12.0354223 L51.5126886,12.0354223 C51.7051239,12.0354223 51.8975592,11.9046322 51.8975592,11.8392371 C51.9617043,11.773842 51.8975592,11.5776567 51.769269,11.4468665 L51.5126886,11.1852861 C51.4485436,11.0544959 51.3202534,10.8583106 51.1278181,10.6621253 C50.9353828,10.400545 50.3580771,10.2043597 50.3580771,10.2043597 C50.3580771,10.2043597 50.293932,9.8119891 50.4222221,9.61580381 C50.4863672,9.48501362 50.8070927,9.48501362 50.8712378,9.48501362 C51.3202534,9.74659401 51.769269,10.0081744 52.3465748,10.0735695 C52.474865,10.1389646 52.474865,10.2043597 52.5390101,10.400545 C52.6031551,10.7929155 52.474865,11.3814714 52.5390101,11.6430518 C52.6031551,11.7084469 52.6673002,11.7084469 52.7314453,11.7084469 C53.244606,11.4468665 53.6294766,10.9237057 54.2067824,10.6621253 C54.5275078,10.5313351 55.2331038,10.9237057 55.1048136,11.4468665 L55.1048136,11.4468665 Z M52.7314453,18.9673025 C52.7314453,18.9673025 52.7955904,17.7901907 52.7955904,17.26703 C53.1163159,17.1362398 53.1804609,16.8746594 53.0521708,16.613079 C52.9880257,16.4822888 52.7314453,16.3514986 52.6031551,16.3514986 C51.9617043,16.2207084 51.3843985,16.1553134 50.7429476,16.0899183 C50.1656418,16.0245232 49.7166262,15.9591281 49.2034655,15.8283379 C48.112999,15.5667575 47.2149677,15.0435967 46.7659521,14.0626703 C46.1886463,12.8201635 46.701807,11.3160763 47.8564186,10.7275204 C48.7544498,10.2697548 49.7166262,10.3351499 50.6146574,10.6621253 C50.9353828,10.7929155 51.063673,11.0544959 51.2561083,11.3160763 C51.3202534,11.4468665 51.4485436,11.5122616 51.5126886,11.6430518 C51.5768337,11.7084469 51.4485436,11.773842 51.3843985,11.773842 C51.1919632,11.8392371 50.5505123,11.8392371 50.3580771,11.8392371 C50.1014967,11.8392371 49.6524811,11.8392371 49.3959007,11.9046322 C49.6524811,12.0354223 49.9732065,12.2316076 50.2297869,12.3623978 C50.4222221,12.4277929 50.5505123,12.4277929 50.6788025,12.493188 C50.7429476,12.5585831 50.9353828,12.5585831 50.9353828,12.6893733 C50.9353828,12.7547684 50.7429476,12.8201635 50.6788025,12.8201635 C50.4222221,12.8855586 50.1014967,12.8855586 49.7807713,12.8201635 C49.2676106,12.6893733 49.0751753,12.4277929 48.7544498,12.5585831 C48.5620146,12.6893733 48.5620146,12.9509537 48.6261597,13.2779292 C48.7544498,13.7356948 49.2034655,13.9318801 49.588336,14.0626703 C50.9353828,14.520436 52.4107199,14.2588556 53.7577667,14.9782016 C54.2709274,15.239782 54.8482332,15.8283379 54.9765234,16.4168937 C55.425539,18.7057221 52.7314453,18.9673025 52.7314453,18.9673025 L52.7314453,18.9673025 Z M50.5505123,16.5476839 C50.5505123,16.5476839 50.8070927,16.5476839 51.4485436,16.613079 C51.9617043,16.6784741 52.2824297,16.8092643 52.2824297,16.8092643 L52.2182846,19.2288828 C51.7051239,19.0980926 51.3202534,19.0326975 50.8070927,19.0326975 C50.6146574,18.1171662 50.4222221,17.8555858 50.1014967,17.2016349 C50.0373516,17.0708447 50.1014967,17.0054496 50.1014967,16.9400545 C50.1656418,16.8746594 50.4863672,16.7438692 50.4863672,16.7438692 L50.5505123,16.5476839 Z M54.2067824,21.9100817 C54.1426373,22.3024523 53.8860569,22.6294278 53.4370413,22.8910082 C52.9880257,23.1525886 52.5390101,23.1525886 52.5390101,23.1525886 L52.6031551,21.7792916 C52.6031551,21.7792916 52.7314453,21.7792916 52.7955904,21.6485014 C52.8597355,21.5831063 52.8597355,21.5177112 52.8597355,21.386921 C52.8597355,21.3215259 52.7955904,21.1907357 52.6673002,21.1253406 C52.5390101,21.0599455 52.3465748,21.0599455 52.2824297,21.0599455 C51.6409788,20.9945504 50.9995279,20.9291553 50.4222221,20.7983651 C49.2676106,20.6021798 48.4337244,19.9482289 48.4978695,18.8365123 C48.5620146,18.1171662 49.3317556,17.8555858 49.8449163,17.5940054 C50.0373516,17.9209809 50.1656418,18.2479564 50.2297869,18.4441417 C50.3580771,18.7711172 50.3580771,18.9673025 50.3580771,18.9673025 C50.3580771,18.9673025 50.1014967,19.0326975 50.1014967,19.2288828 C50.1014967,19.4250681 50.293932,19.4904632 50.4222221,19.4904632 C51.2561083,19.6212534 52.2824297,19.7520436 52.8597355,19.9482289 C53.244606,20.0790191 53.6294766,20.2752044 53.8219118,20.6021798 C54.2067824,21.0599455 54.3350725,21.386921 54.2067824,21.9100817 L54.2067824,21.9100817 Z M50.9995279,21.386921 C51.5126886,21.4523161 51.7051239,21.4523161 52.1541395,21.5177112 L52.0899944,23.7411444 L51.5768337,23.479564 L51.063673,23.2179837 L50.9995279,21.386921 Z M53.0521708,26.6839237 C52.7955904,26.9455041 52.4107199,27.0108992 52.4107199,27.0108992 L52.474865,26.0299728 C52.474865,26.0299728 52.6031551,25.9645777 52.5390101,25.8337875 C52.474865,25.6376022 51.8334141,25.1798365 51.4485436,25.0490463 C51.063673,24.9182561 50.6146574,24.7874659 50.2297869,24.5912807 C49.3959007,24.2643052 49.1393204,23.5449591 49.4600458,22.760218 C49.588336,22.4986376 49.9090614,22.3024523 50.1014967,22.1716621 C50.293932,22.0408719 50.5505123,21.9754768 50.5505123,21.9754768 L50.6146574,23.0871935 C50.6146574,23.0871935 50.4863672,23.1525886 50.4863672,23.2179837 C50.4222221,23.4141689 50.6146574,23.5449591 50.6788025,23.5449591 C51.1919632,23.8065395 51.9617043,24.0681199 52.5390101,24.4604905 C53.244606,24.9182561 53.5011864,25.1798365 53.5011864,25.7029973 C53.5011864,26.1607629 53.3087511,26.4223433 53.0521708,26.6839237 L53.0521708,26.6839237 Z M52.0258493,29.1035422 C52.0258493,29.2997275 51.9617043,29.4305177 51.6409788,29.4305177 C51.3843985,29.4305177 51.2561083,29.3651226 51.2561083,29.0381471 C51.1919632,27.7956403 51.1278181,25.3760218 51.1278181,25.3760218 C51.1278181,25.3760218 51.4485436,25.506812 51.6409788,25.5722071 C51.7051239,25.5722071 51.8975592,25.7029973 52.0258493,25.8991826 C52.0899944,25.9645777 52.0899944,25.9645777 52.0899944,26.0299728 C52.0899944,26.9455041 52.0258493,28.6457766 52.0258493,29.1035422 L52.0258493,29.1035422 Z M50.6146574,27.9918256 C50.5505123,28.3188011 50.6788025,28.4495913 50.6788025,28.6457766 C50.6146574,28.9073569 50.4863672,28.8419619 50.3580771,28.6457766 C50.2297869,28.3841962 50.1656418,28.253406 50.1014967,27.8610354 C50.0373516,27.2070845 50.3580771,26.9455041 50.4863672,26.8147139 C50.6146574,26.6839237 50.8070927,26.5531335 50.8070927,26.5531335 L50.8712378,27.599455 C50.8712378,27.599455 50.6788025,27.6648501 50.6146574,27.9918256 L50.6146574,27.9918256 Z M55.8745546,7.98092643 C54.3992176,8.17711172 52.9238806,8.30790191 51.5126886,8.373297 C50.1014967,8.373297 48.6261597,8.24250681 47.1508226,7.98092643 C45.6754856,7.78474114 44.2642937,7.45776567 42.7248115,7 C41.634345,10.0735695 41.8909254,13.9318801 42.7248115,17.3978202 C44.2642937,23.9373297 48.112999,28.8419619 51.5126886,31 C54.9123783,28.8419619 58.7610836,23.8719346 60.3005657,17.3978202 C61.1344519,13.9318801 61.3268872,10.0735695 60.3005657,7 C58.7610836,7.45776567 57.3498917,7.78474114 55.8745546,7.98092643 L55.8745546,7.98092643 Z" id="Fill-50" fill="#005EB9"></path>
            <path d="M50.6894852,44.0921053 C50.7545102,44.2236842 50.3643605,45.3421053 49.4540112,46.4605263 C49.1939114,46.1973684 49.1288865,45.9342105 49.1939114,45.2763158 C49.3889863,44.3552632 50.1692857,43.9605263 50.4944104,43.9605263 C50.5594353,44.0263158 50.6244603,44.0263158 50.6894852,44.0921053 M59.0126786,40.3421053 C57.7121796,42.5131579 55.7614312,44.3552632 54.8510819,45.0789474 C55.5013314,43.3684211 56.3466557,41.5263158 57.5821298,39.1578947 C58.6875539,37.0526316 59.3378034,36.9868421 59.792978,36.9868421 L59.8580029,37.0526316 C60.0530778,37.6447368 60.1831277,38.4342105 59.0126786,40.3421053 M59.792978,36 C59.4028283,36 59.0126786,36.2631579 58.8176038,36.4605263 C57.4520799,37.5789474 56.021531,39.6842105 54.3959073,43.9605263 C54.1358075,44.5526316 53.9407327,45.2105263 53.6806329,45.8684211 C53.6156079,45.8684211 53.6156079,45.9342105 53.550583,45.9342105 C53.1604333,46.3947368 51.9899842,46.9868421 50.949585,46.9868421 C50.7545102,46.9868421 50.5594353,46.9868421 50.3643605,46.9210526 C51.1446599,45.6710526 51.8599343,44.2236842 51.6648595,43.4342105 C51.5998345,43.2368421 51.4697846,43.0394737 51.2747098,42.9736842 C51.1446599,42.9078947 50.949585,42.8421053 50.7545102,42.8421053 C49.8441609,42.8421053 48.6737118,43.5657895 48.2835622,44.75 C48.0884873,45.3421053 48.0884873,46.5263158 48.7387368,47.3157895 C48.2185372,48.0394737 46.8530133,49.2894737 45.6825642,49.2894737 L45.4224644,49.2894737 C45.0973397,49.2236842 45.0323148,48.7631579 45.0323148,48.5657895 C45.0323148,47.25 46.4628636,44.4868421 47.6333127,44.0263158 C47.8934125,43.8947368 47.8934125,43.6973684 47.8934125,43.6315789 C47.7633626,43.4342105 47.3732129,43.1710526 46.9830632,43.1710526 C46.7879884,43.1710526 46.5278886,43.2368421 46.3978387,43.3684211 C44.8372399,44.6184211 43.7318158,47.5789474 44.0569405,48.9605263 C44.2520154,49.8815789 44.772215,50.3421053 45.5525143,50.3421053 C45.7475892,50.3421053 45.942664,50.3421053 46.1377389,50.2763158 C47.5032628,49.9473684 48.8037617,48.7631579 49.6490861,47.7763158 C49.9742108,47.9078947 50.3643605,47.9736842 50.7545102,47.9736842 C51.5998345,47.9736842 52.4451588,47.7105263 53.1604333,47.3157895 C52.9653584,47.9736842 52.7702836,48.6315789 52.6402337,49.2894737 C51.2096848,49.6184211 50.0392358,49.9473684 49.8441609,50.0789474 C49.5190362,50.2763158 49.5190362,50.4736842 49.5840611,50.6052632 C49.6490861,50.8684211 49.9091859,51 50.2993356,51 L50.4944104,51 C50.6894852,50.9342105 50.949585,50.8684211 51.2747098,50.7368421 C51.5998345,50.6052632 51.9899842,50.4736842 52.4451588,50.3421053 C52.1850591,51.6578947 52.0550092,52.8421053 52.0550092,53.7631579 C52.0550092,54.8815789 52.250084,55.6052632 52.7052586,55.8684211 C52.8353085,55.9342105 52.9653584,56 53.1604333,56 C53.550583,56 53.8106828,55.6710526 53.8757077,55.3421053 C53.9407327,55.0789474 53.7456578,54.8157895 53.485558,54.75 C53.1604333,54.6842105 52.9653584,54.2236842 52.9653584,53.3684211 C52.9653584,52.5789474 53.1604333,51.4605263 53.485558,50.0131579 C53.8106828,49.9473684 54.0707826,49.8815789 54.4609322,49.8157895 C54.8510819,49.75 55.1762067,49.6842105 55.5013314,49.6842105 C56.2166058,49.5526316 56.8018304,49.4868421 57.257005,49.4868421 C57.6471547,49.4868421 57.9072545,49.5526316 58.2323792,49.6184211 C58.7525788,49.75 59.2077535,49.6184211 59.2727784,49.2894737 C59.2727784,49.2236842 59.2727784,48.8947368 58.7525788,48.6973684 C58.4274541,48.5657895 58.0373044,48.5 57.5171048,48.5 C56.6067555,48.5 55.3712815,48.6315789 53.6806329,48.9605263 C53.7456578,48.6973684 53.8106828,48.5 53.8757077,48.2368421 C54.0057576,47.6447368 54.2008324,47.0526316 54.3959073,46.4605263 C54.786057,46.1973684 57.6471547,44.2236842 59.5979031,41.1315789 C61.2235269,38.4342105 61.1585019,37.1842105 60.7683522,36.4605263 C60.4432275,36.1315789 60.0530778,36 59.792978,36" id="Fill-52" fill="#231F20"></path>
            <path d="M75.3411019,36.7586207 C75.4698372,36.6283525 75.4698372,36.4980843 75.4698372,36.3678161 L75.4698372,36.302682 C76.0491459,36.2375479 76.564087,36.1724138 77.272131,36.1072797 C77.9158074,36.0421456 78.4951161,36.0421456 79.0100572,36.0421456 C81.3272921,36.0421456 82.7433801,36.4980843 83.1295859,36.7586207 C83.4514241,36.954023 83.8376299,36.8888889 83.9663652,36.6283525 C84.0307328,36.4980843 84.0307328,36.2375479 83.7088946,35.9118774 C83.0652183,35.3256705 81.2629245,35 78.4951161,35 L77.5296016,35 C74.1824845,35.1302682 69.3549118,36.3678161 67.8744561,36.954023 C66.3940005,37.4750958 65.8146918,37.4750958 65.3641183,37.4750958 L65.2353831,37.4750958 C65.1710154,37.4750958 65.1066478,37.5402299 65.0422802,37.605364 C64.9779125,37.7356322 64.9779125,37.9310345 65.1066478,38.1264368 C65.1710154,38.256705 65.4928536,38.6475096 66.13653,38.6475096 L66.4583682,38.6475096 C66.844574,38.5823755 67.4882503,38.3869732 68.3250296,38.0613027 C69.8054852,37.605364 71.9939849,37.0842912 74.2468521,36.6283525 C73.6675434,37.2796935 72.6376612,38.8429119 71.092838,41.4482759 C69.4192794,44.3141762 68.1319267,47.2452107 67.6169856,48.8735632 C67.3595151,49.7203065 67.1664121,50.3716475 67.1664121,50.9578544 C67.1664121,51.348659 67.2307798,51.8045977 67.6813532,51.9348659 C67.8100885,52 67.8744561,52 68.0031914,52 C68.5825001,52 68.968706,51.1532567 69.1618089,50.6321839 C69.2261765,50.4367816 69.1618089,50.1762452 69.0974412,50.045977 C69.0330736,49.9808429 68.9043383,49.9157088 68.8399707,49.9157088 C68.7756031,49.9157088 68.6468678,49.9808429 68.6468678,50.1111111 C68.6468678,50.1762452 68.5825001,50.3065134 68.5181325,50.4367816 C68.4537649,50.5670498 68.3250296,50.5670498 68.3250296,50.5670498 C68.0031914,49.9808429 70.2560587,45.0306513 71.8008819,42.4904215 C73.4100729,39.4291188 74.6974256,37.605364 75.3411019,36.7586207" id="Fill-54" fill="#231F20"></path>
            <path d="M75.8570384,46.1628524 L75.922763,46.033138 C76.1199369,45.7737092 76.1856615,45.6439948 76.44856,45.384566 C76.9743571,44.9305657 77.6316033,44.4765653 77.8945018,44.4765653 L77.9602265,44.4765653 C78.0916757,44.7359941 77.5658787,45.4494232 76.9086324,45.9034236 C76.6457339,46.0979952 76.3828354,46.1628524 76.1856615,46.1628524 C76.0542123,46.2277096 75.9884877,46.2277096 75.8570384,46.1628524 M101.489643,46.1628524 L101.555367,46.033138 C101.752541,45.7737092 101.818266,45.6439948 102.081164,45.384566 C102.606961,44.9305657 103.264208,44.4765653 103.527106,44.4765653 L103.592831,44.4765653 C103.72428,44.7359941 103.198483,45.4494232 102.541237,45.9034236 C102.278338,46.0979952 102.01544,46.1628524 101.818266,46.1628524 C101.686817,46.2277096 101.621092,46.2277096 101.489643,46.1628524 M112.860003,50.8325705 C112.597105,50.8325705 112.465655,50.7677133 112.399931,50.6379989 C112.334206,50.4434273 113.714423,49.665141 114.634568,49.2111406 C114.700293,49.5354266 114.634568,49.7948553 114.437394,50.0542841 C114.108771,50.5731417 113.3858,50.8325705 112.860003,50.8325705 M119.169567,46.1628524 L119.235292,46.033138 C119.432466,45.7737092 119.49819,45.6439948 119.761089,45.384566 C120.286886,44.9305657 120.944132,44.4765653 121.207031,44.4765653 L121.272755,44.4765653 C121.404205,44.7359941 120.878408,45.4494232 120.221161,45.9034236 C119.958263,46.0979952 119.695364,46.1628524 119.49819,46.1628524 C119.366741,46.2277096 119.235292,46.2277096 119.169567,46.1628524 M126.399276,44.2171365 C126.465001,44.2171365 126.465001,44.2171365 126.530725,44.2819937 C126.59645,44.3468509 126.59645,44.4765653 126.530725,44.6062797 C126.333552,44.9954229 125.676305,45.5142804 124.953334,45.7737092 C125.019059,45.5791376 125.216233,45.384566 125.347682,45.2548517 L125.479131,45.0602801 C125.873479,44.4117081 126.202102,44.2171365 126.399276,44.2171365 M130.868551,45.7737092 C130.802826,45.708852 130.737101,45.708852 130.671377,45.708852 C130.474203,45.708852 130.342754,45.9034236 130.14558,46.2925668 C129.948406,46.8762815 127.648044,48.8868546 125.479131,48.8868546 L125.347682,48.8868546 C124.88761,48.8868546 124.558987,48.692283 124.361813,48.4328542 C124.164639,48.1085683 124.098914,47.6545679 124.296088,47.1357103 C124.624711,47.0059959 127.056522,46.1628524 127.516595,44.6711369 C127.582319,44.3468509 127.516595,43.9577077 127.319421,43.698279 C127.122247,43.4388502 126.727899,43.3091358 126.333552,43.3091358 C125.807755,43.3091358 125.216233,43.6334218 124.75616,44.1522793 C124.296088,44.7359941 123.770291,45.5791376 123.507393,46.4871384 C122.455799,47.3951391 120.221161,48.692283 119.235292,48.7571402 L118.972393,48.7571402 C118.578046,48.7571402 118.315147,48.692283 118.315147,48.1085683 C118.380872,47.5897107 118.512321,47.3951391 118.578046,47.2654247 C118.578046,47.2005675 118.64377,47.2005675 118.64377,47.1357103 C119.038118,47.3302819 119.958263,47.1357103 120.681234,46.7465672 C121.601378,46.1628524 122.390074,44.9305657 122.324349,44.2171365 C122.324349,43.8928505 122.127175,43.698279 121.864277,43.6334218 C121.075581,43.373993 120.352611,43.6334218 119.49819,44.3468509 C118.972393,44.8008513 118.512321,45.3197088 118.183698,45.9034236 C118.117973,45.9034236 118.052249,45.9682808 117.986524,46.033138 C117.395002,46.68171 116.474858,47.2654247 115.22609,47.8491395 C115.028916,47.3951391 114.766017,46.9411387 114.503119,46.5519956 C114.174496,46.033138 113.911597,45.5791376 113.845872,45.2548517 C114.24022,44.6062797 114.437394,44.4117081 114.700293,44.1522793 L114.766017,44.0874221 C114.897467,43.8928505 114.963191,43.6334218 114.831742,43.373993 C114.700293,43.049707 114.37167,42.9199926 114.043046,43.049707 C113.780148,43.1794214 113.254351,43.5685646 112.991452,44.3468509 C112.925728,44.4765653 112.860003,44.6062797 112.860003,44.7359941 C110.953989,47.2654247 109.770946,48.2382827 108.719352,49.016569 L108.587902,49.1462834 C108.390729,48.5625686 108.062105,48.0437111 107.733482,47.5897107 C107.404859,47.1357103 107.141961,46.68171 107.141961,46.2925668 C107.141961,46.033138 107.930656,44.9954229 108.325004,44.9305657 L108.390729,44.9305657 C108.522178,44.8657085 108.587902,44.7359941 108.522178,44.5414225 C108.456453,44.2819937 108.193555,43.9577077 107.799207,43.9577077 C107.404859,43.9577077 106.28754,44.8008513 106.221816,45.9034236 L106.221816,46.2925668 C105.301671,47.2005675 102.738411,48.7571402 101.621092,48.8219974 L101.358193,48.8219974 C100.963846,48.8219974 100.700947,48.7571402 100.700947,48.1734255 C100.766672,47.6545679 100.898121,47.4599963 100.963846,47.3302819 C100.963846,47.2654247 101.02957,47.2654247 101.02957,47.2005675 C101.423918,47.3951391 102.344063,47.2005675 103.067034,46.8114243 C103.987179,46.2277096 104.775874,44.9954229 104.710149,44.2819937 C104.710149,43.9577077 104.512976,43.7631362 104.250077,43.698279 C103.461382,43.4388502 102.738411,43.698279 101.88399,44.4117081 C101.292469,44.9305657 100.898121,45.4494232 100.503773,46.033138 C100.438049,46.033138 100.438049,46.0979952 100.438049,46.0979952 C100.109426,46.6168528 98.5320345,48.1085683 97.743339,48.1085683 C97.6118898,48.1085683 97.3489913,48.0437111 97.2832666,47.6545679 C97.1518174,46.8114243 97.0860928,46.357424 97.0203681,45.7737092 C97.0203681,45.6439948 97.0203681,45.4494232 96.9546435,45.3197088 C96.8889189,44.6062797 96.6260204,44.2171365 96.1002234,44.2171365 C96.0344987,44.2171365 95.9030495,44.2171365 95.7716002,44.2819937 C94.8514555,44.6711369 93.2740644,46.4871384 92.2224704,47.6545679 C91.9595719,47.9788539 91.6309488,48.3031398 91.4994995,48.4977114 C91.5652241,47.9788539 92.2224704,46.2277096 92.6825428,45.5142804 C92.813992,45.2548517 93.0111659,45.1251373 93.1426152,44.9954229 C93.2740644,44.9305657 93.339789,44.8657085 93.4055137,44.7359941 C93.4712383,44.6062797 93.4055137,44.4117081 93.2740644,44.2819937 C93.0768905,44.0874221 92.813992,43.9577077 92.5510935,43.9577077 C92.3539196,43.9577077 92.0910211,44.0225649 91.8938473,44.3468509 C90.9737025,45.9034236 89.2648622,47.4599963 87.884645,47.9139967 C87.7531958,47.9788539 87.5560219,47.9788539 87.4245727,47.9788539 C87.0959495,47.9788539 86.7016018,47.7842823 86.7016018,47.3302819 C86.7016018,46.4871384 86.8987757,45.9682808 87.0959495,45.3197088 C87.1616742,45.1251373 87.2273988,44.8657085 87.2931234,44.6711369 C87.358848,44.3468509 87.2931234,44.0225649 87.0959495,43.8279933 C86.9645003,43.6334218 86.7673264,43.5685646 86.5701525,43.5685646 C86.5044279,43.5685646 86.3729786,43.5685646 86.307254,43.6334218 C85.1242107,43.8928505 82.7581242,46.6168528 81.4436317,48.1085683 C81.1807332,48.4328542 80.9178346,48.692283 80.85211,48.8219974 C80.7863854,48.4328542 81.3121824,46.8114243 81.7065302,46.4222812 C81.8379794,46.2277096 81.9694287,46.033138 82.1666025,45.8385664 C82.4952257,45.5142804 82.8238488,45.1251373 82.8895734,44.8008513 C82.9552981,44.6711369 82.8895734,44.5414225 82.7581242,44.4117081 C82.6266749,44.2171365 82.2980518,44.0874221 82.0351533,44.0874221 C81.903704,44.0874221 81.8379794,44.0874221 81.7065302,44.1522793 C81.377907,44.4117081 81.2464578,44.6062797 80.85211,45.4494232 L80.6549361,45.8385664 C80.5892115,46.033138 80.5234869,46.2277096 80.3920376,46.4222812 C79.4718929,47.3302819 76.9086324,48.8219974 75.8570384,48.9517118 L75.5941399,48.9517118 C75.1997921,48.9517118 74.9368936,48.8868546 74.9368936,48.3031398 C75.0026183,47.7842823 75.1340675,47.5897107 75.1997921,47.4599963 C75.1997921,47.3951391 75.2655168,47.3951391 75.2655168,47.3302819 C75.6598645,47.5248535 76.5800093,47.3302819 77.3029802,46.9411387 C78.223125,46.357424 79.0118205,45.1251373 78.9460959,44.4117081 C78.9460959,44.0874221 78.748922,43.8928505 78.4860235,43.8279933 C77.697328,43.5685646 76.9743571,43.8279933 76.1199369,44.5414225 C74.9368936,45.5791376 74.2139227,46.8762815 74.0167489,48.3031398 C73.9510242,48.7571402 74.0824735,49.1462834 74.345372,49.4057122 C74.6082705,49.7299982 75.1340675,49.9245697 75.6598645,49.9245697 C75.922763,49.9245697 76.1199369,49.8597125 76.3171108,49.8597125 C77.3687048,49.6002838 78.8803712,48.8219974 79.9976899,47.9788539 C79.800516,48.6274258 79.6690667,49.340855 79.7347914,49.8597125 C79.800516,50.1839985 80.0634145,50.3785701 80.5234869,50.3785701 C80.85211,50.3785701 81.1150085,50.2488557 81.3121824,50.1191413 C81.5093563,49.9245697 81.7065302,49.665141 82.0351533,49.2759978 C82.2980518,48.9517118 82.6923996,48.4977114 83.0867473,47.9788539 C84.5984137,46.2277096 85.8471816,45.1251373 86.1100801,44.9954229 C86.1100801,45.1251373 86.0443555,45.384566 85.9786309,45.6439948 C85.8471816,46.1628524 85.6500078,46.7465672 85.6500078,47.3302819 C85.6500078,48.4328542 86.307254,49.1462834 87.2931234,49.1462834 C87.6217465,49.1462834 87.9503697,49.0814262 88.2789928,48.9517118 C89.3963115,48.5625686 90.0535577,47.9788539 90.5136301,47.5248535 C90.2507316,48.3031398 90.1192823,49.016569 90.0535577,49.4705694 L90.0535577,49.6002838 C89.9878331,49.9245697 90.1192823,50.1191413 90.185007,50.1839985 C90.3164562,50.3785701 90.5793547,50.4434273 90.7765286,50.4434273 C90.9737025,50.4434273 91.1708764,50.3785701 91.3023256,50.3137129 C91.6309488,50.0542841 91.8938473,49.7299982 92.2224704,49.2111406 C92.4196443,48.9517118 92.6825428,48.6274258 92.9454413,48.2382827 C93.9970353,46.9411387 95.3772525,45.8385664 95.640151,45.708852 C95.7058756,45.7737092 95.7058756,46.0979952 95.7058756,46.4222812 C95.7058756,46.8114243 95.7716002,47.3951391 95.9030495,47.9788539 C96.1002234,48.8219974 96.5602957,49.2759978 97.2832666,49.2759978 C98.0062375,49.2759978 98.8606577,48.8219974 99.5179039,48.3031398 L99.5179039,48.367997 C99.4521793,48.8219974 99.5836286,49.2111406 99.8465271,49.4705694 C100.109426,49.7948553 100.635223,49.9894269 101.16102,49.9894269 C101.423918,49.9894269 101.621092,49.9245697 101.818266,49.9245697 C103.198483,49.6002838 105.301671,48.3031398 106.353265,47.3302819 C106.484714,47.6545679 106.681888,47.9788539 106.879062,48.3031398 C107.27341,48.8868546 107.602033,49.5354266 107.602033,49.8597125 C107.27341,50.1191413 106.813337,50.3137129 106.41899,50.4434273 C106.156091,50.5731417 105.827468,50.6379989 105.630294,50.7677133 C105.498845,50.8974277 105.43312,51.0271421 105.498845,51.2217137 C105.56457,51.4811424 105.958917,51.675714 106.484714,51.675714 C106.681888,51.675714 107.076236,51.675714 107.536308,51.4162852 C109.573772,50.3137129 111.742684,47.9139967 113.057177,46.357424 C113.188626,46.68171 113.3858,47.0059959 113.582974,47.2654247 C113.714423,47.4599963 113.780148,47.5897107 113.911597,47.7842823 C114.043046,48.0437111 114.174496,48.3031398 114.305945,48.5625686 C113.320075,49.0814262 112.334206,49.6002838 111.808409,50.1191413 C111.545511,50.3785701 111.414061,50.7677133 111.479786,51.1568565 C111.479786,51.4162852 111.611235,51.675714 111.808409,51.8054284 C112.005583,52 112.399931,52 112.662829,52 C113.517249,52 114.897467,51.6108568 115.423264,50.5082845 C115.620437,50.1191413 115.686162,49.6002838 115.488988,49.016569 C116.211959,48.6274258 116.869205,48.3031398 117.395002,47.9139967 C117.329278,48.1085683 117.329278,48.2382827 117.329278,48.4328542 C117.263553,48.8868546 117.395002,49.2759978 117.657901,49.5354266 C117.920799,49.8597125 118.446596,50.0542841 118.972393,50.0542841 C119.235292,50.0542841 119.432466,49.9894269 119.62964,49.9894269 C120.681234,49.7299982 122.1929,48.8868546 123.310219,48.1085683 L123.310219,48.1734255 C123.310219,49.4057122 124.03319,50.1191413 125.281957,50.1839985 L125.544856,50.1839985 C128.30529,50.1839985 130.934275,47.7194251 131,46.6168528 C131,46.1628524 131,45.9034236 130.868551,45.7737092" id="Fill-56" fill="#231F20"></path>
            <path d="M127.15,43.8181818 C127.25,43.8181818 127.35,43.9090909 127.45,43.9090909 C127.55,43.9090909 127.65,43.8181818 127.65,43.7272727 C127.65,43.6363636 127.55,43.5454545 127.45,43.5454545 C127.25,43.4545455 127.15,43.3636364 127.15,43.2727273 C127.15,43.0909091 127.25,43 127.55,43 C127.65,43 127.75,43 127.75,43.0909091 L127.75,43.1818182 C127.75,43.1818182 127.65,43.0909091 127.55,43.0909091 C127.35,43.0909091 127.35,43.1818182 127.35,43.2727273 C127.35,43.3636364 127.45,43.4545455 127.55,43.4545455 C127.75,43.5454545 127.85,43.6363636 127.85,43.7272727 C127.85,43.9090909 127.75,44 127.45,44 C127.35,44 127.25,44 127.15,43.9090909 L127.15,43.8181818 Z" id="Fill-58" fill="#231F20"></path>
            <path d="M128.666667,43.5454545 L128.666667,43.0909091 C128.666667,43.1818182 128.583333,43.3636364 128.583333,43.4545455 L128.416667,43.9090909 L128.333333,43.9090909 L128.166667,43.4545455 C128.083333,43.2727273 128.083333,43.1818182 128.083333,43.0909091 L128.083333,43.5454545 L128.083333,44 L128,44 L128.083333,43 L128.25,43 L128.416667,43.4545455 C128.416667,43.5454545 128.5,43.7272727 128.5,43.8181818 C128.5,43.7272727 128.583333,43.6363636 128.583333,43.4545455 L128.75,43 L128.916667,43 L129,44 L128.916667,44 L128.666667,43.5454545 Z" id="Fill-60" fill="#231F20"></path>
            <path d="M50.6894852,44.0921053 C50.7545102,44.2236842 50.3643605,45.3421053 49.4540112,46.4605263 C49.1939114,46.1973684 49.1288865,45.9342105 49.1939114,45.2763158 C49.3889863,44.3552632 50.1692857,43.9605263 50.4944104,43.9605263 C50.5594353,44.0263158 50.6244603,44.0263158 50.6894852,44.0921053 M59.0126786,40.3421053 C57.7121796,42.5131579 55.7614312,44.3552632 54.8510819,45.0789474 C55.5013314,43.3684211 56.3466557,41.5263158 57.5821298,39.1578947 C58.6875539,37.0526316 59.3378034,36.9868421 59.792978,36.9868421 L59.8580029,37.0526316 C60.0530778,37.6447368 60.1831277,38.4342105 59.0126786,40.3421053 M59.792978,36 C59.4028283,36 59.0126786,36.2631579 58.8176038,36.4605263 C57.4520799,37.5789474 56.021531,39.6842105 54.3959073,43.9605263 C54.1358075,44.5526316 53.9407327,45.2105263 53.6806329,45.8684211 C53.6156079,45.8684211 53.6156079,45.9342105 53.550583,45.9342105 C53.1604333,46.3947368 51.9899842,46.9868421 50.949585,46.9868421 C50.7545102,46.9868421 50.5594353,46.9868421 50.3643605,46.9210526 C51.1446599,45.6710526 51.8599343,44.2236842 51.6648595,43.4342105 C51.5998345,43.2368421 51.4697846,43.0394737 51.2747098,42.9736842 C51.1446599,42.9078947 50.949585,42.8421053 50.7545102,42.8421053 C49.8441609,42.8421053 48.6737118,43.5657895 48.2835622,44.75 C48.0884873,45.3421053 48.0884873,46.5263158 48.7387368,47.3157895 C48.2185372,48.0394737 46.8530133,49.2894737 45.6825642,49.2894737 L45.4224644,49.2894737 C45.0973397,49.2236842 45.0323148,48.7631579 45.0323148,48.5657895 C45.0323148,47.25 46.4628636,44.4868421 47.6333127,44.0263158 C47.8934125,43.8947368 47.8934125,43.6973684 47.8934125,43.6315789 C47.7633626,43.4342105 47.3732129,43.1710526 46.9830632,43.1710526 C46.7879884,43.1710526 46.5278886,43.2368421 46.3978387,43.3684211 C44.8372399,44.6184211 43.7318158,47.5789474 44.0569405,48.9605263 C44.2520154,49.8815789 44.772215,50.3421053 45.5525143,50.3421053 C45.7475892,50.3421053 45.942664,50.3421053 46.1377389,50.2763158 C47.5032628,49.9473684 48.8037617,48.7631579 49.6490861,47.7763158 C49.9742108,47.9078947 50.3643605,47.9736842 50.7545102,47.9736842 C51.5998345,47.9736842 52.4451588,47.7105263 53.1604333,47.3157895 C52.9653584,47.9736842 52.7702836,48.6315789 52.6402337,49.2894737 C51.2096848,49.6184211 50.0392358,49.9473684 49.8441609,50.0789474 C49.5190362,50.2763158 49.5190362,50.4736842 49.5840611,50.6052632 C49.6490861,50.8684211 49.9091859,51 50.2993356,51 L50.4944104,51 C50.6894852,50.9342105 50.949585,50.8684211 51.2747098,50.7368421 C51.5998345,50.6052632 51.9899842,50.4736842 52.4451588,50.3421053 C52.1850591,51.6578947 52.0550092,52.8421053 52.0550092,53.7631579 C52.0550092,54.8815789 52.250084,55.6052632 52.7052586,55.8684211 C52.8353085,55.9342105 52.9653584,56 53.1604333,56 C53.550583,56 53.8106828,55.6710526 53.8757077,55.3421053 C53.9407327,55.0789474 53.7456578,54.8157895 53.485558,54.75 C53.1604333,54.6842105 52.9653584,54.2236842 52.9653584,53.3684211 C52.9653584,52.5789474 53.1604333,51.4605263 53.485558,50.0131579 C53.8106828,49.9473684 54.0707826,49.8815789 54.4609322,49.8157895 C54.8510819,49.75 55.1762067,49.6842105 55.5013314,49.6842105 C56.2166058,49.5526316 56.8018304,49.4868421 57.257005,49.4868421 C57.6471547,49.4868421 57.9072545,49.5526316 58.2323792,49.6184211 C58.7525788,49.75 59.2077535,49.6184211 59.2727784,49.2894737 C59.2727784,49.2236842 59.2727784,48.8947368 58.7525788,48.6973684 C58.4274541,48.5657895 58.0373044,48.5 57.5171048,48.5 C56.6067555,48.5 55.3712815,48.6315789 53.6806329,48.9605263 C53.7456578,48.6973684 53.8106828,48.5 53.8757077,48.2368421 C54.0057576,47.6447368 54.2008324,47.0526316 54.3959073,46.4605263 C54.786057,46.1973684 57.6471547,44.2236842 59.5979031,41.1315789 C61.2235269,38.4342105 61.1585019,37.1842105 60.7683522,36.4605263 C60.4432275,36.1315789 60.0530778,36 59.792978,36" id="Fill-62" fill="#231F20"></path>
            <path d="M75.3411019,36.7586207 C75.4698372,36.6283525 75.4698372,36.4980843 75.4698372,36.3678161 L75.4698372,36.302682 C76.0491459,36.2375479 76.564087,36.1724138 77.272131,36.1072797 C77.9158074,36.0421456 78.4951161,36.0421456 79.0100572,36.0421456 C81.3272921,36.0421456 82.7433801,36.4980843 83.1295859,36.7586207 C83.4514241,36.954023 83.8376299,36.8888889 83.9663652,36.6283525 C84.0307328,36.4980843 84.0307328,36.2375479 83.7088946,35.9118774 C83.0652183,35.3256705 81.2629245,35 78.4951161,35 L77.5296016,35 C74.1824845,35.1302682 69.3549118,36.3678161 67.8744561,36.954023 C66.3940005,37.4750958 65.8146918,37.4750958 65.3641183,37.4750958 L65.2353831,37.4750958 C65.1710154,37.4750958 65.1066478,37.5402299 65.0422802,37.605364 C64.9779125,37.7356322 64.9779125,37.9310345 65.1066478,38.1264368 C65.1710154,38.256705 65.4928536,38.6475096 66.13653,38.6475096 L66.4583682,38.6475096 C66.844574,38.5823755 67.4882503,38.3869732 68.3250296,38.0613027 C69.8054852,37.605364 71.9939849,37.0842912 74.2468521,36.6283525 C73.6675434,37.2796935 72.6376612,38.8429119 71.092838,41.4482759 C69.4192794,44.3141762 68.1319267,47.2452107 67.6169856,48.8735632 C67.3595151,49.7203065 67.1664121,50.3716475 67.1664121,50.9578544 C67.1664121,51.348659 67.2307798,51.8045977 67.6813532,51.9348659 C67.8100885,52 67.8744561,52 68.0031914,52 C68.5825001,52 68.968706,51.1532567 69.1618089,50.6321839 C69.2261765,50.4367816 69.1618089,50.1762452 69.0974412,50.045977 C69.0330736,49.9808429 68.9043383,49.9157088 68.8399707,49.9157088 C68.7756031,49.9157088 68.6468678,49.9808429 68.6468678,50.1111111 C68.6468678,50.1762452 68.5825001,50.3065134 68.5181325,50.4367816 C68.4537649,50.5670498 68.3250296,50.5670498 68.3250296,50.5670498 C68.0031914,49.9808429 70.2560587,45.0306513 71.8008819,42.4904215 C73.4100729,39.4291188 74.6974256,37.605364 75.3411019,36.7586207" id="Fill-64" fill="#231F20"></path>
            <path d="M75.8570384,46.1628524 L75.922763,46.033138 C76.1199369,45.7737092 76.1856615,45.6439948 76.44856,45.384566 C76.9743571,44.9305657 77.6316033,44.4765653 77.8945018,44.4765653 L77.9602265,44.4765653 C78.0916757,44.7359941 77.5658787,45.4494232 76.9086324,45.9034236 C76.6457339,46.0979952 76.3828354,46.1628524 76.1856615,46.1628524 C76.0542123,46.2277096 75.9884877,46.2277096 75.8570384,46.1628524 M101.489643,46.1628524 L101.555367,46.033138 C101.752541,45.7737092 101.818266,45.6439948 102.081164,45.384566 C102.606961,44.9305657 103.264208,44.4765653 103.527106,44.4765653 L103.592831,44.4765653 C103.72428,44.7359941 103.198483,45.4494232 102.541237,45.9034236 C102.278338,46.0979952 102.01544,46.1628524 101.818266,46.1628524 C101.686817,46.2277096 101.621092,46.2277096 101.489643,46.1628524 M112.860003,50.8325705 C112.597105,50.8325705 112.465655,50.7677133 112.399931,50.6379989 C112.334206,50.4434273 113.714423,49.665141 114.634568,49.2111406 C114.700293,49.5354266 114.634568,49.7948553 114.437394,50.0542841 C114.108771,50.5731417 113.3858,50.8325705 112.860003,50.8325705 M119.169567,46.1628524 L119.235292,46.033138 C119.432466,45.7737092 119.49819,45.6439948 119.761089,45.384566 C120.286886,44.9305657 120.944132,44.4765653 121.207031,44.4765653 L121.272755,44.4765653 C121.404205,44.7359941 120.878408,45.4494232 120.221161,45.9034236 C119.958263,46.0979952 119.695364,46.1628524 119.49819,46.1628524 C119.366741,46.2277096 119.235292,46.2277096 119.169567,46.1628524 M126.399276,44.2171365 C126.465001,44.2171365 126.465001,44.2171365 126.530725,44.2819937 C126.59645,44.3468509 126.59645,44.4765653 126.530725,44.6062797 C126.333552,44.9954229 125.676305,45.5142804 124.953334,45.7737092 C125.019059,45.5791376 125.216233,45.384566 125.347682,45.2548517 L125.479131,45.0602801 C125.873479,44.4117081 126.202102,44.2171365 126.399276,44.2171365 M130.868551,45.7737092 C130.802826,45.708852 130.737101,45.708852 130.671377,45.708852 C130.474203,45.708852 130.342754,45.9034236 130.14558,46.2925668 C129.948406,46.8762815 127.648044,48.8868546 125.479131,48.8868546 L125.347682,48.8868546 C124.88761,48.8868546 124.558987,48.692283 124.361813,48.4328542 C124.164639,48.1085683 124.098914,47.6545679 124.296088,47.1357103 C124.624711,47.0059959 127.056522,46.1628524 127.516595,44.6711369 C127.582319,44.3468509 127.516595,43.9577077 127.319421,43.698279 C127.122247,43.4388502 126.727899,43.3091358 126.333552,43.3091358 C125.807755,43.3091358 125.216233,43.6334218 124.75616,44.1522793 C124.296088,44.7359941 123.770291,45.5791376 123.507393,46.4871384 C122.455799,47.3951391 120.221161,48.692283 119.235292,48.7571402 L118.972393,48.7571402 C118.578046,48.7571402 118.315147,48.692283 118.315147,48.1085683 C118.380872,47.5897107 118.512321,47.3951391 118.578046,47.2654247 C118.578046,47.2005675 118.64377,47.2005675 118.64377,47.1357103 C119.038118,47.3302819 119.958263,47.1357103 120.681234,46.7465672 C121.601378,46.1628524 122.390074,44.9305657 122.324349,44.2171365 C122.324349,43.8928505 122.127175,43.698279 121.864277,43.6334218 C121.075581,43.373993 120.352611,43.6334218 119.49819,44.3468509 C118.972393,44.8008513 118.512321,45.3197088 118.183698,45.9034236 C118.117973,45.9034236 118.052249,45.9682808 117.986524,46.033138 C117.395002,46.68171 116.474858,47.2654247 115.22609,47.8491395 C115.028916,47.3951391 114.766017,46.9411387 114.503119,46.5519956 C114.174496,46.033138 113.911597,45.5791376 113.845872,45.2548517 C114.24022,44.6062797 114.437394,44.4117081 114.700293,44.1522793 L114.766017,44.0874221 C114.897467,43.8928505 114.963191,43.6334218 114.831742,43.373993 C114.700293,43.049707 114.37167,42.9199926 114.043046,43.049707 C113.780148,43.1794214 113.254351,43.5685646 112.991452,44.3468509 C112.925728,44.4765653 112.860003,44.6062797 112.860003,44.7359941 C110.953989,47.2654247 109.770946,48.2382827 108.719352,49.016569 L108.587902,49.1462834 C108.390729,48.5625686 108.062105,48.0437111 107.733482,47.5897107 C107.404859,47.1357103 107.141961,46.68171 107.141961,46.2925668 C107.141961,46.033138 107.930656,44.9954229 108.325004,44.9305657 L108.390729,44.9305657 C108.522178,44.8657085 108.587902,44.7359941 108.522178,44.5414225 C108.456453,44.2819937 108.193555,43.9577077 107.799207,43.9577077 C107.404859,43.9577077 106.28754,44.8008513 106.221816,45.9034236 L106.221816,46.2925668 C105.301671,47.2005675 102.738411,48.7571402 101.621092,48.8219974 L101.358193,48.8219974 C100.963846,48.8219974 100.700947,48.7571402 100.700947,48.1734255 C100.766672,47.6545679 100.898121,47.4599963 100.963846,47.3302819 C100.963846,47.2654247 101.02957,47.2654247 101.02957,47.2005675 C101.423918,47.3951391 102.344063,47.2005675 103.067034,46.8114243 C103.987179,46.2277096 104.775874,44.9954229 104.710149,44.2819937 C104.710149,43.9577077 104.512976,43.7631362 104.250077,43.698279 C103.461382,43.4388502 102.738411,43.698279 101.88399,44.4117081 C101.292469,44.9305657 100.898121,45.4494232 100.503773,46.033138 C100.438049,46.033138 100.438049,46.0979952 100.438049,46.0979952 C100.109426,46.6168528 98.5320345,48.1085683 97.743339,48.1085683 C97.6118898,48.1085683 97.3489913,48.0437111 97.2832666,47.6545679 C97.1518174,46.8114243 97.0860928,46.357424 97.0203681,45.7737092 C97.0203681,45.6439948 97.0203681,45.4494232 96.9546435,45.3197088 C96.8889189,44.6062797 96.6260204,44.2171365 96.1002234,44.2171365 C96.0344987,44.2171365 95.9030495,44.2171365 95.7716002,44.2819937 C94.8514555,44.6711369 93.2740644,46.4871384 92.2224704,47.6545679 C91.9595719,47.9788539 91.6309488,48.3031398 91.4994995,48.4977114 C91.5652241,47.9788539 92.2224704,46.2277096 92.6825428,45.5142804 C92.813992,45.2548517 93.0111659,45.1251373 93.1426152,44.9954229 C93.2740644,44.9305657 93.339789,44.8657085 93.4055137,44.7359941 C93.4712383,44.6062797 93.4055137,44.4117081 93.2740644,44.2819937 C93.0768905,44.0874221 92.813992,43.9577077 92.5510935,43.9577077 C92.3539196,43.9577077 92.0910211,44.0225649 91.8938473,44.3468509 C90.9737025,45.9034236 89.2648622,47.4599963 87.884645,47.9139967 C87.7531958,47.9788539 87.5560219,47.9788539 87.4245727,47.9788539 C87.0959495,47.9788539 86.7016018,47.7842823 86.7016018,47.3302819 C86.7016018,46.4871384 86.8987757,45.9682808 87.0959495,45.3197088 C87.1616742,45.1251373 87.2273988,44.8657085 87.2931234,44.6711369 C87.358848,44.3468509 87.2931234,44.0225649 87.0959495,43.8279933 C86.9645003,43.6334218 86.7673264,43.5685646 86.5701525,43.5685646 C86.5044279,43.5685646 86.3729786,43.5685646 86.307254,43.6334218 C85.1242107,43.8928505 82.7581242,46.6168528 81.4436317,48.1085683 C81.1807332,48.4328542 80.9178346,48.692283 80.85211,48.8219974 C80.7863854,48.4328542 81.3121824,46.8114243 81.7065302,46.4222812 C81.8379794,46.2277096 81.9694287,46.033138 82.1666025,45.8385664 C82.4952257,45.5142804 82.8238488,45.1251373 82.8895734,44.8008513 C82.9552981,44.6711369 82.8895734,44.5414225 82.7581242,44.4117081 C82.6266749,44.2171365 82.2980518,44.0874221 82.0351533,44.0874221 C81.903704,44.0874221 81.8379794,44.0874221 81.7065302,44.1522793 C81.377907,44.4117081 81.2464578,44.6062797 80.85211,45.4494232 L80.6549361,45.8385664 C80.5892115,46.033138 80.5234869,46.2277096 80.3920376,46.4222812 C79.4718929,47.3302819 76.9086324,48.8219974 75.8570384,48.9517118 L75.5941399,48.9517118 C75.1997921,48.9517118 74.9368936,48.8868546 74.9368936,48.3031398 C75.0026183,47.7842823 75.1340675,47.5897107 75.1997921,47.4599963 C75.1997921,47.3951391 75.2655168,47.3951391 75.2655168,47.3302819 C75.6598645,47.5248535 76.5800093,47.3302819 77.3029802,46.9411387 C78.223125,46.357424 79.0118205,45.1251373 78.9460959,44.4117081 C78.9460959,44.0874221 78.748922,43.8928505 78.4860235,43.8279933 C77.697328,43.5685646 76.9743571,43.8279933 76.1199369,44.5414225 C74.9368936,45.5791376 74.2139227,46.8762815 74.0167489,48.3031398 C73.9510242,48.7571402 74.0824735,49.1462834 74.345372,49.4057122 C74.6082705,49.7299982 75.1340675,49.9245697 75.6598645,49.9245697 C75.922763,49.9245697 76.1199369,49.8597125 76.3171108,49.8597125 C77.3687048,49.6002838 78.8803712,48.8219974 79.9976899,47.9788539 C79.800516,48.6274258 79.6690667,49.340855 79.7347914,49.8597125 C79.800516,50.1839985 80.0634145,50.3785701 80.5234869,50.3785701 C80.85211,50.3785701 81.1150085,50.2488557 81.3121824,50.1191413 C81.5093563,49.9245697 81.7065302,49.665141 82.0351533,49.2759978 C82.2980518,48.9517118 82.6923996,48.4977114 83.0867473,47.9788539 C84.5984137,46.2277096 85.8471816,45.1251373 86.1100801,44.9954229 C86.1100801,45.1251373 86.0443555,45.384566 85.9786309,45.6439948 C85.8471816,46.1628524 85.6500078,46.7465672 85.6500078,47.3302819 C85.6500078,48.4328542 86.307254,49.1462834 87.2931234,49.1462834 C87.6217465,49.1462834 87.9503697,49.0814262 88.2789928,48.9517118 C89.3963115,48.5625686 90.0535577,47.9788539 90.5136301,47.5248535 C90.2507316,48.3031398 90.1192823,49.016569 90.0535577,49.4705694 L90.0535577,49.6002838 C89.9878331,49.9245697 90.1192823,50.1191413 90.185007,50.1839985 C90.3164562,50.3785701 90.5793547,50.4434273 90.7765286,50.4434273 C90.9737025,50.4434273 91.1708764,50.3785701 91.3023256,50.3137129 C91.6309488,50.0542841 91.8938473,49.7299982 92.2224704,49.2111406 C92.4196443,48.9517118 92.6825428,48.6274258 92.9454413,48.2382827 C93.9970353,46.9411387 95.3772525,45.8385664 95.640151,45.708852 C95.7058756,45.7737092 95.7058756,46.0979952 95.7058756,46.4222812 C95.7058756,46.8114243 95.7716002,47.3951391 95.9030495,47.9788539 C96.1002234,48.8219974 96.5602957,49.2759978 97.2832666,49.2759978 C98.0062375,49.2759978 98.8606577,48.8219974 99.5179039,48.3031398 L99.5179039,48.367997 C99.4521793,48.8219974 99.5836286,49.2111406 99.8465271,49.4705694 C100.109426,49.7948553 100.635223,49.9894269 101.16102,49.9894269 C101.423918,49.9894269 101.621092,49.9245697 101.818266,49.9245697 C103.198483,49.6002838 105.301671,48.3031398 106.353265,47.3302819 C106.484714,47.6545679 106.681888,47.9788539 106.879062,48.3031398 C107.27341,48.8868546 107.602033,49.5354266 107.602033,49.8597125 C107.27341,50.1191413 106.813337,50.3137129 106.41899,50.4434273 C106.156091,50.5731417 105.827468,50.6379989 105.630294,50.7677133 C105.498845,50.8974277 105.43312,51.0271421 105.498845,51.2217137 C105.56457,51.4811424 105.958917,51.675714 106.484714,51.675714 C106.681888,51.675714 107.076236,51.675714 107.536308,51.4162852 C109.573772,50.3137129 111.742684,47.9139967 113.057177,46.357424 C113.188626,46.68171 113.3858,47.0059959 113.582974,47.2654247 C113.714423,47.4599963 113.780148,47.5897107 113.911597,47.7842823 C114.043046,48.0437111 114.174496,48.3031398 114.305945,48.5625686 C113.320075,49.0814262 112.334206,49.6002838 111.808409,50.1191413 C111.545511,50.3785701 111.414061,50.7677133 111.479786,51.1568565 C111.479786,51.4162852 111.611235,51.675714 111.808409,51.8054284 C112.005583,52 112.399931,52 112.662829,52 C113.517249,52 114.897467,51.6108568 115.423264,50.5082845 C115.620437,50.1191413 115.686162,49.6002838 115.488988,49.016569 C116.211959,48.6274258 116.869205,48.3031398 117.395002,47.9139967 C117.329278,48.1085683 117.329278,48.2382827 117.329278,48.4328542 C117.263553,48.8868546 117.395002,49.2759978 117.657901,49.5354266 C117.920799,49.8597125 118.446596,50.0542841 118.972393,50.0542841 C119.235292,50.0542841 119.432466,49.9894269 119.62964,49.9894269 C120.681234,49.7299982 122.1929,48.8868546 123.310219,48.1085683 L123.310219,48.1734255 C123.310219,49.4057122 124.03319,50.1191413 125.281957,50.1839985 L125.544856,50.1839985 C128.30529,50.1839985 130.934275,47.7194251 131,46.6168528 C131,46.1628524 131,45.9034236 130.868551,45.7737092" id="Fill-66" fill="#231F20"></path>
            <path d="M127.15,43.8181818 C127.25,43.8181818 127.35,43.9090909 127.45,43.9090909 C127.55,43.9090909 127.65,43.8181818 127.65,43.7272727 C127.65,43.6363636 127.55,43.5454545 127.45,43.5454545 C127.25,43.4545455 127.15,43.3636364 127.15,43.2727273 C127.15,43.0909091 127.25,43 127.55,43 C127.65,43 127.75,43 127.75,43.0909091 L127.75,43.1818182 C127.75,43.1818182 127.65,43.0909091 127.55,43.0909091 C127.35,43.0909091 127.35,43.1818182 127.35,43.2727273 C127.35,43.3636364 127.45,43.4545455 127.55,43.4545455 C127.75,43.5454545 127.85,43.6363636 127.85,43.7272727 C127.85,43.9090909 127.75,44 127.45,44 C127.35,44 127.25,44 127.15,43.9090909 L127.15,43.8181818 Z" id="Fill-68" fill="#231F20"></path>
            <path d="M128.666667,43.5454545 L128.666667,43.0909091 C128.666667,43.1818182 128.583333,43.3636364 128.583333,43.4545455 L128.416667,43.9090909 L128.333333,43.9090909 L128.166667,43.4545455 C128.083333,43.2727273 128.083333,43.1818182 128.083333,43.0909091 L128.083333,43.5454545 L128.083333,44 L128,44 L128.083333,43 L128.25,43 L128.416667,43.4545455 C128.416667,43.5454545 128.5,43.7272727 128.5,43.8181818 C128.5,43.7272727 128.583333,43.6363636 128.583333,43.4545455 L128.75,43 L128.916667,43 L129,44 L128.916667,44 L128.666667,43.5454545 Z" id="Fill-70" fill="#231F20"></path>
        </g>
    </g>
</svg>