<?xml version="1.0" encoding="UTF-8"?>
<svg width="50px" height="50px" viewBox="0 0 50 50" version="1.1" xmlns="http://www.w3.org/2000/svg" xmlns:xlink="http://www.w3.org/1999/xlink">
    <title>849E9D04-547A-4635-8914-75ED881A4345</title>
    <defs>
        <polygon id="path-1" points="0 0 15.9999002 0 15.9999002 16 0 16"></polygon>
    </defs>
    <g id="Icon-Enterprise/Primary/Calendar-Confirm" stroke="none" stroke-width="1" fill="none" fill-rule="evenodd">
        <g id="Icon-Calendar-Important">
            <g>
                <g id="Group-246">
                    <path d="M40.6500015,50.000011 L4.46999979,50.000011 C2.00128746,50.000011 0,47.9987217 0,45.5300098 L0,13.7200113 C0.00551795959,11.2568184 2.006809,9.26448208 4.47000074,9.27 L40.6500015,9.27 C43.1053848,9.27550846 45.0945053,11.2646232 45.1000023,13.7200113 L45.1000023,45.5300098 C45.1000023,47.990974 43.1108551,49.9890171 40.6499557,50.000011" id="Path-359" fill="#5DC1FD"></path>
                    <g id="Group-244" transform="translate(3.33, 4.3)" fill-rule="nonzero">
                        <rect id="Rectangle-146" fill="#FFFFFF" x="0.749999924" y="0.750000191" width="45.0800018" height="40.7099991" rx="4.44999981"></rect>
                        <path d="M41.3799992,42.1999998 L5.19999981,42.1999998 C2.32811975,42.1999998 0,39.8718786 0,37 L0,5.19999981 C0,2.32811928 2.32812023,0 5.20000076,0 L41.3799992,0 C44.2518787,0 46.5799999,2.32811928 46.5799999,5.19999981 L46.5799999,37 C46.5799999,39.8718786 44.2518787,42.1999998 41.3799992,42.1999998 Z M5.19999981,1.49999905 C3.15654612,1.49999905 1.5,3.15654564 1.5,5.19999981 L1.5,36.999999 C1.5,39.0434523 3.15654564,40.6999998 5.1999979,40.6999998 L41.3799992,40.6999998 C43.4234524,40.6999998 45.0799999,39.0434523 45.0799999,36.999999 L45.0799999,5.19999981 C45.0799999,3.15654516 43.4234524,1.49999905 41.3799992,1.49999905 L5.19999981,1.49999905 Z" id="Path-360" fill="#161616"></path>
                    </g>
                    <path d="M42.3300019,41.6500019 L10.9099999,41.6500019 C9.05984598,41.6500019 7.56,40.1501583 7.56,38.3000034 L7.56,13.86 L45.6800004,13.86 L45.6800004,38.2999996 C45.6800004,40.1501583 44.1801568,41.6500019 42.3300019,41.6500019 Z M9.06000048,15.36 L9.06000048,38.2999996 C9.06000048,39.3217243 9.8882733,40.1499981 10.9099999,40.1499981 L42.3300019,40.1499981 C43.3517266,40.1499981 44.1800004,39.3217281 44.1800004,38.2999996 L44.1800004,15.36 L9.06000048,15.36 Z" id="Path-361" fill="#161616" fill-rule="nonzero"></path>
                    <g id="Group-245" transform="translate(12.41, 0)" fill-rule="nonzero">
                        <rect id="Rectangle-147" fill="#FFFFFF" x="0.749999847" y="0.779999971" width="5.53999996" height="9.69999981" rx="2.54999995"></rect>
                        <path d="M3.74013599,11.2399998 L3.31013569,11.2399998 C1.48207363,11.2399998 0.000135265485,9.75806237 0.000136219159,7.92999983 L0.000136219159,3.33999992 C-0.00786987673,2.45694733 0.33732494,1.60730756 0.958941303,0.980058196 C1.58055671,0.352808955 2.42704757,0 3.31013759,0 L3.74013599,0 C5.56819805,0 7.05013546,1.48193753 7.05013546,3.31000018 L7.05013546,7.92999983 C7.05013546,9.75806332 5.56819805,11.2399998 3.74013599,11.2399998 Z M3.31013569,1.52999974 C2.31049904,1.52999974 1.50013431,2.34036446 1.50013431,3.33999968 L1.50013431,7.92999983 C1.50013431,8.9296341 2.31049904,9.73999882 3.31013473,9.73999882 L3.74013599,9.73999977 C4.22707065,9.75076294 4.69779476,9.56482983 5.04593547,9.22421456 C5.3940781,8.88360024 5.59025653,8.41705227 5.59013643,7.92999888 L5.59013643,3.33999992 C5.59013643,2.34036422 4.7797726,1.52999974 3.78013691,1.52999974 L3.31013569,1.52999974 Z" id="Path-362" fill="#161616"></path>
                    </g>
                    <rect id="Rectangle-148" fill="#FFFFFF" fill-rule="nonzero" x="34.5299988" y="0.779999971" width="5.53999996" height="9.69999981" rx="2.54999995"></rect>
                    <path d="M37.520134,11.2400007 L37.0801354,11.2400007 C35.2559815,11.2344894 33.7801285,9.7541647 33.7801361,7.92999983 L33.7801361,3.33999991 C33.7721482,2.45867825 34.1159745,1.61056173 34.7354241,0.983604193 C35.3548737,0.356646538 36.1987839,0.00262665749 37.0801392,0 L37.520134,0 C39.3442917,0.00551128387 40.8201371,1.48583579 40.8201371,3.30999994 L40.8201371,7.92999983 C40.8201371,9.75418091 39.3442765,11.234499 37.5201187,11.2400007 L37.520134,11.2400007 Z M37.0801354,1.52999961 C36.084404,1.53550172 35.2801323,2.34425688 35.2801323,3.33999991 L35.2801323,7.92999983 C35.2801323,8.92576885 36.0844345,9.73451233 37.0801621,9.73999977 L37.520134,9.73999977 C38.5158615,9.73449898 39.3201371,8.9257431 39.3201371,7.92999887 L39.3201371,3.33999991 C39.3201371,2.34422803 38.5158348,1.53548467 37.5201073,1.52999961 L37.0801354,1.52999961 Z" id="Path-363" fill="#161616" fill-rule="nonzero"></path>
                </g>
                <g id="50x50-Spacers" fill-rule="nonzero">
                    <rect id="Rectangle-149" x="0" y="0" width="50" height="50"></rect>
                </g>
            </g>
            <g id="Icon/Secondary" transform="translate(19.0001, 20)">
                <g id="Group-6" transform="translate(0, 0)">
                    <g id="Group-3">
                        <mask id="mask-2" fill="white">
                            <use xlink:href="#path-1"></use>
                        </mask>
                        <g id="Clip-2"></g>
                        <path d="M7.99800021,15.9999998 C12.4160002,16.001 15.9990002,12.42 16,8.002 C16.0010002,3.583 12.4200002,0.001 8.00100021,-2.09387736e-07 C3.58300021,-0.001 0.00100020939,3.58 0,7.998 C-0.000999790612,12.417 3.58000021,15.999 7.99800021,15.9999998" id="Fill-1" fill="#5DC1FD" mask="url(#mask-2)"></path>
                    </g>
                    <path d="M6.97790021,10.8218 L4.40690021,8.7508 C4.07590021,8.4838 4.02290021,7.9998 4.28990021,7.6688 C4.55690021,7.3368 5.04290021,7.2848 5.37190021,7.5518 L7.34990021,9.1438 L10.5149002,5.2898 C10.7849002,4.9608 11.2699002,4.9128 11.5989002,5.1828 C11.9269002,5.4528 11.9749002,5.9378 11.7059002,6.2668 L8.05590021,10.7108 C7.90290021,10.8958 7.68290021,10.9918 7.45990021,10.9918 C7.29090021,10.9918 7.11990021,10.9358 6.97790021,10.8218 Z" id="Fill-4" fill="#FFFFFF"></path>
                </g>
            </g>
        </g>
    </g>
</svg>