<?xml version="1.0" encoding="UTF-8"?>
<svg width="50px" height="50px" viewBox="0 0 50 50" version="1.1" xmlns="http://www.w3.org/2000/svg" xmlns:xlink="http://www.w3.org/1999/xlink">
    <title>Icon-Enterprise/Primary/Mobile-Call</title>
    <g id="Icon-Enterprise/Primary/Mobile-Call" stroke="none" stroke-width="1" fill="none" fill-rule="evenodd">
        <g id="Icon-Phone-Call">
            <g id="Phone" transform="translate(4.65, 0)" fill-rule="nonzero">
                <g id="Stroke-8" transform="translate(0, 4.08)" fill="#5DC1FD">
                    <path d="M27.0799999,4 C27.0799999,1.79086113 25.2891388,0 23.0799999,0 L4,0 C1.79086113,0 0,1.79086161 0,4 L0,41.9200001 C0,44.129137 1.79086065,45.9200001 4,45.9200001 L23.1000004,45.9200001 C25.3091393,45.9200001 27.1000004,44.129137 27.1000004,41.9200001 L27.0799999,4 Z" id="Path-803"></path>
                </g>
                <g id="Stroke-8" transform="translate(3.62, 0)">
                    <path d="M27.8299985,4.73 C27.8299985,2.52086089 26.0391354,0.73 23.8299985,0.73 L4.73,0.73 C2.52086113,0.73 0.73,2.52086161 0.73,4.73 L0.73,42.6399994 C0.73,44.8491363 2.52086113,46.6399994 4.73,46.6399994 L23.8299985,46.6399994 C26.0391393,46.6399994 27.8299985,44.8491363 27.8299985,42.6399994 L27.8299985,4.73 Z" id="Path-804" fill="#FFFFFF"></path>
                    <path d="M23.8499985,47.3699989 L4.72999954,47.3699989 C2.11769295,47.3699989 0,45.2523079 0,42.6399994 L0,4.73000002 C0.00549983978,2.11997414 2.11997414,0.00550031662 4.72999954,0 L23.829998,0 C26.443924,0.00551366806 28.5600014,2.12607002 28.5600014,4.74000025 L28.5600014,42.6399994 C28.5600014,45.2445564 26.4544487,47.3590088 23.8499527,47.3699989 L23.8499985,47.3699989 Z M4.72999954,1.49000001 C2.95232391,1.50646019 1.5199995,2.95224786 1.5199995,4.7300005 L1.5199995,42.6399994 C1.5199995,44.4161568 2.95399857,45.8590355 4.73006248,45.8699989 L23.829998,45.8699989 C25.6138763,45.8699989 27.0599976,44.4238777 27.0599976,42.6399994 L27.0599976,4.73000002 C27.0599976,2.9444809 25.6154785,1.49550343 23.8299828,1.49000001 L4.72999954,1.49000001 Z" id="Path-805" fill="#161616"></path>
                </g>
                <path d="M27.2000455,41 L8.65004528,41 C7.92016208,40.9729729 7.34413421,40.3703576 7.35,39.6399994 L7.35,6.1399999 C7.34428298,5.41140417 7.92174995,4.81172661 8.65004528,4.79 L27.2000455,4.79 C27.94563,4.79 28.5500458,5.39441494 28.5500458,6.13999943 L28.5500458,39.6399994 C28.5500458,40.3872567 27.9472054,40.9945259 27.2000073,41 L27.2000455,41 Z M8.80004489,39.5 L27.0500458,39.5 L27.0500458,6.29 L8.80004489,6.29 L8.80004489,39.5 Z" id="Path-806" fill="#161616"></path>
                <path d="M21.0400014,44.08 L14.81,44.08 C14.3957868,44.08 14.06,43.7442151 14.06,43.33 C14.06,42.9157849 14.3957868,42.58 14.81,42.58 L21.0399995,42.58 C21.4542146,42.58 21.7900014,42.9157849 21.7900014,43.33 C21.7900014,43.7442151 21.4542146,44.08 21.0400014,44.08 Z" id="Path-807" fill="#161616"></path>
            </g>
            <g id="Icon/Secondary" transform="translate(26.49, 9.8)">
                <path d="M10,20 C15.5228462,20 20,15.5228481 20,10 C20,4.47715187 15.5228462,0 10,0 C4.47715187,0 0,4.47715282 0,10 C0,15.5228443 4.47715187,20 10,20" id="Fill-11" fill="#5DC1FD"></path>
                <path d="M5.95033033,4.35982053 C6.13338621,4.29458348 6.32043608,4.24113957 6.51032789,4.19982068 C7.51033171,4.01982037 7.76033171,4.48982064 8.12033232,5.44982068 C8.31033094,5.93982045 8.77033384,7.28982083 8.5803314,7.54982106 C7.96033247,8.35982053 7.37033232,8.60982053 7.8303314,9.31982152 C8.17574842,9.89001576 8.57059629,10.428754 9.01033171,10.9298221 C9.71033247,11.6198227 10.690332,12.6598217 11.2903305,12.2898227 C11.6381698,12.063388 11.9721046,11.8162796 12.2903305,11.549823 C12.6003319,11.299823 13.0003296,11.4598228 13.3603302,11.549823 C13.8803306,11.7098228 14.5003296,11.9498226 15.0003296,12.1398231 C16.4403282,12.679824 15.6503311,14.1398231 14.8403297,14.8898231 C13.5403305,16.0798237 11.7003303,15.5298225 10.3303314,14.759824 C7.26033171,13.049823 3.72033079,9.44982449 4.63033064,5.57982365 C4.75891264,4.93003957 5.27684934,4.42803685 5.93033369,4.31982438" id="Path-808" fill="#FFFFFF" fill-rule="nonzero"></path>
            </g>
            <g id="50x50-Spacers" fill-rule="nonzero">
                <rect id="Rectangle-272" x="0" y="0" width="50" height="50"></rect>
            </g>
        </g>
    </g>
</svg>