<?xml version="1.0" encoding="UTF-8"?>
<svg width="24px" height="24px" viewBox="0 0 24 24" version="1.1" xmlns="http://www.w3.org/2000/svg" xmlns:xlink="http://www.w3.org/1999/xlink">
    <title>51660232-44B9-4211-9BA5-7D179C7B05D6</title>
    <g id="Icon-App/Label/Care-Management" stroke="none" stroke-width="1" fill="none" fill-rule="evenodd">
        <g id="24x24-Spacers">
            <rect id="Rectangle" x="0" y="0" width="24" height="24"></rect>
        </g>
        <path d="M11.3430053,3.53689447 C10.9053143,3.62646008 10.5705069,3.84947844 10.3185294,4.22117571 C10.0438827,4.62332528 9.95756513,5.05861413 10.0517297,5.55212063 C10.1145061,5.87724378 10.2670876,6.16116675 10.5164494,6.41822005 L13.5183817,9.50017258 L16.5176983,6.42180267 C16.8106548,6.12086223 16.9702115,5.78319989 17.0059591,5.38911122 C17.0530414,4.86515242 16.9170259,4.4334462 16.5891936,4.06980983 C16.1881222,3.62466877 15.7268901,3.44643321 15.13313,3.52435529 C14.8523801,3.55839022 14.5977869,3.6667646 14.3771976,3.84410451 C14.3022147,3.90500912 14.2298475,3.97128767 14.1583522,4.03846187 L14.0258242,4.15847979 C13.7363553,4.41463742 13.309127,4.41642873 13.0187862,4.16385372 L12.872308,4.03398359 C12.7938375,3.96233111 12.715367,3.88978297 12.6307932,3.82619138 C12.3343492,3.60854696 12.0239548,3.50017258 11.6882754,3.50017258 C11.576673,3.50017258 11.4615829,3.51271176 11.3430053,3.53689447 Z M12.6042607,11.0958672 L9.05564299,7.52035138 C8.54625383,7.00778413 8.21933243,6.40228414 8.08628302,5.72205471 C7.89526209,4.74386563 8.09008444,3.80112512 8.64889195,2.99538857 C9.16873499,2.24330392 9.92046414,1.74989807 10.8185476,1.56978098 C11.7803048,1.38008319 12.7116506,1.57936168 13.5146988,2.15228731 C13.978471,1.81217259 14.5040162,1.60522955 15.0780294,1.53624854 C16.2536159,1.39637038 17.3028055,1.78055629 18.1020523,2.65335772 C18.7834553,3.39394553 19.0932704,4.33572797 18.9982351,5.3752335 C18.9222069,6.19629917 18.5791295,6.91964173 17.9785064,7.52418366 L14.427988,11.1006575 C14.1010666,11.4311916 13.7532374,11.5001726 13.5194506,11.5001726 C13.2837631,11.5001726 12.9340332,11.4302335 12.6042607,11.0958672 Z M4.00000581,17.5008155 L7.48598073,20.3811442 L7.85537832,20.0332308 C8.06451311,19.8234505 8.32966615,19.7124457 8.62376196,19.7124457 L14.4580625,19.7133864 C14.5981081,19.7133864 14.7381537,19.7133864 14.8772657,19.7020978 C15.1536224,19.6795205 15.4159745,19.6089666 15.656853,19.4941989 C15.9686879,19.3455653 16.2525137,19.1169706 16.5260694,18.794304 C17.7883473,17.3070274 18.7948042,16.2492068 20.0617502,14.765693 C20.1849904,14.6208223 20.2260704,14.4975881 20.209265,14.3216737 C20.1905922,14.1325892 19.9655856,13.9209274 19.7592517,13.9265718 C19.5827942,13.9340975 19.4660895,13.9924221 19.3400485,14.1391742 C18.4120128,15.2106531 17.7397981,15.8517352 16.808028,16.9194512 L16.6595796,17.0897213 C16.5101976,17.2609322 16.3962938,17.3898107 16.2683855,17.5008155 C15.8417132,17.8771031 15.3020707,18.074654 14.7082773,18.074654 L11.8774885,18.0737133 C11.7635847,18.0737133 11.6524819,18.0624247 11.5479145,18.0389067 C11.1800613,17.9561235 10.8756955,17.7171808 10.7067071,17.3794628 C10.539586,17.0445668 10.529316,16.6579313 10.6796316,16.3183318 C10.8897001,15.8404466 11.3238415,15.5657567 11.8709531,15.5657567 L14.356296,15.5666974 C14.5103462,15.5666974 14.590639,15.5290686 14.641989,15.4961435 C14.8100438,15.3898422 14.8343184,15.2176907 14.8361856,15.1499589 C14.8389865,15.0812864 14.8277829,14.9100756 14.6699982,14.7924857 C14.6093117,14.7463905 14.5215498,14.701236 14.3320214,14.701236 L11.1529858,14.7002953 C10.9998693,14.7002953 10.8439518,14.6720737 10.7039062,14.6222156 C10.3537922,14.4933371 10.0186163,14.4086724 9.67597138,14.3625772 C9.08124431,14.2835568 8.4827827,14.329652 7.89739201,14.4971 C7.16635388,14.7059396 6.53054676,15.0878715 5.95449245,15.66171 L4.00000581,17.5008155 Z M7.08603354,22.3050244 L2.30583169,18.2560445 C2.11104788,18.090462 1.99907071,17.8430622 2.00000581,17.5830002 C2.00095268,17.3219642 2.11669379,17.0755385 2.31335957,16.912878 C2.31994646,16.9080079 2.35852683,16.8768394 2.36511372,16.8709953 L4.94247058,14.2382331 C5.71690092,13.4453849 6.6174232,12.8931185 7.61674886,12.59994 C8.4278776,12.3603323 9.25782603,12.2960474 10.0849515,12.4090331 C10.5262733,12.470396 10.9723,12.5824077 11.4107988,12.7431202 L14.5583924,12.7440942 C15.068406,12.7440942 15.5172557,12.8901964 15.8927085,13.1785048 C16.3312074,13.51454 16.6200897,14.0112876 16.7076012,14.559658 C17.3906445,13.8411816 17.5602519,13.6390303 18.1934967,12.939009 C18.650374,12.4339534 19.1664748,12.155901 19.8044624,12.1296026 C20.8922406,12.0633696 21.8830974,12.9818656 21.9884877,14.0951647 C22.0496517,14.7497027 21.8671007,15.3399557 21.4436576,15.8493655 C20.1686235,17.383439 19.3103647,18.2940311 18.0390945,19.8320006 C17.6071825,20.3550466 17.1404541,20.7349124 16.6097388,20.9949744 C16.1844138,21.2043876 15.7233313,21.3319836 15.2415472,21.3719182 C15.0561732,21.3865284 14.8717402,21.3884764 14.6873073,21.3884764 L9.04328154,21.3875024 L8.20015932,22.2504796 C8.03830997,22.4160621 7.82658843,22.4998274 7.61392591,22.4998274 C7.42761095,22.4998274 7.24035501,22.4345684 7.08603354,22.3050244 Z" id="Fill-1" fill="#005EB9" transform="translate(12, 12) scale(-1, 1) translate(-12, -12)"></path>
    </g>
</svg>