<?xml version="1.0" encoding="UTF-8"?>
<svg width="192px" height="56px" viewBox="0 0 192 56" version="1.1" xmlns="http://www.w3.org/2000/svg" xmlns:xlink="http://www.w3.org/1999/xlink">
    <title>Logos/Vendors/CareTN</title>
    <defs>
        <path d="M12.4440593,0 C5.57344791,0 0,5.57095935 0,12.4440593 L0,12.4440593 L0,43.5486082 C0,50.4195307 5.57158149,55.9926675 12.4440593,55.9926675 L12.4440593,55.9926675 L43.5489193,55.9926675 C50.4192196,55.9926675 55.9926675,50.4213971 55.9926675,43.5486082 L55.9926675,43.5486082 L55.9926675,12.4440593 C55.9926675,5.57344791 50.4213971,0 43.5489193,0 L43.5489193,0 L12.4440593,0 Z" id="path-1"></path>
    </defs>
    <g id="Logos/Vendors/CareTN" stroke="none" stroke-width="1" fill="none" fill-rule="evenodd">
        <g id="CareTN" transform="translate(6, 0)">
            <g id="Group-17">
                <path d="M6.46074505,16.0330026 C6.46074505,10.7463616 10.747917,6.46074505 16.0330026,6.46074505 L39.9596027,6.46074505 C45.2462437,6.46074505 49.5318602,10.747917 49.5318602,16.0330026 L49.5318602,39.9596027 C49.5318602,45.2462437 45.2446883,49.5318602 39.9596027,49.5318602 L16.0330026,49.5318602 C10.7463616,49.5318602 6.46074505,45.2446883 6.46074505,39.9596027 L6.46074505,16.0330026 Z" id="Stroke-1" stroke="#005BE7" stroke-width="0.40425"></path>
                <g id="Group-5">
                    <mask id="mask-2" fill="white">
                        <use xlink:href="#path-1"></use>
                    </mask>
                    <g id="Clip-4"></g>
                    <path d="M12.4440593,0 C5.57344791,0 0,5.57095935 0,12.4440593 L0,12.4440593 L0,43.5486082 C0,50.4195307 5.57158149,55.9926675 12.4440593,55.9926675 L12.4440593,55.9926675 L43.5489193,55.9926675 C50.4192196,55.9926675 55.9926675,50.4213971 55.9926675,43.5486082 L55.9926675,43.5486082 L55.9926675,12.4440593 C55.9926675,5.57344791 50.4213971,0 43.5489193,0 L43.5489193,0 L12.4440593,0 Z" id="Fill-3" fill="#005EB9" mask="url(#mask-2)"></path>
                </g>
                <path d="M0.125734646,45.3036984 C0.979000684,51.3434408 6.16734347,55.9923875 12.4441215,55.9923875 L43.5486704,55.9923875 C49.823582,55.9923875 55.0134802,51.3449961 55.8670573,45.3036984 L0.125734646,45.3036984 Z" id="Fill-6" fill="#FFFFFF"></path>
                <g id="Group-11" transform="translate(5.2391, 30.7796)" fill="#FFFFFF">
                    <path d="M33.4774142,9.87198273 L33.4774142,1.95925797 L36.386792,1.95925797 L36.386792,0.374103711 L28.6501955,0.374103711 L28.6501955,1.95925797 L31.5204337,1.95925797 L31.5204337,9.87198273 L33.4774142,9.87198273 Z M39.4926506,9.87198273 L39.4926506,3.62269145 L43.3022395,9.87198273 L45.25922,9.87198273 L45.25922,0.374103711 L43.3087627,0.374103711 L43.3087627,6.63644152 L39.4926506,0.374103711 L37.5356701,0.374103711 L37.5356701,9.87198273 L39.4926506,9.87198273 Z" id="TN" fill-rule="nonzero"></path>
                    <path d="M6.1559894,3.34266893 C6.11394824,2.99470561 5.98888239,1.57403165 4.52643169,1.57403165 C2.92463701,1.57403165 2.25594457,3.24536612 2.25594457,5.32018996 C2.25594457,5.91934261 2.25594457,8.77443984 4.35932468,8.77443984 C5.2646639,8.77443984 6.12796196,8.20331463 6.16973871,6.86619417 L8.43996141,6.86619417 C8.39818466,7.46534682 8.34239419,8.39818466 7.5346222,9.2339841 C6.6432967,10.153337 5.51532441,10.3622208 4.59623588,10.3622208 C1.12797229,10.3622208 0,7.79956083 0,5.30644065 C0,2.11712942 1.782651,0 4.60998519,0 C6.8104037,0 8.35640791,1.33712045 8.35640791,3.34266893 L6.1559894,3.34266893 Z" id="Fill-40"></path>
                    <path d="M11.1348527,7.95254835 C11.1348527,8.42610634 11.455053,8.9554548 12.1374948,8.9554548 C12.5137499,8.9554548 12.8202009,8.77433407 13.0150709,8.551701 C13.377048,8.10590605 13.4050754,7.56254387 13.4050754,6.81056235 C12.0819687,6.69951022 11.1348527,7.11701333 11.1348527,7.95254835 L11.1348527,7.95254835 Z M13.6697497,10.1254682 C13.5999455,9.69368701 13.5999455,9.37348672 13.5999455,9.16433855 C12.8202009,10.2925753 11.8870987,10.2925753 11.4970942,10.2925753 C10.480174,10.2925753 10.0206298,9.99987358 9.74220621,9.73519935 C9.3244387,9.31743184 9.12930425,8.74657104 9.12930425,8.18945955 C9.12930425,7.63234806 9.3244387,6.60167859 10.6197824,6.00305476 C11.4830805,5.61278587 12.7223693,5.61278587 13.4050754,5.61278587 C13.4050754,5.1532416 13.3910617,4.93034413 13.3075082,4.67968362 C13.1263875,4.16434888 12.5832897,4.0948091 12.3884197,4.0948091 C12.0959824,4.0948091 11.7895314,4.22013935 11.6084107,4.48481358 C11.455053,4.72146037 11.455053,4.94435785 11.455053,5.11172926 L9.43575523,5.11172926 C9.44950454,4.73547409 9.4915457,3.98349257 10.2295135,3.45414411 C10.8704429,2.99459984 11.6919642,2.8830189 12.3603922,2.8830189 C12.9452668,2.8830189 14.1710707,2.98058612 14.8675261,3.78835812 C15.3410841,4.35948333 15.3548334,5.19501835 15.3548334,5.51521865 L15.3688472,8.34281725 C15.3688472,8.94144108 15.4106239,9.54032932 15.5359542,10.1254682 L13.6697497,10.1254682 Z" id="Fill-42"></path>
                    <path d="M17.0264852,4.81886895 C17.0264852,4.48465494 16.9709591,3.46826359 16.928918,3.06424539 L18.8649267,3.06424539 L18.9067034,4.41537956 C19.1711132,3.81622691 19.6309219,2.96667817 21.3022564,3.05023167 L21.3022564,4.90242245 C19.2131544,4.70755241 19.0878241,5.77999864 19.0878241,6.65731042 L19.0878241,10.1253096 L17.0264852,10.1253096 L17.0264852,4.81886895 Z" id="Fill-44"></path>
                    <path d="M26.3718651,5.83570979 C26.3718651,5.51524509 26.3441021,4.26194255 25.1463256,4.26194255 C24.2409864,4.26194255 23.8649957,5.01418848 23.8232189,5.83570979 L26.3718651,5.83570979 Z M23.7536791,7.13105349 C23.7536791,7.59086216 23.7536791,9.01127171 25.1881024,9.01127171 C25.7034371,9.01127171 26.2187719,8.81587285 26.4136419,8.03639271 L28.2941245,8.03639271 C28.2660971,8.37060672 28.1962929,8.96949496 27.6254321,9.5683832 C27.1100974,10.111481 26.1910088,10.3899045 25.1603394,10.3899045 C24.5614511,10.3899045 23.4192007,10.2788524 22.6812329,9.51232832 C22.0405679,8.84390029 21.7758937,7.89704873 21.7758937,6.76881204 C21.7758937,5.62682603 22.0545816,4.26194255 23.23808,3.44015683 C23.7814422,3.07817979 24.4498702,2.85554672 25.2158654,2.85554672 C26.2187719,2.85554672 27.4165483,3.24528679 28.0572133,4.55437981 C28.5307713,5.51524509 28.5030083,6.54617897 28.4749808,7.13105349 L23.7536791,7.13105349 Z" id="Fill-46"></path>
                </g>
                <path d="M26.0185483,21.9898137 C25.552876,21.9898137 25.2162978,21.6566573 25.2162978,21.1894296 C25.2162978,20.7262458 25.552876,20.3902898 26.0185483,20.3902898 C26.481421,20.3902898 26.8158217,20.7262458 26.8158217,21.1894296 C26.8158217,21.6566573 26.481421,21.9898137 26.0185483,21.9898137 M26.0185483,20.2391096 C25.4925283,20.2391096 25.0648065,20.6671424 25.0648065,21.1894296 C25.0648065,21.7151385 25.4925283,22.141616 26.0185483,22.141616 C26.5423908,22.141616 26.967624,21.7151385 26.967624,21.1894296 C26.967624,20.6671424 26.5423908,20.2391096 26.0185483,20.2391096" id="Fill-8" fill="#FFFFFF"></path>
                <path d="M25.993165,21.1164525 L25.7996792,21.1164525 L25.7996792,20.7658762 L26.1001732,20.7658762 C26.2305117,20.7658762 26.3580505,20.7854736 26.3580505,20.9382092 C26.3580505,21.1422713 26.1449673,21.1164525 25.993165,21.1164525 M26.5098529,20.9410088 C26.5098529,20.7462787 26.4137321,20.6383373 26.130347,20.6383373 L25.6621861,20.6383373 L25.6621861,21.7273947 L25.7996792,21.7273947 L25.7996792,21.2439913 L26.032982,21.2439913 L26.3396974,21.7273947 L26.497099,21.7273947 L26.1735858,21.2439913 C26.3624055,21.2281267 26.5098529,21.1488038 26.5098529,20.9410088" id="Fill-10" fill="#FFFFFF"></path>
                <path d="M18.0955236,13.9991934 C18.0675273,13.9991934 18.0410863,14.0122584 18.0205557,14.0402547 L16.253987,16.7459448 C16.8164023,16.9979118 17.4391651,17.1366492 18.0955236,17.1366492 C18.75126,17.1366492 19.3734007,16.9979118 19.9370603,16.7459448 L18.1692473,14.0402547 C18.1480945,14.0122584 18.1213425,13.9991934 18.0955236,13.9991934" id="Fill-12" fill="#FFFFFF"></path>
                <path d="M16.3685231,11.7800796 L13.6973618,11.534645 C13.613995,11.8789999 13.5695119,12.2413969 13.5695119,12.6090821 C13.5695119,13.7373344 13.9804359,14.765733 14.6604357,15.5589625 L16.5309019,11.9872524 C16.5763181,11.8774446 16.5607646,11.7946999 16.3685231,11.7800796" id="Fill-14" fill="#FFFFFF"></path>
                <path d="M16.8380216,8.26230912 C15.9769789,8.509299 15.2220111,9.0070116 14.656174,9.66865829 L17.0203089,9.66865829 C17.0623034,9.65745976 17.0859447,9.60644421 17.0377288,9.56071687 C16.786695,9.28604173 16.5714343,8.7046512 16.8380216,8.26230912" id="Fill-16" fill="#FFFFFF"></path>
                <path d="M21.5349043,9.66850275 C20.9684452,9.00685607 20.2131663,8.50945454 19.3530567,8.26215359 C19.619644,8.70480673 19.4025169,9.28588619 19.1505499,9.56025026 C19.1048226,9.60659975 19.1275307,9.65761529 19.1698363,9.66850275 L21.5349043,9.66850275 Z" id="Fill-18" fill="#FFFFFF"></path>
                <path d="M19.8211243,11.7800796 C19.6288828,11.7946999 19.6139515,11.8774446 19.6575013,11.9872524 L21.5285896,15.5589625 C22.2098337,14.765733 22.6207577,13.7373344 22.6207577,12.6090821 C22.6207577,12.2413969 22.5772079,11.8789999 22.4916635,11.534645 L19.8211243,11.7800796 Z" id="Fill-20" fill="#FFFFFF"></path>
                <path d="M21.3372813,16.7459759 L21.340081,16.7528195 L18.9246195,12.2180355 C18.7485537,11.8319972 18.8266323,11.1911922 19.488279,11.0991154 L23.0148839,10.7575601 L23.015506,10.7575601 L23.0148839,10.7575601 C23.2323221,11.3336625 23.3495956,11.9595361 23.3495956,12.6121617 C23.3495956,14.2891421 22.5635208,15.7844574 21.3372813,16.7459759 L21.3372813,16.7459759 Z M20.9857718,17.0060308 L20.9829722,17.002609 C20.1552139,17.5485375 19.1619662,17.8658293 18.095617,17.8658293 C17.0270902,17.8658293 16.03602,17.5485375 15.2067064,17.002609 L15.20484,17.0060308 L15.20484,17.0016758 L15.2067064,17.002609 L17.7671266,13.1758212 C17.9565685,12.9089228 18.2424422,12.9297646 18.4234851,13.1758212 L20.9829722,17.002609 C20.9842165,17.002609 20.9842165,17.0016758 20.9857718,17.0016758 L20.9857718,17.0060308 Z M12.840394,12.6121617 C12.840394,11.9595361 12.9582897,11.3336625 13.1757279,10.7575601 L13.1751058,10.7575601 L13.1757279,10.7575601 L16.7007774,11.0991154 C17.3633573,11.1911922 17.4392585,11.8319972 17.264748,12.2180355 L14.8489755,16.7528195 L14.8527083,16.7459759 C13.62678,15.7844574 12.840394,14.2891421 12.840394,12.6121617 L12.840394,12.6121617 Z M18.095617,7.35507237 C20.2024966,7.35507237 22.021014,8.59530996 22.8587265,10.3886307 L19.1177942,10.3886307 C18.5843085,10.3755657 18.3485172,10.0632511 18.3376297,9.80910656 C18.3248758,9.50861258 18.3721585,9.41124755 18.621948,9.09115614 C18.8916461,8.73062557 18.705626,8.03693864 18.095617,8.02636224 C17.4843637,8.03693864 17.2970993,8.73062557 17.5689748,9.09115614 C17.8165868,9.41124755 17.8644917,9.50861258 17.8520489,9.80910656 C17.8420946,10.0632511 17.6066143,10.3755657 17.0721954,10.3886307 L13.3318852,10.3886307 C14.1689756,8.59530996 15.9868709,7.35507237 18.095617,7.35507237 L18.095617,7.35507237 Z M22.3193305,8.34209867 L22.3193305,3.02155098 L13.8398632,3.02155098 L13.8398632,8.34209867 L8.52024868,8.34209867 L8.52024868,16.8492513 L13.8398632,16.8492513 L13.8398632,22.169799 L22.3193305,22.169799 L22.3193305,16.8492513 L27.6395671,16.8492513 L27.6395671,8.34209867 L22.3193305,8.34209867 Z" id="Fill-22" fill="#FFFFFF"></path>
                <path d="M44.2507874,21.9965017 C43.7947582,21.9965017 43.4637793,21.6698778 43.4637793,21.2101158 C43.4637793,20.7553309 43.7947582,20.4277738 44.2507874,20.4277738 C44.7055723,20.4277738 45.0325072,20.7553309 45.0325072,21.2101158 C45.0325072,21.6698778 44.7055723,21.9965017 44.2507874,21.9965017 M44.2507874,20.2809486 C43.7350327,20.2809486 43.3157098,20.6974718 43.3157098,21.2101158 C43.3157098,21.7274258 43.7350327,22.1455044 44.2507874,22.1455044 C44.7649867,22.1455044 45.1827542,21.7274258 45.1827542,21.2101158 C45.1827542,20.6974718 44.7649867,20.2809486 44.2507874,20.2809486" id="Fill-24" fill="#FFFFFF"></path>
                <path d="M44.2260262,21.1389429 L44.0372065,21.1389429 L44.0372065,20.7964544 L44.3299237,20.7964544 C44.45964,20.7964544 44.5840682,20.8160518 44.5840682,20.9653656 C44.5840682,21.1647617 44.3762732,21.1389429 44.2260262,21.1389429 M44.7324487,20.9659877 C44.7324487,20.7756127 44.6391276,20.6723373 44.3607196,20.6723373 L43.9003355,20.6723373 L43.9003355,21.7386866 L44.0372065,21.7386866 L44.0372065,21.2658596 L44.2664653,21.2658596 L44.5663372,21.7386866 L44.720317,21.7386866 L44.402092,21.2658596 C44.5890453,21.2490618 44.7324487,21.1712942 44.7324487,20.9659877" id="Fill-26" fill="#FFFFFF"></path>
                <path d="M43.7779604,13.2045019 C42.7657374,16.1721133 41.185811,18.8043908 38.2213103,20.6418835 C38.2228656,20.6418835 38.2241099,20.6418835 38.2253542,20.644061 L38.2197549,20.644061 C38.2197549,20.644061 38.220066,20.6418835 38.2213103,20.6418835 C35.2577428,18.8043908 33.6787496,16.1721133 32.6668377,13.2045019 C31.7678443,10.5641366 31.5482286,7.47427454 32.5358771,5.06534556 C34.0181274,5.57425669 34.8869469,5.73134723 35.6938635,5.85608645 C36.4463427,5.97398212 37.1166994,6.04615045 38.2197549,6.06014862 L38.2253542,6.06014862 C39.3259212,6.04615045 39.9972111,5.97398212 40.7503124,5.85608645 C41.5559847,5.73134723 42.4254264,5.57425669 43.9076768,5.06534556 C44.8950141,7.47427454 44.6763316,10.5641366 43.7779604,13.2045019 M44.7391679,3.03125638 C42.6808152,4.06992036 40.6286839,4.6270474 38.2219324,4.63482416 C35.8148699,4.64104557 33.7624275,4.05841075 31.7043859,3.02130212 C30.3502966,5.68095383 30.1387687,10.004832 31.3065269,13.6163591 C32.4332238,17.0950591 34.61756,20.2636219 38.2219324,22.2554056 C41.8263049,20.2636219 44.01033,17.0950591 45.1364047,13.6163591 C46.3054072,10.004832 46.0910797,5.69339665 44.7391679,3.03125638" id="Fill-28" fill="#FFFFFF"></path>
                <path d="M37.2330086,8.22526064 C37.3331733,8.29774004 37.3132648,8.42279033 37.4576014,8.39883791 C37.5313251,8.38701724 37.5764303,8.34004561 37.6420662,8.29307398 C37.6513983,8.28654151 37.7279216,8.29774004 37.7481411,8.3055168 C37.5888731,8.14282699 37.2697149,8.14282699 37.0584981,8.13598344 C37.1126244,8.23925881 37.1704835,8.18326614 37.2330086,8.22526064" id="Fill-30" fill="#FFFFFF"></path>
                <polygon id="Fill-32" fill="#231F20" points="38.2195372 19.9141033 38.2220258 19.9141033 38.2238922 19.9141033"></polygon>
                <path d="M40.3487517,8.55608399 C40.3039576,8.70446455 40.2678734,8.70228706 40.1720637,8.79311961 C39.9701791,8.97571792 39.7026585,9.16515978 39.4416705,9.41494929 C39.2743146,9.57390625 39.1131802,9.66847165 38.9946624,9.86164635 C38.966355,9.9051962 38.9060073,10.0249583 38.9060073,10.0249583 C38.4596213,9.93537003 38.0063918,9.92603792 37.6589262,9.85698029 L37.6424394,9.47623015 C37.6424394,9.47623015 38.0882033,9.47000875 38.1323753,9.20217715 C38.1329974,9.18880113 38.1242874,9.10854497 38.073894,9.06966117 C38.0129243,9.02455597 37.8797861,8.97571792 37.8471237,8.96420832 C38.1852572,9.01740135 38.4823294,9.1418295 38.8291729,9.29207649 C38.8506368,9.25723661 38.794022,9.12689812 38.7672699,9.09921286 C38.7196761,9.04446447 38.6649278,9.00402533 38.5448546,8.97571792 C38.3336378,8.92003632 37.826282,8.85844439 37.826282,8.85844439 C37.826282,8.85844439 38.0091914,8.8509787 38.2552481,8.8425798 C38.3622563,8.82360451 38.4736195,8.7806768 38.4969498,8.74614798 C38.5221465,8.6913996 38.4888619,8.6074106 38.4132718,8.52715444 C38.3638116,8.47365034 38.3127961,8.42325694 38.2714237,8.36788641 C38.2197861,8.29602915 38.1529059,8.16071354 38.0617623,8.07827989 C37.9488438,7.94514177 37.6079106,7.81480328 37.6079106,7.81480328 C37.6079106,7.81480328 37.5808475,7.58896619 37.636218,7.47666978 C37.6775904,7.39516935 37.8601887,7.38583723 37.9177367,7.41321143 C38.1715701,7.55537059 38.4596213,7.71152792 38.8005544,7.77280878 C38.8714785,7.82444646 38.873656,7.83999998 38.895742,7.94514177 C38.9436468,8.17253421 38.8549918,8.50786808 38.9016523,8.6662029 C38.9237383,8.71721844 38.9747539,8.71566309 39.0136376,8.69264388 C39.3309294,8.52311053 39.5449459,8.22821581 39.8662815,8.09165592 C40.0162175,8.02757542 40.4458057,8.2440804 40.3487517,8.55608399 L40.3487517,8.55608399 Z M38.939914,12.9138689 C38.939914,12.9138689 38.979731,12.2410236 38.984086,11.9165772 C39.1626404,11.8453421 39.2021463,11.6705206 39.1352662,11.5268061 C39.0976267,11.4459278 38.962,11.3902462 38.8839213,11.3706487 C38.5137476,11.2773276 38.1743698,11.2583523 37.7917532,11.217291 C37.4573526,11.181518 37.1920095,11.1379681 36.8834277,11.0574009 C36.2541324,10.8978218 35.7206467,10.6057267 35.4419276,10.0333572 C35.0963284,9.3266053 35.4045992,8.44596507 36.0842879,8.09321127 C36.5981762,7.82444646 37.1773892,7.875462 37.6946993,8.07330276 C37.8751201,8.14391574 37.9715519,8.29945093 38.0822929,8.45187541 C38.1329974,8.52031089 38.2088986,8.54768509 38.2524484,8.62296412 C38.2776451,8.6662029 38.2197861,8.68642247 38.1955226,8.69264388 C38.0816708,8.72406199 37.7018539,8.72903911 37.5761814,8.71410774 C37.4225127,8.69544351 37.1624578,8.70228706 37.0078559,8.73494945 C37.1705457,8.82640414 37.3459894,8.93994483 37.5074349,9.00402533 C37.6069774,9.04010949 37.684745,9.04010949 37.7749554,9.08645897 C37.8122839,9.10698962 37.9202253,9.13685238 37.9202253,9.18631257 C37.9084046,9.2363949 37.8191274,9.25723661 37.7534916,9.2762119 C37.6066663,9.31851747 37.4047817,9.32567209 37.2184505,9.28118903 C36.9229337,9.21399783 36.7845073,9.03917628 36.6003537,9.14618449 C36.477792,9.22115245 36.4759255,9.38570868 36.5157425,9.55493096 C36.5810673,9.815919 36.8560535,9.92603792 37.0887342,10.0038055 C37.8978282,10.2635493 38.7601153,10.1157908 39.5493008,10.5220488 C39.855083,10.6794504 40.2000601,10.9976754 40.2647627,11.3370531 C40.5335275,12.746513 38.939914,12.9138689 38.939914,12.9138689 L38.939914,12.9138689 Z M37.6651476,11.5037869 C37.6651476,11.5037869 37.8244156,11.5205847 38.2126314,11.5470256 C38.5109479,11.5672452 38.7115883,11.6515453 38.7115883,11.6515453 L38.6733267,13.0697151 C38.3557238,13.0103007 38.1491731,12.9748387 37.8545894,12.9371991 C37.7572244,12.4229998 37.6327963,12.2463118 37.4265566,11.8683613 C37.379896,11.7834391 37.4200241,11.7501546 37.4330891,11.7290018 C37.4617075,11.6758088 37.6688804,11.6257264 37.6688804,11.6257264 L37.6651476,11.5037869 Z M39.823976,14.5989371 C39.7704719,14.8297513 39.6214692,15.0123496 39.3803896,15.1594859 C39.1268673,15.310044 38.8624574,15.3218646 38.8624574,15.3218646 L38.8845434,14.5429444 C38.8845434,14.5429444 38.9430247,14.5295684 38.984086,14.4794861 C39.023903,14.4300259 39.0344794,14.3958081 39.023903,14.3283059 C39.0170594,14.2838228 38.9809753,14.2253416 38.9112955,14.1942345 C38.8350833,14.1612611 38.7156322,14.1488183 38.6671053,14.1457076 C38.2820001,14.0981138 37.9283131,14.0564304 37.5531622,13.9942163 C36.8728513,13.8840974 36.3910033,13.4921487 36.4323757,12.8423227 C36.4609942,12.4074463 36.9173344,12.2711975 37.2408476,12.1349486 C37.3469226,12.3237684 37.4424212,12.5237866 37.4809939,12.6255066 C37.5419637,12.8012614 37.5752482,12.9138689 37.5752482,12.9138689 C37.5752482,12.9138689 37.4287341,12.9393766 37.4405548,13.0588277 C37.4529976,13.1645916 37.5702711,13.2093857 37.6424394,13.2212064 C38.1183771,13.2865312 38.7514053,13.3655431 39.0864281,13.4790837 C39.3091545,13.5562292 39.5284591,13.6822127 39.6538205,13.8548568 C39.8426402,14.1161559 39.885879,14.3283059 39.823976,14.5989371 L39.823976,14.5989371 Z M37.9472884,14.3177295 C38.2568034,14.3547468 38.3709663,14.3637679 38.6335097,14.3958081 L38.6070687,15.6820841 L38.3090633,15.5206386 L38.011991,15.3791016 L37.9472884,14.3177295 Z M39.1442872,17.3711963 C38.9759981,17.5118001 38.7741135,17.5584606 38.7741135,17.5584606 L38.7955773,17.0084882 C38.7955773,17.0084882 38.855925,16.9524955 38.8397493,16.8856154 C38.8114419,16.7742522 38.4198043,16.512642 38.2095207,16.4311416 C37.9951932,16.3496412 37.7108749,16.2659632 37.5074349,16.1782414 C37.0342969,15.9723128 36.8635192,15.5570338 37.0557607,15.1050486 C37.1251294,14.9383149 37.3151934,14.823841 37.4190909,14.761938 C37.5332537,14.6978575 37.6974989,14.6455976 37.6974989,14.6455976 L37.7463369,15.2901355 C37.7463369,15.2901355 37.684745,15.3115993 37.6660808,15.3697695 C37.6306188,15.482377 37.7335831,15.5477017 37.7615794,15.5570338 C38.0710944,15.694838 38.5215243,15.8768142 38.8506368,16.0696778 C39.27587,16.3172898 39.4152295,16.4995771 39.4174095,16.7991379 C39.4180291,17.0691469 39.302622,17.2411689 39.1442872,17.3711963 L39.1442872,17.3711963 Z M38.5408107,18.766658 C38.5398775,18.8677558 38.5000605,18.9464567 38.3090633,18.9501895 C38.1485509,18.9536113 38.0798044,18.8973075 38.0726498,18.7293295 C38.0468309,17.9914706 38.0144796,16.600986 38.0144796,16.600986 C38.0144796,16.600986 38.2222746,16.6653776 38.321195,16.7238588 C38.3516799,16.7412788 38.4614877,16.8097142 38.555431,16.9080125 C38.5753395,16.9384974 38.5905819,16.9450299 38.5890266,16.9888908 C38.5772059,17.5285979 38.5436103,18.5277559 38.5408107,18.766658 L38.5408107,18.766658 Z M37.7205181,18.1538493 C37.6925218,18.3488905 37.7727779,18.4316352 37.7534916,18.5234009 C37.7205181,18.6724037 37.6259527,18.6282317 37.5702711,18.5171795 C37.4921924,18.3678658 37.4405548,18.2947642 37.4190909,18.0655053 C37.384251,17.7040416 37.5649829,17.5320197 37.6474166,17.4483417 C37.7366938,17.3590645 37.8197496,17.3145815 37.8197496,17.3145815 L37.8471237,17.922413 C37.8471237,17.922413 37.7482034,17.9594304 37.7205181,18.1538493 L37.7205181,18.1538493 Z M40.7951377,6.54812471 C39.9294288,6.66384289 39.0702525,6.75000939 38.2256964,6.75716401 L38.2197861,6.75716401 C37.3730525,6.75000939 36.5157425,6.66384289 35.6491005,6.54812471 C34.7824584,6.42929583 33.9431905,6.23269935 33.0451304,5.99317517 C32.4164571,7.77498627 32.5499063,10.0209144 33.034554,12.021408 C33.9425684,15.7881591 36.2158707,18.6509398 38.2222746,19.9123302 C40.2271232,18.6509398 42.5019808,15.7881591 43.4096842,12.021408 C43.8930876,10.0209144 44.0265367,7.77498627 43.3978635,5.99317517 C42.4994923,6.23269935 41.6611576,6.42929583 40.7951377,6.54812471 L40.7951377,6.54812471 Z" id="Fill-34" fill="#FFFFFF"></path>
                <polygon id="Fill-48" fill="#EE7623" points="7.51272284 48.2196721 6.41277799 48.2196721 6.41277799 47.5822889 9.41118534 47.5822889 9.41118534 48.2196721 8.31092942 48.2196721 8.31092942 51.4224527 7.51272284 51.4224527"></polygon>
                <polygon id="Fill-50" fill="#EE7623" points="11.2783853 47.5823511 13.7548165 47.5823511 13.7548165 48.2091579 12.0713037 48.2091579 12.0713037 49.1224605 13.6474972 49.1224605 13.6474972 49.7492673 12.0713037 49.7492673 12.0713037 50.7851317 13.8111203 50.7851317 13.8111203 51.4225149 11.2783853 51.4225149"></polygon>
                <polygon id="Fill-52" fill="#EE7623" points="15.8268874 47.5823511 16.9731817 47.5823511 18.3599335 50.6043998 18.3599335 47.5823511 19.0965481 47.5823511 19.0965481 51.4225149 18.0065575 51.4225149 16.5740784 48.2355989 16.5740784 51.4225149 15.8268874 51.4225149"></polygon>
                <polygon id="Fill-54" fill="#EE7623" points="21.2402274 47.5823511 22.3865217 47.5823511 23.7729624 50.6043998 23.7729624 47.5823511 24.5098881 47.5823511 24.5098881 51.4225149 23.4198975 51.4225149 21.9871074 48.2355989 21.9871074 51.4225149 21.2402274 51.4225149"></polygon>
                <polygon id="Fill-56" fill="#EE7623" points="26.6636149 47.5823511 29.1400462 47.5823511 29.1400462 48.2091579 27.4565333 48.2091579 27.4565333 49.1224605 29.0327269 49.1224605 29.0327269 49.7492673 27.4565333 49.7492673 27.4565333 50.7851317 29.1963499 50.7851317 29.1963499 51.4225149 26.6636149 51.4225149"></polygon>
                <path d="M31.8312093,50.1954667 C31.8312093,50.3761986 31.820944,50.9230603 32.501566,50.9230603 C32.9311542,50.9230603 33.2024075,50.7105992 33.2024075,50.386775 C33.2024075,50.046775 32.9722155,49.9882938 32.501566,49.8716424 C31.6212368,49.6433168 31.140322,49.3723745 31.140322,48.7082392 C31.140322,48.0764553 31.5751984,47.5187061 32.6035971,47.5187061 C32.9874579,47.5187061 33.4428649,47.6089165 33.7190954,47.9700692 C33.9290679,48.2459886 33.9290679,48.5542594 33.9290679,48.6817982 L33.1666345,48.6817982 C33.1563691,48.5489712 33.1153078,48.0976081 32.5681351,48.0976081 C32.1995167,48.0976081 31.9590593,48.3047809 31.9590593,48.6180288 C31.9590593,48.9738933 32.2303126,49.0376627 32.762554,49.175778 C33.4021147,49.335046 34.0314101,49.5154668 34.0314101,50.2645243 C34.0314101,50.9547895 33.478638,51.5125386 32.4555276,51.5125386 C31.0379799,51.5125386 31.0277146,50.5671958 31.0227374,50.1954667 L31.8312093,50.1954667 Z" id="Fill-58" fill="#EE7623"></path>
                <path d="M36.6765037,50.1954667 C36.6765037,50.3761986 36.6662384,50.9230603 37.3468604,50.9230603 C37.7764486,50.9230603 38.0477019,50.7105992 38.0477019,50.386775 C38.0477019,50.046775 37.8175098,49.9882938 37.3468604,49.8716424 C36.4665312,49.6433168 35.9856164,49.3723745 35.9856164,48.7082392 C35.9856164,48.0764553 36.4204928,47.5187061 37.4488914,47.5187061 C37.8327523,47.5187061 38.2881593,47.6089165 38.5643898,47.9700692 C38.7743623,48.2459886 38.7743623,48.5542594 38.7743623,48.6817982 L38.0119288,48.6817982 C38.0016635,48.5489712 37.9606022,48.0976081 37.4134294,48.0976081 C37.044811,48.0976081 36.8043536,48.3047809 36.8043536,48.6180288 C36.8043536,48.9738933 37.075607,49.0376627 37.6078484,49.175778 C38.2474091,49.335046 38.8767045,49.5154668 38.8767045,50.2645243 C38.8767045,50.9547895 38.3239324,51.5125386 37.300822,51.5125386 C35.8832743,51.5125386 35.8730089,50.5671958 35.8680318,50.1954667 L36.6765037,50.1954667 Z" id="Fill-60" fill="#EE7623"></path>
                <polygon id="Fill-62" fill="#EE7623" points="40.9128467 47.5823511 43.389278 47.5823511 43.389278 48.2091579 41.7057651 48.2091579 41.7057651 49.1224605 43.2819587 49.1224605 43.2819587 49.7492673 41.7057651 49.7492673 41.7057651 50.7851317 43.4455817 50.7851317 43.4455817 51.4225149 40.9128467 51.4225149"></polygon>
                <polygon id="Fill-64" fill="#EE7623" points="45.4715208 47.5823511 47.9479521 47.5823511 47.9479521 48.2091579 46.2644392 48.2091579 46.2644392 49.1224605 47.8406328 49.1224605 47.8406328 49.7492673 46.2644392 49.7492673 46.2644392 50.7851317 48.0042558 50.7851317 48.0042558 51.4225149 45.4715208 51.4225149"></polygon>
            </g>
            <g id="Border" stroke="#E5E5E5" stroke-width="0.311111111">
                <path d="M15.9133333,0 L40.0869778,0 C45.6200889,0 47.6267556,0.576177778 49.6496,1.65791111 C51.6724444,2.73995556 53.2600444,4.32755556 54.3420889,6.3504 C55.4241333,8.37324444 56,10.3799111 56,15.9130222 L56,40.0869778 C56,45.6200889 55.4241333,47.6267556 54.3420889,49.6496 C53.2600444,51.6724444 51.6724444,53.2600444 49.6496,54.3417778 C47.6267556,55.4238222 45.6200889,56 40.0869778,56 L15.9133333,56 C10.3799111,56 8.37324444,55.4238222 6.3504,54.3417778 C4.32755556,53.2600444 2.73995556,51.6724444 1.65822222,49.6496 C0.576177778,47.6267556 0,45.6200889 0,40.0869778 L0,15.9130222 C0,10.3799111 0.576177778,8.37324444 1.65822222,6.3504 C2.73995556,4.32755556 4.32755556,2.73995556 6.3504,1.65791111 C8.37324444,0.576177778 10.3799111,0 15.9133333,0 Z"></path>
            </g>
        </g>
        <text id="One-on-One-Support" font-family="UniversLTPro-65Bold, Univers LT Pro" font-size="16" font-weight="bold" line-spacing="18" fill="#003764">
            <tspan x="74" y="20">One-on-One</tspan>
            <tspan x="74" y="38">Support</tspan>
        </text>
    </g>
</svg>