<?xml version="1.0" encoding="UTF-8"?>
<svg width="50px" height="50px" viewBox="0 0 50 50" version="1.1" xmlns="http://www.w3.org/2000/svg" xmlns:xlink="http://www.w3.org/1999/xlink">
    <title>Icon-Enterprise/Primary/Chat-Received-Sent</title>
    <defs>
        <polygon id="path-1" points="0 0 15.9999002 0 15.9999002 16 0 16"></polygon>
    </defs>
    <g id="Icon-Enterprise/Primary/Chat-Received-Sent" stroke="none" stroke-width="1" fill="none" fill-rule="evenodd">
        <g id="Icon-Chat">
            <g>
                <g id="Stroke-9" transform="translate(0, 1.39)">
                    <g id="Stroke-5" transform="translate(16.8941, 17.2051)" fill="#5DC1FD" fill-rule="nonzero">
                        <path d="M6.44080549,0 L25.2509949,0 C26.9654195,0 28.6086936,0.684445468 29.8160751,1.90132157 C31.0233532,3.11801588 31.6949511,4.766575 31.6817757,6.48074706 L31.6817757,17.8370844 C31.6817757,21.9435577 30.143454,24.08374 27.0668106,24.2576312 L27.0668106,29.2736822 C27.0751457,29.7830024 26.7839268,30.2498436 26.3228222,30.4663261 C25.8617215,30.6828048 25.316516,30.6086539 24.9299756,30.2768924 L18.0278845,24.2576312 L6.44080549,24.2576312 C2.88929311,24.2631803 0.00573348958,21.3885986 0,17.8370882 L0,6.48074515 C-0.0131888312,4.76483566 0.659781048,3.11474576 1.86937447,1.89761517 C3.07896981,0.680484581 4.72484816,-0.0027223707 6.4408074,0 L6.44080549,0 Z" id="Path-263"></path>
                    </g>
                    <g id="Fill-1" transform="translate(0, 1.9262)" fill="#5DC1FD">
                        <path d="M32.4839475,0 L8.27648418,0 C3.70550809,0 0,3.70550905 0,8.27648466 L0,22.9735128 C0,28.2704615 1.97966816,31.0292895 5.93900448,31.249997 L5.93900448,37.6805742 C5.93584438,38.3347136 6.31594069,38.9301171 6.91063666,39.2025955 C7.50533264,39.4750777 8.20447355,39.3741573 8.69783446,38.9446174 L17.5762432,31.249997 L32.4839475,31.249997 C37.0549212,31.249997 40.7604317,27.5444903 40.7604317,22.9735166 L40.7604317,8.27648466 C40.7604317,3.70550953 37.054925,0 32.4839475,0" id="Path-264"></path>
                    </g>
                    <g id="Stroke-5" transform="translate(19.0008, 15.0381)" fill-rule="nonzero">
                        <path d="M6.73154047,0.752407653 L24.227527,0.752407653 C27.5325976,0.752407653 30.219372,3.4169781 30.2467958,6.72172153 L30.2467958,17.3254426 C30.2467958,21.1443288 28.8155471,23.1507492 25.9530497,23.3447038 L25.9530497,27.9795339 C25.95928,28.4571058 25.6825958,28.8932013 25.2478666,29.0910007 C24.8131373,29.2888039 24.3025848,29.2109026 23.9466293,28.892455 L17.5361167,23.3447038 L6.73154047,23.3447038 C3.40719735,23.3447038 0.712279245,20.6497895 0.712279245,17.3254426 L0.712279245,6.72150913 C0.739819842,3.41676953 3.42668606,0.752407653 6.73154238,0.752407653 L6.73154047,0.752407653 Z" id="Path-265" fill="#FFFFFF"></path>
                        <path d="M24.6990399,29.9058136 C24.2311922,29.8987682 23.7805161,29.7284348 23.4249625,29.4242731 L17.2251231,24.0571001 L6.73154338,24.0571001 C3.01610389,24.051574 0.00552419254,21.0409943 0,17.3255567 L0,6.72162707 C0.00553758684,3.00781977 3.01772842,0 6.73153955,0 L24.2275299,0 C26.0180494,-0.0105573225 27.7390449,0.692563129 29.0098542,1.95396188 C30.2806634,3.21535681 30.9965581,4.93107687 30.9991987,6.72162707 L30.9991987,17.3255605 C30.9991987,22.2111931 28.0798572,23.555495 26.7054603,23.9266855 L26.7054603,27.9395263 C26.6994788,28.7142833 26.234532,29.4117016 25.5216681,29.7152012 C25.2640842,29.8363737 24.983665,29.9013475 24.6990399,29.9058136 Z M6.73154338,1.50493324 C3.84880655,1.50493324 1.51034715,3.83891511 1.50481722,6.72163472 L1.50481722,17.3255605 C1.51033758,20.2099123 3.84718966,22.5467663 6.73154146,22.5522848 L17.5060207,22.5522848 C17.6677895,22.5486492 17.8263129,22.5979708 17.9574661,22.6927336 L24.3679787,28.2404848 C24.5012941,28.3597438 24.6924499,28.3890429 24.8553629,28.3151867 C25.0182758,28.2413344 25.1222194,28.0782568 25.1203863,27.8993932 L25.1203863,23.3046924 C25.1195023,22.9079762 25.4267982,22.5787328 25.8226342,22.5522848 C25.9731173,22.5522848 29.4141248,22.2412882 29.4141248,17.3255605 L29.4141248,6.72162707 C29.4085948,3.83890746 27.0701297,1.50493324 24.1874005,1.50493324 L6.73154338,1.50493324 Z" id="Path-266" fill="#161616"></path>
                    </g>
                    <path d="M33.7680553,0.752407653 L10.8747988,0.752407653 C6.55705681,0.752407653 3.05529134,4.24969272 3.04975902,8.56742419 L3.04975902,22.4518478 C3.04975902,27.4545224 4.92241788,30.0628687 8.66773559,30.2768866 L8.66773559,36.2961479 C8.66911233,36.9101886 9.02722332,37.4674527 9.5851926,37.7238158 C10.1431609,37.9801789 10.7992502,37.8888987 11.2660502,37.4899628 L19.6528881,30.226725 L33.6978309,30.226725 C35.7722485,30.2267231 37.7615471,29.4019785 39.2274309,27.934208 C40.6933148,26.4664452 41.5155029,24.4760884 41.5128458,22.4016823 L41.5128458,8.56741845 C41.5128458,4.27826994 38.0564016,0.790773715 33.7677415,0.752407653 L33.7680553,0.752407653 Z" id="Path-267" fill="#FFFFFF" fill-rule="nonzero"></path>
                    <path d="M10.2728728,38.6737918 C9.92728641,38.6757305 9.5852591,38.6039065 9.26966257,38.4630788 C8.43988369,38.0867716 7.90924836,37.257408 7.91532746,36.3463046 L7.91532841,30.8988729 C6.26003148,30.5176539 2.29735137,28.8924525 2.29735137,22.4518429 L2.29735137,8.56741546 C2.30288752,3.83414015 6.14152062,0 10.8747993,0 L33.7680558,0 C38.497419,0.00552550805 42.3299458,3.8380532 42.3354757,8.56741642 L42.3354757,22.4518448 C42.3299573,27.1828383 38.4990378,31.0182429 33.768052,31.0292913 L19.9638832,31.0292913 L11.7877204,38.0517627 C11.3778931,38.4405725 10.8376779,38.6623821 10.2728737,38.6737918 L10.2728728,38.6737918 Z M10.9048953,1.55497445 C7.03786965,1.58230505 3.90975496,4.71041925 3.88242389,8.57744492 L3.88242389,22.4518448 C3.88242389,29.1633216 8.58747933,29.4743163 8.78812213,29.524476 C9.18791619,29.5458303 9.50097163,29.8765203 9.50040141,30.2768856 L9.50040141,36.2961449 C9.49384873,36.619556 9.67973867,36.9160485 9.9736967,37.0510515 C10.2676547,37.1860546 10.6136889,37.1338474 10.8547346,36.9181303 L19.1914128,29.7050541 C19.327895,29.5871479 19.5026332,29.5229586 19.6829856,29.5244779 L33.7279265,29.524476 C37.6063306,29.5244779 40.7503979,26.3804106 40.7503979,22.5020065 L40.7503979,8.56741546 C40.7503979,4.68901133 37.6063306,1.54494403 33.7279265,1.54494403 L10.9048953,1.55497445 Z" id="Path-268" fill="#161616" fill-rule="nonzero"></path>
                </g>
                <g id="50x50-Spacers" fill-rule="nonzero">
                    <rect id="Rectangle-112" x="0" y="0" width="50" height="50"></rect>
                </g>
            </g>
            <g id="Icon/Secondary" transform="translate(15.0001, 9)">
                <g id="Group-6" transform="translate(0, 0)">
                    <g id="Group-3">
                        <mask id="mask-2" fill="white">
                            <use xlink:href="#path-1"></use>
                        </mask>
                        <g id="Clip-2"></g>
                        <path d="M7.99800021,15.9999998 C12.4160002,16.001 15.9990002,12.42 16,8.002 C16.0010002,3.583 12.4200002,0.001 8.00100021,-2.09387736e-07 C3.58300021,-0.001 0.00100020939,3.58 0,7.998 C-0.000999790612,12.417 3.58000021,15.999 7.99800021,15.9999998" id="Fill-1" fill="#5DC1FD" mask="url(#mask-2)"></path>
                    </g>
                    <path d="M6.97790021,10.8218 L4.40690021,8.7508 C4.07590021,8.4838 4.02290021,7.9998 4.28990021,7.6688 C4.55690021,7.3368 5.04290021,7.2848 5.37190021,7.5518 L7.34990021,9.1438 L10.5149002,5.2898 C10.7849002,4.9608 11.2699002,4.9128 11.5989002,5.1828 C11.9269002,5.4528 11.9749002,5.9378 11.7059002,6.2668 L8.05590021,10.7108 C7.90290021,10.8958 7.68290021,10.9918 7.45990021,10.9918 C7.29090021,10.9918 7.11990021,10.9358 6.97790021,10.8218 Z" id="Fill-4" fill="#FFFFFF"></path>
                </g>
            </g>
        </g>
    </g>
</svg>