<?xml version="1.0" encoding="UTF-8"?>
<svg width="50px" height="50px" viewBox="0 0 50 50" version="1.1" xmlns="http://www.w3.org/2000/svg" xmlns:xlink="http://www.w3.org/1999/xlink">
    <title>Icon-Enterprise/Primary/Claims</title>
    <g id="Icon-Enterprise/Primary/Claims" stroke="none" stroke-width="1" fill="none" fill-rule="evenodd">
        <g id="Icon-Claims">
            <g id="Fill-1" transform="translate(6.48, 4.48)" fill="#5DC1FD">
                <path d="M10.6499991,0 L31.1899981,0 C32.3829341,0 33.349998,0.967065811 33.349998,2.1600008 L33.349998,41.9500003 C33.349998,43.8459773 31.8159328,45.3844981 29.9199786,45.3900027 L3.36000013,45.3900027 C1.50660181,45.3845096 0.00549030304,43.8833957 0,42.0299983 L0,10.3700004 L10.6499991,0 Z" id="Path-464"></path>
            </g>
            <g id="Stroke-5" transform="translate(9.48, 0.08)" fill-rule="nonzero">
                <path d="M11.3699987,0.76 L31.9199998,0.76 C33.1129396,0.76 34.0800035,1.72706504 34.0800035,2.92000003 L34.0800035,43.9800014 C34.0800035,45.1729373 33.1129396,46.1400012 31.9200037,46.1400012 L2.91999985,46.1400012 C1.72706486,46.1400012 0.76,45.1729373 0.76,43.9800014 L0.76,11.1300001 L11.3699987,0.76 Z" id="Path-465" fill="#FFFFFF"></path>
                <path d="M31.9200001,46.9200172 L2.92000008,46.9200172 C2.14648819,46.922655 1.40374756,46.6172427 0.855852127,46.0712222 C0.307956696,45.5252055 0,44.7835178 0,44.0100002 L0,10.8100003 L11.0699978,0 L31.9200001,0 C33.5287685,0.00550954044 34.8301547,1.31122617 34.8301547,2.92000048 L34.8301547,43.9800014 C34.838007,44.7569637 34.5349598,45.5048618 33.9883556,46.0571002 C33.4417553,46.6093349 32.6970043,46.9200172 31.9199963,46.9200172 L31.9200001,46.9200172 Z M1.51999855,11.4400005 L1.51999855,43.9800014 C1.51999855,44.3557338 1.66993427,44.7158946 1.93653488,44.9806041 C2.20309925,45.2452907 2.56431293,45.3926677 2.93999863,45.3900405 L31.9399967,45.3900405 C32.7187214,45.3900405 33.3499966,44.7587222 33.3499966,43.9800014 L33.3499966,2.92 C33.3499966,2.54161827 33.1990108,2.1789159 32.9305363,1.91233151 C32.6620922,1.64576535 32.2983341,1.49733572 31.9200001,1.49996467 L11.6799984,1.49996467 L1.51999855,11.4400005 Z" id="Path-466" fill="#161616"></path>
            </g>
            <g id="Stroke-7" transform="translate(10.78, 1.33)" fill="#161616" fill-rule="nonzero">
                <path d="M8,10.7700013 L0,10.7700013 L0,9.27000034 L8,9.27000034 C9.14875221,9.27000034 10.0799999,8.33875263 10.0799999,7.19000041 L10.0799999,0 L11.5799999,0 L11.5799999,7.19000041 C11.5745068,9.16489971 9.97489929,10.7645072 8,10.7700013 L8,10.7700013 Z" id="Path-467"></path>
            </g>
            <g id="Group-311" transform="translate(14.16, 14.44)" fill="#161616" fill-rule="nonzero">
                <g id="Stroke-9" transform="translate(15.5, 5.74)">
                    <path d="M9.74999809,1.5 L0.749998093,1.5 C0.335786819,1.5 0,1.16421318 0,0.75 C0,0.335786819 0.335786819,0 0.75,0 L9.74999809,0 C10.164217,0 10.5,0.335786819 10.5,0.75 C10.5,1.16421318 10.164217,1.5 9.75000191,1.5 L9.74999809,1.5 Z" id="Path-468"></path>
                </g>
                <g id="Stroke-13" transform="translate(15.75, 0)">
                    <path d="M9.5,1.5 L0.75,1.5 C0.335786819,1.5 0,1.16421413 0,0.750000954 C0,0.335787773 0.335786819,0 0.75,0 L9.5,0 C9.9142189,0 10.2500038,0.335787773 10.2500038,0.750000954 C10.2500038,1.16421413 9.9142189,1.5 9.5,1.5 L9.5,1.5 Z" id="Path-469"></path>
                </g>
                <path d="M6.55988867,12.5001572 C6.39749319,12.5008802 6.23936636,12.4481725 6.10988791,12.3501501 C2.03988821,9.35015008 0.0498884423,6.59014985 0.199888061,4.2501497 C0.274534057,3.04664132 0.977442573,1.97138306 2.04988844,1.42014786 C3.54988844,0.57014939 5.18988783,1.05014989 6.55988867,2.69015023 C7.93988783,1.05014989 9.55988867,0.580150573 11.0698889,1.42014977 C12.1423338,1.97138306 12.8452414,3.04664323 12.9198893,4.2501497 C13.0698889,6.59014985 11.0798891,9.32014939 7.00988943,12.3501501 C6.87973196,12.4468774 6.72204954,12.4994383 6.55988867,12.5001572 Z M3.55988867,2.5001497 C3.29294188,2.50522897 3.03157217,2.57744881 2.79988844,2.71014878 C2.17298872,3.02325913 1.75568278,3.64162919 1.69988806,4.34014794 C1.63988764,5.34014794 2.19988806,7.44014832 6.5698889,10.800147 C10.9298895,7.44014641 11.4998892,5.32014748 11.4398878,4.34014794 C11.3840941,3.64162919 10.9667891,3.02325722 10.3398875,2.71014878 C9.01988776,1.97014901 7.82988722,3.38014886 7.23988707,4.2901487 C7.17447073,4.38615128 7.0971926,4.47350976 7.00988753,4.55014893 C6.74737723,4.74031922 6.39240057,4.74031922 6.12989027,4.55014893 C6.04258711,4.47350785 5.96530897,4.38615128 5.89989073,4.2901487 C5.40988905,3.56014916 4.55988867,2.56014916 3.54988844,2.56014916 L3.55988867,2.5001497 Z" id="Path-470"></path>
                <g id="Stroke-17" transform="translate(0, 17.21)">
                    <path d="M25.249999,1.5 L0.749999046,1.5 C0.335786819,1.5 0,1.16421509 0,0.75 C0,0.335786819 0.335786819,0 0.75,0 L25.249999,0 C25.6642179,0 26,0.335786819 26,0.75 C26,1.16421509 25.6642179,1.5 25.2500029,1.5 L25.249999,1.5 Z" id="Path-471"></path>
                </g>
                <g id="Stroke-19" transform="translate(0, 22.95)">
                    <path d="M25.249999,1.5 L0.749999046,1.5 C0.335786819,1.5 0,1.16421509 0,0.75 C0,0.335784912 0.335786819,0 0.75,0 L25.249999,0 C25.6642179,0 26,0.335784912 26,0.75 C26,1.16421509 25.6642179,1.5 25.2500029,1.5 L25.249999,1.5 Z" id="Path-472"></path>
                </g>
                <g id="Stroke-9" transform="translate(15.5, 11.48)">
                    <path d="M9.74999809,1.5 L0.749998093,1.5 C0.335786819,1.5 0,1.16421509 0,0.750001907 C0,0.335788727 0.335786819,0 0.75,0 L9.74999809,0 C10.164217,0 10.5,0.335788727 10.5,0.750001907 C10.5,1.16421509 10.164217,1.5 9.75000191,1.5 L9.74999809,1.5 Z" id="Path-473"></path>
                </g>
            </g>
            <g id="50x50-Spacers" fill-rule="nonzero">
                <rect id="Rectangle-189" x="0" y="0" width="50" height="50"></rect>
            </g>
        </g>
    </g>
</svg>