<?xml version="1.0" encoding="utf-8"?>
<!-- Generator: Adobe Illustrator 28.1.0, SVG Export Plug-In . SVG Version: 6.00 Build 0)  -->
<svg version="1.1" id="Layer_1" xmlns="http://www.w3.org/2000/svg" xmlns:xlink="http://www.w3.org/1999/xlink" x="0px" y="0px"
	 viewBox="0 0 24 24" style="enable-background:new 0 0 24 24;" xml:space="preserve">
<style type="text/css">
	.st0{fill-rule:evenodd;clip-rule:evenodd;fill:#005EB9;}
</style>
<g id="Icon-App_x2F_Function_x2F_Close">
	<g id="_xD83C__xDFA8_-Icon-Сolor">
		<path id="path-1_00000132767133344815152030000014999726838508972713_" class="st0" d="M14.6,12l7.9-7.9c0.7-0.7,0.7-1.9,0-2.6
			c-0.7-0.7-1.9-0.7-2.6,0L12,9.4L4.1,1.5c-0.7-0.7-1.9-0.7-2.6,0c-0.7,0.7-0.7,1.9,0,2.6L9.4,12l-7.9,7.9c-0.7,0.7-0.7,1.9,0,2.6
			c0.4,0.4,0.8,0.5,1.3,0.5s0.9-0.2,1.3-0.5l7.9-7.9l7.9,7.9c0.4,0.4,0.8,0.5,1.3,0.5c0.5,0,0.9-0.2,1.3-0.5c0.7-0.7,0.7-1.9,0-2.6
			L14.6,12z"/>
	</g>
</g>
</svg>
