<?xml version="1.0" encoding="UTF-8"?>
<svg width="50px" height="50px" viewBox="0 0 50 50" version="1.1" xmlns="http://www.w3.org/2000/svg" xmlns:xlink="http://www.w3.org/1999/xlink">
    <title>Icon-Enterprise/Primary/Mobile-Chat</title>
    <g id="Icon-Enterprise/Primary/Mobile-Chat" stroke="none" stroke-width="1" fill="none" fill-rule="evenodd">
        <g id="Icon-Phone-Chat">
            <g id="Phone" transform="translate(4.65, 0)" fill-rule="nonzero">
                <g id="Stroke-8" transform="translate(0, 4.08)" fill="#5DC1FD">
                    <path d="M27.0799999,4 C27.0799999,1.79086113 25.2891388,0 23.0799999,0 L4,0 C1.79086113,0 0,1.79086161 0,4 L0,41.9200001 C0,44.129137 1.79086065,45.9200001 4,45.9200001 L23.1000004,45.9200001 C25.3091393,45.9200001 27.1000004,44.129137 27.1000004,41.9200001 L27.0799999,4 Z" id="Path-809"></path>
                </g>
                <g id="Stroke-8" transform="translate(3.62, 0)">
                    <path d="M27.8299985,4.73 C27.8299985,2.52086089 26.0391354,0.73 23.8299985,0.73 L4.73,0.73 C2.52086113,0.73 0.73,2.52086161 0.73,4.73 L0.73,42.6399994 C0.73,44.8491363 2.52086113,46.6399994 4.73,46.6399994 L23.8299985,46.6399994 C26.0391393,46.6399994 27.8299985,44.8491363 27.8299985,42.6399994 L27.8299985,4.73 Z" id="Path-810" fill="#FFFFFF"></path>
                    <path d="M23.8499985,47.3699989 L4.72999954,47.3699989 C2.11769295,47.3699989 0,45.2523079 0,42.6399994 L0,4.73000002 C0.00549983978,2.11997414 2.11997414,0.00550031662 4.72999954,0 L23.829998,0 C26.443924,0.00551366806 28.5600014,2.12607002 28.5600014,4.74000025 L28.5600014,42.6399994 C28.5600014,45.2445564 26.4544487,47.3590088 23.8499527,47.3699989 L23.8499985,47.3699989 Z M4.72999954,1.49000001 C2.95232391,1.50646019 1.5199995,2.95224786 1.5199995,4.7300005 L1.5199995,42.6399994 C1.5199995,44.4161568 2.95399857,45.8590355 4.73006248,45.8699989 L23.829998,45.8699989 C25.6138763,45.8699989 27.0599976,44.4238777 27.0599976,42.6399994 L27.0599976,4.73000002 C27.0599976,2.9444809 25.6154785,1.49550343 23.8299828,1.49000001 L4.72999954,1.49000001 Z" id="Path-811" fill="#161616"></path>
                </g>
                <path d="M27.2000455,41 L8.65004528,41 C7.92016208,40.9729729 7.34413421,40.3703576 7.35,39.6399994 L7.35,6.1399999 C7.34428298,5.41140417 7.92174995,4.81172661 8.65004528,4.79 L27.2000455,4.79 C27.94563,4.79 28.5500458,5.39441494 28.5500458,6.13999943 L28.5500458,39.6399994 C28.5500458,40.3872567 27.9472054,40.9945259 27.2000073,41 L27.2000455,41 Z M8.80004489,39.5 L27.0500458,39.5 L27.0500458,6.29 L8.80004489,6.29 L8.80004489,39.5 Z" id="Path-812" fill="#161616"></path>
                <path d="M21.0400014,44.08 L14.81,44.08 C14.3957868,44.08 14.06,43.7442151 14.06,43.33 C14.06,42.9157849 14.3957868,42.58 14.81,42.58 L21.0399995,42.58 C21.4542146,42.58 21.7900014,42.9157849 21.7900014,43.33 C21.7900014,43.7442151 21.4542146,44.08 21.0400014,44.08 Z" id="Path-813" fill="#161616"></path>
            </g>
            <g id="Icon/Secondary" transform="translate(26.49, 9.8)">
                <path d="M10,20 C15.5228462,20 20,15.5228481 20,10 C20,4.47715187 15.5228462,0 10,0 C4.47715187,0 0,4.47715282 0,10 C0,15.5228443 4.47715187,20 10,20" id="Fill-11" fill="#5DC1FD"></path>
                <g id="Group-495" transform="translate(3.233, 6.07)" fill-rule="nonzero">
                    <path d="M13.6567646,6.5 L13.6567646,1.5 C13.6622686,0.677088737 12.9996404,0.00550460815 12.1767301,0 L0.516728382,0 C-0.0132723045,0 -0.163271923,0.320000648 0.196728687,0.720000267 L1.27672861,1.86999989 L1.27672861,6.5 C1.27116297,7.32456875 1.93221567,7.99902248 2.75673197,8.00999928 L12.1767301,8.00999928 C13.0012464,7.99902248 13.6622991,7.32456875 13.6567646,6.5" id="Path-814" fill="#FFFFFF"></path>
                    <g id="Group-494" transform="translate(3.977, 2.18)" fill="#161616">
                        <path d="M6.94000006,-0.5 C7.21614243,-0.5 7.44000006,-0.276142375 7.44000006,0 C7.44000006,0.276142375 7.21614243,0.5 6.94000006,0.5 L0,0.5 C-0.276142375,0.5 -0.5,0.276142375 -0.5,0 C-0.5,-0.276142375 -0.276142375,-0.5 0,-0.5 L6.94000006,-0.5 Z" id="Line-26"></path>
                        <path d="M6.94000006,1.46000099 C7.21614243,1.46000099 7.44000006,1.68385862 7.44000006,1.96000099 C7.44000006,2.23614337 7.21614243,2.46000099 6.94000006,2.46000099 L0,2.46000099 C-0.276142375,2.46000099 -0.5,2.23614337 -0.5,1.96000099 C-0.5,1.68385862 -0.276142375,1.46000099 0,1.46000099 L6.94000006,1.46000099 Z" id="Line-27"></path>
                        <path d="M4.88999987,3.42000008 C5.16614224,3.42000008 5.38999987,3.6438577 5.38999987,3.92000008 C5.38999987,4.19614245 5.16614224,4.42000008 4.88999987,4.42000008 L0,4.42000008 C-0.276142375,4.42000008 -0.5,4.19614245 -0.5,3.92000008 C-0.5,3.6438577 -0.276142375,3.42000008 0,3.42000008 L4.88999987,3.42000008 Z" id="Line-28"></path>
                    </g>
                </g>
            </g>
            <g id="50x50-Spacers" fill-rule="nonzero">
                <rect id="Rectangle-273" x="0" y="0" width="50" height="50"></rect>
            </g>
        </g>
    </g>
</svg>