<?xml version="1.0" encoding="UTF-8"?>
<svg width="50px" height="50px" viewBox="0 0 50 50" version="1.1" xmlns="http://www.w3.org/2000/svg" xmlns:xlink="http://www.w3.org/1999/xlink">
    <title>Icon-Enterprise/Primary/Coverage-update</title>
    <g id="Icon-Enterprise/Primary/Coverage-update" stroke="none" stroke-width="1" fill="none" fill-rule="evenodd">
        <g id="2022_BCBST-Icon_Digital_Update-Confirmed">
            <g id="Group" transform="translate(0, 0)">
                <circle id="Oval" fill="#5DC1FD" fill-rule="nonzero" cx="23.36" cy="26.6406782" r="23.36"></circle>
                <g transform="translate(3.1393, 0)" fill-rule="nonzero">
                    <circle id="Oval" fill="#FFFFFF" cx="23.4406824" cy="23.4206782" r="22.66"></circle>
                    <path d="M23.4406824,46.8406868 C13.9663608,46.848769 5.42044271,41.1478018 1.78916923,32.3969911 C-1.84210425,23.6461804 0.156671847,13.5695422 6.85316898,6.86732157 C13.5496661,0.165100935 23.624593,-1.84228326 32.3785028,1.78151276 C41.1324127,5.40530879 46.8406824,13.9463532 46.8406824,23.4206782 C46.8241831,36.3405424 36.3605277,46.8131411 23.4406824,46.8406868 Z M23.4406824,1.51067595 C14.5730512,1.50663372 6.57652292,6.84578735 3.18115881,15.037637 C-0.214205305,23.2294867 1.66054125,32.6600939 7.93090401,38.9304566 C14.2012668,45.2008194 23.631874,47.0755659 31.8237236,43.6802018 C40.0155733,40.2848377 45.3547269,32.2883094 45.3506847,23.4206782 C45.3341571,11.326971 35.5343896,1.52720349 23.4406824,1.51067595 Z" id="Shape" fill="#161616"></path>
                </g>
                <g transform="translate(10.2277, 7.3898)" fill="#161616" fill-rule="nonzero" id="Path">
                    <path d="M16.5822616,32.1708474 C9.80767202,32.1566996 3.76197205,27.9159246 1.44226161,21.5508474 C1.31503531,21.1653468 1.51762708,20.7485926 1.89937493,20.6105136 C2.28112277,20.4724346 2.70344039,20.6631578 2.85226161,21.0408474 C5.26574831,27.7157412 12.1300633,31.68781 19.1198603,30.4541713 C26.1096572,29.2205326 31.1995371,23.1386518 31.1822616,16.0408474 C31.1822616,15.6266338 31.518048,15.2908474 31.9322616,15.2908474 C32.3464752,15.2908474 32.6822648,15.6266338 32.6822648,16.0408474 C32.6877889,24.9397769 25.481186,32.1598083 16.5822616,32.1708474 Z"></path>
                    <path d="M1.24226161,16.820916 C1.04252846,16.8235652 0.850179836,16.7454207 0.708934095,16.6041749 C0.567688353,16.4629292 0.489543775,16.2705806 0.492193017,16.0708474 C0.507160728,8.24618852 6.14567212,1.56517385 13.8565611,0.235625175 C21.5674501,-1.0939235 29.117798,3.31300441 31.7522616,10.6808474 C31.8903328,11.0729696 31.6843838,11.5027762 31.2922616,11.6408474 C30.9001394,11.7789186 30.4703328,11.5729696 30.3322616,11.1808474 C27.9455003,4.49542116 21.0959898,0.495577644 14.1005887,1.70219179 C7.1051877,2.90880594 1.99144433,8.97215251 1.98226161,16.0708474 C1.98229809,16.4811869 1.65256468,16.8153762 1.24226161,16.820916 Z"></path>
                    <path d="M0.752261612,26.8308474 C0.692668734,26.8407322 0.63185449,26.8407322 0.572261612,26.8308474 C0.378387233,26.7835543 0.211354599,26.6609459 0.108130726,26.4901573 C0.00490685208,26.3193687 -0.0259959483,26.114484 0.0222616123,25.9208474 L1.34226161,20.5408474 C1.39934119,20.3136653 1.55799265,20.1254973 1.77226161,20.0308474 C1.98199054,19.9206055 2.23253268,19.9206055 2.44226161,20.0308474 L7.24226161,22.8208474 C7.5894352,23.0251343 7.7094372,23.4695862 7.51226161,23.8208474 C7.30457832,24.1635355 6.86420003,24.2824376 6.51226161,24.0908474 L2.59226161,21.8108474 L1.51226161,26.2208474 C1.43978237,26.5812181 1.11977786,26.8380638 0.752261612,26.8308474 L0.752261612,26.8308474 Z"></path>
                    <path d="M31.0522616,11.8708474 C30.9181055,11.8683684 30.7869971,11.8304159 30.6722616,11.7608474 L25.8822616,8.9808474 C25.5395736,8.77316412 25.4206714,8.33278582 25.6122616,7.9808474 C25.8165486,7.63367381 26.2610004,7.51367182 26.6122616,7.7108474 L30.5422616,9.9908474 L31.6222616,5.5808474 C31.7216729,5.17767955 32.1290937,4.93143617 32.5322616,5.03084743 C32.9354295,5.13025868 33.1816729,5.53767954 33.0822616,5.9408474 L31.7522616,11.3008474 C31.6877966,11.5273163 31.5268358,11.7138844 31.3122616,11.8108474 C31.2300903,11.8468724 31.1419097,11.8672218 31.0522616,11.8708474 L31.0522616,11.8708474 Z"></path>
                </g>
                <g transform="translate(19.4, 15.5707)">
                    <path d="M8,16 C12.418278,16 16,12.418278 16,8 C16,3.581722 12.418278,0 8,0 C3.581722,0 0,3.581722 0,8 C0,12.418278 3.581722,16 8,16" id="Fill-11" fill="#5DC1FD"></path>
                    <path d="M7.42,11.23 C7.22988169,11.2288643 7.04606572,11.1617007 6.9,11.04 L4.13,8.81 C3.77493177,8.5206665 3.7171042,8.00021839 4,7.64 C4.13898208,7.46855278 4.34052496,7.35951896 4.56007701,7.3370008 C4.77962905,7.31448265 4.99910894,7.38033464 5.17,7.52 L7.31,9.23 L10.72,5.08 C10.8589821,4.90855278 11.060525,4.79951896 11.280077,4.7770008 C11.4996291,4.75448265 11.7191089,4.82033464 11.89,4.96 C12.2387722,5.25517513 12.2876437,5.7749909 12,6.13 L8.07,10.92 C7.90911209,11.113441 7.67158221,11.2267245 7.42,11.23 Z" id="Path" fill="#FFFFFF" fill-rule="nonzero"></path>
                </g>
            </g>
            <g id="_50x50_Spacers">
                <rect id="Rectangle" x="0" y="0" width="50" height="50"></rect>
            </g>
        </g>
    </g>
</svg>