<?xml version="1.0" encoding="UTF-8"?>
<svg width="40px" height="40px" viewBox="0 0 50 50" version="1.1" xmlns="http://www.w3.org/2000/svg" xmlns:xlink="http://www.w3.org/1999/xlink">
    <title>Icon-Enterprise/Primary/Cost</title>
    <g id="Icon-Enterprise/Primary/Cost" stroke="none" stroke-width="1" fill="none" fill-rule="evenodd">
        <g id="Icon-Cost" fill-rule="nonzero">
            <circle id="Ellipse-9" fill="#5DC1FD" cx="23.3800006" cy="26.6399999" r="23.3600006"></circle>
            <g id="Group-219" transform="translate(3.16, 0)">
                <circle id="Ellipse-10" fill="#FFFFFF" cx="23.4399999" cy="23.42" r="22.6599998"></circle>
                <path d="M23.4400044,46.8400003 C10.5028964,46.851039 0.00737005987,36.3704481 0,23.4333372 C-0.00736230097,10.4962273 10.4762202,0.00368596845 23.4133301,0 C36.3504449,-0.00368402667 46.8399964,10.4828892 46.8399964,23.420001 C46.8289796,36.3421354 36.3621255,46.8179388 23.4400044,46.8400003 Z M23.4400044,1.50998742 C11.3313218,1.50446226 1.51184661,11.3179665 1.5100022,23.426652 C1.5100022,35.5386763 11.3279849,45.3536711 23.4366704,45.3499871 C35.5386887,45.3499871 45.3536835,35.5320044 45.3499996,23.4233198 C45.3353043,11.3283138 35.5350037,1.52652075 23.4400006,1.50998742 L23.4400044,1.50998742 Z" id="Path-333" fill="#161616"></path>
            </g>
            <path d="M26.0001162,9.96 L27.5301169,9.96 L27.5301169,12.3800001 C29.2299174,12.3218383 30.9062346,12.7898082 32.330118,13.7200012 C33.420019,14.5833454 34.0389384,15.9101305 34.0001162,17.3000011 L30.8801154,17.3000011 C30.9135989,16.6171875 30.6248339,15.9582109 30.1001166,15.5200004 C29.3363322,15.0184764 28.4326457,14.7732906 27.5201148,14.8200016 L27.5201148,21.0800018 C29.4239882,21.4826946 31.2161997,22.2985763 32.7701128,23.4700012 C33.8257388,24.4399566 34.3970622,25.82798 34.3301104,27.2600021 C34.3412989,28.6998272 33.8255824,30.0940437 32.8801135,31.1800022 C31.6520194,32.4526176 29.9775885,33.1984024 28.2101134,33.2600021 L27.4601134,33.3600006 L27.4601134,36.3600006 L25.9301165,36.3600006 L25.9301165,33.3600006 C24.6194438,33.4159889 23.3167609,33.1299476 22.1501158,32.5299987 C21.2862986,32.0634384 20.54854,31.3943081 20.0001162,30.5800018 C19.4722899,29.6426181 19.2225379,28.5742263 19.280115,27.4999961 L22.3401164,27.5 L22.3401164,27.6200008 C22.3072585,28.5044307 22.6745757,29.3566036 23.3401164,29.9400005 C24.0740012,30.5463562 25.0096491,30.8534774 25.9601172,30.7999992 L25.9601153,23.8000011 C23.4001158,23.0400009 21.7167815,22.253334 20.9101161,21.4400005 C20.0311144,20.4596519 19.5904482,19.1629352 19.6901206,17.8500003 C19.6535128,16.3955326 20.2522524,14.9972553 21.330118,14.0200023 C22.6314047,12.9205131 24.2979868,12.3495216 26.0001181,12.42 L26.0001162,9.96 Z M26.00012,14.8199997 C25.1314353,14.8557491 24.292816,15.1480474 23.5901164,15.6599998 C22.9566821,16.1240043 22.5995558,16.8758449 22.6401137,17.6599979 C22.6296214,18.3302097 22.8975771,18.9747524 23.3801135,19.4399986 C24.1468562,20.0386066 25.0448512,20.446474 26.00012,20.6300029 L26.00012,14.8199997 Z M27.5301169,30.8199997 C28.5137938,30.8762188 29.4811533,30.5501823 30.2301177,29.9099998 C30.8753108,29.3330211 31.2398585,28.505495 31.2301157,27.6399994 C31.2438658,26.8908233 30.9513148,26.1684742 30.4201163,25.6400013 C29.5924719,24.9294262 28.6038435,24.4316787 27.5401209,24.1899986 L27.5301169,30.8199997 Z" id="Path-334" fill="#161616"></path>
            <g id="50x50-Spacers" transform="translate(0, 0.02)">
                <rect id="Rectangle-135" x="0" y="0" width="40" height="40"></rect>
            </g>
        </g>
    </g>
</svg>