<?xml version="1.0" encoding="UTF-8"?>
<svg width="192px" height="56px" viewBox="0 0 192 56" version="1.1" xmlns="http://www.w3.org/2000/svg" xmlns:xlink="http://www.w3.org/1999/xlink">
    <title>Logos/Partner/CVS-Caremark</title>
    <g id="Logos/Partner/CVS-Caremark" stroke="none" stroke-width="1" fill="none" fill-rule="evenodd">
        <g id="CVS_Caremark_logo_rgb" transform="translate(35, 0)" fill="#CD2028" fill-rule="nonzero">
            <path d="M102.745933,20.6609782 C103.210847,22.8179305 104.443879,23.588511 106.990797,23.588511 C109.227773,23.588511 110.464174,22.7775508 110.464174,21.5055883 C110.464174,19.6952289 108.806656,19.5404399 105.370337,18.6520851 C101.35793,17.6123062 98.7739526,16.7273164 97.57461,15.8759764 C95.3376338,14.2978007 94.259573,12.0600889 94.259573,9.20995073 C94.259573,3.62071866 98.6560397,0 106.333854,0 C114.011668,0 118.179047,3.27749069 118.681019,9.0955414 L109.921775,9.0955414 C109.615201,7.36257661 108.419228,6.55161639 106.178883,6.55161639 C104.211422,6.55161639 103.244536,7.20778753 103.244536,8.51676481 C103.244536,10.0579257 104.750452,10.3271241 107.526459,11.0606898 C111.11438,11.9860594 113.971241,12.564836 115.783731,13.7964187 C118.330649,15.4923687 119.489565,17.5719265 119.489565,20.539839 C119.489565,26.8222569 114.975185,30.4833554 106.603369,30.4833554 C98.8480693,30.4833554 94.2932624,26.8222569 93.7171737,20.6576133 L102.745933,20.6576133 L102.745933,20.6609782 Z M68.6792117,18.4636462 C68.1772397,26.0550415 63.160888,30.4867203 54.8665578,30.4867203 C45.6457691,30.4867203 40.0129014,24.6282899 40.0129014,15.2635501 C40.0129014,5.89881024 45.6828274,0.00336498017 54.6711593,0.00336498017 C63.0429751,0.00336498017 67.9818412,4.24324 68.5242405,11.716861 L59.6875109,11.716861 C59.4179957,8.78932821 57.7604773,7.24480231 54.7890722,7.24480231 C51.1607238,7.24480231 49.3482341,9.90650162 49.3482341,15.2601851 C49.3482341,20.6138685 51.3156951,23.2385531 55.0585874,23.2385531 C57.8750212,23.2385531 59.6504526,21.5426031 59.9199678,18.4602812 L68.6792117,18.4602812 L68.6792117,18.4636462 Z M66.7083818,0.814325201 L76.1616274,0.814325201 L81.0230078,19.4664103 L86.231389,0.814325201 L95.3376338,0.814325201 L85.614873,29.6791251 L76.3940843,29.6791251 L66.7083818,0.814325201 Z M10.3392781,0.0437447422 C9.24437258,0.0437447422 8.14946709,0.461002283 7.31060103,1.29888235 L1.24987801,7.35248167 C-0.417747284,9.02151184 -0.417747284,11.7336859 1.25661589,13.406081 L18.3573552,30.4900853 L35.4614635,13.406081 C37.1358267,11.7370508 37.1324578,9.02487682 35.4614635,7.35248167 L29.4041094,1.30224733 C28.5686123,0.464367264 27.4737068,0.0437447422 26.3788013,0.0437447422 C25.2838958,0.0437447422 24.1822525,0.464367264 23.3400175,1.30897729 L18.3607242,6.28241798 L13.374693,1.30224733 C12.5391959,0.464367264 11.4409215,0.0437447422 10.3392781,0.0437447422 L10.3392781,0.0437447422 L10.3392781,0.0437447422 Z M6.79852216,48.6609782 C6.79852216,44.5590674 9.44650898,41.3488763 13.6341014,41.3488763 C17.1175853,41.3488763 19.3073963,43.3443096 19.7925237,46.3122221 L16.7672156,46.3122221 C16.4977004,44.8282658 15.3893191,43.8288667 13.7419075,43.8288667 C11.2017267,43.8288667 9.90468482,45.8243 9.90468482,48.6576133 C9.90468482,51.4909266 11.1747752,53.4897248 13.7149559,53.4897248 C15.5240767,53.4897248 16.686361,52.5172455 16.9019732,50.7102512 L19.8733782,50.7102512 C19.6308145,53.8127629 17.360149,55.996635 13.768859,55.996635 C9.4734605,55.996635 6.79852216,52.7595241 6.79852216,48.6576133 L6.79852216,48.6609782 Z M30.0239944,53.8161279 C29.2390314,54.8962865 28.026213,55.8956856 25.7016444,55.8956856 C22.9997545,55.8956856 21.0289246,54.5194087 21.0289246,51.8206946 C21.0289246,48.6643432 23.5387849,47.7995433 26.7291711,47.341906 C28.8347586,47.0188679 29.9970429,46.830429 29.9970429,45.5887514 C29.9970429,44.3470737 29.0503707,43.6707127 27.3760076,43.6707127 C25.5129838,43.6707127 24.6202147,44.4009134 24.5393601,46.0194688 L21.6488096,46.0194688 C21.7296642,43.4822738 23.4848819,41.406081 27.349056,41.406081 C31.2132302,41.406081 33.022351,42.9438769 33.022351,46.2079077 L33.022351,52.2783319 C33.022351,53.277731 33.2379631,53.7084485 34.2115868,53.5200096 L34.2924413,53.5200096 L34.2924413,55.488523 C33.9959746,55.6500421 33.5917018,55.7846413 32.8875934,55.7846413 C31.1862787,55.7846413 30.2935096,55.2193246 30.0509459,53.8161279 L30.0239944,53.8161279 Z M30.0509459,50.6025718 L30.0509459,48.4153347 C29.373789,48.8191323 28.3226797,49.0883307 27.3221045,49.3070544 C25.3243231,49.7411369 24.1350873,50.1180147 24.1350873,51.7365701 C24.1350873,53.2474462 25.162614,53.7050835 26.4562869,53.7050835 C28.8617101,53.7050835 30.0509459,52.0596082 30.0509459,50.6025718 L30.0509459,50.6025718 Z M38.9617922,43.9937508 L39.0426467,43.9937508 C39.8781438,42.5097945 41.0134766,41.5945199 42.7451118,41.5945199 C43.1493846,41.5945199 43.3919482,41.6214397 43.6109293,41.7021993 L43.6109293,44.4816729 L43.5300748,44.4816729 C43.3414141,44.4278332 43.0954815,44.4009134 42.8023837,44.4009134 C40.6967963,44.4009134 39.0460157,45.8310299 39.0460157,48.4759043 L39.0460157,55.5995674 L35.993756,55.5995674 L35.993756,41.7021993 L38.9651611,41.7021993 L38.9651611,43.9971157 L38.9617922,43.9937508 Z M43.8231726,48.6609782 C43.8231726,44.5590674 46.5520139,41.3488763 50.5778972,41.3488763 C54.9002472,41.3488763 57.2248158,44.6667468 57.2248158,49.4685735 L46.8788011,49.4685735 C47.0944133,51.8980892 48.4453582,53.5704843 50.8238298,53.5704843 C52.3903869,53.5704843 53.4448651,52.8705684 53.9299925,51.6558106 L56.9283491,51.6558106 C56.3623672,54.139166 54.1725562,56 50.8238298,56 C46.3667222,56 43.8265415,52.7359692 43.8265415,48.6609782 L43.8231726,48.6609782 Z M46.9293352,47.3116212 L54.0074781,47.3116212 C53.899672,45.1243841 52.6026301,43.7211874 50.6048487,43.7211874 C48.3914552,43.7211874 47.2561224,45.2051436 46.9327042,47.3116212 L46.9293352,47.3116212 Z M59.2158593,41.6988343 L62.1872644,41.6988343 L62.1872644,43.616873 L62.268119,43.616873 C63.053082,42.3213556 64.4579299,41.3488763 66.3209538,41.3488763 C68.04922,41.3488763 69.4271164,42.2944358 70.0773218,43.8053119 L70.1312249,43.8053119 C71.0509455,42.2675159 72.5905511,41.3488763 74.3457688,41.3488763 C77.0746102,41.3488763 78.7759249,43.1289508 78.7759249,46.0968634 L78.7759249,55.5928374 L75.6967137,55.5928374 L75.6967137,46.500661 C75.6967137,44.8551857 74.7500416,43.9634659 73.4024656,43.9634659 C71.7550539,43.9634659 70.5119151,45.312823 70.5119151,47.2813364 L70.5119151,55.5928374 L67.4596555,55.5928374 L67.4596555,46.500661 C67.4596555,44.8551857 66.5938379,43.9634659 65.2159414,43.9634659 C63.6224328,43.9634659 62.2714879,45.312823 62.2714879,47.2813364 L62.2714879,55.5928374 L59.2192283,55.5928374 L59.2192283,41.6954693 L59.2158593,41.6988343 Z M89.6542321,53.8161279 C88.869269,54.8962865 87.6564507,55.8956856 85.3318821,55.8956856 C82.6333611,55.8956856 80.6591623,54.5194087 80.6591623,51.8206946 C80.6591623,48.6643432 83.1723915,47.7995433 86.3594088,47.341906 C88.4683652,47.0188679 89.6272805,46.830429 89.6272805,45.5887514 C89.6272805,44.3470737 88.6806084,43.6707127 87.0062452,43.6707127 C85.1398525,43.6707127 84.2504523,44.4009134 84.1695978,46.0194688 L81.2790473,46.0194688 C81.3599018,43.4822738 83.1151196,41.406081 86.9792937,41.406081 C90.8434679,41.406081 92.6525886,42.9438769 92.6525886,46.2079077 L92.6525886,52.2783319 C92.6525886,53.277731 92.8682008,53.7084485 93.8418245,53.5200096 L93.922679,53.5200096 L93.922679,55.488523 C93.6262123,55.6500421 93.2185706,55.7846413 92.517831,55.7846413 C90.8165164,55.7846413 89.9237473,55.2193246 89.6811836,53.8161279 L89.6542321,53.8161279 L89.6542321,53.8161279 Z M89.6811836,50.6025718 L89.6811836,48.4153347 C89.0073956,48.8191323 87.9529174,49.0883307 86.9523422,49.3070544 C84.9545608,49.7411369 83.765325,50.1180147 83.765325,51.7365701 C83.765325,53.2474462 84.7928517,53.7050835 86.0898936,53.7050835 C88.4953167,53.7050835 89.6811836,52.0596082 89.6811836,50.6025718 Z M98.5920298,43.9937508 L98.6728844,43.9937508 C99.5117504,42.5097945 100.647083,41.5945199 102.375349,41.5945199 C102.779622,41.5945199 103.025555,41.6214397 103.241167,41.7021993 L103.241167,44.4816729 L103.160312,44.4816729 C102.971652,44.4278332 102.729088,44.4009134 102.432621,44.4009134 C100.327034,44.4009134 98.6762533,45.8310299 98.6762533,48.4759043 L98.6762533,55.5995674 L95.6239937,55.5995674 L95.6239937,41.7021993 L98.5953988,41.7021993 L98.5953988,43.9971157 L98.5920298,43.9937508 Z M109.608464,48.7417378 L107.772391,50.6833313 L107.772391,55.5928374 L104.720132,55.5928374 L104.720132,36.3014061 L107.772391,36.3014061 L107.772391,47.2847014 L113.011093,41.6988343 L116.632703,41.6988343 L111.71742,46.8539839 L117.010025,55.5962024 L113.580444,55.5962024 L109.608464,48.7417378 Z M117.383977,39.1380844 L119.654643,39.1380844 L119.654643,39.5957217 L118.792194,39.5957217 L118.792194,41.914193 L118.253164,41.914193 L118.253164,39.5957217 L117.387346,39.5957217 L117.387346,39.1380844 L117.383977,39.1380844 Z M120.166721,39.1380844 L120.948316,39.1380844 L121.298685,40.3528422 C121.406491,40.7028001 121.568201,41.406081 121.568201,41.406081 L121.595152,41.406081 C121.595152,41.406081 121.756861,40.7028001 121.864667,40.3528422 L122.215037,39.1380844 L123,39.1380844 L123,41.917558 L122.514873,41.917558 L122.514873,40.9181589 C122.514873,40.4066819 122.541824,39.6495614 122.541824,39.6495614 L122.514873,39.6495614 C122.514873,39.6495614 122.353164,40.2687177 122.164503,40.8643192 L121.841085,41.914193 L121.329006,41.914193 L121.005588,40.8643192 C120.816927,40.2687177 120.655218,39.6495614 120.655218,39.6495614 L120.628266,39.6495614 C120.628266,39.6495614 120.655218,40.4066819 120.655218,40.9181589 L120.655218,41.917558 L120.17009,41.917558 L120.17009,39.1380844 L120.166721,39.1380844 Z" id="Shape"></path>
        </g>
    </g>
</svg>