<?xml version="1.0" encoding="UTF-8"?>
<svg width="24px" height="24px" viewBox="0 0 24 24" version="1.1" xmlns="http://www.w3.org/2000/svg" xmlns:xlink="http://www.w3.org/1999/xlink">
    <title>03EAB713-F875-41A3-8FD4-97347E5B0E63</title>
    <defs>
        <path d="M7,9 C7.55,9 8,9.45 8,10 L8,14 C8,14.55 7.55,15 7,15 C6.45,15 6,14.55 6,14 L6,10 C6,9.45 6.45,9 7,9 Z M13,9 C13.55,9 14,9.45 14,10 L14,14 C14,14.55 13.55,15 13,15 C12.45,15 12,14.55 12,14 L12,10 C12,9.45 12.45,9 13,9 Z M16,17 C16,17.551 15.552,18 15,18 L5,18 C4.448,18 4,17.551 4,17 L4,6 L16,6 L16,17 Z M11.5,0 C12.879,0 14,1.044 14,2.328 L14,4 L19,4 C19.55,4 20,4.45 20,5 C20,5.55 19.55,6 19,6 L18,6 L18,17 C18,18.654 16.654,20 15,20 L5,20 C3.346,20 2,18.654 2,17 L2,6 L1,6 C0.45,6 0,5.55 0,5 C0,4.45 0.45,4 1,4 L6,4 L6,2.328 C6,1.044 7.121,0 8.5,0 Z M11.5,2 L8.5,2 C8.214,2 8,2.173 8,2.328 L8,4 L12,4 L12,2.328 C12,2.173 11.786,2 11.5,2 Z" id="path-1"></path>
    </defs>
    <g id="Icon-App/Function/Delete" stroke="none" stroke-width="1" fill="none" fill-rule="evenodd">
        <g id="24x24-Spacers">
            <rect id="Rectangle" x="0" y="0" width="24" height="24"></rect>
        </g>
        <g id="Trash" transform="translate(2, 2)">
            <mask id="mask-2" fill="white">
                <use xlink:href="#path-1"></use>
            </mask>
            <use id="🎨-Icon-Сolor" fill="#005EB9" xlink:href="#path-1"></use>
        </g>
    </g>
</svg>