<?xml version="1.0" encoding="UTF-8"?>
<svg width="40px" height="40px" viewBox="0 0 50 50" version="1.1" xmlns="http://www.w3.org/2000/svg" xmlns:xlink="http://www.w3.org/1999/xlink">
    <title>Icon-Enterprise/Primary/Dental</title>
    <g id="Icon-Enterprise/Primary/Dental" stroke="none" stroke-width="1" fill="none" fill-rule="evenodd">
        <g id="Icon-Dental" fill-rule="nonzero">
            <g id="Group-264" transform="translate(0.02, 11.013)">
                <path d="M28.3599992,26.087 L28.3599992,29.5570012 L0.670000017,29.5570012 C0.299969196,29.5570012 0,29.8569699 0,30.2269994 L0,34.9870015 C0,35.1638661 0.070925951,35.3332654 0.196885467,35.4573156 C0.322776884,35.5813314 0.493230939,35.6496793 0.669999957,35.6470772 L44.1499982,35.6470772 C45.4312978,35.6470772 46.4699979,34.6083013 46.4699979,33.3270017 L46.4699979,26.087 L28.3599992,26.087 Z" id="Path-383" fill="#5DC1FD"></path>
                <path d="M49.2000013,10.8270002 L31.7600008,10.8270002 C29.6800008,10.8270002 28.06,8.13699962 28.06,6.12699939 L28.06,0.737 C28.5800005,1.93700013 29.9800001,2.57366674 32.2599989,2.64699985 L45.2599989,2.64699985 C49.4699979,2.64699985 49.2599989,6.33700038 49.2599989,8.69699908 L49.2000013,10.8270002 Z" id="Path-384" fill="#FFFFFF"></path>
                <path d="M45.7696888,6.56715523 C44.8562328,5.77872215 43.6612217,5.39602981 42.4596912,5.50715576 C42.3496868,5.50715576 33.1996891,5.50715576 29.9496872,5.44715629 C27.0296871,5.38715683 26.2996876,3.92715584 26.2996876,3.8771566 C26.2743389,3.77132355 26.2059242,3.68089519 26.1109707,3.62772308 C26.0160191,3.57455002 25.9031689,3.56346928 25.7996876,3.59715782 C25.587516,3.63743626 25.4404709,3.83205257 25.4596855,4.04715668 L25.4596874,9.25715576 C25.4596874,12.4471563 26.939687,14.2571558 29.4596874,14.2571558 L45.7596867,14.2571558 C46.3396885,14.2571558 46.7596867,13.8871549 46.7596867,13.1471552 L46.7596867,10.5471548 C46.8096859,9.14715515 46.8096859,7.54715477 45.7596867,6.54715477" id="Path-385" fill="#5DC1FD"></path>
                <g id="Group-262" transform="translate(27.32, 0)">
                    <path d="M21.8800013,10.8270002 L4.44000076,10.8270002 C2.1300013,10.8270002 0.74,8.90700008 0.74,6.12699939 L0.74,0.737 C1.26000046,1.93700013 2.66000008,2.57366674 4.93999886,2.64699985 L17.9399989,2.64699985 C22.1499979,2.64699985 21.9399989,5.33700038 21.9399989,7.69699908 L21.8800013,10.8270002 Z" id="Path-386" fill="#FFFFFF"></path>
                    <path d="M21.8800098,11.5665153 L4.44000925,11.5665153 C1.7800094,11.5665153 0,9.37651472 0,6.12651472 L0,0.736515329 C-0.00169264355,0.385990426 0.245988021,0.0837357496 0.590010771,0.0165150618 C0.931088576,-0.0566079165 1.27691568,0.118390367 1.42000879,0.436516092 C1.42000879,0.486515329 2.12000955,1.80651502 4.97000993,1.90651541 L17.9000102,1.90651541 C19.2105152,1.79076032 20.5122386,2.20904188 21.5100147,3.0665143 C22.6600086,4.2065156 22.6600086,5.87651472 22.6600086,7.35651617 L22.6600086,10.8265155 C22.6574718,11.0289977 22.573167,11.2218478 22.4262668,11.3612178 C22.2793628,11.5005877 22.0823451,11.5746329 21.8800136,11.5665172 L21.8800098,11.5665153 Z M1.48000825,2.4765151 L1.48000825,6.12651472 C1.48000825,8.03651457 2.26001085,10.1265147 4.48000825,10.1265147 L21.1800128,10.1265147 L21.1800128,7.34651594 C21.1800128,6.10651617 21.1800128,4.81651621 20.5000125,4.1165164 C19.7741519,3.54938154 18.855817,3.28751211 17.9400112,3.3865159 L4.94001115,3.38651685 C3.72690881,3.3912528 2.53381456,3.07746248 1.48000825,2.4765151 L1.48000825,2.4765151 Z" id="Path-387" fill="#161616"></path>
                </g>
                <path d="M35.9,21.927 C35.4880394,21.9216079 35.1553902,21.5889587 35.15,21.1769981 L35.15,13.1769981 C35.15,12.7627868 35.4857849,12.427 35.9,12.427 C36.3142151,12.427 36.65,12.7627868 36.65,13.177 L36.65,21.1769981 C36.65,21.5912132 36.3142151,21.927 35.9,21.927 Z" id="Path-388" fill="#161616"></path>
                <path d="M32.91,21.6569962 C32.4980394,21.6516098 32.1653864,21.3189568 32.16,20.907 L32.16,14.1569981 C32.16,13.7427868 32.4957849,13.407 32.91,13.407 C33.3242151,13.407 33.66,13.7427868 33.66,14.157 L33.66,20.907 C33.6546098,21.3189568 33.3219606,21.651606 32.91,21.6569962 L32.91,21.6569962 Z" id="Path-389" fill="#161616"></path>
                <path d="M29.92,21.6569962 C29.5057887,21.6569962 29.17,21.3212113 29.17,20.907 L29.17,13.1569981 C29.17,12.7427868 29.5057887,12.407 29.9200019,12.407 C30.3342151,12.407 30.67,12.7427868 30.67,13.157 L30.67,20.907 C30.6646136,21.3189606 30.3319606,21.6516098 29.9199981,21.6569962 L29.92,21.6569962 Z" id="Path-390" fill="#161616"></path>
                <path d="M44.88,21.6569962 C44.4680394,21.6516098 44.1353864,21.3189568 44.13,20.907 L44.13,14.1569981 C44.13,13.7427868 44.4657849,13.407 44.88,13.407 C45.2942151,13.407 45.63,13.7427868 45.63,14.157 L45.63,20.907 C45.63,21.3212075 45.2942151,21.6569962 44.8800038,21.6569962 L44.88,21.6569962 Z" id="Path-391" fill="#161616"></path>
                <path d="M47.87,21.6569962 C47.4580356,21.6516098 47.1253864,21.3189568 47.12,20.907 L47.12,13.1569981 C47.12,12.7427868 47.4557849,12.407 47.87,12.407 C48.2842151,12.407 48.62,12.7427868 48.62,13.157 L48.62,20.907 C48.62,21.3212075 48.2842151,21.6569962 47.8700038,21.6569962 L47.87,21.6569962 Z" id="Path-392" fill="#161616"></path>
                <path d="M41.89,21.6569962 C41.4757849,21.6569962 41.14,21.3212113 41.14,20.907 L41.14,13.1569981 C41.14,12.7427868 41.4757849,12.407 41.89,12.407 C42.3042151,12.407 42.64,12.7427868 42.64,13.157 L42.64,20.907 C42.6346098,21.3189568 42.3019606,21.651606 41.89,21.6569962 L41.89,21.6569962 Z" id="Path-393" fill="#161616"></path>
                <path d="M38.9,21.6569962 C38.4857849,21.6569962 38.15,21.3212113 38.15,20.907 L38.15,14.1569981 C38.15,13.7427868 38.4857849,13.407 38.9,13.407 C39.3142151,13.407 39.65,13.7427868 39.65,14.157 L39.65,20.907 C39.6446098,21.3189568 39.3119606,21.6516098 38.9,21.6569962 L38.9,21.6569962 Z" id="Path-394" fill="#161616"></path>
                <g id="Group-263" transform="translate(2.05, 20.747)">
                    <path d="M26.0799997,0.74 L26.0799997,5.24 L0.74,5.24 L0.74,11.3200018 L44.9300001,11.3200018 C46.2279165,11.3035414 47.2666776,10.2379134 47.2502015,8.93999695 L47.2502015,0.74 L26.0799997,0.74 Z" id="Path-395" fill="#FFFFFF"></path>
                    <path d="M44.9300001,12.0400028 L0.74000001,12.0400028 C0.331309319,12.0400028 0,11.7086887 0,11.2999973 L0,5.23999977 C0,4.83130836 0.331309319,4.5 0.740000248,4.5 L25.3399999,4.5 L25.3399999,0.739999771 C25.3400018,0.331308365 25.6713102,0 26.0800016,0 L47.2099988,0 C47.6186941,0 47.9501571,0.331308365 47.9501571,0.739999771 L47.9501571,8.92000008 C47.9668577,10.6112461 46.6208951,12.0017719 44.9300001,12.0400028 L44.9300001,12.0400028 Z M1.48000002,10.5599995 L44.9300001,10.5599995 C45.8168714,10.538168 46.5212247,9.80706978 46.5101342,8.92000008 L46.5101342,1.48000145 L26.8199995,1.48000145 L26.8199995,5.23999977 C26.8200014,5.64869118 26.488693,5.98000145 26.0800016,5.98000145 L1.48000002,5.98000145 L1.48000002,10.5599995 Z" id="Path-396" fill="#161616"></path>
                </g>
            </g>
            <g id="Group-266" transform="translate(19.14, 3.05)">
                <path d="M9.31,5.3099997 C8.89578682,5.3099997 8.56,4.97421288 8.56,4.5599997 L8.56,0.75 C8.56,0.335786343 8.89578682,0 9.31,0 C9.72421318,0 10.06,0.335786581 10.06,0.750000238 L10.06,4.56000018 C10.0546156,4.97196221 9.72196251,5.30461526 9.31,5.3099997 Z" id="Path-397" fill="#161616"></path>
                <path d="M4.56000137,9.83 L0.75,9.83 C0.335786819,9.83 0,9.49421413 0,9.08000095 C0,8.66578777 0.335786819,8.33 0.75,8.33 L4.56000137,8.33 C4.97421455,8.33 5.31000137,8.66578777 5.31000137,9.08000095 C5.31000137,9.49421413 4.97421455,9.83 4.56000137,9.83 L4.56000137,9.83 Z" id="Path-398" fill="#161616"></path>
                <g id="Group-265" transform="translate(2.391, 2.491)">
                    <line x1="0.759000916" y1="0.768999943" x2="3.45900096" y2="3.459" id="Line-14" fill="#FFFFFF"></line>
                    <path d="M3.46872431,4.20872521 C3.2689715,4.21323419 3.0765639,4.13336682 2.93872172,3.98872495 L0.238722861,1.29872489 C0.0380735999,1.1117537 -0.0445203179,0.830169439 0.0233431464,0.564437627 C0.0912066108,0.298706293 0.298705161,0.0912077423 0.564436973,0.0233433242 C0.830168784,-0.0445206169 1.11175257,0.0380737777 1.29872423,0.23872447 L3.99872309,2.92872453 C4.29117686,3.22154164 4.29117686,3.69590688 3.998725,3.98872399 C3.85884196,4.13036084 3.66779238,4.20966554 3.46872431,4.20872617 L3.46872431,4.20872521 Z" id="Path-399" fill="#161616"></path>
                </g>
            </g>
            <g id="50x50-Spacers">
                <rect id="Rectangle-158" x="0" y="0" width="50" height="50"></rect>
            </g>
        </g>
    </g>
</svg>