<?xml version="1.0" encoding="UTF-8"?>
<svg width="24px" height="24px" viewBox="0 0 24 24" version="1.1" xmlns="http://www.w3.org/2000/svg" xmlns:xlink="http://www.w3.org/1999/xlink">
    <title>Icon-App/Label/Dental</title>
    <g id="Icon-App/Label/Dental" stroke="none" stroke-width="1" fill="none" fill-rule="evenodd">
        <g id="24x24-Spacers">
            <rect id="Rectangle" x="0" y="0" width="24" height="24"></rect>
        </g>
        <path d="M15,10.9192 C15.3796958,10.9192 15.693491,11.2013539 15.7431534,11.5674294 L15.75,11.6692 L15.75,17.9991 L21.658,18 C22.2102847,18 22.658,18.4477153 22.658,19 C22.658,19.5128358 22.2719598,19.9355072 21.7746211,19.9932723 L21.658,20 L2,20 C1.44771525,20 1,19.5522847 1,19 C1,18.4871642 1.38604019,18.0644928 1.88337887,18.0067277 L2,18 L2.25,17.9991 L2.25,11.6692 C2.25,11.2549864 2.58578644,10.9192 3,10.9192 C3.37969577,10.9192 3.69349096,11.2013539 3.74315338,11.5674294 L3.75,11.6692 L3.75,17.9991 L5.25,17.9991 L5.25,12.6692 C5.25,12.2549864 5.58578644,11.9192 6,11.9192 C6.37969577,11.9192 6.69349096,12.2013539 6.74315338,12.5674294 L6.75,12.6692 L6.75,17.9991 L8.25,17.9991 L8.25,11.6692 C8.25,11.2549864 8.58578644,10.9192 9,10.9192 C9.37969577,10.9192 9.69349096,11.2013539 9.74315338,11.5674294 L9.75,11.6692 L9.75,17.9991 L11.25,17.9991 L11.25,12.6692 C11.25,12.2549864 11.5857864,11.9192 12,11.9192 C12.3796958,11.9192 12.693491,12.2013539 12.7431534,12.5674294 L12.75,12.6692 L12.75,17.9991 L14.25,17.9991 L14.25,11.6692 C14.25,11.2549864 14.5857864,10.9192 15,10.9192 Z M2.2666,9.0081 C2.2666,9.0081 2.0276,5.7531 4.2156,5.5551 C6.4046,5.3561 13.2876,5.6151 14.0446,5.5551 C15.1226,5.4741 15.9866,5.0001 15.9866,5.0001 C15.9866,5.0001 16.3476,9.0081 14.2756,9.0081 L2.2666,9.0081 Z" id="Combined-Shape" fill="#005EB9"></path>
    </g>
</svg>