<?xml version="1.0" encoding="UTF-8"?>
<svg width="24px" height="24px" viewBox="0 0 24 24" version="1.1" xmlns="http://www.w3.org/2000/svg" xmlns:xlink="http://www.w3.org/1999/xlink">
    <title>Icon-App/Label/Document-File</title>
    <defs>
        <path d="M15,16 C15.553,16 16,16.448 16,17 C16,17.552 15.553,18 15,18 L9,18 C8.448,18 8,17.552 8,17 C8,16.448 8.448,16 9,16 Z M12,12 C12.552,12 13,12.448 13,13 C13,13.552 12.552,14 12,14 L9,14 C8.448,14 8,13.552 8,13 C8,12.448 8.448,12 9,12 Z M17.4443,20 L6.5553,20 C6.2493,20 6.0003,19.776 6.0003,19.5 L6.0003,4.5 C6.0003,4.224 6.2493,4 6.5553,4 L12.0003,4 L12.0003,7.15 C12.0003,8.722 13.2173,10 14.7143,10 L18.0003,10 L18.0003,19.5 C18.0003,19.776 17.7513,20 17.4443,20 L17.4443,20 Z M13.5553,2 C13.8383,2 14.1063,2.119 14.2963,2.328 L19.7403,8.328 C19.9073,8.512 20.0003,8.751 20.0003,9 L20.0003,19.5 C20.0003,20.878 18.8533,22 17.4443,22 L6.5553,22 C5.1463,22 4.0003,20.878 4.0003,19.5 L4.0003,4.5 C4.0003,3.122 5.1463,2 6.5553,2 Z M14.0003,4.978 L14.0003,7.15 C14.0003,7.619 14.3203,8 14.7143,8 L16.7423,8 L14.0003,4.978 Z" id="path-1"></path>
    </defs>
    <g id="Icon-App/Label/Document-File" stroke="none" stroke-width="1" fill="none" fill-rule="evenodd">
        <g id="24x24-Spacers">
            <rect id="Rectangle" x="0" y="0" width="24" height="24"></rect>
        </g>
        <mask id="mask-2" fill="white">
            <use xlink:href="#path-1"></use>
        </mask>
        <use id="🎨-Icon-Сolor" fill="#005EB9" xlink:href="#path-1"></use>
    </g>
</svg>