<svg width="32" height="40" viewBox="0 0 32 40" fill="none" xmlns="http://www.w3.org/2000/svg">
<g id="Empty State/ Graphic Icon / Illustration / Document" clip-path="url(#clip0_5753_86032)">
<path id="Fill 1" d="M9.38948 3.43433H25.9398C26.402 3.43561 26.845 3.61982 27.1719 3.9467C27.4988 4.27358 27.683 4.71656 27.6843 5.17883V38.2582C27.6828 38.7203 27.4985 39.1631 27.1716 39.4898C26.8447 39.8165 26.4019 40.0006 25.9398 40.0018H2.55896C2.09646 40.0008 1.65321 39.8165 1.32626 39.4894C0.9993 39.1623 0.81527 38.719 0.814453 38.2565L0.814453 11.7903L9.38948 3.43433Z" fill="#DCDFE1"/>
<path id="Combined Shape" d="M5.39721 37.8907C4.75921 37.89 4.14753 37.6363 3.69631 37.1852C3.24509 36.7342 2.99117 36.1226 2.99023 35.4846V8.73888L11.9583 0H28.778C29.4161 0.00081848 30.0277 0.254701 30.4788 0.705945C30.9299 1.15719 31.1835 1.76894 31.1841 2.40698V35.4864C31.1835 36.1244 30.9299 36.7361 30.4788 37.1872C30.0277 37.6384 29.416 37.8922 28.778 37.8929L5.39721 37.8907ZM4.31518 35.4846C4.31564 35.7713 4.42982 36.0462 4.63267 36.2489C4.83551 36.4516 5.11046 36.5655 5.39721 36.5658H28.778C29.0647 36.5654 29.3394 36.4514 29.5421 36.2487C29.7448 36.046 29.8588 35.7712 29.8592 35.4846V2.40698C29.8589 2.12023 29.745 1.84528 29.5423 1.64243C29.3396 1.43959 29.0648 1.32541 28.778 1.32494H13.5014V6.84995C13.4996 7.60334 13.2102 8.32761 12.6924 8.87479C12.1745 9.42196 11.4672 9.75075 10.7151 9.79397L10.5539 9.79839H4.31518V35.4846ZM10.5552 8.47345C10.9623 8.47142 11.3538 8.3173 11.6531 8.04135C11.9523 7.7654 12.1376 7.38756 12.1725 6.982L12.1778 6.84951V1.6341L5.16005 8.47345H10.5552ZM7.43762 32.8586C7.3046 32.8584 7.1765 32.8083 7.07875 32.718C6.98101 32.6278 6.92076 32.5042 6.90997 32.3716C6.89918 32.239 6.93864 32.1072 7.02052 32.0024C7.10239 31.8975 7.2207 31.8273 7.35194 31.8057L7.43762 31.7986H27.1757C27.3087 31.7988 27.4368 31.8489 27.5346 31.9391C27.6323 32.0293 27.6926 32.153 27.7034 32.2856C27.7142 32.4182 27.6747 32.55 27.5928 32.6548C27.511 32.7596 27.3927 32.8298 27.2614 32.8515L27.1757 32.8586H7.43762ZM7.43762 28.3825C7.3046 28.3823 7.1765 28.3322 7.07875 28.2419C6.98101 28.1517 6.92076 28.0281 6.90997 27.8955C6.89918 27.7629 6.93864 27.6311 7.02052 27.5263C7.10239 27.4214 7.2207 27.3512 7.35194 27.3296L7.43762 27.3225H27.1757C27.3087 27.3227 27.4368 27.3728 27.5346 27.463C27.6323 27.5532 27.6926 27.6769 27.7034 27.8095C27.7142 27.9421 27.6747 28.0739 27.5928 28.1787C27.511 28.2835 27.3927 28.3538 27.2614 28.3754L27.1757 28.3825H7.43762ZM19.9124 23.2788C19.7791 23.2793 19.6506 23.2296 19.5523 23.1396C19.4541 23.0496 19.3933 22.9259 19.3822 22.7931C19.371 22.6603 19.4103 22.5282 19.4922 22.4231C19.5741 22.318 19.6926 22.2476 19.8241 22.2259L19.9124 22.2193H27.1753C27.3083 22.2194 27.4364 22.2696 27.5342 22.3598C27.6319 22.45 27.6922 22.5737 27.7029 22.7063C27.7137 22.8389 27.6743 22.9706 27.5924 23.0755C27.5105 23.1803 27.3922 23.2505 27.261 23.2722L27.1753 23.2788H19.9124ZM10.1215 22.1623C9.98096 22.1623 9.84615 22.1065 9.74676 22.0071C9.64737 21.9077 9.59154 21.7729 9.59154 21.6323V19.031H7.14967C7.0239 19.0316 6.90208 18.9871 6.80619 18.9057C6.7103 18.8243 6.64667 18.7114 6.62676 18.5872L6.62013 18.5015V14.6693C6.62013 14.5997 6.63384 14.5308 6.66048 14.4665C6.68711 14.4022 6.72615 14.3438 6.77536 14.2946C6.82457 14.2454 6.883 14.2063 6.9473 14.1797C7.0116 14.153 7.08051 14.1393 7.15011 14.1393H9.5911V11.5376C9.5911 11.412 9.63573 11.2904 9.71703 11.1947C9.79832 11.0989 9.911 11.0351 10.035 11.0147L10.1206 11.0081H13.6432C13.7838 11.0081 13.9186 11.0639 14.018 11.1633C14.1174 11.2627 14.1732 11.3975 14.1732 11.538V14.1398H16.6159C16.7416 14.1398 16.8631 14.1844 16.9589 14.2657C17.0547 14.347 17.1184 14.4597 17.1388 14.5836L17.1455 14.6693V18.501C17.1455 18.5706 17.1318 18.6396 17.1051 18.7039C17.0785 18.7682 17.0395 18.8266 16.9902 18.8758C16.941 18.925 16.8826 18.9641 16.8183 18.9907C16.754 19.0173 16.6851 19.031 16.6155 19.031H14.1736V21.6323C14.1736 21.758 14.129 21.8795 14.0477 21.9753C13.9664 22.071 13.8537 22.1348 13.7298 22.1552L13.6441 22.1619L10.1215 22.1623ZM7.6792 17.9711H10.1215C10.2474 17.9711 10.3691 18.016 10.465 18.0977C10.5608 18.1793 10.6244 18.2924 10.6444 18.4167L10.651 18.5024V21.1041H13.1132V18.5024C13.1132 18.3767 13.1579 18.2552 13.2392 18.1594C13.3205 18.0637 13.4331 17.9999 13.5571 17.9795L13.6428 17.9728H16.0846V15.1993H13.6441C13.5183 15.1998 13.3965 15.1554 13.3006 15.074C13.2047 14.9926 13.1411 14.8796 13.1212 14.7554L13.1146 14.6698V12.0685H10.651V14.6698C10.6516 14.7955 10.6071 14.9173 10.5258 15.0132C10.4444 15.1091 10.3314 15.1728 10.2072 15.1927L10.1215 15.1993H7.6792V17.9711ZM19.9128 17.9172C19.7796 17.9177 19.651 17.868 19.5528 17.778C19.4545 17.688 19.3938 17.5643 19.3826 17.4315C19.3715 17.2987 19.4108 17.1666 19.4927 17.0615C19.5745 16.9564 19.693 16.886 19.8245 16.8643L19.9128 16.8572H27.1753C27.3083 16.8574 27.4364 16.9075 27.5342 16.9978C27.6319 17.088 27.6922 17.2116 27.7029 17.3442C27.7137 17.4768 27.6743 17.6086 27.5924 17.7134C27.5105 17.8183 27.3922 17.8885 27.261 17.9101L27.1753 17.9172H19.9128ZM20.1262 12.7561C19.9929 12.7566 19.8643 12.7069 19.7661 12.6169C19.6678 12.5269 19.6071 12.4032 19.5959 12.2704C19.5848 12.1376 19.6241 12.0055 19.706 11.9004C19.7879 11.7953 19.9063 11.7249 20.0378 11.7032L20.1262 11.6961H27.1757C27.3087 11.6963 27.4368 11.7465 27.5346 11.8367C27.6323 11.9269 27.6926 12.0506 27.7034 12.1831C27.7142 12.3157 27.6747 12.4475 27.5928 12.5523C27.511 12.6572 27.3927 12.7274 27.2614 12.749L27.1757 12.7561H20.1262Z" fill="#979EA6"/>
</g>
<defs>
<clipPath id="clip0_5753_86032">
<rect width="30.3703" height="40" fill="white" transform="translate(0.814453)"/>
</clipPath>
</defs>
</svg>
