<?xml version="1.0" encoding="UTF-8"?>
<svg width="192px" height="56px" viewBox="0 0 192 56" version="1.1" xmlns="http://www.w3.org/2000/svg" xmlns:xlink="http://www.w3.org/1999/xlink">
    <title>Logos/Groups/Dollar-General</title>
    <g id="Logos/Groups/Dollar-General" stroke="none" stroke-width="1" fill="none" fill-rule="evenodd">
        <g id="Dollar_General_logo" transform="translate(0, 11)" fill-rule="nonzero">
            <g id="Group" transform="translate(96, 17) scale(-1, 1) rotate(-180) translate(-96, -17)translate(-0, 0)">
                <g transform="translate(0, 0)">
                    <path d="M188.089605,34 C190.27104,34 192,32.2832444 192,30.0776381 L192,3.92587886 C192,1.70570242 190.27104,0 188.089605,0 L187.830688,0 C157.244339,1.84788616 126.617771,2.7738389 95.9992459,2.7738389 C65.3756936,2.7738389 34.7541523,1.84788616 4.16579253,0 L3.90637315,0 C1.73800926,0 6.1967128e-14,1.70570242 6.1967128e-14,3.92587886 L6.1967128e-14,30.0776381 C6.1967128e-14,32.2832444 1.73800926,34 3.90637315,34 C4.00139304,34 4.0763029,33.9889468 4.16579253,33.9889468 C34.7531468,32.1516114 65.3766991,31.2367118 95.9992459,31.2367118 C126.618776,31.2367118 157.244339,32.1516114 187.830688,33.9889468 C187.918167,33.9889468 188.005645,34 188.089605,34" id="Path" fill="#CACBCC"></path>
                    <path d="M188.089605,32.6133318 C188.034805,32.6133318 187.972967,32.6133318 187.918167,32.6022786 C157.441418,30.7689625 126.516215,29.8465267 95.9992459,29.8465267 C65.4742327,29.8465267 34.555063,30.7689625 4.08836891,32.6022786 C4.02451957,32.6133318 3.96620049,32.6133318 3.9058704,32.6133318 C2.49414636,32.6133318 1.39261951,31.4944513 1.39261951,30.0761308 L1.39261951,3.92437161 C1.39261951,2.51007049 2.49414636,1.39068757 3.9058704,1.39068757 C3.96620049,1.39068757 4.02451957,1.39068757 4.07580015,1.40174072 C34.5545602,3.22802299 65.47373,4.15749265 95.9987431,4.15749265 C126.522751,4.15749265 157.440915,3.22802299 187.906604,1.40174072 C187.972464,1.39068757 188.034302,1.39068757 188.089102,1.39068757 C189.500826,1.39068757 190.613413,2.51007049 190.613413,3.92437161 L190.613413,30.0761308 C190.613413,30.7689625 190.346956,31.4065285 189.872862,31.8808092 C189.402287,32.3470513 188.771335,32.6133318 188.089102,32.6133318" id="Path" fill="#FFEE00"></path>
                    <path d="M100.711528,9.82092711 C96.5060387,9.82092711 94.07361,12.4457976 94.07361,16.9992142 C94.07361,21.0270634 95.870964,24.1727505 100.346974,24.1727505 C101.718478,24.1727505 103.087569,23.779419 103.955759,23.2071471 L104.414517,23.9105295 L106.672149,23.9105295 L106.672149,16.8091804 L101.419973,16.8091804 L101.419973,19.011933 L102.912539,19.011933 L102.912539,20.9179789 C102.489223,21.114926 101.835928,21.2633919 101.259736,21.2633919 C99.1546985,21.2633919 98.1410726,19.7364491 98.1410726,16.8531438 C98.1410726,14.2360788 99.0860026,12.7270622 100.497727,12.7270622 C101.610294,12.7270622 102.142084,13.448403 102.43014,14.7712925 L106.406616,14.0945984 C105.833987,11.2986733 103.826902,9.82092711 100.711376,9.82092711 L100.711528,9.82092711 Z M31.2659672,9.82254288 C27.0891141,9.82254288 24.8119349,12.7703986 24.8119349,16.9992142 C24.8119349,21.2420975 27.0891141,24.1727505 31.2659672,24.1727505 C35.4443486,24.1727505 37.7199995,21.2420975 37.7199995,16.9992142 C37.7199995,12.7703986 35.4442681,9.82254288 31.2659672,9.82254288 L31.2659672,9.82254288 Z M10.1423926,10.0800291 L10.1423926,12.7711301 L11.5453487,12.7711301 L11.5453487,23.9102964 L16.1596351,23.9102964 C20.6205222,23.9102964 23.9036051,22.3756365 23.9036051,17.1339501 C23.9036051,11.3998961 20.9936839,10.0797075 15.7461729,10.0797075 L10.1420709,10.0797075 L10.1423926,10.0800291 Z M39.1796658,10.0800291 L39.1796658,23.9105376 L48.6474675,23.9105376 L48.8218617,21.2241793 L43.0025019,21.2241793 L43.0025019,10.0801899 L39.1799876,10.0801899 L39.1796658,10.0800291 Z M50.0205803,10.0800291 L50.0205803,23.9105376 L59.4891864,23.9105376 L59.6635806,21.2241793 L53.8442208,21.2241793 L53.8442208,10.0801899 L50.0201781,10.0801899 L50.0205803,10.0800291 Z M64.5923074,10.0800291 L63.8413265,12.7711301 L60.2058354,23.9102964 L63.9450138,23.9102964 L64.6881437,21.3777981 L69.299293,21.3777981 L70.1304003,23.9102964 L74.1351115,23.9102964 L69.1453306,10.0797879 L64.5922591,10.0797879 L64.5923074,10.0800291 Z M75.2738861,10.080021 L75.2802248,23.9105376 L79.0995215,23.9105376 L79.0995215,19.3181335 L80.1285919,19.3181335 L81.660413,21.7925123 C82.2074058,22.6677613 82.6664776,23.1669618 83.170274,23.5352931 C83.7393878,23.9322017 84.4409061,24.1507487 85.3744941,24.1507487 C86.1150419,24.1507487 86.9935123,23.91147 87.4530667,23.6451895 L87.6903007,21.1362445 C87.4313881,21.3075643 87.0413742,21.4643824 86.5999349,21.4643824 C86.0308211,21.4643824 85.7023037,21.2639787 85.2865087,20.6118829 L84.1741828,18.8392788 C85.724666,18.2017168 86.7743291,16.7844374 86.7743291,14.5828905 C86.7743291,12.905866 86.0966855,11.6118835 84.7397572,10.8462015 C83.7840482,10.2995728 82.3826205,10.080021 80.4601017,10.080021 L75.2738861,10.080021 L75.2738861,10.080021 Z M108.409648,10.0799487 L108.409648,23.9105376 L118.002936,23.9105376 L118.177322,21.2241793 L112.235452,21.2241793 L112.235452,18.2238312 L116.692639,18.2238312 L116.692639,15.5562834 L112.235452,15.5562834 L112.235452,12.7710497 L117.680846,12.7710497 L117.680846,10.0799487 L108.410122,10.0799487 L108.409648,10.0799487 Z M119.493491,10.0799487 L119.493491,23.9105376 L122.638861,23.9105376 L122.638861,16.3726894 C122.751976,16.6570568 122.989089,16.9994554 123.237448,17.2833084 L128.829001,23.9105376 L131.23593,23.9105376 L131.23593,10.0799487 L128.109464,10.0799487 L128.109464,17.6774437 C127.978242,17.3749893 127.738748,17.0281373 127.476312,16.7181104 L121.828209,10.0799487 L119.493491,10.0799487 L119.493491,10.0799487 Z M133.245534,10.0799487 L133.245534,23.9105376 L142.843648,23.9105376 L143.022748,21.2241793 L137.077741,21.2241793 L137.077741,18.2238312 L141.527045,18.2238312 L141.527045,15.5562834 L137.077741,15.5562834 L137.077741,12.7710497 L142.515332,12.7710497 L142.515332,10.0799487 L133.246217,10.0799487 L133.245534,10.0799487 Z M144.335812,10.080021 L144.335812,23.9105376 L148.161464,23.9105376 L148.161464,19.3181335 L149.182651,19.3181335 L150.719218,21.7925123 C151.266211,22.6677613 151.726168,23.1669618 152.225862,23.5352931 C152.798997,23.9322017 153.494,24.1507487 154.442711,24.1507487 C155.183259,24.1507487 156.055455,23.91147 156.515009,23.6451895 L156.760102,21.1362445 C156.493644,21.3075643 156.099801,21.4643824 155.661934,21.4643824 C155.09282,21.4643824 154.764302,21.2639787 154.348507,20.6118829 L153.236181,18.8392788 C154.786665,18.2017168 155.836328,16.7844374 155.836328,14.5828905 C155.836328,12.9057856 155.162199,11.6118835 153.801756,10.8462015 C152.838485,10.2995728 151.441804,10.080021 149.515826,10.080021 L144.335812,10.080021 L144.335812,10.080021 Z M161.698007,10.0800291 L160.950163,12.7711301 L157.317809,23.9102964 L161.056988,23.9102964 L161.796981,21.3777981 L166.41915,21.3777981 L167.250257,23.9102964 L171.248694,23.9102964 L166.265188,10.0797879 L161.698039,10.0797879 L161.698007,10.0800291 Z M172.214748,10.0800291 L172.214748,23.9105376 L181.683354,23.9105376 L181.851466,21.2241793 L176.044655,21.2241793 L176.044655,10.0801899 L172.214338,10.0801899 L172.214748,10.0800291 Z M31.259532,12.7520785 C32.7914335,12.7520785 33.6460293,14.0207393 33.6460293,16.9990615 C33.6460293,19.9990077 32.7914335,21.2429094 31.259532,21.2429094 C29.7291588,21.2429094 28.8746434,19.9990077 28.8746434,16.9990615 C28.8746434,14.0207393 29.7291588,12.7520785 31.259532,12.7520785 Z M15.3677826,12.7709211 L16.1957527,12.7709211 C18.5375254,12.7709211 19.8721073,13.4308466 19.8721073,16.8719221 C19.8721073,19.6025733 19.3927969,21.2429416 16.5241093,21.2429416 L15.3677826,21.2429416 L15.3677826,12.7709211 L15.3677826,12.7709211 Z M79.0932472,12.7709131 L80.1882785,12.7709131 C81.2389873,12.7709131 81.9207173,12.8696438 82.3108518,13.2670589 C82.6391521,13.6021745 82.8136025,14.0932721 82.8136025,14.7931175 C82.8136025,16.2838059 82.2268321,16.937831 80.7130698,16.937831 L79.0932472,16.937831 L79.0932472,12.7709131 L79.0932472,12.7709131 Z M148.155109,12.7709131 L149.242338,12.7709131 C150.296586,12.7709131 150.97542,12.8696438 151.369577,13.2670589 C151.697869,13.6021745 151.872327,14.0932721 151.872327,14.7931175 C151.872327,16.2838059 151.282034,16.937831 149.771795,16.937831 L148.155109,16.937831 L148.155109,12.7709131 L148.155109,12.7709131 Z M66.8140634,13.4091904 L66.8533423,13.4091904 C66.8789786,13.9633593 67.1164056,14.7069511 67.371803,15.4942571 L68.4480113,18.8149458 L65.407938,18.8149458 L66.375713,15.4801895 C66.6054661,14.6491532 66.788403,13.8976192 66.8140473,13.4092708 L66.8140634,13.4091904 Z M163.921372,13.4091904 L163.965373,13.4091904 C163.994492,13.9633593 164.23278,14.7069511 164.491692,15.4942571 L165.563155,18.8149458 L162.527827,18.8149458 L163.484582,15.4801895 C163.728919,14.6491532 163.899227,13.8976192 163.921348,13.4092708 L163.921372,13.4091904 Z" id="Shape" fill="#1C1B1B" transform="translate(95.9968, 16.9968) scale(-1, 1) rotate(-180) translate(-95.9968, -16.9968)"></path>
                </g>
            </g>
        </g>
    </g>
</svg>