<?xml version="1.0" encoding="UTF-8"?>
<svg width="24px" height="24px" viewBox="0 0 24 24" version="1.1" xmlns="http://www.w3.org/2000/svg" xmlns:xlink="http://www.w3.org/1999/xlink">
    <title>A7832871-9EF2-48C2-9108-11C27C899865</title>
    <g id="Icon-App/Label/Dollar" stroke="none" stroke-width="1" fill="none" fill-rule="evenodd">
        <g id="24x24-Spacers">
            <rect id="Rectangle" x="0" y="0" width="24" height="24"></rect>
        </g>
        <path d="M17.314435,13.836495 L17.314435,13.836495 C16.784335,12.126495 15.750735,11.337995 12.711685,10.325295 C10.272085,9.483595 10.177085,9.180545 9.988035,8.578245 C9.963335,8.498445 9.915835,7.937945 10.299635,7.411645 C10.682485,6.884395 11.356985,6.614595 12.308885,6.609845 C13.210435,6.594645 13.798485,6.773245 14.136685,7.121895 C14.440685,7.432545 14.446385,7.841045 14.446385,7.841045 C14.425485,8.199195 14.543285,8.544045 14.780785,8.811945 C15.018285,9.080795 15.346035,9.241345 15.703235,9.263195 C16.049985,9.285045 16.395785,9.163445 16.661785,8.931645 C16.937285,8.693195 17.101635,8.363545 17.122535,8.011095 C17.133935,7.856245 17.199485,6.457845 16.094635,5.291245 C15.491385,4.652845 14.666785,4.237695 13.638885,4.050545 L13.638885,2.340545 C13.638885,1.601445 13.038485,1.000095 12.298435,1.000095 C11.559335,1.000095 10.958935,1.601445 10.958935,2.340545 L10.958935,4.071445 C9.458885,4.390645 8.598185,5.192445 8.130785,5.834645 C7.253935,7.042095 7.146585,8.487995 7.429685,9.386695 C8.025335,11.275295 9.219485,11.957395 11.851935,12.863695 C14.476785,13.739595 14.592685,14.113895 14.754185,14.631645 C14.776985,14.706695 14.815935,15.227295 14.443535,15.732695 C14.035985,16.283695 13.277885,16.575345 12.251885,16.575345 C9.870235,16.575345 9.690685,15.313745 9.679285,15.185495 C9.640335,14.451145 9.001935,13.893495 8.284685,13.920095 C7.548435,13.952395 6.971785,14.578445 7.001235,15.317545 C7.050635,16.445195 7.948385,18.628295 10.958935,19.130845 L10.958935,20.892145 C10.958935,21.632195 11.559335,22.232595 12.298435,22.232595 C13.038485,22.232595 13.638885,21.632195 13.638885,20.892145 L13.638885,19.119445 C15.216835,18.802145 16.115535,17.982295 16.601935,17.322995 C17.473085,16.140245 17.588035,14.719995 17.314435,13.836495" id="Fill-1" fill="#005EB9"></path>
    </g>
</svg>