<?xml version="1.0" encoding="UTF-8"?>
<svg width="50px" height="50px" viewBox="0 0 50 50" version="1.1" xmlns="http://www.w3.org/2000/svg" xmlns:xlink="http://www.w3.org/1999/xlink">
    <title>Icon-Enterprise/Primary/Email</title>
    <defs>
        <rect id="path-1" x="0" y="0" width="34.8600006" height="17.0599995"></rect>
    </defs>
    <g id="Icon-Enterprise/Primary/Email" stroke="none" stroke-width="1" fill="none" fill-rule="evenodd">
        <g id="Icon-Email">
            <g id="Group-330" transform="translate(0, 11.75)">
                <rect id="Rectangle-194" fill="#5DC1FD" fill-rule="nonzero" x="0" y="3.68999958" width="42.2700005" height="29.4699993" rx="4.6500001"></rect>
                <g id="Group-328" transform="translate(3.08, 0)" fill-rule="nonzero">
                    <rect id="Rectangle-195" fill="#FFFFFF" x="0.779999895" y="0.779999733" width="40.5900002" height="28.2999992" rx="3.22000003"></rect>
                    <path d="M38.1600018,29.8300018 L4,29.8300018 C1.79086113,29.8300018 0,28.0391426 0,25.8300018 L0,4 C0,1.79086113 1.79086161,0 4,0 L38.1600018,0 C40.3691425,0 42.1600018,1.79086113 42.1600018,4 L42.1600018,25.8600006 C42.1435184,28.057415 40.3574772,29.8300018 38.1600018,29.8300018 Z M4,1.52999878 C2.6381321,1.5354805 1.53547955,2.638134 1.52999926,4.00000095 L1.52999926,25.8600006 C1.5354805,27.2218704 2.63813353,28.3245201 4,28.3300018 L38.1600018,28.3300018 C39.5202389,28.3244972 40.6200047,27.220253 40.6200047,25.8600006 L40.6200047,4 C40.6200047,2.6397295 39.520216,1.5354929 38.1599789,1.52999878 L4,1.52999878 Z" id="Path-509" fill="#161616"></path>
                </g>
                <path d="M5.07999992,29.1399571 L4,28.0599552 L22.7600002,10.0599552 C23.5256748,9.35468255 24.7043285,9.35468064 25.4700012,10.0599552 L44.2400017,28.0599552 L43.2400017,29.1399571 L24.4800014,11.1399571 C24.2996178,10.9722744 24.0203857,10.9722744 23.8400021,11.1399571 L5.07999992,29.1399571 Z" id="Path-510" fill="#161616" fill-rule="nonzero"></path>
                <g id="Group-329" transform="translate(7.14, 5.6)">
                    <mask id="mask-2" fill="white">
                        <use xlink:href="#path-1"></use>
                    </mask>
                    <g id="Rectangle-196" fill-rule="nonzero"></g>
                    <path d="M36.6199985,-4.35000038 L17.8600002,13.6499996 C17.3872161,14.0920048 16.652782,14.0920029 16.179998,13.6499996 L-2.57999987,-4.35000038" id="Path-511" fill="#FFFFFF" fill-rule="nonzero" mask="url(#mask-2)"></path>
                </g>
                <path d="M24.1599998,20.3199994 C23.6547298,20.3182523 23.1688461,20.1253297 22.7999992,19.7799985 L4,1.81000015 L5,0.72 L23.7600002,18.72 C23.9438705,18.8785608 24.2161293,18.8785608 24.3999996,18.72 L43.1599998,0.72 L44.1599998,1.81000111 L25.3899994,19.8100011 C25.0534801,20.1205289 24.6175156,20.301296 24.1599979,20.3199994 L24.1599998,20.3199994 Z" id="Path-512" fill="#161616" fill-rule="nonzero"></path>
            </g>
            <g id="Group-331" transform="translate(34, 5.09)">
                <path d="M8,16 C12.4182777,16 16,12.4182777 16,8 C16,3.58172226 12.4182777,0 8,0 C3.58172226,0 0,3.58172321 0,8 C0,12.4182777 3.58172226,16 8,16" id="Fill-11" fill="#5DC1FD"></path>
                <path d="M10.9301088,9.91042481 L10.9301088,9.960425 C10.6647203,10.3049236 10.3222101,10.582357 9.93011264,10.7704264 C9.39881305,11.0062748 8.82110766,11.1190811 8.2401102,11.1004253 C7.65469913,11.1062599 7.07380084,10.9975525 6.53011111,10.7804256 C6.04206256,10.5826689 5.63145618,10.2317253 5.36011294,9.7804266 C5.08203677,9.2904459 4.94368152,8.73357735 4.9601076,8.17042695 C4.95944385,7.58557568 5.10010318,7.00922165 5.37011127,6.49042664 C5.6241434,5.98980484 6.02084903,5.57570134 6.51011066,5.30042611 C7.0006235,5.03393326 7.5519884,4.89953766 8.11010913,4.91042576 C8.60337619,4.90199528 9.09110812,5.01534234 9.5301073,5.24042473 C9.94040851,5.43259488 10.2873323,5.73788701 10.5301073,6.12042485 C10.739084,6.47495804 10.8495615,6.87888298 10.8500994,7.29042492 C10.8458612,7.65465699 10.7604578,8.01336155 10.600107,8.34042607 C10.443712,8.66237412 10.2101076,8.94063816 9.92010669,9.15042458 C9.77989368,9.26707135 9.61044482,9.34314976 9.43010501,9.3704258 C9.39143542,9.3850132 9.34877948,9.3850132 9.31010989,9.37042675 C9.27970294,9.34170304 9.2617586,9.30221806 9.26011066,9.26042519 C9.26010684,9.26042614 9.26010684,9.16042576 9.38010577,8.67042599 L9.97010593,5.91042576 L9.00010852,5.91042576 L8.90011005,6.3704258 C8.78192691,6.21513806 8.63616351,6.08293496 8.47010974,5.9804245 C7.92893771,5.68747197 7.26570682,5.74241505 6.78011493,6.12042675 C6.42013339,6.37476311 6.13379077,6.71975193 5.9501131,7.12042485 C5.73716144,7.52091179 5.62395648,7.96685753 5.62010745,8.42042504 C5.60980777,8.76680527 5.68538837,9.11035119 5.84010867,9.4204279 C5.96028308,9.69749127 6.15829257,9.93371354 6.41010837,10.1004273 C6.8431261,10.3767096 7.39708881,10.3767086 7.83010654,10.1004282 C7.9926279,10.0086123 8.1436861,9.89783726 8.2801073,9.77042733 C8.29678516,9.82494793 8.31682376,9.87838326 8.34010867,9.93042527 C8.4052103,10.0517183 8.50660876,10.1496197 8.63010959,10.210425 C8.78172473,10.2747475 8.94548205,10.305452 9.11010532,10.3004261 C9.75489596,10.2778736 10.3576334,9.97468052 10.7601145,9.47042714 C11.297304,8.90772877 11.5948999,8.1583582 11.5901163,7.38042603 C11.5903147,6.84137783 11.4526155,6.31123982 11.190111,5.84042607 C10.8965509,5.31476174 10.4549005,4.88702069 9.9201105,4.61042557 C9.36143664,4.33204232 8.7442377,4.19145737 8.12011127,4.20042572 C7.3450983,4.17973099 6.58077029,4.38470993 5.9201105,4.79042683 C5.30041293,5.19847451 4.81373004,5.77901612 4.52010898,6.460425 C4.25202731,7.0506712 4.11553744,7.6921669 4.12011127,8.34042511 C4.13014011,8.88303719 4.2527254,9.41765366 4.48011188,9.91042481 C4.66455249,10.3272883 4.94156436,10.6966396 5.29010943,10.9904247 C5.6649454,11.3113037 6.10513476,11.5467545 6.58011035,11.6804234 C7.11609058,11.8365036 7.67188052,11.9139782 8.23011188,11.9104248 C8.79053287,11.9246994 9.34907703,11.8400703 9.8801134,11.6604248 C10.3165224,11.4960037 10.7221773,11.2593704 11.0801142,10.960424 C11.3704203,10.7147461 11.611368,10.4161097 11.7901171,10.0804239 L11.8601129,9.93042431 L10.9301088,9.91042481 Z M8.64010791,7.54042492 C8.64082507,7.79935036 8.59684924,8.05645905 8.51010684,8.30042515 C8.4349306,8.5309311 8.3161066,8.74481926 8.16011218,8.93042622 C8.03996066,9.07838784 7.89433459,9.20369015 7.73010806,9.30042706 C7.43006686,9.50802098 7.01966647,9.44182644 6.80010776,9.15042553 C6.63252048,8.93018494 6.55077151,8.65650139 6.57010821,8.38042603 C6.57491473,8.13914071 6.61535052,7.89989052 6.69010333,7.67042504 C6.75686435,7.43503151 6.86157397,7.21210537 7.00010852,7.01042519 C7.10980777,6.86099968 7.24526004,6.73232136 7.40011005,6.63042603 C7.53040485,6.55443726 7.67933063,6.51633988 7.83011035,6.52042542 C8.04953174,6.51701127 8.25884799,6.61248932 8.40011005,6.78042565 C8.56976108,6.99620209 8.65506915,7.26635132 8.64010791,7.54042492 Z" id="Path-513" fill="#FFFFFF" fill-rule="nonzero"></path>
            </g>
            <g id="50x50-Spacers" fill-rule="nonzero">
                <rect id="Rectangle-197" x="0" y="0" width="50" height="50"></rect>
            </g>
        </g>
    </g>
</svg>