<?xml version="1.0" encoding="UTF-8"?>
<svg width="96px" height="96px" viewBox="0 0 96 96" version="1.1" xmlns="http://www.w3.org/2000/svg" xmlns:xlink="http://www.w3.org/1999/xlink">
    <title>UI/Graphic Icon/Illustration/Document</title>
    <g id="UI/Graphic-Icon/Illustration/Document" stroke="none" stroke-width="1" fill="none" fill-rule="evenodd">
        <g id="Group" transform="translate(13.997, 2.3422)">
            <path d="M19.416,7.7758 L56.89,7.7758 C59.062,7.7758 60.84,9.5518 60.84,11.7258 L60.84,86.6218 C60.84,88.7938 59.062,90.5698 56.89,90.5698 L3.95,90.5698 C1.776,90.5698 7.10542736e-14,88.7938 7.10542736e-14,86.6218 L7.10542736e-14,26.6958 L19.416,7.7758 Z" id="Fill-1" fill="#DCDFE1"></path>
            <path d="M25.8438,1.5 L63.3178,1.5 C65.4898,1.5 67.2658,3.278 67.2658,5.45 L67.2658,80.346 C67.2658,82.518 65.4898,84.294 63.3178,84.294 L10.3778,84.294 C8.2038,84.294 6.4278,82.518 6.4278,80.346 L6.4278,20.42 L25.8438,1.5 Z" id="Fill-3"></path>
            <path d="M63.3178,-1.42108547e-14 C66.3180826,-1.42108547e-14 68.7658,2.4494279 68.7658,5.45 L68.7658,80.346 C68.7658,83.3464271 66.3182271,85.794 63.3178,85.794 L10.3778,85.794 C7.37580043,85.794 4.9278,83.3468546 4.9278,80.346 L4.9278,19.787281 L25.2338174,-1.42108547e-14 Z M63.3178,2.9998 L28.7298,2.999 L28.7306,15.51 C28.7306,19.0615596 25.9261706,21.9851217 22.4215576,22.1760797 L22.0566,22.186 L7.9268,22.186 L7.9278,80.346 C7.9278,81.6360151 8.9458179,82.705278 10.2175653,82.788755 L10.3778,82.794 L63.3178,82.794 C64.6613729,82.794 65.7658,81.6895729 65.7658,80.346 L65.7658,5.45 C65.7658,4.10581319 64.660759,2.9998 63.3178,2.9998 Z M59.6902,72.0046 C60.3529417,72.0046 60.8902,72.5418583 60.8902,73.2046 C60.8902,73.8010675 60.4550208,74.2958935 59.8848462,74.388894 L59.6902,74.4046 L14.9982,74.4046 C14.3354583,74.4046 13.7982,73.8673417 13.7982,73.2046 C13.7982,72.6081325 14.2333792,72.1133065 14.8035538,72.020306 L14.9982,72.0046 L59.6902,72.0046 Z M59.6902,61.8698 C60.3529417,61.8698 60.8902,62.4070583 60.8902,63.0698 C60.8902,63.6662675 60.4550208,64.1610935 59.8848462,64.254094 L59.6902,64.2698 L14.9982,64.2698 C14.3354583,64.2698 13.7982,63.7325417 13.7982,63.0698 C13.7982,62.4733325 14.2333792,61.9785065 14.8035538,61.885506 L14.9982,61.8698 L59.6902,61.8698 Z M59.6892,50.3098 C60.3519417,50.3098 60.8892,50.8470583 60.8892,51.5098 C60.8892,52.1062675 60.4540208,52.6010935 59.8838462,52.694094 L59.6892,52.7098 L43.2432,52.7098 C42.5804583,52.7098 42.0432,52.1725417 42.0432,51.5098 C42.0432,50.9133325 42.4783792,50.4185065 43.0485538,50.325506 L43.2432,50.3098 L59.6892,50.3098 Z M29.0504,24.9258 C29.7131417,24.9258 30.2504,25.4630583 30.2504,26.1258 L30.249,32.0158 L35.7804,32.0158 C36.3768675,32.0158 36.8716935,32.4509792 36.964694,33.0211538 L36.9804,33.2158 L36.9804,41.8918 C36.9804,42.5545417 36.4431417,43.0918 35.7804,43.0918 L30.249,43.0918 L30.2504,48.9818 C30.2504,49.5782675 29.8152208,50.0730935 29.2450462,50.166094 L29.0504,50.1818 L21.0744,50.1818 C20.4116583,50.1818 19.8744,49.6445417 19.8744,48.9818 L19.873,43.0918 L14.3464,43.0918 C13.7499325,43.0918 13.2551065,42.6566208 13.162106,42.0864462 L13.1464,41.8918 L13.1464,33.2158 C13.1464,32.5530583 13.6836583,32.0158 14.3464,32.0158 L19.873,32.0158 L19.8744,26.1258 C19.8744,25.5293325 20.3095792,25.0345065 20.8797538,24.941506 L21.0744,24.9258 Z M27.849,27.3258 L22.273,27.3258 L22.2744,33.2158 C22.2744,33.8122675 21.8392208,34.3070935 21.2690462,34.400094 L21.0744,34.4158 L15.545,34.4158 L15.545,40.6918 L21.0744,40.6918 C21.6708675,40.6918 22.1656935,41.1269792 22.258694,41.6971538 L22.2744,41.8918 L22.273,47.7818 L27.849,47.7818 L27.8504,41.8918 C27.8504,41.2953325 28.2855792,40.8005065 28.8557538,40.707506 L29.0504,40.6918 L34.579,40.6918 L34.579,34.4158 L29.0504,34.4158 C28.4539325,34.4158 27.9591065,33.9806208 27.866106,33.4104462 L27.8504,33.2158 L27.849,27.3258 Z M59.6892,38.1692 C60.3519417,38.1692 60.8892,38.7064583 60.8892,39.3692 C60.8892,39.9656675 60.4540208,40.4604935 59.8838462,40.553494 L59.6892,40.5692 L43.2432,40.5692 C42.5804583,40.5692 42.0432,40.0319417 42.0432,39.3692 C42.0432,38.7727325 42.4783792,38.2779065 43.0485538,38.184906 L43.2432,38.1692 L59.6892,38.1692 Z M59.6898,26.4826 C60.3525417,26.4826 60.8898,27.0198583 60.8898,27.6826 C60.8898,28.2790675 60.4546208,28.7738935 59.8844462,28.866894 L59.6898,28.8826 L43.7238,28.8826 C43.0610583,28.8826 42.5238,28.3453417 42.5238,27.6826 C42.5238,27.0861325 42.9589792,26.5913065 43.5291538,26.498306 L43.7238,26.4826 L59.6898,26.4826 Z M25.7298,3.702 L9.8408,19.186 L22.0566,19.186 C23.9716041,19.186 25.5638854,17.68907 25.718326,15.80975 L25.7306,15.51 L25.7298,3.702 Z" id="Combined-Shape" fill="#979EA6"></path>
        </g>
    </g>
</svg>