<?xml version="1.0" encoding="UTF-8"?>
<svg width="50px" height="50px" viewBox="0 0 50 50" version="1.1" xmlns="http://www.w3.org/2000/svg" xmlns:xlink="http://www.w3.org/1999/xlink">
    <title>Icon-Enterprise/Primary/Prescription-Price</title>
    <defs>
        <polygon id="path-1" points="0 0 15.9998002 0 15.9998002 16 0 16"></polygon>
    </defs>
    <g id="Icon-Enterprise/Primary/Prescription-Price" stroke="none" stroke-width="1" fill="none" fill-rule="evenodd">
        <g id="Icon-Prescription-Info" transform="translate(0, 0)">
            <g>
                <g id="Group" transform="translate(5.78, 0)" fill-rule="nonzero">
                    <g>
                        <path d="M20.85,14.9001805 C18.85,14.9001805 18.01,14.6501805 18.01,13.0201805 L18.01,9.4101805 L19.11,9.4101805 C20.0797491,9.404717 20.8645365,8.61992959 20.87,7.6501805 L20.87,5.0001805 C20.8644993,4.03206686 20.0781293,3.2501805 19.11,3.2501805 L6.53,3.2501805 C5.56577367,3.25564367 4.78546317,4.03595418 4.78,5.0001805 L4.78,8.9001805 C4.77998437,9.86830978 5.56188636,10.6546798 6.53,10.6601805 L8.77,10.6601805 L8.77,13.0001805 C8.77,14.6301805 6.88,14.8801805 4.87,14.8801805 C2.38,14.8801805 -8.8817842e-16,17.4701805 -8.8817842e-16,20.5901805 L-8.8817842e-16,44.3001805 C-8.8817842e-16,47.4201805 2,49.9801805 4.53,49.9801805 L21.22,49.9801805 C23.71,49.9801805 25.75,47.4201805 25.75,44.3001805 L25.75,20.6101805 C25.72,17.4901805 23.35,14.9001805 20.85,14.9001805 Z" id="Path" fill="#5DC1FD"></path>
                        <g transform="translate(3.08, 0)">
                            <g>
                                <g transform="translate(0, 5.9302)">
                                    <path d="M21.94,40.53 C24.44,40.53 26.48,37.97 26.48,34.85 L26.48,11.17 C26.48,8.04 24.1,5.46 21.6,5.46 C19.6,5.46 17.73,5.2 17.73,3.57 L17.73,0.75 L9.49,0.75 L9.49,3.57 C9.49,5.2 7.63,5.46 5.62,5.46 C3.14,5.46 0.75,8.07 0.75,11.17 L0.75,34.85 C0.75,37.97 2.75,40.53 5.28,40.53 L21.94,40.53 Z" id="Path" fill="#FFFFFF"></path>
                                    <path d="M21.94,41.28 L5.28,41.28 C2.37,41.28 0,38.4 0,34.85 L0,11.17 C0,7.73 2.63,4.71 5.62,4.71 C8.37,4.71 8.74,4.13 8.74,3.57 L8.74,0 L18.48,0 L18.48,3.57 C18.48,4.13 18.85,4.71 21.6,4.71 C24.6,4.71 27.22,7.71 27.22,11.17 L27.22,34.85 C27.22,38.4 24.86,41.28 21.94,41.28 Z M10.24,1.5 L10.24,3.57 C10.24,6.21 6.88,6.21 5.62,6.21 C3.46,6.21 1.5,8.57 1.5,11.21 L1.5,34.85 C1.5,37.57 3.2,39.78 5.28,39.78 L21.94,39.78 C24.03,39.78 25.72,37.57 25.72,34.85 L25.72,11.17 C25.72,8.57 23.72,6.17 21.6,6.17 C20.34,6.17 16.98,6.17 16.98,3.53 L16.98,1.5 L10.24,1.5 Z" id="Shape" fill="#161616"></path>
                                </g>
                                <g transform="translate(3.33, -0)">
                                    <rect id="Rectangle" fill="#FFFFFF" x="0.780041203" y="0.760180504" width="18.48" height="6.16" rx="1.76"></rect>
                                    <path d="M17.5000412,7.6701805 L2.5000412,7.6701805 C1.11771332,7.66467318 2.04448341e-05,6.54251936 2.04448341e-05,5.1601805 L2.04448341e-05,2.5101805 C-0.00268714394,1.84017665 0.263637846,1.19711677 0.739282334,0.725232321 C1.21492682,0.25334787 1.8600801,-0.00786516387 2.5300412,0.00018050417 L17.5300412,0.00018050417 C18.1948134,-0.00247860576 18.8332702,0.259739135 19.3042762,0.728868603 C19.7752821,1.19799807 20.0400412,1.83540303 20.0400412,2.5001805 L20.0400412,5.1601805 C20.0400412,5.83110448 19.7715293,6.47412164 19.2943045,6.9457099 C18.8170797,7.41729817 18.1709173,7.67819952 17.5000412,7.6701805 Z M2.5000412,1.5101805 C1.94775645,1.5101805 1.5000412,1.95789575 1.5000412,2.5101805 L1.5000412,5.1601805 C1.5000412,5.71246525 1.94775645,6.1601805 2.5000412,6.1601805 L17.5000412,6.1601805 C18.052326,6.1601805 18.5000412,5.71246525 18.5000412,5.1601805 L18.5000412,2.5101805 C18.5000412,1.95789575 18.052326,1.5101805 17.5000412,1.5101805 L2.5000412,1.5101805 Z" id="Shape" fill="#161616"></path>
                                </g>
                            </g>
                            <rect id="Rectangle" fill="#161616" x="0.88" y="39.9101805" width="25.08" height="1.5"></rect>
                            <rect id="Rectangle" fill="#161616" x="0.88" y="16.1901805" width="25.08" height="1.5"></rect>
                        </g>
                        <g transform="translate(12.37, 21.2443)" fill="#161616">
                            <polygon id="Path" points="1.45 15.3458707 3.17 15.3458707 9.72 6.30587069 8 6.30587069"></polygon>
                            <path d="M1.51,4.58587069 L1.51,1.41587069 L2.04,1.41587069 C3.43,1.41587069 4.12,1.92587069 4.12,2.94587069 C4.12,3.96587069 3.41,4.58587069 1.98,4.58587069 L1.51,4.58587069 Z M3.38,5.75587069 C4.01590045,5.62495533 4.58367026,5.2700992 4.98,4.75587069 C5.38840195,4.2383881 5.6040605,3.59494783 5.59,2.93587069 C5.60780258,2.09446962 5.23934828,1.29123926 4.59,0.755870688 C3.74841305,0.1914675 2.73971645,-0.0695239278 1.73,0.015870688 L0,0.015870688 L0,10.0158707 L1.51,10.0158707 L1.51,5.89587069 L1.78,5.89587069 L8.63,15.3458707 L10.35,15.3458707 L3.38,5.75587069 Z" id="Shape"></path>
                        </g>
                    </g>
                </g>
                <g id="_50x50_Spacers" transform="translate(0, 0.0002)">
                    <rect id="Rectangle" x="0" y="0" width="50" height="50"></rect>
                </g>
            </g>
            <g id="Group-8" transform="translate(30.0002, 6)">
                <g id="Group-3">
                    <mask id="mask-2" fill="white">
                        <use xlink:href="#path-1"></use>
                    </mask>
                    <g id="Clip-2"></g>
                    <path d="M7.99800021,15.9999998 C12.4160002,16.001 15.9990002,12.42 16,8.002 C16.0010002,3.583 12.4200002,0.001 8.00100021,-2.09387736e-07 C3.58300021,-0.001 0.00100020939,3.58 0,7.998 C-0.000999790612,12.417 3.58000021,15.999 7.99800021,15.9999998" id="Fill-1" fill="#5DC1FD" mask="url(#mask-2)"></path>
                </g>
                <path d="M10.0708002,8.9032 L10.0708002,8.9032 C9.85480021,8.2072 9.43480021,7.8862 8.19780021,7.4742 C7.20580021,7.1322 7.16680021,7.0092 7.08980021,6.7642 C7.07980021,6.7312 7.06080021,6.5032 7.21680021,6.2892 C7.37280021,6.0742 7.64680021,5.9652 8.03380021,5.9632 C8.40080021,5.9572 8.63980021,6.0292 8.77780021,6.1712 C8.90180021,6.2972 8.90380021,6.4642 8.90380021,6.4642 C8.89480021,6.6092 8.94380021,6.7502 9.03980021,6.8592 C9.13580021,6.9682 9.26980021,7.0332 9.41480021,7.0422 C9.55680021,7.0512 9.69680021,7.0022 9.80480021,6.9082 C9.91780021,6.8102 9.98380021,6.6762 9.99280021,6.5332 C9.99680021,6.4702 10.0238002,5.9012 9.57480021,5.4262 C9.32880021,5.1672 8.99380021,4.9982 8.57580021,4.9212 L8.57580021,4.2262 C8.57580021,3.9252 8.33080021,3.6802 8.02980021,3.6802 C7.72980021,3.6802 7.48480021,3.9252 7.48480021,4.2262 L7.48480021,4.9302 C6.87480021,5.0602 6.52480021,5.3862 6.33480021,5.6472 C5.97780021,6.1382 5.93380021,6.7272 6.04880021,7.0922 C6.29080021,7.8612 6.77780021,8.1392 7.84780021,8.5072 C8.91680021,8.8632 8.96380021,9.0162 9.02880021,9.2262 C9.03780021,9.2572 9.05380021,9.4692 8.90280021,9.6742 C8.73680021,9.8982 8.42880021,10.0172 8.01080021,10.0172 C7.04180021,10.0172 6.96880021,9.5042 6.96480021,9.4522 C6.94780021,9.1532 6.68880021,8.9262 6.39680021,8.9372 C6.09680021,8.9502 5.86280021,9.2052 5.87480021,9.5062 C5.89480021,9.9642 6.25980021,10.8522 7.48480021,11.0572 L7.48480021,11.7742 C7.48480021,12.0752 7.72980021,12.3192 8.02980021,12.3192 C8.33080021,12.3192 8.57580021,12.0752 8.57580021,11.7742 L8.57580021,11.0522 C9.21680021,10.9232 9.58280021,10.5902 9.78080021,10.3222 C10.1348002,9.8402 10.1818002,9.2622 10.0708002,8.9032" id="Fill-4" fill="#FFFFFF"></path>
                <path d="M10.0708002,8.9032 L10.0708002,8.9032 C9.85480021,8.2072 9.43480021,7.8862 8.19780021,7.4742 C7.20580021,7.1322 7.16680021,7.0092 7.08980021,6.7642 C7.07980021,6.7312 7.06080021,6.5032 7.21680021,6.2892 C7.37280021,6.0742 7.64680021,5.9652 8.03380021,5.9632 C8.40080021,5.9572 8.63980021,6.0292 8.77780021,6.1712 C8.90180021,6.2972 8.90380021,6.4642 8.90380021,6.4642 C8.89480021,6.6092 8.94380021,6.7502 9.03980021,6.8592 C9.13580021,6.9682 9.26980021,7.0332 9.41480021,7.0422 C9.55680021,7.0512 9.69680021,7.0022 9.80480021,6.9082 C9.91780021,6.8102 9.98380021,6.6762 9.99280021,6.5332 C9.99680021,6.4702 10.0238002,5.9012 9.57480021,5.4262 C9.32880021,5.1672 8.99380021,4.9982 8.57580021,4.9212 L8.57580021,4.2262 C8.57580021,3.9252 8.33080021,3.6802 8.02980021,3.6802 C7.72980021,3.6802 7.48480021,3.9252 7.48480021,4.2262 L7.48480021,4.9302 C6.87480021,5.0602 6.52480021,5.3862 6.33480021,5.6472 C5.97780021,6.1382 5.93380021,6.7272 6.04880021,7.0922 C6.29080021,7.8612 6.77780021,8.1392 7.84780021,8.5072 C8.91680021,8.8632 8.96380021,9.0162 9.02880021,9.2262 C9.03780021,9.2572 9.05380021,9.4692 8.90280021,9.6742 C8.73680021,9.8982 8.42880021,10.0172 8.01080021,10.0172 C7.04180021,10.0172 6.96880021,9.5042 6.96480021,9.4522 C6.94780021,9.1532 6.68880021,8.9262 6.39680021,8.9372 C6.09680021,8.9502 5.86280021,9.2052 5.87480021,9.5062 C5.89480021,9.9642 6.25980021,10.8522 7.48480021,11.0572 L7.48480021,11.7742 C7.48480021,12.0752 7.72980021,12.3192 8.02980021,12.3192 C8.33080021,12.3192 8.57580021,12.0752 8.57580021,11.7742 L8.57580021,11.0522 C9.21680021,10.9232 9.58280021,10.5902 9.78080021,10.3222 C10.1348002,9.8402 10.1818002,9.2622 10.0708002,8.9032 Z" id="Stroke-6" stroke="#FFFFFF" stroke-width="0.103"></path>
            </g>
        </g>
    </g>
</svg>