<?xml version="1.0" encoding="UTF-8"?>
<svg width="24px" height="24px" viewBox="0 0 24 24" version="1.1" xmlns="http://www.w3.org/2000/svg" xmlns:xlink="http://www.w3.org/1999/xlink">
    <title>Icon-App/Function/External</title>
    <g id="Icon-App/Function/External" stroke="none" stroke-width="1" fill="none" fill-rule="evenodd">
        <g id="24x24-Spacers">
            <rect id="Rectangle" x="0" y="0" width="24" height="24"></rect>
        </g>
        <path d="M11.9831208,4 C12.5367848,4 12.9856181,4.44720084 12.9856181,4.99885104 C12.9856181,5.51109765 12.5986139,5.93328334 12.1000332,5.99098208 L11.9831208,5.99770208 L6.00499457,5.99770208 L6.00499457,18.0018939 L17.9948621,18.0018939 L17.9950054,11.9817178 C17.9950054,11.4694712 18.3820097,11.0472855 18.8805904,10.9895868 L18.9975027,10.9828668 C19.5116193,10.9828668 19.9353461,11.3684634 19.9932555,11.8652307 L20,11.9817178 L20,19.001149 C20,19.5133956 19.6129958,19.9355813 19.1144151,19.99328 L18.9975027,20 L5.00249729,20 C4.48838075,20 4.0646539,19.6144034 4.00674453,19.1176361 L4,19.001149 L4,4.99885104 C4,4.48660443 4.38700424,4.06441874 4.88558492,4.00672 L5.00249729,4 L11.9831208,4 Z M18.9863388,4 L19.0062053,4.00003192 C19.0360634,4.00026954 19.0659129,4.00183372 19.0956578,4.00472448 L18.9863388,4 C19.0301851,4 19.0733812,4.00274527 19.11576,4.00807103 C19.3316954,4.03226156 19.5409239,4.12777479 19.7065745,4.29342546 C19.7534872,4.34033813 19.7947746,4.39074589 19.8304367,4.44381056 C19.835069,4.45275624 19.8408463,4.46155804 19.8464856,4.47045363 C19.8621696,4.49346601 19.8757979,4.51735558 19.8883653,4.54165179 C19.8926368,4.5512665 19.8975188,4.56097517 19.9022438,4.57077164 C19.9125544,4.59118216 19.9215594,4.61187734 19.9298327,4.63279482 C19.9364453,4.64995533 19.942859,4.66738552 19.9487875,4.68503374 C19.9543436,4.70163218 19.9594084,4.71832615 19.9640281,4.73511692 C19.970459,4.75787372 19.9760347,4.78119882 19.9807663,4.80482303 C19.9833662,4.81894565 19.9858564,4.83298822 19.9880459,4.84706852 C19.9900883,4.85873226 19.9917454,4.87084867 19.9931804,4.8830319 L19.9965469,4.91845508 C19.9978806,4.93452381 19.998828,4.95061857 19.999389,4.96672429 L20,4.99960722 L20,9.00039278 C20,9.5524606 19.5461684,10 18.9863388,10 C18.466497,10 18.0380514,9.61411144 17.9794972,9.1169681 L17.9726776,9.00039278 L17.971,7.445 L12.7102089,12.7065745 C12.318975,13.0978085 11.6846594,13.0978085 11.2934255,12.7065745 C10.9322864,12.3454355 10.9045065,11.7771737 11.2100857,11.3841696 L11.2934255,11.2897911 L16.584,5.998 L15.0136612,5.99921444 C14.4938194,5.99921444 14.0653739,5.61332588 14.0068196,5.11618254 L14,4.99960722 C14,4.48697281 14.391314,4.06446751 14.8954469,4.00672509 L15.0136612,4 L18.9863388,4 Z" id="🎨-Icon-Сolor" fill="#005EB9"></path>
    </g>
</svg>