<?xml version="1.0" encoding="UTF-8"?>
<svg width="24px" height="24px" viewBox="0 0 24 24" version="1.1" xmlns="http://www.w3.org/2000/svg" xmlns:xlink="http://www.w3.org/1999/xlink">
    <title>Icon-App/Function/External-White</title>
    <g id="Icon-App/Function/External-White" stroke="none" stroke-width="1" fill="none" fill-rule="evenodd">
        <g id="App/✱-Foundation/Icons/Function/External" transform="translate(4, 4)" fill="#FFFFFF">
            <path d="M7.98312082,0 C8.53678478,0 8.9856181,0.447200843 8.9856181,0.99885104 C8.9856181,1.51109765 8.59861386,1.93328334 8.10003318,1.99098208 L7.98312082,1.99770208 L2.00499457,1.99770208 L2.00499457,14.0018939 L13.9948621,14.0018939 L13.9950054,7.9817178 C13.9950054,7.46947119 14.3820097,7.0472855 14.8805904,6.98958676 L14.9975027,6.98286676 C15.5116193,6.98286676 15.9353461,7.36846341 15.9932555,7.86523067 L16,7.9817178 L16,15.001149 C16,15.5133956 15.6129958,15.9355813 15.1144151,15.99328 L14.9975027,16 L1.00249729,16 C0.488380749,16 0.0646538963,15.6144034 0.00674453239,15.1176361 L0,15.001149 L0,0.99885104 C0,0.486604429 0.387004243,0.0644187396 0.885584924,0.00672000143 L1.00249729,0 L7.98312082,0 Z M14.9863388,0 L15.0062053,3.19217754e-05 C15.0360634,0.000269538922 15.0659129,0.00183372488 15.0956578,0.00472447963 L14.9863388,0 C15.0301851,0 15.0733812,0.0027452729 15.11576,0.00807102547 C15.3316954,0.0322615578 15.5409239,0.127774794 15.7065745,0.293425458 C15.7534872,0.340338126 15.7947746,0.390745891 15.8304367,0.443810562 C15.835069,0.452756237 15.8408463,0.461558045 15.8464856,0.47045363 C15.8621696,0.493466012 15.8757979,0.517355579 15.8883653,0.541651788 C15.8926368,0.551266504 15.8975188,0.560975173 15.9022438,0.570771641 C15.9125544,0.591182158 15.9215594,0.611877345 15.9298327,0.632794821 C15.9364453,0.649955327 15.942859,0.667385516 15.9487875,0.685033735 C15.9543436,0.701632175 15.9594084,0.718326146 15.9640281,0.735116919 C15.970459,0.757873723 15.9760347,0.781198818 15.9807663,0.804823029 C15.9833662,0.818945646 15.9858564,0.832988224 15.9880459,0.84706852 C15.9900883,0.858732262 15.9917454,0.870848673 15.9931804,0.883031899 L15.9965469,0.918455082 C15.9978806,0.934523807 15.998828,0.950618572 15.999389,0.96672429 L16,0.999607218 L16,5.00039278 C16,5.5524606 15.5461684,6 14.9863388,6 C14.466497,6 14.0380514,5.61411144 13.9794972,5.1169681 L13.9726776,5.00039278 L13.971,3.445 L8.7102089,8.70657454 C8.31897495,9.09780849 7.6846594,9.09780849 7.29342546,8.70657454 C6.93228643,8.34543552 6.90450651,7.7771737 7.21008568,7.38416963 L7.29342546,7.2897911 L12.584,1.998 L11.0136612,1.99921444 C10.4938194,1.99921444 10.0653739,1.61332588 10.0068196,1.11618254 L10,0.999607218 C10,0.486972812 10.391314,0.0644675077 10.8954469,0.00672508879 L11.0136612,0 L14.9863388,0 Z" id="Combined-Shape"></path>
        </g>
        <g id="24x24-Spacers">
            <rect id="Rectangle" x="0" y="0" width="24" height="24"></rect>
        </g>
    </g>
</svg>