<?xml version="1.0" encoding="UTF-8"?>
<svg width="28px" height="28px" viewBox="0 0 28 28" version="1.1" xmlns="http://www.w3.org/2000/svg" xmlns:xlink="http://www.w3.org/1999/xlink">
    <title>326A8AA5-54AD-4A06-BCC1-36E0F325E19D</title>
    <g id="Social-Media/Outline/Facebook-White" stroke="none" stroke-width="1" fill="none" fill-rule="evenodd">
        <g id="Facebook">
            <path d="M14,0.5 C17.7279222,0.5 21.1029222,2.01103887 23.5459417,4.45405831 C25.9889611,6.89707775 27.5,10.2720778 27.5,14 C27.5,17.7279222 25.9889611,21.1029222 23.5459417,23.5459417 C21.1029222,25.9889611 17.7279222,27.5 14,27.5 C10.2720778,27.5 6.89707775,25.9889611 4.45405831,23.5459417 C2.01103887,21.1029222 0.5,17.7279222 0.5,14 C0.5,10.2720778 2.01103887,6.89707775 4.45405831,4.45405831 C6.89707775,2.01103887 10.2720778,0.5 14,0.5 Z" id="back" stroke="#FFFFFF"></path>
            <path d="M15.4592405,22.2316948 L15.4592405,14.6149556 L17.5617936,14.6149556 L17.8404273,11.9901851 L15.4592405,11.9901851 L15.4628127,10.6764622 C15.4628127,9.99188165 15.527857,9.62506775 16.5111124,9.62506775 L17.825543,9.62506775 L17.825543,7 L15.7226922,7 C13.1968302,7 12.3077923,8.27329608 12.3077923,10.4145797 L12.3077923,11.9904824 L10.7333333,11.9904824 L10.7333333,14.6152529 L12.3077923,14.6152529 L12.3077923,22.2316948 L15.4592405,22.2316948 Z" id="Shape" fill="#FFFFFF"></path>
        </g>
    </g>
</svg>