<?xml version="1.0" encoding="UTF-8"?>
<svg width="50px" height="50px" viewBox="0 0 50 50" version="1.1" xmlns="http://www.w3.org/2000/svg" xmlns:xlink="http://www.w3.org/1999/xlink">
    <title>Icon-Enterprise/Primary/Find-Care</title>
    <defs>
        <polygon id="path-1" points="0 0 15.9995002 0 15.9995002 16 0 16"></polygon>
    </defs>
    <g id="Icon-Enterprise/Primary/Find-Care" stroke="none" stroke-width="1" fill="none" fill-rule="evenodd">
        <g id="Icon-Location-Medical">
            <g>
                <path d="M17.2799989,37.0001008 C18.8299982,39.170099 20.4199983,41.6501023 22.0399992,43.7301003 C22.3139631,44.0206658 22.6956407,44.1853768 23.0949976,44.1853768 C23.4943544,44.1853768 23.876032,44.0206658 24.1499979,43.7301003 L29.9200002,35.5701005 C33.5599996,30.3201005 38.5300008,25.3201005 38.5300008,18.510101 C38.3169004,10.1385886 31.4692251,3.463 23.0950014,3.463 C14.7207758,3.463 7.87309757,10.1385877 7.66,18.5100991 C7.66,25.8701016 13.3999979,31.4201009 17.2799989,37.0001008 Z" id="Path-669" fill="#5DC1FD"></path>
                <path d="M24.53,49.999806 C18.53,49.999806 11.53,48.5598074 11.53,44.499806 C11.53,42.9098059 13.0599997,42.0998045 13.7900002,41.7098051 L14.03,41.5698057 C14.676431,41.0626227 15.6114285,41.1744658 16.1200021,41.8198019 C16.6291898,42.4817702 16.5134728,43.4297644 15.859999,43.9498068 C15.651851,44.1046835 15.4310773,44.2418333 15.200002,44.3598067 C15.0500005,44.4398085 14.78,44.5798079 14.5999997,44.6998068 C15.0899995,45.4898077 18.2000001,46.999806 24.5400002,46.999806 C30.5999997,46.999806 33.4200013,45.4498068 33.4200013,44.4098059 C33.4200051,43.5813795 34.0915788,42.9098059 34.9200051,42.9098059 C35.7484315,42.9098059 36.4200051,43.5813795 36.4200051,44.4098059 C36.4099992,47.8798071 31.9999993,49.999806 24.53,49.999806 Z" id="Path-670" fill="#5DC1FD" fill-rule="nonzero"></path>
                <g id="Group-408" transform="translate(13.18, 38.751)" fill-rule="nonzero">
                    <path d="M15.9600019,0.759 C20.2800016,1.33900183 23.3700018,2.84900015 23.3700018,4.61900061 C23.3700018,6.89899939 18.3000021,8.73899954 12.0600004,8.73899954 C5.81999874,8.73899954 0.75,6.89899939 0.75,4.61900061 C0.75,2.84900015 3.83000088,1.33900183 8.15000057,0.759" id="Path-671" fill="#FFFFFF"></path>
                    <path d="M12.0600004,9.48940107 C6.21000004,9.48940107 0,7.77940199 0,4.62940046 C0,2.44940016 3.07999897,0.629400462 8.05000019,0.0193998517 C8.43677044,0.00359556089 8.77203083,0.28473112 8.82386875,0.668337077 C8.87570667,1.05193922 8.62709332,1.41197798 8.25000095,1.49939939 C3.86000156,2.08939955 1.5,3.49939939 1.5,4.62940046 C1.5,6.02940199 5.5,7.98940107 12.0600023,7.98940107 C18.6200037,7.98940107 22.6200037,5.98940107 22.6200037,4.62940046 C22.6200037,3.54939863 20.2500048,2.08939955 15.8600035,1.49939939 C15.5755243,1.4877722 15.3221579,1.31606886 15.2059469,1.05614302 C15.089736,0.796220988 15.1307249,0.492910594 15.3117571,0.273153514 C15.4927874,0.0534002484 15.7826414,-0.0448968708 16.0600061,0.0193998517 C21.0600061,0.679399699 24.1200037,2.44940016 24.1200037,4.62940046 C24.1200037,7.77939817 17.9000006,9.48940107 12.0600004,9.48940107 Z" id="Path-672" fill="#161616"></path>
                </g>
                <g id="Group-409" transform="translate(9.63, 0.11)">
                    <path d="M9.98001966,33.3895358 C11.4700194,35.4895343 12.9800197,37.8695353 14.5700198,39.8695353 C14.8290435,40.1461428 15.1910678,40.3031062 15.5700198,40.3031062 C15.9489718,40.3031062 16.3109961,40.1461428 16.5700198,39.8695353 L22.1300193,32.0195369 C25.6300212,26.9595374 30.4200183,22.1395358 30.4200183,15.5795363 C30.5601436,10.1768702 27.7579356,5.12353885 23.1010486,2.38094509 C18.4441577,-0.361649633 12.6658774,-0.361647726 8.00898847,2.38094699 C3.35210237,5.12354171 0.549895377,10.176874 0.690019698,15.5795382 C0.720019431,22.6295356 6.24001893,27.9795359 9.98001966,33.3895358 Z" id="Path-673" fill="#FFFFFF"></path>
                    <path d="M15.6099997,41.0900021 L15.6099997,41.0900021 C14.9890928,41.0920467 14.4007158,40.8125706 14.0099993,40.3300037 C13.0099993,38.9900036 11.9399996,37.4800053 10.9299994,36.0200024 C10.4199991,35.2700024 9.92999935,34.5300007 9.40999889,33.8200016 L9.40999889,33.8200016 C8.61999798,32.6800022 7.7699995,31.5700016 6.86999989,30.3900013 C3.5,25.9700012 0,21.3900013 0,15.6200008 C0,6.99331188 6.99331379,0 15.6199999,0 C24.246686,0 31.2399988,6.99331474 31.2399988,15.6200027 C31.2399988,21.1500015 28.0399981,25.4300022 24.9399996,29.6200008 C24.2300005,30.5700016 23.4899988,31.5600014 22.8200006,32.5300007 L17.250001,40.3999996 C16.8413744,40.8738918 16.2345076,41.129221 15.6099997,41.0900021 Z M10.6099997,32.960001 C11.1099997,33.6700001 11.6099997,34.4200001 12.1400003,35.1700001 C13.1400003,36.6099987 14.1400003,38.1000004 15.1400003,39.4099979 C15.2569246,39.5260792 15.4152441,39.5908451 15.5800009,39.5900839 C15.7383509,39.5926075 15.8918734,39.5354862 16.0100031,39.4300022 L21.5300016,31.6199989 C22.2100019,30.6199989 22.96,29.6199989 23.6800013,28.6699982 C26.6800013,24.7299976 29.6800013,20.6699982 29.6800013,15.6699982 C29.6800013,7.87173605 23.3582582,1.54999733 15.5599985,1.54999733 C7.76173878,1.54999733 1.44000053,7.87173891 1.44000053,15.6699991 C1.44000053,20.9399986 4.78000164,25.3099995 8.01000118,29.5299969 C8.90000057,30.6200008 9.78999996,31.8000011 10.5999994,32.960001 L10.6099997,32.960001 Z" id="Path-674" fill="#161616" fill-rule="nonzero"></path>
                </g>
                <g id="50x50-Spacers" fill-rule="nonzero">
                    <rect id="Rectangle-240" x="0" y="0" width="50" height="50"></rect>
                </g>
            </g>
            <g id="Group-6" transform="translate(17.2105, 7.26)">
                <g id="Group-3">
                    <mask id="mask-2" fill="white">
                        <use xlink:href="#path-1"></use>
                    </mask>
                    <g id="Clip-2"></g>
                    <path d="M8.00100021,-2.09387736e-07 C3.58300021,-0.001 0.00100020945,3.58 0,7.998 C-0.000999790554,12.417 3.57900021,15.999 7.99800021,15.9999998 C12.4160002,16.001 15.9990002,12.42 16,8.002 C16.0010002,3.583 12.4190002,0.001 8.00100021,-2.09387736e-07" id="Fill-1" fill="#5DC1FD" mask="url(#mask-2)"></path>
                </g>
                <path d="M7.99960021,6.2348 C8.03460021,6.2088 9.43460021,3.7188 11.2656002,4.7498 C12.9706002,5.7088 13.4926002,8.2938 7.99960021,12.3898 C7.99960021,12.3888 7.99960021,12.3898 7.99960021,12.3898 C7.99960021,12.3898 7.99960021,12.3888 7.99960021,12.3898 C7.99960021,12.3888 7.99960021,12.3898 7.99960021,12.3898 C7.99960021,12.3898 7.99960021,12.3888 7.99960021,12.3898 C2.50660021,8.2938 3.02860021,5.7088 4.73260021,4.7498 C6.56360021,3.7188 7.96460021,6.2088 7.99960021,6.2348" id="Fill-4" fill="#FFFFFF"></path>
            </g>
        </g>
    </g>
</svg>