<?xml version="1.0" encoding="UTF-8"?>
<svg width="50px" height="50px" viewBox="0 0 50 50" version="1.1" xmlns="http://www.w3.org/2000/svg" xmlns:xlink="http://www.w3.org/1999/xlink">
    <title>Icon-Enterprise/Primary/Fitness-1</title>
    <defs>
        <polygon id="path-1" points="0 0 15.9999002 0 15.9999002 16 0 16"></polygon>
    </defs>
    <g id="Icon-Enterprise/Primary/Fitness-1" stroke="none" stroke-width="1" fill="none" fill-rule="evenodd">
        <g id="Icon-Fitness-Weights" transform="translate(0, -0)">
            <g transform="translate(0, -0)" fill-rule="nonzero">
                <g id="Group-351" transform="translate(0, 1.142)">
                    <path d="M45.2299995,32.9380033 L43.5999985,32.9380033 C43.4499969,32.9380033 42.2999992,32.9380033 42.1499977,32.9980047 L42.1499977,29.8580014 C42.1722908,28.6484182 41.2095871,27.6498925 40,27.628 L36.3300018,27.628 C35.7430267,27.6306131 35.1814346,27.867687 34.7701492,28.2864835 C34.35886,28.705282 34.1319885,29.2710721 34.1399994,29.8580014 L34.1399994,33.7680013 L11.8999996,33.7680013 L11.8999996,29.8580014 C11.8945246,28.6507737 10.9172287,27.6734769 9.70999908,27.6680009 L6.07999992,27.6680009 C4.87277126,27.6734769 3.89547491,28.6507737 3.89000034,29.8580014 L3.8900001,33.0380018 C3.7432642,32.9984319 3.59197664,32.9782598 3.43999982,32.9779966 L1.80999994,32.9780004 C0.86890763,32.9322431 0.0642448664,33.6479909 0,34.588001 L0,42.3479993 C0.0432680845,43.2972905 0.84014523,44.0362928 1.79000056,44.0079992 L3.44000006,44.0079992 C3.59160137,44.0027578 3.74232292,43.9826619 3.89000082,43.9480016 L3.8900001,46.6479986 C3.88446307,47.8630292 4.86496687,48.8524892 6.07999945,48.8580014 L9.71000004,48.8580014 C10.9172306,48.8525312 11.8945274,47.8752324 11.8999996,46.6680028 L11.8999996,43.2180021 L34.1399994,43.2180021 L34.1399994,46.6480024 C34.1344643,47.8630368 35.1149712,48.852493 36.3300018,48.8580014 L40,48.8580014 C41.2055931,48.8524968 42.1800079,47.8736112 42.1799965,46.6680028 L42.1800003,43.9680021 C42.3300018,43.9680021 43.4799995,44.0280034 43.6300011,44.0280034 L45.2600021,44.0280034 C46.1980247,44.0285604 46.9676552,43.2854688 47,42.3480031 L47,34.588001 C46.9567757,33.6482274 46.1704941,32.9152524 45.2299995,32.9380033 Z" id="Path-535" fill="#5DC1FD"></path>
                    <g id="Group-350" transform="translate(0.029, 0)">
                        <path d="M43.451473,28.6481632 L42.0814741,27.7681641 C41.9414747,27.6881642 40.9614752,27.098164 40.8214758,27.0481648 L42.5214766,24.3581642 C43.1496542,23.3421063 42.8522451,22.0104241 41.8514784,21.3581642 L38.7814787,19.4181637 C37.7663877,18.7842945 36.4304464,19.0826553 35.7814825,20.0881638 L33.6814802,23.388163 L14.8814733,11.4581627 L16.9714735,8.15816251 C17.597761,7.1395363 17.2957609,5.80718938 16.2914732,5.15816156 L13.2314737,3.18816224 C12.2128494,2.56187407 10.8805006,2.86387244 10.2314728,3.86816112 L8.51147346,6.54816238 C8.406637,6.43804637 8.28915577,6.34070483 8.16147308,6.25816194 L6.79147367,5.38816253 C5.99886207,4.85562221 4.92466287,5.06598607 4.39147405,5.85816232 L0.231473489,12.3781628 C-0.244602637,13.2040476 0.0371290881,14.2594256 0.86147265,14.7381634 L2.23147349,15.6081623 C2.36115555,15.6855911 2.49856715,15.7492699 2.64147381,15.7981609 L1.19147353,18.0781616 C0.565186544,19.0967869 0.867184683,20.4291329 1.871473,21.0781616 L4.94147377,23.0781616 C5.96009855,23.7044491 7.29244642,23.402449 7.94147329,22.3981594 L10.3614738,19.1181606 L28.9714735,30.7981629 L26.7614744,34.2781643 C26.135185,35.2967877 26.4371851,36.6291355 27.4414747,37.2781643 L30.5114744,39.2781643 C31.5275324,39.9063496 32.8592184,39.6089367 33.5114782,38.6081623 L34.9714735,36.2981609 C35.0814741,36.3981594 36.0314749,37.0381626 36.1714743,37.1181606 L37.5414732,37.9881596 C38.3262976,38.5266918 39.3987349,38.3300823 39.9414785,37.5481648 L44.0914762,30.9981617 C44.318836,30.6017975 44.3791349,30.1312565 44.2590635,29.690371 C44.1389883,29.2494873 43.848419,28.8745026 43.4514692,28.6481651 L43.451473,28.6481632 Z" id="Path-536" fill="#5DC1FD"></path>
                        <g id="Stroke-7" transform="translate(8.431, 8.1)">
                            <path d="M23.1297575,20.758174 L2.65975724,7.75817404 C1.0197569,6.75817404 0.309757811,4.88817415 1.06975709,3.67817411 L2.2697569,1.75817404 C3.03975735,0.548174 4.98975716,0.408173657 6.62975751,1.44817362 L27.0997549,14.4481727 C28.7397543,15.4481727 29.4497534,17.3081733 28.6797567,18.5181724 L27.5397574,20.4081737 C26.7197577,21.6081744 24.7697569,21.758174 23.1297575,20.758174 Z" id="Path-537" fill="#FFFFFF"></path>
                            <path d="M25.390196,22.1476673 C24.4420415,22.1321606 23.517151,21.8515782 22.7201978,21.337666 L22.7201959,21.3376679 L2.2601968,8.33766787 C1.36040317,7.79166834 0.659414404,6.97151225 0.260196799,5.99766772 C-0.139286882,5.10204928 -0.0758084121,4.067717 0.430196875,3.22766821 L1.63019668,1.34766714 C2.63019668,-0.212333275 5.04019653,-0.452333046 7.02019703,0.807667183 L27.5401975,13.8076672 C28.439993,14.3536686 29.140978,15.1738266 29.5401975,16.1476692 C29.9396802,17.0432896 29.8762036,18.0776219 29.3701993,18.9176697 L28.1701986,20.8076672 C27.5434362,21.7118744 26.4879667,22.2206253 25.390196,22.1476654 L25.390196,22.1476673 Z M23.5401975,20.0676674 C24.8101979,20.8776669 26.3301984,20.8476681 26.8701993,19.9976677 L28.0601979,18.1176686 C28.3057347,17.676743 28.324339,17.1446652 28.1101972,16.6876663 C27.8213254,16.0190891 27.332182,15.4565758 26.7101957,15.0776676 L6.24019634,2.07766764 C4.97019588,1.26766722 3.45019638,1.30766718 2.91019642,2.14766734 L1.72019588,4.02766745 C1.47627842,4.46904128 1.4577018,5.00033514 1.67019665,5.45766776 C1.9590665,6.12624686 2.44820797,6.68875925 3.07019626,7.06766741 L23.5401975,20.0676674 Z" id="Path-538" fill="#161616"></path>
                        </g>
                        <g id="Stroke-11" transform="translate(35.421, 24.645)">
                            <path d="M1.67972483,8.41264681 L3.01972498,9.26264528 C3.66714014,9.79399828 4.61765971,9.7235866 5.17972483,9.10264544 L8.42972483,3.98264651 C8.73206629,3.21458391 8.39223399,2.34322123 7.64972605,1.98264651 L6.31972422,1.13264612 C5.66743388,0.605203192 4.71760096,0.675237219 4.14972224,1.29264788 L0.909720557,6.41264681 C0.605940955,7.17810778 0.941054481,8.04853396 1.67972483,8.41265063 L1.67972483,8.41264681 Z" id="Path-539" fill="#FFFFFF"></path>
                            <path d="M4.12975743,10.3425349 C3.59363988,10.3407306 3.06940129,10.1844997 2.61975911,9.89253417 L1.27975896,9.0425357 C0.76985219,8.72778121 0.373913316,8.25826446 0.14975789,7.70253555 C-0.0860171037,7.14274017 -0.0414614396,6.50417129 0.269760637,5.98253623 L3.5497556,0.862533488 C4.33442357,-0.113277517 5.7536855,-0.286249242 6.74975636,0.472536005 L8.08975652,1.32253448 C8.59966329,1.63729087 8.99560216,2.10680763 9.21975759,2.66253463 C9.45252278,3.22390167 9.40425542,3.86253158 9.08976033,4.38253585 L5.84975484,9.50253478 C5.45633748,10.0565318 4.80855611,10.3728885 4.12975743,10.3425349 Z M5.19975713,1.51253501 C5.04547933,1.49804107 4.89343694,1.55737487 4.78975728,1.67253486 L1.5497556,6.78253356 C1.47684529,6.91659347 1.47684529,7.07847015 1.5497556,7.21253387 C1.65916112,7.4714183 1.84833959,7.68862716 2.08975652,7.8325328 L2.08975652,7.8325328 L3.41975835,8.67253295 C3.92975667,8.99253265 4.41975835,8.93253128 4.54975942,8.74253265 L7.79975942,3.63253204 C7.85087254,3.51102249 7.85087254,3.37404243 7.79975942,3.25253288 C7.69227651,2.99501411 7.50234273,2.78046028 7.2597585,2.64253417 L5.92975667,1.79253189 C5.71795323,1.63176719 5.46474507,1.534645 5.19976094,1.5125312 L5.19975713,1.51253501 Z" id="Path-540" fill="#161616"></path>
                        </g>
                        <g id="Stroke-15" transform="translate(26.954, 16.285)">
                            <rect id="Rectangle-206" fill="#FFFFFF" transform="translate(8.8146, 10.7967) rotate(302.3901) translate(-8.8146, -10.7967)" x="-1.50043686" y="6.9016753" width="20.6299992" height="7.78999996" rx="2.13000011"></rect>
                            <path d="M5.90693708,21.5722021 C5.36401411,21.5742457 4.83228727,21.4178545 4.37693449,21.1221812 L1.3769364,19.2321818 C0.724737607,18.822983 0.263542615,18.1696703 0.0963215453,17.4181063 C-0.0709014314,16.6665461 0.0697712523,15.8793185 0.486935101,15.2321818 L9.25693556,1.41218209 C9.66796919,0.762119526 10.3211712,0.30271172 11.0719227,0.135669941 C11.8226781,-0.0313699302 12.6090474,0.107733006 13.2569356,0.522184605 L16.2569356,2.41218209 C16.9112935,2.81952118 17.3742985,3.4729464 17.5417027,4.22533249 C17.7091107,4.97771859 17.5668416,5.76581978 17.1469349,6.41218209 L8.34693953,20.1921809 C7.94058653,20.838875 7.29244658,21.2961733 6.54694029,21.4621775 C6.33861586,21.5236323 6.12382551,21.5605509 5.90693708,21.5722021 Z M11.7069363,1.57218193 C11.2336812,1.57218193 10.792706,1.81327652 10.5371022,2.21192765 L1.7669377,16.0221827 C1.36249014,16.665848 1.55475279,17.5153887 2.196938,17.9221842 L2.196938,17.9221842 L5.196938,19.8221857 C5.49449583,20.009125 5.85286757,20.0736315 6.196938,20.0021822 C6.55583235,19.921078 6.86836668,19.7019465 7.06694075,19.3921893 L15.8469395,5.57218193 C16.0304417,5.27324318 16.091351,4.91496491 16.0169377,4.57218193 C15.9420628,4.2159121 15.7254567,3.90544152 15.4169392,3.71217942 L12.4169392,1.81218171 C12.2064824,1.669142 11.961018,1.58616852 11.7069363,1.57218193 Z" id="Path-541" fill="#161616"></path>
                        </g>
                        <g id="Stroke-19" transform="translate(1.137, 2.853)">
                            <path d="M2.98410748,9.27542356 L1.64410733,8.43542341 C0.901600107,8.07484869 0.561769231,7.20348791 0.864107355,6.43542341 L4.11410759,1.28542332 C4.67617129,0.664479771 5.62668894,0.594071903 6.27410744,1.12542395 L7.61410712,2.00542311 C8.3604679,2.36243109 8.70169543,3.23737482 8.3941059,4.00542311 L5.14410733,9.11542276 C4.58448122,9.74133352 3.62984799,9.81204752 2.98410843,9.27542261 L2.98410748,9.27542356 Z" id="Path-542" fill="#FFFFFF"></path>
                            <path d="M4.09352531,10.3651516 C3.55513515,10.3576653 3.02921905,10.2019665 2.57352485,9.9151518 L1.2435254,9.06515142 C0.133553878,8.48713418 -0.314276084,7.13034364 0.233524695,6.00515195 L3.48352517,0.885152064 C3.80841388,0.363021575 4.36924543,0.0340005975 4.98352565,0.00515171101 C5.58381404,-0.0313065429 6.17989005,0.126478396 6.68352594,0.455152236 L8.01352538,1.29515191 C8.52470244,1.61561223 8.92320479,2.08752318 9.15352477,2.64515134 C9.38628806,3.2065179 9.33801974,3.84514686 9.02352561,4.36515161 L5.77352513,9.51515218 C5.40041627,10.0724575 4.76354636,10.394684 4.09352578,10.3651516 L4.09352531,10.3651516 Z M5.163525,1.53515216 L5.09352531,1.53515216 C4.96140708,1.5359213 4.8351983,1.59001084 4.7435254,1.68515178 L1.50352515,6.80515214 C1.38352527,6.99515172 1.50352515,7.47515222 2.04352511,7.80515214 L3.38352527,8.65515252 L3.38352527,8.65515252 C3.88352527,8.97515222 4.38352527,8.91515275 4.51352538,8.72515222 L7.75352515,3.5951521 C7.80411281,3.47700664 7.80411281,3.34329816 7.75352515,3.22515222 C7.64070071,2.96841975 7.45233859,2.75215217 7.21352519,2.60515281 L5.83352508,1.75515195 C5.63262214,1.62585088 5.40197171,1.55011483 5.163525,1.53515216 Z" id="Path-543" fill="#161616"></path>
                        </g>
                        <g id="Stroke-23" transform="translate(1.286, 0)">
                            <rect id="Rectangle-207" fill="#FFFFFF" transform="translate(8.8146, 10.7967) rotate(302.3901) translate(-8.8146, -10.7967)" x="-1.50043686" y="6.9016753" width="20.6299992" height="7.78999996" rx="2.13000011"></rect>
                            <path d="M5.90483281,21.5376345 C5.36191222,21.5396319 4.83018538,21.3832407 4.3748326,21.0875693 L1.3748326,19.1975718 C0.0305256525,18.3345499 -0.366720947,16.5491705 0.48483297,15.1975699 L9.26483294,1.3975716 C9.67708918,0.754054106 10.3282189,0.300781763 11.0748334,0.137571371 C11.8152709,-0.0353405112 12.5941577,0.0980801946 13.2348323,0.507571257 L16.2348323,2.40757159 C16.887031,2.81677369 17.348226,3.47008518 17.515449,4.2216473 C17.6826701,4.97320942 17.5419955,5.76043705 17.1248316,6.40757183 L8.34483287,20.1975718 C7.93847987,20.8442698 7.29034182,21.3015681 6.54483267,21.4675722 C6.33491561,21.515523 6.12015292,21.5390139 5.90483328,21.5376345 L5.90483281,21.5376345 Z M11.7048335,1.53757194 L11.3948331,1.53757194 C11.0387273,1.61906151 10.7294612,1.83842496 10.5348334,2.14757208 L1.76483294,16.0275717 C1.58172127,16.3266039 1.51748702,16.6834593 1.58483311,17.0275736 C1.66632268,17.3836794 1.88568589,17.6929465 2.19483325,17.8875742 L5.19483277,19.7775717 L5.19483277,19.7775717 C5.49239298,19.9645129 5.85076281,20.0290194 6.19483277,19.9575701 C6.55296036,19.8809386 6.86593768,19.6650916 7.06483313,19.3575716 L15.8448329,5.57757143 C16.2521109,4.93342165 16.0647654,4.08144573 15.4248347,3.66757206 L12.4248328,1.77757171 C12.2037501,1.63729147 11.9466452,1.56432918 11.684833,1.56757168 L11.7048335,1.53757194 Z" id="Path-544" fill="#161616"></path>
                        </g>
                    </g>
                    <g id="Stroke-7" transform="translate(9.83, 31.948)">
                        <path d="M28.5100002,8.16999817 L4.27000046,8.16999817 C2.32999992,8.16999817 0.75,7 0.75,5.56999969 L0.75,3.34000015 C0.75,1.90999985 2.32999992,0.75 4.27000046,0.75 L28.5100002,0.75 C30.4499989,0.75 32.0300007,1.90999985 32.0300007,3.34000015 L32.0300007,5.56999969 C32.0300007,7 30.4499989,8.16999817 28.5100002,8.16999817 Z" id="Path-545" fill="#FFFFFF"></path>
                        <path d="M28.5100002,8.90999985 L4.27000046,8.90999985 C1.92000008,8.90999985 0,7.41999817 0,5.56999969 L0,3.34000015 C0,1.5 1.92000008,0 4.27000046,0 L28.5100002,0 C30.8599987,0 32.7800007,1.5 32.7800007,3.34000015 L32.7800007,5.56999969 C32.7800007,7.41999817 30.8599987,8.90999985 28.5100002,8.90999985 Z M4.27000046,1.5 C2.77000046,1.5 1.5,2.34000015 1.5,3.34000015 L1.5,5.56999969 C1.5,6.56999969 2.77000046,7.40999985 4.27000046,7.40999985 L28.5100002,7.40999985 C30.0100002,7.40999985 31.2800007,6.56999969 31.2800007,5.56999969 L31.2800007,3.34000015 C31.2800007,2.34000015 30.0100002,1.5 28.5100002,1.5 L4.27000046,1.5 Z" id="Path-546" fill="#161616"></path>
                    </g>
                    <g id="Stroke-11" transform="translate(42.81, 31.319)">
                        <path d="M2.49000168,9.40899771 L4.07000351,9.40899771 C5.07000351,9.40899771 5.81000519,8.82899588 5.81000519,8.1189968 L5.81000519,2.05899924 C5.81000519,1.33899802 5.03000641,0.759 4.07000351,0.759 L2.49000168,0.759 C1.49000168,0.759 0.75,1.33900183 0.75,2.05899924 L0.75,8.11900061 C0.75,8.82899969 1.53000259,9.40899771 2.49000168,9.40899771 Z" id="Path-547" fill="#FFFFFF"></path>
                        <path d="M4.07000732,10.1590793 L2.49000549,10.1590793 C1.2569809,10.2712848 0.156398773,9.38727832 0,8.15907931 L0,2.05908084 C0.136623383,0.813502071 1.24137497,-0.0960323833 2.49000549,0.00908159989 L4.07000732,0.00908159989 C5.32034683,-0.101525547 6.42845535,0.810774563 6.56001282,2.05908084 L6.56001282,8.11908221 C6.42853165,9.36612963 5.31855011,10.2755077 4.07001114,10.1590755 L4.07000732,10.1590793 Z M2.49000549,1.53908038 C1.90000534,1.53908038 1.49000549,1.86908221 1.49000549,2.08907962 L1.49000549,8.14908099 C1.49000549,8.35908007 1.89000702,8.68908191 2.49000549,8.68908191 L4.07000732,8.68908191 C4.6700058,8.68908191 5.07000732,8.35908007 5.07000732,8.14908099 L5.07000732,2.05908084 C5.07000732,1.83907962 4.68000793,1.5090816 4.07000732,1.5090816 L2.49000549,1.53908038 Z" id="Path-548" fill="#161616"></path>
                    </g>
                    <g id="Stroke-15" transform="translate(36.32, 25.338)">
                        <rect id="Rectangle-208" fill="#FFFFFF" x="0.749999695" y="0.749999542" width="7.78999996" height="20.6299992" rx="2.13000011"></rect>
                        <path d="M6.42000198,22.1300011 L2.88000107,22.1300011 C1.28942108,22.1300011 0,20.84058 0,19.25 L0,2.88000107 C0.00548934937,1.29169655 1.29170227,0.00548362732 2.88000488,0 L6.42000198,0 C8.00440216,0.0109558105 9.28456116,1.295578 9.29000473,2.88000107 L9.29000473,19.25 C9.29000473,20.8366966 8.00665665,22.1244965 6.41998672,22.1300011 L6.42000198,22.1300011 Z M2.88000107,1.51999855 C2.11784744,1.51999855 1.5,2.1378479 1.5,2.89999962 L1.5,19.25 C1.5,20.0121536 2.11784744,20.6300011 2.88000107,20.6300011 L6.42000198,20.6300011 C6.7851181,20.6300011 7.13510132,20.4842796 7.39230728,20.2251816 C7.64949799,19.966114 7.79265976,19.6150742 7.79003359,19.25 L7.79003359,2.88000107 C7.78450394,2.12727737 7.17274475,1.51999855 6.42000198,1.51999855 L2.88000107,1.51999855 Z" id="Path-549" fill="#161616"></path>
                    </g>
                    <g id="Stroke-19" transform="translate(2.16, 31.32)">
                        <path d="M4.07999969,9.40799771 L2.49000001,9.40799771 C1.49000001,9.40799771 0.75,8.82799588 0.75,8.1179968 L0.75,2.05799924 C0.75,1.33799802 1.53999996,0.758 2.49000001,0.758 L4.07999969,0.758 C5.07999969,0.758 5.81999946,1.33800183 5.81999946,2.05799924 L5.81999946,8.11800061 C5.83999991,8.82799969 5.02999997,9.40799771 4.07999969,9.40799771 Z" id="Path-550" fill="#FFFFFF"></path>
                        <path d="M4.07999969,10.1582611 L2.49000001,10.1582611 C1.25697827,10.2704628 0.156396389,9.3864601 0,8.1582611 L0,2.05826262 C0.136619329,0.812683857 1.24137115,-0.0968467831 2.49000049,0.00826338535 L4.07999969,0.00826338535 C5.3286283,-0.0968467831 6.43337989,0.812687671 6.56999946,2.05826262 L6.56999946,8.118264 C6.43341517,9.36254958 5.32683825,10.2691429 4.07999969,10.1582611 Z M2.49000001,1.53826216 C1.89999986,1.53826216 1.49000001,1.868264 1.49000001,2.0882614 L1.49000001,8.14826278 C1.49000001,8.35826186 1.8900001,8.68826369 2.49000001,8.68826369 L4.07999969,8.68826369 C4.66999984,8.68826369 5.07999969,8.35826186 5.07999969,8.14826278 L5.07999969,2.05826262 C5.07999969,1.82826308 4.68999982,1.50826339 4.07999969,1.50826339 L2.49000001,1.53826216 Z" id="Path-551" fill="#161616"></path>
                    </g>
                    <g id="Stroke-23" transform="translate(5.92, 25.338)">
                        <rect id="Rectangle-209" fill="#FFFFFF" x="0.750000076" y="0.749999542" width="7.78999996" height="20.6299992" rx="2.13000011"></rect>
                        <path d="M6.42000008,22.1300011 L2.88000011,22.1300011 C1.28942013,22.1300011 0,20.84058 0,19.25 L0,2.88000107 C0.00548696518,1.29169655 1.29169846,0.00548553467 2.88000011,0 L6.42000008,0 C8.00830269,0.00548553467 9.29451561,1.29169655 9.3000021,2.87999916 L9.3000021,19.25 C9.2945118,20.8383026 8.00830078,22.1245155 6.41999912,22.1300011 L6.42000008,22.1300011 Z M2.88000011,1.52000046 C2.1178484,1.52000046 1.5,2.1378479 1.5,2.89999962 L1.5,19.25 C1.5,20.0121536 2.11784744,20.6300011 2.88000011,20.6300011 L6.42000008,20.6300011 C7.18215275,20.6300011 7.80000019,20.0121536 7.80000019,19.25 L7.80000019,2.88000107 C7.78906536,2.12566948 7.17440987,1.52000046 6.42000008,1.52000046 L2.88000011,1.52000046 Z" id="Path-552" fill="#161616"></path>
                    </g>
                </g>
                <g id="50x50-Spacers">
                    <rect id="Rectangle-210" x="0" y="0" width="50" height="50"></rect>
                </g>
            </g>
            <g id="Group-6" transform="translate(34.0001, 0)">
                <g id="Group-3">
                    <mask id="mask-2" fill="white">
                        <use xlink:href="#path-1"></use>
                    </mask>
                    <g id="Clip-2"></g>
                    <path d="M7.99800021,15.9999998 C12.4160002,16.001 15.9990002,12.42 16,8.002 C16.0010002,3.583 12.4200002,0.001 8.00100021,-2.09387736e-07 C3.58300021,-0.001 0.00100020939,3.58 0,7.998 C-0.000999790612,12.417 3.58000021,15.999 7.99800021,15.9999998" id="Fill-1" fill="#5DC1FD" mask="url(#mask-2)"></path>
                </g>
                <path d="M6.97790021,10.8218 L4.40690021,8.7508 C4.07590021,8.4838 4.02290021,7.9998 4.28990021,7.6688 C4.55690021,7.3368 5.04290021,7.2848 5.37190021,7.5518 L7.34990021,9.1438 L10.5149002,5.2898 C10.7849002,4.9608 11.2699002,4.9128 11.5989002,5.1828 C11.9269002,5.4528 11.9749002,5.9378 11.7059002,6.2668 L8.05590021,10.7108 C7.90290021,10.8958 7.68290021,10.9918 7.45990021,10.9918 C7.29090021,10.9918 7.11990021,10.9358 6.97790021,10.8218 Z" id="Fill-4" fill="#FFFFFF"></path>
            </g>
        </g>
    </g>
</svg>