<?xml version="1.0" encoding="UTF-8"?>
<svg width="24px" height="24px" viewBox="0 0 24 24" version="1.1" xmlns="http://www.w3.org/2000/svg" xmlns:xlink="http://www.w3.org/1999/xlink">
    <title>Icon-App/Function/ID-Card</title>
    <g id="Icon-App/Function/ID-Card" stroke="none" stroke-width="1" fill="none" fill-rule="evenodd">
        <g id="24x24-Spacers">
            <rect id="Rectangle" x="0" y="0" width="24" height="24"></rect>
        </g>
        <path d="M19,4 C20.654,4 22,5.430125 22,7.1875 L22,17.8125 C22,19.569875 20.654,21 19,21 L5,21 C3.346,21 2,19.569875 2,17.8125 L2,7.1875 C2,5.430125 3.346,4 5,4 Z M19,6 L5,6 C4.44771525,6 4,6.44771525 4,7 L4,18 C4,18.5522847 4.44771525,19 5,19 L19,19 C19.5522847,19 20,18.5522847 20,18 L20,7 C20,6.44771525 19.5522847,6 19,6 Z M10.6082923,11.3896931 L10.6082923,10 L8.39170774,10 L8.39170774,11.3896931 L7,11.3896931 L7,13.6103069 L8.39170774,13.6103069 L8.39170774,15 L10.6082923,15 L10.6082923,13.6103069 L12,13.6103069 L12,11.3896931 L10.6082923,11.3896931 Z M14.9401249,10.4194292 C14.3310768,10.4199952 13.7311523,10.2759912 13.1927712,10 C12.8299165,10.691842 12.7734064,11.8160853 13.0856994,12.7543961 C13.3801622,13.7076023 14.0450374,14.5127283 14.9401249,15 C15.8359808,14.5132481 16.5014966,13.707992 16.7960376,12.7543961 C17.1098178,11.8160853 17.0518205,10.6947247 16.6889658,10 C16.1496246,10.2749082 15.549501,10.4188375 14.9401249,10.4194292 Z" id="Combined-Shape" fill="#005EB9"></path>
    </g>
</svg>