<?xml version="1.0" encoding="UTF-8"?>
<svg width="50px" height="50px" viewBox="0 0 50 50" version="1.1" xmlns="http://www.w3.org/2000/svg" xmlns:xlink="http://www.w3.org/1999/xlink">
    <title>Icon-Enterprise/Primary/Idea</title>
    <g id="Icon-Enterprise/Primary/Idea" stroke="none" stroke-width="1" fill="none" fill-rule="evenodd">
        <g id="Icon-Idea">
            <g id="Group" transform="translate(3.988, 0)">
                <g id="Fill-1" transform="translate(6.1711, 11.0249)" fill="#5DC1FD">
                    <path d="M12.1388099,38.975056 C13.7477808,38.975056 14.0076147,38.3954251 14.9070387,37.9756956 C15.8655622,37.647708 16.5474607,36.7943647 16.6559233,35.7871014 L16.6559195,29.0813864 C16.6559195,27.2125835 16.6559195,25.523662 19.1043532,22.8953468 C21.7526579,20.0471693 24.0511861,16.8991844 24.2710466,12.4420379 C24.4909071,7.98489135 21.3429203,0 12.1388099,0 C2.93469958,0 -0.16331616,8.0948197 0.00657518631,12.4420379 C0.176466532,16.789256 2.52496388,20.0471712 5.17326858,22.8953468 C7.62170234,25.5236658 7.62170234,27.2125835 7.62170234,29.0813864 L7.62170234,35.7970896 C7.72979128,36.7990576 8.40751534,37.6481578 9.36059113,37.9756879 C10.270007,38.3654455 10.5198472,38.975056 12.1388119,38.975056" id="Path-614"></path>
                </g>
                <g id="Stroke-5" transform="translate(8.2037, 8.0209)" fill-rule="nonzero">
                    <path d="M12.8745516,39.7305729 C14.4935163,39.7305729 14.7533483,39.150942 15.6527742,38.7312125 C16.608875,38.4021651 17.2872529,37.5483452 17.391663,36.5426107 L17.3916611,29.856891 C17.3916611,27.9880881 17.3916611,26.3091623 19.8500887,23.6708495 C22.4883996,20.822672 24.7869277,17.6746871 25.0067882,13.2175386 C25.2266488,8.76039022 22.0786619,0.735529261 12.8745516,0.735529261 C3.67044121,0.735529261 0.532450139,8.87032429 0.742315863,13.2175405 C0.952181587,17.5647568 3.2607036,20.8226739 5.90901021,23.6708514 C8.3674359,26.3091623 8.35744397,27.9880881 8.35744397,29.856891 L8.35744397,36.5725942 C8.4659046,37.5798574 9.14780118,38.4332045 10.1063247,38.7611959 C11.0057468,39.150942 11.2655807,39.7305729 12.8745516,39.7305729 Z" id="Path-615" fill="#FFFFFF"></path>
                    <path d="M12.8744627,40.4800407 C11.989268,40.5259555 11.1139165,40.2763594 10.3860555,39.7704957 C10.202339,39.6475276 10.008419,39.5405404 9.80642464,39.4507045 C8.56837498,39.0112046 7.70624631,37.8825972 7.60783479,36.5725417 L7.60783288,29.8668342 C7.60783288,28.0280109 7.60783288,26.5889333 5.35927196,24.1804749 C2.72096014,21.3422912 0.232552948,18.0543945 0.00269955782,13.2474734 C-0.0679044027,9.71525294 1.24881977,6.29607357 3.67035234,3.72357275 C6.08076836,1.24767929 9.42067184,-0.101339463 12.8744589,0.00594413235 C16.334031,-0.0952369919 19.6771216,1.2608535 22.0885688,3.74355183 C24.5115786,6.30922014 25.8381565,9.71888602 25.7861993,13.2474715 C25.5463511,18.0543926 23.0679377,21.3422893 20.4296269,24.1804711 C18.1710721,26.5989252 18.1710721,28.0280071 18.1710721,29.8468466 L18.1710721,36.5725417 C18.0751805,37.8835541 17.2121178,39.0133814 15.9724784,39.4507007 C15.7726799,39.544894 15.5790802,39.6517096 15.3928495,39.7704957 C14.6567502,40.2828174 13.7697523,40.5327261 12.8744627,40.4800407 Z M12.8744627,1.50498475 C9.84540688,1.40127514 6.91323958,2.58067417 4.79963067,4.75290512 C2.67862883,7.04262222 1.5131169,10.0565072 1.54171646,13.1775108 C1.76157506,17.4947513 4.06010419,20.522814 6.53851755,23.1711187 C8.39326275,24.8843777 9.36783586,27.3483884 9.18682225,29.8668342 L9.18682225,36.5925293 C9.30197911,37.2941753 9.79949586,37.8726854 10.4759981,38.0915738 C10.7502195,38.2134974 11.0142298,38.3571966 11.2654918,38.5213028 C11.7550143,38.873849 12.35266,39.0435897 12.9544134,39.0009801 C13.5592585,39.0434068 14.1599883,38.8737918 14.6533268,38.5212952 C14.9045241,38.362915 15.1648079,38.2194254 15.4328286,38.0915661 C16.109329,37.8726777 16.6068438,37.2941715 16.7220045,36.5925293 L16.7220045,29.8668342 C16.5372892,27.3399709 17.5161701,24.8670014 19.3802992,23.1511349 C21.8287368,20.5228159 24.1272649,17.4947532 24.3771051,13.1575289 C24.4149188,10.0348593 23.2481355,7.01767862 21.1191918,4.73291936 C18.9662518,2.51447528 15.9620024,1.33098379 12.8744627,1.48499708 L12.8744627,1.50498475 Z" id="Path-616" fill="#161616"></path>
                </g>
                <g id="Stroke-7" transform="translate(15.1023, 39.9264)" fill="#161616" fill-rule="nonzero">
                    <path d="M11.2128231,1.49904061 L0.749520307,1.49904061 C0.335572053,1.49904061 0,1.16347047 0,0.749520307 C0,0.335570147 0.335572053,0 0.749520307,0 L11.2128231,0 C11.6267714,0 11.9623434,0.335570147 11.9623434,0.749520307 C11.9623434,1.16347047 11.6267714,1.49904061 11.2128231,1.49904061 Z" id="Path-617"></path>
                </g>
                <g id="Stroke-9" transform="translate(15.1023, 42.8546)" fill="#161616" fill-rule="nonzero">
                    <path d="M11.2128231,1.49904061 L0.749520307,1.49904061 C0.335572053,1.49904061 0,1.16347047 0,0.749520307 C0,0.335570147 0.335572053,0 0.749520307,0 L11.2128231,0 C11.6267714,0 11.9623434,0.335570147 11.9623434,0.749520307 C11.9623434,1.16347047 11.6267714,1.49904061 11.2128231,1.49904061 Z" id="Path-618"></path>
                </g>
                <g id="Stroke-29" transform="translate(22.3817, 12.3281)" fill="#161616" fill-rule="nonzero">
                    <path d="M6.02209851,7.09141541 C5.65776107,7.09207179 5.34572398,6.8306348 5.28257394,6.47180988 C4.9138524,3.97820086 3.0249246,1.98144908 0.555599662,1.47500879 C0.155447968,1.36738399 -0.0816896931,0.95574978 0.0259360523,0.555599039 C0.133561798,0.155448298 0.545197917,-0.0816903154 0.945347705,0.0259363831 C3.9793099,0.689006129 6.29152218,3.15218666 6.7616307,6.22197168 C6.79645567,6.41815426 6.75173408,6.62012575 6.6373473,6.7832675 C6.52296051,6.94640734 6.348321,7.05728875 6.15202024,7.09141541 L6.02209851,7.09141541 Z" id="Path-619"></path>
                </g>
                <g id="Group-381" fill="#161616" fill-rule="nonzero">
                    <path d="M16.8615793,6.37783889 C16.5256641,6.37656607 16.231619,6.15194739 16.1420424,5.82819047 L14.8128893,0.941318385 C14.7608977,0.751800347 14.7864742,0.549381213 14.8839765,0.378753327 C14.9814788,0.20812556 15.142884,0.0833227952 15.3325591,0.0319004462 C15.7319941,-0.0703758085 16.1400733,0.164714372 16.2519688,0.561561494 L17.5811181,5.42844669 C17.6361747,5.6193288 17.6121156,5.82433485 17.5143616,5.99728315 C17.4166077,6.17023193 17.2533802,6.29657729 17.0614502,6.34785835 C16.9966609,6.36761442 16.9293155,6.37771595 16.8615812,6.37783889 L16.8615793,6.37783889 Z" id="Path-620"></path>
                    <path d="M24.9961014,6.37742918 C24.9298882,6.38790335 24.8624417,6.38790335 24.7962285,6.37742918 C24.3984824,6.26125301 24.1672556,5.8477141 24.2765626,5.44802417 L25.6756668,0.551158066 C25.7244598,0.357673344 25.850373,0.192617459 26.0240861,0.0944311017 C26.1977993,-0.00375531561 26.4041491,-0.0265014473 26.5950784,0.0314899573 C26.9914674,0.143157053 27.2235195,0.55371073 27.1147463,0.950901908 L25.725634,5.82778124 C25.6350815,6.15512739 25.3357278,6.38066721 24.9961014,6.37742965 L24.9961014,6.37742918 Z" id="Path-621"></path>
                    <path d="M32.2816755,10.5448502 C32.084578,10.5462505 31.8946513,10.4709956 31.7520157,10.3349647 C31.4597528,10.0423349 31.4597528,9.56827306 31.7520195,9.27564228 L35.3097401,5.6779449 C35.5996013,5.47906419 35.9887375,5.50835138 36.2455655,5.74837731 C36.5023934,5.98840323 36.5578999,6.37467068 36.3790555,6.67730483 L32.821331,10.2750027 C32.6879859,10.4375745 32.4917423,10.5356972 32.2816755,10.5448502 L32.2816755,10.5448502 Z" id="Path-622"></path>
                    <path d="M36.3484356,17.7908842 C35.9619108,17.806686 35.6268591,17.5257284 35.5750544,17.1423659 C35.5232496,16.7590015 35.7717097,16.3991911 36.1485628,16.3118313 L40.9854673,14.9527005 C41.3856171,14.8423147 41.799491,15.0772146 41.9098749,15.4773653 C42.0202626,15.8775151 41.7853628,16.291388 41.385213,16.4017739 L36.5183289,17.7609046 C36.4630168,17.7773183 36.4060198,17.787375 36.3484356,17.7908842 Z" id="Path-623"></path>
                    <path d="M41.1653521,27.2945598 C41.0990836,27.3042677 41.0317515,27.3042677 40.965483,27.2945598 L36.0786074,26.0153778 C35.8870911,25.9661253 35.7232745,25.8422231 35.6237517,25.6713444 C35.524229,25.5004638 35.4972877,25.2968435 35.5489476,25.1059618 C35.6518976,24.706443 36.0583643,24.4652395 36.4583655,24.5663044 L41.355233,25.8554802 C41.7293984,25.9431164 41.9766653,26.299532 41.9277349,26.6806929 C41.8788008,27.0618519 41.5495209,27.3442525 41.1653597,27.3345332 L41.1653521,27.2945598 Z" id="Path-624"></path>
                    <path d="M9.76608969,10.5355966 C9.56391425,10.5380994 9.36930232,10.4588121 9.22643606,10.3157361 L5.66871163,6.71803971 C5.37644587,6.4254094 5.37644587,5.95134852 5.66871163,5.65871773 C5.96134242,5.36645197 6.4354033,5.36645245 6.72803313,5.65871868 L10.2857557,9.25641463 C10.5780233,9.54904447 10.5780233,10.0231063 10.2857566,10.3157371 C10.1510848,10.458733 9.96249815,10.5385197 9.76609065,10.5355966 L9.76608969,10.5355966 Z" id="Path-625"></path>
                    <path d="M5.68806998,17.7707773 L5.48819809,17.7707773 L0.611318699,16.3816669 C0.333079661,16.32946 0.107994929,16.12494 0.0294495597,15.8529592 C-0.049095333,15.5809795 0.0323016048,15.2879503 0.239869967,15.0954456 C0.447438806,14.9029418 0.745759386,14.8438109 1.01106296,14.9425874 L5.88794187,16.3017182 C6.28568994,16.417891 6.51691574,16.8314313 6.40760783,17.2311218 C6.31728497,17.5529487 6.02231346,17.7741778 5.68806998,17.7707773 Z" id="Path-626"></path>
                    <path d="M0.881326717,27.2744832 C0.511915161,27.265044 0.204507589,26.9877709 0.157138861,26.6212872 C0.109770133,26.2548034 0.336577052,25.9084808 0.691448182,25.8054259 L5.57832045,24.5162482 C5.77048777,24.4643557 5.97540423,24.4910282 6.14788124,24.5903909 C6.32035825,24.6897536 6.44622755,24.8536406 6.49773115,25.0459137 C6.56372514,25.23934 6.54898028,25.4512005 6.45682944,25.6336208 C6.3646786,25.8160431 6.20289783,25.9536275 6.00804573,26.0152869 L1.07120525,27.2544955 L0.881326717,27.2744832 Z" id="Path-627"></path>
                </g>
            </g>
            <g id="50x50-Spacers" fill-rule="nonzero">
                <rect id="Rectangle-225" x="0" y="0" width="50" height="50"></rect>
            </g>
        </g>
    </g>
</svg>