<?xml version="1.0" encoding="UTF-8"?>
<svg width="50px" height="50px" viewBox="0 0 50 50" version="1.1" xmlns="http://www.w3.org/2000/svg" xmlns:xlink="http://www.w3.org/1999/xlink">
    <title>Icon-Enterprise/Primary/Wellness-Instruction</title>
    <defs>
        <polygon id="path-1" points="0 0 15.9999002 0 15.9999002 16 0 16"></polygon>
    </defs>
    <g id="Icon-Enterprise/Primary/Wellness-Instruction" stroke="none" stroke-width="1" fill="none" fill-rule="evenodd">
        <g id="Icon-To-Do-Medical-Document-Confirmed" transform="translate(0, 0)">
            <g fill-rule="nonzero">
                <g id="Group-584" transform="translate(2.02, 0)">
                    <rect id="Rectangle-309" fill="#5DC1FD" x="0" y="8.82299969" width="34.4900017" height="41.1500015" rx="2.53999996"></rect>
                    <g id="Group-581" transform="translate(2.98, 4.943)">
                        <rect id="Rectangle-310" fill="#FFFFFF" x="0.789999962" y="0.750000057" width="34.4900017" height="40.6399994" rx="2.52999997"></rect>
                        <path d="M32.75,42.1402762 L3.31000042,42.1402762 C2.43490362,42.1481421 1.59289456,41.8061087 0.971271518,41.190119 C0.349648479,40.5741293 0,39.7352698 0,38.8601362 L0,3.27013704 C0.00262642203,2.39673826 0.353486064,1.560456 0.974817279,0.946633545 C1.59614849,0.332810608 2.43663454,-0.00785520964 3.31000042,0 L32.75,0 C34.5458794,0.016555515 35.9946022,1.47419426 36,3.27013799 L36,38.8601362 C36,40.6601164 34.549633,42.1237509 32.7498627,42.1402762 L32.75,42.1402762 Z M3.31000042,1.50013706 C2.33245659,1.50013706 1.53999996,2.29259321 1.53999996,3.27013704 L1.53999996,38.8601362 C1.53999996,39.8393309 2.33086586,40.6346419 3.31002331,40.640135 L32.75,40.640135 C33.7330666,40.640135 34.5299988,39.8432028 34.5299988,38.8601362 L34.5299988,3.27013704 C34.524498,2.29097816 33.7291756,1.50013706 32.75,1.50013706 L3.31000042,1.50013706 Z" id="Path-932" fill="#161616"></path>
                    </g>
                    <g id="Group-582" transform="translate(11.33, 0)">
                        <path d="M13.6499996,3.27329891 C13.2076969,1.70529406 11.7367439,0.654020238 10.1099987,0.743299413 C8.47850227,0.645328927 6.9998188,1.69915049 6.55999947,3.27329843 L0.75,3.27329891 L0.75,8.423299 L19.4800014,8.423299 L19.4800014,3.27329891 L13.6499996,3.27329891 Z" id="Path-933" fill="#FFFFFF"></path>
                        <path d="M19.48007,9.17311911 L0.750068555,9.17311911 C0.335855375,9.17311911 0,8.83733229 0,8.42311911 L0,3.27311901 C-0.00264846267,3.07338623 0.0754956108,2.88103775 0.216741453,2.73979191 C0.357987295,2.59854607 0.550335775,2.52040152 0.750068555,2.52311901 L6.00006856,2.52311901 C6.73882092,0.933193961 8.35801877,-0.0596003144 10.1100692,0.00311903073 C11.8659018,-0.0632872193 13.4885291,0.935556689 14.2200679,2.53311948 L19.48007,2.533119 C19.8942851,2.53311924 20.23007,2.86890558 20.23007,3.28311924 L20.23007,8.42311911 C20.2246837,8.83508066 19.8920306,9.16773275 19.48007,9.17311911 Z M1.48007001,7.67311911 L18.73007,7.67311911 L18.73007,4.00311903 L13.6500682,4.00311903 C13.2931022,4.00172333 12.9852179,3.75208572 12.9100703,3.40311889 C12.5292338,2.18525318 11.3631972,1.38722138 10.0900687,1.4731193 C8.81896199,1.39458136 7.65703572,2.18980054 7.27006901,3.40311817 C7.19916142,3.75053481 6.89464177,4.00082568 6.54006947,4.00311903 L1.50006856,4.00311903 L1.48007001,7.67311911 Z" id="Path-934" fill="#161616"></path>
                    </g>
                    <g id="Group-583" transform="translate(7.86, 13.183)" fill="#161616">
                        <path d="M25.9599988,7.92 L16.6799981,7.92 C16.2657868,7.92 15.93,7.58421509 15.93,7.17000191 C15.93,6.75578873 16.2657868,6.42 16.68,6.42 L25.9599988,6.42 C26.3742139,6.42 26.7099988,6.75578873 26.7099988,7.17000191 C26.7099988,7.58421509 26.3742139,7.92 25.9599988,7.92 L25.9599988,7.92 Z" id="Path-935"></path>
                        <path d="M25.9599988,14.35 L16.6799981,14.35 C16.2657868,14.35 15.93,14.0142151 15.93,13.6000019 C15.93,13.1857887 16.2657868,12.85 16.68,12.85 L25.9599988,12.85 C26.3742139,12.85 26.7099988,13.1857887 26.7099988,13.6000019 C26.7099988,14.0142151 26.3742139,14.35 25.9599988,14.35 L25.9599988,14.35 Z" id="Path-936"></path>
                        <path d="M25.96,1.5 L16.96,1.5 C16.5457868,1.5 16.21,1.16421318 16.21,0.75 C16.21,0.335786819 16.5457868,0 16.96,0 L25.96,0 C26.3742151,0 26.71,0.335786819 26.71,0.75 C26.71,1.16421318 26.3742151,1.5 25.96,1.5 Z" id="Path-937"></path>
                        <path d="M25.9599991,20.82 L0.749999046,20.82 C0.335786819,20.82 0,20.4842151 0,20.07 C0,19.6557849 0.335786819,19.32 0.75,19.32 L25.9599991,19.32 C26.3742142,19.32 26.7099991,19.6557849 26.7099991,20.07 C26.7099991,20.4842151 26.3742142,20.82 25.9599991,20.82 Z" id="Path-938"></path>
                        <path d="M25.9599991,27.19 L0.749999046,27.19 C0.335786819,27.19 0,26.8542189 0,26.4400038 C0,26.0257887 0.335786819,25.69 0.75,25.69 L25.9599991,25.69 C26.3742142,25.69 26.7099991,26.0257887 26.7099991,26.4400038 C26.7099991,26.8542189 26.3742142,27.19 25.9599991,27.19 L25.9599991,27.19 Z" id="Path-939"></path>
                    </g>
                    <path d="M13.9103494,26.2528912 C13.7481886,26.2521778 13.5905052,26.199617 13.4603496,26.1028897 C9.06034906,22.8228909 6.92034967,19.8928906 7.08034952,17.372892 C7.17791231,16.0924279 7.93590791,14.9554335 9.08035047,14.3728911 C10.6806656,13.487724 12.6775099,13.8006331 13.9303509,15.1328923 C15.1831938,13.800634 17.1800371,13.4877268 18.7803503,14.372893 C19.9247919,14.9554354 20.6827894,16.0924298 20.7803503,17.372892 C20.9403501,19.8928925 18.7803503,22.8228909 14.4003511,26.1028916 C14.2600942,26.2096554 14.0863348,26.2628456 13.9103494,26.2528912 Z M10.9803491,15.3328911 C10.5684915,15.3406607 10.165566,15.4543063 9.81034906,15.662891 C9.11734731,16.0138661 8.65565927,16.6988293 8.59034784,17.4728905 C8.53034837,18.5528904 9.14034898,20.8828904 13.9303489,24.5628907 C18.7203489,20.8828904 19.3403497,18.5628907 19.27035,17.4728905 C19.2088571,16.6974903 18.7460256,16.0108315 18.0503526,15.6628901 C16.7962919,15.055122 15.2858053,15.485458 14.5403505,16.6628891 L14.3803507,16.8228909 C14.1137262,17.0117031 13.7569738,17.0117031 13.4903494,16.8228909 C13.4321352,16.7746712 13.3785682,16.7211033 13.3303505,16.662891 C12.7708269,15.9066397 11.9167362,15.4232613 10.9803491,15.3328911 L10.9803491,15.3328911 Z" id="Path-940" fill="#161616"></path>
                </g>
                <g id="50x50-Spacers" transform="translate(0, 0.003)">
                    <rect id="Rectangle-311" x="0" y="0" width="50" height="50"></rect>
                </g>
            </g>
            <g id="Group-6" transform="translate(32.0001, 3)">
                <g id="Group-3">
                    <mask id="mask-2" fill="white">
                        <use xlink:href="#path-1"></use>
                    </mask>
                    <g id="Clip-2"></g>
                    <path d="M7.99800021,15.9999998 C12.4160002,16.001 15.9990002,12.42 16,8.002 C16.0010002,3.583 12.4200002,0.001 8.00100021,-2.09387736e-07 C3.58300021,-0.001 0.00100020939,3.58 0,7.998 C-0.000999790612,12.417 3.58000021,15.999 7.99800021,15.9999998" id="Fill-1" fill="#5DC1FD" mask="url(#mask-2)"></path>
                </g>
                <path d="M6.97790021,10.8218 L4.40690021,8.7508 C4.07590021,8.4838 4.02290021,7.9998 4.28990021,7.6688 C4.55690021,7.3368 5.04290021,7.2848 5.37190021,7.5518 L7.34990021,9.1438 L10.5149002,5.2898 C10.7849002,4.9608 11.2699002,4.9128 11.5989002,5.1828 C11.9269002,5.4528 11.9749002,5.9378 11.7059002,6.2668 L8.05590021,10.7108 C7.90290021,10.8958 7.68290021,10.9918 7.45990021,10.9918 C7.29090021,10.9918 7.11990021,10.9358 6.97790021,10.8218 Z" id="Fill-4" fill="#FFFFFF"></path>
            </g>
        </g>
    </g>
</svg>