<?xml version="1.0" encoding="UTF-8"?>
<svg width="50px" height="50px" viewBox="0 0 50 50" version="1.1" xmlns="http://www.w3.org/2000/svg" xmlns:xlink="http://www.w3.org/1999/xlink">
    <title>Icon-Enterprise/Primary/Checklist</title>
    <g id="Icon-Enterprise/Primary/Checklist" stroke="none" stroke-width="1" fill="none" fill-rule="evenodd">
        <g id="Icon-Checklist" fill-rule="nonzero">
            <rect id="Rectangle-116" fill="#5DC1FD" x="4.98" y="5.40999985" width="33.1699982" height="44.4799995" rx="1.33000004"></rect>
            <g id="Group-189" transform="translate(7.8, 0)">
                <rect id="Rectangle-117" fill="#FFFFFF" x="0.750000191" y="0.75" width="35.4399986" height="45.7799988" rx="0.649999976"></rect>
                <path d="M35.5400009,47.2700081 L1.40000057,47.2700081 C0.630653381,47.2700081 0.00547361374,46.6492577 0,45.8799667 L0,1.39999998 C0,0.626800954 0.626802444,0 1.40000153,0 L35.5400009,0 C36.3132095,0 36.9400101,0.62680465 36.9400101,1.40000534 L36.9400101,45.8800011 C36.9345131,46.6492958 36.3093147,47.2700081 35.5400047,47.2700081 L35.5400009,47.2700081 Z M1.54000092,45.7700005 L35.4400024,45.7700005 L35.4400024,1.5 L1.50000095,1.5 L1.54000092,45.7700005 Z" id="Path-277" fill="#161616"></path>
            </g>
            <path d="M29.5399998,29.78 L13.629999,29.78 C13.2157868,29.78 12.88,29.4442151 12.88,29.0300019 C12.88,28.6157887 13.2157868,28.28 13.63,28.28 L29.5399998,28.28 C29.954213,28.28 30.2899998,28.6157887 30.2899998,29.0300019 C30.2899998,29.4442151 29.954213,29.78 29.5399998,29.78 L29.5399998,29.78 Z" id="Path-278" fill="#161616"></path>
            <path d="M29.5399998,22.34 L13.629999,22.34 C13.2157868,22.34 12.88,22.0042132 12.88,21.59 C12.88,21.1757868 13.2157868,20.84 13.63,20.84 L29.5399998,20.84 C29.954213,20.84 30.2899998,21.1757868 30.2899998,21.59 C30.2899998,22.0042132 29.954213,22.34 29.5399998,22.34 Z" id="Path-279" fill="#161616"></path>
            <path d="M29.5399998,15.55 L13.629999,15.55 C13.2157868,15.55 12.88,15.2142132 12.88,14.8 C12.88,14.3857868 13.2157868,14.05 13.63,14.05 L29.5399998,14.05 C29.954213,14.05 30.2899998,14.3857868 30.2899998,14.8 C30.2899998,15.2142132 29.954213,15.55 29.5399998,15.55 Z" id="Path-280" fill="#161616"></path>
            <path d="M35.4195773,17.359725 C35.2256114,17.3596011 35.0392367,17.2843352 34.8995807,17.1497279 L32.8995769,15.1497259 C32.7005717,14.8596793 32.7298762,14.4702959 32.9700572,14.2133046 C33.2102344,13.9563132 33.5967509,13.9007683 33.8995769,14.0797263 L35.3795764,15.5197268 L39.3795764,11.5197268 C39.56655,11.3190756 39.8481319,11.2364788 40.1138675,11.3043433 C40.3795993,11.3722067 40.5870998,11.5797062 40.6549632,11.845439 C40.7228267,12.1111727 40.6402309,12.3927574 40.4395778,12.5797282 L35.9995792,17.1397238 C35.8501994,17.2981043 35.6364162,17.3791952 35.4195773,17.359725 Z" id="Path-281" fill="#161616"></path>
            <path d="M35.4199252,24.209571 C35.2261614,24.2084171 35.040153,24.133298 34.8999285,23.99957 L32.8999285,22.0495712 C32.6887698,21.759885 32.712131,21.361272 32.9556841,21.0982353 C33.1992373,20.8351985 33.5948786,20.7812873 33.8999285,20.9695732 L35.379928,22.4095718 L39.379928,18.4095718 C39.5192141,18.2666217 39.7103381,18.186 39.9099268,18.186 C40.1095156,18.186 40.3006396,18.2666236 40.4399294,18.4095718 C40.7323832,18.7023898 40.7323832,19.1767551 40.4399294,19.4695712 L35.999927,23.9995719 C35.8456606,24.1495181 35.6344332,24.2259971 35.419929,24.209571 L35.4199252,24.209571 Z" id="Path-282" fill="#161616"></path>
            <path d="M35.4203379,32.0597192 C35.226372,32.0595972 35.0399973,31.9843294 34.9003413,31.8497221 L32.9003374,29.8497201 C32.6078875,29.5569021 32.6078875,29.0825407 32.9003374,28.7897226 C33.1931574,28.4972688 33.6675227,28.4972669 33.9603388,28.7897207 L35.4403384,30.2297212 L39.4403384,26.2297212 C39.6273119,26.029072 39.9088976,25.9464799 40.1746294,26.0143434 C40.4403574,26.0822088 40.6478579,26.2897054 40.7157214,26.5554372 C40.7835848,26.821169 40.7009928,27.1027509 40.5003435,27.2897226 L36.0003397,31.839718 C35.85096,31.9980966 35.6371767,32.0791894 35.4203379,32.0597192 Z" id="Path-283" fill="#161616"></path>
            <g id="50x50-Spacers">
                <rect id="Rectangle-118" x="0" y="0" width="50" height="50"></rect>
            </g>
        </g>
    </g>
</svg>