<?xml version="1.0" encoding="UTF-8"?>
<svg width="192px" height="56px" viewBox="0 0 192 56" version="1.1" xmlns="http://www.w3.org/2000/svg" xmlns:xlink="http://www.w3.org/1999/xlink">
    <title>Logos/Vendors/Hinge-Health</title>
    <g id="Logos/Vendors/Hinge-Health" stroke="none" stroke-width="1" fill="none" fill-rule="evenodd">
        <g id="Hinge-Health-Logo-Horizontal-Green" transform="translate(26, 0)" fill="#007B34" fill-rule="nonzero">
            <path d="M64.7432657,22.6613458 L64.7432657,5.68120148 L62.1083101,5.68120148 L62.1083101,12.2559671 L53.0093041,12.2559671 L53.0093041,5.68120148 L50.3743486,5.68120148 L50.3743486,22.6613458 L53.0093041,22.6613458 L53.0093041,14.770507 L62.1083101,14.770507 L62.1083101,22.6613458 L64.7432657,22.6613458 Z M68.0453695,22.6613458 L70.5569867,22.6613458 L70.5569867,11.1807073 L68.0453695,11.1807073 L68.0453695,22.6613458 Z M69.2899655,8.90698088 C69.7328623,8.90698088 70.1196962,8.75017216 70.4392546,8.44215503 C70.7588131,8.1341379 70.9157892,7.74771641 70.9157892,7.30529181 C70.9157892,6.8628672 70.7532068,6.47644571 70.4392546,6.15722796 C70.1196962,5.8380102 69.7328623,5.68120148 69.2899655,5.68120148 C68.8470687,5.68120148 68.4602348,5.84361051 68.151889,6.15722796 C67.8435431,6.47644571 67.6865671,6.8628672 67.6865671,7.30529181 C67.6865671,7.74771641 67.8435431,8.1341379 68.151889,8.44215503 C68.4602348,8.75017216 68.8414625,8.90698088 69.2899655,8.90698088 Z M76.376314,14.860112 C77.2228636,13.8464556 78.2656332,13.3368273 79.4878041,13.3368273 C80.4184479,13.3368273 81.1696906,13.6896469 81.7191068,14.3896858 C82.1451847,14.9217154 82.36383,15.7785631 82.36383,16.9210266 L82.36383,22.6613458 L84.8754472,22.6613458 L84.8754472,17.0386331 C84.8754472,15.2801353 84.4942196,13.9136593 83.7485832,12.972807 C82.694601,11.6231319 81.2818163,10.9398939 79.5606858,10.9398939 C78.2936646,10.9398939 77.2004384,11.3319157 76.3034323,12.1047587 L76.3034323,11.1807073 L73.8590905,11.1807073 L73.8590905,22.6613458 L76.3707077,22.6613458 L76.3707077,14.860112 L76.376314,14.860112 Z M96.245,11.1807073 L96.245,12.0767572 C95.2807184,11.3207151 94.1370356,10.9398939 92.8475892,10.9398939 C91.8104259,10.9398939 90.8629632,11.1863077 90.0332325,11.6735347 C89.1418326,12.1943637 88.4186214,12.9224042 87.8804177,13.8464556 C87.3478203,14.770507 87.0731122,15.8009643 87.0731122,16.9210266 C87.0731122,18.0410889 87.3422141,19.0659459 87.8692052,19.984397 C88.3961963,20.8972477 89.1138012,21.6252882 90.005201,22.1461172 C90.8517506,22.6501452 91.8216385,22.9021592 92.8924395,22.9021592 C94.1482481,22.9021592 95.2526869,22.538139 96.1721182,21.8156988 L96.1721182,22.1853194 C96.1721182,23.4453894 95.9702919,24.3974424 95.5666391,25.0134767 C95.0340417,25.8367224 94.1482481,26.2511455 92.9372898,26.2511455 C91.5132926,26.2511455 90.296728,25.5903087 89.3212339,24.2910365 L89.2427458,24.1846306 L87.3982769,25.8983259 L87.4487335,25.9823305 C87.886024,26.6823695 88.5980227,27.3096044 89.5623043,27.841634 C90.5265859,28.3736635 91.6926938,28.6480788 93.0325967,28.6480788 C94.1482481,28.6480788 95.1517738,28.3960648 96.0039296,27.9032374 C96.8560854,27.4048097 97.52884,26.7047707 97.9997682,25.8087209 C98.4538776,24.9182714 98.6837354,23.6582013 98.6837354,22.0733131 L98.6837354,11.191908 L96.2393937,11.191908 L96.245,11.1807073 Z M96.1721182,18.9875415 C95.4040567,19.9955976 94.4061374,20.5108262 93.2007854,20.5108262 C92.1692283,20.5108262 91.3002536,20.1580066 90.6162865,19.4579677 C89.9323193,18.7579288 89.5847294,17.9066814 89.5847294,16.9210266 C89.5847294,15.9353718 89.9155004,15.0841244 90.5714362,14.3840855 C91.2217656,13.6896469 92.0683152,13.3312269 93.0830533,13.3312269 C94.3500745,13.3312269 95.3872379,13.8464556 96.1721182,14.8545117 L96.1721182,18.9819412 L96.1721182,18.9875415 Z M110.456941,12.6591896 C109.414171,11.5223263 108.079875,10.9454943 106.487689,10.9454943 C104.895503,10.9454943 103.51075,11.516726 102.462374,12.6479889 C101.413998,13.7736515 100.887007,15.2129316 100.887007,16.9266269 C100.887007,18.6403222 101.464454,20.0628013 102.596925,21.1940642 C103.729395,22.3309275 105.153392,22.9021592 106.824066,22.9021592 C107.90608,22.9021592 108.875968,22.6949477 109.700092,22.2917253 C110.524216,21.8885029 111.185758,21.3676739 111.656687,20.7516396 L111.723962,20.667635 L110.075713,19.0995478 L109.991619,19.1891527 C109.094613,20.1804079 108.035024,20.6788356 106.846491,20.6788356 C105.910241,20.6788356 105.097329,20.3596178 104.424575,19.7323829 C103.785458,19.1331496 103.421049,18.3883082 103.336955,17.5258602 L111.981851,17.5258602 L111.993064,17.4194543 C112.009883,17.2682459 112.015489,17.1058369 112.015489,16.9266269 C112.015489,15.2297325 111.488498,13.7960528 110.451335,12.6591896 L110.456941,12.6591896 Z M103.561206,15.3697403 C103.757426,14.7481057 104.121835,14.2272768 104.648826,13.8240544 C105.215061,13.3872301 105.859785,13.1688179 106.560571,13.1688179 C107.216506,13.1688179 107.821985,13.3928304 108.365795,13.835255 C108.870361,14.2440777 109.206739,14.7593064 109.374927,15.3697403 L103.561206,15.3697403 L103.561206,15.3697403 Z M76.4660146,44.7881764 L76.4660146,27.8080321 L73.8310591,27.8080321 L73.8310591,34.3827977 L64.7320531,34.3827977 L64.7320531,27.8080321 L62.0970976,27.8080321 L62.0970976,44.7881764 L64.7320531,44.7881764 L64.7320531,36.8973376 L73.8310591,36.8973376 L73.8310591,44.7881764 L76.4660146,44.7881764 Z M88.2616454,34.7804199 C87.2188757,33.6435566 85.8845791,33.0667245 84.2923932,33.0667245 C82.7002073,33.0667245 81.3154541,33.6379563 80.2670781,34.7692192 C79.2187022,35.8948818 78.6917111,37.3341619 78.6917111,39.0478572 C78.6917111,40.7615525 79.2691588,42.1840316 80.4016291,43.3152945 C81.5340993,44.4521578 82.9580966,45.0233895 84.6287705,45.0233895 C85.7107841,45.0233895 86.680672,44.816178 87.5047964,44.4129556 C88.3289208,44.0097332 88.9904628,43.4889042 89.4613911,42.8728699 L89.5286665,42.7888653 L87.8748115,41.220778 L87.7907171,41.310383 C86.893711,42.3016382 85.8341225,42.8000659 84.6455894,42.8000659 C83.7093392,42.8000659 82.8964274,42.4808481 82.2236728,41.8536132 C81.5845559,41.2543799 81.2201472,40.5095385 81.1360528,39.6470905 L89.7809495,39.6470905 L89.7921621,39.5406846 C89.8089809,39.3894762 89.8145872,39.2270672 89.8145872,39.0478572 C89.8145872,37.3509628 89.2875961,35.9172831 88.2504328,34.7804199 L88.2616454,34.7804199 Z M81.3659107,37.4909706 C81.5621308,36.869336 81.9265395,36.3485071 82.4535306,35.9452846 C83.0197657,35.5084603 83.6644889,35.2900482 84.3652749,35.2900482 C85.0212107,35.2900482 85.6266898,35.5140607 86.1704998,35.9564853 C86.6750657,36.365308 87.011443,36.8805367 87.1796317,37.4909706 L81.3659107,37.4909706 L81.3659107,37.4909706 Z M100.741243,33.3075379 L100.741243,34.2035878 C99.7769617,33.4475457 98.6332788,33.0667245 97.3438325,33.0667245 C96.3066692,33.0667245 95.3592064,33.3131383 94.5294757,33.8003653 C93.6380759,34.3211943 92.9148647,35.0492348 92.376661,35.9732862 C91.8440636,36.8973376 91.5693555,37.9333952 91.5693555,39.0478572 C91.5693555,40.1623192 91.8384573,41.1927765 92.3654484,42.1112276 C92.8924395,43.0240783 93.6100445,43.7521188 94.5014443,44.2729478 C95.3479938,44.7769758 96.3178817,45.0289898 97.3886828,45.0289898 C98.6893417,45.0289898 99.8162057,44.6481687 100.741243,43.9033272 L100.741243,44.7937768 L103.185585,44.7937768 L103.185585,33.3131383 L100.741243,33.3131383 L100.741243,33.3075379 Z M100.668362,41.1143721 C99.9003,42.1224282 98.9023807,42.6376568 97.6970287,42.6376568 C96.6654716,42.6376568 95.7964969,42.2848372 95.1125297,41.5847983 C94.4285626,40.8847594 94.0809727,40.033512 94.0809727,39.0478572 C94.0809727,38.0622024 94.4117437,37.210955 95.0676794,36.5109161 C95.7180089,35.8164775 96.5645584,35.4580575 97.5792966,35.4580575 C98.8463178,35.4580575 99.8834811,35.9732862 100.668362,36.9813423 L100.668362,41.1087718 L100.668362,41.1143721 Z M106.341925,44.7881764 L108.853543,44.7881764 L108.853543,27.5672187 L106.341925,27.5672187 L106.341925,44.7881764 Z M110.983932,35.5812644 L113.854352,35.5812644 L113.854352,40.6047438 C113.854352,41.9544188 114.168304,42.9848762 114.796208,43.6737145 C115.597907,44.5753646 116.69674,45.0289898 118.070281,45.0289898 C118.782279,45.0289898 119.387758,44.9449852 119.881112,44.7825761 L119.982025,44.7489743 L119.477459,42.4640472 L119.354121,42.4976491 C119.028956,42.587254 118.625303,42.6376568 118.143162,42.6376568 C117.464801,42.6376568 116.971448,42.4528466 116.674315,42.083226 C116.472488,41.8536132 116.365969,41.3943877 116.365969,40.7279506 L116.365969,35.5868647 L119.9596,35.5868647 L119.9596,33.3131383 L116.365969,33.3131383 L116.365969,30.2049654 L113.854352,30.2049654 L113.854352,33.3131383 L110.983932,33.3131383 L110.983932,35.5868647 L110.983932,35.5812644 Z M124.680095,36.9869426 C125.526644,35.9732862 126.57502,35.4636579 127.791585,35.4636579 C128.722228,35.4636579 129.473471,35.8164775 130.022887,36.5165164 C130.448965,37.048546 130.667611,37.9053937 130.667611,39.0478572 L130.667611,44.7881764 L133.179228,44.7881764 L133.179228,39.1654637 C133.179228,37.4069659 132.798,36.0404899 132.052364,35.0996376 C130.992775,33.7499625 129.585597,33.0667245 127.864466,33.0667245 C126.68154,33.0667245 125.610738,33.4307448 124.680095,34.153185 L124.680095,27.5616184 L122.168477,27.5616184 L122.168477,44.7825761 L124.680095,44.7825761 L124.680095,36.9813423 L124.680095,36.9869426 Z M51.7927395,42.9400737 L51.7927395,42.9400737 C50.0884279,36.6957264 45.1212564,32.5682968 39.6383064,30.143362 C35.6129913,28.3624629 31.369031,27.5616184 27.6913059,27.2648019 C27.635243,26.4303555 27.5903927,25.5847084 27.5679675,24.7390614 C27.5511486,24.0614237 27.5455424,23.3893863 27.5455424,22.7229493 C31.2961493,22.3701296 35.0803939,21.0876583 37.9676324,18.4163098 C41.4939878,15.1625288 44.0560616,8.94058275 41.185642,3.67628998 C40.019534,1.67137847 38.191884,0.394507457 36.0390692,0.0808900147 L36.0390692,0.0808900147 C36.0390692,0.0808900147 36.0390692,0.0808900147 36.0390692,0.0808900147 C33.40972,-0.299931165 30.9934097,0.668922719 29.0480276,2.88104575 C27.4053852,4.75154978 26.138364,7.44529959 25.2806019,10.8838908 C24.5686032,13.74565 24.1425253,16.9938306 24.0023681,20.3876194 C23.2903695,20.3428169 22.5559457,20.2644125 21.7990968,20.1356054 C20.8179963,19.967596 19.7752267,19.7099817 18.6988193,19.3459615 C18.0372773,15.0337216 16.8375316,11.4775238 15.1220073,8.76137279 C13.5298214,6.23563232 11.4947388,4.53313763 9.39798692,3.96750617 C7.34047909,3.41307534 5.40630961,3.98430711 4.22338276,5.49079089 C3.08530622,6.94687187 3.01803076,9.0133868 3.99352494,11.2087089 C5.90526927,15.5041478 10.468788,18.78033 15.2621646,20.7348387 C15.5985419,23.3221826 15.5312664,25.9263274 15.077157,28.4240663 C12.374926,29.2025096 8.21506008,30.5297835 4.03276896,33.9515738 C1.49312033,36.0292893 -1.83701496,41.2487796 1.22962477,44.1889431 C2.09859947,44.978587 3.24788859,45.3818095 4.57657893,45.3818095 C5.18766436,45.3818095 5.83238752,45.2978048 6.50514213,45.1241951 C8.43370532,44.6313677 10.3959063,43.4777036 12.1674934,41.7920098 C14.667898,39.4174777 17.2299718,35.340451 18.4072923,30.0873588 C20.2797926,29.7345392 22.2532061,29.5497289 24.2770762,29.532928 C24.6358787,33.0835255 25.2806019,36.5669192 26.2112457,39.7086939 C28.0501083,45.9418406 30.9149217,50.5116948 34.7215915,53.2894493 C38.1582462,55.7983888 41.303374,56 42.1835613,56 L42.217199,56 C46.3602461,56 49.7576569,53.8662813 51.316205,50.282082 C52.1683609,48.3275733 52.5383759,45.5778204 51.7927395,42.9344734 L51.7927395,42.9400737 Z M28.7621069,11.7463388 C30.7355204,3.82189807 34.1497501,3.42987627 35.5232907,3.62588717 C36.8631936,3.82189807 37.648074,4.73474884 38.0741519,5.46838964 C39.7616447,8.44215503 39.2010159,14.6192986 34.0039866,18.007487 C32.3725566,19.0715462 30.2141356,19.9395945 27.595999,20.2756132 C27.7417625,17.1562397 28.1398089,14.2272768 28.7565006,11.7463388 L28.7621069,11.7463388 Z M8.87099582,12.8888023 C6.94803891,10.7102812 6.50514213,8.39175223 7.0489521,7.69731361 C7.41336084,7.23248776 8.08611545,7.32769305 8.45613048,7.42849866 C9.66148248,7.75331672 10.9789602,8.93498244 12.0777928,10.671079 C13.2046567,12.451978 14.0960566,14.8041089 14.707142,17.5706627 C12.6384216,16.4113982 10.6145515,14.8657123 8.87099582,12.8888023 Z M14.2137886,31.745051 C13.1934441,34.7412177 11.5844394,37.3845647 9.68390763,39.187865 C6.92000747,41.8200114 4.27944565,42.1112276 3.64032877,41.5287952 C2.5190711,40.5767422 3.99913123,37.8325896 5.8436001,36.1076937 C8.31597327,33.7891647 11.1135112,32.2322781 14.415615,31.1290168 C14.3539458,31.3362283 14.2866704,31.5378395 14.2137886,31.745051 L14.2137886,31.745051 Z M18.8445828,27.5616184 C19.0688344,25.8031206 19.1305035,23.9382169 18.9959526,21.9837082 C19.741589,22.1797191 20.4760127,22.3421281 21.1936176,22.4653349 C22.0794112,22.6221437 23.0044488,22.7285496 23.9463052,22.7845527 C23.9463052,24.2238327 23.9855492,25.685514 24.0752499,27.1359947 C22.2868439,27.1527956 20.5320756,27.2928034 18.8445828,27.5616184 L18.8445828,27.5616184 Z M48.0197075,48.8540026 C47.0330007,51.1165284 44.91943,52.4102004 42.2115927,52.4102004 L42.1891676,52.4102004 C41.3201929,52.4102004 33.5779086,52.0013776 29.6535068,38.6950376 C28.840595,35.934084 28.2463284,32.8819143 27.9043448,29.6897367 C31.3970625,30.0313557 35.4055586,30.9666077 38.8870637,32.769908 C43.4674013,35.1388398 47.2124019,38.9302507 48.4121477,44.1049384 C48.7541312,45.8074331 48.6307929,47.4651253 48.0253138,48.8540026 L48.0197075,48.8540026 Z M136.290718,27.8080321 L136.290718,28.5472732 L135.21431,28.5472732 L135.21431,31.9410619 L134.435036,31.9410619 L134.435036,28.5472732 L133.358629,28.5472732 L133.358629,27.8080321 L136.290718,27.8080321 Z M137.38955,27.8080321 L138.948098,30.0929592 L140.506647,27.8080321 L141,27.8080321 L141,31.9466623 L140.220726,31.9466623 L140.220726,29.4489233 L139.009768,31.2298224 L138.903248,31.2298224 L137.69229,29.4489233 L137.69229,31.9466623 L136.913016,31.9466623 L136.913016,27.8080321 L137.38955,27.8080321 L137.38955,27.8080321 Z" id="Shape"></path>
        </g>
    </g>
</svg>