<?xml version="1.0" encoding="UTF-8"?>
<svg width="50px" height="50px" viewBox="0 0 50 50" version="1.1" xmlns="http://www.w3.org/2000/svg" xmlns:xlink="http://www.w3.org/1999/xlink">
    <title>EAB325FB-5C18-4D83-A249-344635987F56</title>
    <g id="Icon-Enterprise/Primary/ID-Card" stroke="none" stroke-width="1" fill="none" fill-rule="evenodd">
        <g id="Icon-Coverage" fill-rule="nonzero">
            <rect id="Rectangle-143" fill="#5DC1FD" x="0.02" y="12.29" width="45.4799995" height="31.4400005" rx="1.75999999"></rect>
            <g id="Group-242" transform="translate(3, 7.63)">
                <g id="Group-238">
                    <rect id="Rectangle-144" fill="#FFFFFF" x="0.74000001" y="0.750000114" width="45.4799995" height="31.4400005" rx="0.980000019"></rect>
                    <path d="M45.2400017,32.9405173 L1.71999979,32.9405173 C0.768457413,32.9347598 0,32.161822 0,31.2102648 L0,1.72026124 C0.00546264664,0.772602704 0.772342682,0.00572266842 1.72000074,0 L45.2400017,0 C45.7022743,-0.00776419376 46.1485252,0.169581082 46.479187,0.492725995 C46.809845,0.815871861 46.9974022,1.25792756 47,1.72026124 L47,31.210261 C47,31.674586 46.8135567,32.1191966 46.4825554,32.4444605 C46.1517792,32.7695948 45.7040024,32.9483058 45.2400017,32.9405173 L45.2400017,32.9405173 Z M1.71999979,1.50003311 C1.65993977,1.49752775 1.60137749,1.51949373 1.55793047,1.56105199 C1.51448345,1.60261026 1.48999965,1.66013875 1.48999965,1.72026124 L1.48999965,31.210261 C1.48999965,31.3372866 1.59297419,31.4402606 1.71999979,31.4402606 L45.2400017,31.4402606 C45.3670273,31.4402606 45.4700013,31.3372866 45.4700013,31.210261 L45.4700013,1.72026124 C45.4700013,1.6601378 45.4455185,1.6026093 45.4020729,1.56105104 C45.3586235,1.51949277 45.3000603,1.49752679 45.2400017,1.50003311 L1.71999979,1.50003311 Z" id="Path-352" fill="#161616"></path>
                </g>
                <g id="Group-241" transform="translate(6.53, 6.24)">
                    <g id="Group-239" transform="translate(0.25, 12.11)" fill="#161616">
                        <path d="M14.5999994,1.5 L0.75,1.5 C0.335786819,1.5 0,1.16421318 0,0.75 C0,0.335786819 0.335786819,0 0.75,0 L14.5999994,0 C15.0142145,0 15.3500013,0.335786819 15.3500013,0.75 C15.3500013,1.16421318 15.0142145,1.5 14.6000013,1.5 L14.5999994,1.5 Z" id="Path-353"></path>
                        <path d="M32.6399985,1.5 L18.79,1.5 C18.3757868,1.5 18.04,1.16421318 18.04,0.75 C18.04,0.335786819 18.3757868,0 18.79,0 L32.6399985,0 C33.0542136,0 33.3899985,0.335786819 33.3899985,0.75 C33.3899985,1.16421318 33.0542136,1.5 32.6399985,1.5 Z" id="Path-354"></path>
                        <path d="M14.5999994,6.88 L0.75,6.88 C0.335786819,6.88 0,6.54421509 0,6.13 C0,5.71578682 0.335786819,5.38 0.75,5.38 L14.5999994,5.38 C15.0142145,5.38 15.3500013,5.71578682 15.3500013,6.13 C15.3500013,6.54421509 15.0142145,6.88 14.6000013,6.88 L14.5999994,6.88 Z" id="Path-355"></path>
                        <path d="M32.6399985,6.88 L18.79,6.88 C18.3757868,6.88 18.04,6.54421509 18.04,6.13 C18.04,5.71578682 18.3757868,5.38 18.79,5.38 L32.6399985,5.38 C33.0542136,5.38 33.3899985,5.71578682 33.3899985,6.13 C33.3899985,6.54421509 33.0542136,6.88 32.6399985,6.88 Z" id="Path-356"></path>
                    </g>
                    <g id="Group-240" fill="#5DC1FD">
                        <path d="M5.4800005,2.10999966 L5.4800005,0 L2.11000061,0 L2.11000061,2.10999966 L0,2.10999966 L0,5.4800005 L2.11000061,5.4800005 L2.11000061,7.5899992 L5.4800005,7.5899992 L5.4800005,5.4800005 L7.59000111,5.4800005 L7.59000111,2.10999966 L5.4800005,2.10999966 Z" id="Path-357"></path>
                        <path d="M14.3601454,0.03 C13.5666025,0.45418766 12.6799372,0.674135475 11.7801455,0.670002251 C10.8777636,0.669229774 9.98903067,0.44961956 9.19014723,0.03 C8.63216383,1.36491516 8.5753401,2.85649899 9.03014357,4.22999981 C9.46694548,5.68688992 10.4530848,6.91687229 11.7801436,7.66000011 C13.1069067,6.9190028 14.090534,5.68767193 14.5201472,4.22999981 C14.9813879,2.85742023 14.9244765,1.3635104 14.3601454,0.03" id="Path-358"></path>
                    </g>
                </g>
            </g>
            <g id="50x50-Spacers">
                <rect id="Rectangle-145" x="0" y="0" width="50" height="50"></rect>
            </g>
        </g>
    </g>
</svg>