<?xml version="1.0" encoding="UTF-8"?>
<svg width="24px" height="24px" viewBox="0 0 24 24" version="1.1" xmlns="http://www.w3.org/2000/svg" xmlns:xlink="http://www.w3.org/1999/xlink">
    <title>Icon-App/Function/Email</title>
    <defs>
        <path d="M5,19 C4.449,19 4,18.552 4,18 L4.01561582,7.25 L11.4156158,13.7802725 C11.5936158,13.9142725 11.8046158,13.9802725 12.0156158,13.9802725 C12.2266158,13.9802725 12.4376158,13.9142725 12.6156158,13.7802725 L20.0156158,7.25 L20,18 C20,18.552 19.551,19 19,19 L5,19 Z M18.3486158,6 L12.0156158,11.7302725 L5.68261582,6 L18.3486158,6 Z M5.01561582,4 C3.36161582,4 2.01561582,5.346 2.01561582,7 L2,18 C2,19.654 3.346,21 5,21 L19,21 C20.654,21 22,19.654 22,18 L22.0156158,7 C22.0156158,5.346 20.6696158,4 19.0156158,4 L5.01561582,4 Z" id="path-1"></path>
    </defs>
    <g id="Icon-App/Function/Email" stroke="none" stroke-width="1" fill="none" fill-rule="evenodd">
        <g id="24x24-Spacers">
            <rect id="Rectangle" x="0" y="0" width="24" height="24"></rect>
        </g>
        <mask id="mask-2" fill="white">
            <use xlink:href="#path-1"></use>
        </mask>
        <use id="🎨-Icon-Сolor" fill="#005EB9" xlink:href="#path-1"></use>
    </g>
</svg>