<?xml version="1.0" encoding="UTF-8"?>
<svg width="28px" height="28px" viewBox="0 0 28 28" version="1.1" xmlns="http://www.w3.org/2000/svg" xmlns:xlink="http://www.w3.org/1999/xlink">
    <title>363E0A21-A15D-4872-BD2B-738BF52A106D</title>
    <g id="Social-Media/Outline/Instagram-White" stroke="none" stroke-width="1" fill="none" fill-rule="evenodd">
        <g id="Group">
            <path d="M14,0.5 C17.7279222,0.5 21.1029222,2.01103887 23.5459417,4.45405831 C25.9889611,6.89707775 27.5,10.2720778 27.5,14 C27.5,17.7279222 25.9889611,21.1029222 23.5459417,23.5459417 C21.1029222,25.9889611 17.7279222,27.5 14,27.5 C10.2720778,27.5 6.89707775,25.9889611 4.45405831,23.5459417 C2.01103887,21.1029222 0.5,17.7279222 0.5,14 C0.5,10.2720778 2.01103887,6.89707775 4.45405831,4.45405831 C6.89707775,2.01103887 10.2720778,0.5 14,0.5 Z" id="back" stroke="#FFFFFF"></path>
            <path d="M14.1846142,11.4065648 C12.7687618,11.4065648 11.6168726,12.477977 11.6168726,13.7950133 C11.6168726,15.1119467 12.7687618,16.1833588 14.1846142,16.1833588 C15.6004665,16.1833588 16.7524665,15.1119467 16.7524665,13.7950133 C16.7524665,12.477977 15.6004665,11.4065648 14.1846142,11.4065648" id="Fill-1" fill="#FFFFFF"></path>
            <path d="M18.3347274,10.8411655 C17.7899643,10.8411655 17.3483274,10.4303836 17.3483274,9.92368061 C17.3483274,9.41697758 17.7899643,9.00619576 18.3347274,9.00619576 C18.8794905,9.00619576 19.3211274,9.41697758 19.3211274,9.92368061 C19.3211274,10.4303836 18.8794905,10.8411655 18.3347274,10.8411655 M14.1846474,17.6258139 C11.9136566,17.6258139 10.0661366,15.9072685 10.0661366,13.7949412 C10.0661366,11.6826139 11.9136566,9.96417152 14.1846474,9.96417152 C16.4556382,9.96417152 18.3031582,11.6826139 18.3031582,13.7949412 C18.3031582,15.9072685 16.4556382,17.6258139 14.1846474,17.6258139 M17.1878228,7.10302 L11.145472,7.10302 C8.86550892,7.10302 7.00004431,8.83815333 7.00004431,10.9588261 L7.00004431,16.73182 C7.00004431,18.8524927 8.86550892,20.5876261 11.145472,20.5876261 L17.1878228,20.5876261 C19.4677858,20.5876261 21.3331397,18.8524927 21.3331397,16.73182 L21.3331397,10.9588261 C21.3331397,8.83815333 19.4677858,7.10302 17.1878228,7.10302" id="Fill-3" fill="#FFFFFF"></path>
        </g>
    </g>
</svg>