<?xml version="1.0" encoding="UTF-8"?>
<svg width="50px" height="50px" viewBox="0 0 50 50" version="1.1" xmlns="http://www.w3.org/2000/svg" xmlns:xlink="http://www.w3.org/1999/xlink">
    <title>Icon-Enterprise/Primary/Desktop-Video</title>
    <g id="Icon-Enterprise/Primary/Desktop-Video" stroke="none" stroke-width="1" fill="none" fill-rule="evenodd">
        <g id="Icon-Desktop">
            <g fill-rule="nonzero">
                <path d="M43.0699997,45.0600015 L4.05000019,45.0600015 L0,41.2700006 L0,38.91 L16.2099991,38.91 L17.7299995,40.4300005 L29.3899994,40.4300005 L30.9099998,38.91 L47.1199989,38.91 L47.1199989,41.2700006 L43.0699997,45.0600015 Z" id="Path-325" fill="#5DC1FD"></path>
                <rect id="Rectangle-130" fill="#5DC1FD" x="0" y="37.7700005" width="46.4700012" height="2.13000011"></rect>
                <path d="M2,37.3300932 L2,11.0000913 C2.01615763,9.76420381 3.0141139,8.76624849 4.25,8.75 L40.7000008,8.75 C41.955368,8.73897054 42.983532,9.74478223 43,11.0000913 L43,37.3000906" id="Path-326" fill="#5DC1FD"></path>
                <g id="Group-214" transform="translate(5, 6)">
                    <path d="M0.720097276,32.0002158 L0.720097276,3.00021583 C0.700926515,2.38620311 0.933645936,1.79105026 1.36423704,1.3529051 C1.79482767,0.914759936 2.38584301,0.671725573 3.00009701,0.68 L39.0000975,0.68 C40.2443907,0.68 41.2546065,1.6859811 41.2600996,2.93023712 L41.2600996,32.0002158" id="Path-327" fill="#FFFFFF"></path>
                    <path d="M42,32 L40.5,32 L40.5,3 C40.5162697,2.59096146 40.3657722,2.19284534 40.0829849,1.89685965 C39.8001976,1.60087442 39.4093552,1.43238735 39,1.42999935 L3,1.42999983 C2.17157269,1.43000031 1.5,2.10157299 1.5,2.93000031 L1.5,32 L0,32 L0,3 C0,1.34314537 1.34314632,0 3,0 L39,0 C40.6568527,0 42,1.34314585 42,3 L42,32 Z" id="Path-328" fill="#161616"></path>
                </g>
                <g id="Group-215" transform="translate(2, 35.23)">
                    <path d="M43.2599983,6.81999969 L4.71999975,6.81999969 L0.71,3.09000015 L0.71,0.75 L16.7299995,0.75 L18.2299995,2.25 L29.7399997,2.25 L31.2400016,0.75 L47.2599983,0.75 L47.2599983,3.09000015 L43.2599983,6.81999969 Z" id="Path-329" fill="#FFFFFF"></path>
                    <path d="M43.5499992,7.56999969 L4.42000008,7.56999969 L0,3.42000198 L0,0 L17,0 L18.5,1.5 L29.4300003,1.5 L30.9300003,0 L48,0 L48,3.42000198 L43.5499992,7.56999969 Z M5,6.06999969 L43,6.06999969 L46.5099983,2.77000046 L46.5099983,1.5 L31.5099983,1.5 L30.0099983,3 L17.9200001,3 L16.4200001,1.5 L1.42000008,1.5 L1.42000008,2.77000046 L5,6.06999969 Z" id="Path-330" fill="#161616"></path>
                </g>
                <g id="Group-216" transform="translate(8.86, 10)">
                    <path d="M10.0700006,21.9400027 L1.28999996,21.9400027 C0.991765976,21.9400027 0.75,21.6982348 0.75,21.4000018 L0.75,1.27999996 C0.75,0.981765976 0.991765976,0.74 1.28999996,0.74 L32.9700022,0.74 C33.268239,0.74 33.5100069,0.981765976 33.5100069,1.27999996 L33.5100069,21.3999998 C33.5100069,21.6982348 33.268239,21.9400027 32.970006,21.9400027 L24.5400019,21.9400027" id="Path-331" fill="#FFFFFF"></path>
                    <path d="M32.9700022,22.6900024 L24.5400019,22.6900024 L24.5400019,21.1899986 L32.7600031,21.1899986 L32.7600031,1.48999977 L1.5,1.48999977 L1.5,21.1900005 L10.0700006,21.1900005 L10.0700006,22.6900024 L1.28999996,22.6900024 C0.577550888,22.6900024 0,22.1124458 0,21.3999977 L0,1.27999973 C0.0054922104,0.571461678 0.581439018,0 1.28999996,0 L32.9700022,0 C33.6824541,0 34.2600069,0.577555657 34.2600069,1.29000473 L34.2600069,21.3999996 C34.2600069,22.1124496 33.6824503,22.6900024 32.9700022,22.6900024 Z" id="Path-332" fill="#161616"></path>
                </g>
                <g id="Group-217" transform="translate(20.7, 31.19)" fill="#161616">
                    <rect id="Rectangle-131" x="7.92000008" y="0" width="2.93000007" height="1.5"></rect>
                    <rect id="Rectangle-132" x="3.95999908" y="0" width="2.93000007" height="1.5"></rect>
                    <rect id="Rectangle-133" x="0" y="0" width="2.93000007" height="1.5"></rect>
                </g>
                <g id="50x50-Spacers">
                    <rect id="Rectangle-134" x="0" y="0" width="50" height="50"></rect>
                </g>
            </g>
            <g id="Icon-Video" transform="translate(18, 13.34)">
                <path d="M8,16 C12.4182777,16 16,12.4182768 16,8 C16,3.58172178 12.4182768,0 8,0 C3.58172178,0 0,3.58172321 0,8 C0,12.4182768 3.58172131,16 8,16" id="Fill-11" fill="#5DC1FD"></path>
                <path d="M12.0000085,7.55951461 L6.00000852,4.07951459 C5.88530535,4.0108672 5.74249262,4.00942811 5.62642902,4.07574996 C5.51036495,4.14207228 5.43910021,4.26584157 5.44,4.39951523 L5.44,11.3995143 C5.43910021,11.5331879 5.51036543,11.6569568 5.62642902,11.7232791 C5.74249262,11.7896014 5.88530535,11.7881623 6.00000852,11.719514 L12.0000085,8.19951447 C12.1140689,8.13330945 12.184267,8.01139744 12.184267,7.87951525 C12.184267,7.74763306 12.1140689,7.62572058 12.0000085,7.55951508 L12.0000085,7.55951461 Z" id="Path-891" fill="#FFFFFF" fill-rule="nonzero"></path>
            </g>
        </g>
    </g>
</svg>