<?xml version="1.0" encoding="UTF-8"?>
<svg width="28px" height="28px" viewBox="0 0 28 28" version="1.1" xmlns="http://www.w3.org/2000/svg" xmlns:xlink="http://www.w3.org/1999/xlink">
    <title>79B6A3EA-7BC7-472C-9545-B9D1155981C5</title>
    <g id="Social-Media/Outline/Linkedin-White" stroke="none" stroke-width="1" fill="none" fill-rule="evenodd">
        <g id="Group-11">
            <path d="M14,0.466666667 C17.7371333,0.466666667 21.1204668,1.98143312 23.5695168,4.43048316 C26.0185669,6.87953321 27.5333333,10.2628667 27.5333333,14 C27.5333333,17.7371333 26.0185669,21.1204668 23.5695168,23.5695168 C21.1204668,26.0185669 17.7371333,27.5333333 14,27.5333333 C10.2628667,27.5333333 6.87953321,26.0185669 4.43048316,23.5695168 C1.98143312,21.1204668 0.466666667,17.7371333 0.466666667,14 C0.466666667,10.2628667 1.98143312,6.87953321 4.43048316,4.43048316 C6.87953321,1.98143312 10.2628667,0.466666667 14,0.466666667 Z" id="Stroke-1" stroke="#FFFFFF" stroke-width="0.933333333"></path>
            <path d="M9.0604,10.3838 C9.9644,10.3838 10.6884,9.6658 10.689401,8.7678 C10.6904,7.8578 9.9674,7.1278 9.0644,7.1268 C8.1564,7.1268 7.4374,7.8498 7.43839896,8.7638 C7.43839896,9.6658 8.1574,10.3838 9.0604,10.3838" id="Fill-3" fill="#FFFFFF"></path>
            <path d="M9.0826,10.3838 C8.1796,10.3838 7.46059896,9.6658 7.46059896,8.7638 C7.4596,7.8498 8.1786,7.1268 9.0866,7.1268 C9.9896,7.1278 10.7126,7.8578 10.711601,8.7678 C10.7106,9.6658 9.9866,10.3838 9.0826,10.3838" id="Fill-5" fill="#FFFFFF"></path>
            <polygon id="Fill-7" fill="#FFFFFF" points="10.5786 20.5694 10.5786 11.5884 7.5936 11.5884 7.5936 20.5694"></polygon>
            <path d="M12.2531,20.5694 L15.2381,20.5694 L15.2381,15.5544 C15.2381,15.2864 15.2581,15.0174 15.3361,14.8264 C15.5521,14.2894 16.0431,13.7344 16.8681,13.7344 C17.9481,13.7344 18.3801,14.5574 18.3801,15.7654 L18.3801,20.5694 L21.3651,20.5694 L21.3651,15.4194 C21.3651,12.6614 19.8931,11.3774 17.9291,11.3774 C16.3191,11.3774 15.6111,12.2774 15.2181,12.8904 L15.2381,12.8904 L15.2381,11.5884 L12.2531,11.5884 C12.2921,12.4304 12.2531,20.5694 12.2531,20.5694 Z" id="Fill-9" fill="#FFFFFF"></path>
        </g>
    </g>
</svg>