<?xml version="1.0" encoding="UTF-8"?>
<svg width="50px" height="50px" viewBox="0 0 50 50" version="1.1" xmlns="http://www.w3.org/2000/svg" xmlns:xlink="http://www.w3.org/1999/xlink">
    <title>1D590DB3-C62F-455F-B5CA-6C0A0B929325</title>
    <g id="Icon-Enterprise/Primary/Maternity-Breast-Pump" stroke="none" stroke-width="1" fill="none" fill-rule="evenodd">
        <g id="Icon-Breast-Pump" fill-rule="nonzero">
            <g id="Group" transform="translate(0, 0.06)">
                <g id="Path" transform="translate(31.71, 16.84)" fill="#5DC1FD">
                    <path d="M10.6900024,32.9200001 L5.29000092,32.9200001 C2.37000275,32.9200001 0,31.0799999 0,28.8200016 L0,4.10000038 C0,1.84000015 2.36999893,0 5.29000092,0 L10.6900024,0 C13.6100006,0 15.9800349,1.84000015 15.9800349,4.10000038 L15.9800349,28.8299999 C15.9900017,31.1000004 13.6200027,32.9200001 10.6900024,32.9200001 Z" id="Path-213"></path>
                </g>
                <path d="M2,17.14 L42.5900002,17.14 C43.6945686,17.14 44.5900381,18.0354315 44.5900381,19.14 L44.5900381,42.64 C44.5953178,44.0438048 44.0413857,45.3919379 43.0506134,46.38646 C42.059845,47.3809821 40.7138176,47.9399992 39.3100014,47.9399992 L2,47.9399992 C0.895430684,47.9399992 0,47.0445677 0,45.9399992 L0,19.14 C0,18.0354296 0.895430803,17.14 2,17.14 L2,17.14 Z" id="Path-214" fill="#5DC1FD"></path>
                <g id="Path" transform="translate(5.26, 2.35)" fill="#5DC1FD">
                    <path d="M4.39999962,10.0500002 C4.80999947,8.61999989 11.1399994,6.11999989 14.3999996,6.11999989 L19.6599998,6.11999989 C22.8799992,6.11999989 29.210001,8.61999989 29.6599979,10 L29.6599979,16.3899994 L34.0599995,16.3899994 L34.0599995,8.27999973 C34.0599995,2.55999994 19.3599987,0 16.4099998,0 L14.4099998,0 C11.4099998,0 0,2.59000015 0,8.27999973 L0,16.3899994 L4.39999962,16.3899994 L4.39999962,10.0500002 Z" id="Path-215"></path>
                </g>
                <g id="Path" transform="translate(7.8, 0.81)">
                    <path d="M5.19999981,9.04999992 C5.55999947,7.61999962 11.8900003,5.12999985 15.1099997,5.12999985 L17.1099997,5.12999985 C20.329999,5.12999985 26.6599989,7.64000008 27.1099997,9.02000019 L27.1099997,17.1299998 L31.5100012,17.1299998 L31.5100012,8.99999973 C31.5100012,3.27999994 20.1000013,0.72 17.1500006,0.72 L15.1500006,0.72 C12.1999998,0.72 0.75,3.28999969 0.75,8.99999973 L0.75,17.1299998 L5.19999981,17.1299998 L5.19999981,9.04999992 Z" id="Path-216" fill="#FFFFFF"></path>
                    <path d="M32.1999998,17.8602704 L26.2999983,17.8602704 L26.2999983,9.13027084 C25.7099981,8.21027077 20.2999983,5.83027065 17.0899992,5.83027065 L15.0899992,5.83027065 C11.8499994,5.83027065 6.44999886,8.2402705 5.87999916,9.18027008 L5.87999916,17.8302697 L0,17.8302697 L0,9.00027073 C0,2.43027056 12.5500002,0.000270729642 15.1099997,0.000270729642 L17.1099997,0.000270729642 C19.6400003,-0.0297291821 32.1999998,2.4302708 32.1999998,9.00027073 L32.1999998,17.8602704 Z M27.7999983,16.3602704 L30.6999998,16.3602704 L30.6999998,9.00027073 C30.6999998,3.8902706 19.7799997,1.47027052 17.0899992,1.47027052 L15.0899992,1.47027052 C11.829999,1.47027052 1.5,4.220271 1.5,9.00027073 L1.5,16.3602704 L4.40000057,16.3602704 L4.40000057,8.84026993 C4.9800005,6.84026993 11.9800005,4.36026991 15.0800009,4.36026991 L17.0800009,4.36026991 C20.1999998,4.36027086 27.1999998,6.79027069 27.7600012,8.78027046 L27.7600012,9.00027073 L27.7999983,16.3602704 Z" id="Path-217" fill="#161616"></path>
                </g>
                <g id="Path" transform="translate(2.94, 12.8)">
                    <path d="M39.29,31.8300338 L2.28999996,31.8300338 C1.4394803,31.8300338 0.75,31.1405502 0.75,30.2900291 L0.75,2.29003293 C0.755455017,1.44178349 1.44175148,0.755487981 2.29000044,0.75 L39.29,0.75 C39.6992521,0.747348371 40.0925169,0.908735815 40.3819075,1.19812638 C40.671298,1.48751599 40.8326864,1.88078267 40.8300376,2.29003293 L40.8300376,30.2900329 C40.8245459,31.1382843 40.1382513,31.8245788 39.2900038,31.8300338 L39.29,31.8300338 Z" id="Path-218" fill="#FFFFFF"></path>
                    <path d="M39.29,32.5800018 L2.28999996,32.5800018 C1.02526855,32.5800018 0,31.5547333 0,30.2900009 L0,2.29000092 C0.00547742844,1.02754402 1.02754426,0.0054769516 2.29000044,0 L39.29,0 C40.5524549,0.00547790527 41.574523,1.02754498 41.5800009,2.28999996 L41.5800009,30.2900009 C41.563838,31.5479774 40.5479765,32.563839 39.2900038,32.5800018 L39.29,32.5800018 Z M2.28999996,1.58000183 C1.85594893,1.58539581 1.50539351,1.93595123 1.5,2.37000179 L1.5,30.3700027 C1.5,30.8063126 1.85369492,31.1600075 2.28999996,31.1600075 L39.29,31.1600075 C39.7295752,31.1546135 40.084609,30.7995796 40.090003,30.3600044 L40.090003,2.36000443 C40.090003,1.92369843 39.7363043,1.57000446 39.2999983,1.57000446 L2.28999996,1.58000183 Z" id="Path-219" fill="#161616"></path>
                </g>
                <g id="Path" transform="translate(4.01, 16.12)" fill="#161616">
                    <rect id="Rectangle-104" x="0" y="0" width="39.7599983" height="1.5"></rect>
                </g>
                <g id="Path" transform="translate(4.01, 39.64)" fill="#161616">
                    <rect id="Rectangle-105" x="0" y="0" width="39.7599983" height="1.5"></rect>
                </g>
                <g id="Path" transform="translate(7.52, 27.03)" fill="#161616">
                    <path d="M5.30000114,10.6000023 C2.37289047,10.6000023 0,8.227108 0,5.29999924 C0,2.37289047 2.37289143,0 5.30000114,0 C8.22710991,0 10.6000004,2.37289047 10.6000004,5.29999924 C10.5944996,8.22482681 8.22482872,10.5944977 5.30000114,10.6000023 Z M5.30000114,1.50998703 C3.20003033,1.50998703 1.49817467,3.21334839 1.50001282,5.3133316 C1.50185966,7.41332245 3.20670319,9.11368179 5.30668259,9.11000277 C7.40666008,9.1063118 9.10552406,7.39997864 9.10001381,5.30000305 C9.10001381,4.29308128 8.69932175,3.32756424 7.98639107,2.61651611 C7.27347469,1.90547371 6.30690193,1.5073452 5.30000019,1.50998703 L5.30000114,1.50998703 Z" id="Path-220"></path>
                </g>
                <g id="Path" transform="translate(12.07, 27.81)" fill="#161616">
                    <rect id="Rectangle-106" x="0" y="0" width="1.5" height="9.06999969"></rect>
                </g>
                <g id="Path" transform="translate(9.82, 19.53)" fill="#161616">
                    <path d="M3,6 C1.34314632,6 0,4.65685463 0,3 C0,1.34314537 1.34314537,0 3,0 C4.65685368,0 6,1.34314537 6,3 C6,4.65685463 4.65685368,6 3,6 L3,6 Z M2.99999905,1.57999611 C2.1936636,1.57999611 1.53999901,2.23366356 1.53999901,3.03999901 C1.53999901,3.84633446 2.19366264,4.49999809 2.99999905,4.49999809 C3.8063345,4.49999809 4.45999908,3.84633446 4.45999908,3.03999901 C4.45455074,2.23592949 3.80406761,1.58544731 3,1.57999611 L2.99999905,1.57999611 Z" id="Path-221"></path>
                </g>
                <g id="Group-171" transform="translate(32.49, 0)">
                    <g id="Path" transform="translate(3.18, 0)">
                        <path d="M9.94999695,9.60956469 L1.22999954,9.60956469 C0.968658447,9.60956469 0.755386353,9.40064685 0.75,9.13946311 C0.830036163,7.57012527 1.84872437,6.20401637 3.32999802,5.67956416 L3.32999802,2.99956434 C3.27417374,2.16539781 3.68753433,1.36956589 4.40207291,0.935528324 C5.11660767,0.501490757 6.01338959,0.501490519 6.72792435,0.935527847 C7.44245911,1.36956541 7.8558197,2.16539709 7.79999924,2.99956386 L7.79999924,5.67956416 C9.28748703,6.19980638 10.3141518,7.56606643 10.3999939,9.1395642 C10.4054604,9.26233833 10.3604736,9.38200443 10.2754822,9.47077243 C10.1904907,9.55954044 10.0728912,9.60968654 9.94999695,9.60956469 Z" id="Path-222" fill="#FFFFFF"></path>
                        <path d="M9.95000076,10.3600001 L1.23000336,10.3600001 C0.554534912,10.3600001 0.00546646118,9.81535959 0,9.139956 C0.0488243103,7.44253397 1.0510788,5.91788149 2.59000015,5.20000029 L2.59000015,3 C2.59000015,1.34314561 3.93314743,0 5.59000015,0 C7.24685287,0 8.59000015,1.3431462 8.59000015,3 L8.59000015,5.21000004 C10.114109,5.93477678 11.1030731,7.45298862 11.1500053,9.14000082 C11.1590576,9.45327044 11.0398674,9.75666475 10.8199997,9.98000002 C10.5932007,10.2189364 10.2794113,10.3559928 9.95000076,10.3600001 Z M9.65000153,9.1500001 L9.65000153,9.1500001 Z M1.52000046,8.86000013 L9.63000107,8.86000013 C9.42658997,7.71049356 8.62054443,6.75927973 7.52000046,6.37000132 L7.06000137,6.18000031 L7.06000137,2.99999988 C7.06000137,2.17157269 6.38842773,1.49999988 5.56000137,1.49999988 C4.73157501,1.49999988 4.06000137,2.17157316 4.06000137,2.99999988 L4.06000137,6.17999983 L3.60000229,6.36999989 C2.50610733,6.76093531 1.70998383,7.7139864 1.52000046,8.86000013 L1.52000046,8.86000013 Z" id="Path-223" fill="#161616"></path>
                    </g>
                    <g id="Path" transform="translate(0.06, 13.1)">
                        <path d="M11.45,33.6899986 L5.99999924,33.6899986 C3.07999725,33.6899986 0.7,31.8499985 0.7,29.5900002 L0.7,4.84000015 C0.7,2.57999992 3.08000107,0.75 5.99999924,0.75 L11.45,0.75 C14.3599998,0.75 16.7400009,2.57999992 16.7400009,4.84000015 L16.7400009,29.5999985 C16.7099983,31.8400002 14.3399994,33.6899986 11.45,33.6899986 Z" id="Path-224" fill="#FFFFFF"></path>
                        <path d="M11.4500008,34.4399986 L6,34.4399986 C2.65999985,34.4399986 0,32.2599983 0,29.5900002 L0,4.84000015 C0,2.17000008 2.70999908,0 6,0 L11.4500008,0 C14.7800026,0 17.4500008,2.17000008 17.4500008,4.84000015 L17.4500008,29.5999985 C17.4347801,30.735527 16.9625397,31.8169975 16.1399994,32.5999947 C14.8784943,33.8046951 13.194149,34.4655075 11.4500008,34.4399948 L11.4500008,34.4399986 Z M6,1.52000046 C3.45000076,1.52000046 1.45000076,3.02000046 1.45000076,4.84000015 L1.45000076,29.5900002 C1.45000076,31.4399986 3.45000076,32.9399986 6,32.9399986 L11.4500008,32.9399986 C12.8054733,32.9701767 14.1202431,32.4757957 15.1200066,31.5600014 C15.6703339,31.0396767 15.9845467,30.3173447 15.9900017,29.5599976 L15.9900017,4.84000015 C15.9900017,3 13.9899979,1.5 11.4500008,1.5 L6,1.52000046 Z" id="Path-225" fill="#161616"></path>
                    </g>
                    <g id="Path" transform="translate(0, 8.859)">
                        <path d="M11.5099983,6.46051141 L6.05999756,6.46051141 C4.95064545,6.470566 3.84176636,6.41044637 2.74000168,6.28051015 C2.36547852,6.24198552 1.99441528,6.17512723 1.62999725,6.08050939 C1.47277832,6.04004976 1.32386017,5.97236081 1.18999863,5.88051244 C0.927581787,5.73390218 0.760757446,5.46091481 0.75,5.16051217 L0.75,2.0805113 C0.757286072,1.776499 0.92457962,1.49893686 1.18999863,1.35050985 C1.32670212,1.26622697 1.47491074,1.2022278 1.62999725,1.16051313 C1.99246216,1.05327722 2.36402893,0.979633534 2.73999786,0.940511906 C3.84153748,0.807047093 4.95043182,0.743583882 6.06000137,0.750511372 L11.5099983,0.750512326 C12.6195755,0.743583882 13.728466,0.807047093 14.8300018,0.940511906 C15.2023888,0.981559956 15.5704651,1.05517408 15.9299965,1.16051313 C16.0881844,1.2023718 16.2396774,1.26633474 16.3799973,1.35051175 C16.6401367,1.50290128 16.8028374,1.7791092 16.8100014,2.0805113 L16.8100014,5.16051122 C16.8095131,5.4611971 16.6444969,5.73750135 16.3799973,5.88051053 C16.2424965,5.97234556 16.0903015,6.03998777 15.9299965,6.08051034 C15.5695343,6.18202611 15.2017784,6.25557729 14.829998,6.30050966 C13.7277832,6.42347356 12.6189232,6.47691366 11.5099945,6.46051427 L11.5099983,6.46051141 Z" id="Path-226" fill="#FFFFFF"></path>
                        <path d="M11.5100021,7.2108202 L6.06000137,7.2108202 C4.91716385,7.21866894 3.77494431,7.15521145 2.6400032,7.02082062 C2.22002792,6.97470761 1.80503082,6.89103795 1.39999771,6.77082158 C1.18111038,6.71200085 0.972167969,6.62100888 0.780002594,6.50082112 C0.304740906,6.21050549 0.010597229,5.69763661 0,5.14082146 L0,2.08082104 C0.00554656982,1.51479149 0.309764862,0.993822102 0.799999237,0.710821156 C0.99174118,0.589826588 1.20080948,0.498780255 1.41999817,0.440819744 C1.81522751,0.324325566 2.22022629,0.243995671 2.62999725,0.200819973 C3.7677269,0.0591745417 4.91352463,-0.00763606616 6.06000137,0.00081730298 L11.5100021,0.000821117677 C12.6531754,-0.00829600879 13.7956886,0.0585184138 14.9300041,0.200823788 C15.3457336,0.247999195 15.7570343,0.328252796 16.1600037,0.440819744 C16.3792038,0.503453259 16.5880737,0.597784046 16.779995,0.720820431 C17.2375412,1.02164364 17.5121536,1.53324604 17.5100147,2.08082104 L17.5100147,5.16082097 C17.5030327,5.72122765 17.2033501,6.23713589 16.7200012,6.52081967 C16.5254784,6.64568234 16.3130302,6.74010468 16.0900002,6.8008194 C15.6942558,6.91519261 15.289444,6.99548626 14.8800049,7.04082203 C13.7611694,7.16586972 12.6357498,7.22264386 11.510006,7.21082211 L11.5100021,7.2108202 Z M6.06000137,1.48082066 C4.98070908,1.47620678 3.90210724,1.53631497 2.83000565,1.66082097 C2.49279022,1.70167542 2.15870285,1.76515103 1.83000183,1.85081959 C1.73660278,1.87851048 1.64616394,1.91535664 1.56000137,1.9608202 C1.52666855,2.00082048 1.51000214,2.04082076 1.51000214,2.08082104 L1.51000214,5.16082097 C1.51000214,5.16082097 1.54000219,5.19082102 1.60000229,5.25082112 C1.67660141,5.30120564 1.7611084,5.33838845 1.85000229,5.36082077 C2.17793655,5.4498415 2.51226807,5.51336384 2.85000229,5.55082035 C3.91820145,5.68168259 4.99388123,5.74181366 6.07000732,5.73082543 L11.5100021,5.73082066 C12.5861244,5.74151802 13.6617813,5.68138886 14.7300034,5.5508194 C15.067688,5.51819134 15.4021378,5.4579916 15.7300034,5.37082196 C15.8269844,5.34886933 15.9187164,5.30809784 16,5.25081921 C16.090004,5.20081997 16.090004,5.17082024 16.090004,5.16082001 L16.090004,2.08082104 C16.090004,2.04748758 16.0600039,2.01415412 16.0000038,1.98082066 C15.9210548,1.93491078 15.8371925,1.89801312 15.7500076,1.87082005 C15.4216118,1.78380871 15.087429,1.72031498 14.7500038,1.68081952 C13.6751709,1.54732418 12.5930977,1.48053074 11.5100021,1.48082066 L6.06000137,1.48082066 Z" id="Path-227" fill="#161616"></path>
                    </g>
                    <g id="Group-170" transform="translate(8.02, 17.85)" fill="#161616">
                        <g id="Path">
                            <path d="M0.75,27.4000015 C0.335784912,27.4000015 0,27.0642204 0,26.6500053 L0,0.75 C0,0.335786819 0.335784912,0 0.75,0 C1.16421509,0 1.5,0.335786819 1.5,0.75 L1.5,26.6499977 C1.49461365,27.0619583 1.1619606,27.3946114 0.75,27.4000015 L0.75,27.4000015 Z" id="Path-228"></path>
                        </g>
                        <g id="Path" transform="translate(0, 5.59)">
                            <path d="M4.27000046,1.5 L0.75,1.5 C0.335784912,1.5 0,1.16421509 0,0.750001907 C0,0.335788727 0.335784912,0 0.75,0 L4.27000046,0 C4.68421555,0 5.02000046,0.335788727 5.02000046,0.750001907 C5.02000046,1.16421509 4.68421555,1.5 4.27000046,1.5 L4.27000046,1.5 Z" id="Path-229"></path>
                        </g>
                        <g id="Path" transform="translate(0, 12.99)">
                            <path d="M4.27000046,1.5 L0.75,1.5 C0.335784912,1.5 0,1.16421509 0,0.750001907 C0,0.335788727 0.335784912,0 0.75,0 L4.27000046,0 C4.68421555,0 5.02000046,0.335788727 5.02000046,0.750001907 C5.02000046,1.16421509 4.68421555,1.5 4.27000046,1.5 Z" id="Path-230"></path>
                        </g>
                        <g id="Path" transform="translate(0, 20.38)">
                            <path d="M4.27000046,1.5 L0.75,1.5 C0.335784912,1.5 0,1.16421509 0,0.75 C0,0.335784912 0.335784912,0 0.75,0 L4.27000046,0 C4.68421555,0 5.02000046,0.335784912 5.02000046,0.75 C5.02000046,1.16421509 4.68421555,1.5 4.27000046,1.5 Z" id="Path-231"></path>
                        </g>
                    </g>
                </g>
            </g>
            <g id="50x50-Spacers">
                <rect id="Rectangle-107" x="0" y="0" width="50" height="50"></rect>
            </g>
        </g>
    </g>
</svg>