<?xml version="1.0" encoding="UTF-8"?>
<svg width="24px" height="24px" viewBox="0 0 24 24" version="1.1" xmlns="http://www.w3.org/2000/svg" xmlns:xlink="http://www.w3.org/1999/xlink">
    <title>Icon-App/Label/Stethoscope</title>
    <g id="Icon-App/Label/Stethoscope" stroke="none" stroke-width="1" fill="none" fill-rule="evenodd">
        <g id="24x24-Spacers">
            <rect id="Rectangle" x="0" y="0" width="24" height="24"></rect>
        </g>
        <path d="M16.5,20.25 C14.902,20.25 14.25,19.671 14.25,18.25 L14.25,16.5 L16.75,16.5 C18.625,16.5 18.625,17.817 18.625,18.25 C18.625,19.596 17.93,20.25 16.5,20.25 M6.25,16.625 C5.561,16.625 5,16.064 5,15.375 C5,14.686 5.561,14.125 6.25,14.125 C6.939,14.125 7.5,14.686 7.5,15.375 C7.5,16.064 6.939,16.625 6.25,16.625 M16.75,14.5 L14.25,14.5 L14.25,12.989 C18.189,10.411 20.125,7.796 20.125,5 C20.125,3.663 20.125,2 18.375,2 L15.875,2 C15.831,2 15.793,2.02 15.75,2.025 C15.716,2.031 15.683,2.037 15.649,2.046 C15.575,2.063 15.503,2.078 15.437,2.111 C14.888,2.334 14.5,2.871 14.5,3.5 C14.5,4.328 15.172,5 16,5 C16.652,5 17.201,4.581 17.408,4 L18.105,4 C18.125,4.258 18.125,4.646 18.125,5 C18.125,7.021 16.474,9.125 13.25,11.254 C10.026,9.125 8.375,7.021 8.375,5 C8.375,4.645 8.375,4.257 8.395,4 L9.092,4 C9.299,4.581 9.848,5 10.5,5 C11.328,5 12,4.328 12,3.5 C12,2.871 11.612,2.334 11.063,2.111 C10.997,2.078 10.925,2.063 10.851,2.046 C10.817,2.037 10.784,2.031 10.75,2.025 C10.707,2.02 10.669,2 10.625,2 L8.125,2 C6.375,2 6.375,3.663 6.375,5 C6.375,7.796 8.311,10.411 12.25,12.989 L12.25,14.5 L9.365,14.5 C8.98,13.135 7.737,12.125 6.25,12.125 C4.458,12.125 3,13.583 3,15.375 C3,17.167 4.458,18.625 6.25,18.625 C7.645,18.625 8.827,17.737 9.287,16.5 L12.25,16.5 L12.25,18.25 C12.25,20.792 13.799,22.25 16.5,22.25 C19.541,22.25 20.625,20.184 20.625,18.25 C20.625,15.972 19.104,14.5 16.75,14.5" id="Fill-1" fill="#005EB9"></path>
    </g>
</svg>