<?xml version="1.0" encoding="UTF-8"?>
<svg width="40px" height="40px" viewBox="0 0 50 50" version="1.1" xmlns="http://www.w3.org/2000/svg" xmlns:xlink="http://www.w3.org/1999/xlink">
    <title>Icon-Enterprise/Primary/Mental-Health</title>
    <g id="Icon-Enterprise/Primary/Mental-Health" stroke="none" stroke-width="1" fill="none" fill-rule="evenodd">
        <g id="Icon-Mental-Health" transform="translate(0, 0)">
            <g id="Group-447" transform="translate(0.037, 0)" fill-rule="nonzero">
                <path d="M4.273178,25.7481004 L11.1331781,7.63810077 C6.96317806,11.7181007 5.54317799,17.0181009 5.54317799,22.108101 C5.54317799,22.7881013 2.69317808,27.2881013 0.313177967,30.9781 C-0.266822017,31.8680994 -0.0768220189,32.9781 1.18317797,32.9781 L5.33317795,32.9781 L5.33317795,37.9781 C5.33317795,41.9781 8.33317795,44.5980989 12.4531778,44.5980989 L15.0531782,44.5980989 L15.0531782,49.0181009 C15.0531782,49.5703851 15.500893,50.0181009 16.0531782,50.0181009 L32.8831762,50.0181009 C33.4354605,50.0181009 33.8831762,49.5703851 33.8831762,49.0181009 L33.8831762,35.2080995 C40.8031744,31.6180994 41.0331778,21.8080999 40.2331747,18.2080995 C39.2331747,13.5880996 37.3131765,8.20809951 30.4631742,5.3080999 C24.9631781,2.95810094 16.1331781,2.77810088 11.1331781,7.63810077 L4.273178,25.7481004 Z" id="Path-732" fill="#5DC1FD"></path>
                <g id="Group-446" transform="translate(2.033, 0)">
                    <path d="M5.05017748,22.7975276 L11.9301776,4.68752701 C7.71017733,8.76752694 6.32017794,14.0175269 6.32017794,19.1575263 C6.32017794,19.8375266 3.47017803,24.3375266 1.09017792,28.0275253 C0.510177993,28.9175246 0.70017805,30.0275253 1.9601778,30.0275253 L6.1101779,30.0275253 L6.1101779,37.1575263 C6.12066641,39.6096328 8.08843317,41.6040519 10.5401792,41.6475242 L15.8301772,41.6475242 L15.8301772,47.0175269 L34.6401767,47.0175269 L34.6401767,32.2575286 C41.5501765,28.6575282 41.7801761,18.857529 40.9801768,15.2075294 C39.9801768,10.5875295 38.0601748,5.20752938 31.2101764,2.30752976 C25.7701777,0.0175269379 16.9301776,-0.17247306 11.9301776,4.68752701 L5.05017748,22.7975276 Z" id="Path-733" fill="#FFFFFF"></path>
                    <path d="M34.6396916,47.7982557 L15.8296921,47.7982557 C15.6299603,47.8009033 15.4376137,47.7227592 15.2963669,47.5815162 C15.155122,47.4402694 15.0769779,47.2479209 15.079694,47.048191 L15.0796921,42.4081878 L10.5396921,42.4081878 C7.68048594,42.3488426 5.38610862,40.0278892 5.35969232,37.1681899 L5.35969232,30.7881889 L1.92969249,30.7881889 C1.22923205,30.8400687 0.560881834,30.4864635 0.209692697,29.8781852 C-0.134715815,29.1411227 -0.0504017069,28.27499 0.429693203,27.6181888 C4.69969247,21.0081882 5.42969249,19.4381885 5.53969262,19.0881881 C5.53969262,12.9481887 7.5396931,7.89818852 11.3596928,4.14818852 L11.3596928,4.14818852 C16.4996922,-0.851811478 25.5596936,-0.851811478 31.4696934,1.61818855 C38.4696934,4.61818879 40.5896923,10.0881891 41.6796925,15.0481891 C42.5596936,19.0481891 42.1296933,28.8081893 35.3596928,32.6981887 L35.3596928,47.0181884 C35.3678105,47.2171478 35.2964756,47.4111633 35.1614163,47.557476 C35.0263569,47.7037925 34.8386586,47.7903938 34.6396916,47.7982557 L34.6396916,47.7982557 Z M16.5796921,46.2981872 L33.9296925,46.2981872 L33.9296925,32.2981872 C33.9272015,32.0176143 34.0815289,31.7591171 34.329694,31.628189 C40.7296955,28.3081874 41.0996945,19.0981864 40.329694,15.4081878 C39.1896908,10.5481881 37.3196919,5.71818822 30.9296925,3.01818841 C25.369693,0.648188403 16.9296925,0.838188401 12.4296925,5.22818845 C8.86969302,8.68818848 7.06969188,13.3681888 7.06969188,19.1481895 C7.06969188,19.6881904 6.65969203,20.7981891 1.71969197,28.4381904 C1.55384515,28.6385783 1.49432395,28.9064216 1.55969141,29.1581916 C1.61969183,29.2781905 1.85969184,29.2881889 1.95969174,29.2881889 L6.10969279,29.2881889 C6.5216553,29.2935714 6.85430739,29.6262244 6.85969184,30.0381889 L6.85969279,37.1681899 C6.88050387,39.2018394 8.50664828,40.8544959 10.5396941,40.9081916 L15.8296921,40.9081916 C16.2416527,40.913578 16.5743038,41.2462272 16.5796902,41.6581916 L16.5796921,46.2981872 Z" id="Path-734" fill="#161616"></path>
                </g>
            </g>
            <g id="Group-448" transform="translate(30, 0.018)">
                <path d="M10,20 C15.5228462,20 20,15.5228462 20,10 C20,4.47715235 15.5228462,0 10,0 C4.47715378,0 0,4.47715378 0,10 C0,15.5228462 4.47714996,20 10,20" id="Fill-11" fill="#5DC1FD"></path>
                <path d="M10.0000031,7.92975431 C11.186669,5.85642089 12.5200023,5.24308751 14.0000031,6.08975416 C16.1000016,7.27975422 16.7500031,10.4697538 10.0000031,15.5297533 L10.0000031,15.5297533 C3.21000219,10.4697538 3.86000371,7.27975327 6.0000031,6.08975369 C8.14000249,4.8997541 10.0000031,7.89975458 10.0000031,7.92975431 Z" id="Path-735" fill="#FFFFFF" fill-rule="nonzero"></path>
            </g>
            <g id="50x50-Spacers" transform="translate(0, 0.018)" fill-rule="nonzero">
                <rect id="Rectangle-256" x="0" y="0" width="40" height="40"></rect>
            </g>
        </g>
    </g>
</svg>