<?xml version="1.0" encoding="UTF-8"?>
<svg width="30px" height="30px" viewBox="0 0 30 30" version="1.1" xmlns="http://www.w3.org/2000/svg" xmlns:xlink="http://www.w3.org/1999/xlink">
    <title>E260198A-33A5-4254-9B2A-662578ED00C4</title>
    <g id="Icon-Enterprise/Secondary/Number-Step-Large/2" stroke="none" stroke-width="1" fill="none" fill-rule="evenodd">
        <g id="Number-Step-2">
            <path d="M15,30 C23.3,30 30,23.3 30,15 C30,6.7 23.3,0 15,0 C6.7,0 0,6.7 0,15 C0,23.3 6.7,30 15,30" id="Circle" fill="#5DC1FD"></path>
            <g id="2" transform="translate(11.3486, 9.7939)" fill="#FFFFFF" fill-rule="nonzero">
                <path d="M6.73339844,8.27832031 L6.73339844,10.0625 L0,10.0625 C0.0729166667,9.38802083 0.291666667,8.74886068 0.65625,8.14501953 C1.02083333,7.54117839 1.74088542,6.74023437 2.81640625,5.7421875 C3.68229167,4.93554688 4.21321615,4.38867187 4.40917969,4.1015625 C4.6735026,3.70507812 4.80566406,3.31315104 4.80566406,2.92578125 C4.80566406,2.49739583 4.69059245,2.16813151 4.46044922,1.93798828 C4.23030599,1.70784505 3.9124349,1.59277344 3.50683594,1.59277344 C3.10579427,1.59277344 2.78678385,1.71354167 2.54980469,1.95507813 C2.31282552,2.19661458 2.17610677,2.59765625 2.13964844,3.15820313 L0.225585938,2.96679687 C0.339518229,1.90950521 0.697265625,1.15071615 1.29882812,0.690429687 C1.90039062,0.230143229 2.65234375,0 3.5546875,0 C4.54361979,0 5.32063802,0.266601562 5.88574219,0.799804687 C6.45084635,1.33300781 6.73339844,1.99609375 6.73339844,2.7890625 C6.73339844,3.24023437 6.65250651,3.66975911 6.49072266,4.07763672 C6.3289388,4.48551432 6.07259115,4.91276042 5.72167969,5.359375 C5.48925781,5.65559896 5.06998698,6.08170573 4.46386719,6.63769531 C3.8577474,7.1936849 3.47379557,7.56282552 3.31201172,7.74511719 C3.15022786,7.92740885 3.01920573,8.10514323 2.91894531,8.27832031 L6.73339844,8.27832031 Z" id="Path"></path>
            </g>
        </g>
    </g>
</svg>