<?xml version="1.0" encoding="UTF-8"?>
<svg width="30px" height="30px" viewBox="0 0 30 30" version="1.1" xmlns="http://www.w3.org/2000/svg" xmlns:xlink="http://www.w3.org/1999/xlink">
    <title>F8C3BD4A-252C-4C85-8A05-66EF5B43DCCD</title>
    <g id="Icon-Enterprise/Secondary/Number-Step-Large/3" stroke="none" stroke-width="1" fill="none" fill-rule="evenodd">
        <g id="Number-Step-3">
            <path d="M30,15 C30,6.7 23.3,0 15,0 C6.7,0 0,6.7 0,15 C0,23.3 6.7,30 15,30 C23.3,30 30,23.3 30,15 Z" id="Circle" fill="#5DC1FD"></path>
            <g id="3" transform="translate(11.5264, 9.7939)" fill="#FFFFFF" fill-rule="nonzero">
                <path d="M0,7.40332031 L1.859375,7.17773438 C1.91861979,7.65169271 2.078125,8.0139974 2.33789062,8.26464844 C2.59765625,8.51529948 2.91210937,8.640625 3.28125,8.640625 C3.67773438,8.640625 4.01155599,8.49023438 4.28271484,8.18945312 C4.5538737,7.88867187 4.68945312,7.48307292 4.68945312,6.97265625 C4.68945312,6.48958333 4.55957031,6.10677083 4.29980469,5.82421875 C4.04003906,5.54166667 3.72330729,5.40039063 3.34960938,5.40039063 C3.10351562,5.40039063 2.80957031,5.44824219 2.46777344,5.54394531 L2.6796875,3.97851562 C3.19921875,3.9921875 3.59570313,3.87939453 3.86914063,3.64013672 C4.14257812,3.40087891 4.27929688,3.08300781 4.27929688,2.68652344 C4.27929688,2.34928385 4.17903646,2.08040365 3.97851562,1.87988281 C3.77799479,1.67936198 3.51139323,1.57910156 3.17871094,1.57910156 C2.85058594,1.57910156 2.5703125,1.69303385 2.33789062,1.92089844 C2.10546875,2.14876302 1.96419271,2.48144531 1.9140625,2.91894531 L0.143554688,2.61816406 C0.266601563,2.01204427 0.452311198,1.52783203 0.700683594,1.16552734 C0.94905599,0.803222656 1.29541016,0.518391927 1.73974609,0.311035156 C2.18408203,0.103678385 2.68196615,0 3.23339844,0 C4.17675781,0 4.93326823,0.30078125 5.50292969,0.90234375 C5.97233073,1.39453125 6.20703125,1.95052083 6.20703125,2.5703125 C6.20703125,3.44986979 5.72623698,4.15169271 4.76464844,4.67578125 C5.33886719,4.79882812 5.79801432,5.07454427 6.14208984,5.50292969 C6.48616536,5.9313151 6.65820312,6.44856771 6.65820312,7.0546875 C6.65820312,7.93424479 6.33691406,8.68391927 5.69433594,9.30371094 C5.05175781,9.9235026 4.25195313,10.2333984 3.29492187,10.2333984 C2.38802083,10.2333984 1.63606771,9.97249349 1.0390625,9.45068359 C0.442057292,8.9288737 0.095703125,8.24641927 0,7.40332031 Z" id="Path"></path>
            </g>
        </g>
    </g>
</svg>