<?xml version="1.0" encoding="UTF-8"?>
<svg width="40px" height="40px" viewBox="0 0 50 50" version="1.1" xmlns="http://www.w3.org/2000/svg" xmlns:xlink="http://www.w3.org/1999/xlink">
    <title>Icon-Enterprise/Primary/Benefits</title>
    <g id="Icon-Enterprise/Primary/Benefits" stroke="none" stroke-width="1" fill="none" fill-rule="evenodd">
        <g id="Icon-Benefits">
            <g id="Hand" transform="translate(0, 23.35)" fill-rule="nonzero">
                <path d="M32.0849949,10.7568982 L18.7306697,10.387333 C16.85172,10.3329001 15.3698033,8.77063918 15.4145621,6.89143607 L15.4145621,6.89143607 C15.4379273,5.98084748 15.8250605,5.11756092 16.4894704,4.4944424 C17.1538804,3.87132387 18.0401978,3.54030102 18.9504111,3.57532652 L29.8476192,3.87497597 C34.4288512,4.00947121 38.7705076,5.95226126 41.9234462,9.27863365 L48.9152401,16.7099103 C49.0823642,16.8766725 49.1762824,17.1030722 49.1762824,17.339169 C49.1762824,17.5752658 49.0823642,17.8016656 48.9152401,17.9684316 L40.7648062,25.6793826 C40.5997511,25.8459047 40.3750049,25.9395829 40.1405389,25.9395829 C39.9060729,25.9395829 39.6813268,25.8459047 39.5162716,25.6793826 L35.5209608,21.4743189 C33.5532462,19.3985196 30.8571174,18.1668224 27.9997876,18.0383492 L22.1466567,17.7786595 C19.3117938,17.6524686 16.5583307,16.7920169 14.1560361,15.281594 L0.412167172,6.57181151 C0.00206560031,6.31468227 -0.122964442,5.77437518 0.13249491,5.36323091 L0.621920967,4.64407375 C1.32583425,3.50860757 2.45533195,2.70250678 3.75795367,2.40594552 C5.06057492,2.10938235 6.42771137,2.34708707 7.55378535,3.06592607 L15.0449931,7.79038061" id="Path-232" fill="#5DC1FD"></path>
                <g id="Group-174" transform="translate(1.3364, 0)">
                    <g id="Group-173">
                        <path d="M31.3581939,8.12027247 L18.7429991,7.7706824 C16.9664225,7.721721 15.5663228,6.24110366 15.6166711,4.46456516 L15.6166711,4.46456326 C15.6656325,2.68798285 17.1462499,1.28788319 18.9227903,1.3382315 L29.2207052,1.64786946 C33.5532152,1.76483766 37.6610305,3.60131481 40.6373079,6.7518796 L47.8488451,14.372936 L38.9293135,22.8130308 L34.5943973,18.2184211 C32.7387986,16.2548367 30.1917868,15.0905919 27.4927318,14.9722273 L21.969214,14.7225241 C19.2963943,14.605977 16.7003487,13.7934236 14.4380532,12.3652902 L0.734138356,3.72543099 L0.734138356,3.72543099 C2.64024404,0.729879506 6.60836648,-0.162835321 9.61371834,1.7277737 L15.267081,5.29359017" id="Path-233" fill="#FFFFFF"></path>
                        <path d="M38.9296984,23.5419845 L38.9296984,23.5419845 C38.732885,23.5376371 38.5459363,23.4549476 38.4103076,23.3122584 L34.0853818,18.7376258 C32.3609996,16.9140748 29.9909899,15.8384292 27.4831301,15.7411427 L21.9596123,15.4914358 C19.1607446,15.3626044 16.442648,14.5127718 14.0688739,13.0243301 L0.334996166,4.35450543 C0.00253817416,4.13733402 -0.0989052637,3.69627568 0.105265777,3.35567774 C2.21987437,-0.00233476608 6.65719319,-1.00878291 10.0136359,1.10831542 L14.8879161,4.17471614 C15.1150474,2.11821944 16.8746152,0.575348729 18.943156,0.618890079 L29.241069,0.908551025 C33.7895978,1.00891426 38.1075928,2.9304223 41.2270014,6.24229298 L48.4485251,13.873336 C48.7352484,14.1680188 48.7352522,14.6374157 48.4485213,14.9320947 L39.5289935,23.3721895 C39.3633478,23.5130992 39.1446409,23.5750611 38.9296984,23.5419884 L38.9296984,23.5419845 Z M1.81326094,3.56543064 L14.8479621,11.7358415 C17.0013052,13.0888563 19.4689633,13.859783 22.0095624,13.9732134 L27.5330746,14.2229241 C30.4303985,14.3483186 33.164538,15.5989298 35.1541348,17.7088307 L38.9596658,21.7041452 L46.7904751,14.3028322 L40.0883384,7.24111877 C37.2569524,4.2273544 33.3351027,2.47511562 29.2011169,2.37682705 L18.9032039,2.08716611 C17.5406597,2.04855519 16.4047973,3.12181373 16.3661844,4.484356 C16.3275697,5.84690018 17.4008263,6.98276263 18.7633705,7.02137736 L31.3785635,7.37096553 C31.7899611,7.38717804 32.1134416,7.72838371 32.1077034,8.14006331 C32.0864195,8.54914243 31.748243,8.86975574 31.3386095,8.86920707 L18.7234146,8.519617 C17.1397973,8.4669273 15.7369581,7.48337289 15.1476096,6.01255925 C15.0479227,5.99520177 14.9527852,5.95782537 14.8679391,5.9026895 L9.21457448,2.34686344 C6.80361443,0.824661295 3.63793019,1.32450379 1.81326094,3.51548811 L1.81326094,3.56543064 Z" id="Path-234" fill="#161616"></path>
                    </g>
                    <path d="M34.7145895,19.0779498 C34.5082773,19.0771306 34.3107133,18.9945135 34.1652389,18.8482161 C33.8731318,18.5557432 33.8731318,18.0819379 34.1652351,17.7894612 L42.5953394,9.79883962 C42.8878161,9.5067287 43.3616253,9.5067287 43.654102,9.79883962 C43.9462167,10.0913163 43.9462129,10.5651255 43.6540982,10.8575983 L35.2239938,18.8482199 C35.0895767,18.9867826 34.9074212,19.068931 34.7145895,19.0779498 Z" id="Path-235" fill="#161616"></path>
                </g>
            </g>
            <g id="Secondary-Icon" transform="translate(15.17, 1.4)">
                <path d="M10,20 C15.5228481,20 20,15.5228462 20,10 C20,4.47715235 15.5228481,0 10,0 C4.47715187,0 0,4.47715282 0,10 C0,15.5228462 4.47715187,20 10,20" id="Fill-11" fill="#5DC1FD"></path>
                <path d="M10.0000026,7.95003848 C11.1800029,5.87670538 12.5133362,5.26670541 14.0000026,6.12003856 C16.2300021,7.40003829 16.8300025,10.5000377 10.0000026,15.6000381 L10.0000026,15.6000381 C3.21000354,10.5400386 3.86000316,7.34003787 6.00000255,6.16003852 C8.22000187,4.84003787 9.96000164,7.9200378 10.0000026,7.95003848 Z" id="Path-236" fill="#FFFFFF" fill-rule="nonzero"></path>
            </g>
            <g id="50x50-Spacers" fill-rule="nonzero">
                <rect id="Rectangle-108" x="0" y="0" width="50" height="50"></rect>
            </g>
        </g>
    </g>
</svg>