<?xml version="1.0" encoding="UTF-8"?>
<svg width="50px" height="50px" viewBox="0 0 50 50" version="1.1" xmlns="http://www.w3.org/2000/svg" xmlns:xlink="http://www.w3.org/1999/xlink">
    <title>Icon-Enterprise/Primary/Person-Employee-Member</title>
    <g id="Icon-Enterprise/Primary/Person-Employee-Member" stroke="none" stroke-width="1" fill="none" fill-rule="evenodd">
        <g id="Person-Employee-Member">
            <rect id="Rectangle" x="0" y="0" width="50" height="50"></rect>
            <g id="Group" transform="translate(2.8301, 0.05)" fill-rule="nonzero">
                <path d="M41.1699339,46.1199998 C41.2529183,46.5046301 41.1793214,46.9064731 40.9654071,47.2367268 C40.7514927,47.5669805 40.4148721,47.7984559 40.0299339,47.8799998 C33.6478009,49.2026848 27.1476839,49.8728 20.6299339,49.8799998 C14.0931213,49.9298526 7.56961154,49.2828653 1.16993388,47.9499998 C0.374869348,47.7704995 -0.131356766,46.9889575 0.0299338809,46.1899998 L1.75993388,37.7699998 C2.25282564,35.0880288 4.34890204,32.987975 7.02993388,32.4899998 C9.88993388,31.7399998 17.4999339,29.4399998 20.4499339,29.4299646 C23.3999339,29.4199998 31.2699339,31.5399998 34.1699339,32.4399998 C37.0699339,33.3399998 38.7599339,34.6799998 39.4399339,37.7199998 L41.1699339,46.1199998 Z" id="Path" fill="#5DC1FD"></path>
                <path d="M16.1699339,25.6199998 C16.1699339,23.6999998 23.8299339,23.6999998 23.8299339,25.6199998 C23.8299339,27.5399998 25.6199339,29.9499998 25.6199339,29.9499998 L25.3899339,30.1899998 C23.9766177,31.6383603 22.0385965,32.4550523 20.0149339,32.4550523 C17.9912712,32.4550523 16.0532501,31.6383603 14.6399339,30.1899998 L14.4199339,29.9499998 C14.4199339,29.9499998 16.1699339,27.2599998 16.1699339,25.6199998 Z" id="Path" fill="#49B3E6"></path>
                <path d="M29.6299339,15.6999998 C30.4934331,12.0223813 29.1708085,8.1754776 26.2283625,5.80640152 C23.2859166,3.43732543 19.2453739,2.96613727 15.8367566,4.5945837 C12.4281394,6.22303012 10.2558287,9.66237166 10.2499339,13.4399998 C10.2500775,14.1462771 10.3271995,14.8504349 10.4799339,15.5399998 C9.60747089,15.9683721 9.06733856,16.8685926 9.09993388,17.8399998 C9.01965833,19.1075307 9.97349694,20.2039994 11.2399339,20.2999998 C11.4519507,20.2958295 11.6616722,20.2552382 11.8599339,20.1799998 C11.988243,24.6077298 15.6019357,28.137509 20.0314579,28.1618988 C24.4609802,28.186037 28.1131257,24.6960584 28.2899339,20.2699998 C28.3865379,20.2749212 28.4833299,20.2749212 28.5799339,20.2699998 C29.8463708,20.1739994 30.8002094,19.0775307 30.7199339,17.8099998 C30.7280295,16.9696564 30.3199512,16.1797067 29.6299339,15.6999998 L29.6299339,15.6999998 Z" id="Path" fill="#5DC1FD"></path>
                <g transform="translate(2.2686, 25.6)">
                    <path d="M41.9012877,17.5 C41.9842722,17.8846303 41.9106753,18.2864732 41.6967609,18.616727 C41.4828466,18.9469807 41.1462259,19.178456 40.7612877,19.26 C34.3791548,20.582685 27.8790377,21.2528001 21.3612877,21.26 C14.8220432,21.2961047 8.29787386,20.6289363 1.90128771,19.27 C1.10359904,19.0955085 0.597943503,18.3079388 0.771287707,17.51 L2.50128771,9.09 C2.99789856,6.41190653 5.09319424,4.31661085 7.77128771,3.82 C10.6312877,3.07 18.2412877,0.82 21.1912877,0.76 C24.1412877,0.7 32.0212877,2.92 34.9012877,3.82 C37.7812877,4.72 39.4912877,6.06 40.1712877,9.09 L41.9012877,17.5 Z" id="Path" fill="#FFFFFF"></path>
                    <path d="M21.3612877,21.98 C14.7723411,22.0075747 8.19900604,21.3371683 1.75128771,19.98 C0.566591907,19.7060965 -0.189034532,18.5439342 0.0412877074,17.35 L1.77128771,8.93 C2.31705089,5.97079718 4.62493491,3.65099637 7.58128771,3.09 L9.58128771,2.53 C13.2012877,1.53 18.6612877,0.01 21.1612877,-3.55271368e-15 L21.1612877,-3.55271368e-15 C24.4012877,-3.55271368e-15 32.5012877,2.29 35.0812877,3.1 C38.4912877,4.16 40.1712877,5.84 40.8612877,8.92 L42.6412877,17.35 C42.8873326,18.5590247 42.1093721,19.7393787 40.9012877,19.99 C34.471978,21.3122055 27.925147,21.9789503 21.3612877,21.98 L21.3612877,21.98 Z M21.2112877,1.51 L21.2112877,1.51 C18.9112877,1.51 13.3612877,3.06 10.0412877,3.98 L7.98128771,4.55 C5.57572161,4.97815017 3.68962707,6.85626968 3.25128771,9.26 L1.53128771,17.66 C1.4443479,18.0573932 1.6944747,18.4504496 2.09128771,18.54 C8.43386087,19.8717231 14.9005509,20.5220797 21.3812877,20.48 C27.845409,20.4592206 34.2910969,19.7891907 40.6212877,18.48 C41.01882,18.3902499 41.271933,17.9994788 41.1912877,17.6 L41.1912877,17.6 L39.4712877,9.19 C38.8912877,6.64 37.6412877,5.4 34.7112877,4.49 C31.5112877,3.55 24.0412877,1.51 21.2112877,1.51 L21.2112877,1.51 Z" id="Shape" fill="#161616"></path>
                </g>
                <g transform="translate(17.2592, 20.79)">
                    <path d="M2.52073663,2.16 C2.52073663,0.25 10.1807366,0.25 10.1807366,2.16 C10.1807366,4.07 11.9607366,6.81 11.9607366,6.81 L11.7307366,7.05 C10.3174204,8.49836042 8.37939928,9.31505243 6.35573663,9.31505243 C4.33207398,9.31505243 2.39405281,8.49836042 0.980736627,7.05 L0.750736627,6.81 C0.750736627,6.81 2.52073663,3.82 2.52073663,2.16 Z" id="Path" fill="#FFFFFF"></path>
                    <path d="M6.35073663,10.0800513 C4.12416607,10.087872 1.99036026,9.18885741 0.440736627,7.59 L0.210736627,7.36 C-0.0221475407,7.1139046 -0.06680108,6.74449805 0.100736627,6.45 C0.570736627,5.66 1.77073663,3.36 1.77073663,2.18 C1.77073663,0.57 4.14073663,0 6.35073663,0 C8.56073663,0 10.9107366,0.57 10.9107366,2.16 C10.9107366,3.5 12.1107366,5.68 12.5707366,6.41 C12.7510813,6.70704871 12.71011,7.08808226 12.4707366,7.34 L12.2507366,7.57 C10.7069057,9.17371242 8.57678861,10.0799148 6.35073663,10.0800513 L6.35073663,10.0800513 Z M1.68073663,6.71 C4.29430257,9.19508344 8.39717069,9.19508344 11.0107366,6.71 C10.1507575,5.33042043 9.61086281,3.77566036 9.43073663,2.16 C9.34073663,1.97 8.32073663,1.48 6.35073663,1.48 C4.38073663,1.48 3.35073663,1.96 3.27073663,2.18 C3.05400132,3.78234037 2.51299308,5.32370347 1.68073663,6.71 L1.68073663,6.71 Z" id="Shape" fill="#161616"></path>
                </g>
                <g transform="translate(12.0426, 0)">
                    <path d="M21.2873696,12.8399998 C21.472635,12.1009258 21.5666686,11.3419403 21.5673696,10.5799998 C21.5673696,5.15104075 17.1663287,0.749999842 11.7373696,0.749999842 C6.30841049,0.749999842 1.90736958,5.15104075 1.90736958,10.5799998 C1.91248817,11.2859962 1.98955309,11.9896323 2.13736958,12.6799998 C1.27498065,13.1038196 0.736659848,13.9893183 0.757369581,14.9499998 C0.677094029,16.2175307 1.63093264,17.3139994 2.89736958,17.4099998 C3.10938638,17.4058295 3.31910788,17.3652382 3.51736958,17.2899998 C3.64876885,21.7173482 7.26448252,25.2444818 11.6937278,25.2661478 C16.1229732,25.287615 19.7728628,21.7958587 19.9473696,17.3699998 C20.0437934,17.3796908 20.1409458,17.3796908 20.2373696,17.3699998 C21.4874029,17.2740585 22.4350852,16.2023803 22.3773696,14.9499998 C22.3854652,14.1096564 21.9773869,13.3197067 21.2873696,12.8399998 Z" id="Path" fill="#FFFFFF"></path>
                    <path d="M11.7373696,26.2299998 C7.16305158,26.2176616 3.32561235,22.776012 2.81736958,18.2299998 C1.14260528,18.0866064 -0.1079067,16.6269341 0.00736958129,14.9499998 C-0.0116679496,13.9004279 0.471296048,12.9047791 1.30736958,12.2699998 C1.19990091,11.7127382 1.13968694,11.1473959 1.12736958,10.5799998 C1.12736967,4.73682725 5.86419699,0 11.7073696,0 C17.5505422,0 22.2873695,4.73682725 22.2873696,10.5799998 C22.2856213,11.2515699 22.21864,11.921382 22.0873696,12.5799998 C22.7403682,13.1967842 23.1155825,14.0518399 23.1273696,14.9499998 C23.1889416,16.4681643 22.1445235,17.8085714 20.6573696,18.1199998 C20.2013127,22.7095791 16.3495152,26.2116057 11.7373696,26.2299998 Z M3.51736958,16.5699998 C3.92933164,16.5753857 4.26198377,16.9080378 4.26736958,17.3199998 C4.39438405,21.3380916 7.67856265,24.5350559 11.6986172,24.5539878 C15.7186717,24.5727523 19.0326835,21.4067239 19.1973696,17.3899998 C19.2070515,17.1742772 19.3046164,16.9719203 19.4673696,16.8299998 C19.6338409,16.6901091 19.8522593,16.6282239 20.0673696,16.6599998 L20.2373696,16.6599998 C21.0873382,16.5604911 21.7035864,15.8023728 21.6273696,14.9499998 C21.6485464,14.3522789 21.3664329,13.7842903 20.8773696,13.4399998 C20.615242,13.2654 20.4879667,12.9472119 20.5573696,12.6399998 C20.7255328,11.9559095 20.8127968,11.2544411 20.8173696,10.5499998 C20.8173696,5.53525431 16.7521151,1.46999984 11.7373696,1.46999984 C6.72262405,1.46999984 2.65736958,5.53525431 2.65736958,10.5499998 C2.65699475,11.2029114 2.7308014,11.8537519 2.87736958,12.4899998 C2.94599837,12.8411482 2.76370598,13.193304 2.43736958,13.3399998 C1.84258894,13.6521652 1.48061381,14.2788103 1.50736958,14.9499998 C1.43115273,15.8023728 2.04740095,16.5604911 2.89736958,16.6599998 C3.02747325,16.6536228 3.1557381,16.6266197 3.27736958,16.5799998 C3.35611395,16.5622358 3.43742039,16.5588481 3.51736958,16.5699998 Z" id="Shape" fill="#161616"></path>
                </g>
                <path d="M33.0399339,10.9499998 C30.5391644,10.8818521 28.1537129,9.88345686 26.3499339,8.14999984 C22.5448096,9.93864531 18.3728069,10.8086689 14.1699339,10.6899998 C13.7557203,10.6899998 13.4199339,10.3542134 13.4199339,9.93999984 C13.4199339,9.52578628 13.7557203,9.18999984 14.1699339,9.18999984 C21.7899339,9.18999984 26.0299339,6.60999984 26.0799339,6.57999984 C26.4019277,6.36399205 26.8354873,6.42902598 27.0799339,6.72999984 C28.6500995,8.38803271 30.7992234,9.37662973 33.0799339,9.48999984 C33.4941474,9.48999984 33.8299339,9.82578628 33.8299339,10.2399998 C33.8299339,10.6542134 33.4941474,10.9899998 33.0799339,10.9899998 L33.0399339,10.9499998 Z" id="Path" fill="#161616"></path>
            </g>
        </g>
    </g>
</svg>