<?xml version="1.0" encoding="UTF-8"?>
<svg width="24px" height="24px" viewBox="0 0 24 24" version="1.1" xmlns="http://www.w3.org/2000/svg" xmlns:xlink="http://www.w3.org/1999/xlink">
    <title>Icon-App/Label/Pharmacy</title>
    <g id="Icon-App/Label/Pharmacy" stroke="none" stroke-width="1" fill="none" fill-rule="evenodd">
        <g id="24x24-Spacers">
            <rect id="Rectangle" x="0" y="0" width="24" height="24"></rect>
        </g>
        <path d="M10.3974502,3 C12.8260949,3 14.7949004,5.01398877 14.7949004,7.49836981 C14.7949004,9.98275086 12.8260949,11.9967396 10.3974502,11.9967396 L9.74882631,11.9967396 L13.1458566,15.4717303 L15.1137156,13.4474639 C15.5448,13.0064863 16.243726,13.0064863 16.6748104,13.4474639 C17.1058948,13.8884415 17.1058948,14.6034075 16.6748104,15.0443852 L14.6959578,17.0574057 L16.6748104,19.0704262 C16.8829336,19.2815871 17,19.5690282 17,19.8688868 C17,20.1687454 16.8829336,20.4561865 16.6748104,20.6673474 C16.4683868,20.880247 16.1873943,21 15.894263,21 C15.6011317,21 15.3201391,20.880247 15.1137156,20.6673474 L13.1458566,18.643081 L11.1779976,20.6673474 C10.9715741,20.880247 10.6905815,21 10.3974502,21 C10.1043189,21 9.82332637,20.880247 9.6169028,20.6673474 C9.40877956,20.4561865 9.2917132,20.1687454 9.2917132,19.8688868 C9.2917132,19.5690282 9.40877956,19.2815871 9.6169028,19.0704262 L11.5957554,17.0574057 L8.19872511,13.582415 L8.19872511,17.6197019 C8.19872511,18.2407972 7.70652373,18.7442943 7.09936255,18.7442943 C6.49220138,18.7442943 6,18.2407972 6,17.6197019 L6,4.12459245 C6,3.50349719 6.49220138,3 7.09936255,3 Z M10.3974502,5.24918491 L8.19872511,5.24918491 L8.19872511,9.74755472 L10.3974502,9.74755472 C11.6117726,9.74755472 12.5961753,8.74056034 12.5961753,7.49836981 C12.5961753,6.25617929 11.6117726,5.24918491 10.3974502,5.24918491 Z" id="Combined-Shape" fill="#005EB9"></path>
    </g>
</svg>