<?xml version="1.0" encoding="UTF-8"?>
<svg width="40px" height="40px" viewBox="0 0 50 50" version="1.1" xmlns="http://www.w3.org/2000/svg" xmlns:xlink="http://www.w3.org/1999/xlink">
    <title>Icon-Enterprise/Primary/Prescription</title>
    <g id="Icon-Enterprise/Primary/Prescription" stroke="none" stroke-width="1" fill="none" fill-rule="evenodd">
        <g id="Icon-Prescription" fill-rule="nonzero">
            <path d="M31.0999999,14.9001138 C29.0999999,14.9001138 28.2499995,14.6501138 28.2499995,13.0201136 L28.2499995,9.41011399 L29.3600001,9.41011399 C30.3258414,9.39921349 31.1046023,8.61600083 31.1099982,7.65011281 L31.1100001,5.00011414 C31.1045375,4.03588694 30.3242259,3.25557631 29.3599982,3.25 L16.7800002,3.25 C16.3114924,3.24478167 15.8601956,3.42648095 15.5260854,3.75496024 C15.1919741,4.08343953 15.0026307,4.53158253 14.9999986,5.00011367 L14.9999995,8.90011376 C14.9999995,9.87213486 15.7879786,10.660114 16.7599997,10.660114 L18.9999995,10.660114 L18.9999995,13.0001141 C18.9999995,14.6301143 17.1200003,14.8801143 15.0999999,14.8801143 C12.6100001,14.8801143 10.23,17.4701135 10.23,20.5901143 L10.23,44.3001134 C10.23,47.4201123 12.23,49.9802292 14.77,49.9802292 L31.44,49.9802292 C33.9299998,50.0001141 35.9999995,47.4201123 35.9999995,44.3001134 L35.9999995,20.6101148 C35.9999995,17.4901139 33.5899997,14.9001138 31.0999999,14.9001138 Z" id="Path-860" fill="#5DC1FD"></path>
            <g id="Group-531" transform="translate(13.32, 0)">
                <g id="Group-530">
                    <g id="Group-528" transform="translate(0, 5.93)">
                        <path d="M21.9500017,40.5299993 C24.4400034,40.5299993 26.4800005,37.9699979 26.4800005,34.849999 L26.4800005,11.1700006 C26.4800005,8.04000044 24.0999994,5.46000051 21.6100016,5.46000051 C19.6100016,5.46000051 17.7400026,5.20000029 17.7400026,3.57000017 L17.7400026,0.75 L9.50000095,0.75 L9.50000095,3.57000017 C9.50000095,5.20000029 7.64000034,5.46000051 5.61999989,5.46000051 C3.13000011,5.46000051 0.75,8.04000044 0.75,11.1700006 L0.75,34.849999 C0.75,37.9699979 2.75,40.5299993 5.28999996,40.5299993 L21.9500017,40.5299993 Z" id="Path-861" fill="#FFFFFF"></path>
                        <path d="M21.9499998,41.2799993 L5.28999996,41.2799993 C2.36999989,41.2799993 0,38.3999982 0,34.849999 L0,11.1700006 C0,7.73000002 2.63000011,4.71000051 5.61999989,4.71000051 C8.38000011,4.71000051 8.74999905,4.13000059 8.74999905,3.57000017 L8.74999905,0 L18.4899988,0 L18.4899988,3.57000017 C18.4899988,4.13000059 18.8599997,4.71000051 21.6099997,4.71000051 C24.6099997,4.71000051 27.2299986,7.71000051 27.2299986,11.1700006 L27.2299986,34.849999 C27.2299986,38.400002 24.8599997,41.2799993 21.9499998,41.2799993 Z M10.249999,1.5 L10.249999,3.57000017 C10.249999,6.21000051 6.88999844,6.21000051 5.61999798,6.21000051 C3.46999836,6.21000051 1.49999809,8.57000017 1.49999809,11.2099996 L1.49999809,34.849999 C1.49999809,37.5700002 3.1999979,39.7799993 5.28999805,39.7799993 L21.9499998,39.7799993 C24.0299978,39.7799993 25.7299986,37.5700002 25.7299986,34.849999 L25.7299986,11.1700006 C25.7299986,8.57000017 23.7299986,6.17000055 21.6099997,6.17000055 C20.3500013,6.17000055 16.9900007,6.17000055 16.9900007,3.53000021 L16.9900007,1.5 L10.249999,1.5 Z" id="Path-862" fill="#161616"></path>
                    </g>
                    <g id="Group-529" transform="translate(3.33, 0)">
                        <rect id="Rectangle-287" fill="#FFFFFF" x="0.780000305" y="0.75999999" width="18.4799995" height="6.15999985" rx="1.75999999"></rect>
                        <path d="M17.5100002,7.67017961 L2.51000023,7.67017961 C1.12604141,7.66469884 0.00547981262,6.5441382 0,5.16017986 L0,2.51017952 C0,1.83907617 0.268606186,1.19607818 0.745864868,0.724523906 C1.22296143,0.253062014 1.86912346,-0.00783943761 2.54000092,0.000179532881 L17.5400028,0.000179532881 C18.9223614,0.000179532881 20.0445042,1.11787117 20.0500011,2.50019884 L20.0500011,5.16017938 C20.0473652,5.83027101 19.7779522,6.47171808 19.3013134,6.94272399 C18.8246784,7.41372991 18.1800747,7.67550493 17.5100002,7.67018009 L17.5100002,7.67017961 Z M2.51000023,1.51017952 C1.95771599,1.51017952 1.51000023,1.95789516 1.51000023,2.51017952 L1.51000023,5.16017938 C1.51000023,5.7124641 1.95771599,6.16017938 2.51000023,6.16017938 L17.5100002,6.16017938 C18.0622845,6.16017938 18.5100002,5.7124641 18.5100002,5.16017938 L18.5100002,2.51017952 C18.5100002,1.95789481 18.0622845,1.51017952 17.5100002,1.51017952 L2.51000023,1.51017952 Z" id="Path-863" fill="#161616"></path>
                    </g>
                </g>
                <rect id="Rectangle-288" fill="#161616" x="0.879999809" y="39.9099998" width="25.0799999" height="1.5"></rect>
                <rect id="Rectangle-289" fill="#161616" x="0.879999809" y="16.1900005" width="25.0799999" height="1.5"></rect>
            </g>
            <g id="Group-532" transform="translate(22.62, 21.244)" fill="#161616">
                <path d="M1.44,15.3460009 L3.16000122,15.3460009 L9.71000237,6.306 L7.99000114,6.306 L1.44,15.3460009 Z" id="Path-864"></path>
                <path d="M1.5,4.58643077 L1.5,1.41643069 L2.04000092,1.41643069 C3.42000008,1.41643069 4.12000084,1.92643092 4.12000084,2.94643138 C4.12000084,3.96643184 3.37999916,4.58643077 1.97999954,4.58643077 L1.5,4.58643077 Z M3.37999916,5.75643085 C4.01760864,5.62980388 4.58677673,5.27407382 4.98000145,4.75643085 C5.39297295,4.24143146 5.60920334,3.59628223 5.59000206,2.93643306 C5.6123333,2.0940964 5.24300957,1.28897403 4.58999825,0.756430846 C3.75283432,0.190531951 2.74672318,-0.0707042396 1.73999977,0.0164329826 L0,0.0164310753 L0,10.0164311 L1.5,10.0164311 L1.5,5.89643024 L1.77000046,5.89643024 L8.62000084,15.346431 L10.3799992,15.346431 L3.37999916,5.75643085 Z" id="Path-865"></path>
            </g>
            <g id="50x50-Spacers">
                <rect id="Rectangle-290" x="0" y="0" width="50" height="50"></rect>
            </g>
        </g>
    </g>
</svg>