<?xml version="1.0" encoding="UTF-8"?>
<svg width="28px" height="28px" viewBox="0 0 28 28" version="1.1" xmlns="http://www.w3.org/2000/svg" xmlns:xlink="http://www.w3.org/1999/xlink">
    <title>3C95123B-4DB9-4B5D-907D-F176A5E3AC13</title>
    <g id="Social-Media/Outline/Pintrest-White" stroke="none" stroke-width="1" fill="none" fill-rule="evenodd">
        <g id="Group-5" transform="translate(-0, -0)">
            <path d="M14,0.5 C17.7279222,0.5 21.1029222,2.01103887 23.5459417,4.45405831 C25.9889611,6.89707775 27.5,10.2720778 27.5,14 C27.5,17.7279222 25.9889611,21.1029222 23.5459417,23.5459417 C21.1029222,25.9889611 17.7279222,27.5 14,27.5 C10.2720778,27.5 6.89707775,25.9889611 4.45405831,23.5459417 C2.01103887,21.1029222 0.5,17.7279222 0.5,14 C0.5,10.2720778 2.01103887,6.89707775 4.45405831,4.45405831 C6.89707775,2.01103887 10.2720778,0.5 14,0.5 Z" id="back" stroke="#FFFFFF"></path>
            <path d="M18.3062497,8.53713064 C17.269133,7.54592205 15.833861,7 14.2648699,7 C11.868169,7 10.3940819,7.97808349 9.57952611,8.79854861 C8.57563317,9.80967922 8,11.1522772 8,12.4821309 C8,14.1518601 8.70152441,15.4334322 9.8763034,15.9102131 C9.95516935,15.9423813 10.0345356,15.9585826 10.1123421,15.9585826 C10.3601813,15.9585826 10.5565517,15.7971264 10.6245883,15.5381693 C10.6642567,15.3896038 10.7561296,15.0230678 10.7960923,14.8639553 C10.8816089,14.549744 10.8125129,14.3986003 10.6260008,14.1797803 C10.2862298,13.7795234 10.1279976,13.3062288 10.1279976,12.6902574 C10.1279976,10.8606246 11.4964396,8.91611785 14.0327156,8.91611785 C16.0451511,8.91611785 17.2952353,10.0548373 17.2952353,11.8878393 C17.2952353,13.0445472 17.044983,14.1157661 16.590415,14.9042974 C16.2745392,15.4522117 15.7190933,16.1053318 14.8663994,16.1053318 C14.4976716,16.1053318 14.1664346,15.9545396 13.9574399,15.6916275 C13.7600101,15.4431003 13.6949163,15.1220627 13.7743414,14.7874606 C13.8640367,14.4094109 13.9863672,14.015072 14.1047544,13.6338582 C14.3206646,12.9375835 14.5247744,12.2799516 14.5247744,11.7552699 C14.5247744,10.8578414 13.970594,10.2548193 13.1458857,10.2548193 C12.0977925,10.2548193 11.2766743,11.3146124 11.2766743,12.6675522 C11.2766743,13.3310728 11.453799,13.8273655 11.5339892,14.0179138 C11.4019476,14.5748516 10.6172314,17.8860092 10.4683866,18.5103888 C10.3823109,18.874874 9.86385552,21.7537237 10.7219936,21.9832664 C11.6861593,22.2411687 12.5480052,19.4373782 12.6357289,19.1205594 C12.706826,18.8628915 12.9555774,17.888558 13.1080123,17.2896375 C13.5734686,17.7359788 14.3229011,18.0377388 15.0521169,18.0377388 C16.426827,18.0377388 17.6631391,17.4218553 18.5333424,16.3036731 C19.3772964,15.2190947 19.8421053,13.7074232 19.8421053,12.0473327 C19.8421053,10.74953 19.2822159,9.47006731 18.3062497,8.53713064 Z" id="Path" fill="#FFFFFF" fill-rule="nonzero"></path>
        </g>
    </g>
</svg>