<?xml version="1.0" encoding="UTF-8"?>
<svg width="50px" height="50px" viewBox="0 0 50 50" version="1.1" xmlns="http://www.w3.org/2000/svg" xmlns:xlink="http://www.w3.org/1999/xlink">
    <title>Icon-Enterprise/Primary/Documents-Forms</title>
    <g id="Icon-Enterprise/Primary/Documents-Forms" stroke="none" stroke-width="1" fill="none" fill-rule="evenodd">
        <g id="2022_BCBST-Icon_Digital_Document-Forms" transform="translate(0, -0)">
            <g id="_50x50_Spacers" transform="translate(0, 0)">
                <rect id="Rectangle" x="0" y="0" width="50" height="50"></rect>
            </g>
            <g id="Group" transform="translate(5.3, 0)" fill-rule="nonzero">
                <rect id="Rectangle" fill="#5DC1FD" x="-8.8817842e-16" y="8.34000012" width="30.62" height="41.64" rx="2.75"></rect>
                <g transform="translate(3.14, 4.27)">
                    <rect id="Rectangle" fill="#FFFFFF" x="0.75" y="0.75" width="30.62" height="41.64" rx="2.18"></rect>
                    <path d="M29.19,43.14 L2.93,43.14 C1.31408394,43.134513 0.00548702892,41.8259161 1.77635684e-15,40.21 L1.77635684e-15,2.93 C1.77635684e-15,1.31180568 1.31180568,0 2.93,0 L29.19,0 C30.8081943,0 32.12,1.31180568 32.12,2.93 L32.12,40.21 C32.12,41.8281943 30.8081943,43.14 29.19,43.14 Z M2.93,1.5 C2.55074042,1.5 2.18701432,1.65066028 1.9188373,1.9188373 C1.65066028,2.18701432 1.5,2.55074042 1.5,2.93 L1.5,40.21 C1.5,40.9997672 2.14023281,41.64 2.93,41.64 L29.19,41.64 C29.5692596,41.64 29.9329857,41.4893397 30.2011627,41.2211627 C30.4693397,40.9529857 30.62,40.5892596 30.62,40.21 L30.62,2.93 C30.62,2.14023281 29.9797672,1.5 29.19,1.5 L2.93,1.5 Z" id="Shape" fill="#161616"></path>
                </g>
                <g transform="translate(7.2794, 0)">
                    <g>
                        <rect id="Rectangle" fill="#FFFFFF" x="0.75061341" y="0.77000012" width="30.62" height="41.64" rx="2.18"></rect>
                        <path d="M29.1906134,43.1600001 L2.93061341,43.1600001 C1.31631631,43.1600001 0.00612295644,41.8542878 0.000613410037,40.2400001 L0.000613410037,3 C-0.0154827067,2.21165166 0.285770678,1.44987948 0.83671333,0.885774375 C1.38765598,0.32166927 2.14210467,0.0025178315 2.93061341,9.74345123e-16 L29.1906134,9.74345123e-16 C29.9799795,9.74345123e-16 30.7360443,0.318060781 31.2875831,0.882776354 C31.839122,1.44749193 32.139472,2.21085935 32.1206134,3 L32.1206134,40.2400001 C32.1151039,41.8542878 30.8049105,43.1600001 29.1906134,43.1600001 Z M2.93061341,1.52000012 C2.54340668,1.52253946 2.17353872,1.6809127 1.90448055,1.9593785 C1.63542238,2.23784431 1.48984911,2.61293471 1.50061341,3.00000012 L1.50061341,40.2400001 C1.50610906,41.0258593 2.14473504,41.6600001 2.93061341,41.6600001 L29.1906134,41.6600001 C29.9764918,41.6600001 30.6151178,41.0258593 30.6206134,40.2400001 L30.6206134,3.00000012 C30.6151634,2.21250144 29.9781121,1.57545013 29.1906134,1.57000012 L2.93061341,1.52000012 Z" id="Shape" fill="#161616"></path>
                    </g>
                    <g transform="translate(4.9706, 8.45)" fill="#161616">
                        <g id="Stroke-9" transform="translate(4.33, 6.72)">
                            <path d="M17.31,1.5 L0.75,1.5 C0.335786438,1.5 3.55271368e-15,1.16421356 3.55271368e-15,0.75 C3.55271368e-15,0.335786438 0.335786438,-1.77635684e-15 0.75,-1.77635684e-15 L17.31,-1.77635684e-15 C17.7242136,-1.77635684e-15 18.06,0.335786438 18.06,0.75 C18.06,1.16421356 17.7242136,1.5 17.31,1.5 Z" id="Path"></path>
                        </g>
                        <g id="Stroke-13" transform="translate(4.33, 0.43)">
                            <path d="M17.31,1.5 L0.75,1.5 C0.335786438,1.5 3.55271368e-15,1.16421356 3.55271368e-15,0.75 C3.55271368e-15,0.335786438 0.335786438,0 0.75,0 L17.31,0 C17.7242136,0 18.06,0.335786438 18.06,0.75 C18.06,1.16421356 17.7242136,1.5 17.31,1.5 L17.31,1.5 Z" id="Path"></path>
                        </g>
                        <g id="Stroke-17" transform="translate(4.33, 19.31)">
                            <path d="M17.31,1.5 L0.75,1.5 C0.335786438,1.5 3.55271368e-15,1.16421356 3.55271368e-15,0.75 C3.55271368e-15,0.335786438 0.335786438,0 0.75,0 L17.31,0 C17.7242136,0 18.06,0.335786438 18.06,0.75 C18.06,1.16421356 17.7242136,1.5 17.31,1.5 Z" id="Path"></path>
                        </g>
                        <g id="Stroke-19" transform="translate(4.33, 25.61)">
                            <path d="M17.31,1.5 L0.75,1.5 C0.335786438,1.5 3.55271368e-15,1.16421356 3.55271368e-15,0.75 C3.55271368e-15,0.335786438 0.335786438,0 0.75,0 L17.31,0 C17.7242136,0 18.06,0.335786438 18.06,0.75 C18.06,1.16421356 17.7242136,1.5 17.31,1.5 Z" id="Path"></path>
                        </g>
                        <g id="Stroke-9-2" transform="translate(4.33, 13.05)">
                            <path d="M17.31,1.5 L0.75,1.5 C0.335786438,1.5 3.55271368e-15,1.16421356 3.55271368e-15,0.75 C3.55271368e-15,0.335786438 0.335786438,0 0.75,0 L17.31,0 C17.7242136,0 18.06,0.335786438 18.06,0.75 C18.06,1.16421356 17.7242136,1.5 17.31,1.5 Z" id="Path"></path>
                        </g>
                        <rect id="Rectangle" x="3.55271368e-15" y="1.77635684e-15" width="2.45" height="2.45"></rect>
                        <rect id="Rectangle" x="3.55271368e-15" y="6.2" width="2.45" height="2.45"></rect>
                        <rect id="Rectangle" x="3.55271368e-15" y="12.4" width="2.45" height="2.45"></rect>
                        <rect id="Rectangle" x="3.55271368e-15" y="18.6" width="2.45" height="2.45"></rect>
                        <rect id="Rectangle" x="3.55271368e-15" y="24.81" width="2.45" height="2.45"></rect>
                    </g>
                </g>
            </g>
        </g>
    </g>
</svg>