<?xml version="1.0" encoding="UTF-8"?>
<svg width="50px" height="50px" viewBox="0 0 50 50" version="1.1" xmlns="http://www.w3.org/2000/svg" xmlns:xlink="http://www.w3.org/1999/xlink">
    <title>99DF4E61-176A-45A8-98E8-2A7FE3B12900</title>
    <g id="Icon-Enterprise/Primary/Vision" stroke="none" stroke-width="1" fill="none" fill-rule="evenodd">
        <g id="Icon-Vision" transform="translate(-0, 0)" fill-rule="nonzero">
            <g id="Group" transform="translate(0, 2.307)">
                <path d="M29.8241768,6.69347372 L33.0041771,3.91347351 C34.2650757,2.80443325 36.0226899,2.45414772 37.6124153,2.99506845 C39.2021447,3.53598871 40.3813629,4.88556137 40.7041817,6.53347387 L45.294178,29.8334731 L42.794178,37.3334731 L36.9241753,7.76347341 C36.867405,7.39490308 36.6102715,7.08853998 36.2571259,6.9687232 C35.9039803,6.84890642 35.5135041,6.93554391 35.244175,7.19347276 L32.4541779,9.69347372 C31.663723,10.380063 30.4775181,10.3408145 29.7341786,9.60347452 L29.7341786,9.60347356 C29.3449345,9.21334066 29.1339207,8.6798829 29.1509571,8.12904443 C29.1679936,7.57820501 29.4115696,7.05880632 29.8241787,6.69347372 L29.8241768,6.69347372 Z" id="Path-978" fill="#5DC1FD"></path>
                <path d="M17.1740001,6.69339689 L14.004,3.91339668 C12.7407249,2.82641157 10.9962924,2.48968634 9.41921072,3.02840265 C7.84212904,3.56711802 6.66825991,4.90070757 6.33399992,6.53339609 L1.754,29.8333963 L4.254,37.3333963 L10.0739997,7.76339659 C10.1307681,7.39482531 10.3879045,7.0884622 10.7410491,6.96864638 C11.0941928,6.8488296 11.484669,6.93546709 11.754,7.19339689 L14.544,9.69339689 C15.3344558,10.379988 16.5206607,10.3407377 17.2640002,9.60339579 L17.2640002,9.60339674 C17.6532443,9.21326479 17.8642581,8.67980704 17.8472217,8.12896761 C17.8301852,7.57812819 17.5866092,7.05872854 17.1740001,6.69339689 Z" id="Path-979" fill="#5DC1FD"></path>
                <g id="Group-609" transform="translate(30.484, 0)">
                    <path d="M1.34017682,4.69298116 L4.52017713,1.91298095 C5.78306699,0.805059829 7.54128766,0.45546619 9.13194776,0.996002117 C10.722604,1.53653804 11.9037945,2.88499776 12.2301762,4.53298132 L16.810178,27.8329806 L14.310178,35.3329806 L8.44017529,5.76298086 C8.38340497,5.39441053 8.12627149,5.08804742 7.77312589,4.96823064 C7.41998029,4.84841386 7.02950788,4.93505088 6.76017499,5.19298021 L3.97017789,7.69298116 C3.17972302,8.3795704 1.99352002,8.34032098 1.25017858,7.60298101 L1.25017858,7.60298101 C0.860934496,7.21284811 0.649920702,6.67939035 0.66695714,6.12855188 C0.683993578,5.57771246 0.927569627,5.05831377 1.34017873,4.69298164 L1.34017682,4.69298116 Z" id="Path-980" fill="#FFFFFF"></path>
                    <path d="M14.2600385,36.0726764 L14.2100392,36.0726764 C13.8744336,36.0478808 13.5964299,35.8025843 13.5300427,35.4726779 L7.72003756,5.90267532 C7.69981203,5.79977386 7.62182818,5.71789425 7.52003679,5.69267481 C7.42455492,5.65716808 7.3173276,5.67631691 7.24003802,5.74267547 L4.4500371,8.20267551 C3.31342898,9.12484138 1.65180788,8.98657387 0.683248617,7.88923042 C-0.285312556,6.79188698 -0.21614828,5.12595766 0.840036489,4.11267441 L0.840036489,4.11267536 L3.97003756,1.35267537 C5.42728625,0.0728427682 7.4556943,-0.334358999 9.29397783,0.283899001 C11.1322614,0.90215557 12.5023557,2.45235174 12.8900395,4.35267513 L17.5200368,27.6926753 C17.5501691,27.8175494 17.5501691,27.9478003 17.5200368,28.0726744 L15.0200368,35.5626742 C14.9179631,35.8900973 14.6017209,36.1023127 14.2600385,36.0726764 Z M7.43003664,4.19267528 C7.62674532,4.19398849 7.82218371,4.22431534 8.01003847,4.28267544 C8.60980044,4.4878556 9.05289278,4.99970548 9.17003832,5.62267559 L14.4400388,32.4326731 L15.990038,27.7826735 L11.4500371,4.69267528 C11.1503392,3.32250898 10.154894,2.20940702 8.82657824,1.75913017 C7.4982625,1.30885284 6.03114519,1.58718841 4.96003924,2.492675 L1.83003817,5.22267549 C1.31365023,5.68935411 1.27335558,6.48628776 1.7400342,7.0026738 C2.20671663,7.51906078 3.00364885,7.55935543 3.52003679,7.0926749 L6.31003771,4.63267486 C6.61962328,4.3582279 7.01643191,4.20233982 7.43004046,4.19267624 L7.43003664,4.19267528 Z" id="Path-981" fill="#161616"></path>
                </g>
                <g id="Group-610" transform="translate(3.721, 0.03)">
                    <path d="M16.1430006,4.66301319 L13.0129995,1.88301298 C11.7503919,0.76449129 9.98521418,0.408350199 8.38769049,0.949814051 C6.79016776,1.49127671 5.60530944,2.84730026 5.28299994,4.50301239 L0.723,27.8030126 L3.223,35.3030126 L9.04300017,5.73301288 C9.09976859,5.36444208 9.35690493,5.05807897 9.71004958,4.93826267 C10.0631933,4.81844589 10.4536695,4.90508339 10.723,5.16301319 L13.5129995,7.66301319 C14.3213701,8.37073395 15.5444669,8.31333134 16.2829999,7.53301212 L16.2829999,7.53301308 C16.6532087,7.13775799 16.8473043,6.60926887 16.8209199,6.06835815 C16.7945337,5.52744743 16.5499219,5.02035877 16.1430006,4.66301319 Z" id="Path-982" fill="#FFFFFF"></path>
                    <path d="M3.22259909,36.0426861 C2.902731,36.0443996 2.61899716,35.8376774 2.52259976,35.5326771 L0.0225992799,28.0426773 C-0.00753301382,27.9178013 -0.00753301382,27.7875503 0.022598803,27.6626762 L4.58259922,4.35267437 C4.97028404,2.45235002 6.34037739,0.902153851 8.17866188,0.283897759 C10.0169445,-0.334358333 12.0453554,0.0728434338 13.5026003,1.35267484 L16.6326013,4.11267412 L16.6326013,4.11267412 C17.6887861,5.12595832 17.7579485,6.79188573 16.7893892,7.88922918 C15.8208299,8.98657262 14.1592107,9.12484014 13.0226007,8.20267427 L10.282599,5.7126745 C10.1956392,5.62510383 10.0615984,5.60479438 9.95260006,5.66267431 C9.85469204,5.69117868 9.78119522,5.77241171 9.76259953,5.87267435 L3.95259911,35.4426731 C3.88620907,35.7725796 3.60820442,36.017876 3.27259928,36.0426861 L3.22259909,36.0426861 Z M1.49259907,27.7526745 L3.04259926,32.402676 L8.28259903,5.59267414 C8.39675194,4.96730125 8.83927113,4.45208871 9.44024903,4.24485529 C10.0412269,4.03762186 10.7072521,4.17057741 11.1825996,4.59267366 L14.0025983,7.06267393 C14.5239854,7.46146619 15.2650152,7.38903654 15.6993127,6.89683283 C16.1336103,6.40462816 16.1132074,5.66034687 15.652598,5.19267357 L12.5225988,2.44267452 C11.4487043,1.53703344 9.97844082,1.261114 8.64926201,1.71577871 C7.32008415,2.17044342 6.32683617,3.28904283 6.03259903,4.66267336 L1.49259907,27.7526745 Z" id="Path-983" fill="#161616"></path>
                </g>
                <path d="M25.0040197,34.1827187 C28.0153474,34.1817612 30.4780569,36.5823502 30.5540189,39.5927185 L33.0040197,39.5927185 C33.1091985,36.5677361 31.5553979,33.7264198 28.9518137,32.182753 C26.3482294,30.6390823 23.1098108,30.6390823 20.5062265,32.182753 C17.9026441,33.7264198 16.3488454,36.5677361 16.4540205,39.5927185 L19.4540205,39.5927185 C19.5299825,36.5823463 21.992692,34.1817612 25.0040197,34.1827187 Z" id="Path-984" fill="#5DC1FD"></path>
                <path d="M13.284234,44.293066 L6.52423423,44.293066 C3.36450403,44.2948274 0.744882516,41.8457651 0.534233979,38.6930665 L0.00423424608,29.6930627 C-0.0317608797,29.1404886 0.162952594,28.5977201 0.541997365,28.1940374 C0.921042255,27.7903547 1.45048945,27.5618905 2.00423448,27.563 L18.2942352,27.563 C18.8709678,27.5585374 19.4215774,27.8032045 19.8047485,28.2342729 C20.1879195,28.6653413 20.3663463,29.240838 20.2942352,29.8130617 L19.2442359,39.0130624 C18.8798541,42.0276384 16.3207511,44.2947625 13.2842349,44.293066 L13.284234,44.293066 Z" id="Path-985" fill="#5DC1FD"></path>
                <path d="M34.0037058,44.2932202 L40.7637079,44.2932202 C43.9345186,44.2994241 46.5628985,41.83751 46.7637079,38.6730623 L47.2837046,29.6930627 C47.3197001,29.1404886 47.1249865,28.5977201 46.7459429,28.1940374 C46.3668955,27.7903547 45.8374499,27.5618905 45.2837046,27.563 L29.0037058,27.563 C28.4269751,27.5585374 27.8763655,27.8032045 27.4931944,28.2342729 C27.1100214,28.6653413 26.9315947,29.240838 27.0037058,29.8130617 L28.0037058,39.0130624 C28.3698519,42.0428552 30.9519575,44.3151063 34.0037096,44.2932202 L34.0037058,44.2932202 Z" id="Path-986" fill="#5DC1FD"></path>
                <g id="Group-611" transform="translate(17.144, 27.683)">
                    <path d="M9.02001817,4.00974569 C11.8732172,4.01063451 14.2626482,6.1710616 14.5500208,9.00974569 L17.3000208,9.00974569 C17.4052072,5.98475942 15.8514124,3.14343175 13.2478224,1.59975728 C10.6442362,0.0560809059 7.40580804,0.0560809059 4.80221994,1.59975728 C2.19863183,3.14343175 0.644835064,5.98475942 0.750021527,9.00974569 L3.50002153,9.00974569 C3.78256852,6.17262181 6.16886003,4.01111898 9.02001817,4.00974187 L9.02001817,4.00974569 Z" id="Path-987" fill="#FFFFFF"></path>
                    <path d="M17.3000011,9.74003601 L14.5500031,9.74003601 C14.1744442,9.73715973 13.8605976,9.45340729 13.8200054,9.08003616 C13.5685463,6.62067413 11.4971867,4.75030136 9.02500534,4.75030136 C6.55282211,4.75030136 4.48146057,6.62067413 4.23000145,9.08003235 C4.18941116,9.45340729 3.87556458,9.73715973 3.5,9.74003601 L0.750001907,9.74003601 C0.339593887,9.74003601 0.00543403625,9.41027069 0,8.99996567 C0,4.02943802 4.02943802,0 9,0 C13.9705639,0 18,4.0294342 18,9 C18.000597,9.39358139 17.6930065,9.71876144 17.3000011,9.74003601 L17.3000011,9.74003601 Z M15.1900005,8.26003265 L16.5300007,8.26003265 C16.1325245,4.41660309 12.8939266,1.49565887 9.03000069,1.49565887 C5.16607475,1.49565887 1.92747688,4.41660309 1.53000069,8.26003265 L2.86000252,8.26003265 C3.49232864,5.36155319 6.05834961,3.29497528 9.02500153,3.29497528 C11.9916534,3.29497528 14.5576763,5.36155319 15.1900005,8.26003265 Z" id="Path-988" fill="#161616"></path>
                </g>
                <g id="Group-612" transform="translate(2.139, 23.303)">
                    <path d="M14.0052335,17.3900603 L7.24523421,17.3900603 C4.07442637,17.3964308 1.44604751,14.9345129 1.24523421,11.7700652 L0.735234222,2.83006272 C0.699239216,2.27748856 0.89395257,1.73472008 1.2729971,1.33103738 C1.65204211,0.927354667 2.18148919,0.69889054 2.73523398,0.7 L19.0152337,0.7 C19.5919664,0.695537421 20.142574,0.940204475 20.525747,1.3712729 C20.9089181,1.80234132 21.0873448,2.37783799 21.0152337,2.95006165 L20.0152337,12.1500624 C19.6300313,15.1677855 17.0472962,17.4196204 14.0052354,17.3900641 L14.0052335,17.3900603 Z" id="Path-989" fill="#FFFFFF"></path>
                    <path d="M14.0046483,18.1700031 L7.24464898,18.1700031 C3.69166331,18.1621143 0.751153993,15.4051143 0.514648484,11.8600017 L0.0046489705,2.91000094 C-0.0391685496,2.15425791 0.228223609,1.41350855 0.74464898,0.859999792 C1.26462989,0.310418264 1.98806529,-0.000658853843 2.74464946,0 L19.0146485,0 C19.8027745,-0.000700815513 20.5530396,0.337998525 21.0737839,0.92957987 C21.5945302,1.52116121 21.8353215,2.30832972 21.7346478,3.09000124 L20.6846486,12.2799999 C20.2569523,15.6443302 17.3960534,18.1668903 14.0046483,18.1700031 Z M2.74464898,1.48000063 C2.39707665,1.48220934 2.06559758,1.62677683 1.82749681,1.87999453 C1.58939605,2.13321222 1.46548324,2.47295298 1.48464875,2.82000269 L1.99464898,11.8200046 C2.19894938,14.5678646 4.48920827,16.6923534 7.24465089,16.6900093 L14.0046483,16.6900093 C16.6479168,16.6864139 18.8779622,14.7217456 19.2146492,12.1000072 L20.2146473,2.91000475 C20.2603875,2.54990305 20.1498547,2.18743815 19.9109574,1.91413798 C19.6720601,1.6408359 19.327631,1.48282541 18.9646473,1.48000063 L2.74464898,1.48000063 Z" id="Path-990" fill="#161616"></path>
                </g>
                <g id="Group-613" transform="translate(28.293, 23.303)">
                    <path d="M7.7107058,17.3900603 L14.4707079,17.3900603 C17.6415186,17.3964308 20.2698985,14.9345129 20.4707079,11.7700652 L20.9707079,2.83006272 C21.0067034,2.27748856 20.8119898,1.73472008 20.4329463,1.33103738 C20.0538989,0.927354667 19.5244532,0.69889054 18.9707079,0.7 L2.7107058,0.7 C2.13397508,0.695537421 1.58336549,0.940204475 1.20019441,1.3712729 C0.817021417,1.80234132 0.638594674,2.37783799 0.710705804,2.95006165 L1.7107058,12.1500624 C2.09546761,15.1639632 4.67244439,17.4145239 7.7107058,17.3900641 L7.7107058,17.3900603 Z" id="Path-991" fill="#FFFFFF"></path>
                    <path d="M14.4812115,18.1700531 L7.711211,18.1700531 C4.32267264,18.1637969 1.46231154,15.649755 1.02120665,12.2900482 L0.0212104624,3.08004909 C-0.0757381613,2.30514293 0.162579328,1.52568965 0.676295072,0.937493849 C1.19001272,0.349299956 1.93030623,0.00826029829 2.71120909,0 L18.9812115,0 C19.7384937,-0.00458569475 20.4634273,0.306699324 20.9815624,0.858998824 C21.4996975,1.41129832 21.7641247,2.15460353 21.711211,2.91005092 L21.211211,11.9100509 C20.949744,15.4354225 18.0162609,18.1640449 14.4812115,18.1700531 L14.4812115,18.1700531 Z M2.711211,1.48005061 C2.34891585,1.4800468 2.00432089,1.63582759 1.76511076,1.90765719 C1.52598837,2.17929988 1.41523054,2.5408874 1.461211,2.90005069 L2.461211,12.1100517 C2.80860594,14.7407203 5.05773047,16.7028175 7.711211,16.6901116 L14.4712131,16.6901116 C17.2388141,16.6804061 19.5274227,14.5315567 19.711211,11.7700515 L20.211211,2.77005153 C20.2426136,2.42370181 20.1222217,2.08076243 19.8812092,1.83005099 C19.6445759,1.57308154 19.3105305,1.42784457 18.9612148,1.43002659 L2.711211,1.48005061 Z" id="Path-992" fill="#161616"></path>
                </g>
                <path d="M42.3739991,36.753 L37.664,36.753 C37.2497849,36.753 36.914,36.4172151 36.914,36.003 C36.914,35.5887849 37.2497849,35.253 37.664,35.253 L42.3739991,35.253 C42.7882142,35.253 43.1239991,35.5887849 43.1239991,36.003 C43.1239991,36.4172151 42.7882142,36.753 42.3739991,36.753 Z" id="Path-993" fill="#161616"></path>
                <path d="M14.9340003,36.753 L10.214,36.753 C9.79978682,36.753 9.464,36.4172151 9.464,36.003 C9.464,35.5887849 9.79978682,35.253 10.214,35.253 L14.9340003,35.253 C15.3482134,35.253 15.6840003,35.5887849 15.6840003,36.003 C15.6840003,36.4172151 15.3482134,36.753 14.9340003,36.753 Z" id="Path-994" fill="#161616"></path>
            </g>
            <g id="50x50-Spacers" transform="translate(0.004, 0)">
                <rect id="Rectangle-322" x="0" y="0" width="50" height="50"></rect>
            </g>
        </g>
    </g>
</svg>