<?xml version="1.0" encoding="UTF-8"?>
<svg width="50px" height="50px" viewBox="0 0 50 50" version="1.1" xmlns="http://www.w3.org/2000/svg" xmlns:xlink="http://www.w3.org/1999/xlink">
    <title>723740BC-2FE7-4698-80B6-748AA3250FC3</title>
    <g id="Icon-Enterprise/Primary/Care-Management" stroke="none" stroke-width="1" fill="none" fill-rule="evenodd">
        <g id="Icon-Care-Management" transform="translate(-0, 0)">
            <g id="Group" transform="translate(0, 1.5)" fill-rule="nonzero">
                <g transform="translate(0, 2.887)" fill="#5DC1FD" id="Path">
                    <path d="M42.3900025,25.23 C43.3546405,26.2035251 43.6427191,27.6599629 43.1213393,28.9274174 C42.5999596,30.1948719 41.3704438,31.0270325 40.0000025,31.04 C39.2576358,31.0154699 38.5398372,30.7680733 37.9400025,30.33"></path>
                    <path d="M38.3500025,31.71 C39.3075135,32.5993486 39.623456,33.9839461 39.1465038,35.2006158 C38.6695516,36.4172854 37.4968175,37.2183 36.1900025,37.22 C35.2756232,37.2179984 34.405778,36.8249302 33.8000025,36.14"></path>
                    <path d="M32.3700025,34.74 C32.5428501,34.8828726 32.7065087,35.0365113 32.8600025,35.2 C33.4262509,35.7787624 33.7174754,36.5723491 33.6600025,37.38 C33.6600025,39.2191082 32.1691107,40.71 30.3300025,40.71 C29.1357026,40.6049932 28.0435949,39.9934129 27.3300025,39.03"></path>
                    <path d="M26.7000025,38.39 C27.5289598,39.1933612 27.86098,40.3809221 27.5688626,41.4977152 C27.2767453,42.6145084 26.4057751,43.4874055 25.2896303,43.7819902 C24.1734854,44.0765749 22.9851937,43.7471799 22.1800025,42.92 L22.4400025,43.17 L4.18000247,25.03 C1.4979829,22.2804774 -0.0022228412,18.5909762 2.66453526e-15,14.75 C2.66453526e-15,6.6 6.13000247,8.8817842e-16 14.2800025,8.8817842e-16 C17.5223472,0.107192325 20.6774366,1.07719247 23.4200025,2.81"></path>
                </g>
                <path d="M43.4300025,26.7370328 L43.0600025,26.3070328 C46.4800025,22.6870328 52.0600025,14.7570328 46.1500025,6.16703278 C46.1500025,6.16703278 40.8400025,-2.52296722 27.7100025,2.39703278 L26.3900025,3.41703278 C26.3900025,3.41703278 25.8300025,3.94703278 24.9900025,4.76703278 L24.1500025,3.63703278 L17.3600025,1.86703278 C6.23000247,0.79703278 -3.14999753,15.5670328 7.79000247,26.5570328 L22.5000025,41.1370328 C22.5000025,41.1370328 25.7700025,45.7870328 28.5600025,42.8570328 C29.3900025,41.9970328 29.0900025,40.8570328 29.7700025,40.4670328 C31.0129357,41.3133964 32.6470693,41.3133964 33.8900025,40.4670328 C35.5500025,39.1870328 34.6900025,36.7470328 36.1300025,37.2670328 C38.0500025,37.9470328 42.4200025,36.8370328 39.8600025,31.7270328 C39.8600025,31.7270328 42.5700025,30.9670328 43.0600025,30.0670328 C43.3580946,28.9834755 43.4829701,27.8595967 43.4300025,26.7370328 L43.4300025,26.7370328 Z" id="Path" fill="#FFFFFF"></path>
                <path d="M49.9000025,14.5670328 C49.8375223,10.5623737 48.1393034,6.75764084 45.2000025,4.03703278 C42.0967007,1.19106573 37.9605555,-0.255138887 33.7600025,0.0370327803 C30.6537901,0.201586469 27.6895018,1.39011487 25.3300025,3.41703278 C22.6660655,1.84665648 19.6506438,0.969880499 16.5600025,0.86703278 C8.40000247,0.86703278 1.99988871,7.46703278 1.99988871,15.8870328 C1.98469635,19.8197655 3.51450935,23.6012046 6.26000247,26.4170328 L23.6800025,43.7170328 L23.6800025,43.7170328 L23.7800025,43.8070328 L23.9500025,43.9770328 L23.9500025,43.9770328 C25.0581394,44.8979183 26.5893407,45.1189706 27.91269,44.5491073 C29.2360394,43.9792439 30.1275958,42.7148988 30.2200025,41.2770328 C30.7866794,41.6216796 31.436753,41.804945 32.1000025,41.8070328 C34.2223514,41.810544 35.9779701,40.1558734 36.1000025,38.0370328 C37.6821847,38.8033926 39.5827326,38.3974447 40.7137492,37.0515585 C41.8447658,35.7056724 41.9173701,33.7636104 40.8900025,32.3370328 C42.1808804,32.2266519 43.3383483,31.4978872 43.9958453,30.3815327 C44.6533423,29.2651783 44.7294265,27.8995132 44.2000025,26.7170328 C47.8624074,23.7552111 49.9634069,19.276765 49.9000025,14.5670328 L49.9000025,14.5670328 Z M40.4400025,30.8170328 C39.8928724,30.7988534 39.3636181,30.6177928 38.9200025,30.2970328 L28.9200025,20.2970328 C28.7807147,20.154085 28.5895899,20.0734628 28.3900025,20.0734628 C28.190415,20.0734628 27.9992903,20.154085 27.8600025,20.2970328 C27.5675491,20.5898503 27.5675491,21.0642152 27.8600025,21.3570328 L39.4100025,32.9070328 C39.9887728,33.5161706 40.1986074,34.3878074 39.9604637,35.1936061 C39.72232,35.9994048 39.0723776,36.6169453 38.2554637,36.8136062 C37.4385497,37.010267 36.5787727,36.7561706 36.0000025,36.1470328 L35.2100025,35.3570328 C35.1500025,35.2870328 35.1000025,35.2170328 35.0300025,35.1470328 C34.8798354,34.9868772 34.7195032,34.8365657 34.5500025,34.6970328 L24.5500025,24.6970328 C24.2571849,24.4045794 23.78282,24.4045794 23.4900025,24.6970328 C23.3470547,24.8363206 23.2664325,25.0274453 23.2664325,25.2270328 C23.2664325,25.4266203 23.3470547,25.617745 23.4900025,25.7570328 L34.1100025,36.3370328 C34.4458193,36.7383688 34.6109621,37.2553376 34.5700025,37.7770328 C34.5644953,39.1427921 33.4557729,40.2470439 32.0900025,40.2470328 C31.3089959,40.1658485 30.5909491,39.7816935 30.0900025,39.1770328 L30.0900025,39.1770328 L20.0900025,29.1770328 C19.8001076,28.9224405 19.3643528,28.9293222 19.0826419,29.1929416 C18.800931,29.456561 18.7651836,29.8909016 19.0000025,30.1970328 L28.0800025,39.2870328 L28.0800025,39.2870328 C28.5256771,39.7238462 28.7747254,40.3230059 28.7700025,40.9470328 C28.7700025,42.2449019 27.7178716,43.2970696 26.4200025,43.2970696 C25.8527065,43.3002395 25.304239,43.0936738 24.8800025,42.7170328 L7.33000247,25.3070328 C4.87527333,22.7864347 3.50420528,19.4054239 3.50998416,15.8870328 C3.50998416,8.30703278 9.25000247,2.41703278 16.5600025,2.41703278 C19.2288078,2.51455117 21.8380172,3.23362463 24.1800025,4.51703278 L18.3300025,10.1470328 C17.2968377,10.9367393 16.6406479,12.1222314 16.5200025,13.4170328 C16.4968987,14.944025 17.3716867,16.3425472 18.7548622,16.9898992 C20.1380377,17.6372512 21.7723071,17.4130149 22.9300025,16.4170328 C23.0900025,16.2870328 26.3600025,13.1570328 27.4600025,12.0970328 L27.4600025,12.0970328 C27.6930532,11.892897 27.970342,11.7456943 28.2700025,11.6670328 C28.7496389,11.5294695 29.2663125,11.646381 29.6400025,11.9770328 C30.0578405,12.3728306 30.2557606,12.9479194 30.1700025,13.5170328 C30.0459703,14.1998209 30.245406,14.9015392 30.7100025,15.4170328 L42.2500025,26.4670328 L42.2500025,26.4670328 C42.9779529,27.1975042 43.194265,28.2945239 42.7980923,29.2466518 C42.4019196,30.1987796 41.4712628,30.8185548 40.4400025,30.8170328 Z M43.3200025,25.4170328 L31.7900025,14.4170328 C31.6600025,14.2770328 31.6200025,14.1470328 31.6800025,13.7070328 C31.8334906,12.6535679 31.4596714,11.5919212 30.6800025,10.8670328 C30.1437634,10.3878999 29.4491082,10.1242872 28.7300025,10.1270328 C28.4601798,10.1263983 28.1913668,10.1599999 27.9300025,10.2270328 C27.4106456,10.3704978 26.9292488,10.6265599 26.5200025,10.9770328 L26.5200025,10.9770328 C24.7900025,12.6370328 22.1400025,15.1570328 21.9800025,15.2970328 C21.5517175,15.6735246 21.0002357,15.8798855 20.4300025,15.8770328 C19.7769074,15.8882479 19.1476794,15.6316716 18.6886456,15.1669707 C18.2296118,14.7022698 17.9807751,14.0699411 18.0000025,13.4170328 C18.1155583,12.505833 18.6045404,11.6836187 19.3500025,11.1470328 L25.9000025,4.84703278 C28.0710398,2.84562509 30.8800487,1.67668068 33.8300025,1.54703278 C37.6266093,1.27163695 41.3693718,2.5698512 44.1800025,5.13703278 C46.8232345,7.5832707 48.3484227,11.0059086 48.4002665,14.6070328 C48.4258098,18.792578 46.5587408,22.7656127 43.3200025,25.4170328 L43.3200025,25.4170328 Z" id="Shape" fill="#161616"></path>
            </g>
            <g id="_50x50_Spacers">
                <rect id="Rectangle" x="0" y="0" width="50" height="50"></rect>
            </g>
        </g>
    </g>
</svg>