<?xml version="1.0" encoding="UTF-8"?>
<svg width="40px" height="40px" viewBox="0 0 50 50" version="1.1" xmlns="http://www.w3.org/2000/svg" xmlns:xlink="http://www.w3.org/1999/xlink">
    <title>Icon-Enterprise/Primary/Doctor-Provider</title>
    <g id="Icon-Enterprise/Primary/Doctor-Provider" stroke="none" stroke-width="1" fill="none" fill-rule="evenodd">
        <g id="Icon-Doctor-Confirmed" fill-rule="nonzero">
            <g id="Group-281">
                <path d="M7.05743541,0.909483813 C8.21994994,0.909483813 9.16235417,1.85188804 9.16235417,3.01440257 L9.16235417,10.7589156 C9.16235417,11.9214301 8.21994994,12.8638343 7.05743541,12.8638343 C5.89492089,12.8638343 4.95251666,11.9214301 4.95251666,10.7589156 L4.95251666,3.01440257 C4.95251666,1.85188804 5.89492089,0.909483813 7.05743541,0.909483813 Z" id="Rectangle-165" fill="#5DC1FD" transform="translate(7.0574, 6.8867) rotate(135) translate(-7.0574, -6.8867)"></path>
                <path d="M24.0050112,-0.348503077 C25.2470374,-0.348503077 26.2538987,0.658358144 26.2538987,1.9003844 L26.2538987,10.6576414 C26.2538987,11.8996676 25.2470374,12.9065289 24.0050112,12.9065289 C22.7629849,12.9065289 21.7561237,11.8996676 21.7561237,10.6576414 L21.7561237,1.9003844 C21.7561237,0.658358144 22.7629849,-0.348503077 24.0050112,-0.348503077 Z" id="Rectangle-166" fill="#5DC1FD" transform="translate(24.005, 6.279) rotate(45) translate(-24.005, -6.279)"></path>
                <path d="M37.4516709,31.0505313 L37.4516709,35.1809361 C37.6221225,40.9800397 33.0588204,45.8189588 27.2597073,45.9889597 C21.4605924,46.1589568 16.6216714,41.5956546 16.4516724,35.7965397 C23.0339393,34.5675634 27.8045668,28.8204934 27.8008152,22.1244822 L27.8008152,3.83551962 L21.8434977,9.36589625 L23.7696976,11.9672581 L23.7696976,22.1046259 C23.8837751,25.6962692 22.032781,29.0650012 18.9399462,30.8945653 C15.8471143,32.7241274 12.0033483,32.7241274 8.91051445,30.8945634 C5.81768061,29.0650012 3.9666856,25.6962692 4.08076313,22.1046259 L4.08076313,8.11485934 L6.06653565,4.48089578 L0,11.7190366 L0,22.1244841 C0,29.2944876 5.44869458,35.2864879 12.5831528,35.9656316 C12.7699354,43.9036236 19.3583656,50.1851336 27.2963008,49.9958313 C35.234236,49.806529 41.515746,43.2181016 41.3264438,35.2801627 L41.3239288,30.5441591 L37.4516709,31.0505313 Z" id="Path-411" fill="#5DC1FD"></path>
                <path d="M39.8345975,33.9100459 C43.3714934,33.9100459 46.2387146,31.0428228 46.2387146,27.5059269 C46.2387146,23.9690328 43.3714934,21.1018117 39.8345975,21.1018117 C36.2977015,21.1018117 33.4304803,23.9690347 33.4304803,27.5059307 C33.4304803,31.0428228 36.2977015,33.9100459 39.8345937,33.9100459 L39.8345975,33.9100459 Z" id="Path-412" fill="#5DC1FD"></path>
                <g id="Group-277" transform="translate(2.1843, 3.2497)">
                    <path d="M38.1665472,28.0391071 L38.1665472,30.2035995 C38.1456247,35.8721307 33.6310836,40.5016962 27.9648723,40.6651976 C22.2986629,40.8286952 17.5246796,36.4671527 17.1769323,30.8092607 C23.7829624,29.6103463 28.587943,23.8610851 28.5951243,17.1471456 L28.5951243,6.14596589 L24.4945048,1.12196147 L21.6449204,4.11054934 L24.5441484,7.56579354 L24.5441484,10.9515355 C23.6227618,15.7670456 19.3545428,19.2103112 14.4530987,19.0922037 C9.55165641,18.9740962 5.45423369,15.3292491 4.76585499,10.4749487 L4.76585404,7.56579354 L7.74451282,4.11054934 L4.76585404,1.13189056 L0.794309007,6.14596589 L0.794309007,17.1471456 C0.794309007,24.2860892 6.20185837,30.2642838 13.3048514,30.9780723 C13.4902279,38.916106 20.0764102,45.1999718 28.0144155,45.0135064 C35.9524189,44.8270448 42.2362885,38.2408597 42.0498193,30.3028525 L42.0487361,25.5966078 L38.1665472,28.0391071 Z M14.6947166,26.9667901 C9.87103203,26.9603493 5.76327685,23.4580376 4.99421743,18.6960495 C7.45703508,21.1556136 10.7970669,22.5344902 14.2777062,22.5285911 L15.0322981,22.5285892 C18.5705159,22.524794 21.9573506,21.0927269 24.4250012,18.5570441 C23.7198635,23.3875814 19.5764484,26.9686744 14.6947166,26.9667901 L14.6947166,26.9667901 Z" id="Path-413" fill="#FFFFFF"></path>
                    <path d="M27.6519609,45.4543345 C19.8131386,45.4576889 13.2749447,39.4629048 12.5998082,31.6532126 C5.36060314,30.6540201 -0.0238108526,24.4549444 0,17.1471457 L0,5.8778872 L4.76593342,0.00992908984 L8.73747845,4.07083404 L5.54038443,7.84380154 L5.54038443,10.4153771 C6.30023062,14.7738697 10.0301994,17.9905483 14.4530341,18.1015408 C18.8758689,18.2125315 22.7624855,15.1869922 23.7399904,10.872102 L23.7399904,7.84380154 L20.5826118,4.07083357 L24.5541569,0 L29.3100829,5.87788625 L29.3100829,17.1471457 C29.3100829,23.9582703 24.6096995,29.8697564 17.9725206,31.4047108 C18.5932392,36.5351433 23.1055116,40.2924715 28.2635307,39.9739338 C33.421548,39.6553962 37.4372257,35.3714229 37.4219657,30.2035996 L37.4219619,27.632024 L42.7934764,24.1966385 L42.7934764,30.3028905 C42.7934764,38.66693 36.0159929,45.4488563 27.651959,45.4543345 L27.6519609,45.4543345 Z M1.4893325,6.40411665 L1.4893325,17.1471457 C1.46642376,23.9407736 6.63850333,29.6257504 13.4040446,30.2433197 L14.0494203,30.3028905 L14.0494203,30.9482681 C14.2265096,38.4751128 20.4726873,44.4323205 27.9995037,44.2540893 C35.5263219,44.0758581 41.4835296,37.8296784 41.3052946,30.302864 L41.3041508,26.9270776 L38.911295,28.4461943 L38.911295,30.2036034 C38.8992089,36.2820547 34.0607216,41.2515575 27.9847568,41.4259974 C21.9087958,41.6004411 16.7931613,36.9167286 16.4323507,30.848981 L16.4323507,30.1936762 L17.0777264,30.0745309 C23.3123408,28.9343616 27.8437554,23.5050148 27.8505427,17.1670057 L27.8505427,6.40411665 L24.4449388,2.24392317 L22.6378861,4.14033578 L25.2789634,7.29771391 L25.2789634,11.1103973 C24.2436508,16.230183 19.6846589,19.869593 14.4627303,19.7449103 C9.24080358,19.6202314 4.86069818,15.7673885 4.07091228,10.604026 L4.07091323,7.29771391 L6.75170593,4.14033578 L4.85529333,2.24392317 L1.4893325,6.40411665 Z M14.694796,27.7115018 C9.48383429,27.72691 5.04610495,23.9267615 4.25956214,18.7754785 L3.84254937,16.5613426 L5.4708827,18.1698192 C7.79169619,20.4934137 10.9440667,21.7943896 14.2281401,21.7839246 L14.982732,21.7839246 C18.3154084,21.7937419 21.5101627,20.4542371 23.8392775,18.0705283 L25.4477541,16.4322682 L25.1101726,18.6960496 C24.3170972,23.8476735 19.9069016,27.6650781 14.694796,27.7115018 L14.694796,27.7115018 Z M6.33469363,20.8307547 C7.79633311,24.1347308 11.0820939,26.253691 14.6947979,26.2221236 C18.3138404,26.2044319 21.5827399,24.056298 23.0350421,20.7413929 C20.6962386,22.3981286 17.8985041,23.2832664 15.0323775,23.2732521 L14.2777837,23.2732521 C11.4424093,23.291921 8.66970574,22.4393165 6.33469363,20.8307585 L6.33469363,20.8307547 Z" id="Path-414" fill="#161616"></path>
                </g>
                <g id="Group-278" transform="translate(4.0291, 0)">
                    <path d="M5.14271118,-0.238732422 C6.18732923,-0.238732422 7.03415947,0.608097824 7.03415947,1.65271587 L7.03415947,8.63270648 C7.03415947,9.67732453 6.18732923,10.5241548 5.14271118,10.5241548 C4.09809313,10.5241548 3.25126288,9.67732453 3.25126288,8.63270648 L3.25126288,1.65271587 C3.25126288,0.608097824 4.09809313,-0.238732422 5.14271118,-0.238732422 Z" id="Rectangle-167" fill="#FFFFFF" transform="translate(5.1427, 5.1427) rotate(315) translate(-5.1427, -5.1427)"></path>
                    <path d="M7.60736416,10.2493444 C6.90598938,10.2544415 6.23250242,9.97501518 5.74073882,9.47489339 L0.776306581,4.51046209 C-0.141760681,3.45657717 -0.0797798572,1.86988322 0.917701423,0.890824629 C1.91518247,-0.0882336011 3.50275597,-0.120628369 4.53934546,0.81692459 L9.50377676,5.78135577 C10.0003752,6.27358003 10.2797314,6.94380921 10.2797314,7.64301845 C10.2797314,8.34222721 10.0003752,9.01245687 9.50377771,9.50468066 C8.99981911,10.001405 8.31465794,10.2704477 7.60736416,10.2493444 Z M2.64293286,1.53180332 C2.1683468,1.52354407 1.73729827,1.80727922 1.5572348,2.24645775 C1.37717181,2.68563604 1.48497619,3.19030125 1.82876643,3.51757631 L6.79319678,8.48200713 C7.24728173,8.92082631 7.96744564,8.92082537 8.42153059,8.48200713 L8.42153059,8.48200713 C8.6367767,8.26772873 8.75778074,7.97652404 8.75778074,7.6728043 C8.75778074,7.36908503 8.6367767,7.07788081 8.42153153,6.86360241 L3.45709929,1.89917112 C3.25535251,1.67666022 2.97281234,1.54433115 2.67271918,1.53180249 L2.64293286,1.53180332 Z" id="Path-415" fill="#161616"></path>
                </g>
                <g id="Group-279" transform="translate(19.4119, 0)">
                    <path d="M1.65271587,3.25126288 L8.63270648,3.25126288 C9.67732453,3.25126288 10.5241548,4.09809313 10.5241548,5.14271118 C10.5241548,6.18732923 9.67732453,7.03415947 8.63270648,7.03415947 L1.65271587,7.03415947 C0.608097824,7.03415947 -0.238732422,6.18732923 -0.238732422,5.14271118 C-0.238732422,4.09809313 0.608097824,3.25126288 1.65271587,3.25126288 Z" id="Rectangle-168" fill="#FFFFFF" transform="translate(5.1427, 5.1427) rotate(315) translate(-5.1427, -5.1427)"></path>
                    <path d="M2.67887424,10.2492723 C1.97794451,10.2520424 1.30530028,9.97296737 0.812250803,9.47475451 L0.812248909,9.47475356 C0.315652384,8.98253072 0.0362970717,8.31230106 0.0362970717,7.6130923 C0.0362970717,6.91388354 0.315652384,6.24365388 0.812250803,5.75143009 L5.7766802,0.786998796 C6.82331384,-0.138238082 8.40944381,-0.0884027813 9.39592909,0.900712843 C10.3824125,1.88982823 10.4280242,3.47608532 9.50000557,4.52025088 L4.53557238,9.48468265 C4.0445644,9.97868375 3.37536874,10.2542354 2.67887614,10.2492723 L2.67887424,10.2492723 Z M1.86470781,8.42229371 C2.07765583,8.64002162 2.36935859,8.76274995 2.67391064,8.76274995 C2.97846081,8.76274995 3.27016357,8.64002162 3.48310969,8.42229371 L8.44754288,3.45786242 C8.8862295,3.00272784 8.8728935,2.27814314 8.41775939,1.83945794 C7.9626234,1.40077274 7.23803846,1.4141085 6.79935373,1.86924402 L1.83492054,6.83367532 C1.61967727,7.04795418 1.49867229,7.33915888 1.49867229,7.64287815 C1.49867229,7.94659694 1.61967727,8.23780164 1.83492054,8.45208003 L1.86470781,8.42229371 Z" id="Path-416" fill="#161616"></path>
                </g>
                <g id="Group-280" transform="translate(35.4758, 19.5628)">
                    <path d="M6.32471981,11.904705 C9.40385878,11.904705 11.9010429,9.41048468 11.9047056,6.33131541 C11.9083453,3.25211394 9.41707736,0.751979347 6.33791188,0.744664694 C3.25875019,0.737380195 0.755657504,3.22567488 0.744664694,6.3048271 C0.739420232,7.78817783 1.32498466,9.21258464 2.37201031,10.263341 C3.41903975,11.3140955 4.84135961,11.904705 6.32471602,11.904705 L6.32471981,11.904705 Z" id="Path-417" fill="#FFFFFF"></path>
                    <path d="M6.32465005,12.6493697 C2.8342464,12.6493697 0.00366230451,9.82175127 0,6.33131543 C-0.00364011212,2.84084928 2.82102403,0.00731467201 6.31145419,0 C9.80188057,-0.00729016127 12.6383771,2.81440075 12.6493695,6.30482144 C12.6546181,7.98567261 11.9905982,9.59948965 10.8039176,10.7898972 C9.61723699,11.9803047 8.0055088,12.6493697 6.32465005,12.6493697 Z M6.32465005,1.48928829 C3.6555183,1.50579481 1.50458163,3.68192443 1.51912377,6.35106755 C1.53381023,9.02020878 3.70844567,11.1726548 6.37760015,11.1599491 C9.04675085,11.1471323 11.2007062,8.97399297 11.1898393,6.30483091 C11.1733979,3.63272592 8.99678156,1.47832363 6.32465005,1.48928829 L6.32465005,1.48928829 Z" id="Path-418" fill="#161616"></path>
                </g>
            </g>
            <g id="50x50-Spacers">
                <rect id="Rectangle-169" x="0" y="0" width="50" height="50"></rect>
            </g>
        </g>
    </g>
</svg>