<?xml version="1.0" encoding="UTF-8"?>
<svg width="50px" height="50px" viewBox="0 0 50 50" version="1.1" xmlns="http://www.w3.org/2000/svg" xmlns:xlink="http://www.w3.org/1999/xlink">
    <title>4316E89B-4C91-4415-B4A1-D839BFE7BA77</title>
    <defs>
        <polygon id="path-1" points="0 0 19.9993753 0 19.9993753 20 0 20"></polygon>
    </defs>
    <g id="Icon-Enterprise/Primary/Meal" stroke="none" stroke-width="1" fill="none" fill-rule="evenodd">
        <g id="Icon-Meals" transform="translate(0, 0)">
            <g fill-rule="nonzero">
                <g id="Group-427" transform="translate(2.363, 0)">
                    <path d="M20.9371219,49.3907723 L20.9371219,49.3907723 L21.2071223,49.5107713 C23.5971217,50.5107713 26.5471225,49.9507699 29.4871211,47.9207711 C32.9215159,45.4052606 35.5793452,41.9746919 37.1571193,38.0207696 C38.8889804,34.1325364 39.4952884,29.8364282 38.9071269,25.6207719 C38.2971225,22.1007733 36.6471248,19.6207738 34.2471232,18.6207738 C29.9671245,16.8207746 26.9671225,17.9307733 24.4971232,19.1007733 L23.1871238,19.7307725 C22.7671237,19.9407716 22.3971228,20.1207719 22.0571246,20.2707734 C20.6802516,21.101397 18.9780078,21.1840653 17.5271258,20.4907746 L17.3671241,20.420773 L17.1171241,20.3007722 L16.3371234,19.920773 L14.6371226,19.0207734 C12.1571231,17.8507733 9.16712331,16.7407727 4.88712262,18.5407739 C2.48712252,19.5407739 0.827122676,22.0507741 0.227122772,25.5407739 C-0.376909745,29.7825646 0.229722488,34.1087098 1.97712468,38.0207734 C3.55215596,41.9734559 6.20641087,45.4038911 9.6371188,47.9207749 C12.5771232,49.9207749 15.5171237,50.5107751 17.9171214,49.5107751 L18.2171206,49.3907762 C19.1107974,49.1004319 20.0734439,49.1004319 20.9671206,49.3907762" id="Path-701" fill="#5DC1FD"></path>
                    <path d="M23.6370055,14.7510383 C23.8170058,13.4110381 24.2370059,8.57103795 26.077006,6.53103799 C27.4170062,5.02103872 28.6370055,3.92103881 28.6370055,3.91103882 C28.8760573,3.75220174 29.0420558,3.50474376 29.0983416,3.22330612 C29.1546294,2.94186849 29.0965773,2.64960093 28.9370028,2.4110393 C28.6024062,1.91191775 27.9269854,1.77772719 27.4270045,2.11103839 C26.2383296,2.96970243 25.1979567,4.01683206 24.3470046,5.21103782 C24.0431678,5.63682765 23.7659728,6.08101053 23.5170047,6.54103917 C23.3245475,6.19032258 23.1038176,5.85588092 22.8570048,5.5410387 C23.3342158,3.60240931 22.285937,1.61325664 20.4170043,0.911038583 C16.8570067,-0.62896126 12.9770057,0.0710387285 10.4170062,0.911038702 C10.0533501,1.04022712 9.79648846,1.36714179 9.75700634,1.75103862 C9.6580817,2.07850332 9.8103215,2.42950124 10.117007,2.58103866 C12.0470063,3.20103854 14.7470061,1.92103857 17.5270049,7.58103866 C18.237004,9.03103895 20.2870051,8.38103837 21.5270049,7.41103858 C21.8770053,8.01103849 24.2070052,8.66103811 22.3170058,14.7510383 L23.6370055,14.7510383 Z" id="Path-702" fill="#161616"></path>
                    <path d="M21.7571064,14.0207795 C22.3871056,14.3607796 20.2671067,13.3007792 19.0671059,12.7307795 C15.7010437,10.8586396 11.652744,10.6699151 8.12710728,12.2207793 C2.1971065,14.7207793 0.547106407,24.2707795 4.44710603,33.5507783 C8.34710564,42.8307771 16.3171059,48.3407792 22.2571064,45.8507813 L22.2571064,45.8507813 C22.9702775,45.5513238 23.7739312,45.5513238 24.4871041,45.8507813 L24.487106,45.8507813 C30.4271065,48.340783 38.3971077,42.8507813 42.3071038,33.5607804 C46.2170998,24.2707795 44.5571038,14.7307795 38.6371056,12.2307795 C35.0945641,10.6598882 31.0191056,10.8488425 27.6371075,12.7407807 C26.5371052,13.2607793 25.7471062,13.6607798 25.1171051,13.9507798 C24.0825802,14.593522 22.7807213,14.624153 21.7171074,14.0307807" id="Path-703" fill="#FFFFFF"></path>
                    <path d="M19.2074354,47.2105378 C16.6788939,47.1094063 14.2395113,46.2486504 12.2074354,44.7405327 C8.44135076,41.9703606 5.53048307,38.1966256 3.80743772,33.850541 C1.88819105,29.5811146 1.21230299,24.8568562 1.85743505,20.2205456 C2.59743578,15.9305399 4.72743541,12.85054 7.85743505,11.5405396 C11.5677221,9.90637669 15.825815,10.0836438 19.3874357,12.0205401 L21.147436,12.8705395 L22.147436,13.3405398 L22.147436,13.3405398 C22.9586161,13.806507 23.9562586,13.806507 24.7674387,13.3405407 L24.8774374,13.2805394 L26.1374376,12.680539 L27.3574351,12.0205391 C30.9181288,10.0642174 35.185356,9.87210258 38.90744,11.5005415 C42.0174368,12.8105381 44.1474379,15.8905381 44.9074362,20.180539 C45.5648192,24.8112191 44.9100111,29.53345 43.017433,33.81054 C41.3054083,38.1682289 38.4013251,41.9560097 34.6374357,44.7405404 C31.0574339,47.2105416 27.3674353,47.850541 24.2474363,46.5405396 C23.7229059,46.3205307 23.1319674,46.3205307 22.607437,46.5405396 L22.4574373,46.600541 C21.4244078,47.0144204 20.3202322,47.2216614 19.2074335,47.2105378 L19.2074354,47.2105378 Z M23.3774355,44.8805397 C23.8581961,44.8786591 24.3343828,44.9738968 24.7774351,45.1605423 C30.3274344,47.4905404 37.8774336,42.1605385 41.607437,33.2705391 C43.3965109,29.2608021 44.0203169,24.8283108 43.4074324,20.4805363 C42.7574347,16.7105378 40.9574354,14.0305384 38.3274382,12.930538 C33.987438,11.1005381 30.7974394,12.0805376 27.9974383,13.4205378 L26.7674349,14.0205391 C26.2874354,14.2605389 25.8774355,14.4605387 25.5174349,14.6205395 C24.2966231,15.3565815 22.7801741,15.4020766 21.5174349,14.7405404 L21.5174349,14.7405394 L21.4474352,14.7405394 C21.2074354,14.640539 20.9074343,14.4905394 20.5274351,14.3105391 L18.7774351,13.4605387 C15.9774359,12.1305388 12.7774351,11.1505383 8.45743543,12.9805392 C5.79743558,14.0205391 3.98743564,16.7105397 3.33743555,20.4805382 C2.72997839,24.8283089 3.35357267,29.2593048 5.13743574,33.2705391 C6.75212652,37.3524102 9.48287183,40.8975266 13.0174406,43.5005425 C16.1574362,45.680539 19.3374365,46.260537 21.9674357,45.1605385 L22.1174353,45.1005371 C22.5211046,44.9532059 22.9477251,44.8787201 23.3774374,44.8805436 L23.3774355,44.8805397 Z" id="Path-704" fill="#161616"></path>
                </g>
                <g id="50x50-Spacers" transform="translate(0, 0.021)">
                    <rect id="Rectangle-250" x="0" y="0" width="50" height="50"></rect>
                </g>
            </g>
            <g id="Icon/Secondary" transform="translate(16.0006, 19)">
                <g id="Group-6" transform="translate(0, 0)">
                    <g id="Group-3">
                        <mask id="mask-2" fill="white">
                            <use xlink:href="#path-1"></use>
                        </mask>
                        <g id="Clip-2"></g>
                        <path d="M10.0012503,-2.61734669e-07 C4.47875026,-0.00125 0.00125026181,4.475 0,9.9975 C-0.00124973819,15.52125 4.47375026,19.99875 9.99750026,19.9999997 C15.5200003,20.00125 19.9987503,15.525 20,10.0025 C20.0012503,4.47875 15.5237503,0.00125 10.0012503,-2.61734669e-07" id="Fill-1" fill="#5DC1FD" mask="url(#mask-2)"></path>
                    </g>
                    <path d="M9.99950026,7.7935 C10.0432503,7.761 11.7932503,4.6485 14.0820003,5.93725 C16.2132503,7.136 16.8657503,10.36725 9.99950026,15.48725 C9.99950026,15.486 9.99950026,15.48725 9.99950026,15.48725 C9.99950026,15.48725 9.99950026,15.486 9.99950026,15.48725 C9.99950026,15.486 9.99950026,15.48725 9.99950026,15.48725 C9.99950026,15.48725 9.99950026,15.486 9.99950026,15.48725 C3.13325026,10.36725 3.78575026,7.136 5.91575026,5.93725 C8.20450026,4.6485 9.95575026,7.761 9.99950026,7.7935" id="Fill-4" fill="#FFFFFF"></path>
                </g>
            </g>
        </g>
    </g>
</svg>