<?xml version="1.0" encoding="UTF-8"?>
<svg width="50px" height="50px" viewBox="0 0 50 50" version="1.1" xmlns="http://www.w3.org/2000/svg" xmlns:xlink="http://www.w3.org/1999/xlink">
    <title>Icon-Enterprise/Primary/Check</title>
    <g id="Icon-Enterprise/Primary/Check" stroke="none" stroke-width="1" fill="none" fill-rule="evenodd">
        <g id="Icon-Check" fill-rule="nonzero">
            <circle id="Ellipse-7" fill="#5DC1FD" cx="23.3800006" cy="26.6399999" r="23.3600006"></circle>
            <g id="Group-187" transform="translate(3.16, 0)">
                <circle id="Ellipse-8" fill="#FFFFFF" cx="23.4399999" cy="23.42" r="22.6599998"></circle>
                <path d="M23.4400044,46.8400003 C10.5028964,46.851039 0.00737005987,36.3704481 0,23.4333372 C-0.00736230097,10.4962273 10.4762202,0.00368596845 23.4133301,0 C36.3504449,-0.00368402667 46.8399964,10.4828892 46.8399964,23.420001 C46.8289796,36.3421354 36.3621255,46.8179388 23.4400044,46.8400003 Z M23.4400044,1.50998742 C11.3313218,1.50446226 1.51184661,11.3179665 1.5100022,23.426652 C1.5100022,35.5386763 11.3279849,45.3536711 23.4366704,45.3499871 C35.5386887,45.3499871 45.3536835,35.5320044 45.3499996,23.4233198 C45.3353043,11.3283138 35.5350037,1.52652075 23.4400006,1.50998742 L23.4400044,1.50998742 Z" id="Path-275" fill="#161616"></path>
            </g>
            <path d="M23.9104326,35.6098403 L16.2804316,25.8698406 C15.9306858,25.4499168 15.8369949,24.8730106 16.0358789,24.3639869 C16.234762,23.8549651 16.694742,23.4943866 17.2365301,23.4228 C17.7783163,23.3512115 18.3161657,23.5799445 18.6404322,24.0198402 L23.5804327,30.3298396 L34.1604326,12.7398404 C34.5884569,12.0301551 35.5107515,11.8018188 36.2204378,12.2298402 C36.9301241,12.6578607 37.1584566,13.5801553 36.7304361,14.2898406 L23.9104326,35.6098403 Z" id="Path-276" fill="#161616"></path>
            <g id="50x50-Spacers" transform="translate(0, 0.02)">
                <rect id="Rectangle-114" x="0" y="0" width="50" height="50"></rect>
                <rect id="Rectangle-115" x="0" y="0" width="50" height="50"></rect>
            </g>
        </g>
    </g>
</svg>