<?xml version="1.0" encoding="UTF-8"?>
<svg width="24px" height="24px" viewBox="0 0 24 24" version="1.1" xmlns="http://www.w3.org/2000/svg" xmlns:xlink="http://www.w3.org/1999/xlink">
    <title>UI/Profile-White</title>
    <g id="UI/Profile-White" stroke="none" stroke-width="1" fill="none" fill-rule="evenodd">
        <path d="M8.432,0.5374 C10.735,-0.1796 13.263,-0.1786 15.568,0.5364 C17.057,1.0004 18.425,1.7404 19.634,2.7374 C20.224,3.2254 20.772,3.7724 21.259,4.3634 C21.747,4.9544 22.182,5.5974 22.55,6.2754 C22.924,6.9634 23.23,7.6874 23.46,8.4294 C23.819,9.5814 24,10.7824 24,11.9964 C24,18.6134 18.616,23.9974 12,23.9974 C5.383,23.9974 0,18.6134 0,11.9964 C0,10.7814 0.182,9.5804 0.539,8.4294 C0.771,7.6854 1.077,6.9614 1.449,6.2764 C1.815,5.6024 2.25,4.9584 2.741,4.3634 C3.229,3.7724 3.776,3.2254 4.366,2.7374 C5.574,1.7414 6.942,1.0004 8.432,0.5374 Z M12,15.0154 C9.146,15.0154 6.825,17.2724 6.825,20.0474 C6.825,20.1104 6.817,20.1644 6.806,20.2174 C8.311,21.1714 10.089,21.7324 12,21.7324 C13.912,21.7324 15.692,21.1704 17.199,20.2144 C17.188,20.1604 17.175,20.1074 17.175,20.0474 C17.175,17.2724 14.853,15.0154 12,15.0154 Z M12,2.2614 C11.012,2.2614 10.038,2.4084 9.104,2.6984 C7.897,3.0744 6.787,3.6754 5.807,4.4834 C5.328,4.8804 4.883,5.3244 4.487,5.8054 C4.089,6.2874 3.736,6.8094 3.439,7.3564 C3.137,7.9124 2.889,8.4994 2.701,9.1014 C2.411,10.0354 2.264,11.0094 2.264,11.9964 C2.264,14.5644 3.271,16.8974 4.901,18.6384 C5.574,15.4274 8.502,13.0034 12,13.0034 C15.498,13.0034 18.426,15.4274 19.099,18.6384 C20.729,16.8974 21.736,14.5644 21.736,11.9964 C21.736,11.0104 21.588,10.0364 21.298,9.1014 C21.111,8.4994 20.863,7.9134 20.561,7.3564 C20.262,6.8064 19.91,6.2844 19.513,5.8054 C19.117,5.3244 18.672,4.8804 18.192,4.4834 C17.212,3.6744 16.102,3.0744 14.896,2.6984 C13.962,2.4084 12.987,2.2614 12,2.2614 Z M11.9998,3.8457 C14.2828,3.8457 16.1398,5.6517 16.1398,7.8707 C16.1398,10.0907 14.2828,11.8967 11.9998,11.8967 C9.7168,11.8967 7.8598,10.0907 7.8598,7.8707 C7.8598,5.6517 9.7168,3.8457 11.9998,3.8457 Z M11.9998,5.8587 C10.8578,5.8587 9.9298,6.7617 9.9298,7.8707 C9.9298,8.9807 10.8578,9.8837 11.9998,9.8837 C13.1418,9.8837 14.0698,8.9807 14.0698,7.8707 C14.0698,6.7617 13.1418,5.8587 11.9998,5.8587 Z" id="Combined-Shape" fill="#FFFFFF"></path>
    </g>
</svg>