<?xml version="1.0" encoding="UTF-8"?>
<svg width="50px" height="50px" viewBox="0 0 50 50" version="1.1" xmlns="http://www.w3.org/2000/svg" xmlns:xlink="http://www.w3.org/1999/xlink">
    <title>Icon-Enterprise/Primary/Questions</title>
    <g id="Icon-Enterprise/Primary/Questions" stroke="none" stroke-width="1" fill="none" fill-rule="evenodd">
        <g id="Icon-Question" fill-rule="nonzero">
            <circle id="Ellipse-21" fill="#5DC1FD" cx="23.3800006" cy="26.6399999" r="23.3600006"></circle>
            <g id="Group-540" transform="translate(3.16, 0)">
                <circle id="Ellipse-22" fill="#FFFFFF" cx="23.4399999" cy="23.42" r="22.6599998"></circle>
                <path d="M23.4400044,46.8400003 C10.5028964,46.851039 0.00737005987,36.3704481 0,23.4333372 C-0.00736230097,10.4962273 10.4762202,0.00368596845 23.4133301,0 C36.3504449,-0.00368402667 46.8399964,10.4828892 46.8399964,23.420001 C46.8289796,36.3421354 36.3621255,46.8179388 23.4400044,46.8400003 Z M23.4400044,1.50998742 C11.3313218,1.50446226 1.51184661,11.3179665 1.5100022,23.426652 C1.5100022,35.5386763 11.3279849,45.3536711 23.4366704,45.3499871 C35.5386887,45.3499871 45.3536835,35.5320044 45.3499996,23.4233198 C45.3353043,11.3283138 35.5350037,1.52652075 23.4400006,1.50998742 L23.4400044,1.50998742 Z" id="Path-875" fill="#161616"></path>
            </g>
            <g id="Group-541" transform="translate(19.793, 11.271)" fill="#161616">
                <path d="M2.20671356,2.34917255 C3.59807289,0.937047916 5.52691353,0.18734737 7.50671471,0.289173084 C9.33965767,0.197723347 11.1352032,0.829754788 12.5067166,2.04917427 C13.7514447,3.20477291 14.436736,4.8414497 14.3867139,6.53917118 C14.4280156,7.48304744 14.1915921,8.41831203 13.7067136,9.22917553 C12.8822354,10.3223571 11.9472951,11.3276672 10.9167126,12.2291717 C10.1097325,12.9243621 9.43256272,13.7572841 8.91671456,14.6891727 C8.55831612,15.6467971 8.40170563,16.6681614 8.45671547,17.6891746 L5.6467141,17.6891746 C5.60494316,16.4662456 5.78797615,15.2460289 6.18671692,14.0891742 C6.74755943,12.8904342 7.55118645,11.8212032 8.54671753,10.9491729 L9.8267144,9.74917217 C10.1862229,9.42364116 10.4991673,9.05012889 10.7567166,8.63917156 C11.169608,8.01252933 11.391919,7.27959629 11.3967122,6.52917095 C11.4151105,5.55976673 11.0851239,4.61593052 10.4667138,3.8691711 C9.65978516,3.04667183 8.52324761,2.63472362 7.37671364,2.74917217 C5.8730439,2.60467716 4.42714775,3.36691471 3.69671333,4.6891727 C3.26357163,5.65090366 3.04191292,6.69440837 3.0467099,7.74917026 L0.256712801,7.74917217 C0.179942018,5.76410862 0.879382021,3.82719799 2.20671356,2.34917255 Z M5.60671318,20.2891731 L8.71671379,20.2891731 L8.71671379,23.5391731 L5.58671272,23.5391731 L5.60671318,20.2891731 Z" id="Path-876"></path>
                <path d="M8.94725446,23.7489152 L5.33725385,23.7489152 L5.33725385,20.0389161 L8.94725446,20.0389161 L8.94725446,23.7489152 Z M5.83725385,23.2489152 L8.44725446,23.2489152 L8.44725446,20.5389161 L5.83725385,20.5389161 L5.83725385,23.2489152 Z M8.68725423,17.9089151 L5.39725523,17.9089151 L5.39725523,17.7489152 C5.35754423,16.4958692 5.54385213,15.2459149 5.94725256,14.0589128 C6.51650838,12.7975774 7.34438543,11.6698937 8.37725286,10.7489152 L9.64725523,9.51891566 C9.99162893,9.20855189 10.2911666,8.8517995 10.5372565,8.45891429 C10.9328921,7.86676455 11.1450789,7.17107058 11.1472571,6.45891619 C11.1627257,5.54880763 10.8543933,4.66279746 10.2772544,3.95891619 C9.50732641,3.21102572 8.44451742,2.84454013 7.37725477,2.95891715 C5.96929006,2.80757571 4.60715513,3.51226187 3.91725378,4.7489152 C3.50072698,5.69380618 3.28940801,6.71631861 3.29725103,7.74891711 L3.29725294,7.98891497 L0.00725392889,7.98891497 L0.00725392889,7.7489152 C-0.0808674853,5.69301081 0.636686607,3.68385936 2.00725393,2.14891482 L2.00725393,2.14891482 C3.44442396,0.685622699 5.43878011,-0.0931944775 7.48725538,0.0089154316 C9.38016729,-0.0778517651 11.2319854,0.57889796 12.6472571,1.83891536 C13.9568503,3.03385211 14.686045,4.73651458 14.6472533,6.50891543 C14.6893981,7.50238467 14.439051,8.4863782 13.9272521,9.33891345 C13.0905936,10.4556756 12.1423705,11.4843164 11.0972541,12.4089112 C10.3189185,13.0863996 9.66565542,13.8953633 9.16725187,14.7989106 C8.79825811,15.7366395 8.63458089,16.7425771 8.68725423,17.7489171 L8.68725423,17.9089151 Z M5.90725355,17.4089151 L8.20725469,17.4089151 C8.18022947,16.4432416 8.34332304,15.4816747 8.68725233,14.578917 C9.21444158,13.6173043 9.90860395,12.7572217 10.7372535,12.0389142 C11.7514861,11.1329351 12.6727202,10.1279512 13.4872535,9.03891612 C13.943579,8.2690568 14.1659568,7.38301898 14.1272529,6.48891688 C14.1717399,4.86084796 13.5164359,3.29176284 12.3272536,2.17891742 C11.0028708,1.00786067 9.2729495,0.401312358 7.50725202,0.488916881 C5.5965064,0.395489223 3.7369483,1.12330104 2.39725332,2.48891688 C1.1651843,3.85913897 0.500250145,5.64659739 0.537252708,7.48891688 L2.80725507,7.48891688 C2.81482534,6.452662 3.04323606,5.42993022 3.47725706,4.48891688 C4.24420385,3.07894183 5.77968626,2.26395369 7.37725477,2.41891719 C8.6179183,2.32809783 9.83021574,2.8196683 10.6572555,3.7489152 C11.3175223,4.53492976 11.6725295,5.53249598 11.6572555,6.55891467 C11.6356643,7.33892298 11.3966907,8.09740687 10.9672549,8.74891711 C10.6841567,9.17319728 10.3481124,9.55964709 9.96725301,9.89891673 L8.68725423,11.1289144 C7.71843748,11.9760728 6.93536024,13.0145001 6.387255,14.1789136 C6.04020147,15.233151 5.87781744,16.3394075 5.90725545,17.4489141 L5.90725355,17.4089151 Z" id="Path-877"></path>
            </g>
            <g id="50x50-Spacers" transform="translate(0, 0.02)">
                <rect id="Rectangle-292" x="0" y="0" width="50" height="50"></rect>
            </g>
        </g>
    </g>
</svg>