<?xml version="1.0" encoding="UTF-8"?>
<svg width="192px" height="56px" viewBox="0 0 192 56" version="1.1" xmlns="http://www.w3.org/2000/svg" xmlns:xlink="http://www.w3.org/1999/xlink">
    <title>Logos/Vendors/QuestSelect</title>
    <defs>
        <polygon id="path-1" points="0 0 5 0 5 24 0 24"></polygon>
    </defs>
    <g id="Logos/Vendors/QuestSelect" stroke="none" stroke-width="1" fill="none" fill-rule="evenodd">
        <g id="Group-26" transform="translate(3, 15)">
            <path d="M13.1190098,5.38393079 C12.2143235,4.39916384 10.8244543,3.84112923 9.49973516,3.84112923 C8.17554571,3.84112923 6.78567645,4.39916384 5.88099021,5.38393079 C4.2977893,7.05803461 4.23316886,9.94668433 4.23316886,12.0808842 C4.23316886,14.2145459 4.2977893,17.0709082 5.88099021,18.745012 C6.78567645,19.729779 8.17554571,20.2878136 9.49973516,20.2878136 C9.98491818,20.2878136 10.5018817,20.2221624 10.9865351,20.0580346 L8.53042848,16.9396059 L11.0511555,14.9367083 L13.5713529,18.1869774 C14.7022107,16.480048 14.7668311,13.984767 14.7668311,12.0808842 C14.7668311,9.94668433 14.7022107,7.05803461 13.1190098,5.38393079 M16.1238605,21.4695339 L18.127624,24.029928 L15.6392072,26 L13.5067325,23.3083037 C12.2466338,23.8663383 10.8896044,24.1284047 9.49973516,24.1284047 C7.04415823,24.1284047 4.65320175,23.2754781 2.90844972,21.5023595 C0.420032896,18.974791 0,15.8886497 0,12.0808842 C0,8.27258051 0.420032896,5.15415183 2.90844972,2.6260452 C4.65320175,0.853464691 7.04415823,0 9.49973516,0 C11.9558418,0 14.3467982,0.853464691 16.0915503,2.6260452 C18.5799671,5.15415183 19,8.27258051 19,12.0808842 C19,15.8886497 18.5799671,18.9419654 16.1238605,21.4695339" id="Fill-1" fill="#4C7637"></path>
            <path d="M33.47085,23.5853914 L33.1654428,21.4166692 C32.3170895,23.0432108 30.3483534,24 28.1087005,24 C24.3414553,24 22,21.6080271 22,18.0673843 L22,7 L26.2423231,7 L26.2423231,17.1743811 C26.2423231,19.1198524 27.0567423,20.3317853 29.2963952,20.3317853 C30.2804851,20.3317853 30.9591678,19.9809626 31.4681798,19.502568 C32.4862038,18.6095648 32.7582332,17.1105951 32.7582332,15.7710903 L32.7582332,7 L37,7 L37,23.5853914 L33.47085,23.5853914 Z" id="Fill-3" fill="#4C7637"></path>
            <path d="M49.7166366,10.2858687 C49.1455599,9.69251554 48.2721485,9.29694677 47.0628097,9.29694677 C45.7862853,9.29694677 44.7449102,9.82437179 44.1402408,10.6155093 C43.5350207,11.3736828 43.2662787,12.1653607 43.232686,13.2855985 L50.7916045,13.2855985 C50.7580117,12 50.3884915,11.0110781 49.7166366,10.2858687 M54.9576556,16.2858687 L43.2662787,16.2858687 C43.232686,17.6044312 43.7035351,18.8570657 44.5428031,19.6482032 C45.1480232,20.2085923 45.9878418,20.7030532 47.1299952,20.7030532 C48.339334,20.7030532 49.0783744,20.4728452 49.6830439,19.8789516 C50.0525641,19.5168873 50.3548988,19.0553904 50.5228625,18.4285328 L54.5545427,18.4285328 C54.4537645,19.4504188 53.7483168,20.8019454 53.0764619,21.5936233 C51.5983811,23.3077547 49.4143019,24 47.1971807,24 C44.8120957,24 43.0647222,23.1758984 41.6874197,21.8902999 C39.9405969,20.2415563 39,17.8351797 39,15.0332343 C39,12.2966766 39.8398186,9.85733586 41.5194559,8.1761686 C42.829573,6.85760605 44.7113175,6 47.0964024,6 C49.6830439,6 52.0345361,7.02188598 53.4795748,9.16509052 C54.7560992,11.0440422 55.0584339,12.9889219 54.9912484,15.1321265 C54.9912484,15.1321265 54.9576556,15.923264 54.9576556,16.2858687" id="Fill-5" fill="#4C7637"></path>
            <path d="M70.4861627,22.0220968 C69.0732111,23.406629 66.8873534,24 64.4997244,24 C62.2802382,24 60.296152,23.373664 58.8495718,22.0220968 C57.8407145,21.0661102 57,19.6480725 57,18.0333253 L60.9345437,18.0333253 C60.9345437,18.7909811 61.338638,19.6151075 61.8766952,20.0441936 C62.5492668,20.5716344 63.3227241,20.8023898 64.5333529,20.8023898 C65.9457532,20.8023898 68.0979823,20.5057043 68.0979823,18.6261559 C68.0979823,17.6372043 67.4254107,16.9784436 66.3492962,16.8130779 C64.8023816,16.5823226 63.0536955,16.4834274 61.5062296,16.1537769 C59.1186005,15.6593011 57.5044287,13.747328 57.5044287,11.5716344 C57.5044287,9.8239462 58.2442574,8.60423922 59.2867434,7.71418278 C60.5646294,6.62633602 62.4147525,6 64.6006101,6 C66.685582,6 68.8047337,6.65930107 70.0826197,8.01086826 C71.0242199,8.99981986 71.6300856,10.2854569 71.6300856,11.5386694 L67.6271822,11.5386694 C67.6271822,10.8788279 67.3250763,10.3513871 66.920982,9.92284136 C66.4165533,9.42836556 65.5085817,9.13168008 64.6342387,9.13168008 C64.0289243,9.13168008 63.4572384,9.13168008 62.8182954,9.3954005 C62.0784667,9.69208599 61.472601,10.318422 61.472601,11.2084784 C61.472601,12.4287258 62.5492668,12.790801 63.490867,12.9232016 C65.0714102,13.120992 65.5085817,13.153957 67.2241905,13.4176774 C69.981734,13.8462231 72,15.5604059 72,18.2635403 C72,19.9123334 71.3941343,21.1320404 70.4861627,22.0220968" id="Fill-7" fill="#4C7637"></path>
            <path d="M81.4235616,24 C77.9139726,24 76.1758904,21.9995961 76.1758904,18.6665004 L76.1758904,9.86658114 L73,9.86658114 L73,6.4334925 L76.1758904,6.4334925 L76.1758904,2.03325969 L80.3539726,1 L80.3539726,6.4334925 L84.7331507,6.4334925 L84.7331507,9.86658114 L80.3539726,9.86658114 L80.3539726,18.2998598 C80.3539726,19.6330981 80.9556164,20.1997244 82.2926027,20.1997244 C83.1621918,20.1997244 83.8635616,20.1663935 85,20.0330696 L85,23.5333666 C83.8306849,23.8333452 82.6608219,24 81.4235616,24" id="Fill-9" fill="#4C7637"></path>
            <path d="M103.16534,21.7470895 C101.593235,23.282216 99.2678289,24 96.581612,24 C93.9286842,24 91.6354937,23.1516125 90.0961405,21.5185334 C88.9498137,20.310451 88.1642979,18.6779071 88,16.9147598 L89.7691555,16.9147598 C89.9323795,18.2860966 90.5874234,19.5594808 91.4722696,20.4737053 C92.716853,21.7470895 94.6497694,22.3674562 96.581612,22.3674562 C98.5800328,22.3674562 100.577917,21.8450422 101.855789,20.6369597 C102.674057,19.8533387 103.230845,18.7758598 103.230845,17.3065703 C103.230845,15.0857755 101.495515,13.1593737 98.7110416,12.8002141 L94.387215,12.2451492 C91.1119955,11.8206878 88.6877961,9.95958785 88.6877961,6.40010705 C88.6877961,4.47370534 89.5393532,3.10236853 90.7184322,2.02435434 C92.1600657,0.718319283 94.2889584,0 96.4506032,0 C98.940307,0 101.430011,1.01217717 102.739562,2.54676837 C103.722127,3.6900843 104.377708,4.89816673 104.508717,6.56336143 L102.772851,6.56336143 C102.60909,5.38792988 102.248279,4.50635622 101.495515,3.62478255 C100.47966,2.38404924 98.5800328,1.63254382 96.4506032,1.63254382 C94.7802413,1.63254382 93.1753837,2.05700522 92.0290569,3.03653151 C91.1442107,3.82068781 90.4569516,4.89816673 90.4569516,6.40010705 C90.4569516,9.14331594 92.4220833,10.188144 94.5509759,10.449351 L98.940307,11.0044159 C102.543585,11.4615282 105,14.0409474 105,17.3065703 C105,19.3309247 104.2467,20.6696106 103.16534,21.7470895" id="Fill-11" fill="#4C7637"></path>
            <path d="M115.080825,8.51891673 C111.750823,8.51891673 109.648836,11.201259 109.648836,14.4012092 L120.350634,14.4012092 C120.285974,11.3310583 118.379027,8.51891673 115.080825,8.51891673 M121.96767,15.8878085 L109.616506,15.8878085 C109.648836,17.7622164 110.263108,19.5078846 111.297672,20.7359449 C112.202915,21.8024183 113.46379,22.4487659 115.210146,22.4487659 C116.632671,22.4487659 117.861215,21.9316879 118.734658,21.0268013 C119.31607,20.4127711 119.769222,19.701259 119.963203,18.7317377 L121.644369,18.7317377 C121.418058,20.1219147 120.739125,21.2530229 119.833882,22.1255921 C118.669468,23.2890177 117.053492,24 115.210146,24 C112.882377,24 111.233012,23.0304787 110.069127,21.7054662 C108.743593,20.1542321 108,18.0212852 108,15.5646348 C108,13.52864 108.323301,11.5244328 109.584176,9.81161182 C110.942041,7.96952132 112.817187,7 115.080825,7 C119.445391,7 122,10.7488158 122,14.8213351 C122,15.2091436 121.96767,15.5 121.96767,15.8878085" id="Fill-13" fill="#4C7637"></path>
            <g id="Group-17" transform="translate(126, 0)">
                <mask id="mask-2" fill="white">
                    <use xlink:href="#path-1"></use>
                </mask>
                <g id="Clip-16"></g>
                <path d="M3.44845128,24 C1.24180421,24 0,22.9121785 0,20.5052452 L0,-0.000162119441 L1.72394303,-0.000162119441 L1.72394303,20.4393167 C1.72394303,21.5601024 2.06929686,22.4177143 3.517409,22.4177143 C4.20698621,22.4177143 4.51729595,22.4177143 5,22.3517857 L5,23.8022143 C4.62073253,23.9011071 4.17250735,24 3.44845128,24" id="Fill-15" fill="#4C7637" mask="url(#mask-2)"></path>
            </g>
            <path d="M140.080825,8.51891673 C136.750823,8.51891673 134.648836,11.201259 134.648836,14.4012092 L145.350634,14.4012092 C145.285974,11.3310583 143.379027,8.51891673 140.080825,8.51891673 M146.96767,15.8878085 L134.616506,15.8878085 C134.648836,17.7622164 135.263108,19.5078846 136.297672,20.7359449 C137.202915,21.8024183 138.46379,22.4487659 140.210146,22.4487659 C141.632671,22.4487659 142.861215,21.9316879 143.734658,21.0268013 C144.31607,20.4127711 144.769222,19.701259 144.963203,18.7317377 L146.644369,18.7317377 C146.418058,20.1219147 145.739125,21.2530229 144.833882,22.1255921 C143.669468,23.2890177 142.053492,24 140.210146,24 C137.882377,24 136.233012,23.0304787 135.069127,21.7054662 C133.743593,20.1542321 133,18.0212852 133,15.5646348 C133,13.52864 133.323301,11.5244328 134.584176,9.81161182 C135.942041,7.96952132 137.817187,7 140.080825,7 C144.445391,7 147,10.7488158 147,14.8213351 C147,15.2091436 146.96767,15.5 146.96767,15.8878085" id="Fill-18" fill="#4C7637"></path>
            <path d="M157.373757,24 C155.267128,24 153.567677,23.2243829 152.378451,22.0932747 C150.611602,20.4127711 150,18.2469771 150,15.5 C150,12.7530229 150.611602,10.5872289 152.378451,8.90672526 C153.567677,7.77561705 155.267128,7 157.373757,7 C160.908013,7 163.52431,9.19758165 163.931487,12.4616367 L162.165195,12.4616367 C161.791438,10.2317377 159.956632,8.58355148 157.373757,8.58355148 C155.742261,8.58355148 154.48508,9.10062952 153.602212,9.9731987 C152.072651,11.4921154 151.732872,13.3993705 151.732872,15.5 C151.732872,17.6006295 152.072651,19.5402019 153.602212,21.0591187 C154.48508,21.9316879 155.742261,22.4164485 157.373757,22.4164485 C159.990053,22.4164485 161.791438,20.6713101 162.199172,18.4731987 L164,18.4731987 C163.558288,21.6085141 160.941434,24 157.373757,24" id="Fill-20" fill="#4C7637"></path>
            <path d="M173.340023,24 C170.359042,24 169.205317,22.0239521 169.205317,19.1109281 L169.205317,8.56267465 L166,8.56267465 L166,7.02245509 L169.205317,7.02245509 L169.205317,2.40179641 L170.808238,2 L170.808238,7.02245509 L175.775665,7.02245509 L175.775665,8.56267465 L170.808238,8.56267465 L170.808238,19.0439621 C170.808238,21.0194611 171.320479,22.4262974 173.467689,22.4262974 C174.333508,22.4262974 175.134706,22.2923653 176,22.1244012 L176,23.5982036 C175.102133,23.7991018 174.237365,24 173.340023,24" id="Fill-22" fill="#4C7637"></path>
            <path d="M186.175303,7 L186.175303,2.90782285 L184.889195,6.87213763 L184.294928,6.87213763 L183.009372,2.92060909 L183.009372,7 L182.184675,7 L182.184675,2 L183.482359,2 L184.610254,5.60630013 L185.738699,2 L187,2 L187,7 L186.175303,7 Z M180.170893,2.79274672 L180.170893,7 L179.346196,7 L179.346196,2.79274672 L178,2.79274672 L178,2 L181.517641,2 L181.517641,2.79274672 L180.170893,2.79274672 Z" id="Fill-24" fill="#4C7637"></path>
        </g>
    </g>
</svg>