<?xml version="1.0" encoding="UTF-8"?>
<svg width="50px" height="50px" viewBox="0 0 50 50" version="1.1" xmlns="http://www.w3.org/2000/svg" xmlns:xlink="http://www.w3.org/1999/xlink">
    <title>Icon-Enterprise/Primary/Message</title>
    <defs>
        <polygon id="path-1" points="0 0 15.9993002 0 15.9993002 16 0 16"></polygon>
    </defs>
    <g id="Icon-Enterprise/Primary/Message" stroke="none" stroke-width="1" fill="none" fill-rule="evenodd">
        <g id="Icon-Letter-Information">
            <g>
                <g id="Group" transform="translate(0, 0.1637)" fill-rule="nonzero">
                    <g>
                        <rect id="Rectangle" fill="#5DC1FD" x="0" y="17.2062606" width="46.76" height="32.61" rx="5.15"></rect>
                        <g transform="translate(3.56, 0)">
                            <path d="M0.75,18.4562606 L0.75,41.7462606 C0.75549333,43.7101144 2.3461462,45.3007673 4.31,45.3062606 L42.1,45.3062606 C44.0661337,45.3062606 45.66,43.7123943 45.66,41.7462606 L45.66,18.4562606 C45.5105604,17.944124 45.1891821,17.4991387 44.75,17.1962606 L24.12,1.04626059 C23.5750896,0.647739937 22.8349104,0.647739937 22.29,1.04626059 L1.67,17.1962606 C1.22530768,17.4956314 0.899735176,17.9415242 0.75,18.4562606 Z" id="Path" fill="#FFFFFF"></path>
                            <path d="M42.1,46.056307 L4.31,46.056307 C1.93193398,46.0507622 0.00549844057,44.1243266 0,41.7462606 L0,18.4562606 C0.150641724,17.7096169 0.579650212,17.0482288 1.2,16.6062606 L21.83,0.456260593 C22.6457339,-0.152086864 23.7642661,-0.152086864 24.58,0.456260593 L45.21,16.6062606 C45.8416348,17.0428045 46.2818484,17.7049143 46.44,18.4562606 L46.44,41.7462606 C46.4373561,42.8937355 45.9782987,43.9930136 45.1641001,44.8015841 C44.3499015,45.6101547 43.2474657,46.061576 42.1,46.056307 Z M1.5,18.5062606 L1.5,41.7462606 C1.5,42.4915189 1.79605272,43.2062534 2.32302994,43.7332306 C2.85000717,44.2602079 3.56474166,44.5562606 4.31,44.5562606 L42.1,44.5562606 C43.6519201,44.5562606 44.91,43.2981807 44.91,41.7462606 L44.91,18.4562606 C44.7319991,18.2048639 44.5199776,17.9793807 44.28,17.7862606 L23.66,1.63626059 C23.3868033,1.45691729 23.0331967,1.45691729 22.76,1.63626059 L2.13,17.8362606 C1.87990748,18.0181843 1.66620384,18.2454565 1.5,18.5062606 Z" id="Shape" fill="#161616"></path>
                        </g>
                        <g transform="translate(8.7, 6.2563)" id="Path">
                            <polyline fill="#FFFFFF" points="0.75 18.52 0.75 0.75 35.34 0.75 35.34 18.52"></polyline>
                            <polygon fill="#161616" points="36.09 18.52 34.59 18.52 34.59 1.5 1.5 1.5 1.5 18.52 0 18.52 0 0 36.09 0"></polygon>
                        </g>
                        <g transform="translate(15.89, 15.4063)" fill="#5DC1FD" id="Path">
                            <path d="M20.96,5.73 L0.75,5.73 C0.335786438,5.73 0,5.39421356 0,4.98 C0,4.56578644 0.335786438,4.23 0.75,4.23 L20.96,4.23 C21.3742136,4.23 21.71,4.56578644 21.71,4.98 C21.71,5.39421356 21.3742136,5.73 20.96,5.73 L20.96,5.73 Z"></path>
                            <path d="M20.96,9.97 L0.75,9.97 C0.335786438,9.97 0,9.63421356 0,9.22 C0,8.80578644 0.335786438,8.47 0.75,8.47 L20.96,8.47 C21.3742136,8.47 21.71,8.80578644 21.71,9.22 C21.71,9.63421356 21.3742136,9.97 20.96,9.97 L20.96,9.97 Z"></path>
                            <path d="M20.96,1.5 L0.75,1.5 C0.335786438,1.5 0,1.16421356 0,0.75 C0,0.335786438 0.335786438,0 0.75,0 L20.96,0 C21.3742136,0 21.71,0.335786438 21.71,0.75 C21.71,1.16421356 21.3742136,1.5 20.96,1.5 Z"></path>
                        </g>
                        <g transform="translate(3.5781, 19.0006)" fill="#161616">
                            <rect id="Rectangle" transform="translate(7.6567, 7.101) rotate(-47.52) translate(-7.6567, -7.101)" x="6.90668928" y="-2.59398364" width="1.5" height="19.39"></rect>
                            <rect id="Rectangle" transform="translate(38.7107, 7.1118) rotate(-42.49) translate(-38.7107, -7.1118)" x="29.0007385" y="6.36177777" width="19.42" height="1.5"></rect>
                            <path d="M44.3519198,26.3056725 L32.2819198,14.7456725 C31.8630467,14.3965288 31.3456716,14.1867821 30.8019198,14.1456725 L15.5719198,14.1456725 C15.028168,14.1867821 14.5107929,14.3965288 14.0919198,14.7456725 L2.02191982,26.3056725 L1.02191982,25.2256725 L13.0519198,13.6656725 C13.7537973,13.0555287 14.6426575,12.7028064 15.5719198,12.6656725 L30.8019198,12.6656725 C31.7315193,12.7012122 32.62089,13.0541371 33.3219198,13.6656725 L45.4219198,25.2256725 L44.3519198,26.3056725 Z" id="Path"></path>
                        </g>
                    </g>
                </g>
                <g id="_50x50_Spacers">
                    <rect id="Rectangle" x="0" y="0" width="50" height="50"></rect>
                </g>
            </g>
            <g id="Group-3" transform="translate(34, 1)">
                <mask id="mask-2" fill="white">
                    <use xlink:href="#path-1"></use>
                </mask>
                <g id="Clip-2"></g>
                <path d="M7.9983,15.9999998 C12.4163,16.001 15.9993,12.42 15.9993,8.002 C16.0003,3.583 12.4203,0.001 8.0013,-2.093877e-07 C3.5833,-0.001 0.0003,3.58 -0.0007,7.998 C-0.0007,12.417 3.5803,15.999 7.9983,15.9999998" id="Fill-1" fill-opacity="0" fill="#5DC1FD" mask="url(#mask-2)"></path>
            </g>
        </g>
    </g>
</svg>