<?xml version="1.0" encoding="UTF-8"?>
<svg width="24px" height="24px" viewBox="0 0 24 24" version="1.1" xmlns="http://www.w3.org/2000/svg" xmlns:xlink="http://www.w3.org/1999/xlink">
    <title>Icon-App/Function/Reload</title>
    <defs>
        <path d="M20.303,13.426 C19.777,13.259 19.215,13.55 19.047,14.076 C18.11,17.022 15.352,19 12.184,19 C8.222,19 5,15.86 5,12 C5,8.141 8.222,5 12.184,5 C13.912,5 15.542,5.602 16.829,6.67 L14.663,6.313 C14.113,6.213 13.603,6.592 13.513,7.136 C13.423,7.681 13.792,8.196 14.337,8.285 L18.583,8.987 C18.638,8.996 18.694,9 18.747,9 C18.866,9 18.982,8.979 19.09,8.939 C19.127,8.925 19.157,8.899 19.193,8.88 C19.259,8.846 19.328,8.816 19.385,8.768 C19.421,8.739 19.444,8.697 19.475,8.663 C19.522,8.614 19.572,8.567 19.607,8.507 C19.632,8.464 19.642,8.413 19.661,8.365 C19.685,8.306 19.717,8.251 19.729,8.186 L20.483,4.186 C20.585,3.643 20.228,3.119 19.685,3.018 C19.144,2.92 18.619,3.273 18.517,3.815 L18.245,5.256 C16.581,3.815 14.448,3 12.184,3 C7.12,3 3,7.037 3,12 C3,16.963 7.12,21 12.184,21 C16.226,21 19.75,18.461 20.953,14.682 C21.12,14.156 20.829,13.594 20.303,13.426" id="path-1"></path>
    </defs>
    <g id="Icon-App/Function/Reload" stroke="none" stroke-width="1" fill="none" fill-rule="evenodd">
        <mask id="mask-2" fill="white">
            <use xlink:href="#path-1"></use>
        </mask>
        <use id="🎨-Icon-Сolor" fill="#005EB9" xlink:href="#path-1"></use>
    </g>
</svg>