<?xml version="1.0" encoding="UTF-8"?>
<svg width="50px" height="50px" viewBox="0 0 50 50" version="1.1" xmlns="http://www.w3.org/2000/svg" xmlns:xlink="http://www.w3.org/1999/xlink">
    <title>D321A039-D3AB-41DA-BFB1-693DE0126D68</title>
    <g id="Icon-Enterprise/Primary/Search-Care" stroke="none" stroke-width="1" fill="none" fill-rule="evenodd">
        <g id="Search-Care">
            <rect id="Rectangle" x="0" y="0" width="50" height="50"></rect>
            <path d="M46.4880193,45.4306707 L36.7332502,35.6858758 C42.7035184,26.9406665 40.8729597,15.0645284 32.5464302,8.52299234 C24.2199008,1.98145625 12.2479556,3.01399171 5.16441861,10.8845884 C-1.91911837,18.755185 -1.68922569,30.7693745 5.6902249,38.3632205 C13.0696755,45.9570665 25.0723576,46.5308451 33.1425376,39.6755564 L42.6778743,49.2108932 C43.7300168,50.2630356 45.4358768,50.2630356 46.4880193,49.2108931 C47.5401618,48.1587506 47.5401618,46.4528906 46.4880193,45.4007481 L46.4880193,45.4306707 Z" id="Path" fill="#5DC1FD" fill-rule="nonzero"></path>
            <path d="M48.4230145,43.2581124 L38.3889676,33.2240656 C44.9437414,24.9738972 43.9849001,13.0557404 36.1954822,5.95959306 C28.4060643,-1.13655428 16.4503788,-0.983510956 8.84515744,6.30970134 C1.23993606,13.6029136 0.58648476,25.5417092 7.35029499,33.621388 C14.1141052,41.7010667 25.9816691,43.1580384 34.499029,36.954417 L44.6128694,47.0682574 C45.6650119,48.1203999 47.370872,48.1203999 48.4230145,47.0682574 C49.4751569,46.0161149 49.4751569,44.3102549 48.4230145,43.2581124 L48.4230145,43.2581124 Z" id="Path" fill="#FFFFFF" fill-rule="nonzero"></path>
            <path d="M46.5179419,48.6043176 C45.6064233,48.6082845 44.7307765,48.2494128 44.0842368,47.6068643 L34.4092612,37.9019661 C30.9745076,40.2679528 26.9002451,41.5309394 22.7294711,41.5226013 C14.3325114,41.5225975 6.76274734,36.4633229 3.55123673,28.7047707 C0.33972611,20.9462186 2.11920748,12.016995 8.05960851,6.08230317 C14.0000095,0.147611321 22.93094,-1.62328344 30.6864006,1.59568584 C38.4418612,4.81465511 43.4938548,12.3892804 43.4857847,20.7862362 C43.4987515,25.2477642 42.059874,29.592404 39.3863878,33.1642204 L48.9915439,42.7294797 C49.976097,43.713644 50.270691,45.194062 49.7379073,46.4801668 C49.2051236,47.7662717 47.9499321,48.6043176 46.5578388,48.6043176 L46.5179419,48.6043176 Z M34.5489,35.966971 L45.1215537,46.5396247 C45.8921571,47.274233 47.10383,47.274233 47.8744334,46.5396247 C48.6090416,45.7690213 48.6090416,44.5573485 47.8744334,43.7867451 L37.3915475,33.2839108 L37.8004897,32.7652523 C40.5220045,29.3706232 42.0002458,25.1470766 41.9896544,20.7962104 C41.9936891,13.005287 37.303655,5.97926469 30.106938,2.99501132 C22.910221,0.0107579468 14.6244374,1.6561146 9.11399522,7.16370307 C3.60355308,12.6712915 1.95390461,20.9562218 4.93442968,28.1544836 C7.91495474,35.3527455 14.9385467,40.0464184 22.7294711,40.0464195 C26.7945062,40.0488836 30.7539764,38.752358 34.0302415,36.3459907 L34.5489,35.966971 Z" id="Shape" fill="#161616" fill-rule="nonzero"></path>
            <path d="M22.7294711,36.7649072 C13.915712,36.7649072 6.7707485,29.6199437 6.7707485,20.8061846 C6.7707485,11.9924255 13.915712,4.84746199 22.7294711,4.84746199 C31.5432302,4.84746199 38.6881937,11.9924255 38.6881937,20.8061846 C38.6881937,25.038701 37.0068331,29.0978645 34.0139921,32.0907055 C31.021151,35.0835466 26.9619875,36.7649072 22.7294711,36.7649072 Z M22.7294711,6.31366617 C16.8700168,6.30963557 11.5854659,9.83671398 9.34128596,15.249373 C7.09710599,20.662032 8.33553669,26.8936489 12.4787975,31.0369097 C16.6220584,35.1801706 22.8536753,36.4186013 28.2663343,34.1744213 C33.6789933,31.9302413 37.2060717,26.6456905 37.2020411,20.7862362 C37.1910494,12.7978143 30.717893,6.32465784 22.7294711,6.31366617 Z" id="Shape" fill="#161616" fill-rule="nonzero"></path>
            <path d="M22.8790841,17.7640531 C22.9389293,17.7640531 25.3028151,13.5250174 28.3948176,15.2605285 C31.2673877,16.8763491 32.1451174,21.2450494 22.8790841,28.1571712 L22.8790841,28.1571712 C13.6130508,21.2450494 14.4907806,16.8763491 17.3733248,15.2605285 C20.4553531,13.5250174 22.8192389,17.7241563 22.8790841,17.7640531 Z" id="Path" fill="#5DC1FD" fill-rule="nonzero"></path>
        </g>
    </g>
</svg>