<?xml version="1.0" encoding="UTF-8"?>
<svg width="24px" height="24px" viewBox="0 0 24 24" version="1.1" xmlns="http://www.w3.org/2000/svg" xmlns:xlink="http://www.w3.org/1999/xlink">
    <title>Icon-App/Function/Search</title>
    <defs>
        <path d="M5,11 C5,7.691 7.691,5 11,5 C14.309,5 17,7.691 17,11 C17,14.309 14.309,17 11,17 C7.691,17 5,14.309 5,11 M20.707,19.293 L17.312,15.897 C18.365,14.543 19,12.846 19,11 C19,6.589 15.411,3 11,3 C6.589,3 3,6.589 3,11 C3,15.411 6.589,19 11,19 C12.846,19 14.543,18.365 15.897,17.312 L19.293,20.707 C19.488,20.902 19.744,21 20,21 C20.256,21 20.512,20.902 20.707,20.707 C21.098,20.316 21.098,19.684 20.707,19.293" id="path-1"></path>
    </defs>
    <g id="Icon-App/Function/Search" stroke="none" stroke-width="1" fill="none" fill-rule="evenodd">
        <g id="24x24-Spacers">
            <rect id="Rectangle" x="0" y="0" width="24" height="24"></rect>
        </g>
        <mask id="mask-2" fill="white">
            <use xlink:href="#path-1"></use>
        </mask>
        <use id="🎨-Icon-Сolor" fill="#005EB9" xlink:href="#path-1"></use>
    </g>
</svg>