<?xml version="1.0" encoding="UTF-8"?>
<svg width="50px" height="50px" viewBox="0 0 50 50" version="1.1" xmlns="http://www.w3.org/2000/svg" xmlns:xlink="http://www.w3.org/1999/xlink">
    <title>Icon-Enterprise/Primary/Key</title>
    <g id="Icon-Enterprise/Primary/Key" stroke="none" stroke-width="1" fill="none" fill-rule="evenodd">
        <g id="Icon-Key">
            <g id="Group">
                <g id="Fill-2" transform="translate(0, 3.5765)" fill="#5DC1FD">
                    <path d="M12.6643776,18.7423788 C9.37833482,18.7478916 6.71050644,16.087527 6.70681961,12.8014804 C6.70313994,9.51543571 9.36499743,6.8490978 12.651045,6.84725319 C15.9370935,6.8454124 18.6019517,9.50876273 18.6019517,12.7948112 C18.6045953,14.3712829 17.980206,15.8840944 16.8664086,16.9997659 C15.7526102,18.1154394 14.2408502,18.7423788 12.6643766,18.7423788 M45.1310677,36.185219 L30.9968621,22.2909148 C33.7182464,15.7348025 31.8287507,8.17008665 26.3441901,3.66363121 C20.8596314,-0.842823282 13.0720951,-1.22935879 7.1682365,2.71183287 C1.26437891,6.65302262 -1.36493157,13.9934471 0.693846324,20.786824 C2.75262041,27.5801991 9.01446744,32.2261028 16.1129542,32.2268425 C18.1108974,32.2232506 20.0906347,31.8469628 21.9505729,31.1172967 L25.2991988,34.6558472 L30.2971501,34.6558472 L30.227179,39.4538796 L35.0252134,39.4538796 C34.9385816,40.1735858 34.8752746,40.983254 34.8352926,41.8828843 C34.57897,42.9552939 34.9691146,44.0789102 35.8348829,44.7617014 C36.9144422,45.7612955 37.6741291,46.2910771 38.4438141,46.2910771 C39.213499,46.2910771 42.3422176,46.3510539 44.1314813,46.2910771 C45.9207449,46.2311003 46.4305381,45.0715758 46.4305381,44.4318386 C46.4305381,43.7921015 46.4305381,40.5334351 46.4305381,38.994069 C46.3234653,37.9223648 45.8337292,36.9251539 45.0511025,36.185219" id="Path-631"></path>
                </g>
                <g id="Stroke-6" transform="translate(2.0192, 0)" fill-rule="nonzero">
                    <path d="M13.3743312,19.4300773 C10.0949319,19.4025141 7.45669487,16.7255928 7.47675333,13.4461391 C7.49704164,10.1666864 10.1680116,7.52242462 13.4475024,7.535162 C16.7269942,7.54799264 19.3772674,10.2129979 19.37188,13.4925097 C19.37188,15.0779995 18.7380031,16.5973704 17.6114316,17.7125635 C16.4851347,18.8276002 14.9594368,19.4460887 13.3743303,19.4300754 L13.3743312,19.4300773 Z M45.8410214,36.8829223 L31.7068157,22.9486355 C34.6491102,15.8645347 32.1965366,7.68823686 25.8409265,3.39315012 C19.4853164,-0.901937576 10.9842558,-0.128044827 5.50869615,5.24408741 C0.0331364564,10.6162196 -0.902703916,19.1009809 3.27042068,25.5373303 C7.44354337,31.9736797 15.5715898,34.5817034 22.7105034,31.7750193 L26.0291447,35.3435562 L31.0270941,35.3435562 L30.9271366,40.1415886 L35.7151748,40.1415886 C35.6285429,40.8679577 35.565236,41.6776259 35.525254,42.5705933 C35.271509,43.6428695 35.661177,44.7651245 36.5248443,45.4494105 C37.6143978,46.4490045 38.3740847,46.9787861 39.1337755,46.9787861 C39.8934662,46.9787861 43.032179,47.0387629 44.8214426,46.9787861 C46.6107063,46.9188094 47.1304975,45.7592848 47.1304975,45.1295457 C47.1304975,44.4998066 47.1304975,41.2211479 47.1304975,39.6917761 C47.0519698,38.6310079 46.594245,37.6339496 45.8410214,36.8829185 L45.8410214,36.8829223 Z" id="Path-632" fill="#FFFFFF"></path>
                    <path d="M42.7829614,47.7587101 L40.1240515,47.7587101 L39.1944322,47.7587101 C38.124871,47.7587101 37.1952517,47.0989807 36.0757117,46.0294194 C35.0348252,45.2033153 34.5445286,43.863685 34.8062316,42.56084 C34.8062316,41.9310971 34.8762026,41.3613309 34.9161871,40.9215126 L30.1981199,40.9215126 L30.2580967,36.1234801 L25.7099599,36.1234801 L22.4812838,32.7148775 C15.0296817,35.3617989 6.74004327,32.4684346 2.55393018,25.7595605 C-1.63218385,19.0506883 -0.587457527,10.3329932 5.06533283,4.8032107 C10.7181203,-0.726572711 19.4566886,-1.57928104 26.0718549,2.75339844 C32.6870251,7.08607791 35.397336,15.4373576 32.58714,22.8289305 L46.3614925,36.3433912 C47.3029477,37.2164121 47.8810952,38.4119593 47.9808277,39.692017 C47.9808277,40.6216363 47.9808277,42.1909927 47.9808277,43.4304863 C47.9808277,44.2201635 47.9808277,44.8798929 47.9808277,45.1297905 C47.8532402,46.6668954 46.5216899,47.8209023 44.9820531,47.7287198 C44.3123333,47.7487159 43.5526464,47.7587101 42.7829614,47.7587101 Z M31.7174976,39.3921407 L36.585501,39.3921407 L36.4955378,40.2317967 C36.4089059,40.9515029 36.345599,41.7445115 36.305617,42.6108226 C36.245644,43.9102891 36.235646,44.0902157 37.1052884,44.8998852 C37.9749309,45.7095546 38.7046313,46.229342 39.1944322,46.229342 L40.1440437,46.229342 C41.4035258,46.229342 43.5226599,46.229342 44.862111,46.229342 C46.2015621,46.229342 46.4414654,45.3996803 46.4414654,45.1297943 C46.4414654,44.8599083 46.4414654,44.2201673 46.4414654,43.4204959 C46.4414654,42.1810023 46.4414654,40.6216439 46.4414654,39.6920247 C46.3365508,38.8291963 45.9334835,38.0301311 45.3019331,37.4329524 L45.3019331,37.4329524 L30.8178648,23.1587933 L31.0177836,22.6889865 C33.6067835,16.4410593 31.8026677,9.23486484 26.5751696,4.94384862 C21.3476752,0.652832406 13.9280567,0.287675234 8.30447691,4.04465438 C2.68089707,7.80163257 0.177901427,14.7958511 2.14089053,21.2678085 C4.10387773,27.7397631 10.0704986,32.1650922 16.8336012,32.1651036 C18.743011,32.1667051 20.6355,31.807199 22.4113128,31.1055347 L22.9310983,30.9456023 L26.4096719,34.6140967 L31.8274531,34.6140967 L31.7174976,39.3921407 Z M13.375015,20.1800167 C9.67493164,20.1800167 6.67593018,17.1795224 6.67776917,13.4794304 C6.67961271,9.77933275 9.68159891,6.78182603 13.381689,6.78550565 C17.0817809,6.789193 20.0777948,9.79267014 20.0722791,13.4927583 C20.0667558,17.1876462 17.0699068,20.1800167 13.375015,20.1800167 L13.375015,20.1800167 Z M13.375015,8.29488627 C10.5043103,8.29488627 8.17714492,10.6220516 8.17714492,13.4927554 C8.17714492,16.3634602 10.5043103,18.6906236 13.3750141,18.6906236 C16.2457188,18.6906236 18.5728842,16.3634602 18.5728842,13.4927554 C18.5728842,10.6220516 16.2457169,8.29488627 13.3750141,8.29488627 L13.375015,8.29488627 Z" id="Path-633" fill="#161616"></path>
                </g>
                <g id="Stroke-8" transform="translate(31.1362, 25.9963)" fill="#161616" fill-rule="nonzero">
                    <path d="M13.0859526,13.8356472 C12.8862817,13.8401505 12.6939548,13.7603187 12.556171,13.6157361 L0.201234821,1.26080183 C-0.0740353383,0.965415483 -0.0659248018,0.505084388 0.219581716,0.219579776 C0.505086328,-0.0659248355 0.965417424,-0.074035372 1.26080187,0.201236694 L13.615738,12.5561729 C13.908072,12.8488691 13.908072,13.3230399 13.615738,13.6157399 C13.4759104,13.7573178 13.2849372,13.836589 13.0859526,13.8356472 Z" id="Path-634"></path>
                </g>
            </g>
            <g id="50x50-Spacers" fill-rule="nonzero">
                <rect id="Rectangle-227" x="0" y="0" width="50" height="50"></rect>
            </g>
        </g>
    </g>
</svg>