<?xml version="1.0" encoding="UTF-8"?>
<svg width="50px" height="50px" viewBox="0 0 50 50" version="1.1" xmlns="http://www.w3.org/2000/svg" xmlns:xlink="http://www.w3.org/1999/xlink">
    <title>Icon-Enterprise/Primary/To-Do-Checklist</title>
    <defs>
        <polygon id="path-1" points="0 0 19.9998753 0 19.9998753 20 0 20"></polygon>
    </defs>
    <g id="Icon-Enterprise/Primary/To-Do-Checklist" stroke="none" stroke-width="1" fill="none" fill-rule="evenodd">
        <g id="Icon-To-Do-Alert" transform="translate(0, -0)">
            <g fill-rule="nonzero">
                <g id="Group-572" transform="translate(5.92, 0)">
                    <rect id="Rectangle-301" fill="#5DC1FD" x="0" y="8.82299969" width="34.4900017" height="41.1500015" rx="2.53999996"></rect>
                    <g id="Group-570" transform="translate(2.96, 4.943)">
                        <rect id="Rectangle-302" fill="#FFFFFF" x="0.750000114" y="0.750000057" width="34.4900017" height="40.6399994" rx="2.52999997"></rect>
                        <path d="M32.7100163,42.1400018 L3.27001576,42.1400018 C2.40100675,42.1400018 1.56775193,41.7941079 0.954222727,41.1786981 C0.340701151,40.5632997 -0.00264163036,39.728991 0,38.8599992 L0,3.26999998 C0,1.46402884 1.46404462,0 3.27001672,0 L32.7100163,0 C34.5176259,0 35.9845143,1.46242809 35.9900151,3.27001524 L35.9900151,38.8599992 C35.9900151,40.6714921 34.5215092,42.1400018 32.7100163,42.1400018 L32.7100163,42.1400018 Z M3.27001576,1.5 C2.29247193,1.5 1.50001531,2.29245615 1.50001531,3.26999998 L1.50001531,38.8599992 C1.50001531,39.8391938 2.29088216,40.6345086 3.27003961,40.639998 L32.7100163,40.639998 C33.693079,40.639998 34.4900151,39.8430657 34.4900151,38.8599992 L34.4900151,3.26999998 C34.4845105,2.2908411 33.6891881,1.5 32.7100125,1.5 L3.27001576,1.5 Z" id="Path-923" fill="#161616"></path>
                    </g>
                    <g id="Group-571" transform="translate(11.27, 0)">
                        <path d="M13.6700001,3.27342498 C13.2261028,1.69773781 11.7440243,0.644461273 10.1099987,0.743425725 C8.47850227,0.645455001 6.9998188,1.69927657 6.55999947,3.2734245 L0.75,3.27342498 L0.75,8.42342508 L19.4799976,8.42342508 L19.4799976,3.27342498 L13.6700001,3.27342498 Z" id="Path-924" fill="#FFFFFF"></path>
                        <path d="M19.4800661,9.17311911 L0.750068508,9.17311911 C0.335857235,9.17311911 0,8.83733229 0,8.42311911 L0,3.27311901 C-0.00264755633,3.07338623 0.0754965172,2.88103775 0.216741405,2.73979191 C0.357988201,2.59854607 0.550336681,2.52040152 0.750068508,2.52311901 L6.00006851,2.52311901 C6.73881897,0.933193007 8.35801872,-0.059601268 10.1100691,0.00311903073 C11.8658999,-0.0632872193 13.4885271,0.935556689 14.2200659,2.53311948 L19.4800661,2.533119 C19.8942812,2.53311924 20.2300661,2.86890558 20.2300661,3.28311924 L20.2300661,8.42311911 C20.2246798,8.83508066 19.8920267,9.16773275 19.4800661,9.17311911 Z M1.48006614,7.67311911 L18.7300661,7.67311911 L18.7300661,4.00311903 L13.6700686,4.00311903 C13.3131026,4.00172333 13.0052183,3.75208572 12.9300707,3.40311889 C12.5418166,2.19320849 11.3776682,1.40472511 10.1100672,1.49311833 C8.83896049,1.41458134 7.67703422,2.20980124 7.29006942,3.42311911 C7.21575149,3.76847056 6.9132727,4.01708178 6.56006797,4.02311901 L1.50006851,4.02311901 L1.48006614,7.67311911 Z" id="Path-925" fill="#161616"></path>
                    </g>
                </g>
                <g id="50x50-Spacers" transform="translate(0, 0.003)">
                    <rect id="Rectangle-304" x="0" y="0" width="50" height="50"></rect>
                </g>
            </g>
            <g id="Group-6" transform="translate(17.0001, 16)">
                <g id="Group-3">
                    <mask id="mask-2" fill="white">
                        <use xlink:href="#path-1"></use>
                    </mask>
                    <g id="Clip-2"></g>
                    <path d="M9.99750026,19.9999997 C15.5200003,20.00125 19.9987503,15.525 20,10.0025 C20.0012503,4.47875 15.5250003,0.00125 10.0012503,-2.61734669e-07 C4.47875026,-0.00125 0.00125026173,4.475 0,9.9975 C-0.00124973827,15.52125 4.47500026,19.99875 9.99750026,19.9999997" id="Fill-1" fill="#5DC1FD" mask="url(#mask-2)"></path>
                </g>
                <path d="M8.72237526,13.52725 L5.50862526,10.9385 C5.09487526,10.60475 5.02862526,9.99975 5.36237526,9.586 C5.69612526,9.171 6.30362526,9.106 6.71487526,9.43975 L9.18737526,11.42975 L13.1436253,6.61225 C13.4811253,6.201 14.0873753,6.141 14.4986253,6.4785 C14.9086253,6.816 14.9686253,7.42225 14.6323753,7.8335 L10.0698753,13.3885 C9.87862526,13.61975 9.60362526,13.73975 9.32487526,13.73975 C9.11362526,13.73975 8.89987526,13.66975 8.72237526,13.52725 Z" id="Fill-4" fill="#FFFFFF"></path>
            </g>
        </g>
    </g>
</svg>