<?xml version="1.0" encoding="UTF-8"?>
<svg width="50px" height="50px" viewBox="0 0 50 50" version="1.1" xmlns="http://www.w3.org/2000/svg" xmlns:xlink="http://www.w3.org/1999/xlink">
    <title>Icon-Enterprise/Primary/Enrollment-Confirmed</title>
    <defs>
        <polygon id="path-1" points="0 0 15.9999002 0 15.9999002 16 0 16"></polygon>
    </defs>
    <g id="Icon-Enterprise/Primary/Enrollment-Confirmed" stroke="none" stroke-width="1" fill="none" fill-rule="evenodd">
        <g id="Icon-Enrollment-Info">
            <g id="Group" transform="translate(0.02, 11)" fill-rule="nonzero">
                <g>
                    <rect id="Rectangle" fill="#5DC1FD" x="0" y="4.36" width="42.25" height="29.21" rx="1.64"></rect>
                    <g transform="translate(2.7095, 0)">
                        <g>
                            <rect id="Rectangle" fill="#FFFFFF" x="0.750526209" y="0.73" width="42.25" height="29.21" rx="0.91"></rect>
                            <path d="M42.0905262,30.69 L1.65052621,30.69 C1.20675589,30.6873993 0.782503149,30.5072188 0.472485053,30.1896852 C0.162466958,29.8721515 -0.0075014951,29.4437053 0.00025423261,29 L0.00025423261,1.63 C0.0114779175,0.726550226 0.747010061,0 1.65052621,0 L42.0905262,0 C43.001796,0 43.7407982,0.738730163 43.7407982,1.65 L43.7407982,29 C43.7485539,29.4437053 43.5785855,29.8721515 43.2685674,30.1896852 C42.9585493,30.5072188 42.5342965,30.6873993 42.0905262,30.69 L42.0905262,30.69 Z M1.65052621,1.48 C1.5676835,1.48 1.5005259,1.54715729 1.5005259,1.63 L1.5005259,29 C1.5005259,29.0846032 1.56608825,29.1547125 1.65052621,29.16 L42.0905262,29.16 C42.1363041,29.1657689 42.1823439,29.1514948 42.2168293,29.120841 C42.2513148,29.0901873 42.2705311,29.0461385 42.2705311,29 L42.2705311,1.63 C42.2705311,1.54715729 42.2033689,1.48 42.1205262,1.48 L1.65052621,1.48 Z" id="Shape" fill="#161616"></path>
                        </g>
                        <g transform="translate(23.0605, 17.02)" fill="#161616" id="Path">
                            <path d="M13.62,1.5 L0.75,1.5 C0.335786438,1.5 0,1.16421356 0,0.75 C0,0.335786438 0.335786438,0 0.75,0 L13.62,0 C14.0342136,0 14.37,0.335786438 14.37,0.75 C14.37,1.16421356 14.0342136,1.5 13.62,1.5 Z"></path>
                            <path d="M13.62,6.5 L0.75,6.5 C0.335786438,6.5 0,6.16421356 0,5.75 C0,5.33578644 0.335786438,5 0.75,5 L13.62,5 C14.0342136,5 14.37,5.33578644 14.37,5.75 C14.37,6.16421356 14.0342136,6.5 13.62,6.5 Z"></path>
                        </g>
                        <g id="Stroke-7" transform="translate(8.6405, 5.75)" fill="#161616">
                            <path d="M4.19,8.38 C1.8759269,8.38 0,6.5040731 0,4.19 C0,1.8759269 1.8759269,0 4.19,0 C6.5040731,0 8.38,1.8759269 8.38,4.19 C8.37450225,6.50179203 6.50179203,8.37450225 4.19,8.38 L4.19,8.38 Z M4.19,1.49998125 C2.70435402,1.49998125 1.5,2.70435402 1.5,4.19 C1.5,5.67564598 2.70435402,6.88 4.19,6.88 C5.67564598,6.88 6.88001875,5.67564598 6.88001875,4.19 C6.88267011,3.47575243 6.60011773,2.78998793 6.0950649,2.2849351 C5.59001207,1.77988227 4.90424757,1.49732989 4.19,1.49998125 L4.19,1.49998125 Z" id="Shape"></path>
                        </g>
                        <g id="Stroke-9" transform="translate(6.4805, 15.39)" fill="#161616">
                            <path d="M11.94,8.07 C11.5280379,8.06461419 11.1953858,7.73196206 11.19,7.32 L11.19,5.2 C11.19,3.2 9.02,1.5 6.35,1.5 C3.68,1.5 1.5,3.16 1.5,5.2 L1.5,7.32 C1.5,7.73421356 1.16421356,8.07 0.75,8.07 C0.335786438,8.07 0,7.73421356 0,7.32 L0,5.2 C0,2.33 2.85,0 6.35,0 C9.85,0 12.69,2.33 12.69,5.2 L12.69,7.32 C12.69,7.73421356 12.3542136,8.07 11.94,8.07 Z" id="Path"></path>
                        </g>
                    </g>
                </g>
            </g>
            <g id="_50x50_Spacers">
                <rect id="Rectangle" x="0" y="0" width="50" height="50"></rect>
            </g>
        </g>
        <g id="Group-6" transform="translate(34.0001, 4.0632)">
            <g id="Group-3">
                <mask id="mask-2" fill="white">
                    <use xlink:href="#path-1"></use>
                </mask>
                <g id="Clip-2"></g>
                <path d="M7.99800021,15.9999998 C12.4160002,16.001 15.9990002,12.42 16,8.002 C16.0010002,3.583 12.4200002,0.001 8.00100021,-2.09387736e-07 C3.58300021,-0.001 0.00100020939,3.58 0,7.998 C-0.000999790612,12.417 3.58000021,15.999 7.99800021,15.9999998" id="Fill-1" fill="#5DC1FD" mask="url(#mask-2)"></path>
            </g>
            <path d="M6.97790021,10.8218 L4.40690021,8.7508 C4.07590021,8.4838 4.02290021,7.9998 4.28990021,7.6688 C4.55690021,7.3368 5.04290021,7.2848 5.37190021,7.5518 L7.34990021,9.1438 L10.5149002,5.2898 C10.7849002,4.9608 11.2699002,4.9128 11.5989002,5.1828 C11.9269002,5.4528 11.9749002,5.9378 11.7059002,6.2668 L8.05590021,10.7108 C7.90290021,10.8958 7.68290021,10.9918 7.45990021,10.9918 C7.29090021,10.9918 7.11990021,10.9358 6.97790021,10.8218 Z" id="Fill-4" fill="#FFFFFF"></path>
        </g>
    </g>
</svg>