<?xml version="1.0" encoding="UTF-8"?>
<svg width="40px" height="40px" viewBox="0 0 50 50" version="1.1" xmlns="http://www.w3.org/2000/svg" xmlns:xlink="http://www.w3.org/1999/xlink">
    <title>Icon-Enterprise/Primary/Shopping-Credit</title>
    <g id="Icon-Enterprise/Primary/Shopping-Credit" stroke="none" stroke-width="1" fill="none" fill-rule="evenodd">
        <g id="Icon-Shopping-Credit" transform="translate(0, -0)">
            <g id="Group" transform="translate(0.0015, 0.0676)">
                <path d="M7.23852831,8.26242671 L2.63852831,8.26242671 C1.84805408,8.31993558 1.07829118,7.99307166 0.570709448,7.38437013 C0.0631277121,6.77566859 -0.120090841,5.95969929 0.0785283051,5.19242671 C0.354812788,4.0904649 1.37420008,3.33955821 2.50852831,3.40242671 C4.89852831,3.40242671 7.95852831,3.40242671 10.3385283,3.40242671 C11.4948382,3.37663464 12.4736707,4.25059228 12.5785283,5.40242671 C12.9285283,7.06242671 13.5785283,10.2924267 13.9085283,11.9924267 L44.9085283,11.9924267 C47.0985283,11.9924267 47.9085283,13.9924267 47.4185283,16.1624267 C45.9985283,22.6624267 44.6585283,31.3324267 43.2385283,37.8524267 C43.1714499,38.4853141 42.8505437,39.0639315 42.3491911,39.4559666 C41.8478385,39.8480017 41.2089168,40.0199264 40.5785283,39.9324267 L14.9985283,39.9324267 C14.3750986,40.0199253 13.7433296,39.8445964 13.2541553,39.4483274 C12.764981,39.0520583 12.4623375,38.4704406 12.4185283,37.8424267 C10.5985283,28.7724267 7.10852831,7.66242671 7.23852831,8.26242671 Z" id="Path" fill="#5DC1FD" fill-rule="nonzero"></path>
                <path d="M19.7585283,49.9324267 C18.5787962,49.956758 17.4393636,49.5029716 16.5993585,48.674267 C15.7593534,47.8455624 15.2901769,46.7123802 15.2985283,45.5324267 C15.2905481,44.3504823 15.7531169,43.213921 16.5841937,42.3734641 C17.4152705,41.5330073 18.5465687,41.057712 19.7285283,41.0524267 C22.1841883,41.0905229 24.1579326,43.0864941 24.1685283,45.5424267 C24.1466717,47.9656381 22.181814,49.9215848 19.7585283,49.9324267 L19.7585283,49.9324267 Z" id="Path" fill="#5DC1FD" fill-rule="nonzero"></path>
                <path d="M35.9985283,49.9324267 C34.8351454,49.9324297 33.7195571,49.4695943 32.8978597,48.6460209 C32.0761623,47.8224475 31.6158722,46.7058066 31.6185283,45.5424267 C31.5998275,44.3631152 32.051126,43.224825 32.8728464,42.3787156 C33.6945667,41.5326063 34.8191742,41.0482171 35.9985283,41.0324267 C38.4564897,41.0597155 40.4377548,43.0543375 40.4485283,45.5124267 C40.4485283,46.6899 39.9787623,47.8187147 39.1433517,48.6484933 C38.3079412,49.4782719 37.1759745,49.9404186 35.9985283,49.9324267 L35.9985283,49.9324267 Z" id="Path" fill="#5DC1FD" fill-rule="nonzero"></path>
                <g transform="translate(0.9721, 0)" fill-rule="nonzero">
                    <path d="M8.68646494,5.61242671 L3.37646494,5.61242671 C2.58631218,5.67112979 1.81655137,5.34408879 1.31029087,4.73459085 C0.804030366,4.12509291 0.623779224,3.30839403 0.826464944,2.54242671 C1.09923074,1.43810941 2.12093044,0.685499345 3.25646494,0.752426714 C5.63646494,0.752426714 8.87646494,0.752426714 11.2564649,0.752426714 C12.51723,0.707643823 13.6433177,1.53564949 13.9764649,2.75242671 C14.4064649,4.62242671 15.6564649,9.35242671 15.6564649,9.35242671 L45.2464649,9.35242671 C47.4364649,9.35242671 48.5364649,10.6324267 48.0664649,12.7924267 C46.6464649,19.2824267 45.3964649,28.6724267 44.0264649,35.2024267 C43.9617003,35.840414 43.6411686,36.4249265 43.1380429,36.8225277 C42.6349172,37.2201289 41.9921458,37.3968785 41.3564649,37.3124267 L16.4364649,37.3124267 C15.8130352,37.3999253 15.1812662,37.2245964 14.6920919,36.8283274 C14.2029177,36.4320583 13.9002741,35.8504406 13.8564649,35.2224267 C12.0264649,26.1224267 8.55646494,5.01242671 8.68646494,5.61242671 Z" id="Path" fill="#FFFFFF"></path>
                    <path d="M26.9564649,38.0624267 L16.4364649,38.0624267 C15.6399584,38.1490328 14.8419025,37.9134342 14.2201365,37.4081319 C13.5983705,36.9028297 13.2045611,36.1698126 13.1264649,35.3724267 C12.1264649,30.6024267 10.8164649,22.8424267 9.84646494,17.1724267 C9.30646494,14.0324267 8.84646494,11.1724267 8.48646494,9.09242671 C8.27646494,7.84242671 8.13646494,6.93242671 8.02646494,6.36242671 L3.37646494,6.36242671 C2.35258912,6.39942284 1.36837612,5.9644523 0.706464944,5.18242671 C0.0865607192,4.39108629 -0.141420857,3.36149207 0.0864649443,2.38242671 C0.445555762,0.938082241 1.76928935,-0.0557619017 3.25646494,0.00242671412 L5.87646494,0.00242671412 C7.71646494,0.00242671412 9.68646494,0.00242671412 11.2664649,0.00242671412 C12.870508,-0.035811468 14.2939582,1.0245558 14.7164649,2.57242671 C15.0364649,4.02242671 15.8964649,7.28242671 16.2364649,8.57242671 L45.2364649,8.57242671 C46.3730088,8.48255584 47.4852152,8.9348531 48.2364649,9.79242671 C48.9107926,10.6909434 49.1186083,11.8561954 48.7964649,12.9324267 C48.0964649,16.1724267 47.4164649,20.2124267 46.7964649,24.1224267 C46.1764649,28.0324267 45.4564649,32.1224267 44.7464649,35.3724267 C44.5428524,37.051146 43.0276698,38.2543792 41.3464649,38.0724267 L26.9564649,38.0624267 Z M14.5964649,35.0624267 C14.8164649,36.1924267 15.2664649,36.5524267 16.4364649,36.5524267 L41.3164649,36.5524267 C42.5164649,36.5524267 42.9964649,36.1724267 43.2464649,35.0324267 C43.9564649,31.7924267 44.6264649,27.7524267 45.2464649,23.8524267 C45.8664649,19.9524267 46.5764649,15.8524267 47.2964649,12.5924267 C47.4897363,11.962455 47.3984329,11.2795055 47.0464649,10.7224267 C46.5542785,10.245214 45.8795641,10.0045051 45.1964649,10.0624267 L15.0864649,10.0624267 L14.9364649,9.50242671 C14.8864649,9.31242671 13.6664649,4.74242671 13.2464649,2.88242671 C12.97497,2.01580824 12.1536651,1.44089483 11.2464649,1.48242671 C9.67646494,1.48242671 7.71646494,1.48242671 5.88646494,1.48242671 L3.25646494,1.48242671 C2.47384708,1.41751121 1.75737502,1.92325619 1.55646494,2.68242671 C1.43156071,3.21784159 1.54860011,3.78109372 1.87646494,4.22242671 C2.25707534,4.64415758 2.80954692,4.86882936 3.37646494,4.83242671 L8.54646494,4.83242671 C8.74184107,4.81750391 8.93783627,4.85188903 9.11646494,4.93242671 C9.31680614,5.06628471 9.43691136,5.291482 9.43646494,5.53242671 C10.0764649,9.40242671 13.1864649,28.0124267 14.5964649,35.0724267 L14.5964649,35.0624267 Z" id="Shape" fill="#161616"></path>
                </g>
                <g transform="translate(17.1983, 39.3524)" fill-rule="nonzero">
                    <path d="M4.63019335,8.46000627 C3.61288809,8.47077592 2.6339672,8.07209699 1.91364369,7.35365422 C1.19332018,6.63521145 0.792083342,5.6573362 0.800193346,4.64000627 C0.792206294,3.61546572 1.19292837,2.62999992 1.91364649,1.90177432 C2.6343646,1.17354873 3.61562504,0.76263636 4.64019335,0.760006267 C6.77685607,0.776484875 8.50019335,2.51328 8.50019335,4.65000627 C8.49226786,5.66844736 8.08007681,6.64202382 7.35430424,7.3565441 C6.62853166,8.07106439 5.64863395,8.46799392 4.63019335,8.46000627 L4.63019335,8.46000627 Z" id="Path" fill="#FFFFFF"></path>
                    <path d="M4.61019335,9.21000627 C3.3832344,9.22187438 2.20238452,8.74305416 1.33019335,7.88000627 C0.468488413,7.02327568 -0.0110500368,5.85507675 0.000193345591,4.64000627 C-0.00572533171,3.40245397 0.484045223,2.21404012 1.36019335,1.34000627 C2.21537846,0.480915194 3.37801472,-0.00141687395 4.59019335,3.12652865e-06 L4.59019335,3.12652865e-06 C5.81843005,0.0115595943 6.99150741,0.51173675 7.85019335,1.39000627 C9.1600054,2.6986405 9.55305577,4.66718353 8.84621871,6.37847326 C8.13938165,8.089763 6.47171244,9.20713925 4.62019335,9.21000627 L4.62019335,9.21000627 L4.61019335,9.21000627 Z M4.61019335,1.50000627 C3.79458988,1.49254362 3.01110553,1.81749105 2.44019335,2.40000627 C1.84918278,2.99550553 1.51834929,3.80101314 1.52013844,4.64000627 C1.51531592,5.45608216 1.83556679,6.24051686 2.41019335,6.82000627 C3.00134909,7.4016898 3.80093399,7.7222441 4.63019335,7.71000627 L4.63019335,7.71000627 C6.32060216,7.69383816 7.68852808,6.33035356 7.71019335,4.64000627 C7.72328279,3.81254881 7.39398196,3.0164369 6.80019335,2.44000627 C6.22089644,1.84679245 5.42929786,1.50856396 4.60019335,1.50000627 L4.61019335,1.50000627 Z" id="Shape" fill="#161616"></path>
                </g>
                <g transform="translate(33.2585, 39.3524)" fill-rule="nonzero">
                    <path d="M4.55002316,8.46 C3.53873376,8.46266481 2.56809628,8.06211104 1.8530042,7.34701896 C1.13791213,6.63192688 0.737358356,5.6612894 0.740023164,4.65 C0.723852966,3.08565826 1.65589598,1.6670728 3.09812313,1.06093139 C4.54035028,0.454789977 6.20596286,0.781628812 7.31217861,1.88784456 C8.41839435,2.99406031 8.74523319,4.65967289 8.13909178,6.10190004 C7.53295037,7.54412718 6.1143649,8.4761702 4.55002316,8.46 L4.55002316,8.46 Z" id="Path" fill="#FFFFFF"></path>
                    <path d="M4.56002316,9.21 L4.56002316,9.21 C2.04388631,9.20450023 0.00552293663,7.16613686 1.15582803e-05,4.65 C-0.0056141032,2.10290303 2.04306778,0.0274409946 4.59002316,0 L4.59002316,0 C7.13309646,0.0219181555 9.18463665,2.08683795 9.19002316,4.63 C9.20429398,5.84271603 8.72408059,7.00894854 7.86002316,7.86 C6.98434289,8.73248186 5.79613284,9.21856779 4.56002316,9.21 Z M4.56002316,7.71 L4.56002316,7.71 C5.39843586,7.71893468 6.20538008,7.39111359 6.80002316,6.8 C7.39475527,6.23827968 7.73430035,5.45804844 7.74002316,4.64 C7.74016262,2.92132751 6.3585562,1.52189391 4.64002316,1.5 L4.64002316,1.5 C3.81085044,1.50256684 3.01726569,1.83720494 2.43661373,2.4291317 C1.85596177,3.02105846 1.53664537,3.82093123 1.55002316,4.65 C1.5555117,6.33771268 2.92231049,7.70451146 4.61002316,7.71 L4.56002316,7.71 Z" id="Shape" fill="#161616"></path>
                </g>
                <g transform="translate(19.9285, 13.3524)">
                    <g id="Fill-11" fill="#5DC1FD">
                        <path d="M10,20 C15.5228475,20 20,15.5228475 20,10 C20,4.4771525 15.5228475,3.55271368e-15 10,3.55271368e-15 C4.4771525,3.55271368e-15 -3.55271368e-15,4.4771525 -3.55271368e-15,10 C-3.55271368e-15,15.5228475 4.4771525,20 10,20" id="Path"></path>
                    </g>
                    <path d="M13.07,11.29 C12.75,10.29 12.14,9.8 10.34,9.2 C8.94,8.71 8.88,8.55 8.78,8.2 C8.75428167,7.9728876 8.81497007,7.74441364 8.95,7.56 C9.23088197,7.24179889 9.64763908,7.07807288 10.07,7.12 L10.07,7.12 C10.4292729,7.07187664 10.7922152,7.17712992 11.07,7.41 C11.1680882,7.51374433 11.228029,7.64772958 11.24,7.79 C11.2264758,8.01010092 11.302171,8.2263727 11.45,8.39 C11.5932304,8.55797907 11.7995061,8.65930748 12.02,8.67 C12.2385573,8.6851317 12.4542332,8.61323972 12.62,8.47 C12.7886446,8.3219137 12.8927177,8.1137675 12.91,7.89 C12.9275026,7.28597402 12.7045043,6.69970436 12.29,6.26 C11.9002794,5.89494022 11.4083148,5.65768071 10.88,5.58 L10.88,4.58 C10.8745233,4.11999076 10.5000418,3.75 10.04,3.75 C9.58160366,3.75 9.21,4.12160366 9.21,4.58 L9.21,5.58 C8.55661809,5.70139293 7.96995219,6.05694803 7.56,6.58 C7.10869987,7.18771994 6.95448868,7.9661193 7.14,8.7 C7.5,9.83 8.21,10.23 9.76,10.77 C11.31,11.31 11.34,11.48 11.43,11.77 C11.4494233,11.9841357 11.3888628,12.1978787 11.26,12.37 C10.9417141,12.7164309 10.4776845,12.890906 10.01,12.84 C8.67,12.84 8.57,12.15 8.56,12.08 C8.53350814,11.6357141 8.16507431,11.2892109 7.72,11.29 L7.72,11.29 C7.25990923,11.311621 6.90304232,11.6997138 6.92,12.16 C7.06088598,13.3692741 8.0279438,14.3154902 9.24,14.43 L9.24,15.43 C9.2399674,15.8900418 9.60999076,16.2645233 10.07,16.27 C10.5316639,16.2645999 10.9045999,15.8916639 10.91,15.43 L10.91,14.43 C11.5966995,14.3067566 12.2112467,13.928024 12.63,13.37 C13.0814862,12.7778788 13.2430273,12.0142299 13.07,11.29 Z" id="Path" fill="#FFFFFF" fill-rule="nonzero"></path>
                </g>
            </g>
            <g id="_50x50_Spacers">
                <rect id="Rectangle" x="0" y="0" width="40" height="40"></rect>
            </g>
        </g>
    </g>
</svg>