<?xml version="1.0" encoding="UTF-8"?>
<svg width="24px" height="24px" viewBox="0 0 24 24" version="1.1" xmlns="http://www.w3.org/2000/svg" xmlns:xlink="http://www.w3.org/1999/xlink">
    <title>UI/Icon/Signout</title>
    <g id="UI/Icon/Signout" stroke="none" stroke-width="1" fill="none" fill-rule="evenodd">
        <path d="M7,6 C7.55228475,6 8,5.55228475 8,5 C8,4.44771525 7.55228475,4 7,4 L5,4 C4.44771525,4 4,4.44771525 4,5 L4,19 C4,19.5522847 4.44771525,20 5,20 L7,20 C7.55228475,20 8,19.5522847 8,19 C8,18.4477153 7.55228475,18 7,18 L6,18 L6,6 L7,6 Z M20.82,11.42 L18,7.42 C17.6816174,6.97118524 17.0604485,6.86393305 16.61,7.18 C16.3915524,7.33307413 16.2433143,7.56707839 16.1982446,7.82998479 C16.1531749,8.09289119 16.2150095,8.3629079 16.37,8.58 L18.09,11 L10,11 C9.44771525,11 9,11.4477153 9,12 C9,12.5522847 9.44771525,13 10,13 L18,13 L16.2,15.4 C16.0408701,15.6121732 15.9725432,15.8788704 16.0100505,16.1414214 C16.0475578,16.4039723 16.1878268,16.6408701 16.4,16.8 C16.5730962,16.9298221 16.7836298,17 17,17 C17.3147573,17 17.6111456,16.8518058 17.8,16.6 L20.8,12.6 C21.0627974,12.2529484 21.0708853,11.7757581 20.82,11.42 L20.82,11.42 Z" id="Combined-Shape" fill="#005EB9"></path>
    </g>
</svg>