<?xml version="1.0" encoding="UTF-8"?>
<svg width="192px" height="56px" viewBox="0 0 192 56" version="1.1" xmlns="http://www.w3.org/2000/svg" xmlns:xlink="http://www.w3.org/1999/xlink">
    <title>Logos/Vendors/Silver-and-Fit</title>
    <g id="Logos/Vendors/Silver-and-Fit" stroke="none" stroke-width="1" fill="none" fill-rule="evenodd">
        <g id="S&amp;F_RGB" transform="translate(0, 6)" fill="#00677F" fill-rule="nonzero">
            <g id="Group">
                <g transform="translate(44.0504, 2.0875)">
                    <rect id="Rectangle" x="19.4591591" y="2.84175084" width="4.27673827" height="4.36363636"></rect>
                    <rect id="Rectangle" x="19.7398201" y="11.9461279" width="3.72878118" height="29.1447811"></rect>
                    <path d="M8.8608671,17.6026936 C8.41982846,17.1717172 7.95206022,16.7272727 7.48429197,16.2558923 C5.2790988,14.1414141 4.156455,11.6363636 4.156455,8.83501684 C4.156455,5.62962963 5.81369108,3.47474747 8.27281559,3.47474747 C11.226438,3.47474747 12.6163779,6.02020202 12.6163779,11.4612795 L12.6163779,11.8114478 L16.4520775,11.8114478 L16.4520775,10.8686869 C16.4520775,3.86531987 13.5652792,0 8.32627481,0 C3.52830907,0 0.32075537,3.55555556 0.32075537,8.83501684 C0.32075537,11.2323232 0.828618039,13.4006734 1.8844378,15.4612795 C2.95362237,17.5622896 5.14545073,19.6767677 7.93869541,22.3569024 C8.50001731,22.8956229 9.07470401,23.4612795 9.67612033,24.040404 C11.7877598,26.1144781 12.9504981,29.037037 12.9504981,32.2962963 C12.9504981,36.040404 11.2531676,38.3703704 8.50001731,38.3703704 C5.45284129,38.3703704 3.78224041,35.7441077 3.78224041,30.989899 L3.78224041,29.993266 L0,29.993266 L0,30.8821549 C0,37.8585859 3.07390563,41.8585859 8.44655808,41.8585859 C10.9725066,41.8585859 13.0841461,40.9427609 14.5676397,39.2188552 C16.0511333,37.4814815 16.8396569,35.003367 16.8396569,32.026936 C16.8396569,29.4680135 16.2649702,27.043771 15.0621376,24.6329966 C14.0865067,22.6801347 11.8946783,20.5521886 8.8742319,17.6026936 L8.8608671,17.6026936 Z" id="Path"></path>
                    <path d="M43.2886101,32.013468 C43.1282325,32.8080808 42.9812196,33.8047138 42.8342067,34.9494949 C42.7005586,34.1683502 42.540181,33.3737374 42.3798033,32.5656566 L38.1297946,11.959596 L34.3208246,11.959596 L41.0700522,41.1043771 L44.6651853,41.1043771 L50.9065502,11.959596 L47.0975802,11.959596 L43.2886101,32.026936 L43.2886101,32.013468 Z" id="Path"></path>
                    <rect id="Rectangle" x="28.1596485" y="0.767676768" width="3.72878118" height="40.3232323"></rect>
                    <path d="M59.1793658,11.2861953 C56.533134,11.2861953 54.5551425,12.6060606 53.2988507,15.1919192 C52.0826532,17.6969697 51.4946017,21.4141414 51.4946017,26.5454545 C51.4946017,31.6767677 52.0826532,35.3670034 53.2988507,37.8720539 C54.5551425,40.4444444 56.533134,41.7508418 59.1793658,41.7508418 C64.08425,41.7508418 66.8106706,38.2760943 66.8641298,31.986532 L66.8641298,31.6363636 C66.8641298,31.6363636 63.2422671,31.6363636 63.2422671,31.6363636 L63.2422671,31.986532 C63.2422671,37.2794613 61.2108164,38.3838384 59.5001211,38.3838384 C56.533134,38.3838384 55.2233829,34.9494949 55.2233829,27.2727273 L55.2233829,27.1784512 L66.9710483,27.1784512 L66.9710483,25.952862 C66.9710483,13.8451178 62.7344045,11.2996633 59.1793658,11.2996633 L59.1793658,11.2861953 Z M63.2289023,23.8383838 L55.2367477,23.8383838 C55.6109623,14.6531987 58.4175718,14.6531987 59.3397435,14.6531987 C61.6518551,14.6531987 63.041795,17.9124579 63.2289023,23.8383838 L63.2289023,23.8383838 Z" id="Shape"></path>
                    <path d="M80.0819241,11.5959596 C79.8814519,11.5824916 79.6943446,11.5690236 79.533967,11.5690236 C77.1015721,11.5690236 75.1369454,12.7676768 73.8940184,14.989899 L73.8940184,11.9461279 L70.4325333,11.9461279 L70.4325333,41.0909091 L74.1078553,41.0909091 L74.1078553,22.3838384 C74.1078553,17.6969697 76.0190227,15.3265993 79.8012631,15.3265993 C79.9215464,15.3265993 80.0551944,15.3265993 80.2022073,15.3535354 C80.362585,15.3670034 80.5229627,15.3804714 80.6699756,15.3804714 L81.0174605,15.3804714 L81.0174605,11.6228956 L80.6699756,11.6228956 C80.4828683,11.6228956 80.2823962,11.6094276 80.0819241,11.5959596 Z" id="Path"></path>
                    <path d="M98.8862076,35.003367 C100.543444,31.5151515 101.385427,27.3939394 101.438886,22.4377104 L101.438886,22.0875421 C101.438886,22.0875421 97.8838471,22.0875421 97.8838471,22.0875421 L97.8838471,22.4242424 C97.7368342,26.3703704 97.269066,29.6969697 96.5340016,31.9057239 C94.4223621,28.8484848 92.417641,24.7542088 90.7069457,19.986532 C94.4357269,15.5420875 96.3201647,11.3804714 96.3201647,7.58249158 C96.3201647,3.28619529 94.0615123,0.713804714 90.2659071,0.713804714 C86.4703018,0.713804714 83.9978125,3.78451178 83.9978125,8.72727273 C83.9978125,11.2188552 84.8130658,14.6531987 86.5103963,19.2457912 C82.5410486,24.040404 80.8437181,27.9461279 80.8437181,32.3097643 C80.8437181,38.2356902 84.1581902,41.9124579 89.504113,41.9124579 C92.2839929,41.9124579 94.8901303,40.5252525 96.7211089,38.1010101 C98.1912377,39.6632997 99.4207999,40.7811448 100.463255,41.5218855 L100.703821,41.6835017 L103.189676,39.1111111 L102.882285,38.8821549 C101.158225,37.5622896 99.8217441,36.2693603 98.8862076,35.003367 L98.8862076,35.003367 Z M89.2501817,16.1346801 C88.2879156,13.3468013 87.7399585,10.5319865 87.7399585,8.33670034 C87.7399585,5.79124579 88.8358727,4.02693603 90.3861903,4.02693603 C91.1747139,4.02693603 92.4978298,4.44444444 92.4978298,7.24579125 C92.4978298,10.3299663 91.4019157,13.3198653 89.2501817,16.1481481 L89.2501817,16.1346801 Z M87.8602418,22.9225589 C89.6110315,27.2861953 91.7627654,31.4478114 94.4490917,35.6363636 C93.1660702,37.6026936 91.4954693,38.6397306 89.5843019,38.6397306 C86.5905851,38.6397306 84.6526881,36.1077441 84.6526881,32.1885522 C84.6526881,29.1717172 85.6817782,26.2222222 87.8736066,22.9360269 L87.8602418,22.9225589 Z" id="Shape"></path>
                    <polygon id="Path" points="104.913736 41.0909091 108.976637 41.0909091 108.976637 21.952862 116.915332 21.952862 116.915332 18.1952862 108.976637 18.1952862 108.976637 4.47138047 119.173985 4.47138047 119.173985 0.767676768 104.913736 0.767676768"></polygon>
                    <rect id="Rectangle" x="121.232165" y="11.9461279" width="3.72878118" height="29.1447811"></rect>
                    <rect id="Rectangle" x="120.964869" y="2.84175084" width="4.27673827" height="4.36363636"></rect>
                    <path d="M139.822612,15.2053872 L139.822612,11.9461279 L134.810809,11.9461279 L134.810809,2.78787879 L131.082028,2.78787879 L131.082028,11.9461279 L127.379976,11.9461279 L127.379976,15.2053872 L131.082028,15.2053872 L131.082028,34.4377104 C131.082028,38.7744108 131.990835,41.4680135 136.48141,41.4680135 C137.416946,41.4680135 138.459401,41.2794613 139.582045,40.9023569 L139.809247,40.8215488 L139.809247,37.3602694 L139.328114,37.5757576 C138.512861,37.9393939 137.804526,38.1010101 137.016002,38.1010101 C135.572603,38.1010101 134.797444,37.5488215 134.797444,34.6127946 L134.797444,15.2188552 L139.809247,15.2188552 L139.822612,15.2053872 Z" id="Path"></path>
                </g>
                <g id="Path">
                    <path d="M15.5566354,24.3097643 C15.3561633,23.0841751 16.1580518,21.8181818 16.3585239,20.6060606 C16.4654423,20 16.1847814,19.4074074 16.0511333,18.7340067 L3.47484984,0 L0,0 L0,3.17845118 C0.147012878,3.17845118 0.294025756,3.19191919 0.334120177,3.21885522 C0.507862669,3.2996633 0.828618039,3.2996633 0.908806882,3.25925926 C0.988995724,3.23232323 1.45676397,3.24579125 1.57704724,3.28619529 C1.6973305,3.32659933 1.84434338,3.31313131 1.92453222,3.27272727 C2.09827471,3.19191919 2.36557085,2.93602694 2.56604296,2.85521886 C2.76651507,2.77441077 3.28774254,2.92255892 3.47484984,3.07070707 C3.64859233,3.21885522 3.99607732,3.93265993 4.08963097,4.22895623 C4.18318462,4.52525253 4.47721037,4.80808081 4.61085844,4.996633 C4.9048842,5.41414141 4.37029192,6.20875421 3.92925328,6.86868687 C3.48821465,7.52861953 3.42139061,8.55218855 3.79560521,9.23905724 C4.16981981,9.91245791 5.96070396,13.1851852 6.69576835,14.1683502 C7.43083274,15.1649832 9.10143362,17.2525253 9.4355538,17.8585859 C9.78303879,18.4781145 11.4001804,21.023569 11.6541118,21.4276094 C11.8946783,21.8316498 12.5228242,23.016835 12.8302148,23.5151515 C13.0975109,23.9461279 14.2869788,26.7878788 14.2869788,26.7878788 C14.5141805,27.3265993 15.0487728,28.1077441 15.5833651,28.8350168 C15.5833651,28.5387205 15.6100947,28.2424242 15.6769187,27.973064 C15.8239316,27.3400673 16.4520775,27.1245791 16.3986183,26.4377104 C16.3451591,25.7508418 15.6769187,24.983165 15.5700003,24.2962963 L15.5566354,24.3097643 Z"></path>
                    <path d="M12.5228242,38.4377104 C12.5228242,38.2626263 12.5228242,38.1144781 12.5228242,37.952862 L0,34.5319865 L0,39.5151515 L12.4960946,41.010101 C12.4960946,40.0673401 12.4960946,39.003367 12.5228242,38.4242424 L12.5228242,38.4377104 Z"></path>
                    <path d="M12.5094594,41.8181818 L0,40.8080808 L0,43.3535354 L12.5629187,43.3535354 C12.5495539,43.0707071 12.536189,42.9360269 12.536189,42.8282828 C12.536189,42.6397306 12.5228242,42.2626263 12.5094594,41.8181818 L12.5094594,41.8181818 Z"></path>
                    <path d="M7.551116,22.5723906 C7.47092716,22.1414141 7.27045505,22.006734 6.81605161,21.4680135 C6.36164817,20.9292929 2.01808587,12.3097643 1.89780261,11.986532 C1.77751934,11.6632997 1.55031762,11.2996633 1.55031762,11.2996633 C1.33648071,10.9494949 1.10927899,10.6127946 0.948901303,10.3434343 L0,9.36026936 L0,17.6969697 L7.88523618,23.9191919 C7.71149369,23.3804714 7.59121042,22.8686869 7.5377512,22.5723906 L7.551116,22.5723906 Z"></path>
                    <path d="M12.2822577,35.8383838 C12.2421633,35.4882155 12.1753393,35.1380471 12.0149616,34.7340067 C11.9214079,34.5050505 11.5204637,33.8451178 11.4135453,33.6296296 C11.3734508,33.5353535 11.3199916,33.3333333 11.2398028,33.1043771 L0,27.6767677 L0,33.1717172 L12.4960946,37.1043771 C12.4560002,36.7003367 12.2822577,35.8518519 12.2822577,35.8518519 L12.2822577,35.8383838 Z"></path>
                    <path d="M8.6737598,25.9393939 L0,19.6094276 L0,26.1010101 L10.7453049,31.7979798 C10.5849272,31.3939394 9.11479843,27.1649832 8.66039499,25.9259259 L8.6737598,25.9393939 Z"></path>
                    <path d="M5.6666782,0 L16.2382406,16.996633 C16.4921719,16.2289562 16.7861977,15.4478114 17.2138715,14.7609428 C17.6148157,14.1010101 18.4567986,13.6565657 19.1517686,13.3872054 L13.1108758,0 L5.6666782,0 Z"></path>
                    <path d="M32.9709791,19.7441077 C33.3184641,18.1279461 33.8396915,17.6835017 34.0401636,17.0639731 C34.2540006,16.4444444 34.1470821,17.0774411 35.2964555,13.2659933 C36.4458289,9.45454545 36.5527474,9.27946128 36.8601379,8.67340067 C37.0205156,8.36363636 37.1675285,8.26936027 37.341271,7.36700337 L37.4348246,6.63973064 C37.4749191,6.20875421 37.6085671,5.6969697 37.4348246,5.14478114 C37.3546358,4.87542088 36.993786,4.63299663 36.8868676,4.45791246 C36.7799491,4.28282828 36.646301,4.05387205 36.3121808,3.60942761 C35.9780607,3.16498316 35.6573053,2.94949495 35.5236572,2.74747475 C34.8821465,1.73737374 35.4568332,0.430976431 35.5236572,0.30976431 C35.5637517,0.228956229 35.5503868,0.148148148 35.5503868,0.0134680135 L32.5433053,0.0134680135 C32.5433053,0.0134680135 30.0574511,0.0134680135 30.0574511,0.0134680135 L31.5676743,25.6700337 C31.5676743,25.6700337 31.6211336,25.5622896 31.6478632,25.5084175 C31.9151593,24.969697 31.9819834,24.1212121 32.0889018,23.6094276 C32.1958203,23.0976431 32.3428331,22.1952862 32.5165756,21.3468013 C32.6903181,20.4983165 32.9175198,19.7575758 32.9175198,19.7575758 L32.9709791,19.7441077 Z"></path>
                    <path d="M40.2547989,0.0269360269 L39.0920607,0 C40.3349878,1.03703704 40.5621895,2.65319865 40.6290135,3.36700337 C40.6958376,4.09427609 40.2948934,5.62962963 40.1879749,6.00673401 C40.1879749,6.00673401 39.6132882,8.4040404 39.5999234,9.05050505 C39.5865586,9.6969697 38.7178461,15.030303 38.5975629,15.7575758 C38.4772796,16.4848485 38.3169019,16.6868687 38.0763354,17.2255892 C37.8224041,17.7643098 37.7956744,18.03367 37.7956744,18.03367 C37.7956744,18.03367 37.5684727,20.1077441 37.4214598,20.5656566 C37.2878118,21.023569 37.1007045,23.3265993 37.0205156,24.2828283 C36.9403268,25.2390572 35.9780607,29.6700337 35.9246014,29.9393939 C35.8444126,30.2895623 34.5613911,33.6969697 34.4544727,34.2356902 C34.360919,34.7744108 33.7327731,35.5959596 33.4654769,36.7946128 C33.1981808,37.993266 33.1447216,38.6397306 32.7838718,40.4175084 C32.423022,42.1683502 32.4497516,41.96633 32.3962924,43.3535354 L34.6549448,43.3535354 C34.7217688,41.5757576 34.6950392,41.8047138 35.055889,40.026936 C35.4167388,38.2626263 35.470198,37.6026936 35.7374941,36.4040404 C36.0047903,35.2053872 36.6329362,34.3838384 36.7264899,33.8451178 C36.8200435,33.3063973 38.2367131,29.8181818 38.1966186,29.5488215 C38.1431594,29.2794613 39.212344,24.8484848 39.2925328,23.8922559 C39.3727217,22.9360269 39.559829,20.6329966 39.693477,20.1750842 C39.8271251,19.7171717 40.0676916,17.6430976 40.0676916,17.6430976 C40.0676916,17.6430976 40.0944213,17.3737374 40.3483526,16.8350168 C40.6022839,16.2962963 40.7492968,16.0942761 40.8695801,15.3670034 C40.9898633,14.6397306 41.6046445,9.30639731 41.6180093,8.65993266 C41.6313741,8.01346801 41.8051166,5.65656566 41.8051166,5.65656566 C42.5134513,3.46127946 41.56455,0.65993266 40.2280693,0 L40.2547989,0.0269360269 Z"></path>
                    <path d="M22.8270905,0 L26.2351163,15.0976431 C26.6226957,15.4882155 26.8632622,15.8383838 26.9701807,16.0538721 C27.3310305,16.8350168 28.0393653,19.2727273 27.7854339,19.8787879 C27.5181378,20.4848485 27.9458116,22.2760943 28.1997429,23.2188552 C28.4536743,24.1616162 27.5983266,25.0639731 27.1305584,25.8316498 C26.4489532,26.9494949 27.9992708,28.013468 28.0260005,29.1986532 C28.0260005,29.2390572 28.0260005,29.2659933 28.0260005,29.3063973 C28.3066614,29.2121212 28.5739575,29.1313131 28.6407816,29.1313131 C28.8011593,29.1313131 29.2555627,28.8484848 29.5228589,28.4175084 C29.790155,27.973064 29.6832365,28 30.0440863,27.7575758 C30.3915713,27.5151515 30.2579232,27.3400673 30.3514769,27.1380471 C30.4450305,26.9360269 30.6588675,26.8956229 30.9528932,26.7878788 C31.0063524,26.7744108 31.0464469,26.7340067 31.0865413,26.6936027 L28.614052,0 L22.8404553,0 L22.8270905,0 Z"></path>
                    <path d="M14.9151247,0 L20.2744123,13.1043771 C22.2924982,12.9158249 23.8561806,13.4276094 24.9654596,14.1010101 L21.2500433,0 L14.9151247,0 Z"></path>
                </g>
            </g>
            <path d="M188.972214,36.8372093 C190.664601,36.8372093 192,38.2044719 192,39.9004034 C192,41.5963348 190.651379,42.9767442 188.958992,42.9767442 C187.266605,42.9767442 185.904762,41.6226284 185.904762,39.9004034 C185.904762,38.1781784 187.279826,36.8372093 188.958992,36.8372093 L188.958992,36.8372093 L188.972214,36.8372093 Z M188.972214,37.3104925 C187.610371,37.3104925 186.499742,38.467407 186.499742,39.9004034 C186.499742,41.3333997 187.610371,42.503461 188.985435,42.503461 C190.3605,42.5166077 191.457907,41.3596932 191.457907,39.9135501 C191.457907,38.467407 190.3605,37.3104925 188.985435,37.3104925 L188.985435,37.3104925 L188.972214,37.3104925 Z M188.390456,41.6883621 L187.848363,41.6883621 L187.848363,38.2702057 C188.139242,38.2307654 188.416899,38.1913251 188.826774,38.1913251 C189.342423,38.1913251 189.686189,38.2964992 189.897738,38.4542602 C190.109286,38.5988746 190.21506,38.8355162 190.21506,39.1641851 C190.21506,39.6111747 189.91096,39.8872566 189.54075,39.9924307 L189.54075,40.0187242 C189.844851,40.0713112 190.043177,40.3473931 190.122508,40.8469698 C190.201839,41.37284 190.281169,41.5831881 190.347278,41.6883621 L189.76552,41.6883621 C189.686189,41.5831881 189.606859,41.267666 189.527528,40.8206763 C189.448198,40.3868333 189.223427,40.2159255 188.787109,40.2159255 L188.403677,40.2159255 L188.403677,41.6883621 L188.390456,41.6883621 Z M188.390456,39.7952293 L188.787109,39.7952293 C189.236649,39.7952293 189.620081,39.6374683 189.620081,39.2036253 C189.620081,38.9012499 189.39531,38.5988746 188.787109,38.5988746 C188.602004,38.5988746 188.483008,38.6120213 188.390456,38.6251681 L188.390456,39.7820826 L188.390456,39.7952293 Z" id="Shape"></path>
        </g>
    </g>
</svg>