<?xml version="1.0" encoding="UTF-8"?>
<svg width="50px" height="50px" viewBox="0 0 50 50" version="1.1" xmlns="http://www.w3.org/2000/svg" xmlns:xlink="http://www.w3.org/1999/xlink">
    <title>Icon-Enterprise/Primary/Billing</title>
    <defs>
        <polygon id="path-1" points="0 0 15.9998002 0 15.9998002 16 0 16"></polygon>
    </defs>
    <g id="Icon-Enterprise/Primary/Billing" stroke="none" stroke-width="1" fill="none" fill-rule="evenodd">
        <g id="Icon-Document-Billing">
            <g>
                <g id="Group-303" transform="translate(3.25, 1.91)">
                    <g id="Fill-1" transform="translate(0, 4.26)" fill="#5DC1FD">
                        <path d="M10.2500002,0 L30.029999,0 C31.1787531,0 32.1100008,0.931247711 32.1100008,2.07999992 L32.1100008,40.3900013 C32.1100008,42.2141819 30.6341441,43.6944981 28.8099864,43.7000027 L3.24000001,43.7000027 C1.45287633,43.6945171 0.00549006462,42.2471294 0,40.4600048 L0,9.97999954 L10.2500002,0 Z" id="Path-444"></path>
                    </g>
                    <g id="Stroke-5" transform="translate(2.84, 0)" fill-rule="nonzero">
                        <path d="M11,0.75 L30.7799988,0.75 C31.3394699,0.739668029 31.8798714,0.953749793 32.28022,1.34470095 C32.6805687,1.73565163 32.9074249,2.27081646 32.9099998,2.83038391 L32.9099998,42.3603841 C32.9099998,43.5107938 31.9803429,44.4448987 30.8299751,44.4503881 L2.84000015,44.4503881 C1.68799877,44.444914 0.75547123,43.5123884 0.75,42.3603879 L0.75,10.730384 L11,0.75 Z" id="Path-445" fill="#FFFFFF"></path>
                        <path d="M30.7799988,45.2000006 L2.84000015,45.2000006 C1.27151251,45.2000006 0,43.9284858 0,42.3600005 L0,10.42 L10.6900005,0 L30.7799988,0 C32.3429642,0 33.6100006,1.26703393 33.6100006,2.8299998 L33.6100006,42.3600005 C33.6100006,43.9246062 32.3445663,45.194496 30.7799873,45.2000006 L30.7799988,45.2000006 Z M1.5,11.09 L1.5,42.3600005 C1.5,43.1000632 2.09993839,43.7000006 2.84000015,43.7000006 L30.7799988,43.7000006 C31.5161514,43.6945037 32.1100006,43.0961722 32.1100006,42.3600005 L32.1100006,2.8299998 C32.1045532,2.09772813 31.5122681,1.50544441 30.7799988,1.49999988 L11.2999992,1.49999988 L1.5,11.09 Z" id="Path-446" fill="#161616"></path>
                    </g>
                    <g id="Stroke-7" transform="translate(4.14, 1.22)" fill="#161616" fill-rule="nonzero">
                        <path d="M7.70000029,10.4000562 L0,10.4000562 L0,8.86999989 L7.70000029,8.86999989 C8.80457067,8.86999989 9.70000029,7.97456932 9.70000029,6.86999989 L9.70000029,0 L11.2000003,0 L11.2000003,6.92000008 C11.2000003,7.84648514 10.8305984,8.73467541 10.1736293,9.38786888 C9.51671171,10.0410328 8.62641287,10.405323 7.70000029,10.4000562 L7.70000029,10.4000562 Z" id="Path-447"></path>
                    </g>
                    <g id="Group-302" transform="translate(7.409, 15.02)" fill="#161616" fill-rule="nonzero">
                        <g id="Stroke-9" transform="translate(0.121, 22.38)">
                            <path d="M23.4299994,1.5 L0.75,1.5 C0.335786819,1.5 0,1.1642189 0,0.750003815 C0,0.335788727 0.335786819,0 0.75,0 L23.4299994,0 C23.8442144,0 24.1799994,0.335788727 24.1799994,0.750003815 C24.1799994,1.1642189 23.8442144,1.5 23.4299994,1.5 L23.4299994,1.5 Z" id="Path-448"></path>
                        </g>
                        <g id="Stroke-11" transform="translate(0.011, 5.02)">
                            <path d="M23.539999,1.5 L0.75,1.5 C0.335786819,1.5 0,1.16421318 0,0.75 C0,0.335786819 0.335786819,0 0.75,0 L23.539999,0 C23.9542141,0 24.289999,0.335786819 24.289999,0.75 C24.289999,1.16421318 23.9542141,1.5 23.539999,1.5 Z" id="Path-449"></path>
                        </g>
                        <g id="Stroke-13" transform="translate(0.011, 0)">
                            <path d="M12.5499992,1.5 L0.75,1.5 C0.335786819,1.5 0,1.16421318 0,0.75 C0,0.335786819 0.335786819,0 0.75,0 L12.5500011,0 C12.9642143,0 13.3000011,0.335786819 13.3000011,0.75 C13.3000011,1.16421318 12.9642143,1.5 12.5500011,1.5 L12.5499992,1.5 Z" id="Path-450"></path>
                        </g>
                        <g id="Stroke-15" transform="translate(0, 9.68)">
                            <path d="M23.3405945,9.14999962 L1.34059445,9.14999962 C0.60053174,9.14999962 0.000593347706,8.55006218 0.000593347706,7.80999947 L0.000594301381,1.3900013 C-0.0101793574,1.02680779 0.125905199,0.674606323 0.378086252,0.413015366 C0.630267306,0.151424408 0.977250261,0.00253295898 1.3405935,0 L23.3405945,0 C23.7048103,0.00259208679 24.0527641,0.151165009 24.3065254,0.412443161 C24.5602829,0.673719406 24.6986343,1.02586365 24.6905929,1.38999939 L24.6905929,7.85000038 C24.6636841,8.57598686 24.0670768,9.15049553 23.3405945,9.14999962 L23.3405945,9.14999962 Z M1.53059403,7.64999962 L23.1905929,7.64999962 L23.1905929,1.50000191 L1.53059403,1.50000191 L1.53059403,7.64999962 Z" id="Path-451"></path>
                        </g>
                        <g id="Stroke-17" transform="translate(15.021, 0)">
                            <path d="M8.52999878,1.5 L0.75,1.5 C0.335786819,1.5 0,1.16421318 0,0.75 C0,0.335786819 0.335786819,0 0.75,0 L8.52999878,0 C8.94421387,0 9.27999878,0.335786819 9.27999878,0.75 C9.27999878,1.16421318 8.94421387,1.5 8.52999878,1.5 Z" id="Path-452"></path>
                        </g>
                    </g>
                </g>
                <g id="50x50-Spacers" fill-rule="nonzero">
                    <rect id="Rectangle-187" x="0" y="0" width="50" height="50"></rect>
                </g>
            </g>
            <g id="Group-8" transform="translate(31.0002, 0)">
                <g id="Group-3">
                    <mask id="mask-2" fill="white">
                        <use xlink:href="#path-1"></use>
                    </mask>
                    <g id="Clip-2"></g>
                    <path d="M7.99800021,15.9999998 C12.4160002,16.001 15.9990002,12.42 16,8.002 C16.0010002,3.583 12.4200002,0.001 8.00100021,-2.09387736e-07 C3.58300021,-0.001 0.00100020939,3.58 0,7.998 C-0.000999790612,12.417 3.58000021,15.999 7.99800021,15.9999998" id="Fill-1" fill="#5DC1FD" mask="url(#mask-2)"></path>
                </g>
                <path d="M10.0708002,8.9032 L10.0708002,8.9032 C9.85480021,8.2072 9.43480021,7.8862 8.19780021,7.4742 C7.20580021,7.1322 7.16680021,7.0092 7.08980021,6.7642 C7.07980021,6.7312 7.06080021,6.5032 7.21680021,6.2892 C7.37280021,6.0742 7.64680021,5.9652 8.03380021,5.9632 C8.40080021,5.9572 8.63980021,6.0292 8.77780021,6.1712 C8.90180021,6.2972 8.90380021,6.4642 8.90380021,6.4642 C8.89480021,6.6092 8.94380021,6.7502 9.03980021,6.8592 C9.13580021,6.9682 9.26980021,7.0332 9.41480021,7.0422 C9.55680021,7.0512 9.69680021,7.0022 9.80480021,6.9082 C9.91780021,6.8102 9.98380021,6.6762 9.99280021,6.5332 C9.99680021,6.4702 10.0238002,5.9012 9.57480021,5.4262 C9.32880021,5.1672 8.99380021,4.9982 8.57580021,4.9212 L8.57580021,4.2262 C8.57580021,3.9252 8.33080021,3.6802 8.02980021,3.6802 C7.72980021,3.6802 7.48480021,3.9252 7.48480021,4.2262 L7.48480021,4.9302 C6.87480021,5.0602 6.52480021,5.3862 6.33480021,5.6472 C5.97780021,6.1382 5.93380021,6.7272 6.04880021,7.0922 C6.29080021,7.8612 6.77780021,8.1392 7.84780021,8.5072 C8.91680021,8.8632 8.96380021,9.0162 9.02880021,9.2262 C9.03780021,9.2572 9.05380021,9.4692 8.90280021,9.6742 C8.73680021,9.8982 8.42880021,10.0172 8.01080021,10.0172 C7.04180021,10.0172 6.96880021,9.5042 6.96480021,9.4522 C6.94780021,9.1532 6.68880021,8.9262 6.39680021,8.9372 C6.09680021,8.9502 5.86280021,9.2052 5.87480021,9.5062 C5.89480021,9.9642 6.25980021,10.8522 7.48480021,11.0572 L7.48480021,11.7742 C7.48480021,12.0752 7.72980021,12.3192 8.02980021,12.3192 C8.33080021,12.3192 8.57580021,12.0752 8.57580021,11.7742 L8.57580021,11.0522 C9.21680021,10.9232 9.58280021,10.5902 9.78080021,10.3222 C10.1348002,9.8402 10.1818002,9.2622 10.0708002,8.9032" id="Fill-4" fill="#FFFFFF"></path>
                <path d="M10.0708002,8.9032 L10.0708002,8.9032 C9.85480021,8.2072 9.43480021,7.8862 8.19780021,7.4742 C7.20580021,7.1322 7.16680021,7.0092 7.08980021,6.7642 C7.07980021,6.7312 7.06080021,6.5032 7.21680021,6.2892 C7.37280021,6.0742 7.64680021,5.9652 8.03380021,5.9632 C8.40080021,5.9572 8.63980021,6.0292 8.77780021,6.1712 C8.90180021,6.2972 8.90380021,6.4642 8.90380021,6.4642 C8.89480021,6.6092 8.94380021,6.7502 9.03980021,6.8592 C9.13580021,6.9682 9.26980021,7.0332 9.41480021,7.0422 C9.55680021,7.0512 9.69680021,7.0022 9.80480021,6.9082 C9.91780021,6.8102 9.98380021,6.6762 9.99280021,6.5332 C9.99680021,6.4702 10.0238002,5.9012 9.57480021,5.4262 C9.32880021,5.1672 8.99380021,4.9982 8.57580021,4.9212 L8.57580021,4.2262 C8.57580021,3.9252 8.33080021,3.6802 8.02980021,3.6802 C7.72980021,3.6802 7.48480021,3.9252 7.48480021,4.2262 L7.48480021,4.9302 C6.87480021,5.0602 6.52480021,5.3862 6.33480021,5.6472 C5.97780021,6.1382 5.93380021,6.7272 6.04880021,7.0922 C6.29080021,7.8612 6.77780021,8.1392 7.84780021,8.5072 C8.91680021,8.8632 8.96380021,9.0162 9.02880021,9.2262 C9.03780021,9.2572 9.05380021,9.4692 8.90280021,9.6742 C8.73680021,9.8982 8.42880021,10.0172 8.01080021,10.0172 C7.04180021,10.0172 6.96880021,9.5042 6.96480021,9.4522 C6.94780021,9.1532 6.68880021,8.9262 6.39680021,8.9372 C6.09680021,8.9502 5.86280021,9.2052 5.87480021,9.5062 C5.89480021,9.9642 6.25980021,10.8522 7.48480021,11.0572 L7.48480021,11.7742 C7.48480021,12.0752 7.72980021,12.3192 8.02980021,12.3192 C8.33080021,12.3192 8.57580021,12.0752 8.57580021,11.7742 L8.57580021,11.0522 C9.21680021,10.9232 9.58280021,10.5902 9.78080021,10.3222 C10.1348002,9.8402 10.1818002,9.2622 10.0708002,8.9032 Z" id="Stroke-6" stroke="#FFFFFF" stroke-width="0.103"></path>
            </g>
        </g>
    </g>
</svg>