<?xml version="1.0" encoding="UTF-8"?>
<svg width="50px" height="50px" viewBox="0 0 50 50" version="1.1" xmlns="http://www.w3.org/2000/svg" xmlns:xlink="http://www.w3.org/1999/xlink">
    <title>Icon-Enterprise/Primary/Savings</title>
    <g id="Icon-Enterprise/Primary/Savings" stroke="none" stroke-width="1" fill="none" fill-rule="evenodd">
        <g id="Icon-Savings">
            <g id="Group" transform="translate(0.069, 1.39)">
                <g id="Stroke-6" transform="translate(0, 11.713)" fill="#5DC1FD" fill-rule="nonzero">
                    <path d="M26.6705768,0.267122891 C22.3371952,0.230889943 18.0580509,1.23210111 14.1905744,3.18712392 C13.3863638,2.33557096 12.4470661,1.62264886 11.4105795,1.07712522 C10.0605772,0.337124493 6.8205774,-0.922875736 6.88057735,1.07712426 C7.96057759,3.01045798 8.62724441,4.29379112 8.88057782,4.92712369 L9.49057748,6.57712331 C8.06427457,7.90603414 6.92432859,9.51216665 6.14057805,11.2971245 C4.44208696,11.7431199 2.68331744,11.9152848 0.930579087,11.8071229 C-0.389422992,11.8071229 -0.289422968,16.5771233 1.13057711,18.1971222 C3.3051193,20.410093 5.6784332,22.4185349 8.22057607,24.1971222 L8.88057687,24.7071206 C10.3505771,26.0171219 11.0605772,26.4271218 12.5805767,27.6271187 L12.5805767,34.557119 C12.5778721,34.8045899 12.6749857,35.0427109 12.8499849,35.2177102 C13.0249832,35.3927094 13.2631071,35.4898201 13.510577,35.4871841 L17.510577,35.4871841 C17.9553192,35.4899384 18.3384006,35.1742112 18.4205749,34.7371193 L19.260577,30.34712 C21.6531666,31.1087166 24.1497047,31.4933182 26.6605747,31.4871193 C30.1397674,31.5074212 33.5831917,30.7846428 36.7605789,29.3671166 L37.1305778,34.6271187 C37.1573303,35.113958 37.5630348,35.4932038 38.0505722,35.4871841 L41.3905761,35.4871841 C41.8620575,35.4899117 42.2593353,35.1358162 42.3105743,34.6671196 L43.3105743,25.8271195 C46.2963836,23.383619 48.0615967,19.754522 48.1405761,15.897123 C48.1405761,7.24712339 38.5305755,0.267122891 26.6705768,0.267122891 Z" id="Path-878"></path>
                </g>
                <path d="M11.0610015,26.1000011 C9.98956842,26.1000011 9.121,25.2314326 9.121,24.1600005 C9.121,23.0885684 9.98956842,22.22 11.0610005,22.22 C12.1324326,22.22 13.0010011,23.0885684 13.0010011,24.1600005 C13.0010011,25.2314326 12.1324326,26.1000011 11.0609996,26.1000011" id="Path-879" fill="#5DC1FD"></path>
                <g id="Stroke-6" transform="translate(2.354, 9.623)" fill-rule="nonzero">
                    <path d="M26.2767187,0.986573567 C22.1266675,0.949750294 18.0284505,1.91000306 14.3267236,3.7865709 C13.550488,2.98017823 12.6488224,2.30477749 11.6567178,1.7865728 C10.3667179,1.07657372 7.2567182,-0.153425823 7.3267179,1.78657376 C8.36005136,3.64657373 8.98338466,4.87657359 9.19671779,5.47657334 C9.33671813,5.84657418 9.55671744,6.47657334 9.78671794,7.05657326 C8.42612223,8.33420311 7.33472686,9.87099396 6.57671885,11.5765718 C4.94679169,12.0055479 3.25931792,12.1742948 1.57671885,12.0765737 C0.316717909,12.0765737 0.416718052,16.6365732 1.77671771,18.1865743 C3.86120658,20.302873 6.13763861,22.2211012 8.57672553,23.9165777 L9.20671801,24.3965734 C10.6167179,25.6565717 11.2967182,26.0465749 12.746718,27.1965727 L12.746718,34.7365736 L17.5767179,34.7365736 L18.5767179,29.8065733 C21.0851713,30.5349706 23.6846605,30.9019979 26.2967191,30.8965734 C29.8391195,30.9270719 33.3516775,30.2469991 36.626721,28.8965734 L37.036717,34.7665723 L41.1167188,34.7665723 L42.1167188,25.5065702 C45.0062986,23.1749014 46.7338644,19.6978582 46.8467184,15.9865755 C46.8467184,7.70657288 37.6367193,0.986573567 26.2767187,0.986573567 Z" id="Path-880" fill="#FFFFFF"></path>
                    <path d="M41.0968347,35.4870436 L37.0168329,35.4870436 C36.6233011,35.4830916 36.2978845,35.1793692 36.2668367,34.7870428 L35.9268327,29.9870436 C30.5359178,31.9258177 24.6876703,32.2044737 19.1368375,30.787039 L18.3468309,34.9170439 C18.2757802,35.2699835 17.9668412,35.5246489 17.6068292,35.5270445 L12.7568345,35.5270445 C12.344872,35.5216582 12.012219,35.1890051 12.0068345,34.7770445 L12.0068345,27.5670454 L11.0068345,26.7870466 C10.2868343,26.2470457 9.67683461,25.7870466 8.7468343,24.9570448 L8.15683415,24.5070441 C5.68041661,22.7864172 3.37035611,20.8379309 1.25684216,18.6870482 C0.00563099266,16.7960036 -0.331993557,14.4436629 0.336835407,12.2770407 C0.518669151,11.7377817 1.00883653,11.3622534 1.5768347,11.3270457 C3.08203652,11.4239352 4.59338858,11.3094904 6.06683495,10.9870417 C6.77318051,9.47163603 7.73371842,8.08832762 8.90683701,6.89703963 L8.4968343,5.76704428 C8.2468343,5.06704352 7.09683468,2.94704459 6.66683438,2.18704436 C6.60821583,2.07248232 6.57738449,1.94573138 6.57683422,1.81704352 C6.51281121,1.20270941 6.80369713,0.605425095 7.32683518,0.27704451 C8.73683407,-0.592956329 11.4868341,0.837043976 12.0168348,1.13704321 C12.9067426,1.62022135 13.7359185,2.20769427 14.4868379,2.88704321 C18.1669908,1.13001654 22.1989064,0.234035706 26.2768407,0.267046188 C38.0368333,0.267043327 47.5768342,7.30704329 47.5768342,15.9870436 C47.4749742,19.8099177 45.7469964,23.4077513 42.8268342,25.877043 L41.8268342,34.877043 C41.7600808,35.22843 41.4544893,35.4837897 41.0968347,35.4870436 Z M37.7168336,33.9870436 L40.4268327,33.9870436 L41.4268327,25.3970434 C41.4455858,25.2109244 41.5350785,25.0391028 41.6768327,24.9170439 C44.4079461,22.7134878 46.037642,19.4248621 46.1368356,15.9170439 C46.1368356,8.08704398 37.2468324,1.72704432 26.3168321,1.72704432 C22.2862077,1.69263289 18.305697,2.62176344 14.7068277,4.43704436 C14.394732,4.60564921 14.0066037,4.52549288 13.7868314,4.24704573 C13.0708165,3.5100405 12.2442117,2.88924334 11.3368316,2.40704367 C9.83683159,1.5770447 8.33683159,1.29704497 8.13683178,1.51704428 C8.50683167,2.19704459 9.65683224,4.30704424 9.95683148,5.13704512 L10.5368314,6.70704482 C10.6356197,6.98614142 10.5656409,7.29715941 10.3568311,7.50704596 C9.08161595,8.71566985 8.06153347,10.1675894 7.35683205,11.7770445 C7.2772546,11.9773409 7.11213353,12.1314528 6.90683224,12.1970446 C5.23338034,12.6511156 3.49847319,12.836756 1.76683237,12.7470438 C1.31364205,14.3880331 1.54833557,16.1428225 2.41683199,17.6070444 C4.46270611,19.6714995 6.6918607,21.5458624 9.0768266,23.2070448 L9.73683121,23.7170431 C10.6568313,24.5370428 11.2468314,24.9770415 11.9268308,25.4870436 C12.3268304,25.7870428 12.7568307,26.1070425 13.2868304,26.4870436 C13.4638152,26.6274969 13.566937,26.8411047 13.5668321,27.0670454 L13.5668302,33.9870436 L17.0468297,33.9870436 L17.8768296,29.6570418 C17.9228387,29.4506743 18.0486741,29.2709105 18.22683,29.1570456 C18.4077687,29.0494253 18.625979,29.023966 18.8268304,29.0870421 C24.6146322,30.7492659 30.7919908,30.428961 36.3768335,28.1770422 C36.5971971,28.0766585 36.8535218,28.0955069 37.05683,28.2270415 C37.2633081,28.355776 37.396792,28.5745375 37.4168267,28.8170378 L37.7168336,33.9870436 Z" id="Path-881" fill="#161616"></path>
                </g>
                <g id="Stroke-10" transform="translate(12.161, 18.72)" fill="#161616" fill-rule="nonzero">
                    <path d="M2.69000053,5.38000298 C1.20435429,5.38000298 0,4.17564583 0,2.69000053 C0,1.20435524 1.20435429,0 2.69000053,0 C4.17564583,0 5.38000107,1.20435524 5.38000107,2.69000053 C5.37451744,4.17336845 4.17337036,5.37451935 2.68999958,5.38000298 L2.69000053,5.38000298 Z M2.69000053,1.50000191 C2.03278255,1.50000191 1.50000191,2.03278351 1.50000191,2.69000244 C1.50000191,3.34722137 2.03278255,3.88000298 2.69000149,3.88000298 C3.34722042,3.88000298 3.88000107,3.34722137 3.88000107,2.69000244 C3.88000107,2.03278351 3.34721947,1.50000191 2.69000053,1.50000191 Z" id="Path-882"></path>
                </g>
                <g id="Stroke-14" transform="translate(23.981, 13.628)" fill="#161616" fill-rule="nonzero">
                    <path d="M11.5301287,2.84238659 C11.4163363,2.84340512 11.3037036,2.81951176 11.2001269,2.7723869 C7.80012728,1.15238606 3.71012713,1.37238728 0.870126978,1.84238659 C0.674997583,1.87708699 0.474102274,1.83206212 0.31244494,1.71739995 C0.150789514,1.60273587 0.0418856294,1.42801701 0.0101282746,1.23238408 C-0.0567166655,0.824811331 0.214172617,0.438459745 0.62012507,0.362386099 C3.62012698,-0.137613901 8.09012629,-0.367614397 11.8501284,1.36238705 C12.2225497,1.54220997 12.3791278,1.98956715 12.2001307,2.36238705 C12.0948146,2.64346348 11.8301432,2.83307683 11.5301287,2.84238469 L11.5301287,2.84238659 Z" id="Path-883"></path>
                </g>
                <g id="Group-543" transform="translate(33.631, 0)">
                    <path d="M8.16000366,16.3200006 C12.6666451,16.3200006 16.3199997,12.6666422 16.3199997,8.15999889 C16.3199997,3.65335608 12.6666412,0 8.15999985,0 C3.65335464,0 0,3.65335751 0,8.1600008 C0,12.6666422 3.65335464,16.3200006 8.15999985,16.3200006" id="Fill-11" fill="#5DC1FD"></path>
                    <path d="M10.5897299,9.21999964 L10.5897299,9.21999964 C10.3397299,8.39999994 9.84972818,8.03000006 8.38972909,7.53999933 C7.22972925,7.13999971 7.17973001,6.99999937 7.08972986,6.70999941 C7.06795557,6.51114449 7.12147195,6.31134638 7.23973138,6.14999947 C7.48711832,5.86203894 7.86353738,5.71900066 8.23973138,5.76999983 C8.55024011,5.72928461 8.86401803,5.81584438 9.10973032,6.01000055 C9.20057733,6.10458073 9.25389535,6.22898849 9.25973566,6.35999855 C9.23763711,6.71345934 9.50626428,7.01790461 9.8597265,7.03999647 C10.2131887,7.06208834 10.5176321,6.79346022 10.5397268,6.43999943 C10.5603872,5.95799574 10.3834043,5.48844418 10.0497251,5.13999876 C9.73704584,4.81752905 9.32491739,4.60970291 8.87973077,4.54999861 L8.87973077,3.72999987 C8.87972696,3.37653765 8.59318979,3.09 8.23972757,3.09 C7.88626535,3.09 7.59972818,3.37653765 7.59972818,3.72999987 L7.59973199,4.60999998 C7.0581785,4.70525106 6.57444055,5.00624403 6.24973733,5.45000013 C5.88392313,5.93554148 5.75880868,6.56110891 5.90973337,7.14999994 C6.18973215,8.04999956 6.76973398,8.37000021 8.01973398,8.80999979 C9.26973398,9.24999937 9.32973535,9.39999994 9.40973337,9.64999994 C9.43086298,9.83947596 9.37702615,10.0296987 9.25973566,10.1799987 C8.99276407,10.47199 8.60331399,10.6203512 8.2097326,10.5799993 C7.07973154,10.5799993 6.98973138,9.97999891 6.97973306,9.91999945 C6.96350915,9.57041677 6.66950662,9.29868731 6.31973321,9.30999979 C6.14992959,9.31777319 5.99019296,9.39277681 5.87575586,9.51846823 C5.76132257,9.64416059 5.70158823,9.81021246 5.70973642,9.97999987 C5.82195337,10.9613145 6.61488397,11.7248815 7.59973199,11.8000005 L7.59973199,12.61 C7.59972818,12.9634622 7.88626535,13.2500003 8.23972757,13.2500003 C8.59318979,13.2500003 8.87972696,12.9634622 8.87972696,12.61 L8.87973077,11.7699998 C9.4466253,11.6650079 9.95341928,11.3509391 10.2997289,10.8899988 C10.6391683,10.4038413 10.7453924,9.7921327 10.5897299,9.21999868 L10.5897299,9.21999964 Z" id="Path-884" stroke="#FFFFFF" stroke-width="0.100000001" fill="#FFFFFF" fill-rule="nonzero"></path>
                </g>
            </g>
            <g id="50x50-Spacers" fill-rule="nonzero">
                <rect id="Rectangle-293" x="0" y="0" width="50" height="50"></rect>
            </g>
        </g>
    </g>
</svg>