<?xml version="1.0" encoding="UTF-8"?>
<svg width="24px" height="24px" viewBox="0 0 24 24" version="1.1" xmlns="http://www.w3.org/2000/svg" xmlns:xlink="http://www.w3.org/1999/xlink">
    <title>UI/Icon/Switch</title>
    <g id="UI/Icon/Switch" stroke="none" stroke-width="1" fill="none" fill-rule="evenodd">
        <path d="M8.29289322,13.2928932 C8.65337718,12.9324093 9.22060824,12.9046797 9.61289944,13.2097046 L9.70710678,13.2928932 L15.7071068,19.2928932 C16.0675907,19.6533772 16.0953203,20.2206082 15.7902954,20.6128994 L15.7071068,20.7071068 L9.70710678,26.7071068 C9.31658249,27.0976311 8.68341751,27.0976311 8.29289322,26.7071068 C7.93240926,26.3466228 7.90467972,25.7793918 8.20970461,25.3871006 L8.29289322,25.2928932 L13.585,20 L8.29289322,14.7071068 C7.93240926,14.3466228 7.90467972,13.7793918 8.20970461,13.3871006 L8.29289322,13.2928932 Z" id="Path" fill="#005EB9" transform="translate(12, 20) rotate(-270) translate(-12, -20)"></path>
        <path d="M8.29289322,-2.70710678 C8.65337718,-3.06759074 9.22060824,-3.09532028 9.61289944,-2.79029539 L9.70710678,-2.70710678 L15.7071068,3.29289322 C16.0675907,3.65337718 16.0953203,4.22060824 15.7902954,4.61289944 L15.7071068,4.70710678 L9.70710678,10.7071068 C9.31658249,11.0976311 8.68341751,11.0976311 8.29289322,10.7071068 C7.93240926,10.3466228 7.90467972,9.77939176 8.20970461,9.38710056 L8.29289322,9.29289322 L13.585,4 L8.29289322,-1.29289322 C7.93240926,-1.65337718 7.90467972,-2.22060824 8.20970461,-2.61289944 L8.29289322,-2.70710678 Z" id="Path" fill="#005EB9" transform="translate(12, 4) scale(1, -1) rotate(-270) translate(-12, -4)"></path>
    </g>
</svg>