<?xml version="1.0" encoding="UTF-8"?>
<svg width="192px" height="56px" viewBox="0 0 192 56" version="1.1" xmlns="http://www.w3.org/2000/svg" xmlns:xlink="http://www.w3.org/1999/xlink">
    <title>Logos/Vendors/Teladoc-Health</title>
    <g id="Logos/Vendors/Teladoc-Health" stroke="none" stroke-width="1" fill="none" fill-rule="evenodd">
        <g id="Teladoc-Health-logo" transform="translate(10, -0)" fill-rule="nonzero">
            <path d="M92,56 L92,42.2522986 L94.2242528,42.2522986 L94.2242528,47.897021 L100.511708,47.897021 L100.511708,42.2522986 L102.73596,42.2522986 L102.73596,56 L100.511708,56 L100.511708,50.0066201 L94.2242528,50.0066201 L94.2242528,56 L92,56 L92,56 Z M107.854369,53.8859875 L107.854369,49.9889665 L112.745098,49.9889665 L112.745098,47.9146745 L107.854369,47.9146745 L107.854369,44.3663111 L113.555111,44.3663111 L113.555111,42.2522986 L105.630116,42.2522986 L105.630116,56 L113.765277,56 L113.765277,53.8859875 L107.84999,53.8859875 L107.854369,53.8859875 Z M132.789644,53.8859875 L132.789644,42.2522986 L130.565391,42.2522986 L130.565391,56 L138.468494,56 L138.468494,53.8859875 L132.789644,53.8859875 Z M152.488292,56 L152.488292,50.0066201 L158.775747,50.0066201 L158.775747,56 L161,56 L161,42.2522986 L158.775747,42.2522986 L158.775747,47.897021 L152.488292,47.897021 L152.488292,42.2522986 L150.26404,42.2522986 L150.26404,56 L152.488292,56 Z M141.844279,56 L144.081668,56 L144.081668,44.3663111 L148.083571,44.3663111 L148.083571,42.2522986 L137.842376,42.2522986 L137.842376,44.3663111 L141.844279,44.3663111 L141.844279,56 Z M118.888064,52.9768297 L117.719018,56 L115.31087,56 L120.797068,42.2522986 L122.889968,42.2522986 L128.376166,56 L125.968018,56 L124.798972,52.9768297 L118.888064,52.9768297 L118.888064,52.9768297 Z M123.997716,50.9025377 L121.843518,45.3372563 L119.68932,50.9025377 L123.997716,50.9025377 L123.997716,50.9025377 Z M126.497811,8 C127.500476,8.58698051 128.179136,9.67708716 128.179136,10.9304892 C128.179136,12.1838911 127.500476,13.2739978 126.497811,13.8609783 C130.009328,13.8609783 132.855321,16.72968 132.855321,20.2692166 C132.855321,23.8087532 130.009328,26.6774549 126.497811,26.6774549 C125.495146,27.2644355 124.816486,28.3545421 124.816486,29.6079441 C124.816486,30.8613461 125.495146,31.9514527 126.497811,32.5384332 C133.218732,32.5384332 138.669903,27.0437661 138.669903,20.2692166 C138.669903,13.4946672 133.218732,8 126.497811,8" id="Shape" fill="#00B2E2"></path>
            <path d="M15.9208906,32.4049686 L9.51835246,32.4049686 L9.51835246,5.79604648 L0,5.79604648 L0,0 L25.3515971,0 L25.3515971,5.79604648 L15.9208906,5.79604648 L15.9208906,32.4049686 Z M55.7647491,0 L49.6558249,0 L49.6558249,32.4049686 L55.7647491,32.4049686 L55.7647491,0 Z M154.419054,27.1466542 C150.904451,27.1466542 148.055957,24.2816883 148.055957,20.7467611 C148.055957,17.2118338 150.904451,14.3468679 154.419054,14.3468679 C156.474352,14.3468679 158.301771,15.3297716 159.467462,16.8504074 L164.082022,13.2890343 C161.855815,10.3755843 158.354358,8.4935221 154.419054,8.4935221 C147.692226,8.4935221 142.236264,13.9810338 142.236264,20.7467611 C142.236264,27.5124883 147.692226,33 154.419054,33 C158.354358,33 161.855815,31.1179378 164.082022,28.2044878 L159.467462,24.6431147 C158.301771,26.1637505 156.474352,27.1466542 154.419054,27.1466542 M111.306001,0 L111.306001,20.7467611 C111.306001,27.5124883 105.850039,33 99.123211,33 C92.3963827,33 86.940421,27.5124883 86.940421,20.7467611 C86.940421,13.9810338 92.3963827,8.4935221 99.123211,8.4935221 C101.454594,8.4935221 103.632596,9.15466809 105.486308,10.3006545 L105.486308,0 L111.306001,0 Z M105.486308,20.7467611 C105.486308,17.2118338 102.637814,14.3468679 99.123211,14.3468679 C95.6086075,14.3468679 92.7601135,17.2118338 92.7601135,20.7467611 C92.7601135,24.2816883 95.6086075,27.1466542 99.123211,27.1466542 C102.637814,27.1466542 105.486308,24.2816883 105.486308,20.7467611 M126.771133,33 C125.767586,32.4137839 125.08833,31.3250968 125.08833,30.0733271 C125.08833,28.8215574 125.767586,27.7328703 126.771133,27.1466542 C123.256529,27.1466542 120.408035,24.2816883 120.408035,20.7467611 C120.408035,17.2118338 123.256529,14.3468679 126.771133,14.3468679 C127.774679,13.7606518 128.453935,12.6719647 128.453935,11.420195 C128.453935,10.1684253 127.774679,9.07973821 126.771133,8.4935221 C120.044304,8.4935221 114.588343,13.9810338 114.588343,20.7467611 C114.588343,27.5124883 120.039922,33 126.771133,33 M71.4752894,8.4935221 C64.7484611,8.4935221 59.2924994,13.9810338 59.2924994,20.7467611 C59.2924994,27.5124883 64.7484611,33 71.4752894,33 C73.8066722,33 75.9846746,32.2066248 77.8383869,30.8358488 L77.8383869,32.7046881 L83.6580794,32.7046881 L83.6580794,20.7467611 C83.6580794,13.9810338 78.2021177,8.4935221 71.4752894,8.4935221 M71.4752894,27.1466542 C67.960686,27.1466542 65.1121919,24.2816883 65.1121919,20.7467611 C65.1121919,17.2118338 67.960686,14.3468679 71.4752894,14.3468679 C74.9898928,14.3468679 77.8383869,17.2118338 77.8383869,20.7467611 C77.8383869,24.2816883 74.9898928,27.1466542 71.4752894,27.1466542 M167.237277,32.4093763 L167.728095,32.4093763 L167.728095,29.2799519 L168.885022,29.2799519 L168.885022,28.8347803 L166.080351,28.8347803 L166.080351,29.2799519 L167.237277,29.2799519 L167.237277,32.4093763 Z M171.308433,31.9774275 L172.535476,29.8220916 L172.535476,32.4093763 L173,32.4093763 L173,28.8347803 L172.601211,28.8347803 L171.185728,31.347135 L169.770246,28.8347803 L169.371457,28.8347803 L169.371457,32.4093763 L169.83598,32.4093763 L169.83598,29.8220916 L171.063024,31.9774275 L171.30405,31.9774275 L171.308433,31.9774275 Z M27.6917446,23.0872178 C28.638321,25.643649 31.0792613,27.4640043 33.9452846,27.4640043 C36.1057578,27.4640043 38.0208223,26.4282089 39.2391012,24.8326432 L43.6082529,28.2044878 C41.3820452,31.1179378 37.884971,33 33.9452846,33 C27.2184563,33 21.7624946,27.5124883 21.7624946,20.7467611 C21.7624946,13.9810338 27.2184563,8.4935221 33.9452846,8.4935221 C40.6721129,8.4935221 46.1280746,13.9810338 46.1280746,20.7467611 C46.1280746,21.5489515 46.0491932,22.3291038 45.9045773,23.0872178 L27.6917446,23.0872178 Z M27.6917446,18.4063043 L40.2032069,18.4063043 C39.2566304,15.8498731 36.8156901,14.0295178 33.9496669,14.0295178 C31.0836436,14.0295178 28.638321,15.8542808 27.6961269,18.4063043" id="Shape" fill="#302765"></path>
        </g>
    </g>
</svg>