<?xml version="1.0" encoding="UTF-8"?>
<svg width="28px" height="28px" viewBox="0 0 28 28" version="1.1" xmlns="http://www.w3.org/2000/svg" xmlns:xlink="http://www.w3.org/1999/xlink">
    <title>5A54A417-C930-4129-BA76-19DF6D6A1770</title>
    <g id="Social-Media/Outline/Tiktok-White" stroke="none" stroke-width="1" fill="none" fill-rule="evenodd">
        <g id="Group-5" transform="translate(-0, -0)">
            <path d="M14,0.5 C17.7279222,0.5 21.1029222,2.01103887 23.5459417,4.45405831 C25.9889611,6.89707775 27.5,10.2720778 27.5,14 C27.5,17.7279222 25.9889611,21.1029222 23.5459417,23.5459417 C21.1029222,25.9889611 17.7279222,27.5 14,27.5 C10.2720778,27.5 6.89707775,25.9889611 4.45405831,23.5459417 C2.01103887,21.1029222 0.5,17.7279222 0.5,14 C0.5,10.2720778 2.01103887,6.89707775 4.45405831,4.45405831 C6.89707775,2.01103887 10.2720778,0.5 14,0.5 Z" id="back" stroke="#FFFFFF"></path>
            <path d="M20.4343,12.5646 C20.3113,12.5766 20.1883,12.5826 20.0643,12.5836 C18.7103,12.5836 17.4463,11.9006 16.7043,10.7676 L16.7043,16.9516 C16.7043,19.4756 14.6583,21.5216 12.1343,21.5216 C9.6103,21.5216 7.5633,19.4756 7.5633,16.9516 C7.5633,14.4266 9.6103,12.3806 12.1343,12.3806 C12.2293,12.3806 12.3223,12.3896 12.4163,12.3956 L12.4163,14.6476 C12.3223,14.6366 12.2303,14.6186 12.1343,14.6186 C10.8453,14.6186 9.8013,15.6636 9.8013,16.9516 C9.8013,18.2396 10.8453,19.2846 12.1343,19.2846 C13.4223,19.2846 14.5603,18.2696 14.5603,16.9806 L14.5833,6.4786 L16.7373,6.4786 C16.9403,8.4106 18.4983,9.9196 20.4363,10.0616 L20.4363,12.5646" id="Fill-3" fill="#FFFFFF"></path>
        </g>
    </g>
</svg>