<?xml version="1.0" encoding="UTF-8"?>
<svg width="50px" height="50px" viewBox="0 0 50 50" version="1.1" xmlns="http://www.w3.org/2000/svg" xmlns:xlink="http://www.w3.org/1999/xlink">
    <title>Icon-Enterprise/Primary/Transportation</title>
    <g id="Icon-Enterprise/Primary/Transportation" stroke="none" stroke-width="1" fill="none" fill-rule="evenodd">
        <g id="Icon-Transportation" transform="translate(-0, 0)" fill-rule="nonzero">
            <g id="Group" transform="translate(0, 5.24)">
                <circle id="Ellipse-26" fill="#5DC1FD" cx="36.96" cy="31.6600006" r="5.69999981"></circle>
                <circle id="Ellipse-27" fill="#5DC1FD" cx="11.6399998" cy="31.6600006" r="5.69999981"></circle>
                <path d="M40.0700016,16.4500005 L30.3600006,4.76 C29.7946186,4.12785698 28.9880867,3.76455475 28.1400032,3.76 L4,3.76 C2.34314561,3.76 1,5.10314632 1,6.76 L0,29.2899988 C0,30.9468515 1.34314549,32.2899988 3,32.2899988 L43.0799999,32.2899988 C44.7368565,32.2899988 46.0800037,30.9468515 46.0800037,29.2899988 L46.0800037,21.1000002 C46.0764332,19.8317468 45.2757282,18.7027509 44.0799999,18.2800024 L41.2399998,17.2800005 C40.7902889,17.0989454 40.3894901,16.8146169 40.0699978,16.4500005 L40.0700016,16.4500005 Z" id="Path-954" fill="#5DC1FD"></path>
                <g id="Group-598" transform="translate(1.81, -0)">
                    <path d="M40.3300014,13.3800008 L30.6199985,1.76 C30.0546145,1.12785698 29.2480826,0.764554272 28.3999991,0.76 L4.75,0.76 C3.09314585,0.76 1.75,2.10314632 1.75,3.76 L0.75,26.2900007 C0.75,27.9468553 2.09314537,29.2899988 3.75,29.2899988 L44.3399997,29.2899988 C45.9968524,29.2899988 47.3399997,27.9468553 47.3399997,26.2900007 L47.3399997,18.0300005 C47.3364406,16.7617452 46.5357318,15.6327474 45.3400035,15.2099989 L41.4999995,14.2100008 C41.0486217,14.0320184 40.6471438,13.7472112 40.3300014,13.3800008 Z" id="Path-955" fill="#FFFFFF"></path>
                    <path d="M44.3400002,30.0300181 L3.75000048,30.0300181 C1.68121123,30.0245075 0.00549292564,28.3487873 0,26.2799988 L1,3.76000023 C0.997343779,2.76370716 1.39125919,1.80730915 2.09480858,1.10188293 C2.79835796,0.396457195 3.75370407,0 4.75000095,0 L28.4000015,0 C29.4526997,0.00432205203 30.4561729,0.446285248 31.170002,1.22000027 L40.8900032,12.8900013 C41.1371078,13.150425 41.4419785,13.349102 41.7800026,13.4700012 L45.5600014,14.4700012 C47.0846214,14.9882011 48.1100006,16.4197216 48.1100006,18.0300007 L48.1100006,26.2800007 C48.1044884,28.356596 46.4165955,30.035532 44.3400002,30.0300181 L44.3400002,30.0300181 Z M4.75000048,1.49999701 C4.15150499,1.49999701 3.57769012,1.73843098 3.15544891,2.16255713 C2.73321915,2.58666325 2.49734116,3.1615324 2.50000048,3.76000023 L1.50000048,26.3199997 C1.51641297,27.550909 2.51898098,28.5400028 3.75000048,28.5400028 L44.3400002,28.5400028 C45.5826416,28.5400028 46.5900002,27.5326405 46.5900002,26.2900009 L46.5900002,18.0300007 C46.58535,17.0867252 45.9953308,16.2455502 45.1100006,15.920002 L41.3300018,14.9200001 C40.7361679,14.7190113 40.200573,14.3756828 39.7700005,13.920002 L39.7700005,13.9200001 L30.0400009,2.21000004 C29.6155014,1.75607109 29.021492,1.49890852 28.4000015,1.49999701 L4.75000048,1.49999701 Z" id="Path-956" fill="#161616"></path>
                </g>
                <g id="Group-599" transform="translate(7.38, 24.22)">
                    <circle id="Ellipse-28" fill="#FFFFFF" cx="5.66999964" cy="5.66999964" r="4.9000001"></circle>
                    <path d="M5.67015709,11.3201667 C3.37908615,11.3242014 1.31154599,9.94667222 0.432922023,7.83077027 C-0.44570337,5.71486832 0.0379058297,3.27797867 1.65793957,1.6579435 C3.27797283,0.0379083305 5.71486153,-0.44570373 7.83076443,0.432920232 C9.94666638,1.31154229 11.3241993,3.3790796 11.3201646,5.67015244 C11.3091866,8.7860048 8.7860104,11.3091829 5.67015614,11.3201667 L5.67015709,11.3201667 Z M5.67015709,1.51014411 C3.37135948,1.504627 1.50384869,3.36466767 1.50015632,5.66346909 C1.49647583,7.96227051 3.35801091,9.82829072 5.65681519,9.83014222 C7.95561852,9.83198716 9.82015576,7.96895768 9.82015576,5.67015244 C9.79830899,3.39053513 7.94985165,1.55098893 5.67015709,1.540159 L5.67015709,1.51014411 Z" id="Path-957" fill="#161616"></path>
                </g>
                <g id="Group-600" transform="translate(33.01, 24.22)">
                    <circle id="Ellipse-29" fill="#FFFFFF" cx="5.65999857" cy="5.66999964" r="4.9000001"></circle>
                    <path d="M5.65999322,11.3199999 C2.53276925,11.3199999 -0.00183768433,8.78390141 0,5.65666981 C0.00184731322,2.52943059 2.53943734,-0.00367907894 5.66666894,0 C8.79389672,0.00368710148 11.3255129,2.54277058 11.3200021,5.66999455 C11.314477,8.79201909 8.78202538,11.3199999 5.65999322,11.3199999 L5.65999322,11.3199999 Z M5.65999322,1.50999852 C3.36248879,1.50999852 1.49999337,3.37249394 1.49999337,5.66999837 C1.49999337,7.96750279 3.36248879,9.82999821 5.65999322,9.82999821 C7.95749764,9.82999821 9.81999307,7.96750279 9.81999307,5.66999837 C9.80350594,3.38422032 7.94582848,1.53994198 5.65999322,1.54000111 L5.65999322,1.50999852 Z" id="Path-958" fill="#161616"></path>
                </g>
                <path d="M42.6499994,14.76 L28.76,14.76 C28.0696447,14.76 27.51,14.2003553 27.51,13.51 L27.51,7.76 C27.51,7.0696447 28.0696447,6.51 28.76,6.51 L37.1900003,6.51 L37.1900003,8.01 L29.01,8.01 L29.01,13.3199995 L42.6499994,13.3199995 L42.6499994,14.76 Z" id="Path-959" fill="#161616"></path>
                <path d="M28.2299994,22.2099986 L15.2299994,22.2099986 C15.0765646,22.2129454 14.9261044,22.167457 14.8,22.0800013 L10.6799992,19.19 L3.55,19.19 C3.13578634,19.19 2.8,18.8542151 2.8,18.4400019 C2.8,18.0257887 3.13578634,17.69 3.55,17.69 L10.9199999,17.69 C11.0742176,17.691955 11.2241915,17.7407832 11.3499992,17.8299994 L15.4899996,20.7599978 L28.2299994,20.7599978 C28.6442125,20.7599978 28.9799994,21.0957846 28.9799994,21.5099978 C28.9799994,21.924211 28.6442125,22.2599978 28.2299994,22.2599978 L28.2299994,22.2099986 Z" id="Path-960" fill="#161616"></path>
                <path d="M23.0200016,14.7603704 L16.0200016,14.7603704 C15.3112766,14.7771894 14.7217819,14.218958 14.7,13.5103685 L14.7,7.7603704 C14.7217829,7.05178085 15.3112766,6.49354854 16.0199997,6.5103704 L23.0200016,6.5103704 C23.7287247,6.49354854 24.3182194,7.05178085 24.3400013,7.7603704 L24.3400013,13.5703699 C24.2869904,14.2552034 23.7066471,14.778391 23.0199997,14.7603685 L23.0200016,14.7603704 Z M16.2500011,13.2603704 L22.8400013,13.2603704 L22.8400013,7.96037021 L16.2500011,7.96037021 L16.2500011,13.2603704 Z" id="Path-961" fill="#161616"></path>
                <path d="M36.2899983,22.21 L32.78,22.21 C32.3657849,22.21 32.03,21.8742132 32.03,21.46 C32.03,21.0457868 32.3657849,20.71 32.78,20.71 L36.2899983,20.71 C36.7042134,20.71 37.0399983,21.0457868 37.0399983,21.46 C37.0399983,21.8742132 36.7042134,22.21 36.2899983,22.21 Z" id="Path-962" fill="#161616"></path>
                <path d="M10.1700001,14.7600033 L3.29,14.7600033 L3.29,13.2600006 L9.92000011,13.2600006 L9.92000011,7.96 L3.74000005,7.96 L3.74000005,6.46 L10.1700001,6.46 C10.5103674,6.4597286 10.8361292,6.59826601 11.0720415,6.84361494 C11.3079539,7.08896387 11.4336138,7.41990507 11.4199992,7.76000154 L11.4200001,13.5700001 C11.3879567,14.2368187 10.8375874,14.7607712 10.1700001,14.7600033 L10.1700001,14.7600033 Z" id="Path-963" fill="#161616"></path>
                <path d="M44.8399969,40.05 L38.1399962,40.05 C37.7257849,40.05 37.39,39.7142151 37.39,39.3 C37.39,38.8857849 37.7257849,38.55 38.14,38.55 L44.8399969,38.55 C45.254212,38.55 45.5899969,38.8857849 45.5899969,39.3 C45.5899969,39.7142151 45.254212,40.05 44.8399969,40.05 Z" id="Path-964" fill="#161616"></path>
                <path d="M34.12,40.05 L12.12,40.05 C11.7057868,40.05 11.37,39.7142151 11.37,39.3 C11.37,38.8857849 11.7057868,38.55 12.12,38.55 L34.12,38.55 C34.5342151,38.55 34.87,38.8857849 34.87,39.3 C34.87,39.7142151 34.5342151,40.05 34.12,40.05 Z" id="Path-965" fill="#161616"></path>
                <path d="M7.97000016,40.05 L1.76,40.05 C1.34578646,40.05 1.01,39.7142151 1.01,39.3 C1.01,38.8857849 1.34578646,38.55 1.76,38.55 L7.97000016,38.55 C8.38421334,38.55 8.72000016,38.8857849 8.72000016,39.3 C8.72000016,39.7142151 8.38421334,40.05 7.97000016,40.05 Z" id="Path-966" fill="#161616"></path>
            </g>
            <g id="50x50-Spacers">
                <rect id="Rectangle-319" x="0" y="0" width="50" height="50"></rect>
            </g>
        </g>
    </g>
</svg>