<?xml version="1.0" encoding="UTF-8"?>
<svg width="24px" height="24px" viewBox="0 0 24 24" version="1.1" xmlns="http://www.w3.org/2000/svg" xmlns:xlink="http://www.w3.org/1999/xlink">
    <title>UI/Icon/View-More</title>
    <g id="UI/Icon/View-More" stroke="none" stroke-width="1" fill="none" fill-rule="evenodd">
        <g id="Icon-App/Function/Minimize">
            <g id="24x24-Spacers">
                <rect id="Rectangle" x="0" y="0" width="24" height="24"></rect>
            </g>
            <path d="M19.2,10 C20.1941125,10 21,10.8954305 21,12 C21,13.0543618 20.26571,13.9181651 19.3343361,13.9945143 L19.2,14 L4.8,14 C3.80588745,14 3,13.1045695 3,12 C3,10.9456382 3.73429001,10.0818349 4.66566389,10.0054857 L4.8,10 L19.2,10 Z" id="Line-2" fill="#005EB9"></path>
        </g>
        <g id="Icon-App/Function/Minimize" transform="translate(12, 12) rotate(-270) translate(-12, -12)translate(3, 10)" fill="#005EB9">
            <path d="M16.2,5.35638997e-13 C17.1941125,5.35638997e-13 18,0.8954305 18,2 C18,3.0543618 17.26571,3.91816512 16.3343361,3.99451426 L16.2,4 L1.8,4 C0.80588745,4 0,3.1045695 0,2 C0,0.945638205 0.734290012,0.0818348781 1.66566389,0.00548573643 L1.8,5.35638997e-13 L16.2,5.35638997e-13 Z" id="Line-2"></path>
        </g>
    </g>
</svg>