<?xml version="1.0" encoding="UTF-8"?>
<svg width="24px" height="24px" viewBox="0 0 24 24" version="1.1" xmlns="http://www.w3.org/2000/svg" xmlns:xlink="http://www.w3.org/1999/xlink">
    <title>Icon-App/Label/Vision</title>
    <g id="Icon-App/Label/Vision" stroke="none" stroke-width="1" fill="none" fill-rule="evenodd">
        <g id="24x24-Spacers">
            <rect id="Rectangle" x="0" y="0" width="24" height="24"></rect>
        </g>
        <path d="M8.82054226,3.01476716 C9.37228383,2.92223235 9.87936061,3.27368668 9.98533002,3.81376967 C10.0755354,4.36364 9.74098732,4.87258146 9.2225254,4.99091925 C9.15421454,5.01761199 9.09203414,5.01761199 9.05262403,5.01761199 C8.15757659,5.06832818 7.26340493,5.15285517 6.32982316,5.27564175 L6.21772328,5.28898812 C6.17481005,5.29343691 6.14415774,5.29699594 6.13189682,5.30144473 C6.08985936,5.31568085 6.05657971,5.32635794 6.03030631,5.34504286 C5.95323764,5.39664881 5.89631192,5.45715234 5.86565961,5.51943539 C5.83413153,5.57015158 5.82274638,5.60396238 5.80960968,5.645781 L5.59241617,6.59871161 C5.52585687,6.92436297 5.41025387,7.46889474 5.28151417,8.07481981 C5.04680506,9.17811949 4.78056786,10.429119 4.6719711,11.0163591 L4.36172873,12.708923 C4.39878732,12.7061324 4.43624658,12.7047128 4.47405693,12.7047128 L9.89493177,12.7047128 C10.4170857,12.7047128 10.9180712,13.0101717 11.172974,13.4835436 C11.2400073,13.5764317 11.3158607,13.5764317 11.3405572,13.5764317 L12.6662283,13.5764317 C12.7217954,13.5764317 12.7950028,13.5612481 12.8302835,13.4906889 C13.0807762,13.0048127 13.5711775,12.7047128 14.1118538,12.7047128 L19.5494869,12.7047128 L19.655,12.709 L19.3329518,11.0729192 C19.2481425,10.6167233 19.0699125,9.76627097 18.8841751,8.8927275 L18.7725191,8.36879981 L18.7173041,8.11032524 C18.5885297,7.50476639 18.4721035,6.9608352 18.4041882,6.63036798 L18.18192,5.66040203 C18.1730998,5.63718001 18.1625156,5.60324013 18.1439933,5.57644549 C18.0946003,5.47998479 18.0390333,5.41657081 17.9887583,5.39066932 C17.9376013,5.35851575 17.9040847,5.34690474 17.8617479,5.33350742 C17.8396975,5.32814849 17.814119,5.32546903 17.763844,5.3201101 L17.6632941,5.30760594 C16.8200861,5.21114524 16.1177159,5.15621236 15.1642558,5.10262308 L14.7720433,5.02626222 C14.2401872,4.91372474 13.8917906,4.38944295 13.9799923,3.83122129 C14.0355593,3.55077073 14.1899122,3.31765737 14.4157085,3.16582108 C14.6370947,3.01845056 14.8990537,2.96664759 15.1548385,3.02113002 C16.1903262,3.2185172 17.0617587,3.36142195 17.8917365,3.47127997 L17.9949324,3.48735675 C18.0998924,3.50343354 18.2410151,3.5257624 18.3733176,3.56595436 C18.5470749,3.62400941 18.7155401,3.69992756 18.8822413,3.7937088 C19.2218177,4.00270699 19.4864227,4.26529446 19.6998708,4.5993343 C19.7986566,4.75831583 19.8762741,4.93426729 19.9327232,5.1271887 L19.9891723,5.35672944 L20.1938001,6.20076059 C20.2820018,6.55802245 20.4266526,7.17876494 20.5845335,7.85577617 C20.8253241,8.8891561 21.0969853,10.0591887 21.242518,10.6049062 C21.474476,11.5775776 21.6096581,12.2276426 21.8192006,13.165266 L22,14.2679043 C21.9994034,14.3012348 21.9970357,14.3346476 21.9900272,14.3677668 L21.9900272,15.9781246 C21.9900272,16.1781912 21.8374383,16.3407454 21.6486867,16.3407454 C21.5719513,16.3541427 21.4325926,16.3854031 21.3399809,16.4157704 C21.0012865,16.5747519 20.7604959,16.9168301 20.7331534,17.3008866 L20.6299574,18.5405853 C20.6308394,19.3372792 19.975501,20 19.1711017,20 L14.9030228,20 C14.2794369,20 13.7255304,19.6034393 13.5244306,19.0130641 L13.0437315,17.6384991 C12.9008448,17.2490837 12.5277517,16.985603 12.1149679,16.985603 L11.8741773,16.985603 C11.4508093,16.985603 11.0865364,17.2419384 10.9462957,17.6384991 L10.4647146,19.0148504 C10.2636148,19.6034393 9.70970825,20 9.08612242,20 L4.81892547,20 C4.0136442,20 3.35918778,19.3372792 3.35918778,18.521829 L3.25687384,17.3035661 C3.22953132,16.9168301 2.98874076,16.5747519 2.6271139,16.407732 C2.58124903,16.3889757 2.4374803,16.3568222 2.30958787,16.3380659 C2.14024066,16.321096 2,16.1781912 2,15.9781246 L2,14.340079 C2,14.2954481 2.00630446,14.2526833 2.0180468,14.2127061 L2,14.180102 L2.22635968,12.9578737 C2.30605569,12.668999 2.36711648,12.4019657 2.42131681,12.142213 L2.57511115,11.3702354 C2.6273653,11.1104827 2.68453374,10.8434495 2.75839121,10.5545748 C2.91340431,9.96822442 3.21992741,8.64960335 3.46602167,7.5899018 C3.60089183,7.0080002 3.72262529,6.48660212 3.79969395,6.16539956 L4.07468896,5.11548534 C4.13336623,4.93842354 4.20780756,4.76759004 4.29888871,4.60031557 C4.51783377,4.25686906 4.80421392,3.97303632 5.11424014,3.78707694 C5.26137123,3.69365237 5.43477572,3.61535368 5.62394426,3.55751943 C5.7553113,3.51748032 5.89631192,3.49612614 6.00052978,3.4801105 L6.0881078,3.46587437 C7.18983939,3.31995409 8.02796111,3.18204163 8.82054226,3.01476716 Z M9.89845983,14.1998537 L4.47405693,14.2141441 L4.83215573,18.521829 L9.10376276,18.5254017 L9.89845983,16.2210627 L9.89845983,14.1998537 Z M19.5362567,14.1819906 L14.1118538,14.2141441 L14.125084,16.2031996 L14.9391855,18.5164701 L19.1922701,18.498607 L19.5362567,14.1819906 Z" id="Combined-Shape" fill="#005EB9"></path>
    </g>
</svg>