<?xml version="1.0" encoding="UTF-8"?>
<svg width="50px" height="50px" viewBox="0 0 50 50" version="1.1" xmlns="http://www.w3.org/2000/svg" xmlns:xlink="http://www.w3.org/1999/xlink">
    <title>Icon-Enterprise/Primary/Awards-Honors</title>
    <g id="Icon-Enterprise/Primary/Awards-Honors" stroke="none" stroke-width="1" fill="none" fill-rule="evenodd">
        <g id="Icon-Awards">
            <g id="Group" transform="translate(0.0392, 1.3974)" fill-rule="nonzero">
                <g transform="translate(0, 2.9608)" fill="#5DC1FD" id="Path">
                    <g transform="translate(29.0528, 0.0018)">
                        <path d="M7.20801113,12.0999972 C7.33801113,12.1599972 7.47801113,12.1899972 7.60801113,12.1899972 C7.93801113,12.1899972 8.24801113,12.0199972 8.42801113,11.7199972 C8.50801113,11.5799972 10.3980111,8.22999719 9.39801113,5.02999719 C8.39801113,1.82999719 4.93801113,0.159997193 4.78801113,0.0899971925 C4.34801113,-0.120002807 3.81801113,0.0499971925 3.56801113,0.469997193 C3.48801113,0.609997193 1.59801113,3.94999719 2.59801113,7.15999719 C3.59801113,10.3599972 7.05801113,12.0299972 7.20801113,12.0999972 Z"></path>
                        <path d="M11.7180111,20.8699972 C11.8880111,21.1699972 12.2080111,21.3399972 12.5380111,21.3399972 C12.6780111,21.3399972 12.8080111,21.3099972 12.9380111,21.2499972 C13.0880111,21.1799972 16.5380111,19.5099972 17.5380111,16.2999972 C18.5380111,13.0999972 16.6380111,9.74999719 16.5580111,9.60999719 C16.3080111,9.17999719 15.7780111,9.01999719 15.3380111,9.22999719 C15.1880111,9.29999719 11.7380111,10.9699972 10.7380111,14.1799972 C9.73801113,17.3799972 11.6380111,20.7299972 11.7180111,20.8699972 Z"></path>
                        <path d="M18.1680111,23.6999972 C18.0080111,23.6799972 14.1980111,23.2099972 11.6180111,25.3599972 C9.03801113,27.5099972 8.82801113,31.3499972 8.81801113,31.5099972 C8.79801113,31.9999972 9.14801113,32.4299972 9.63801113,32.4899972 C9.68801113,32.4899972 10.0980111,32.5499972 10.7080111,32.5499972 C12.0580111,32.5499972 14.4180111,32.3099972 16.1880111,30.8299972 C18.7680111,28.6799972 18.9780111,24.8399972 18.9880111,24.6799972 C19.0080111,24.1899972 18.6580111,23.7599972 18.1680111,23.6999972 Z"></path>
                        <path d="M6.21801113,34.9799972 C2.86801113,35.0899972 0.338011129,37.9899972 0.228011129,38.1099972 C-0.0919888709,38.4799972 -0.0719888709,39.0399972 0.268011129,39.3899972 C0.378011129,39.4999972 2.98801113,42.1099972 6.24801113,42.1099972 C6.31801113,42.1099972 6.38801113,42.1099972 6.45801113,42.1099972 C9.80801113,41.9999972 12.3380111,39.0999972 12.4480111,38.9799972 C12.7680111,38.6099972 12.7480111,38.0499972 12.4080111,37.6999972 C12.2980111,37.5799972 9.57801113,34.8699972 6.21801113,34.9899972 L6.21801113,34.9799972 Z"></path>
                    </g>
                    <g transform="translate(-0, 0)">
                        <path d="M16.3908154,7.16181984 C17.3908154,3.96181984 15.5008154,0.611819844 15.4208154,0.471819844 C15.1808154,0.0418198444 14.6408154,-0.118180156 14.2008154,0.0918198444 C14.0508154,0.161819844 10.5908154,1.83181984 9.59081541,5.03181984 C8.59081541,8.23181984 10.4808154,11.5818198 10.5608154,11.7218198 C10.7308154,12.0218198 11.0508154,12.1918198 11.3808154,12.1918198 C11.5208154,12.1918198 11.6508154,12.1618198 11.7808154,12.1018198 C11.9308154,12.0318198 15.3908154,10.3618198 16.3908154,7.16181984 Z"></path>
                        <path d="M8.25081541,14.1818198 C7.25081541,10.9818198 3.79081541,9.30181984 3.65081541,9.23181984 C3.21081541,9.02181984 2.68081541,9.19181984 2.43081541,9.61181984 C2.35081541,9.75181984 0.45081541,13.0918198 1.45081541,16.3018198 C2.45081541,19.5018198 5.91081541,21.1818198 6.05081541,21.2518198 C6.18081541,21.3118198 6.32081541,21.3418198 6.45081541,21.3418198 C6.78081541,21.3418198 7.09081541,21.1718198 7.27081541,20.8718198 C7.35081541,20.7318198 9.25081541,17.3918198 8.25081541,14.1818198 L8.25081541,14.1818198 Z"></path>
                        <path d="M0.000815409705,24.6818198 C0.000815409705,24.8418198 0.23081541,28.6818198 2.80081541,30.8318198 C4.57081541,32.3118198 6.92081541,32.5518198 8.28081541,32.5518198 C8.90081541,32.5518198 9.30081541,32.5018198 9.35081541,32.4918198 C9.84081541,32.4318198 10.1908154,32.0018198 10.1708154,31.5118198 C10.1708154,31.3518198 9.94081541,27.5118198 7.37081541,25.3618198 C4.79081541,23.2118198 0.98081541,23.6718198 0.82081541,23.7018198 C0.33081541,23.7618198 -0.0191845903,24.1918198 0.000815409705,24.6818198 Z"></path>
                        <path d="M6.59081541,37.6918198 C6.25081541,38.0418198 6.23081541,38.5918198 6.55081541,38.9718198 C6.66081541,39.0918198 9.19081541,41.9818198 12.5408154,42.1018198 C12.6108154,42.1018198 12.6808154,42.1018198 12.7508154,42.1018198 C16.0108154,42.1018198 18.6208154,39.5018198 18.7308154,39.3818198 C19.0808154,39.0318198 19.0908154,38.4818198 18.7708154,38.1018198 C18.6608154,37.9818198 16.1308154,35.0918198 12.7808154,34.9718198 C9.42081541,34.8618198 6.70081541,37.5718198 6.59081541,37.6818198 L6.59081541,37.6918198 Z"></path>
                    </g>
                </g>
                <g transform="translate(1.459, 0)">
                    <g transform="translate(27.9446, 0.0046)">
                        <g transform="translate(2.3135, 0)">
                            <path d="M5.64367414,12.8479818 C5.77367414,12.9079818 5.91367414,12.9379818 6.04367414,12.9379818 C6.37367414,12.9379818 6.68367414,12.7679818 6.86367414,12.4679818 C6.94367414,12.3279818 8.83367414,8.97798178 7.83367414,5.77798178 C6.83367414,2.57798178 3.37367414,0.907981776 3.22367414,0.837981776 C2.78367414,0.627981776 2.25367414,0.797981776 2.00367414,1.21798178 C1.92367414,1.35798178 0.0336741394,4.69798178 1.03367414,7.90798178 C2.03367414,11.1079818 5.49367414,12.7779818 5.64367414,12.8479818 Z" id="Path" fill="#FFFFFF"></path>
                            <path d="M6.05367414,13.6879818 C5.80367414,13.6879818 5.56367414,13.6379818 5.33367414,13.5279818 C5.15367414,13.4379818 1.42367414,11.6479818 0.323674139,8.13798178 C-0.776325861,4.61798178 1.27367414,1.00798178 1.35367414,0.847981776 C1.79367414,0.0879817756 2.75367414,-0.212018224 3.54367414,0.157981776 C3.94367414,0.347981776 7.48367414,2.12798178 8.55367414,5.54798178 C9.62367414,8.97798178 7.74367414,12.4479818 7.52367414,12.8279818 C7.22367414,13.3579818 6.65367414,13.6779818 6.05367414,13.6779818 L6.05367414,13.6879818 Z M2.82367414,1.49798178 C2.75367414,1.49798178 2.69367414,1.53798178 2.65367414,1.59798178 C2.63367414,1.62798178 0.843674139,4.78798178 1.75367414,7.68798178 C2.66367414,10.5879818 5.93367414,12.1579818 5.96367414,12.1779818 L5.96367414,12.1779818 C6.04367414,12.2179818 6.14367414,12.2079818 6.21367414,12.0979818 C6.28367414,11.9679818 8.01367414,8.88798178 7.11367414,6.00798178 C6.21367414,3.13798178 3.03367414,1.58798178 2.89367414,1.51798178 C2.87367414,1.50798178 2.84367414,1.49798178 2.81367414,1.49798178 L2.82367414,1.49798178 Z" id="Shape" fill="#161616"></path>
                        </g>
                        <g transform="translate(10.4576, 9.1436)">
                            <path d="M2.009647,12.4744221 C2.179647,12.7744221 2.499647,12.9444221 2.829647,12.9444221 C2.969647,12.9444221 3.099647,12.9144221 3.229647,12.8544221 C3.379647,12.7844221 6.829647,11.1144221 7.829647,7.90442207 C8.829647,4.70442207 6.929647,1.35442207 6.849647,1.21442207 C6.599647,0.784422068 6.069647,0.624422068 5.629647,0.834422068 C5.479647,0.904422068 2.029647,2.57442207 1.029647,5.78442207 C0.0296469989,8.98442207 1.929647,12.3344221 2.009647,12.4744221 Z" id="Path" fill="#FFFFFF"></path>
                            <path d="M2.829647,13.6944221 C2.229647,13.6944221 1.659647,13.3644221 1.359647,12.8444221 C1.269647,12.6744221 -0.770353001,9.06442207 0.319646999,5.56442207 C1.419647,2.02442207 5.159647,0.234422068 5.319647,0.164422068 C6.109647,-0.215577932 7.069647,0.0844220682 7.509647,0.844422068 C7.729647,1.23442207 9.619647,4.70442207 8.549647,8.13442207 C7.449647,11.6644221 3.709647,13.4644221 3.549647,13.5344221 C3.329647,13.6444221 3.079647,13.6944221 2.829647,13.6944221 Z M6.039647,1.49442207 C6.039647,1.49442207 5.979647,1.49442207 5.959647,1.51442207 C5.919647,1.53442207 2.659647,3.09442207 1.749647,6.00442207 C0.849646999,8.89442207 2.589647,11.9644221 2.659647,12.0944221 L2.659647,12.0944221 C2.689647,12.1544221 2.759647,12.1944221 2.829647,12.1944221 C2.949647,12.1544221 6.209647,10.5944221 7.119647,7.68442207 C8.009647,4.81442207 6.279647,1.72442207 6.209647,1.59442207 C6.179647,1.53442207 6.109647,1.50442207 6.049647,1.50442207 L6.039647,1.49442207 Z" id="Shape" fill="#161616"></path>
                        </g>
                        <g transform="translate(8.8254, 23.6502)">
                            <path d="M10.1017763,0.807775853 C9.94177633,0.787775853 6.13177633,0.317775853 3.55177633,2.46777585 C0.971776326,4.61777585 0.761776326,8.45777585 0.751776326,8.61777585 C0.731776326,9.10777585 1.08177633,9.53777585 1.57177633,9.59777585 C1.62177633,9.59777585 2.03177633,9.65777585 2.64177633,9.65777585 C3.99177633,9.65777585 6.35177633,9.41777585 8.12177633,7.93777585 C10.7017763,5.78777585 10.9117763,1.94777585 10.9217763,1.78777585 C10.9417763,1.29777585 10.5917763,0.867775853 10.1017763,0.807775853 L10.1017763,0.807775853 Z" id="Path" fill="#FFFFFF"></path>
                            <path d="M2.64177633,10.4077759 C1.96177633,10.4077759 1.52177633,10.3477759 1.47177633,10.3477759 C0.601776326,10.2377759 -0.0382236744,9.45777585 0.00177632556,8.58777585 C0.00177632556,8.41777585 0.241776326,4.26777585 3.07177633,1.89777585 C5.84177633,-0.412224147 9.76177633,0.00777585311 10.2017763,0.0677758531 L10.2017763,0.0677758531 C11.0717763,0.177775853 11.7117763,0.957775853 11.6717763,1.82777585 C11.6517763,2.27777585 11.3617763,6.21777585 8.60177633,8.51777585 C6.62177633,10.1677759 4.02177633,10.4177759 2.64177633,10.4177759 L2.64177633,10.4077759 Z M9.02177633,1.49777585 C7.78177633,1.49777585 5.63177633,1.71777585 4.03177633,3.04777585 C1.70177633,4.99777585 1.50177633,8.62777585 1.50177633,8.65777585 C1.50177633,8.75777585 1.57177633,8.84777585 1.67177633,8.85777585 C1.67177633,8.85777585 2.05177633,8.90777585 2.65177633,8.90777585 C3.82177633,8.90777585 6.03177633,8.70777585 7.65177633,7.35777585 C9.96177633,5.42777585 10.1817763,1.88777585 10.1817763,1.73777585 C10.1817763,1.64777585 10.1117763,1.55777585 10.0117763,1.53777585 C9.96177633,1.53777585 9.58177633,1.48777585 9.02177633,1.48777585 L9.02177633,1.49777585 Z" id="Shape" fill="#161616"></path>
                        </g>
                        <g transform="translate(0, 34.9758)">
                            <path d="M6.96720313,0.752191727 C3.61720313,0.862191727 1.08720313,3.76219173 0.977203133,3.88219173 C0.657203133,4.25219173 0.677203133,4.81219173 1.01720313,5.16219173 C1.12720313,5.27219173 3.73720313,7.88219173 6.99720313,7.88219173 C7.06720313,7.88219173 7.13720313,7.88219173 7.20720313,7.88219173 C10.5572031,7.77219173 13.0872031,4.87219173 13.1972031,4.75219173 C13.5172031,4.38219173 13.4972031,3.82219173 13.1572031,3.47219173 C13.0472031,3.35219173 10.3272031,0.642191727 6.96720313,0.762191727 L6.96720313,0.752191727 Z" id="Path" fill="#FFFFFF"></path>
                            <path d="M7.00720313,8.62219173 C3.42720313,8.62219173 0.607203133,5.80219173 0.487203133,5.68219173 C-0.132796867,5.06219173 -0.162796867,4.05219173 0.407203133,3.39219173 C0.697203133,3.06219173 3.33720313,0.122191727 6.93720313,0.00219172674 L6.93720313,0.00219172674 C10.5672031,-0.0878082733 13.3772031,2.62219173 13.6872031,2.93219173 C14.3072031,3.55219173 14.3372031,4.56219173 13.7672031,5.22219173 C13.6572031,5.35219173 10.9272031,8.48219173 7.23720313,8.61219173 L7.00720313,8.61219173 L7.00720313,8.62219173 Z M7.00720313,1.50219173 C3.98720313,1.60219173 1.65720313,4.26219173 1.55720313,4.37219173 C1.49720313,4.44219173 1.49720313,4.56219173 1.55720313,4.63219173 C1.58720313,4.66219173 4.04720313,7.13219173 7.00720313,7.13219173 L7.18720313,7.13219173 C10.2272031,7.02219173 12.6072031,4.29219173 12.6372031,4.26219173 C12.7072031,4.18219173 12.6972031,4.07219173 12.6372031,4.00219173 C12.5372031,3.90219173 10.1272031,1.51219173 7.18720313,1.51219173 C7.12720313,1.51219173 7.06720313,1.51219173 7.00720313,1.51219173 L7.00720313,1.51219173 L7.00720313,1.50219173 Z" id="Shape" fill="#161616"></path>
                        </g>
                    </g>
                    <g transform="translate(0, 0)">
                        <g transform="translate(9.307, 0)">
                            <path d="M7.83472814,7.91261108 C8.83472814,4.71261108 6.94472814,1.36261108 6.86472814,1.22261108 C6.62472814,0.792611077 6.08472814,0.632611077 5.64472814,0.842611077 C5.49472814,0.912611077 2.03472814,2.58261108 1.03472814,5.78261108 C0.0347281409,8.98261108 1.92472814,12.3326111 2.00472814,12.4726111 C2.17472814,12.7726111 2.49472814,12.9426111 2.82472814,12.9426111 C2.96472814,12.9426111 3.09472814,12.9126111 3.22472814,12.8526111 C3.37472814,12.7826111 6.83472814,11.1126111 7.83472814,7.91261108 L7.83472814,7.91261108 Z" id="Path" fill="#FFFFFF"></path>
                            <path d="M2.82472814,13.6926111 C2.22472814,13.6926111 1.65472814,13.3626111 1.35472814,12.8426111 C1.26472814,12.6926111 -0.775271859,9.07261108 0.324728141,5.55261108 C1.39472814,2.14261108 4.92472814,0.352611077 5.32472814,0.162611077 C6.12472814,-0.217388923 7.08472814,0.0926110767 7.52472814,0.842611077 C7.61472814,0.992611077 9.65472814,4.61261108 8.55472814,8.12261108 L8.55472814,8.12261108 C7.45472814,11.6326111 3.70472814,13.4426111 3.54472814,13.5126111 C3.31472814,13.6226111 3.07472814,13.6726111 2.82472814,13.6726111 L2.82472814,13.6926111 Z M6.05472814,1.50261108 C6.05472814,1.50261108 5.99472814,1.50261108 5.97472814,1.52261108 C5.84472814,1.58261108 2.65472814,3.15261108 1.76472814,6.01261108 C0.854728141,8.91261108 2.64472814,12.0726111 2.66472814,12.1026111 C2.70472814,12.1726111 2.77472814,12.2026111 2.83472814,12.2026111 C3.05472814,12.1226111 6.22472814,10.5926111 7.13472814,7.70261108 L7.13472814,7.70261108 C8.04472814,4.80261108 6.25472814,1.64261108 6.23472814,1.61261108 C6.19472814,1.55261108 6.13472814,1.51261108 6.06472814,1.51261108 L6.05472814,1.50261108 Z" id="Shape" fill="#161616"></path>
                        </g>
                        <g transform="translate(1.1732, 9.1382)">
                            <path d="M7.82860602,5.79442207 C6.82860602,2.59442207 3.36860602,0.914422068 3.22860602,0.844422068 C2.78860602,0.634422068 2.25860602,0.804422068 2.00860602,1.22442207 C1.92860602,1.36442207 0.0286060235,4.70442207 1.02860602,7.91442207 C2.02860602,11.1144221 5.48860602,12.7944221 5.62860602,12.8644221 C5.75860602,12.9244221 5.89860602,12.9544221 6.02860602,12.9544221 C6.35860602,12.9544221 6.66860602,12.7844221 6.84860602,12.4844221 C6.92860602,12.3444221 8.82860602,9.00442207 7.82860602,5.79442207 L7.82860602,5.79442207 Z" id="Path" fill="#FFFFFF"></path>
                            <path d="M6.03860602,13.7044221 C5.78860602,13.7044221 5.53860602,13.6444221 5.30860602,13.5344221 C5.15860602,13.4644221 1.40860602,11.6544221 0.318606024,8.13442207 C-0.771393976,4.62442207 1.27860602,1.00442207 1.35860602,0.844422068 C1.79860602,0.0844220682 2.75860602,-0.215577932 3.54860602,0.164422068 C3.70860602,0.244422068 7.44860602,2.04442207 8.54860602,5.56442207 L8.54860602,5.56442207 C9.64860602,9.07442207 7.58860602,12.6944221 7.50860602,12.8544221 C7.20860602,13.3744221 6.64860602,13.7044221 6.03860602,13.7044221 L6.03860602,13.7044221 Z M2.82860602,1.50442207 C2.75860602,1.50442207 2.69860602,1.54442207 2.65860602,1.60442207 C2.58860602,1.73442207 0.848606024,4.79442207 1.74860602,7.69442207 C2.65860602,10.5944221 5.92860602,12.1744221 5.95860602,12.1844221 C6.10860602,12.2044221 6.16860602,12.1644221 6.20860602,12.1044221 C6.27860602,11.9744221 8.01860602,8.90442207 7.11860602,6.01442207 L7.11860602,6.01442207 C6.21860602,3.11442207 2.94860602,1.53442207 2.90860602,1.52442207 C2.87860602,1.51442207 2.84860602,1.50442207 2.82860602,1.50442207 Z" id="Shape" fill="#161616"></path>
                        </g>
                        <g transform="translate(0, 23.6448)">
                            <path d="M0.751776326,1.79777585 C0.751776326,1.95777585 0.981776326,5.79777585 3.55177633,7.94777585 C5.32177633,9.42777585 7.67177633,9.66777585 9.03177633,9.66777585 C9.65177633,9.66777585 10.0517763,9.61777585 10.1017763,9.60777585 C10.5917763,9.54777585 10.9417763,9.11777585 10.9217763,8.62777585 C10.9217763,8.46777585 10.6917763,4.62777585 8.12177633,2.47777585 C5.54177633,0.327775853 1.73177633,0.787775853 1.57177633,0.817775853 C1.08177633,0.877775853 0.731776326,1.30777585 0.751776326,1.79777585 L0.751776326,1.79777585 Z" id="Path" fill="#FFFFFF"></path>
                            <path d="M9.03177633,10.4177759 C7.65177633,10.4177759 5.05177633,10.1677759 3.07177633,8.51777585 C0.241776326,6.14777585 0.0117763256,2.00777585 0.00177632556,1.82777585 C-0.0382236744,0.957775853 0.601776326,0.177775853 1.47177633,0.0677758531 C1.91177633,0.00777585311 5.83177633,-0.412224147 8.60177633,1.89777585 C11.4317763,4.25777585 11.6617763,8.40777585 11.6717763,8.58777585 C11.7117763,9.45777585 11.0717763,10.2377759 10.2017763,10.3477759 C10.1917763,10.3477759 9.73177633,10.4077759 9.03177633,10.4077759 L9.03177633,10.4177759 Z M2.66177633,1.50777585 C2.09177633,1.50777585 1.71177633,1.55777585 1.67177633,1.55777585 C1.57177633,1.56777585 1.50177633,1.65777585 1.50177633,1.75777585 L1.50177633,1.75777585 C1.50177633,1.75777585 1.70177633,5.41777585 4.03177633,7.36777585 C5.64177633,8.70777585 7.85177633,8.91777585 9.02177633,8.91777585 C9.61177633,8.91777585 9.99177633,8.86777585 9.99177633,8.86777585 C10.0917763,8.85777585 10.1717763,8.76777585 10.1617763,8.66777585 C10.1617763,8.62777585 9.96177633,5.00777585 7.63177633,3.05777585 C6.04177633,1.72777585 3.89177633,1.50777585 2.65177633,1.50777585 L2.66177633,1.50777585 Z" id="Shape" fill="#161616"></path>
                        </g>
                        <g transform="translate(6.3146, 34.9804)">
                            <path d="M1.01720313,3.46218385 C0.677203133,3.81218385 0.657203133,4.36218385 0.977203133,4.74218385 C1.08720313,4.86218385 3.61720313,7.75218385 6.96720313,7.87218385 C7.03720313,7.87218385 7.10720313,7.87218385 7.17720313,7.87218385 C10.4372031,7.87218385 13.0472031,5.27218385 13.1572031,5.15218385 C13.5072031,4.80218385 13.5172031,4.25218385 13.1972031,3.87218385 C13.0872031,3.75218385 10.5572031,0.862183853 7.20720313,0.742183853 C3.84720313,0.632183853 1.12720313,3.34218385 1.01720313,3.45218385 L1.01720313,3.46218385 Z" id="Path" fill="#FFFFFF"></path>
                            <path d="M7.17720313,8.62218385 L6.94720313,8.62218385 C3.33720313,8.49218385 0.697203133,5.56218385 0.407203133,5.23218385 C-0.162796867,4.57218385 -0.132796867,3.56218385 0.487203133,2.94218385 L0.487203133,2.94218385 C0.797203133,2.63218385 3.59720313,-0.087816147 7.23720313,0.00218385301 C10.8472031,0.122183853 13.4772031,3.05218385 13.7672031,3.39218385 C14.3372031,4.05218385 14.3072031,5.06218385 13.6872031,5.68218385 C13.5672031,5.80218385 10.7572031,8.62218385 7.17720313,8.62218385 Z M1.55720313,3.99218385 C1.48720313,4.06218385 1.48720313,4.18218385 1.55720313,4.25218385 C1.65720313,4.36218385 3.98720313,7.01218385 7.00720313,7.12218385 L7.18720313,7.12218385 C10.1472031,7.12218385 12.6072031,4.66218385 12.6372031,4.63218385 C12.7072031,4.56218385 12.7172031,4.44218385 12.6472031,4.37218385 C12.5472031,4.26218385 10.2172031,1.60218385 7.19720313,1.50218385 C4.20720313,1.36218385 1.68720313,3.87218385 1.56720313,3.99218385 L1.55720313,3.99218385 Z" id="Shape" fill="#161616"></path>
                        </g>
                    </g>
                </g>
                <path d="M20.8408154,47.2026111 C20.6508154,47.2026111 20.4608154,47.1326111 20.3108154,46.9826111 C20.0208154,46.6926111 20.0208154,46.2126111 20.3108154,45.9226111 L25.1408154,41.0926111 C25.4308154,40.8026111 25.9108154,40.8026111 26.2008154,41.0926111 L31.0308154,45.9226111 C31.3208154,46.2126111 31.3208154,46.6926111 31.0308154,46.9826111 C30.7408154,47.2726111 30.2608154,47.2726111 29.9708154,46.9826111 L25.6708154,42.6826111 L21.3708154,46.9826111 C21.2208154,47.1326111 21.0308154,47.2026111 20.8408154,47.2026111 Z" id="Path" fill="#161616"></path>
                <path d="M25.7308154,15.0626111 L28.0608154,20.4426111 L33.9008154,20.9926111 C34.6808154,21.0626111 34.9908154,22.0326111 34.4108154,22.5526111 L30.0108154,26.4326111 L31.2908154,32.1526111 C31.4608154,32.9126111 30.6408154,33.5126111 29.9608154,33.1126111 L24.9108154,30.1226111 L19.8608154,33.1126111 C19.1908154,33.5126111 18.3608154,32.9126111 18.5308154,32.1526111 L19.8108154,26.4326111 L15.4108154,22.5526111 C14.8208154,22.0326111 15.1408154,21.0626111 15.9208154,20.9926111 L21.7608154,20.4426111 L24.0908154,15.0626111 C24.4008154,14.3426111 25.4208154,14.3426111 25.7308154,15.0626111 Z" id="Path" fill="#5DC1FD"></path>
                <g transform="translate(16.179, 13.1126)">
                    <path d="M9.87180724,0.91 L12.2518072,6.41 L18.2118072,6.97 C18.4618072,6.99 18.5618072,7.3 18.3718072,7.47 L13.8818072,11.43 L15.1918072,17.28 C15.2418072,17.52 14.9818072,17.71 14.7718072,17.59 L9.61180724,14.54 L4.45180724,17.59 C4.24180724,17.72 3.97180724,17.53 4.03180724,17.28 L5.34180724,11.43 L0.851807237,7.47 C0.661807237,7.31 0.761807237,7 1.01180724,6.97 L6.97180724,6.41 L9.35180724,0.91 C9.45180724,0.68 9.77180724,0.68 9.87180724,0.91 L9.87180724,0.91 Z" id="Path" fill="#FFFFFF"></path>
                    <path d="M4.31180724,18.37 C4.10180724,18.37 3.88180724,18.3 3.70180724,18.17 C3.37180724,17.93 3.21180724,17.51 3.30180724,17.11 L4.51180724,11.7 L0.351807237,8.03 C0.0418072369,7.76 -0.0781927631,7.33 0.0518072369,6.94 C0.181807237,6.55 0.531807237,6.27 0.941807237,6.23 L6.46180724,5.71 L8.66180724,0.62 C8.82180724,0.24 9.20180724,0 9.61180724,0 C10.0218072,0 10.4018072,0.24 10.5618072,0.62 L12.7618072,5.71 L18.2818072,6.23 C18.6918072,6.27 19.0418072,6.55 19.1718072,6.94 C19.3018072,7.33 19.1718072,7.76 18.8718072,8.03 L14.7118072,11.7 L15.9218072,17.11 C16.0118072,17.51 15.8518072,17.93 15.5218072,18.17 C15.1918072,18.41 14.7418072,18.43 14.3918072,18.22 L9.62180724,15.4 L4.85180724,18.22 C4.69180724,18.32 4.51180724,18.36 4.32180724,18.36 L4.31180724,18.37 Z M2.15180724,7.62 L6.17180724,11.16 L5.00180724,16.39 L9.61180724,13.66 L14.2218072,16.39 L13.0518072,11.16 L17.0718072,7.62 L11.7418072,7.12 L9.61180724,2.2 L7.48180724,7.12 L2.15180724,7.62 L2.15180724,7.62 Z" id="Shape" fill="#161616"></path>
                </g>
            </g>
            <g id="_50x50_Spacers">
                <rect id="Rectangle" x="0" y="0" width="50" height="50"></rect>
            </g>
        </g>
    </g>
</svg>