<?xml version="1.0" encoding="UTF-8"?>
<svg width="120px" height="34px" viewBox="0 0 216 62" version="1.1" xmlns="http://www.w3.org/2000/svg" xmlns:xlink="http://www.w3.org/1999/xlink">
    <title>Logos/Partner/Wellframe</title>
    <g id="Logos/Partner/Wellframe" stroke="none" stroke-width="1" fill="none" fill-rule="evenodd">
        <g id="Wellframe-Logo_PoweredBy-Gray" fill="#444444" fill-rule="nonzero">
            <path d="M72.169932,43.9968585 C72.4291436,42.9124898 72.6926755,41.9577268 72.9086852,41.0029639 C74.2954676,35.3867113 75.6865701,29.7704588 77.0733525,24.1542062 C77.1597564,23.8517926 77.2504805,23.7610685 77.5528941,23.7221868 C78.507657,23.6357829 79.4624199,23.6357829 80.4171829,23.7221868 C80.7627984,23.7653887 80.8924042,23.8993147 80.9356062,24.2017283 C82.0674971,28.8891391 83.2382697,33.5808701 84.3658404,38.2682809 C84.7978599,40.048201 85.2774014,41.8713229 85.7094209,43.651243 C85.7526228,43.7808488 85.7958247,43.9536566 85.8865488,44.1739865 C86.6209818,40.6573484 87.3165331,37.2616757 88.0120844,33.8832837 C88.6601135,30.6690592 89.3556648,27.4029923 90.0080142,24.2017283 C90.0512161,23.9425167 90.13762,23.7697089 90.4400336,23.7697089 C91.3515946,23.683305 92.2631556,23.683305 93.1747166,23.7697089 C93.5246523,23.8172311 93.5246523,23.9468369 93.4814504,24.2492505 C92.3063575,29.0230652 91.1787868,33.844402 90.0252949,38.6182167 C89.2865417,41.6423527 88.5477885,44.7399319 87.8133555,47.7813487 C87.7226314,48.1269643 87.6362275,48.2565701 87.24741,48.299772 C86.180322,48.3861759 85.1045937,48.3861759 84.0375057,48.299772 C83.778294,48.3040922 83.5579641,48.1226441 83.5147622,47.8677526 C82.732807,44.69673 81.9076499,41.4868257 81.1300149,38.3158031 C80.3912617,35.4083123 79.6525085,32.4965014 78.9137553,29.6322126 C78.8835139,29.5242077 78.8403119,29.4248432 78.7841494,29.329799 C78.4385339,30.7597833 78.0885981,32.0644819 77.7429826,33.4080624 C76.529008,38.2293992 75.2675113,43.0464158 74.0535367,47.8677526 C73.9671328,48.1701662 73.8807289,48.299772 73.5783153,48.342974 C72.5241879,48.4509788 71.4614201,48.4509788 70.4072927,48.342974 C70.1524013,48.3472942 69.9277512,48.165846 69.8888694,47.9109545 C68.5928111,42.4415886 67.2405903,36.9679024 65.9402118,31.5417384 C65.3742664,29.1569912 64.8083209,26.7247218 64.2121341,24.3356544 C64.1257302,23.9900388 64.2121341,23.860433 64.5577497,23.860433 C65.5254732,23.7697089 66.4975169,23.7697089 67.4652404,23.860433 C67.8583781,23.860433 68.0311859,24.0332408 68.1175897,24.4652602 C69.0291507,28.8934593 69.9407117,33.3216585 70.8522727,37.7930595 C71.258371,39.6550633 71.7163116,41.7417171 72.169932,43.9968585 L72.169932,43.9968585 Z M176.545826,33.3173383 C178.148618,30.798665 180.408079,29.887104 183.229166,30.4962514 C184.464742,30.7727438 185.505909,31.6065413 186.045933,32.755713 C186.179859,32.9717227 186.266263,33.1877324 186.395869,33.4469441 C186.737164,32.9458016 187.113021,32.46626 187.523439,32.0169598 C189.562571,29.8007001 193.079209,30.1074339 194.86777,31.1918027 C196.254552,32.0558415 196.777296,33.4037422 197.079709,34.9244505 C197.204995,35.7150461 197.261157,36.514282 197.252517,37.313518 L197.252517,47.6776641 C197.252517,48.0664815 197.209315,48.2392893 196.777296,48.2392893 C195.965099,48.2824913 195.157223,48.2824913 194.345026,48.2392893 C193.913007,48.1960874 193.826603,48.0232796 193.826603,47.6344621 L193.826603,37.6980153 C193.817962,37.0845477 193.744519,36.4710801 193.606273,35.8748933 C193.08785,33.5765499 191.048718,32.621787 188.966384,33.7925596 C187.791291,34.444909 187.272868,35.5206374 187.056858,36.7864543 C186.966134,37.3480795 186.922932,37.914025 186.922932,38.4799704 L186.922932,47.5091765 C186.922932,47.9411959 186.87973,48.1615258 186.361307,48.2047278 C185.592313,48.2479297 184.827638,48.2479297 184.058644,48.2047278 C183.583422,48.1615258 183.54022,47.988718 183.54022,47.5523784 L183.54022,39.8321912 C183.605023,38.514532 183.561821,37.1925525 183.410614,35.8792135 L183.410614,35.8360115 C183.147083,34.7084408 182.801467,33.6759144 181.501089,33.3605402 C180.256873,33.045166 178.943534,33.4685451 178.114056,34.4492292 C177.021047,35.6200018 176.697033,37.0975083 176.697033,38.6052561 C176.653831,41.6034709 176.653831,44.5973655 176.697033,47.5912602 C176.697033,48.0232796 176.610629,48.2004076 176.131087,48.2436095 C175.30593,48.2954518 174.476453,48.2781711 173.655616,48.2004076 C173.353202,48.1572056 173.31,48.0275998 173.31,47.7683881 L173.31,31.1053988 C173.31,30.798665 173.396404,30.7122611 173.703138,30.6733794 C174.40733,30.5869755 175.124482,30.5869755 175.828674,30.6733794 C176.092205,30.6733794 176.303895,30.8893891 176.303895,31.1529209 C176.368698,31.844152 176.455102,32.5569841 176.545826,33.3173383 L176.545826,33.3173383 L176.545826,33.3173383 Z M137.093812,40.7869542 L137.093812,47.6776641 C137.093812,48.0232796 137.007408,48.1528854 136.661792,48.1960874 C135.840955,48.2824913 135.007158,48.2824913 134.186321,48.1960874 C133.797503,48.1528854 133.711099,48.0232796 133.711099,47.6776641 L133.711099,33.8530424 C133.711099,33.5506288 133.624696,33.4210229 133.317962,33.4599047 C132.626731,33.5031066 131.887977,33.4599047 131.192426,33.4599047 C130.933215,33.4599047 130.846811,33.3735008 130.803609,33.1142891 C130.717205,32.4792206 130.717205,31.8398318 130.803609,31.2047633 C130.846811,30.9023497 130.933215,30.7727438 131.27883,30.7727438 C131.974381,30.8159458 132.669933,30.7727438 133.361164,30.7727438 C133.667898,30.7727438 133.754301,30.68634 133.754301,30.3839264 C133.685178,29.2909172 133.784543,28.1892677 134.056715,27.1264999 C134.536257,24.8929594 136.424181,23.238325 138.700924,23.0525567 C139.94514,22.8754287 141.206637,22.9186306 142.433572,23.1821625 C142.779187,23.2253644 142.908793,23.3981722 142.822389,23.7437878 C142.692783,24.3961371 142.606379,25.0916884 142.433572,25.7440377 C142.347168,26.0032494 142.260764,26.0464513 142.001552,26.0032494 C141.29304,25.8520426 140.562928,25.8088406 139.841455,25.8736435 C138.454673,26.0032494 137.681358,26.6123968 137.365984,27.9559772 C137.201816,28.7854545 137.141334,29.6322126 137.193176,30.4746504 C137.193176,30.820266 137.413506,30.777064 137.586314,30.777064 L141.185036,30.777064 C141.578173,30.777064 141.707779,30.9109901 141.707779,31.2566056 L141.707779,33.0797276 C141.707779,33.3821412 141.578173,33.4685451 141.27576,33.4685451 L137.71592,33.4685451 C137.2839,33.4685451 137.149974,33.5592692 137.149974,33.9912886 C137.093812,36.2291492 137.093812,38.5274926 137.093812,40.7869542 L137.093812,40.7869542 Z M112.922325,33.7536779 L112.922325,23.7653887 C112.922325,23.3765712 113.008728,23.2469654 113.440748,23.2037635 C114.235664,23.1389606 115.0349,23.1389606 115.829815,23.2037635 C116.218633,23.2469654 116.305037,23.3765712 116.305037,23.7221868 L116.305037,42.6100762 C116.296396,42.9729725 116.313677,43.3358688 116.348239,43.6944449 C116.438963,45.0855475 117.173396,45.7335766 118.6077,45.6471727 C118.884193,45.6385324 119.160685,45.6126112 119.432857,45.5607689 C119.692069,45.5175669 119.864877,45.5607689 119.908079,45.8631825 C120.024724,46.4939308 120.093847,47.1333196 120.124088,47.7770285 C120.124088,47.9930382 120.124088,48.1226441 119.864877,48.165846 C118.348489,48.4250577 116.840741,48.5114616 115.350274,47.9498363 C113.859807,47.388211 113.26794,46.2217586 113.05193,44.7356118 C112.978487,44.2171884 112.952566,43.6944449 112.965527,43.1717014 C112.922325,40.048201 112.922325,36.8771784 112.922325,33.7536779 L112.922325,33.7536779 Z M122.642762,34.0992934 L122.642762,23.9165955 C122.642762,23.437054 122.729166,23.2210442 123.251909,23.1778423 C123.986342,23.1778423 124.681893,23.1346404 125.412006,23.1778423 C125.887228,23.2210442 125.977952,23.393852 125.977952,23.8301916 L125.977952,43.3920313 C125.969311,43.5518785 125.986592,43.7117257 126.021154,43.8672527 C126.237163,45.163311 126.841991,45.6471727 128.146689,45.5953304 C128.367019,45.608291 128.587349,45.5780496 128.799039,45.5089265 C129.27426,45.3793207 129.533472,45.5521285 129.576674,46.074872 C129.619875,46.5976155 129.706279,47.1592407 129.706279,47.7251862 C129.706279,47.9411959 129.706279,48.0708017 129.447068,48.1140037 C127.93068,48.3732153 126.366769,48.4596192 124.889263,47.854792 C123.411756,47.2499648 122.763727,45.9452662 122.634121,44.3986366 C122.547717,43.3142678 122.590919,42.2687808 122.590919,41.1844121 C122.642762,38.8774283 122.642762,36.4883609 122.642762,34.0992934 L122.642762,34.0992934 Z M147.902938,33.3173383 C148.339277,32.7168313 148.84906,32.1724868 149.419326,31.6929452 C150.6333,30.6949803 152.011442,30.5221726 153.540791,30.6517784 C153.761121,30.6517784 153.847525,30.7381823 153.890727,30.9585122 C154.003052,31.8182309 153.990091,32.6952303 153.847525,33.5506288 C153.804323,33.8098404 153.631515,33.7234365 153.497589,33.7234365 C152.802038,33.6586336 152.097846,33.7018356 151.415256,33.8530424 C149.635336,34.2850618 148.723775,35.5033566 148.334957,37.1968727 C148.153509,38.0393106 148.080066,38.8990293 148.118947,39.7587479 L148.118947,47.6776641 C148.118947,48.0232796 148.075745,48.1960874 147.639406,48.2392893 C146.775367,48.3256932 145.911328,48.3256932 145.047289,48.2392893 C144.740555,48.1960874 144.697354,48.0664815 144.697354,47.8072699 L144.697354,31.1486007 C144.697354,30.8893891 144.783757,30.7554631 145.047289,30.7165813 C145.764442,30.6301774 146.490234,30.6301774 147.207386,30.7165813 C147.444997,30.7165813 147.639406,30.9109901 147.639406,31.1486007 C147.72581,31.844152 147.812214,32.5569841 147.902938,33.3173383 L147.902938,33.3173383 Z M215.9892,37.4647248 C215.9892,37.335119 215.967599,37.1839122 215.967599,37.0543063 C215.967599,36.9247005 215.924397,36.6611686 215.881195,36.4451589 C215.449175,34.0992934 214.403688,32.1897676 212.191749,31.1053988 C210.770405,30.4141677 209.176253,30.1679166 207.616663,30.3968869 C204.66597,30.6993005 202.540435,32.176807 201.369662,34.868288 C200.293934,37.4215228 200.125446,40.2642107 200.890121,42.9254504 C201.516549,45.5737294 203.611843,47.6171813 206.273083,48.1788066 C208.472061,48.7015501 210.757444,48.7015501 212.956423,48.1788066 C215.11652,47.7035852 215.254766,47.4400534 214.429609,45.3145178 C214.300004,44.9645821 214.127196,44.9213801 213.78158,45.0553061 C212.062143,45.6903747 210.21742,45.897744 208.398618,45.6601333 C206.834708,45.4873256 205.534329,44.8781782 204.709172,43.4481939 C204.290113,42.6100762 204.039542,41.6985152 203.970419,40.7653532 C203.927217,40.3333338 204.056823,40.2426097 204.493163,40.2426097 L214.909151,40.2426097 C215.427574,40.2426097 215.950318,40.3290136 215.99352,39.6334623 L215.99352,39.3310487 C215.99352,39.0286351 215.99784,38.6743792 215.99784,38.3287636 C215.99784,37.9658673 216.00648,37.7844192 215.9892,37.4604046 L215.9892,37.4647248 Z M211.366592,37.7455374 L204.709172,37.7455374 C204.274273,37.7455374 204.100025,37.5295277 204.186429,37.0975083 C204.320355,36.0649818 204.743734,35.0886179 205.404724,34.2850618 C206.575496,32.9890035 208.096205,32.7686736 209.698997,33.1574911 C211.301789,33.5463086 212.131266,34.7646034 212.476882,36.3285137 C212.710172,37.270316 212.334315,37.7412172 211.349311,37.7412172 L211.366592,37.7412172 L211.366592,37.7455374 Z M51.644689,32.8032352 C50.9188963,26.6988006 48.0027652,21.0695875 43.4363198,16.9567625 C38.6668254,12.5717654 33.0246516,10.3555057 26.6005227,10.096294 L25.2569423,10.096294 C24.2546572,10.096294 23.2523722,10.1826979 22.2630477,10.3555057 C16.3616623,11.2670667 11.2811138,13.7857399 7.20285042,18.1707371 C1.12865727,24.6855901 -1.17400628,32.4532994 0.562711816,41.2016928 C3.42700062,55.6613831 17.8434889,64.6905891 32.10013,61.2171529 C44.8965455,58.1022929 53.312284,45.8675027 51.644689,32.8032352 Z M3.29739479,30.5437735 C5.94567389,21.2121539 11.9766651,15.1768425 21.5242945,13.1765925 C33.9362126,10.584476 45.6093776,18.7366826 48.5168683,30.3709658 C48.5384693,30.487611 48.5687106,30.6042563 48.6075924,30.7165813 C48.7371982,31.0233151 48.6075924,31.0665171 48.3440605,31.0665171 L36.679536,31.0665171 C35.2927536,31.0665171 34.9514583,31.3689307 34.7268082,32.7168313 C33.944853,37.1882323 33.1196959,41.7028354 32.2945388,46.1742364 L32.2081349,46.1742364 C31.8625194,44.6103261 31.5169038,43.0896177 31.1669681,41.5300276 C29.4388904,34.3196233 27.8274579,27.0703373 26.1771437,19.7778494 C26.09506,19.1211799 25.5420751,18.6200373 24.8810854,18.6070768 C24.1941745,18.6070768 23.6066281,19.0995789 23.4899829,19.7778494 C21.6539003,26.7247218 19.7875764,33.6715942 17.9644544,40.6184666 C17.9644544,40.6616685 17.9212524,40.6616685 17.9212524,40.7048705 C17.7484447,40.6616685 17.7916466,40.5277425 17.7484447,40.4413386 C17.0096914,37.7498576 16.3184603,35.0151746 15.5883475,32.3236936 C15.3291359,31.3689307 14.9359982,31.0665171 13.8948314,31.0665171 L3.73373442,31.0665171 C3.29739479,31.109719 3.16778897,31.0233151 3.29739479,30.5437735 L3.29739479,30.5437735 Z M43.5702459,51.1381397 C39.8419182,55.6095408 34.5194388,58.4522286 28.7303785,59.0656962 C15.9944458,60.6296065 4.40768472,51.5744793 2.84377439,38.8385466 C2.65800604,37.3394391 2.62344449,35.823051 2.73144934,34.3196233 C2.77897148,34.0172097 2.82217342,33.9308059 3.16346877,33.9308059 L12.797502,33.9308059 C13.1431176,33.9308059 13.2295214,34.0604117 13.3202455,34.3628253 C14.3614123,38.359005 15.4457811,42.3551847 16.5301499,46.3470442 C16.7461596,47.1722013 17.2257011,47.6042208 17.9169322,47.6042208 C18.6081633,47.6042208 19.0488231,47.1722013 19.2648328,46.3470442 C21.0447529,39.7069056 22.7771508,33.1056488 24.5570708,26.4741505 C24.6175536,26.3186235 24.6607555,26.1587764 24.6866767,25.994609 C26.8467738,35.1102189 28.98527,44.1394249 31.0676036,53.1729512 C31.1583277,53.8728227 31.7545145,54.391246 32.4587062,54.3869258 C33.1931392,54.3869258 33.6294788,53.9117044 33.8022866,53.0433454 C34.8866554,46.8352262 36.0142261,40.6703089 37.0985948,34.46651 C37.1893189,34.0733723 37.3189247,34.0344905 37.6645403,34.0344905 L48.6464741,34.0344905 C48.9920897,34.0344905 49.1216955,34.1208944 49.1216955,34.46651 C49.5925967,40.5450233 47.5923467,46.5587337 43.5702459,51.1381397 L43.5702459,51.1381397 Z M109.448888,37.1450304 C109.146475,34.755963 108.278116,32.7168313 106.195782,31.4121326 C104.631872,30.4141677 102.851952,30.2413599 101.011549,30.4141677 C98.2379843,30.7165813 96.1513304,32.1076839 94.963277,34.6263571 C93.7061005,37.3178382 93.6672187,40.138925 94.4016517,43.0032138 C95.0928828,45.5650891 96.743197,47.2154033 99.2618703,48.0837623 C100.37648,48.4466586 101.542933,48.6237866 102.718026,48.6065058 C104.484985,48.6497078 106.251945,48.3861759 107.92818,47.8245507 C108.234914,47.7597477 108.429323,47.4616543 108.36452,47.1549206 C108.36452,47.1462802 108.36452,47.1376398 108.360199,47.1289994 C108.273796,46.5284924 108.14419,45.9323056 107.971382,45.3490793 C107.841776,45.0034638 107.755372,44.9170599 107.319033,45.0466657 C105.612556,45.6730939 103.785114,45.8934238 101.979273,45.6946949 C100.026545,45.4786852 98.5231171,44.6103261 97.8578072,42.6705589 C97.6806792,42.0743721 97.564034,41.4652247 97.5121916,40.8474369 C97.4689897,40.4542992 97.5553936,40.3246934 97.987413,40.3246934 C99.810535,40.3678953 101.590455,40.3246934 103.413577,40.3246934 L108.926145,40.3246934 C109.228559,40.3246934 109.358164,40.2814915 109.401366,39.892674 C109.526652,38.981113 109.543933,38.0609116 109.448888,37.1450304 Z M104.847882,37.7455374 L98.164541,37.7455374 C97.7757235,37.7455374 97.5597138,37.7023355 97.6893196,37.2271141 C97.8059648,36.6525283 97.965812,36.0865828 98.164541,35.5335979 C98.9896981,33.710476 100.324638,32.8853188 102.37673,33.0149247 C104.329458,33.1445305 105.586635,34.310983 106.022974,36.2723512 C106.224583,37.2544753 105.832886,37.7455374 104.847882,37.7455374 Z M169.218776,41.4349833 C169.175574,39.7457874 169.30518,37.6159316 169.132372,35.490396 C168.916363,32.9285208 167.482058,31.2350046 165.006587,30.6258572 C162.41447,29.9778281 159.843955,30.3234436 157.325281,30.975793 C157.06607,31.0189949 157.022868,31.1486007 157.06607,31.3646105 C157.096311,32.0342406 157.238878,32.6952303 157.498089,33.3173383 C157.627695,33.667274 157.800503,33.7493577 158.146118,33.6240721 C159.688428,33.1445305 161.308501,32.9674025 162.919933,33.1013286 C164.915863,33.3173383 165.827424,34.2721012 165.913828,36.2723512 C165.942629,36.9088598 165.624375,37.1968727 164.959065,37.13639 C163.135943,37.002464 161.317141,36.9592621 159.580423,37.6116114 C155.497839,39.0459159 154.979416,42.7353618 156.124267,45.340439 C156.949425,47.2499648 158.642941,47.988718 160.552467,48.2911316 C163.416755,48.7231511 166.19464,48.2911316 168.929323,47.6863044 C169.274939,47.5955804 169.231737,47.4227726 169.231737,47.2067629 L169.218776,41.4349833 L169.218776,41.4349833 Z M165.874946,42.7310416 L165.874946,45.1330696 C165.874946,45.3922813 165.831744,45.5218871 165.572532,45.5650891 C164.129587,45.8459017 162.647761,45.8934238 161.187535,45.6946949 C160.103166,45.5521285 159.230487,44.7312916 159.027438,43.6555632 C158.768226,42.2212587 159.243448,41.0072841 160.323496,40.3981367 C161.403545,39.7889893 162.578638,39.7501076 163.74941,39.7933095 C164.358558,39.7933095 164.920183,39.9229153 165.477488,39.9661173 C165.779902,39.9661173 165.866305,40.0957231 165.866305,40.3981367 L165.874946,42.7310416 Z M51.8218169,12.053342 C51.5755659,11.0251358 50.711527,10.2604614 49.6617198,10.1438162 L49.1389763,10.1438162 C48.0934893,10.2215797 47.2294504,10.9862541 47.0134407,12.0101401 C46.7239877,12.9433021 47.0350417,13.9585477 47.7953959,14.5720153 C48.6162328,15.2632464 49.7870054,15.3539705 50.7028866,14.788025 C51.6187678,14.2047988 52.068068,13.1031492 51.8174967,12.0447016 L51.8174967,12.053342 L51.8218169,12.053342 Z M49.3938677,14.7016211 C48.2792576,14.7361827 47.3460957,13.8591832 47.3115341,12.7402529 C47.3115341,12.7143318 47.3115341,12.6884106 47.3115341,12.6624894 C47.2856129,11.5046774 48.2058143,10.5499144 49.3636264,10.5239933 C49.3722668,10.5239933 49.3809072,10.5239933 49.3895476,10.5239933 C50.5300788,10.4894317 51.4848418,11.3880321 51.5194033,12.5328836 C51.5194033,12.5588048 51.5194033,12.5847259 51.5194033,12.6106471 C51.4762014,13.7598188 50.5430394,14.6757 49.3895476,14.6929807 L49.3895476,14.7016211 L49.3938677,14.7016211 Z M49.9641334,13.0945089 C49.8345276,12.9217011 49.7913256,12.7920953 50.0505373,12.6624894 C50.3615913,12.519923 50.5127981,12.1613469 50.3961528,11.8373323 C50.3572711,11.5046774 50.0807786,11.2497859 49.7481237,11.2281849 C49.4154687,11.1893032 49.0828138,11.1763426 48.7501588,11.184983 C48.5298289,11.184983 48.443425,11.2713869 48.443425,11.4917168 L48.443425,13.6950159 C48.443425,13.8246217 48.4002231,13.9974295 48.6637549,13.9974295 C48.9272868,13.9974295 48.9229666,13.8246217 48.9229666,13.6518139 C48.9661685,13.3926023 48.7501588,12.9562626 49.0525724,12.8698588 C49.4413899,12.7834549 49.4413899,13.2629964 49.6185178,13.4790061 C49.7956458,13.6950159 49.9209314,14.0881535 50.4393548,13.9110256 C50.2967884,13.6258928 50.1369412,13.3537205 49.9598132,13.0858685 L49.9598132,13.0945089 L49.9641334,13.0945089 Z M49.2642619,12.4810413 C48.8754444,12.5242432 48.9186464,12.2607114 48.9186464,11.9582978 C48.9186464,11.78549 48.8322425,11.4830764 49.22106,11.5262783 C49.5234736,11.5694803 49.8734093,11.5262783 49.9166113,12.0014997 C49.9598132,12.4767211 49.5753159,12.4378393 49.2642619,12.4810413 Z" id="Shape"></path>
            <g id="Group" transform="translate(63.8579, -0)">
                <path d="M1.46022567,7.34865047 L1.46022567,11.6861255 L0,11.6861255 L0,0.609147393 L4.08690379,0.609147393 C5.30087838,0.609147393 6.24700093,0.920201381 6.93823201,1.53798916 C7.6294631,2.15577694 7.97075844,2.97661386 7.97075844,3.99617971 C7.97075844,5.07190808 7.63378329,5.90138538 6.96415318,6.48029142 C6.29452306,7.05919745 5.33111974,7.35297066 4.0782634,7.35297066 L1.46886605,7.35297066 L1.46022567,7.34865047 Z M1.46022567,6.15195665 L4.08690379,6.15195665 C4.86885895,6.15195665 5.46504576,5.9661883 5.88410461,5.59897178 C6.30316345,5.23175527 6.50621258,4.70037138 6.50621258,4.0004999 C6.50621258,3.33951018 6.29884326,2.81244648 5.88410461,2.4149886 C5.46936596,2.01753073 4.89910031,1.8144816 4.17330767,1.79720082 L1.46454586,1.79720082 L1.46454586,6.14763646 L1.46022567,6.15195665 Z" id="Shape"></path>
                <path d="M9.23225517,7.49553707 C9.23225517,6.68766074 9.39210236,5.9618681 9.70747654,5.31815916 C10.0228507,4.67445021 10.4678307,4.17762787 11.0337762,3.82769213 C11.5997216,3.47775639 12.2434306,3.30062843 12.9692232,3.30062843 C14.0881535,3.30062843 14.9953943,3.68944591 15.6909456,4.46708088 C16.3821767,5.24471585 16.7277922,6.27724229 16.7277922,7.56466018 L16.7277922,7.66402465 C16.7277922,8.46758079 16.5722653,9.18473304 16.2655315,9.8198016 C15.9587977,10.4548702 15.5181378,10.9516925 14.9478722,11.3059484 C14.3776066,11.6602044 13.720937,11.8373323 12.9821838,11.8373323 C11.8675737,11.8373323 10.9603329,11.4485148 10.2691018,10.6752001 C9.57787072,9.89756509 9.23225517,8.87367905 9.23225517,7.59490154 L9.23225517,7.49553707 L9.23225517,7.49553707 Z M10.6492789,7.66402465 C10.6492789,8.57558564 10.8609684,9.31001867 11.2843475,9.86300354 C11.7077265,10.4159884 12.2736719,10.6924808 12.986504,10.6924808 C13.6993361,10.6924808 14.2696017,10.4116682 14.6929807,9.85004296 C15.1120396,9.2884177 15.3237291,8.50646253 15.3237291,7.49553707 C15.3237291,6.59261647 15.1077194,5.86250364 14.6800202,5.30087838 C14.2523209,4.73925312 13.6820553,4.4584405 12.9735434,4.4584405 C12.2650316,4.4584405 11.7163669,4.73493293 11.2929878,5.2879178 C10.8652886,5.84090266 10.6535991,6.63149822 10.6535991,7.66402465 L10.6492789,7.66402465 Z" id="Shape"></path>
                <polygon id="Path" points="25.8736435 9.74635829 27.4548346 3.45183523 28.863218 3.45183523 26.4655102 11.6861255 25.3249789 11.6861255 23.3247289 5.44776499 21.3763213 11.6861255 20.23579 11.6861255 17.8467226 3.45183523 19.2464655 3.45183523 20.8665384 9.61675246 22.7847046 3.45183523 23.9165955 3.45183523 25.8736435 9.74635829"></polygon>
                <path d="M33.8055202,11.8373323 C32.6909101,11.8373323 31.7793491,11.4701158 31.0794776,10.740003 C30.3796062,10.0098901 30.0296704,9.02488585 30.0296704,7.79795067 L30.0296704,7.53873902 C30.0296704,6.7222223 30.1851974,5.99210946 30.4962514,5.35272071 C30.8073054,4.70901176 31.243645,4.20786923 31.8052703,3.84497291 C32.3668955,3.48207659 32.9717227,3.30062843 33.6283923,3.30062843 C34.6998004,3.30062843 35.5292777,3.65488436 36.1254646,4.35907603 C36.7173312,5.06326769 37.0154246,6.07419316 37.0154246,7.38753222 L37.0154246,7.97507864 L31.4380538,7.97507864 C31.4596547,8.78727516 31.6972654,9.44394469 32.1508858,9.94076703 C32.6045062,10.4419096 33.1834123,10.6924808 33.8832837,10.6924808 C34.3801061,10.6924808 34.7991649,10.5887962 35.1447805,10.385747 C35.490396,10.1826979 35.7928096,9.91484587 36.0520213,9.57787072 L36.9117399,10.2475008 C36.2205088,11.3059484 35.1879824,11.8373323 33.8055202,11.8373323 Z M33.6283923,4.4584405 C33.0581266,4.4584405 32.5829052,4.66580982 32.198408,5.07622828 C31.8139107,5.49096693 31.5763,6.06987296 31.4812557,6.81726657 L35.6070412,6.81726657 L35.6070412,6.70926171 C35.5681595,5.99210946 35.3737508,5.4391246 35.0281352,5.04598692 C34.6825197,4.65284924 34.2159387,4.4584405 33.6283923,4.4584405 Z" id="Shape"></path>
                <path d="M42.718081,4.71765215 C42.5063915,4.6830906 42.273101,4.66580982 42.0268499,4.66580982 C41.1023284,4.66580982 40.4759002,5.0589475 40.1475654,5.84522286 L40.1475654,11.6904457 L38.7391821,11.6904457 L38.7391821,3.45183523 L40.1086837,3.45183523 L40.1302847,4.40227797 C40.5925454,3.66784494 41.2448948,3.30062843 42.0916529,3.30062843 C42.3638251,3.30062843 42.5755146,3.33518998 42.7137608,3.40863329 L42.7137608,4.71765215 L42.718081,4.71765215 Z" id="Path"></path>
                <path d="M47.3752505,11.8373323 C46.2606403,11.8373323 45.3490793,11.4701158 44.6492079,10.740003 C43.9493364,10.0098901 43.5994007,9.02488585 43.5994007,7.79795067 L43.5994007,7.53873902 C43.5994007,6.7222223 43.7549277,5.99210946 44.0659816,5.35272071 C44.3770356,4.70901176 44.8133753,4.20786923 45.3750005,3.84497291 C45.9366258,3.48207659 46.541453,3.30062843 47.1981225,3.30062843 C48.2695307,3.30062843 49.099008,3.65488436 49.6951948,4.35907603 C50.2870614,5.06326769 50.5851548,6.07419316 50.5851548,7.38753222 L50.5851548,7.97507864 L45.007784,7.97507864 C45.029385,8.78727516 45.2669957,9.44394469 45.720616,9.94076703 C46.1742364,10.4419096 46.7531425,10.6924808 47.453014,10.6924808 C47.9498363,10.6924808 48.3688951,10.5887962 48.7145107,10.385747 C49.0601262,10.1826979 49.3625398,9.91484587 49.6217515,9.57787072 L50.4814701,10.2475008 C49.7902391,11.3059484 48.7577126,11.8373323 47.3752505,11.8373323 L47.3752505,11.8373323 Z M47.1981225,4.4584405 C46.6278568,4.4584405 46.1526355,4.66580982 45.7681382,5.07622828 C45.3836409,5.49096693 45.1460302,6.06987296 45.0509859,6.81726657 L49.1767715,6.81726657 L49.1767715,6.70926171 C49.1378897,5.99210946 48.943481,5.4391246 48.5978654,5.04598692 C48.2522499,4.65284924 47.7856689,4.4584405 47.1981225,4.4584405 Z" id="Shape"></path>
                <path d="M51.967617,7.49985727 C51.967617,6.23836054 52.2657104,5.21879469 52.8662174,4.4541203 C53.4624042,3.68512572 54.2486796,3.30062843 55.2164031,3.30062843 C56.1841266,3.30062843 56.9444808,3.62896319 57.506106,4.28995292 L57.506106,0 L58.9144894,0 L58.9144894,11.6861255 L57.6227513,11.6861255 L57.5536282,10.8048059 C56.9920029,11.496037 56.2057276,11.8416525 55.2034425,11.8416525 C54.2011574,11.8416525 53.4710446,11.452835 52.8705376,10.6708799 C52.2700306,9.8889247 51.967617,8.86935885 51.967617,7.61218232 L51.967617,7.50417746 L51.967617,7.49985727 Z M53.3760003,7.65970446 C53.3760003,8.59286642 53.5704091,9.32297925 53.9549063,9.85004296 C54.3394036,10.3771067 54.8707875,10.6406385 55.5533782,10.6406385 C56.4476584,10.6406385 57.1000078,10.2388604 57.5104262,9.4396245 L57.5104262,5.6594545 C57.0913674,4.88181953 56.4433382,4.49732224 55.570659,4.49732224 C54.8794279,4.49732224 54.3437238,4.76517429 53.9592265,5.29655819 C53.5747292,5.82794208 53.3803205,6.61853763 53.3803205,7.66402465 L53.3760003,7.65970446 Z" id="Shape"></path>
                <path d="M72.1126829,7.65970446 C72.1126829,8.91688099 71.8232299,9.92780645 71.2443238,10.6924808 C70.6654178,11.4571552 69.892103,11.8373323 68.9157391,11.8373323 C67.8745723,11.8373323 67.0710162,11.4701158 66.5050707,10.7356828 L66.4359476,11.6861255 L65.1442095,11.6861255 L65.1442095,0 L66.5525929,0 L66.5525929,4.35907603 C67.1185383,3.65488436 67.9048137,3.30062843 68.9027785,3.30062843 C69.9007434,3.30062843 70.6870188,3.68080553 71.2572844,4.43251933 C71.8275501,5.18855333 72.1126829,6.22539996 72.1126829,7.53873902 L72.1126829,7.65970446 Z M70.7042996,7.49985727 C70.7042996,6.54077414 70.5185312,5.80202092 70.1469945,5.27927741 C69.7754578,4.7565339 69.2440739,4.49732224 68.5485226,4.49732224 C67.6196808,4.49732224 66.9543709,4.92934167 66.5482727,5.78906033 L66.5482727,9.34890042 C66.9802921,10.2129393 67.6499222,10.6406385 68.5658034,10.6406385 C69.2397537,10.6406385 69.7668174,10.3814269 70.1426743,9.85868334 C70.5185312,9.33593984 70.7042996,8.54966448 70.7042996,7.49985727 L70.7042996,7.49985727 Z" id="Shape"></path>
                <path d="M76.5884042,9.62539285 L78.5065704,3.45615542 L80.0143182,3.45615542 L76.7050494,12.9605828 C76.1909463,14.3300844 75.3787498,15.0169953 74.2641396,15.0169953 L73.9962876,14.9953943 L73.4735441,14.8960299 L73.4735441,13.7554986 L73.8537212,13.7857399 C74.3289426,13.7857399 74.7004793,13.6906957 74.9683313,13.4962869 C75.2361834,13.3018782 75.4521931,12.9519424 75.6250008,12.4378393 L75.9360548,11.5997216 L72.9983227,3.45615542 L74.5363119,3.45615542 L76.5927244,9.62539285 L76.5884042,9.62539285 Z" id="Path"></path>
            </g>
        </g>
    </g>
</svg>