<?xml version="1.0" encoding="UTF-8"?>
<svg width="28px" height="28px" viewBox="0 0 28 28" version="1.1" xmlns="http://www.w3.org/2000/svg" xmlns:xlink="http://www.w3.org/1999/xlink">
    <title>91276451-8637-4226-8133-49F152DC9AF3</title>
    <g id="Social-Media/Outline/X-White" stroke="none" stroke-width="1" fill="none" fill-rule="evenodd">
        <g id="Twitter">
            <path d="M14,0.5 C17.7279222,0.5 21.1029222,2.01103887 23.5459417,4.45405831 C25.9889611,6.89707775 27.5,10.2720778 27.5,14 C27.5,17.7279222 25.9889611,21.1029222 23.5459417,23.5459417 C21.1029222,25.9889611 17.7279222,27.5 14,27.5 C10.2720778,27.5 6.89707775,25.9889611 4.45405831,23.5459417 C2.01103887,21.1029222 0.5,17.7279222 0.5,14 C0.5,10.2720778 2.01103887,6.89707775 4.45405831,4.45405831 C6.89707775,2.01103887 10.2720778,0.5 14,0.5 Z" id="back" stroke="#FFFFFF"></path>
            <path d="M17.4508406,9 L19.2908813,9 L15.2710138,13.6597473 L20,20 L16.2969944,20 L13.3968416,16.1549335 L10.0779419,20 L8.23688232,20 L12.5364238,15.0163434 L8,9 L11.7967397,9 L14.4182374,12.514958 L17.4508406,9 L17.4508406,9 Z M16.8035813,18.9 L17.8181818,18.9 L11.2704105,10.1 L10.1818182,10.1 L16.8035813,18.9 Z" id="Shape" fill="#FFFFFF" fill-rule="nonzero"></path>
        </g>
    </g>
</svg>