<?xml version="1.0" encoding="UTF-8"?>
<svg width="28px" height="28px" viewBox="0 0 28 28" version="1.1" xmlns="http://www.w3.org/2000/svg" xmlns:xlink="http://www.w3.org/1999/xlink">
    <title>0AE48793-C3C2-4722-90E3-DD13A0C4DA7D</title>
    <g id="Social-Media/Outline/Youtube-White" stroke="none" stroke-width="1" fill="none" fill-rule="evenodd">
        <g id="Youtube">
            <path d="M14,0.5 C17.7279222,0.5 21.1029222,2.01103887 23.5459417,4.45405831 C25.9889611,6.89707775 27.5,10.2720778 27.5,14 C27.5,17.7279222 25.9889611,21.1029222 23.5459417,23.5459417 C21.1029222,25.9889611 17.7279222,27.5 14,27.5 C10.2720778,27.5 6.89707775,25.9889611 4.45405831,23.5459417 C2.01103887,21.1029222 0.5,17.7279222 0.5,14 C0.5,10.2720778 2.01103887,6.89707775 4.45405831,4.45405831 C6.89707775,2.01103887 10.2720778,0.5 14,0.5 Z" id="back" stroke="#FFFFFF"></path>
            <path d="M14.049638,8.866738 C14.0658807,8.86677367 14.0859566,8.86682717 14.1096382,8.86690742 L14.4139844,8.86859269 C15.5822321,8.87725979 18.8815262,8.92492884 19.8342667,9.1871086 C20.4768242,9.36342957 20.9828606,9.88295753 21.1545939,10.5427113 C21.4426611,11.6464602 21.4648201,13.8571908 21.4665246,14.1907722 L21.4665246,14.275893 C21.4648201,14.6094635 21.4426611,16.8201266 21.1545939,17.9239554 C20.9828606,18.5837091 20.4768242,19.1032371 19.8342667,19.2796446 C18.8462395,19.5514613 15.3346211,19.5926457 14.2931763,19.5988857 L14.1096382,19.5997593 C14.0859566,19.5998395 14.0658807,19.599893 14.049638,19.5999287 L13.9503619,19.5999287 C13.9341192,19.599893 13.9140433,19.5998395 13.8903617,19.5997593 L13.7068234,19.5988857 C12.665377,19.5926457 9.15374766,19.5514613 8.16564848,19.2796446 C7.52309091,19.1032371 7.01705455,18.5837091 6.84532121,17.9239554 C6.58133147,16.9121123 6.54071766,14.970221 6.53446938,14.396665 L6.53347534,14.275893 C6.53333333,14.2480955 6.53333333,14.2333333 6.53333333,14.2333333 L6.53335108,14.2224772 C6.53336883,14.2153117 6.53340434,14.2046714 6.53347534,14.1907722 L6.53446938,14.0699965 C6.54071766,13.4964231 6.58133147,11.5544811 6.84532121,10.5427113 C7.01705455,9.88295753 7.52309091,9.36342957 8.16564848,9.1871086 C9.1184584,8.92492884 12.4177651,8.87725979 13.5860151,8.86859269 L13.8903617,8.86690742 C13.9140433,8.86682717 13.9341192,8.86677367 13.9503619,8.866738 Z M12.6,12.1333333 L12.6,16.8 L16.3333333,14.4667558 L12.6,12.1333333 Z" id="Combined-Shape" fill="#FFFFFF"></path>
        </g>
    </g>
</svg>